<?xml version="1.0" encoding="UTF-8" ?>
<!DOCTYPE svg PUBLIC "-//W3C//DTD SVG 1.1//EN" "http://www.w3.org/Graphics/SVG/1.1/DTD/svg11.dtd">
<svg width="225pt" height="225pt" viewBox="0 0 225 225" version="1.1" xmlns="http://www.w3.org/2000/svg">
<g id="#ffffffff">
</g>
<g id="#000000ff">
<path opacity="1.00" d=" M 192.28 18.04 C 192.73 17.98 193.63 17.85 194.08 17.79 C 195.72 20.96 195.73 24.69 197.25 27.91 C 200.20 30.11 205.31 28.56 207.47 31.77 C 205.08 34.52 200.32 33.25 197.29 35.29 C 195.68 38.54 195.75 42.36 194.06 45.59 C 193.60 45.46 192.67 45.20 192.21 45.07 C 191.23 41.83 190.80 38.42 189.50 35.28 C 186.55 33.78 183.06 33.77 179.92 32.81 C 179.78 32.34 179.49 31.41 179.35 30.94 C 182.52 29.14 186.66 29.80 189.62 27.72 C 190.83 24.59 191.29 21.24 192.28 18.04 Z" />
<path opacity="1.00" d=" M 60.08 42.00 C 82.42 25.36 112.82 20.11 139.33 28.91 C 161.97 36.10 181.35 52.91 191.56 74.38 C 198.43 88.52 201.32 104.47 200.03 120.13 C 211.26 132.55 223.28 146.39 225.00 163.76 L 225.00 165.75 C 224.52 173.76 218.77 180.60 211.28 183.14 C 196.37 188.52 180.07 186.02 164.92 183.00 C 150.75 193.38 133.52 199.63 115.94 200.22 C 91.34 201.35 66.48 191.34 49.47 173.54 C 31.84 155.64 22.79 129.86 24.97 104.86 C 13.72 92.47 1.74 78.60 0.00 61.26 L 0.00 59.25 C 0.48 51.24 6.23 44.40 13.72 41.87 C 28.63 36.47 44.92 39.00 60.08 42.00 M 52.85 52.90 C 39.24 66.32 30.73 84.52 28.48 103.45 C 46.53 121.95 67.96 136.86 90.33 149.65 C 113.46 162.59 138.04 173.22 163.87 179.41 C 187.36 161.68 200.39 130.99 196.16 101.79 C 193.55 79.84 181.61 59.29 164.13 45.83 C 148.35 33.46 128.00 27.07 107.99 28.24 C 87.39 29.24 67.35 38.25 52.85 52.90 M 20.02 43.47 C 14.43 44.70 8.61 47.30 5.56 52.39 C 2.42 57.93 3.38 64.67 5.37 70.42 C 9.58 81.89 17.43 91.50 25.49 100.50 C 28.53 78.87 39.80 58.63 56.65 44.73 C 44.62 42.51 32.12 40.79 20.02 43.47 M 28.11 108.14 C 27.08 130.49 35.11 153.18 50.43 169.56 C 63.86 184.29 82.68 194.00 102.49 196.27 C 122.64 198.88 143.55 193.52 160.29 182.08 C 140.49 176.81 121.25 169.48 102.98 160.21 C 75.76 146.48 50.07 129.37 28.11 108.14 M 199.51 124.47 C 196.60 144.63 186.77 163.85 171.49 177.42 C 170.43 178.27 169.56 179.32 168.76 180.41 C 180.86 182.49 193.44 184.27 205.57 181.39 C 210.97 180.14 216.50 177.50 219.46 172.60 C 222.66 166.83 221.56 159.85 219.39 153.93 C 215.09 142.74 207.42 133.30 199.51 124.47 Z" />
<path opacity="1.00" d=" M 146.14 154.96 C 148.98 153.69 152.45 157.11 150.64 159.83 C 149.55 162.39 145.25 162.11 144.46 159.45 C 143.63 157.76 144.79 155.95 146.14 154.96 Z" />
<path opacity="1.00" d=" M 26.36 169.36 C 28.31 167.90 31.57 169.53 31.52 172.00 C 31.92 174.72 28.34 176.82 26.21 175.07 C 24.07 173.92 24.24 170.43 26.36 169.36 Z" />
<path opacity="1.00" d=" M 169.23 194.07 C 173.85 191.77 179.92 195.81 179.19 201.01 C 179.02 206.31 171.98 209.36 167.99 205.87 C 163.92 202.99 164.76 196.11 169.23 194.07 Z" />
</g>
</svg>
