<?xml version="1.0" encoding="utf-8"?>
<!-- Generator: Adobe Illustrator 16.0.0, SVG Export Plug-In . SVG Version: 6.00 Build 0)  -->
<!DOCTYPE svg PUBLIC "-//W3C//DTD SVG 1.1//EN" "http://www.w3.org/Graphics/SVG/1.1/DTD/svg11.dtd">
<svg version="1.1" id="" xmlns="http://www.w3.org/2000/svg" xmlns:xlink="http://www.w3.org/1999/xlink"
	   viewBox="0 0 725.068 640" enable-background="new 0 0 725.068 1025.445"
	 xml:space="preserve">
<path id=""  d="M547.873,215.327c-24.289,95.807-95.808,175.084-205.108,170.023
	c-109.301-5.06-70.169-94.12-54.651-116.723c15.519-22.602,64.771-67.132,110.988-64.771c46.218,2.361,31.375,46.554,7.76,59.036
	c-23.614,12.482-37.446,9.108-41.494,1.35c-4.048-7.76,0.675-18.556,15.181-22.266c0,0-4.723,7.759,0,9.108s14.506,0,19.229-10.458
	c4.723-10.457-8.583-13.83-21.328-10.457c-12.745,3.374-63.348,21.927-77.178,62.072c-13.832,40.146-4.049,66.795,31.71,72.193
	c35.759,5.397,98.506,4.476,155.855-67.762s68.145-163.996,58.361-224.382C547.198,72.291,572.162,119.521,547.873,215.327z
	 M447.006,239.279c-20.579,48.578-63.084,53.638-80.29,51.951c-17.204-1.686-20.24-19.566-20.24-19.566
	c-5.397,20.917-2.511,45.494,53.301,34.812c43.519-8.33,87.374-56.402,82.314-104.98c-5.062-48.579-46.218-63.422-88.386-57.687
	c-42.169,5.735-111.145,22.275-167.663,93.783c-62.674,79.298-54.313,130.892-54.313,130.892
	c7.759-32.048,21.253-61.397,71.181-116.385c49.928-54.989,116.048-76.916,150.458-81.64
	C427.776,165.736,467.584,190.701,447.006,239.279z"/>
</svg>
