<?xml version="1.0" encoding="UTF-8" ?>
<!DOCTYPE svg PUBLIC "-//W3C//DTD SVG 1.1//EN" "http://www.w3.org/Graphics/SVG/1.1/DTD/svg11.dtd">
<svg width="981pt" height="608pt" viewBox="0 0 981 608" version="1.1" xmlns="http://www.w3.org/2000/svg">
<g id="#ffffffff">
</g>
<g id="#000000ff">
<path opacity="1.00" d=" M 455.60 1.84 C 469.32 -0.15 483.21 0.93 497.02 0.66 C 522.10 1.34 547.32 3.97 571.41 11.26 C 607.19 21.96 641.51 38.15 671.79 60.09 C 686.21 70.88 699.26 83.39 711.73 96.35 C 724.97 110.58 737.92 125.31 747.84 142.11 C 758.54 159.90 767.76 178.58 775.42 197.87 C 779.93 209.60 783.94 221.60 786.08 234.01 C 786.93 239.47 787.22 245.86 783.37 250.32 C 780.05 254.02 775.32 256.02 770.83 257.89 C 766.32 259.71 762.03 256.44 758.12 254.60 C 752.09 251.55 750.23 244.55 748.10 238.70 C 742.16 220.33 735.93 201.97 727.15 184.73 C 711.30 152.55 687.93 124.44 660.62 101.34 C 630.18 75.43 593.65 57.00 555.04 46.88 C 543.30 43.59 531.28 41.31 519.10 40.63 C 494.39 39.16 469.47 39.16 444.92 42.56 C 376.56 55.44 313.35 95.21 273.48 152.40 C 250.69 184.89 235.18 222.58 229.28 261.86 C 219.45 326.49 233.14 394.94 269.24 449.68 C 273.67 456.65 278.11 465.38 274.77 473.71 C 271.00 484.06 257.18 489.66 247.78 483.25 C 240.48 477.31 235.69 468.97 230.78 461.09 C 217.12 437.41 205.54 412.37 198.06 386.03 C 186.76 346.46 185.85 304.61 190.24 263.90 C 194.72 222.48 209.27 182.49 230.74 146.90 C 248.52 118.23 270.91 92.48 296.44 70.46 C 327.32 43.97 364.41 25.41 403.10 13.31 C 420.25 8.06 437.80 4.08 455.60 1.84 Z" />
<path opacity="1.00" d=" M 825.62 48.87 C 838.31 47.12 851.16 47.49 863.93 47.77 C 881.65 48.51 899.45 49.40 916.94 52.55 C 934.78 56.76 952.74 63.87 965.86 77.09 C 973.62 85.19 980.11 95.53 980.33 107.06 C 980.40 118.75 981.04 130.72 977.20 141.96 C 971.97 157.14 963.00 170.70 953.38 183.42 C 933.40 209.17 909.37 231.46 884.44 252.32 C 826.63 299.93 762.55 339.31 696.86 374.99 C 624.91 413.76 550.34 447.61 474.05 476.88 C 429.45 493.91 384.23 509.33 338.40 522.68 C 294.20 535.48 249.39 546.39 203.96 553.87 C 180.85 557.86 157.47 560.20 134.03 560.82 C 112.69 561.19 91.19 561.32 70.07 557.89 C 51.74 554.02 33.24 547.54 18.99 534.95 C 9.92 526.96 3.27 515.92 1.73 503.82 C -0.25 489.43 1.96 474.60 7.18 461.10 C 12.24 448.77 19.63 437.56 27.58 426.92 C 45.93 402.76 67.78 381.48 90.75 361.74 C 100.30 353.57 110.15 345.74 120.21 338.21 C 124.96 334.86 130.01 331.12 136.04 330.81 C 142.40 330.26 149.15 332.74 153.05 337.92 C 158.05 344.25 157.81 354.27 152.11 360.09 C 143.06 369.80 132.54 377.97 122.31 386.37 C 107.13 398.75 92.67 412.02 79.22 426.27 C 67.74 438.60 56.82 451.61 48.22 466.15 C 43.70 474.12 39.31 482.69 39.06 492.04 C 38.80 498.81 43.41 504.54 48.51 508.45 C 57.14 514.85 67.77 517.74 78.17 519.74 C 100.23 523.60 122.78 523.13 145.05 521.65 C 193.42 518.01 241.13 508.34 288.12 496.55 C 373.49 474.63 456.51 444.28 537.30 409.21 C 610.77 377.04 682.58 340.84 751.02 298.95 C 798.16 269.96 843.80 238.07 884.49 200.43 C 900.32 185.53 915.60 169.84 928.13 152.02 C 934.16 143.16 939.83 133.70 942.14 123.12 C 943.46 116.88 942.98 109.55 938.29 104.77 C 931.61 97.99 922.47 94.46 913.60 91.55 C 897.63 86.29 880.63 86.43 864.01 86.41 C 846.01 86.65 828.01 87.56 810.10 89.39 C 796.69 90.64 783.44 93.50 769.95 93.80 C 759.75 94.13 751.46 83.94 752.59 74.05 C 753.05 67.19 757.79 60.95 764.15 58.43 C 769.84 56.25 775.91 55.31 781.90 54.34 C 796.42 52.10 811.04 50.66 825.62 48.87 Z" />
<path opacity="1.00" d=" M 422.43 76.62 C 429.00 75.27 436.41 74.15 442.55 77.63 C 446.95 80.35 450.67 84.76 451.36 90.04 C 452.22 95.65 451.47 102.04 447.39 106.31 C 443.09 110.87 436.84 112.67 430.96 114.19 C 412.60 118.79 395.53 127.59 380.02 138.32 C 360.17 152.32 342.05 169.67 330.28 191.14 C 326.08 199.49 322.23 208.87 314.00 214.08 C 309.13 217.30 302.55 216.74 297.89 213.40 C 292.76 209.79 287.62 204.65 287.37 197.98 C 287.28 190.92 290.57 184.45 293.40 178.17 C 301.98 159.72 314.73 143.49 329.31 129.41 C 355.34 104.58 387.22 85.00 422.43 76.62 Z" />
<path opacity="1.00" d=" M 763.09 358.07 C 774.05 356.23 786.14 365.44 785.21 376.99 C 783.65 387.76 779.76 398.04 776.18 408.27 C 763.66 443.31 744.39 475.89 719.80 503.81 C 693.48 533.87 661.04 558.45 625.25 576.16 C 607.68 584.77 589.58 592.47 570.72 597.76 C 548.70 603.98 525.80 606.41 503.00 607.29 C 492.00 607.41 480.99 607.33 469.99 607.34 C 447.18 606.62 424.68 601.88 402.85 595.42 C 383.81 589.48 364.99 582.36 347.67 572.38 C 342.54 569.63 338.31 564.93 337.23 559.09 C 335.28 550.36 340.85 541.23 348.82 537.76 C 353.59 535.91 358.80 537.25 363.47 538.78 C 371.59 541.53 379.22 545.54 387.18 548.71 C 428.71 565.67 474.43 572.40 519.06 567.67 C 557.71 563.69 595.44 550.92 628.41 530.34 C 678.53 499.17 718.82 451.66 739.36 396.16 C 742.91 386.89 745.15 377.12 749.38 368.11 C 751.84 362.68 757.23 358.91 763.09 358.07 Z" />
</g>
</svg>
