<?xml version="1.0" encoding="utf-8"?>
<!-- Generator: Adobe Illustrator 16.0.0, SVG Export Plug-In . SVG Version: 6.00 Build 0)  -->
<!DOCTYPE svg PUBLIC "-//W3C//DTD SVG 1.1//EN" "http://www.w3.org/Graphics/SVG/1.1/DTD/svg11.dtd">
<svg version="1.1" id="" xmlns="http://www.w3.org/2000/svg" xmlns:xlink="http://www.w3.org/1999/xlink"
	  width="725.068px" height="1025.445px" viewBox="0 0 725.068 1025.445" enable-background="new 0 0 725.068 1025.445"
	 xml:space="preserve">
<path id="" d="M549.063,166.318c-1.905-4.151-5.957-9.858-14.438-13.475
	c-5.131-2.188-11.229-3.382-18.643-3.653c-12.199-0.444-28.193,1.727-47.54,6.451c-6.439,1.573-14.245,3.872-21.525,6.057
	c-1.03-1.107-2.076-2.205-3.151-3.28c-23.227-23.228-54.109-36.02-86.958-36.02c-32.848,0-63.73,12.792-86.958,36.02
	c-23.228,23.227-36.019,54.109-36.019,86.958c0,4.235,0.217,8.437,0.637,12.594c-9.136,5.667-17.511,11.207-24.969,16.543
	c-16.195,11.59-28.267,22.305-35.882,31.845c-4.628,5.798-7.697,11.202-9.383,16.519c-2.786,8.79-1.1,15.583,0.806,19.733
	c4.83,10.522,15.889,16.588,32.869,18.027c19.772,1.676,38.776,0.561,51.17-1.894c12.8-2.534,27.023-5.576,42.092-9.32
	c19.458,12.329,42.041,18.93,65.637,18.93c32.849,0,63.732-12.792,86.958-36.019c18.369-18.368,30.203-41.525,34.354-66.654
	c9.753-6.73,18.902-13.509,27.563-20.305c15.688-12.308,22.652-22.469,30.786-32.229
	C548.705,198.462,553.894,176.84,549.063,166.318z M257.661,190.324c5.304,4.353,20.206,13.353,37.219-4.833
	c20.081-21.467,36.9-32.813,24.731-47.275c11.658-4.058,24.172-6.271,37.195-6.271c5.327,0,10.566,0.377,15.7,1.091
	c0.554,3.872-0.047,11.657-8.239,24.187c-12.483,19.091-19.458,33.593-38.548,39.925c-19.09,6.333-27.534,19.916-42.586,29.094
	c-11.137,6.791-29.672,1.575-36.889-6.26C248.657,209.465,252.542,199.506,257.661,190.324z M262.573,259.649
	c11.014,6.241,29.37,7.709,44.789-5.874s32.307-15.419,45.89-33.408c13.584-17.989,13.584-28.635,24.965-42.953
	c10.171-12.796,18.143-24.13,17.165-38.711c4.524,1.641,8.918,3.561,13.155,5.741c0.387,7.631,0.489,21.932-2.787,35.54
	c-4.773,19.825-17.989,27.901-32.674,54.334s-22.395,24.899-41.484,29.888c-19.091,4.989-40.383,11.597-53.233,19.673
	c-8.549,5.374-20.017,4.875-26.739,3.938c-4.514-11.147-7.305-23.168-8.042-35.734C248.318,253.38,255.788,255.804,262.573,259.649z
	 M246.679,329.006c-16.608,3.584-31.069,5.369-41.818,5.162c-9.917-0.192-13.902,0.776-15.198-2.751s1.947-5.514,8.681-12.678
	c7.278-7.743,18.172-16.618,32.381-26.378c3.136-2.154,6.443-4.346,9.878-6.565c4.95,14.269,12.54,27.555,22.523,39.255
	C257.482,326.527,251.978,327.862,246.679,329.006z M273.453,322.224c-4.652-5.042-8.854-10.505-12.541-16.326
	c12.348,0.876,41.404,1.019,65.54-13.576c31.573-19.09,61.676-16.888,83.336-56.17c17.859-32.387,14.755-70.518,13.114-82.906
	c6.224,4.478,11.975,9.57,17.169,15.187c0.715,13.75,0.659,43.511-10.825,65.15c-6.689,12.604-11.443,22.771-14.684,30.247
	c-13.813,7.393-28.354,14.613-43.346,21.496C337.239,300.924,303.454,313.638,273.453,322.224z M378.583,334.174
	c-13.318,16.254-30.986,21.257-42.627,22.706c-11.153-2.081-21.735-5.798-31.491-10.894c26.896-7.229,55.852-16.755,83.926-29.643
	c4.068-1.868,8.049-3.748,11.958-5.637C393.509,317.293,385.916,325.227,378.583,334.174z M395.571,351.983
	c8.93-9.106,14.427-21.522,17.521-29.924c2.862-7.769,13.692-20.315,22.73-29.913c10.96-6.206,21.237-12.492,30.931-18.833
	C457.485,309.771,430.517,339.237,395.571,351.983z M445.102,246.483c3.531-10.829,7.578-26.724,8.375-44.472
	c0.291-6.47,0.466-11.339,0.561-14.998c7.928,13.158,13.266,28.045,15.291,43.953C461.757,236.125,453.654,241.314,445.102,246.483z
	 M516.701,191.014c-6.85,8.286-17.629,18.088-31.175,28.346c-2.403,1.82-4.891,3.649-7.444,5.484
	c-2.374-14.209-7.206-27.785-14.29-40.216c1.698-0.499,3.559-1.046,4.346-1.254c16.664-4.413,30.496-6.889,41.112-7.36
	c9.822-0.437,13.761-1.179,15.272,1.682S523.021,183.368,516.701,191.014z"/>
</svg>
