<?xml version="1.0" encoding="utf-8"?>
<!-- Generator: Adobe Illustrator 16.0.0, SVG Export Plug-In . SVG Version: 6.00 Build 0)  -->
<!DOCTYPE svg PUBLIC "-//W3C//DTD SVG 1.1//EN" "http://www.w3.org/Graphics/SVG/1.1/DTD/svg11.dtd">
<svg version="1.1" id="by_FoxSister" xmlns="http://www.w3.org/2000/svg" xmlns:xlink="http://www.w3.org/1999/xlink" x="0px"
	 y="0px" width="725.068px" height="1025.445px" viewBox="0 0 725.068 1025.445" enable-background="new 0 0 725.068 1025.445"
	 xml:space="preserve">
<path id="by_FoxSister_1_" fill="#939598" d="M474.295,161.288c-32.486-32.487-75.679-50.378-121.622-50.378
	c-45.943,0-89.136,17.891-121.622,50.378c-32.487,32.486-50.378,75.679-50.378,121.622s17.891,89.136,50.378,121.622
	c32.486,32.487,75.679,50.378,121.622,50.378c45.943,0,89.136-17.891,121.622-50.378c32.487-32.486,50.378-75.679,50.378-121.622
	S506.782,193.774,474.295,161.288z M434.913,419.801c3.206-19.351-1.295-51.692-11.246-61.445
	c-11.617-11.385-22.805-3.243-39.155,1.92c-16.351,5.164-26.245-8.57-37.863,2.582c-11.618,11.152-7.315,33.131-11.187,49.911
	c-2.73,11.83-10.801,21.728-15.329,26.543c-72.529-15.07-127.197-79.47-127.197-156.402c0-21.48,4.272-41.979,11.995-60.705
	c2.766,9.142,6.661,23.521,7.475,34.376c1.291,17.21-1.722,31.839,13.338,50.771c15.06,18.932,26.226,35.313,44.749,40.445
	c18.523,5.133,53.354,12.048,56.795,6.885c3.442-5.164,0-16.781-18.071-23.665c-18.071-6.885-27.967-10.756-30.979-21.513
	c-3.012-10.757-1.291-18.501,7.314-18.071c8.605,0.43,17.642,1.133,22.375-6.533c4.732-7.666,4.732-14.551-0.431-22.726
	s-11.187-12.908-6.023-24.955c5.163-12.048,10.326-24.525,18.932-30.55c8.605-6.024,19.361-16.78,19.792-30.979
	c0.4-13.203-10.736-39.787-28.213-47.258c12.997-3.426,26.633-5.259,40.691-5.259c0.087,0,0.174,0.003,0.261,0.003
	c1.016,8.353,5.593,34.961,23.515,46.491c20.539,13.214,59.404,10.177,91.408,2.686c27.577,28.72,44.554,67.692,44.554,110.558
	C512.41,340.93,481.313,391.82,434.913,419.801z M372.465,314.667c-4.733,6.454-18.071,3.012-29.688-3.441
	c-11.617-6.454-15.899-18.766-11.187-22.804c6.024-5.164,15.919-3.012,27.537,2.582
	C370.743,296.597,377.198,308.213,372.465,314.667z"/>
</svg>
