<?xml version="1.0" encoding="UTF-8" ?>
<!DOCTYPE svg PUBLIC "-//W3C//DTD SVG 1.1//EN" "http://www.w3.org/Graphics/SVG/1.1/DTD/svg11.dtd">
<svg width="512pt" height="512pt" viewBox="0 0 512 512" version="1.1" xmlns="http://www.w3.org/2000/svg">
<g id="#010101ff">
<path fill="#010101" opacity="1.00" d=" M 178.31 96.32 C 207.77 81.78 241.40 75.95 274.06 79.26 C 298.93 81.70 323.15 89.77 344.78 102.22 C 348.07 104.23 351.31 106.31 354.68 108.20 C 374.22 104.42 394.92 102.86 414.20 108.83 C 427.17 112.86 438.95 121.93 444.25 134.68 C 450.86 150.36 448.26 168.20 442.77 183.81 C 439.11 194.20 434.26 204.17 428.56 213.60 C 429.38 217.42 429.86 221.33 431.03 225.07 C 432.97 227.13 435.65 228.35 437.88 230.09 C 453.64 241.36 468.75 254.49 478.58 271.43 C 485.28 282.88 488.59 296.95 484.66 309.92 C 480.94 323.13 470.53 333.30 459.01 340.14 C 441.39 350.49 421.18 355.29 401.16 358.34 C 387.30 377.53 369.93 394.29 349.77 406.75 C 305.44 434.78 248.30 441.48 198.79 424.10 C 184.10 419.28 170.38 411.99 157.32 403.79 C 140.78 407.03 123.59 408.54 106.91 405.42 C 94.57 403.15 82.34 397.64 74.22 387.80 C 65.62 377.75 62.80 363.89 64.07 350.98 C 65.81 332.05 74.04 314.51 83.44 298.26 C 82.60 294.67 82.09 291.02 81.16 287.46 C 80.91 286.31 79.67 285.83 78.86 285.15 C 66.02 276.61 53.93 266.78 43.78 255.14 C 35.00 244.85 27.55 232.67 25.94 219.00 C 24.42 207.20 28.38 195.01 36.02 185.97 C 42.96 177.63 52.32 171.68 62.05 167.10 C 77.44 159.98 94.12 156.15 110.83 153.72 C 128.11 129.39 151.46 109.38 178.31 96.32 M 166.71 126.71 C 140.71 144.64 120.37 170.57 109.11 200.07 C 100.28 223.21 97.04 248.45 99.81 273.05 C 99.62 274.60 101.21 275.14 102.22 275.84 C 118.75 285.61 136.13 293.88 153.90 301.13 C 158.91 302.77 162.01 308.55 160.47 313.63 C 159.07 319.09 152.66 322.57 147.35 320.52 C 133.04 314.89 119.12 308.30 105.49 301.19 C 115.02 333.22 135.33 361.76 161.96 381.87 C 178.61 377.83 194.82 372.16 210.61 365.54 C 216.01 362.95 223.00 366.40 224.48 372.14 C 226.03 377.03 223.17 382.69 218.37 384.47 C 207.68 388.97 196.76 392.89 185.74 396.54 C 226.97 417.43 277.54 418.72 319.66 399.64 C 339.86 390.79 357.89 377.38 372.80 361.17 C 370.24 361.09 367.49 361.21 365.26 359.75 C 360.65 357.26 358.83 350.93 361.28 346.33 C 362.90 342.96 366.46 340.79 370.17 340.68 C 376.55 340.29 382.92 339.80 389.29 339.17 C 408.05 309.20 416.31 272.85 412.08 237.72 C 402.73 249.76 392.79 261.36 382.03 272.15 C 376.96 277.02 367.49 274.40 365.63 267.63 C 363.84 262.87 366.61 258.13 370.11 255.05 C 383.51 241.25 395.77 226.32 406.43 210.30 C 398.26 183.96 383.17 159.77 362.93 141.03 C 334.78 114.62 296.63 99.09 257.98 98.85 C 225.64 98.35 193.27 108.24 166.71 126.71 M 376.65 125.71 C 394.96 142.83 409.80 163.69 419.62 186.79 C 424.42 175.65 428.63 163.66 427.59 151.35 C 426.94 143.05 422.12 135.17 414.70 131.27 C 403.12 125.03 389.45 124.84 376.65 125.71 M 62.22 190.25 C 56.02 194.19 50.07 199.30 47.42 206.36 C 44.78 213.49 46.42 221.54 49.96 228.06 C 56.51 240.85 67.37 250.71 78.36 259.65 C 77.83 231.13 84.20 202.54 96.92 177.01 C 84.87 179.90 72.81 183.65 62.22 190.25 M 433.63 252.35 C 434.20 280.88 427.75 309.46 415.08 335.01 C 430.67 331.12 446.95 326.13 458.75 314.65 C 465.45 308.22 467.69 298.05 464.40 289.36 C 458.62 273.97 446.07 262.51 433.63 252.35 M 84.34 360.09 C 84.90 368.28 89.35 376.26 96.62 380.29 C 108.28 386.96 122.29 387.13 135.34 386.29 C 116.99 369.18 102.27 348.28 92.34 325.25 C 87.62 336.23 83.54 347.97 84.34 360.09 Z" />
<path fill="#010101" opacity="1.00" d=" M 313.44 137.60 C 328.51 134.50 343.98 147.73 343.88 162.97 C 344.43 176.61 332.68 189.21 319.06 189.71 C 306.25 190.63 293.64 180.75 291.82 167.98 C 291.69 163.52 294.74 159.17 299.04 157.88 C 303.58 156.29 309.15 158.58 311.13 162.99 C 312.20 165.06 312.76 167.77 315.16 168.76 C 318.59 170.51 323.13 167.91 323.39 164.07 C 323.86 160.55 320.49 157.45 317.06 157.76 C 312.17 158.16 307.08 155.00 306.02 150.08 C 304.51 144.79 308.08 138.80 313.44 137.60 Z" />
<path fill="#010101" opacity="1.00" d=" M 173.47 204.63 C 182.50 203.64 191.93 206.16 199.15 211.73 C 207.89 218.27 213.24 229.06 213.19 239.98 C 213.36 249.01 209.58 257.85 203.53 264.45 C 201.10 267.59 197.04 269.44 193.07 268.61 C 187.54 267.62 183.68 261.57 185.08 256.13 C 186.09 251.71 190.78 249.40 191.92 245.00 C 194.68 237.58 190.41 228.62 183.00 225.93 C 175.88 223.04 166.88 226.57 163.79 233.65 C 160.84 239.74 162.52 247.79 168.00 251.86 C 170.46 253.73 173.61 255.11 174.87 258.14 C 177.35 262.87 175.28 269.16 170.58 271.62 C 167.94 273.10 164.60 273.27 161.83 272.07 C 150.74 266.74 142.85 255.28 141.96 243.00 C 140.71 229.44 148.08 215.56 160.04 209.03 C 164.17 206.70 168.76 205.22 173.47 204.63 Z" />
<path fill="#010101" opacity="1.00" d=" M 348.30 276.25 C 351.81 272.78 357.74 272.36 361.65 275.39 C 366.49 278.81 367.13 286.64 362.76 290.71 C 343.96 307.93 323.65 323.41 302.74 337.96 C 316.09 339.61 329.54 340.50 342.98 340.93 C 348.35 340.87 353.29 345.58 353.15 351.02 C 353.39 356.48 348.52 361.51 343.04 361.37 C 320.39 360.89 297.80 358.54 275.40 355.19 C 264.74 361.39 254.06 367.61 242.95 372.99 C 235.72 376.25 227.05 368.67 229.35 361.05 C 230.99 354.21 238.78 352.75 243.94 349.41 C 219.39 344.36 195.19 337.69 171.48 329.56 C 165.33 327.47 162.94 319.02 166.93 313.94 C 169.79 309.80 175.52 308.87 179.96 310.81 C 209.70 320.96 240.31 328.46 271.27 333.80 C 298.60 316.97 324.40 297.66 348.30 276.25 Z" />
</g>
</svg>
