<?xml version="1.0" encoding="utf-8"?>
<!-- Generator: Adobe Illustrator 22.0.1, SVG Export Plug-In . SVG Version: 6.00 Build 0)  -->
<svg version="1.1" id="Layer_1" xmlns="http://www.w3.org/2000/svg" xmlns:xlink="http://www.w3.org/1999/xlink" x="0px" y="0px"
	 viewBox="0 0 223.5 143.8" style="enable-background:new 0 0 223.5 143.8;" xml:space="preserve">
	 <defs>
    <filter id="shadowPlanet" >
      <feDropShadow dx="-10" dy="-3" stdDeviation="15" flood-color="rgba(#000, .15)" />
    </filter>
  </defs>
<g>
	<path d="M16.5,123.7c4.2-8.7,11.6-14.5,18.7-20.5C41.4,98,48,93.3,54.6,88.8c1-0.7,1.3-1.3,1.1-2.5c-5.8-31.2,14.8-62.2,46-68.5
		c20-4.1,37.9,1,53.1,14.7c1.2,1.1,2.1,1.1,3.4,0.5c11.7-4.8,23.5-9.2,35.9-11.8c3.3-0.7,6.5-1.2,9.9-1.1c3.5,0.1,6.6,0.8,8.2,4.4
		c0.4,1.2,0.5,1.7,0,2.7c-5.1,10.9-14.6,17.6-23.5,24.9c-4.8,3.9-9.9,7.4-15,10.9c-1,0.7-1.2,1.3-1,2.5
		c5.3,30.8-13.4,60.3-43.7,67.9c-20.8,5.2-39.4,0.2-55.3-14.1c-1.2-1.1-2-1.1-3.4-0.5c-12.1,4.9-24.2,9.5-37.1,12
		c-2.9,0.6-5.9,0.9-8.9,0.9c-3.1-0.1-5.9-0.8-7.8-3.5C15.5,126.6,15.7,125.2,16.5,123.7z M57.5,94.7L57.5,94.7
		c0.2-1.2-0.3-2.3-0.7-3.7c-5.2,3.5-10.1,7-14.9,10.8c-6.7,5.2-13.2,10.5-18.6,16.9c-1.6,1.9-3.1,3.9-3.8,6.3
		c-0.5,1.6,0,2.5,1.5,3.1c1.3,0.5,2.7,0.5,4.1,0.5c4.5-0.1,8.9-1,13.2-2.1c17-4.4,33.1-11.2,49-18.5c27-12.5,53.1-26.7,78-43.1
		c12.3-8,24.2-16.5,34.9-26.6c3.1-3,6.2-6.1,8.1-10.1c1.4-2.9,0.7-4.4-2.5-4.8c-4.5-0.6-8.9,0.1-13.3,1c1.3,0.1,2.5,0.1,3.8,0.1
		c2.1,0,4.1,0.3,6,1.3c1.9,1.1,2.5,2.7,1.5,4.7c0-2.9-0.9-3.9-3.9-4.3c-3-0.3-5.9,0.3-8.8,0.9c-2.1,0.5-4.2,0.8-6.2,1.7
		c2.1,0,4.2-0.3,6.3-0.2c4.3,0.1,6.1,2.8,4.5,6.8c-1.1,2.7-2.9,4.9-4.9,7c-2.4,2.5-4.9,4.8-7.8,6.7c0.8-1,1.7-1.8,2.6-2.6
		c3.4-3.3,6.7-6.6,8.5-11c1.4-3.4,0.1-5.3-3.6-5c-3.4,0.3-6.8,1.1-10,2.1c-1.2,0.4-2.5,0.6-3.8,1.4c1.8-0.1,3.3-0.2,4.8-0.3
		c1.4-0.1,2.9,0,4.1,0.8c1.1,0.8,1.8,1.7,0.8,3.4c-0.2-1.9-1.3-2.4-2.8-2.5c-1.9-0.2-3.6,0.4-5.4,0.7c-3.7,0.7-7.4,1.5-10.8,3
		c0.5,0.1,0.9,0,1.3-0.1c2.5-0.4,5-0.8,7.5-0.8c2.8-0.1,4.6,2.1,4.1,4.8c-0.4,1.9-1.4,3.5-2.6,5c-4.8,5.9-10.7,10.5-16.8,14.9
		c-17.1,12.5-35.4,22.9-54.3,32.3c-13.2,6.5-26.6,12.5-40.8,16.6c-4.6,1.3-9.2,2.6-14,1.9c-3.7-0.5-5.1-3-3.7-6.5
		c0.7-1.7,1.7-3.1,2.9-4.4c1.9-2.3,4.1-4.3,6.3-6.3C58.4,95.7,58.4,95.5,57.5,94.7z M110.9,84.3c0.5-0.3,1.1-0.5,1.6-0.8
		c10.4-5,20.4-10.6,30-17c1.2-0.8,1.6-1.5,0.8-2.7c-0.7-1-0.4-1.7,0.5-2.4c4.7-4,8.9-8.4,12.8-13.1c0.2-0.3,0.7-0.5,0.6-1
		c-26,22.3-56.2,35.9-89.3,43.5c0.2-0.4,0.5-0.5,0.8-0.6C81,86.6,92.8,81.7,104.2,76c11.4-5.7,22.4-12.2,32.7-19.8
		c1-0.8,1.4-1.3,0.4-2.4c-0.7-0.7-1.3-1.6-1.9-2.4c-0.8-0.9-2.1-1.8-2.2-2.8c0-1.1,1.6-1.8,2.5-2.6c3-2.9,5.9-5.9,8.7-9.8
		c-15.8,14-34.1,22.3-52.9,29.7c0.6-0.5,1.3-0.9,2-1.3c11.4-5.7,22.5-12,33-19.3c1.8-1.2,1.8-1.2,0-2.6c-3.4-2.7-7.1-5-11.1-6.7
		c-1.1-0.5-1.2-0.8-0.2-1.5c1.6-1.2,3.1-2.5,4.5-3.9c1.3-1.2,2.6-2.4,3.6-3.9c-15.5,11.7-32.4,20.4-51.4,24.5
		c12.8-3.9,24.4-10.2,35.6-18.1c-3.2-1.1-6.2-1.5-9.3-2.1c1.9-1.8,4-3.2,5.5-5.2c-7.4,5.5-15.1,10.2-24.2,12.3
		c4.6-2.2,9.2-4.5,13.5-7.2c-3.9-0.4-7.6,0-11.4,0.5c-1.5,0.2-2.8,0.8-3.9,1.9C63.1,46.3,56.6,62.6,58.4,82c0.8,9,4,17.3,9,24.9
		c0.5,0.8,1,1.1,1.9,0.7c1.3-0.5,2.7-0.9,4.1-1.4c24.6-9,47.6-21.1,69.8-34.9c0.8-0.5,1.3-1.1,1.2-2.1c-0.2-1,0.3-1.6,1.1-2.1
		c2-1.6,4-3.3,5.6-5.4C138.9,71.5,125.6,79.1,110.9,84.3z M79.6,119.9c0.5,0.5,0.8,0.7,1.1,1c13.4,9.6,28.3,12.9,44.5,10
		c4.2-0.8,8.1-2,10.4-6c1.5-2.5,3.9-4.1,6.3-5.6c1.6-1,3.2-2.1,4.8-3.2c-4.8,2.3-9.4,5.1-14.2,7.3c-4.8,2.2-9.8,4.2-15,5.1
		c0.4-0.3,0.8-0.5,1.2-0.6c6.6-2.6,13.1-5.7,19.5-8.8c1.9-0.9,3.2-2.1,3.9-4c0.6-1.7,1.8-2.8,3.2-3.8c4.2-2.8,8.1-6,11.9-9.3
		c1.3-1.1,2.5-2.2,3.7-3.3c-18.4,13.8-39.2,21.8-61.6,26.1c0.1-0.2,0.2-0.3,0.3-0.3c1-0.3,2-0.6,2.9-0.9c15-4.5,29.3-10.7,42.6-19
		c1.1-0.7,1.8-1.4,1.4-2.7c-0.3-0.9,0.2-1.2,0.8-1.6c1.9-1.3,3.7-2.6,5.5-3.9c-4.7,2.2-9.2,4.7-13.8,7.1c-4.6,2.4-9.3,4.6-14.2,6.1
		c1.7-1,3.5-1.8,5.3-2.6c4.6-2.3,9.1-4.8,13.5-7.5c0.3-0.2,0.7-0.4,0.7-0.6c0.1-0.5-0.5-0.6-0.8-0.7c-1.6-0.7-3.1-0.4-4.6,0.4
		c-4.9,2.8-10,5.3-15.2,7.6c-11.8,5.2-23.7,9.9-36.3,12.8C85.1,119.3,82.5,119.5,79.6,119.9z M173.6,40.8c-2.9,0.1-6,0.8-9,1.6
		c-0.9,0.2-0.9,0.6-0.5,1.3c1.7,2.6,3.2,5.3,4.4,8.1c0.4,1,0.8,0.7,1.3,0.2c2.2-2.1,4.5-4.2,6.3-6.8c0.7-1.1,2-2.2,1.2-3.5
		C176.7,40.5,175.1,40.9,173.6,40.8z M54.3,110.9c3.3-0.2,6.4-0.8,9.5-1.6c0.8-0.2,1-0.5,0.5-1.3c-1.7-2.6-3.2-5.3-4.4-8.1
		c-0.4-0.8-0.7-0.7-1.2-0.2c-2.4,2.2-4.7,4.3-6.5,7c-0.7,1-1.7,2.1-1.1,3.2C51.6,111.2,53.2,110.7,54.3,110.9z"/>
	<path d="M123.1,57.7c-15.4,11-31.9,19.4-50.5,23.4C90,74.5,106.6,66,123.1,57.7z"/>
	<path d="M63.6,65.1c9.4-2,18.2-5.7,27-9.4C85.2,60,72.1,65.5,63.6,65.1z"/>
	<path d="M57.5,94.7c-6,4.9-11.7,10-16.3,16.3c-0.7,0.9-1.2,1.9-1.7,3c-0.6,1.4-0.1,2.3,1.3,2.8c2.1,0.8,4.2,0.8,6.4,0.6
		c3.6-0.4,7.1-1.1,10.6-1.7c-2.9,1.5-6.1,2.3-9.3,2.9c-2.6,0.5-5.2,0.7-7.8,0c-2.9-0.8-3.8-2.8-2.6-5.5c1.1-2.6,3-4.7,4.9-6.8
		c3.9-4.3,8.4-7.9,13.2-11.2C56.6,94.8,57,94.2,57.5,94.7C57.6,94.7,57.5,94.7,57.5,94.7z"/>
	<path d="M42.1,103.5c-3.9,3.7-8,7.1-11.7,11.1c-2,2.1-3.9,4.2-5.1,6.8c-1,2.3-0.4,3.5,2,3.9c3.7,0.7,7.4-0.1,11.1-0.5
		c0.4,0,0.9-0.1,1.4,0c-4.3,1.5-8.7,2.6-13.3,1.7c-2.6-0.5-3.6-2.4-2.8-4.9c0.3-0.8,0.6-1.6,1.1-2.3
		C29.3,112.8,35.6,108.1,42.1,103.5z"/>
	<path d="M36.6,122.1c-1.9,0.4-3.7,0.3-4.9-1.4c-1.1-1.5-0.7-3.1,0.1-4.5c1.2-2.4,3.1-4.3,5.6-5.5c-0.8,1.1-1.6,2.1-2.4,3.2
		c-0.8,1.1-1.6,2.1-2.1,3.3c-1.1,2.2-0.4,3.6,1.8,4.4C35.3,121.8,36,121.9,36.6,122.1z"/>
</g>
</svg>
