<?xml version="1.0" encoding="UTF-8" ?>
<!DOCTYPE svg PUBLIC "-//W3C//DTD SVG 1.1//EN" "http://www.w3.org/Graphics/SVG/1.1/DTD/svg11.dtd">
<svg width="626pt" height="626pt" viewBox="0 0 626 626" version="1.1" xmlns="http://www.w3.org/2000/svg">
<g id="#ffffffff">
</g>
<g id="#000000ff">
<path fill="#000000" opacity="1.00" d=" M 403.43 103.74 C 407.97 103.56 412.49 102.27 417.02 103.14 C 436.99 103.78 455.99 116.25 465.04 133.98 C 471.49 145.56 473.20 159.33 470.93 172.32 C 468.58 180.99 465.35 189.58 459.65 196.65 C 449.42 210.23 432.87 218.43 415.99 219.34 C 400.76 219.84 385.26 214.40 374.12 203.88 C 363.49 194.12 356.47 180.20 355.67 165.72 C 353.93 147.43 361.66 128.56 375.77 116.82 C 383.54 110.01 393.33 105.66 403.43 103.74 Z" />
<path fill="#000000" opacity="1.00" d=" M 278.96 230.30 C 312.15 223.64 347.86 227.00 378.05 242.87 C 397.13 252.30 413.69 266.40 427.05 282.89 C 440.75 299.82 449.97 320.03 455.35 341.06 C 460.93 339.60 465.59 336.02 470.82 333.71 C 484.29 326.59 497.68 319.14 509.66 309.68 C 511.87 307.68 514.54 305.68 514.92 302.49 C 512.07 300.63 509.15 298.82 505.89 297.80 C 489.12 292.30 471.46 290.39 453.93 289.43 C 448.99 289.38 443.41 288.99 439.66 285.35 C 435.85 280.81 436.37 272.88 441.41 269.43 C 444.16 267.82 447.37 267.33 450.44 266.62 C 462.42 263.84 474.67 262.53 486.73 260.15 C 498.75 257.58 511.08 257.13 523.15 254.89 C 546.43 251.51 570.07 250.38 593.55 251.76 C 602.38 252.52 611.64 254.55 618.62 260.33 C 623.46 264.30 625.09 270.59 626.00 276.51 L 626.00 285.23 C 623.57 291.25 621.77 297.63 618.03 303.02 C 608.70 317.16 595.28 327.95 581.56 337.59 C 572.37 343.85 563.00 349.85 553.21 355.13 C 539.97 361.89 527.19 369.55 513.45 375.29 C 495.79 384.19 477.41 391.51 459.28 399.36 C 456.03 400.15 456.46 403.95 455.75 406.52 C 449.43 435.95 433.83 463.30 411.72 483.74 C 390.31 503.65 362.90 516.97 334.02 521.51 C 316.99 523.84 299.59 523.66 282.67 520.55 C 275.10 518.43 267.25 517.17 259.98 514.06 C 242.31 507.58 225.93 497.65 212.01 484.97 C 210.61 483.91 209.18 482.08 207.20 482.65 C 195.46 484.67 183.97 487.93 172.22 489.95 C 158.64 493.25 144.72 494.77 131.05 497.65 C 121.02 499.72 110.76 500.23 100.65 501.82 C 79.61 505.12 58.22 506.19 36.96 504.92 C 27.40 504.17 17.53 501.94 9.55 496.40 C 3.61 492.39 1.15 485.21 0.00 478.46 L 0.00 474.45 C 0.30 462.85 5.83 451.95 13.40 443.39 C 24.62 430.83 39.06 421.72 53.83 413.91 C 81.80 399.70 111.55 389.18 141.97 381.59 C 144.80 381.07 147.97 380.85 150.58 382.28 C 157.43 385.43 157.64 396.47 151.54 400.51 C 140.18 408.63 128.81 417.03 119.65 427.65 C 116.98 431.25 113.51 434.73 113.04 439.40 C 122.50 443.35 132.84 442.54 142.83 442.27 C 154.00 441.20 165.03 439.12 176.13 437.52 C 175.36 432.61 172.95 428.22 171.16 423.65 C 167.14 411.14 163.80 398.26 163.47 385.05 C 162.87 372.85 163.11 360.57 165.19 348.52 C 170.18 321.94 182.28 296.58 200.50 276.51 C 220.85 253.26 248.85 237.02 278.96 230.30 Z" />
<path fill="#000000" opacity="1.00" d=" M 96.31 284.07 C 104.97 282.14 114.81 283.31 121.76 289.22 C 134.08 298.05 136.56 317.37 127.34 329.28 C 121.43 337.47 111.03 342.23 100.96 341.02 C 86.68 339.92 74.16 326.61 75.09 312.08 C 74.41 299.26 83.91 287.01 96.31 284.07 Z" />
</g>
</svg>
