<?xml version="1.0" encoding="UTF-8" ?>
<!DOCTYPE svg PUBLIC "-//W3C//DTD SVG 1.1//EN" "http://www.w3.org/Graphics/SVG/1.1/DTD/svg11.dtd">
<svg width="512pt" height="512pt" viewBox="0 0 512 512" version="1.1" xmlns="http://www.w3.org/2000/svg">
<g id="#010101ff">
<path opacity="1.00" d=" M 249.12 51.20 C 284.87 50.28 320.91 58.42 352.40 75.49 C 367.85 83.67 382.06 94.07 394.97 105.84 C 390.54 107.09 386.07 108.23 381.72 109.72 C 375.72 111.83 372.13 119.01 374.19 125.07 C 377.02 134.06 380.17 142.95 383.09 151.91 C 384.62 157.04 389.55 161.02 394.98 160.94 C 406.00 161.01 417.02 160.94 428.04 160.97 C 430.89 161.04 433.54 159.88 435.86 158.30 C 457.86 199.03 466.05 247.28 457.37 292.85 C 453.02 317.67 443.64 341.47 430.70 363.06 C 427.18 360.26 423.54 357.59 419.62 355.36 C 414.45 352.37 407.29 353.97 403.75 358.76 C 396.45 368.34 388.01 377.59 377.14 383.13 C 372.19 385.54 366.50 386.89 361.03 385.65 C 356.74 384.80 353.29 381.88 349.18 380.57 C 341.30 377.96 332.42 378.29 324.88 381.82 C 315.21 386.13 307.78 394.15 301.78 402.67 C 293.21 415.01 287.11 428.91 282.36 443.11 C 280.50 449.03 283.97 455.30 289.21 458.12 C 243.96 465.42 196.30 457.27 156.34 434.71 C 114.22 411.40 80.92 372.62 64.30 327.42 C 55.08 303.04 50.92 276.86 51.36 250.83 C 76.08 262.04 102.15 270.76 129.14 274.30 C 143.17 276.00 157.48 276.12 171.41 273.49 C 177.48 272.39 182.12 266.26 181.40 260.10 C 180.10 242.63 180.71 224.76 185.65 207.85 C 189.44 194.78 196.55 181.59 208.98 174.97 C 216.53 170.50 225.77 170.70 233.40 166.41 C 246.20 160.20 255.04 147.62 258.27 133.94 C 262.74 115.25 260.46 95.69 256.35 77.15 C 254.45 68.37 251.91 59.74 249.12 51.20 M 270.44 293.64 C 257.44 296.31 245.00 305.76 242.28 319.27 C 238.63 334.72 247.03 349.81 256.81 361.17 C 259.96 365.28 265.67 367.02 270.57 365.29 C 282.50 361.12 294.02 355.02 303.03 346.03 C 309.51 339.46 313.92 330.48 313.38 321.10 C 312.97 308.45 303.20 297.22 291.19 293.88 C 284.44 292.03 277.25 292.25 270.44 293.64 M 164.40 311.45 C 160.97 312.71 158.12 315.51 156.94 318.99 C 151.23 334.73 147.37 351.52 148.56 368.35 C 149.36 379.43 153.13 390.84 161.33 398.67 C 169.50 406.64 181.50 411.34 192.90 408.94 C 202.76 407.27 211.92 402.01 218.42 394.43 C 227.85 383.95 234.34 370.26 234.28 355.99 C 234.31 344.47 229.02 333.19 220.57 325.46 C 208.64 315.02 192.38 311.53 176.94 310.82 C 172.78 310.84 168.44 310.15 164.40 311.45 Z" />
<path opacity="1.00" d=" M 109.16 113.20 C 139.53 81.92 180.09 60.74 223.15 53.87 C 228.84 70.46 233.47 87.53 235.13 105.03 C 235.74 114.89 235.79 125.32 231.37 134.41 C 228.65 140.22 223.05 144.51 216.78 145.79 C 211.05 146.97 205.37 148.52 200.09 151.06 C 185.52 157.70 174.25 170.22 167.47 184.55 C 157.85 204.86 155.17 227.74 155.53 249.99 C 135.88 251.45 116.31 247.24 97.60 241.58 C 82.52 236.91 67.92 230.84 53.65 224.13 C 60.13 182.59 79.83 143.31 109.16 113.20 Z" />
<path opacity="1.00" d=" M 267.12 324.01 C 270.88 318.01 279.13 316.27 285.49 318.69 C 288.04 319.51 288.75 323.16 287.16 325.14 C 283.10 330.77 277.36 335.07 270.98 337.74 C 268.77 333.57 265.88 328.92 267.12 324.01 Z" />
<path opacity="1.00" d=" M 177.94 335.94 C 186.72 336.61 196.10 338.10 203.23 343.68 C 208.07 347.40 209.85 353.92 208.72 359.78 C 206.95 369.42 200.80 378.53 191.85 382.84 C 188.40 384.65 184.16 384.12 181.01 381.92 C 176.31 378.99 174.81 373.19 174.02 368.06 C 172.86 357.21 175.11 346.36 177.94 335.94 Z" />
<path opacity="1.00" d=" M 383.61 407.71 C 395.15 403.30 404.59 395.06 413.47 386.72 C 389.78 415.61 357.82 437.61 322.51 449.78 C 318.35 446.97 314.18 444.19 309.98 441.44 C 314.03 431.04 319.06 420.84 326.14 412.15 C 329.14 408.78 332.45 405.13 336.99 404.01 C 340.10 403.26 342.82 405.26 345.44 406.58 C 357.18 412.67 371.48 412.66 383.61 407.71 Z" />
</g>
</svg>
