<?xml version="1.0" encoding="utf-8"?>
<!-- Generator: Adobe Illustrator 22.0.1, SVG Export Plug-In . SVG Version: 6.00 Build 0)  -->
<svg version="1.1" id="Layer_1" xmlns="http://www.w3.org/2000/svg" xmlns:xlink="http://www.w3.org/1999/xlink" x="0px" y="0px"
	 viewBox="0 0 226.1 202.1" style="enable-background:new 0 0 226.1 202.1;" xml:space="preserve">
<g>
	<path d="M202.1,67.7c0,3.9,0,7.7,0,11.6c-0.1,3.9-2.1,5.9-6,5.9c-2.8,0-5.6,0-8.5,0c-1.1,0-2,0.2-1.6,1.5c0.3,1.3-0.8,3.6,1.5,3.5
		c3.6-0.2,4.1,2.1,4.8,4.6c2.1,8.9,1,17.5-1.4,26.2c-0.5,1.6-1.5,2.1-3,1.8c-2.6-0.5-3.4,0.6-3.5,3.1c-0.1,3.3-0.7,6.5-1.2,9.8
		c-0.3,1.7-0.1,2.7,2,2.6c2.8-0.1,3.8,1.4,3.7,4c-0.1,3-0.4,6-1.3,8.9c-0.7,2.1-2.1,3.1-4.3,2.5c-3.3-1-5.4-0.2-7.5,2.9
		c-6.8,10.1-17.2,15.6-28,20.5c-15.9,7.2-32.3,10.4-49.7,8.6c-8.1-0.8-15.9,0-23.6,2.7c-1.3,0.5-2.5,0.4-3.8-0.2c-6-2.5-12-5-18-7.3
		c-1.6-0.6-2.5-1.5-2.5-3.3c0.1-5.6-2.3-10.1-5.3-14.8c-7.3-11.2-9.9-24-11.3-37c-0.2-2.1-0.5-3.4-3-3c-1.4,0.3-2.1-0.5-2.4-1.8
		c-2.6-9.1-3.7-18.2-1.1-27.5c0.6-2.2,1.6-3.5,4.1-3.2c2.8,0.4,2.2-1.8,2.4-3.3c0.3-2.1-1.1-1.9-2.4-1.9c-2.9,0-5.8,0.1-8.7,0
		c-3.5-0.1-5.6-2.2-5.7-5.7c-0.1-7.9-0.2-15.8,0.1-23.7c0.1-3.3,1.6-6,5-7.5c6.3-2.7,12.7-4,19.5-3.3c1.7,0.2,2.7-0.3,3.7-1.7
		c10.9-15.9,26.6-24,45-27.3c19.7-3.6,39-1.3,57.6,5.6c11.2,4.2,20.3,11.3,26.8,21.5c1.1,1.7,2.2,2.1,4.1,1.9
		c6.3-0.5,12.3,0.7,18.1,3.1c3.8,1.6,5.3,4.5,5.5,8.3C202.2,60.1,202.1,63.9,202.1,67.7z M108.4,47.9c10.4,0,20.6,1,30.7,3.6
		c3.9,1,3.9,1,4.1-3.1c0.3-7.2,1-14.5-2-21.4c-0.6-1.3-1.1-2.3-2.6-2.6C118,19.2,97.5,18.1,77,25.2c-2,0.7-3,1.8-3.7,3.7
		c-2.9,7.5-1.5,15.2-1.4,22.9c0,1.9,1.4,1,2.2,0.7C85.3,49.2,96.8,48,108.4,47.9z M177.6,94c-3.7,0.2-3.4-2.3-3.5-4.3
		c-0.3-5.7-1.2-11.2-3-16.6c-0.8-2.4-2.1-4.3-4-6c-5.1-4.5-10.8-7.9-17-10.3c-22.2-8.5-44.9-9.1-68-4.6
		c-10.7,2.1-20.7,6.2-29.3,13.1c-2.2,1.8-3.7,3.9-4.7,6.5c-2,5.5-3,11.3-3.3,17.1c-0.1,0.9,0.1,2.5-0.3,2.7
		c-3.7,1.6-1.1,4.3-1.1,6.5c-0.2,3.9-0.2,7.9-0.2,11.8c0,3,0.2,6-1.3,8.8c-1.1,2-0.9,4.1-0.6,6.3c0.8,7.3,2.6,14.4,3.8,21.6
		c0.7,4.1,2.5,7.6,5.1,10.8c6.6,8.1,15.2,13.1,25,16.1c17.5,5.5,35.3,6.2,53.2,2.5c14.6-3,27.6-9.2,38.3-19.8
		c1.3-1.3,2.5-2.5,3.2-4.2c4.2-9.5,6.6-19.6,7.6-29.9c0.1-1.4,0.2-2.9-0.5-4.1c-1.3-2.4-1.1-4.9-1.2-7.4c-0.1-4.1-0.1-8.3-0.2-12.4
		C175.5,96.6,175.4,95,177.6,94z M148.7,28c-0.4,1.2,0,1.9,0.2,2.6c2,7.6,3.2,15.3,2,23.1c-0.2,1.5,0.6,1.9,1.7,2.4
		c4.8,2.1,9.4,4.7,13.5,8.1c1.1,0.9,2.1,1.1,3.5,0.9c4.9-0.9,7.8,1.1,8.7,6c0.3,1.6,0.5,3.2,0.7,4.7c0.4,4.2,0.7,8.4,1,12.6
		c0.1,1.1,0.3,1.9,1.6,1.7c0.8-0.1,2.2,0.6,2.3-0.8c0.2-1.8,0.5-4-0.6-5.5c-1.6-2.1-1.9-4.3-1.7-6.6c0.8-10.2-2.4-19.3-7.4-27.8
		C168.2,39.4,159.5,32.5,148.7,28z M66.3,30c-9.6,5.4-16.8,12.2-22.1,21c-7,11.6-8.1,24.4-8.6,37.5c0,0.6-0.2,1.5,0.7,1.6
		c0.7,0.1,1.6,0.2,2.2-0.2c0.8-0.5,0.5-1.5,0.6-2.3c0.3-6,0.6-12,1.8-17.9c0.7-3.5,2.7-5.6,5.9-5.2c3.7,0.5,6.1-1.2,8.8-3.2
		c2-1.5,4.3-2.8,6.5-3.9c1.7-0.8,2.3-1.6,2-3.6c-0.7-5.6-0.4-11.3,0.8-16.8C65.3,34.9,65.7,32.8,66.3,30z M173.5,147.1
		c-1.5,7.2-6.5,11.5-11.8,15.7c-4.4,3.4-9.1,6.3-14.2,8.6c-17.5,8.1-35.9,9.8-54.8,7.6c-11.6-1.3-22.7-4.3-32.6-10.7
		C53,163.8,47,158.2,44.1,150c-0.5-1.4-1.4-1.4-2.4-1.2c-1.7,0.3-0.7,1.5-0.5,2.2c1.5,5.2,4.7,9.6,7.5,14.1c1.2,1.9,2.7,3.3,4.5,4.5
		c5,3.1,10.6,4.8,15.9,7.2c16.9,7.5,34.8,8.6,52.8,6.1c14-2,26.8-7.9,38.9-15c5.5-3.2,9.7-7.9,13.5-13c0.4-0.5,1-1.5,0.8-1.7
		C173.7,151.4,174.5,149.1,173.5,147.1z M33.5,92.5c-4.2,0.1-4.2,0.1-5,3.9c-1.4,6.8-0.8,13.5,0.6,20.1c0.9,4.3,1,4.2,5.3,4.1
		c1.8-0.1,2.4-0.3,1.9-2.4c-2-7.6-2.1-15.2-0.7-22.9C36,93.1,36,91.8,33.5,92.5z M184.1,105c0,4.2-0.3,8.4-1.2,12.6
		c-0.2,0.8-1.7,2.1,0.2,2.8c2.2,0.8,5.5,0.1,5.9-1.3c1.9-7.2,2.9-14.5,1.4-22c-1-4.8-1.2-5-6.1-4.7c-1.4,0.1-1.5,0.6-1.2,1.7
		C184,97.7,184.1,101.4,184.1,105z M199.7,58.8c0.5-5.5-0.2-6.3-5.1-6.3c-2.4,0-4.9,0-7.3,0c-2.1,0-3.4,1.2-3.5,3.3
		c-0.1,8-0.1,16,0,23.9c0,1.9,1.2,3.1,3.2,3.2c1.4,0.1,2.9,0,4.4,0c-3.3-1.5-5.7-3.6-5.8-7.4c-0.1-2.9,1.2-5.1,3.8-6.4
		c4.2-2.1,7.5-0.3,10.5,3.3c0-3.6,0-6.8,0-10.1c-3.1,4.7-5.9,6-9.7,4.8c-3.1-1-5.2-3.8-5.1-7c0.1-3.3,2.2-5.9,5.4-6.7
		C194.1,52.6,197,54.1,199.7,58.8z M18.9,72c4.9-4.5,9.1-5,12.3-1.6c2.6,2.7,2.6,6.9,0,9.7c-3.3,3.5-7.3,3.1-12.3-1.3
		c-0.3,2.5,0.7,4,3.1,4.1c3.2,0.1,6.4,0,9.6,0c1.3,0,2.1-0.5,2.2-2c0.8-8.3,1.5-16.7,1.1-25c-0.1-2.2-1.3-3.5-3.6-3.5
		c-2.4,0-4.9,0-7.3,0c-4.8,0-5.7,1.1-5,5.9c3-4.5,5.7-5.9,9.3-5c3.1,0.9,5.2,3.3,5.4,6.4c0.2,3-1.7,5.9-4.6,7.1c-2,0.8-4,0.7-6-0.2
		c-1.9-0.9-3-2.6-4.2-5C18.9,65.6,18.9,68.8,18.9,72z M74,181.5c0-1.1-0.8-1.2-1.3-1.5c-5-2.1-10-4.2-15-6.3
		c-1.2-0.5-1.9-0.4-2.4,0.8c-0.1,0.3-0.3,0.7-0.5,1c-1.7,3.1-1.7,3.1,1.5,4.4c4.2,1.7,8.3,3.4,12.5,5.1c1,0.4,2.2,1.6,3,0.7
		C72.9,184.6,73.4,182.8,74,181.5z M142.5,25.9c1.8,5,2.9,9.6,2.6,14.5c-0.2,3.4-0.3,6.8-0.4,10.1c-0.1,1.8,1.8,3.8,3.6,3.6
		c1.8-0.2,1.1-1.9,1.2-2.9c0.7-7.8-0.8-15.3-3-22.8C146,26.6,144.7,26.3,142.5,25.9z M72.1,27.6c-2.3,0.4-3.5,1-4.1,3
		c-1.9,7.2-3.2,14.4-2.4,21.9c0.1,0.8-0.6,2.8,1.3,2.3c1.4-0.3,3.5-0.3,3.4-2.9C70,43.9,68.7,35.7,72.1,27.6z M37.7,122.6
		c-2,0-2.2,0.2-2,2.4c0.4,7.2,2.2,14.1,5.1,20.7c0.4,0.9,0.8,1.6,1.8,1.3c1.3-0.3,0.6-1.4,0.5-2.1c-1.4-6.8-2.9-13.6-3.5-20.5
		C39.4,123.2,39,122.3,37.7,122.6z M178.1,85.2c-0.2-3-0.4-5.3-0.6-7.5c-0.3-2.3-0.5-4.7-1-6.9c-0.6-2.9-2.3-4.3-4.8-4.2
		c-1.1,0-1.7,0.2-1.1,1.4c3.3,7.1,4.8,14.5,5.1,22.3c0,0.6-0.1,1.7,1,1.6c1-0.1,1.7-0.7,1.6-1.9C178.3,88.2,178.2,86.3,178.1,85.2z
		 M40.8,85.4c0,1-0.1,2.1-0.1,3.1c-0.1,1.3-0.2,2.7,1.5,2.8c1.6,0,1-1.6,1-2.4c0.4-6.9,1.6-13.6,4.3-19.9c0.4-0.9,1.6-2,0.7-2.7
		c-1-0.8-2.5-0.2-3.7,0.4c-1.4,0.7-1.9,2-2.2,3.4C41.3,75.1,41.1,80.3,40.8,85.4z M180.6,151.2c2.2,0.8,3.1-0.2,3-2.9
		c-0.1-2,0.5-4,0.8-6.1c0.1-0.7,0.5-1.4-0.6-1.8c-4.7-1.7-6.7-0.5-7.4,4.3c-0.1,0.6-0.1,1.3-0.2,2
		C176.1,150.8,176.1,150.8,180.6,151.2z M23.8,50c6,0.9,13.6-2.3,13.6,8.2c1.7-3.7,3-6.7,4.4-9.6c0.4-0.8,0.2-1.3-0.7-1.4
		C35.3,46.7,29.8,47.2,23.8,50z M181.1,56.8c1.6-5.8,2.6-6.6,8.3-6.6c1.6,0,3.2,0,4.7,0c-5-2.8-10.2-3.5-15.6-3.1
		c-1.1,0.1-1.5,0.4-1,1.6C178.7,51.2,179.8,53.8,181.1,56.8z M182.4,124.2c0.1-1-0.2-1.6-1.4-1.7c-1,0-2-0.2-2.2,1.3
		c-0.6,4-1.3,7.9-2,11.9c-0.2,1-0.5,1.9,1.1,1.9c1.1,0,2.5,0.8,2.8-1.2C181.2,132.4,181.8,128.3,182.4,124.2z M74,186.1
		c3.5-0.9,6.6-1.7,9.9-2.5c-1.3-1.1-2.8-1-4.1-1.4C75.5,181.2,75.5,181.3,74,186.1z M37.8,113.3c-0.1-6.7-0.1-13.3,1-19.9
		C36.6,100,36.7,106.7,37.8,113.3z M24,71c-2.3,1.3-3.2,2.9-3,5c0.2,1.9,1.3,3.1,3.6,3.8C23.1,76.8,23.1,74.1,24,71z M194.4,71.1
		c1.6,3.4,0.8,6.1-0.3,8.9c2.4-0.8,3.5-2.2,3.5-4.3C197.7,73.7,196.9,72.3,194.4,71.1z M194.3,64.6c2.5-1.2,3-2.9,2.7-4.9
		c-0.2-1.9-1-2.6-3.2-3.2C195.2,59,195.1,61.6,194.3,64.6z M25.2,55.6c-2.6,1.2-3.6,2.6-3.6,4.7c0,1.8,0.7,3.2,2.8,4.1
		C23.5,61.5,23.6,58.9,25.2,55.6z M52.2,176.2c2.8-3.8,2.8-4.2-0.6-5.2C51.7,172.6,51.9,174.2,52.2,176.2z M194,82.6
		c4.6,0.6,5.9-0.3,5.6-4C198.2,80.7,196.6,81.9,194,82.6z"/>
	<path d="M174.4,110.7c-0.1,11.5-1,22.3-3.8,32.8c-0.6,2.1-1.4,3.9-2.7,5.5c-9.5,12.3-22.2,19.7-37,23.1c-19.4,4.5-38.6,3.5-57.5-3
		c-5.9-2-11.3-5.1-16-9.2c-5.4-4.7-9-10.3-10.1-17.6c-2.4-15.6-4.5-31.1-2-46.8c1-6.4,2.4-12.7,4-19c1.2-4.9,4.1-8.3,8.2-11
		c6-3.8,12.6-6.3,19.6-7.7c25.8-5.2,51.5-5,76.3,4.9c15.2,6.1,13.4,5.1,18.3,20c1.5,4.7,2.3,9.5,2.7,14.4
		C174.7,101.8,174.6,106.6,174.4,110.7z M172.2,111.3c0.2-5.9,0.2-12-0.6-18.1c-2.4-17.8-6.4-23-22.7-28.4
		c-23.6-7.9-47.6-8.1-71.8-3.2c-6.9,1.4-13.5,3.9-19.5,7.8c-3.2,2.1-5.4,4.9-6.5,8.8c-5.8,20-5.8,40.1-2.3,60.6
		c1.4,8.1,4.9,14.2,11.1,19.1c4.3,3.4,9.1,6,14.3,7.7c18.6,6.2,37.6,7.1,56.7,2.7c13.4-3.1,25-9.7,34-20.3c1.3-1.6,2.8-3.1,3.3-5.2
		c0.2-1,1.1-2.1,0.3-2.9c-0.7-0.6-1.7,0.3-2.6,0.6c-9.4,3.5-18.8,7-28.9,8.1c-3,0.3-6,0.2-8.8,1.4c-4.2,1.9-8.5,2.2-13,1.5
		c-2.5-0.4-4.8-1.2-5.1-4.3c-0.3-4.1,1-7,4.1-7.8c5.1-1.4,10.1-1,14.3,2.6c1.2,1,2.2,1.2,3.6,1c13.1-2,25.7-5.7,37.1-12.6
		c1.5-0.9,2.1-1.9,2.2-3.6C171.9,121.9,172.2,116.7,172.2,111.3z"/>
</g>
</svg>
