<?xml version="1.0" encoding="utf-8"?>
<!-- Generator: Adobe Illustrator 22.0.1, SVG Export Plug-In . SVG Version: 6.00 Build 0)  -->
<svg version="1.1" id="Layer_1" xmlns="http://www.w3.org/2000/svg" xmlns:xlink="http://www.w3.org/1999/xlink" x="0px" y="0px"
	 viewBox="0 0 143.3 163.5" style="enable-background:new 0 0 143.3 163.5;" xml:space="preserve">
<g>
	<path d="M86.1,66.8c2.7,9.4,5.4,18.7,9.9,27.4c6,11.4,9.8,23.7,13.2,36c1.4,4.9-1.2,9.7-6,11c-5.3,1.4-9.4-1.1-10.7-6.6
		c-1.1-4.4-2.3-8.9-3.1-13.4c-1.3-8-7.3-13.3-11.2-19.8c-1-1.6-2.3-0.2-3.5-0.1c-1.3,0.1-1.5,1.1-1.3,2.2c0.5,4.8,1,9.7,1.5,14.5
		c0.1,1.5,0.9,2.6,1.6,3.8c2.7,4.9,5.5,9.7,8.2,14.6c2.7,4.9,1.4,9.4-3.3,11.9c-4.5,2.4-9.5,0.4-12.1-4.2
		c-9-15.9-13.8-33.4-19.2-50.6c-1.6-5.2-3.2-10.4-5-16c-2.4,1.9-4.6,3.4-6.6,5.1c-1.9,1.6-4.1,2.4-6.6,2.1
		c-5.2-0.7-10.5-1.3-15.7-2.1c-4.8-0.7-7.6-4.7-6.8-9.5c0.7-4.2,4.8-7,9.3-6.4c3.7,0.5,7.9,2.4,11,1c3.1-1.4,4.9-5.3,7.5-7.9
		c1.8-1.8,2.1-3.5,1.2-5.8c-1-2.4-1.5-5-2.3-7.4c-1.1-3.1-1.2-6,0.4-8.9c0.5-0.9,0.4-1.7,0.4-2.6c0.3-8,5.4-14.6,12.7-16.6
		c7.5-2.1,14.5,1.2,19.8,7.1c4.6,5.1,6.3,11.1,8.2,17.2c0.4,1.2,1,2.1,2.3,2.5c0.6,0.2,1.1,0.5,1.6,0.7c3.2,1.1,6.2,4,9.3,3.4
		c2.9-0.6,5.3-3.6,7.9-5.6c4.1-3.2,8.4-3.2,11.6-0.1c3.3,3.2,3.3,8.5-0.2,11.4c-4.4,3.7-9.1,7.1-13.7,10.5c-1.6,1.2-3.6,1.6-5.7,1.2
		C89.2,66.7,87.8,66.3,86.1,66.8z M70.5,103.8c0.2-1.4-1.1-3.1,0.1-4c2.2-1.6,4.9-2.1,7.5-2.6c1.7-0.3,2.1,1.6,2.9,2.6
		c0.9,1.2,1.8,2.4,2.6,3.7c0.8,1.4,1.6,1.7,3.1,0.8c2.1-1.1,4.3-2.2,6.6-2.7c2-0.5,2.4-1,1.4-2.9c-5.1-9.7-8.5-20.1-11.5-30.6
		c-1.5-5.3-1.4-5.4,4.1-4.7c2.4,0.3,5,1.3,7.3-0.2c2.3-1.5,4.5-3.3,6.7-5c1.1-0.8,1.1-1.4,0-2.2c-1.5-1.2-2.8-2.6-3.5-4.4
		c-0.8-1.9-1.7-2.2-3.1-0.6c-2.3,2.5-4.8,2.8-7.6,0.9c-1.6-1.1-2.9-0.8-3.6,1.2c-0.8,2.3-2.2,0.8-3.3,0.3c-1.2-0.5-2.7-0.9-1.3-2.7
		c1-1.4,0.7-2.3-1-2.8c-1.1-0.3-2.3-0.8-3.4-1.1c-2.6-0.9-4.5-0.5-6.5,1.7c-4.2,4.7-9.8,6.7-15.9,5.4c-3.6-0.7-5.7,0.4-7.7,2.8
		c-0.8,0.9-1.6,1.8-2.4,2.6c-0.9,0.9-1.4,1.7,0.3,2.3c3,1,0.8,2.6,0.4,3.9c-0.6,2-1.8,1.4-2.9,0.6c-1.9-1.4-3.4-1-4.6,0.9
		c-0.8,1.1-1.8,2.1-2.7,3.2c-0.7,0.9-1.5,1.3-2.6,1.1c-1.8-0.2-4-1.1-5.2-0.4c-1.6,1-0.3,3.5-0.7,5.3c-0.3,1.3-1.5,2.9-0.7,3.8
		c0.9,1,2.8,0.7,4.3,0.9c0.6,0.1,1.2,0.1,1.8,0.3c3.4,0.8,6.4,0.5,9.1-2.2c1.5-1.5,3.4-2.7,5.2-4.1c3.1-2.4,3.7-2.2,4.8,1.5
		c3.2,10,6.3,20.1,9.5,30.2c0.6,1.9,0.7,4.4,2,5.5c1.6,1.3,3.7-0.9,5.7-1.2c1.8-0.3,4.3-0.3,5.3-1.4
		C71.8,108.1,70.1,105.8,70.5,103.8z M54.8,20.9C46.9,20.8,40.4,27,40,35.1c-0.3,8.1,6.5,15.1,14.7,15.2C62.4,50.4,68.7,44,69,35.9
		C69.3,27.8,63,21.1,54.8,20.9z M95.4,124.9c2-0.3,4.4-1.2,6.8-2.4c1-0.5,1.3-1.1,0.9-2.2c-1.1-3.3-1.9-6.7-3.2-9.9
		c-3.1-7.7-4.1-7.9-11.5-3.9c-1.7,0.9-1.8,1.7-0.6,3.1c2.5,2.8,3.9,6.2,4.5,9.9c0.2,1.5,0.7,2.9,1,4.4
		C93.4,124.7,93.9,125.3,95.4,124.9z M77.3,129.5c-0.5-0.9-1-1.7-1.3-2.5c-1.4-2.9-3.7-5.4-4.1-8.8c-0.7-6.2-0.7-6.2-6.7-4.3
		c-0.9,0.3-1.8,0.8-2.8,1c-1.5,0.4-1.9,1.1-1.4,2.6c1.3,3.5,2.3,7.2,4,10.5c3.5,6.7,4.1,6.9,10.8,3c0.3-0.2,0.7-0.4,1-0.6
		C77,130.2,77.1,129.8,77.3,129.5z M77.4,146.2c4.6,0,6.9-4,4.8-8.1c-2.8-5.4-2.9-5.4-7.6-3.2c-1.6,0.8-4.4,0.6-4.7,2.4
		c-0.3,1.5,1.4,3.4,2.1,5.1C73,144.8,74.7,146.2,77.4,146.2z M100.6,138.4c4.1,0,6.8-3.4,5.7-7.4c-1.6-6.1-1.7-6.4-6.5-4.3
		c-1.7,0.7-5-0.5-5.1,2.6c-0.1,2.1,0.8,4.3,1.5,6.3C96.9,137.5,98.5,138.5,100.6,138.4z M104.8,44.5c-2.2-0.1-5.6,2.2-5.5,3.7
		c0.1,1.9,4.3,6.9,5.8,6.8c1.6,0,4.4-3.5,4.5-5.4C109.6,46.7,107.6,44.5,104.8,44.5z M21.2,73.2c0.1-1.5-0.3-3.4-3.3-3.4
		c-2.9,0-5.3,2-5.4,4.7c-0.1,2.9,2,5,5.3,5.2C19.9,79.9,21,78.2,21.2,73.2z M41.8,54.2c1.1-0.9,1.8-1.7,2.7-2.4c0.6-0.5,0.9-1,0-1.6
		c-2-1.3-3.4-3.2-5.4-4.7C40,48.3,40.9,51.1,41.8,54.2z M72.5,37.1c-0.4,1.8-0.8,2.9-1,4c-0.1,0.5-0.7,1.2,0.1,1.5
		c0.7,0.2,1.5,0.7,2.2,0.2c0.5-0.4,0.2-1.1,0-1.6C73.5,40,73.2,38.9,72.5,37.1z"/>
	<path d="M123.1,72.5c-0.1,2.5-1.4,3.9-3.6,4c-2.3,0.1-3.7-1.2-4-3.5c-0.2-2.2,1.5-4,3.8-4C121.6,69,122.8,70.3,123.1,72.5z"/>
	<path d="M30.7,105.7c-0.2,2.2-1.5,3.5-3.8,3.7c-2.2,0.1-3.9-1.7-3.8-4c0.1-2.4,1.6-3.5,3.8-3.6C29.1,101.8,30.7,103.5,30.7,105.7z"
		/>
	<path d="M132.1,58.1c-0.1,1.3-0.8,2-2.1,1.9c-1.3,0-2-1-1.9-2.2c0.1-1.2,0.9-2,2.2-2C131.5,56,132.1,56.8,132.1,58.1z"/>
	<path d="M38.8,122.8c-0.2,1.4-1,2-2.3,1.8c-1.3-0.2-2-1-1.8-2.2c0.2-1.2,1-2,2.3-1.8C38.2,120.8,38.9,121.6,38.8,122.8z"/>
	<path d="M57.4,82.2c-1.4,0-2.3-0.8-2.7-2.2c-1-3.4-2.2-6.8-3.2-10.2c-0.7-2.2,0-3.6,2.4-4.3c5.9-1.7,11.8-3.6,17.7-5.5
		c2.3-0.7,3.6,0,4.3,2.3c1,3.4,2,6.9,3.1,10.3c0.6,1.7,0.3,3.1-1.5,3.6c-6.4,2.1-12.9,4-19.4,6C57.9,82.2,57.7,82.2,57.4,82.2z
		 M75.9,72.3c-0.8-2.6-1.7-5.7-2.6-8.7c-0.3-1.1-1.2-0.8-2-0.6c-5.2,1.6-10.4,3.2-15.7,4.8c-1.2,0.4-1.6,0.9-1.2,2.2
		c0.9,2.5,1.7,5.1,2.4,7.7c0.4,1.3,1,1.7,2.3,1.3c5.1-1.6,10.2-3.2,15.4-4.8C75.2,74,76.4,74,75.9,72.3z"/>
	<path d="M66.4,52.6c1.3,0.2,2.1,0.9,2.1,2.2c-0.1,1.2-0.9,2-2.2,2c-1.3,0-2-0.8-2-2.1C64.4,53.3,65.2,52.7,66.4,52.6z"/>
	<path d="M57.6,58.1c-0.1,1.2-0.7,2-2,2c-1.3,0-2.1-0.7-2.1-1.9c-0.1-1.3,0.8-2.3,2.2-2.2C56.8,56,57.4,56.9,57.6,58.1z"/>
	<path d="M55.5,46.9c-4.5,0.1-7.5-1.4-9.9-4.2c-4.2-5-3.1-10.8,2.6-14.1c2.4-1.4,5-2.1,7.6-2.4c6.1-0.8,10.5,3.2,10.4,9.4
		C66.1,41.8,61,46.9,55.5,46.9z M58.9,43.7c3.9-2.1,5.4-5.4,5-9.6c-0.1-0.7,0.4-2.3-1.1-1.8c-1.1,0.4-3.4,0.4-2.8,2.6
		C61,38,60.6,40.9,58.9,43.7z M62.7,30c-0.5-0.9-1.2-1.9-2.1-1.9c-1.8,0-1.8,2-2.5,3.1c-0.5,0.9,0.5,1.7,1.1,1.6
		C60.7,32.5,61.6,31.2,62.7,30z"/>
</g>
</svg>
