<?xml version="1.0" encoding="UTF-8" ?>
<!DOCTYPE svg PUBLIC "-//W3C//DTD SVG 1.1//EN" "http://www.w3.org/Graphics/SVG/1.1/DTD/svg11.dtd">
<svg width="512pt" height="512pt" viewBox="0 0 512 512" version="1.1" xmlns="http://www.w3.org/2000/svg">
<g id="#ffffffff">
</g>
<g id="#010101ff">
<path fill="#010101" opacity="1.00" d=" M 221.88 28.93 C 247.15 25.30 273.07 25.59 298.18 30.31 C 325.48 35.48 352.02 47.45 371.83 67.25 C 383.34 78.57 392.37 92.22 399.12 106.84 C 413.36 109.36 426.58 117.04 435.83 128.16 C 444.89 138.94 450.10 152.89 450.20 166.98 C 450.25 224.50 450.16 282.01 450.23 339.53 C 459.66 352.31 464.34 367.94 466.24 383.54 C 467.57 394.65 468.00 405.87 467.79 417.05 C 467.25 428.23 460.42 438.03 452.01 444.94 C 439.80 455.00 424.92 461.10 410.02 465.98 C 388.73 472.74 366.68 476.82 344.57 479.81 C 303.00 485.78 260.83 486.55 218.92 484.96 C 204.29 484.28 189.66 483.19 175.19 480.83 C 150.47 477.72 125.75 473.54 101.96 465.97 C 88.64 461.64 75.45 456.27 64.00 448.07 C 56.05 442.32 48.86 434.78 45.77 425.28 C 43.31 418.07 44.30 410.37 44.32 402.91 C 44.98 382.57 47.73 361.35 58.86 343.83 C 59.83 341.94 61.86 340.39 61.79 338.12 C 61.80 281.08 61.78 224.03 61.80 166.99 C 61.92 151.01 68.64 135.26 79.97 124.02 C 88.84 115.08 100.51 109.06 112.88 106.83 C 120.38 90.48 130.87 75.40 144.29 63.35 C 165.64 43.93 193.58 33.08 221.88 28.93 M 181.60 59.62 C 167.03 66.81 153.92 77.07 143.75 89.77 C 125.49 112.34 117.20 141.39 115.29 169.98 C 113.50 194.53 116.24 219.45 123.78 242.90 C 130.97 265.11 142.94 286.94 162.39 300.63 C 173.59 307.77 179.72 320.12 185.18 331.77 C 189.84 341.93 194.27 352.21 199.81 361.94 C 236.20 361.92 272.59 361.93 308.98 361.93 C 313.11 353.98 316.54 345.69 320.26 337.55 C 326.52 323.83 334.07 309.31 347.82 301.78 C 366.77 289.42 378.86 269.04 386.43 248.17 C 398.71 213.60 400.46 175.46 392.13 139.79 C 385.52 111.36 369.35 84.62 344.91 68.14 C 315.33 47.83 278.10 42.60 242.97 44.52 C 221.85 45.75 200.65 50.17 181.60 59.62 M 79.47 166.94 C 79.43 218.65 79.47 270.37 79.45 322.08 C 91.73 313.28 105.87 307.45 120.28 303.15 C 125.24 301.73 130.19 300.14 135.35 299.66 C 119.60 281.70 109.29 259.47 103.41 236.44 C 94.48 200.86 94.95 162.87 105.12 127.61 C 90.06 134.52 79.55 150.31 79.47 166.94 M 406.85 127.58 C 414.97 155.20 416.71 184.55 413.09 213.06 C 408.90 244.39 397.69 275.63 376.65 299.66 C 381.82 300.14 386.79 301.74 391.76 303.16 C 406.16 307.45 420.27 313.30 432.56 322.07 C 432.53 270.38 432.56 218.70 432.54 167.02 C 432.48 150.33 421.93 134.54 406.85 127.58 M 127.56 319.40 C 108.69 324.84 89.21 332.91 76.81 348.85 C 65.74 363.18 62.98 381.86 62.15 399.45 C 62.04 406.00 61.13 412.65 62.36 419.13 C 64.54 426.83 71.14 432.22 77.64 436.33 C 89.19 443.40 102.13 447.82 115.08 451.56 C 132.32 456.42 149.98 459.65 167.72 462.08 C 167.73 437.38 167.70 412.67 167.74 387.97 C 167.76 378.60 173.34 369.78 181.39 365.17 C 176.37 355.42 172.08 345.32 167.49 335.36 C 163.97 327.96 159.77 320.50 153.02 315.57 C 144.51 316.70 135.76 316.63 127.56 319.40 M 344.79 328.83 C 337.79 339.79 333.38 352.11 327.78 363.80 C 337.33 367.83 344.28 377.56 344.27 388.04 C 344.30 412.72 344.27 437.40 344.28 462.08 C 363.46 459.44 382.58 455.90 401.14 450.33 C 414.00 446.33 426.95 441.70 438.02 433.86 C 444.15 429.41 450.14 423.06 450.19 415.01 C 450.21 404.93 449.91 394.81 448.58 384.81 C 446.74 369.95 441.71 354.85 430.99 343.99 C 417.09 329.83 397.79 322.82 378.98 317.94 C 372.36 316.84 365.57 314.95 358.85 316.18 C 352.67 318.24 348.30 323.59 344.79 328.83 M 185.42 388.08 C 185.34 413.45 185.40 438.83 185.39 464.20 C 232.29 469.13 279.70 469.13 326.60 464.20 C 326.61 438.84 326.66 413.47 326.58 388.10 C 326.59 383.56 322.50 379.53 317.95 379.62 C 276.96 379.55 235.96 379.62 194.97 379.59 C 190.12 379.12 185.40 383.15 185.42 388.08 Z" />
<path fill="#010101" opacity="1.00" d=" M 229.47 97.80 C 254.63 96.60 279.97 96.65 304.98 99.92 C 324.80 102.70 345.25 108.02 360.88 121.16 C 373.34 131.48 381.04 146.53 384.55 162.14 C 387.73 175.83 388.54 189.96 388.38 203.98 C 387.61 238.91 372.34 273.77 345.53 296.49 C 325.37 313.83 299.36 323.38 273.06 325.80 C 240.79 328.85 206.69 323.72 179.11 305.88 C 152.71 289.11 134.16 261.32 127.11 231.01 C 122.63 212.72 122.92 193.62 125.13 175.03 C 127.32 157.70 132.91 140.04 145.02 127.01 C 156.94 113.91 173.86 106.69 190.85 102.85 C 203.53 99.94 216.50 98.55 229.47 97.80 M 278.40 133.42 C 272.62 136.12 272.05 145.09 277.46 148.50 C 282.62 152.44 290.95 148.56 291.27 142.07 C 292.22 135.41 284.22 130.00 278.40 133.42 M 157.46 186.66 C 150.51 188.36 145.50 193.94 141.23 199.34 C 141.22 212.85 143.34 226.40 147.89 239.14 C 155.79 261.70 171.71 281.48 192.51 293.39 C 216.31 307.25 244.85 310.75 271.91 308.17 C 297.22 305.77 322.36 295.73 340.27 277.32 C 360.68 256.97 371.03 227.85 370.75 199.27 C 367.18 194.80 363.24 190.30 357.97 187.83 C 353.77 185.88 348.33 185.40 344.56 188.53 C 340.91 191.50 337.19 195.41 332.06 195.10 C 324.75 195.33 321.12 187.10 314.08 186.39 C 305.96 185.53 299.25 191.22 291.88 193.61 C 287.55 195.52 282.66 194.61 278.25 196.16 C 271.42 198.30 265.37 202.73 258.19 203.76 C 254.27 204.08 250.13 203.97 246.48 202.35 C 243.68 201.18 243.02 197.87 240.90 196.00 C 238.24 194.46 234.74 195.68 232.15 193.88 C 229.41 191.88 227.82 188.42 224.45 187.28 C 220.07 185.72 215.07 185.94 210.86 187.92 C 204.84 190.82 198.95 194.64 192.06 194.99 C 186.68 195.73 181.60 193.42 177.04 190.84 C 171.13 187.61 164.24 185.32 157.46 186.66 Z" />
</g>
</svg>
