<?xml version="1.0" encoding="utf-8"?>
<!-- Generator: Adobe Illustrator 22.0.1, SVG Export Plug-In . SVG Version: 6.00 Build 0)  -->
<svg version="1.1" id="Layer_1" xmlns="http://www.w3.org/2000/svg" xmlns:xlink="http://www.w3.org/1999/xlink" x="0px" y="0px"
	 viewBox="0 0 155.9 157.9" style="enable-background:new 0 0 155.9 157.9;" xml:space="preserve">
<g>
	<path d="M80.5,145.9c-2.8,0-5.7,0-8.5,0c-0.1-0.2-0.3-0.2-0.5-0.2c-5.3-0.3-10.4-1.5-15.3-3.5c-11.1-4.4-19.6-11.9-26.1-21.8
		c-0.8-1.2-0.9-2.3-0.6-3.7c1.1-4.3,2.1-8.6,3.2-12.9c0.1-0.5,0.1-0.9-0.1-1.3c-0.9-1.8-1.9-3.6-2.4-5.5c-0.6-2.7-2.3-3.9-4.7-4.8
		c-3.5-1.3-5.4-3.9-5.6-7.7c-0.3-5.8-0.5-11.7-0.7-17.5c-0.1-3.4,1.3-6,4.4-7.6c1.2-0.6,2.4-1.3,3.6-2c0.7-0.4,1.1-0.8,1.3-1.7
		c0.3-1.3,0.6-2.6,1-3.9c3.3-10.2,8.5-19.2,16.6-26.4c5.1-4.5,10.9-7.8,17.3-9.8c6.9-2.1,13.9-2.7,21.1-1.8
		c6.7,0.8,12.9,2.9,18.7,6.2c5.5,3.1,10.3,7.1,14.5,11.8c6.1,7,10.4,15,12.9,23.9c0.6,2,1.4,3.4,3.4,4.3c3.6,1.6,5.4,4.4,5.2,8.5
		c-0.3,5.7-0.5,11.4-0.8,17.1c-0.1,2.5-0.8,4.8-2.8,6.6c-1.3,1.2-2.9,1.7-4.5,2.3c-1,0.3-1.5,0.9-1.9,1.9c-0.9,2.5-1.9,5-3.3,7.3
		c-0.3,0.5-0.2,1-0.1,1.5c0.8,4.2,1.7,8.4,2.6,12.5c0.2,1.1,0,1.9-0.6,2.8c-4.9,7.3-11.3,12.9-18.9,17.1c-8.1,4.6-16.9,7.1-26.2,7.9
		C82,145.6,81.2,145.4,80.5,145.9z M61.2,114.5c7.6,2,15,3,22.5,2.1c7.5-0.9,14.6-3.2,21.1-7.1c-2.4,0.9-4.8,1.9-7.2,2.6
		c-5.2,1.6-10.5,2.4-15.9,2.5c-7.1,0.2-14.1-0.9-20.9-3.2c-8.4-2.9-15.7-7.5-21.5-14.2c-1.5-1.8-3.2-3.5-3.8-5.8
		c-1-3.8-1.7-7.7-1.9-11.7c-0.4-7.6-0.2-15.2,1.6-22.7c0.1-0.4,0.2-0.7,0.5-1.1c2.3-3.7,5.1-6.9,8.4-9.7c5.2-4.4,11.1-7.4,17.5-9.5
		c5.1-1.6,10.4-2.5,15.8-2.7c5.6-0.2,11.2,0.4,16.6,1.7c7.9,2,15.1,5.4,21.4,10.6c1.2,1,2.3,2.1,3.5,3.2c0.1-0.3,0-0.4-0.1-0.5
		C115,44.8,110.9,41,106,38c-5.4-3.3-11.2-5.3-17.4-6.4c-5.2-0.9-10.4-1.2-15.7-0.8c-5.3,0.5-10.3,1.9-15.1,4
		c-6,2.6-11.5,5.9-16.4,10.3c-1.9,1.7-3.6,3.5-5.2,5.6c-0.2-0.4,0.1-0.6,0.2-0.8c3.6-6,8.4-10.7,14.3-14.4c6.1-3.8,12.8-6.3,20-7.5
		c3.9-0.6,7.8-0.4,11.7-0.8c1.7-0.2,3.3-0.4,4.8-1.3c1.6-1,1.7-2.3,0.5-3.7c-1-1.1-2.4-1.7-3.5-2.6c5.1,0.7,10,1.9,14.8,3.9
		c4.8,2,9.1,4.8,13.3,8.1c0-0.3,0-0.4,0-0.4c-0.2-0.2-0.4-0.4-0.6-0.6c-3.6-3.3-7.6-6.2-12-8.4c-9.1-4.6-18.7-6-28.7-4.4
		c-11,1.7-20,7.2-27.1,15.6c-8.4,10-12.4,21.9-13.5,34.8c-0.4,4.4-0.4,8.7,0.1,13.1c0.6,5.6,2,11,4.2,16.2
		c2.9,6.9,7.1,12.9,12.7,17.8c5.9,5.2,12.7,8.6,20.2,10.5c2.4,0.6,4.7,1,7.2,1.1c-5.8-1-11.3-2.8-16.5-5.5
		C51.9,118,46,112.6,45,110.3c3.5,2.6,7.1,5,11.1,6.9c1.5,0.7,3,1.4,4.6,1.6c0.8,0.1,1.6,0,2-0.8c0.4-0.8,0.2-1.5-0.2-2.2
		C62.2,115.2,61.7,115.1,61.2,114.5z M96.7,139c-4.3,0.5-8.5,0.8-12.7,0.2c4.9-0.5,11.3-2.2,13.9-3.9c-4.8,1.2-9.4,1.6-14.1,1.2
		c4.5-0.7,8.9-1.7,12.9-3.8c-1.4,0.1-2.7,0.4-4.1,0.6c-1.4,0.2-2.9,0.3-4.3,0.4c-1.4,0.1-2.8,0.2-4.2,0.1c-1.4,0-2.8-0.2-4.2-0.3
		c11.7-0.3,21.8-4.5,30.7-12c-12.3,8.3-25.8,10.8-40.3,8.5c-14.6-2.4-26.1-10-34.6-22.4c-0.8,3.3-1.5,6.3-2.3,9.3
		c-0.2,0.9,0,1.5,0.4,2.2c4.2,6.3,9.5,11.6,15.9,15.6c7.8,4.9,16.4,7.4,25.7,7.5c5.6,0.1,11-0.6,16.4-1.8
		C93.4,140,95,139.5,96.7,139z M78.9,41.3c-7.7-1-16.1,0.8-23,4.7c-6.2,3.5-10.8,8.3-12.8,15.3c-0.9,3-1.4,6-0.9,9.2
		c0.4,2.6,3.4,5.2,5.6,5c3-0.2,5.6-2.7,5.9-5.5c0.1-1.5,0.2-3,0.2-4.6C54,62.2,54.4,59,56,56c2.6-5,6.8-8.5,11.8-11.1
		C71.3,43,75,42,78.9,41.3z M121.7,61.8c0.1,1.1,0.2,2.2,0.2,3.2c0.2,7,0,14-1.8,20.8c-0.5,2.1-0.7,4.3-2,6.1
		c-2.6,3.4-5.8,6.3-9.4,8.6c-8.7,5.7-18.5,8-28.7,8.3c-3.1,0.1-6.2-0.2-9.2-0.6c-7.4-0.9-14.4-3.1-20.8-7c-1.4-0.9-2.8-1.8-4.2-2.7
		c0.1,0.4,0.3,0.5,0.5,0.7c2.1,1.6,4.3,3.2,6.6,4.4c8.7,4.7,18,6.7,27.8,6.7c4.8,0,9.6-0.6,14.3-1.8c8.8-2.3,16.5-6.4,22.7-13.2
		c1.1-1.2,2.4-2.5,2.9-4.1c0.8-2.3,1.2-4.6,1.6-7c1-5.6,1-11.3,0.5-17C122.6,65.4,122.4,63.6,121.7,61.8z M116.3,73.1
		c-0.4,0.7-0.5,1.4-0.7,2.1c-0.7,3.1-1.4,6.1-3,8.9c-2.3,4-5.7,7-9.6,9.3c-7.1,4.3-14.9,6.7-23.1,7.8c-2.5,0.3-5,0.5-7.7,0.8
		c0.5,0.2,0.7,0.3,1,0.3c3.6,0.5,7.1,0.8,10.7,0.6c6.8-0.5,13.1-2.4,19-5.8c4-2.3,7.5-5.2,10.1-9.2C116,83.4,116.5,78.4,116.3,73.1z
		 M127.8,80.6c-1.8,11.7-5.8,22.3-14.1,30.9c-8.4,8.7-18.9,12.9-30.7,14C109.2,125.6,126.8,104.3,127.8,80.6z M53,84
		c0.1-0.6-0.2-1.1-0.5-1.6c-1.7-2.3-6.1-2.7-8.2-0.7c-1.4,1.4-1.5,3,0,4.4c2,2,5.9,2,7.9,0C52.7,85.6,53.1,84.9,53,84z M23.8,80.5
		c0.3-1.4,0.6-2.7,0.9-4.1c0.1-0.6,0.3-1,0.9-1c0.8-0.1,0.8-0.6,0.8-1.2c0-2.6,0.2-5.2,0.4-7.7c0.1-1.3,0.3-2.6,0.4-3.8
		c0-0.2,0.3-0.8-0.4-0.7c-2.2,0.5-3.9,2.7-3.9,5c0.1,2.7,0.2,5.3,0.4,7.9C23.3,76.7,23.2,78.6,23.8,80.5z M123.7,45.8
		c-0.2,0.3-0.1,0.5,0,0.6c1.7,4,3.2,8.1,4,12.4c0.5,2.7,1.5,4.7,4.3,5.7c2.5,0.8,3.4,2.7,3.2,5.4c-0.2,1.7,0,3.5,0,5.2
		c0,3.4,0,6.8,0.4,10.1c0.3-3.2,0.4-6.4,0.6-9.6c0.1-2.1,0.2-4.1,0.3-6.2c0.2-2.5-0.6-4.4-2.5-5.4c-1.1-0.6-2.3-1.2-3.4-1.8
		c-0.5-0.2-0.8-0.6-0.9-1.1c-0.6-2.6-1.4-5.1-2.3-7.5C126.4,50.8,125.2,48.3,123.7,45.8z M113.7,128.6c0.3,0,0.3,0.1,0.4,0
		c0.2-0.1,0.5-0.2,0.7-0.4c2.9-1.8,5.4-4,7.5-6.7c1.8-2.2,3-4.6,1.7-7.5c-0.1-0.3-0.1-0.6-0.2-0.9c-0.4-1.1-0.3-2.4-1.2-3.8
		c0.2,1.9,0.5,3.6,0.6,5.2c0.1,1.1,0.6,2.2,0.1,3.3c-0.8,1.5-1.8,2.9-2.8,4.2C118.5,124.5,116.2,126.5,113.7,128.6z M91.6,43.1
		c0-0.7-0.8-1.6-1.6-1.5c-1,0-1.4,0.7-1.5,1.5c-0.1,0.8,0.8,1.6,1.6,1.5C91,44.5,91.4,44,91.6,43.1z"/>
	<path d="M50.8,30.9c-4.5,4.2-8.3,8.7-12.3,13.3C39.2,39.9,46.9,31.7,50.8,30.9z"/>
	<path d="M75.9,19.3c-3,1.3-6.1,1.8-9.4,1.7C69.4,19,72.6,18.7,75.9,19.3z"/>
	<path d="M36.2,110.7c2.2,3.3,4.5,6.1,7.3,8.4c-2.7,1.4-2.8,1.8-1.9,4.7c0.7,2.1,1.9,4,3.1,5.9c-0.5-0.4-1-0.8-1.5-1.2
		c-3.2-2.9-5.9-6.3-8.2-9.9c-0.3-0.5-0.4-1-0.3-1.6C35.2,115,35.7,113,36.2,110.7z"/>
</g>
</svg>
