<?xml version="1.0" encoding="UTF-8" ?>
<!DOCTYPE svg PUBLIC "-//W3C//DTD SVG 1.1//EN" "http://www.w3.org/Graphics/SVG/1.1/DTD/svg11.dtd">
<svg width="800pt" height="909pt" viewBox="0 0 800 909" version="1.1" xmlns="http://www.w3.org/2000/svg">
<g id="#e6e6e6ff">
</g>
<g id="#4d4d4dff">
<path opacity="1.00" d=" M 362.30 155.22 C 364.23 151.61 365.60 147.70 367.97 144.34 C 367.82 146.32 367.44 148.29 367.45 150.28 C 369.10 150.90 370.83 151.31 372.53 151.81 C 372.27 153.20 372.02 154.59 371.77 155.98 C 372.36 156.57 373.53 157.74 374.12 158.32 C 372.40 159.89 370.60 161.38 368.69 162.71 C 364.57 165.56 361.43 169.54 358.34 173.43 C 354.56 178.46 350.65 183.59 348.63 189.64 C 352.33 191.35 356.56 192.53 359.14 195.92 C 364.99 203.09 369.38 211.39 372.89 219.92 C 375.12 224.99 374.53 230.84 377.22 235.76 C 378.98 239.73 381.78 243.08 384.78 246.17 C 388.56 250.16 389.71 255.74 392.77 260.18 C 394.83 263.21 398.91 263.39 402.12 262.41 C 412.66 259.28 421.47 252.10 432.06 249.10 C 425.56 255.57 415.88 257.67 409.69 264.47 C 413.21 267.22 417.67 272.77 422.54 269.58 C 428.81 264.97 434.89 259.75 439.39 253.35 C 433.89 246.83 435.68 237.64 437.24 230.00 C 438.57 223.22 442.89 217.40 448.50 213.48 C 455.54 208.43 464.31 205.18 473.06 206.24 C 476.62 206.60 479.69 208.61 482.71 210.39 C 476.75 209.12 470.80 211.44 466.26 215.26 C 464.78 216.13 464.91 217.95 464.60 219.41 C 461.29 222.57 457.38 225.41 452.68 225.90 C 455.60 229.99 458.42 234.89 463.36 236.75 C 468.07 237.23 469.88 231.72 472.92 229.13 C 472.90 232.38 472.96 236.04 470.61 238.61 C 466.77 243.47 458.86 243.70 454.43 239.52 C 451.22 236.80 450.97 231.91 447.61 229.36 C 445.45 228.97 444.58 231.47 443.97 233.05 C 441.89 240.00 445.02 247.74 450.47 252.25 C 453.59 254.85 458.21 255.86 460.14 259.72 C 461.79 263.55 462.02 267.81 463.30 271.77 C 465.43 279.59 469.82 286.73 470.71 294.89 C 471.77 301.40 470.60 308.05 471.71 314.55 C 473.19 321.66 478.39 327.08 481.77 333.30 C 489.75 347.54 495.59 362.87 500.71 378.34 C 506.32 394.85 507.30 412.80 515.48 428.45 C 519.18 435.66 524.32 443.36 532.59 445.62 C 539.35 447.53 545.30 442.79 551.74 441.74 C 554.90 440.89 559.02 441.12 560.87 437.89 C 564.11 432.11 563.34 425.12 562.56 418.82 C 559.91 401.83 552.76 385.80 543.35 371.50 C 534.57 356.29 528.02 339.81 523.35 322.90 C 520.79 314.19 520.48 304.94 517.34 296.38 C 515.89 292.35 513.26 288.92 510.97 285.35 C 520.96 294.76 530.13 306.13 532.73 319.96 C 534.88 329.84 533.60 340.09 535.53 349.99 C 535.87 352.69 538.10 355.38 541.01 355.27 C 543.13 354.65 542.79 352.01 543.63 350.38 C 544.79 346.33 551.13 344.87 553.63 348.45 C 555.41 351.55 554.47 355.33 553.64 358.58 C 550.99 358.43 547.89 356.84 545.50 358.63 C 543.70 360.72 544.30 363.74 544.83 366.20 C 547.17 374.83 552.39 382.27 557.53 389.46 C 565.91 401.38 572.50 414.70 575.79 428.94 C 579.58 445.01 579.65 461.71 578.36 478.09 C 577.67 483.79 576.63 490.12 572.18 494.19 C 567.72 498.18 560.56 500.62 555.28 496.69 C 544.84 489.22 538.43 477.60 528.90 469.13 C 525.98 466.46 522.01 465.34 518.12 465.41 C 513.75 465.43 509.46 464.49 505.37 463.03 C 507.29 470.09 511.60 476.17 513.85 483.11 C 516.61 491.43 516.53 500.31 516.85 508.98 C 516.90 513.84 517.31 519.13 514.50 523.40 C 510.33 529.73 505.26 535.50 499.45 540.38 C 494.12 545.02 487.04 547.04 481.98 552.04 C 470.04 563.15 460.10 576.15 449.54 588.53 C 446.00 593.05 441.60 597.27 440.14 603.02 C 451.18 605.72 459.38 614.16 467.56 621.50 C 472.40 625.44 473.91 631.71 477.55 636.56 C 482.20 643.29 483.45 651.58 487.35 658.67 C 490.67 664.42 494.01 670.56 499.64 674.38 C 500.26 667.09 498.53 659.91 497.22 652.80 C 495.57 645.56 494.46 637.93 490.34 631.58 C 485.27 623.29 486.00 613.12 487.27 603.90 C 488.02 598.77 488.48 593.44 490.95 588.78 C 494.00 594.78 494.25 601.62 495.46 608.12 C 497.48 619.83 500.14 631.42 503.09 642.92 C 505.42 652.81 508.16 662.74 508.51 672.95 C 508.80 678.50 506.45 684.61 501.35 687.31 C 498.13 688.68 495.00 686.28 492.92 684.04 C 481.48 671.29 478.19 653.24 466.08 640.97 C 458.14 632.82 449.07 625.91 440.32 618.68 C 437.36 616.40 434.57 613.67 430.96 612.47 C 427.85 611.86 425.58 614.62 423.68 616.63 C 417.30 624.68 410.72 632.69 405.70 641.68 C 401.74 649.21 401.76 657.99 398.63 665.83 C 390.35 688.12 376.43 707.95 360.23 725.21 C 356.60 729.58 352.53 733.84 350.24 739.11 C 348.96 741.87 350.47 746.68 346.61 747.52 C 340.06 749.66 335.56 755.16 330.82 759.84 C 322.67 768.63 314.98 778.41 304.14 784.04 C 301.41 785.28 297.92 786.72 295.11 784.96 C 291.10 782.02 294.39 775.51 290.32 772.64 C 286.87 771.69 283.86 775.16 282.75 778.08 C 283.90 781.63 286.13 784.74 287.02 788.41 C 283.96 789.66 280.65 789.92 277.42 790.46 C 276.65 794.39 277.03 798.90 274.10 802.04 C 264.88 812.40 252.39 819.26 243.15 829.58 C 253.34 829.38 262.35 824.09 270.36 818.27 C 280.67 811.93 291.36 805.78 302.98 802.22 C 308.98 801.63 313.40 797.38 318.38 794.52 C 319.08 796.27 320.33 798.23 319.12 800.08 C 316.07 805.33 310.58 808.47 305.57 811.59 C 294.28 818.00 282.04 822.82 271.57 830.63 C 262.13 838.19 251.80 844.58 241.17 850.32 C 237.00 852.36 232.73 854.77 227.97 854.95 C 223.51 855.34 219.64 850.14 221.33 846.00 C 222.70 842.19 225.41 839.07 227.97 836.01 C 233.92 828.98 240.86 822.83 246.36 815.43 C 251.07 809.21 254.97 802.43 258.40 795.43 C 262.88 786.18 268.02 777.26 273.49 768.56 C 277.45 762.21 282.14 756.34 285.85 749.83 C 291.00 740.92 295.78 731.76 299.40 722.11 C 300.59 719.14 300.72 715.91 300.85 712.76 C 303.87 711.78 306.88 710.43 308.76 707.74 C 317.51 696.73 324.25 684.29 330.97 671.98 C 339.02 656.47 346.97 640.78 352.42 624.13 C 355.25 613.21 359.54 602.70 364.82 592.75 C 367.10 588.23 370.40 584.07 371.29 579.00 C 371.57 575.74 368.82 573.45 366.54 571.62 C 349.27 559.68 328.82 551.55 315.21 534.92 C 310.71 529.33 306.92 522.47 307.45 515.07 C 307.91 507.79 312.82 501.67 318.51 497.51 C 326.84 491.08 337.14 488.22 347.02 485.12 C 362.49 480.56 378.08 476.19 394.05 473.84 C 396.28 473.48 398.41 472.75 400.53 472.01 C 397.86 465.88 391.87 462.27 387.19 457.81 C 375.27 447.15 362.44 436.90 353.77 423.26 C 345.80 410.65 346.85 395.22 346.63 380.95 C 346.18 375.12 346.85 368.58 343.18 363.61 C 337.24 363.04 332.44 359.33 327.26 356.79 C 324.13 354.91 321.17 358.22 317.96 357.89 C 310.23 357.26 302.38 354.62 296.55 349.36 C 294.06 347.23 290.33 346.27 289.14 342.91 C 287.07 338.16 287.15 331.82 282.00 329.05 C 276.39 326.11 271.97 321.19 269.89 315.18 C 266.17 305.02 266.70 293.34 271.45 283.60 C 273.24 279.81 276.15 276.74 278.67 273.44 C 270.36 275.83 262.54 280.30 256.73 286.76 C 254.06 289.71 253.27 293.77 250.99 296.98 C 247.59 291.15 248.47 284.05 249.77 277.75 C 253.58 262.50 264.50 249.83 277.45 241.34 C 285.67 236.01 295.09 232.26 304.90 231.39 C 310.15 230.84 315.39 231.95 320.65 231.57 C 320.04 226.54 317.08 222.31 315.56 217.58 C 314.22 213.00 317.35 208.84 318.17 204.47 C 320.04 197.65 318.03 190.31 320.68 183.66 C 324.62 173.09 331.66 163.27 341.59 157.61 C 346.66 154.63 351.61 151.32 357.23 149.46 C 358.97 151.33 360.62 153.29 362.30 155.22 M 344.70 161.93 C 346.54 163.36 348.77 162.76 350.83 162.29 C 350.63 161.72 350.23 160.57 350.03 160.00 C 349.39 159.63 348.12 158.89 347.49 158.52 C 346.44 159.55 345.37 160.60 344.70 161.93 M 329.26 182.91 C 331.00 185.91 331.72 189.28 332.48 192.63 C 332.92 194.38 334.96 194.42 336.37 194.88 C 336.27 191.71 336.59 188.16 334.72 185.40 C 333.53 183.57 331.13 183.53 329.26 182.91 M 348.41 199.58 C 345.62 200.50 343.66 203.02 342.75 205.73 C 340.46 212.39 344.73 220.11 350.85 222.94 C 356.92 220.16 359.29 212.34 358.53 206.09 C 358.15 201.37 352.81 198.10 348.41 199.58 M 293.05 248.04 C 288.47 252.71 285.94 258.83 282.92 264.53 C 292.20 263.15 301.49 260.24 310.95 261.45 C 317.88 262.52 322.25 268.66 325.86 274.09 C 329.09 279.16 333.16 284.68 332.09 291.05 C 330.66 298.66 325.97 305.06 323.11 312.13 C 322.67 313.41 322.03 314.89 322.66 316.22 C 327.90 320.80 336.38 322.55 342.36 318.35 C 348.53 314.15 350.67 306.14 350.36 299.03 C 349.90 291.46 347.47 284.18 345.03 277.04 C 341.07 266.21 336.53 255.48 330.16 245.82 C 327.29 241.24 322.44 237.82 316.95 237.49 C 307.84 236.79 299.17 241.59 293.05 248.04 M 438.17 263.25 C 436.63 264.16 437.22 266.21 436.80 267.64 C 438.47 266.60 439.82 265.18 441.05 263.67 C 440.33 263.57 438.89 263.36 438.17 263.25 M 438.92 269.76 C 433.36 271.55 427.17 272.00 422.41 275.72 C 424.01 285.37 423.97 295.21 425.62 304.85 C 426.65 312.84 429.53 320.84 427.90 328.95 C 429.06 332.71 431.02 336.18 433.90 338.90 C 434.89 337.28 435.77 335.53 437.25 334.29 C 443.57 328.85 451.45 325.80 458.35 321.24 C 460.86 319.67 462.67 317.08 463.12 314.13 C 465.13 303.65 465.98 292.01 460.49 282.39 C 456.26 275.05 450.73 268.45 444.49 262.75 C 443.11 265.39 442.18 268.89 438.92 269.76 M 389.53 295.48 C 388.23 297.39 387.22 299.74 387.99 302.07 C 389.82 309.50 393.67 316.35 394.77 323.97 C 395.05 325.41 394.44 326.82 393.18 327.56 C 390.43 325.83 389.93 322.36 387.86 320.08 C 385.38 318.15 381.87 320.18 380.69 322.65 C 379.68 325.63 379.83 328.86 379.85 331.97 C 380.29 343.06 381.68 354.12 384.14 364.94 C 385.71 372.55 390.62 379.10 391.06 387.02 C 391.38 393.26 399.40 394.38 400.74 399.99 C 400.09 404.31 395.27 406.08 393.75 409.93 C 393.20 412.53 394.54 415.01 395.88 417.14 C 401.62 425.86 409.80 432.62 415.79 441.14 C 417.05 442.63 416.97 444.58 416.86 446.42 C 423.88 452.12 433.44 451.45 441.93 451.40 C 437.91 454.27 433.15 456.26 429.89 460.06 C 431.47 463.61 434.99 465.81 436.71 469.28 C 439.67 474.90 439.11 481.63 437.43 487.55 C 434.37 498.57 427.04 507.52 421.05 517.02 C 413.05 530.96 406.02 545.63 401.68 561.15 C 399.84 566.44 401.23 572.78 405.91 576.12 C 408.39 578.28 411.61 576.17 414.15 575.19 C 421.62 571.38 429.18 567.71 436.39 563.40 C 445.35 557.90 451.67 549.30 458.78 541.76 C 464.34 535.91 470.52 530.50 477.69 526.69 C 487.44 521.59 496.47 515.03 504.09 507.08 C 506.47 504.69 507.68 501.38 507.76 498.05 C 508.27 484.86 508.28 470.27 499.69 459.37 C 495.71 453.73 489.85 449.83 485.53 444.49 C 483.34 442.17 484.38 438.82 484.01 435.97 C 483.44 430.69 480.00 426.41 477.77 421.76 C 480.72 424.63 483.12 428.01 486.10 430.88 C 485.02 424.48 481.45 418.55 481.56 411.99 C 484.77 403.13 495.82 398.95 497.14 389.06 C 497.19 380.35 492.53 372.56 489.32 364.71 C 486.46 358.75 483.50 350.83 476.01 349.78 C 464.91 348.42 453.86 353.27 442.78 350.80 C 446.64 361.29 452.31 370.99 456.72 381.25 C 461.73 392.50 467.24 403.58 471.14 415.28 C 469.41 415.01 467.20 415.69 465.99 414.07 C 461.99 409.53 460.00 403.64 458.14 397.98 C 455.72 390.01 450.93 383.09 447.52 375.55 C 442.07 364.61 437.96 353.01 431.49 342.60 C 428.56 337.99 425.83 332.93 421.13 329.88 C 421.28 333.19 422.14 336.39 422.94 339.59 C 419.46 336.89 416.11 333.72 414.62 329.47 C 413.13 325.14 412.18 320.64 411.24 316.17 C 417.02 319.43 420.77 325.22 426.50 328.56 C 426.39 324.27 425.31 320.11 424.18 316.01 C 422.82 309.63 419.07 302.67 411.99 301.60 C 408.93 301.16 407.65 304.62 407.52 307.08 C 406.76 314.07 408.17 321.05 408.45 328.03 C 405.82 316.62 403.26 305.17 401.70 293.55 C 401.32 290.59 400.59 287.67 399.16 285.04 C 395.09 287.61 392.25 291.59 389.53 295.48 M 337.11 338.98 C 339.85 340.64 342.59 342.81 345.93 342.92 C 347.94 342.63 348.89 340.52 349.82 338.96 C 351.99 334.39 354.44 329.71 354.58 324.53 C 347.81 327.95 341.86 333.10 337.11 338.98 M 447.13 331.56 C 448.04 332.99 448.98 334.41 449.95 335.81 C 450.88 334.43 451.81 333.05 452.70 331.64 C 450.84 331.50 448.98 331.47 447.13 331.56 M 489.63 437.69 C 491.18 441.78 492.62 445.97 494.92 449.73 C 497.35 444.89 492.72 440.80 489.63 437.69 M 388.42 477.56 C 376.74 479.84 365.44 483.73 354.64 488.69 C 349.30 491.28 343.13 491.20 337.82 493.87 C 331.27 496.95 325.09 500.84 319.53 505.47 C 317.52 507.31 315.14 509.22 314.64 512.07 C 317.86 514.54 321.96 515.31 325.84 516.14 C 333.45 517.59 341.20 518.51 348.96 518.42 C 354.36 518.37 359.62 516.82 365.02 516.68 C 371.14 516.35 377.00 518.43 383.02 519.11 C 389.02 519.83 395.05 520.84 401.12 520.61 C 404.14 520.56 406.32 518.21 408.04 515.99 C 410.72 512.31 413.65 508.74 415.69 504.65 C 417.54 501.09 415.54 497.21 414.21 493.86 C 411.74 488.56 409.75 482.72 405.42 478.60 C 400.53 474.86 393.94 476.64 388.42 477.56 M 358.19 534.57 C 365.36 541.93 374.44 547.01 382.54 553.26 C 385.32 548.63 388.37 544.07 389.83 538.81 C 382.12 536.14 374.02 534.84 365.96 533.86 C 363.34 533.43 360.70 533.81 358.19 534.57 M 377.52 627.45 C 373.94 630.92 368.41 626.57 364.51 629.50 C 359.83 632.85 358.24 638.78 356.77 644.05 C 353.99 655.59 352.70 667.42 351.12 679.17 C 350.92 681.90 350.08 685.32 352.35 687.44 C 355.49 689.41 359.32 687.82 362.40 686.52 C 371.48 682.17 379.17 675.28 385.43 667.47 C 393.42 657.56 397.04 644.30 395.33 631.71 C 394.92 628.21 392.84 625.27 391.64 622.04 C 391.67 615.55 396.03 610.03 396.27 603.54 C 388.56 610.25 384.75 620.29 377.52 627.45 M 313.76 716.67 C 321.23 721.10 327.90 727.26 336.35 729.77 C 336.94 726.35 337.05 722.32 334.12 719.89 C 328.72 714.54 320.56 716.16 313.76 716.67 Z" />
<path opacity="1.00" d=" M 484.58 213.29 C 488.75 216.89 491.79 221.54 494.93 226.01 C 498.28 230.92 501.44 236.19 502.46 242.13 C 503.83 250.02 502.68 258.07 503.55 266.00 C 503.83 270.61 505.27 275.00 506.59 279.39 C 503.72 276.92 501.03 274.14 499.33 270.71 C 495.47 263.25 493.13 255.09 491.42 246.90 C 489.70 239.02 489.86 230.87 488.08 223.00 C 487.36 219.61 485.64 216.56 484.58 213.29 Z" />
<path opacity="1.00" d=" M 539.13 337.02 C 539.09 333.53 541.69 330.87 544.04 328.64 C 546.09 331.42 546.49 335.95 550.49 336.69 C 549.21 338.59 548.26 341.09 545.92 341.91 C 542.78 343.03 539.02 340.37 539.13 337.02 Z" />
<path opacity="1.00" d=" M 527.61 418.56 C 529.30 415.89 532.33 414.65 535.02 413.25 C 532.27 417.22 530.72 422.12 531.64 426.95 C 531.70 428.58 533.16 430.32 534.89 429.27 C 539.38 427.43 542.67 423.64 546.92 421.35 C 548.32 428.64 542.05 434.59 535.58 436.44 C 533.32 437.09 530.21 437.57 528.65 435.36 C 525.38 430.55 524.29 423.62 527.61 418.56 Z" />
<path opacity="1.00" d=" M 461.88 585.95 C 464.53 582.52 468.17 580.01 471.91 577.88 C 469.59 582.52 466.61 587.22 461.97 589.83 C 460.14 588.98 460.93 587.06 461.88 585.95 Z" />
</g>
</svg>
