<?xml version="1.0" encoding="utf-8"?>
<!-- Generator: Adobe Illustrator 22.0.1, SVG Export Plug-In . SVG Version: 6.00 Build 0)  -->
<svg version="1.1" id="Layer_1" xmlns="http://www.w3.org/2000/svg" xmlns:xlink="http://www.w3.org/1999/xlink" x="0px" y="0px"
	 viewBox="0 0 285 307.5" style="enable-background:new 0 0 285 307.5;" xml:space="preserve">
<g>
	<path d="M272,171.3c-7.7-2.4-15.6-4-23.6-5c-0.4,0-0.8-0.2-1.2-0.3c-0.1-0.2-0.2-0.5-0.2-0.7c2.3-0.1,4.6,0.4,6.9,0.7
		c6.1,1,12.2,2.4,18.1,4.3C272,170.7,272,171,272,171.3z"/>
	<path d="M249.5,167.9c0.2-0.4,0.6-0.3,0.8-0.2c6.8,1,13.4,2.4,19.9,4.7c0.6,0.2,1.2,0.4,1.8,0.5c0,0.3,0,0.6,0,1
		c-2.3-0.7-4.6-1.4-6.9-2.1c-4.6-1.3-9.2-2.3-13.9-2.9c-0.5-0.1-0.9-0.1-1.2-0.5C249.8,168.3,249.6,168.1,249.5,167.9z"/>
	<path d="M152,245.9c0.1-1,0.1-2-0.2-3c-0.4-1.3,0.2-2.6,0.4-3.8c0.8-3.6,0.7-7.2,0.2-10.8c-0.3-2.2-0.5-4.4-0.5-6.7
		c0-0.9-0.3-1.2-1-1.4c-4.4-1.4-8.6-3.5-12.5-6c-4.7-3.1-8.9-6.7-12.9-10.6c-0.2-0.2-0.5-0.5-0.9-0.8c-0.1,1.7,0.2,3.1,1.3,4.2
		c0.5,0.5,0.7,1.1,0.4,1.6c-1.5,2.7-0.3,5.4,0.3,8c0.4,1.8,1.2,3.6,1.5,5.4c-0.6-0.5-1.4-0.9-1.9-1.7c-0.3-1.7-0.9-3.4-1.1-5.1
		c-0.3-2.3-1.2-4.5,0-6.8c0.2-0.5,0-0.9-0.4-1c-1.5-0.3-1.3-1.5-1.4-2.5c-0.1-1.2-0.1-2.5-0.4-3.7c-0.2-0.6-0.3-0.8-1-0.4
		c-1.1,0.7-2.2,1.3-3.4,1.7c-2.7,0.9-5.4,2-8.1,2.9c-2.6,0.9-5.3,1.3-8,1.6c12.9-3.5,18.2-5.5,19.3-7.4c-0.4-0.1-0.8,0-1.2,0.1
		c-3.4,1.3-6.9,2.1-10.4,2.7c-3.5,0.7-7,1.5-10.6,1.3c-0.8,0-1.5-0.3-2.2-0.3c-0.7,0-1.4,0-2-0.4c3.5,0.1,6.9,0.2,10.3-0.7
		c-4.2,0.5-8.4,0.1-12.6-1.3c0.7,1.5,1.1,2.8,1.4,4.1c0.8,3.6,2.5,7,3.9,10.4c0.4,1,0.7,2,0.7,3c-0.1,2,0.2,2.6,2.3,2.9
		c3.1,0.4,6-0.3,9-1.1c1.8-0.5,3.7-1.1,5.6-1.4c-5.2,2-10.4,4.1-16.4,2.9c2.8,5.8,8.1,6.8,13.6,7.5c-2.3,0.3-4.5,0.2-6.7-0.4
		c0.7,0.5,1.4,1,2.3,1.7c-2.3-0.3-3.3-2.3-5.3-3.4c1.3,2.4,3.2,3.8,4.5,5.8c-2.1-0.9-3.4-2.8-5-4.4c0,0.7,0.3,1.2,0.5,1.6
		c0.8,1.6,1.8,3.2,2.3,4.8c0.4,1.3,1.3,2,2.4,2.3c0.8,0.3,1.7,0.4,2.6,0.5c2.4,0.4,4.8,0.2,7.2,0c-3.8,1.1-7.5,1.2-11.3-0.5
		c0.7,2.3,1.9,4,3.3,5.7c0.5,0.7,1.3,1.5,1.2,2.1c-0.2,1.3,0.4,1.7,1.5,1.9c0.2,0,0.4,0.2,0.6,0.4c1.9,1.9,4.3,3,6.7,4
		c1.1,0.5,2.4,0.7,3.4,1.6c-2.8-0.1-5.2-1.4-7.7-2.4c0.3,0.8,0.8,1.5,1.2,2.2c0.3,0.5,0.9,0.9,0.6,1.5c-0.4,0.9,0.1,1.2,0.8,1.3
		c3.3,0.8,6.6,1.5,10.1,0.9c0.5-0.1,1.1-0.4,1.9,0c-1.3,0.9-2.6,1-3.9,1.3c0.4,0.4,1,0.2,1.4,0.8c-0.8,0.2-1.4,0.1-2.1,0
		c-1.5-0.3-2.7-1.1-4.2-1.2c-0.2,0-0.5-0.2-0.7,0c-0.2,0.3,0,0.5,0.1,0.8c0.9,1.5,1.9,3.1,3.2,4.3c1.3,1.2,2.7,1.8,4.6,1.3
		c1.8-0.5,3.5-1.2,5.2-2.1c0.7-0.4,1.3-1.1,2.2-1.2c-0.2,0.7-0.9,0.9-1.2,1.5c-2.9,2-5.9,3.8-9.7,2.9c0.2,0.5,0.6,0.5,1,0.6
		c1.2,0.3,2.4,0.2,3.6-0.1c0.5-0.1,1-0.6,1.6-0.1c-0.3,0.4-0.6,0.8-1,1.2c-0.4,0.2-0.8,0.3-0.9,0.8c-0.1,0.1-0.2,0.2-0.3,0.3
		c-1-0.7-2.1-0.4-3.2-0.8c-1.7-0.5-1.9-0.8-1.9-2.6c0-0.4-0.2-0.5-0.4-0.6c-1.6-1.5-2.8-3.3-3.6-5.3c-0.2-0.4-0.3-0.6-0.7-0.7
		c-0.8-0.1-1.4-0.7-2-1c-0.8-0.4-1.2-0.9-0.9-1.8c0.1-0.4,0-0.6-0.2-1c-0.5-0.6-0.9-1.2-1.2-1.9c-0.8-1.6-1.5-3.3-3.5-3.9
		c-0.8-0.2-1.1-1-1.2-1.9c0-0.9-0.3-1.8-1.1-2.4c-1.4-1.4-2.5-3-3.2-4.9c-0.3-0.7-0.6-1-1.4-0.8c-2.1,0.4-3.9-0.1-5.2-2.1
		c-0.6-1-1.3-1.9-1.9-2.9c-0.5-0.7-0.8-1.5-1.6-1.9c-0.7-0.4-1-1.1-1.1-1.8c-0.2-1.9-1.1-3.5-1.5-5.3c-0.8-3.9,0.1-7.4,3.1-10.2
		c0.4-0.3,0.2-0.5,0.1-0.8c-0.9-2.2-1.9-4.4-2.2-6.7c-0.3-2.2-1.3-4.2-2.2-6.1c-2.3-5-2.8-10.3-3.5-15.6c-0.5-3.6-1.2-7.2-0.9-10.8
		c0-0.3-0.1-0.6-0.4-0.8c-1.1-0.8-1.4-2-0.6-3c1.4-1.8,0.7-3.7,0.6-5.6c0-0.8-0.3-1.6-0.3-2.4c0-0.9,0-1.7-1.1-2.1
		c-0.4-0.1-0.4-0.6-0.5-0.9c-0.1-0.7-0.2-1.5-0.3-2.4c-1.4,0.9-2.7,2-4.1,2.9c-3.2,2.1-6.7,3.4-10.3,4.5c-0.3,0.1-0.5,0-0.7-0.1
		c-0.2-0.2-0.4-0.5-0.7-0.7c0.1-0.2,0.4-0.3,0.6-0.3c4.1-1,7.9-2.6,11.3-5c1.3-0.9,2.6-1.8,3.6-3c-1.4-1.1-2.2-0.4-3.1,0.7
		c-0.6,0.7-1.3,1.3-2.1,1.8c-3.4,2.4-7.2,3.4-11.2,4.2c-0.4,0.1-0.8,0-1.1-0.2c-0.2-0.2-0.3-0.3-0.5-0.5c0.2-0.6,0.7-0.4,1.1-0.5
		c6-0.9,11.3-3.1,15.2-8.1c0.5-0.6,0.4-0.9-0.1-1.3c-6.1-6.1-12.9-11.2-20.4-15.6c-1.5-0.9-2.6-1-3.9,0.2c-0.4,0.3-0.9,0.5-1.3,0.8
		c-0.3,0.2-0.7,0.3-0.8,0.7c-0.4,1.5-1.6,2.3-2.9,2.9c-0.3,0.1-0.6,0.1-0.6,0.6c0.2,2.5-1.3,4.2-2.9,5.7c-1.3,1.2-1.4,1.3-0.2,2.6
		c0.3,0.4,0.7,0.6,1.1,0.9c1.1,0.7,1.7,1.8,1.5,3.1c-0.3,1.9-0.2,3.8-0.2,5.7c0,1.3,0.4,1.5,1.5,1.7c2.1,0.4,4.3,0.5,6.5,0.9
		c-0.2,0.2-0.5,0.5-0.7,0.7c-0.4,0.3-0.8,0.2-1.3,0.2c-1.4-0.1-2.7-0.5-4.1-0.4c0,0.4,0.3,0.6,0.4,0.9c0.5,1.1,1.7,1.1,2.6,1.7
		c-0.2,0.2-0.5,0.5-0.7,0.7c-1.7,0.2-3.2-0.4-4.8-0.7c-0.7-0.1-1.2,0-1.7,0.5c-1.2,1.2-2.2,2.6-3.8,3.2c-0.8,0.3-1.6,0.5-2.4,0.1
		c-0.3-0.2-0.6-0.1-0.9,0c-0.3,0.2-0.6,0.3-1,0.5c-1.7,0.8-2.5,0.7-3.8-0.5c-0.4-0.4-0.7-0.6-1.3-0.3c-1.8,1-3,0.7-4.2-1
		c-0.4-0.5-0.7-0.9-1.4-1.1c-1.7-0.5-2.7-1.9-3.4-3.5c-0.1-0.3-0.3-0.7-0.3-1c-0.2-2.8-1.2-5.6-1.3-8.4c0-0.8-0.6-0.9-1-1.2
		c-4.7-3.1-9-6.6-12.3-11.2c-1.6-2.2-2.9-4.6-2.8-7.5c0.1-3.3,2-5.5,4.7-7c3.2-1.8,6.7-2.6,10.3-3.1c5.1-0.8,10.1-0.6,15.2,0.3
		c0.7,0.1,1,0,1.3-0.7c1.6-3.7,3.6-7.3,6.3-10.4c0.4-0.5,0.7-1,0.7-1.7c0-1.3,0.9-2.3,2.2-2.5c0.7-0.1,1.2-0.5,1.7-0.9
		c0.7-0.7,1.5-1.2,2.4-1.5c1-0.3,1.1-0.8,0.5-1.5c-1.5-1.6-1.8-3.3-0.7-5.3c1.7-3.1,3.4-6.3,5.8-9c1.1-1.2,2.3-2.1,3.5-3.2
		c0.3-0.3,0.8-0.5,1.2-0.4c0.9,0.5,1.1,0,1.5-0.8c1.2-2.1,2.6-4,3.3-6.4c0.4-1.4,1.5-2.5,2.7-3.5c0.5-0.4,0.4-0.8,0.3-1.3
		c-0.1-3.6,0.4-7,2.1-10.2c1.9-3.4,5.7-5.5,9.3-5.2c2.3,0.2,4,1.5,5.1,3.5c0.4,0.8,0.8,1.6,1.3,2.6c1-1.3,2.4-1.7,3.9-2.1
		c-0.8-1-1.8-1.7-2.4-2.8c-0.3-0.6-0.3-1.1,0-1.8c0.5-1,1.1-2.1,0.9-3.3c-0.2-2.6-1.8-4.1-4.6-4.5c-2.3-0.4-2.3-0.4-2.6-2.7
		c-0.4-3.1-0.5-6.2,0-9.3c0.2-1.5,0.4-2.7,2.3-2.9c2.4-0.2,3.6-1.6,4.6-3.9c1.7-4.1,5.1-6.9,8.9-9c4.9-2.6,10.1-4,15.7-3.7
		c2.7,0.2,5.4,0.1,8.1,0.7c5.8,1.5,10.4,4.6,13.6,9.6c0.9,1.5,2.1,2.1,3.7,2.1c0.1,0,0.2,0,0.4,0c2.7,0,3.3,0.4,4,3
		c0.9,3.7,1.1,7.3,0,11c-0.1,0.4-0.2,0.6,0,1c2.6,4.4,3.7,9.2,3.8,14.3c0,1.1,0.3,1.8,1.5,1.9c0.5,0.1,1.1,0.4,1.3,0.8
		c0.4,1,1.1,0.8,1.9,0.8c4,0.1,7.5,1.8,10.3,4.6c0.4,0.4,0.6,0.9,0.5,1.4c-0.2,0.9,0.3,1.5,1,2c0.4,0.3,0.8,0.6,1.1,1.1
		c0.5,0.7,1.1,1.1,1.9,1.2c0.8,0.1,1.3,0.7,1.7,1.4c0.2,0.4,0.4,0.8,0.9,0.8c3,0.4,4.4,2.6,5.8,4.8c0.1,0.2,0.2,0.3,0.5,0.4
		c-0.3-2.7,1.2-5.3-0.1-7.9c-0.6-1.2,0-2.5,1.2-3c1-0.5,0.8-0.8,0.2-1.4c-1.3-1.3-2.3-2.7-2.8-4.5c-0.3-1.3-1.1-2.5-2.1-3.5
		c-0.6-0.6-1.3-1.1-2.3-1.1c-1,0.1-1.7-0.7-1.7-1.7c-0.1-1.6,1.4-3.2,3-3.3c2.5-0.1,4.7,0.8,6.6,2.3c0.9-3.3,1.2-6.7,1.4-10.2
		c0.1-2.4,0.5-4.8,1.6-7.1c0.5-1,1.1-1.8,2-2.5c1.2-1,2.4-0.6,2.7,1c0.2,1.3,0.2,2.6-0.1,3.8c-0.8,3-0.5,6.1-0.9,9.2
		c0,0.2-0.1,0.5,0.2,0.6c0.3,0.1,0.5-0.1,0.6-0.3c0.6-0.7,1-1.5,1.2-2.4c0.6-2.8,1-5.7,2-8.5c0.4-1.1,0.9-2.1,1.4-3.2
		c0.3-0.7,0.7-1.2,1.6-1.2c0.9,0.1,1.6,0.4,2.1,1.2c0.5,0.9,0.5,1.9,0.3,2.9c-0.6,3.1-1.7,6.1-2.2,9.2c-0.1,0.4-0.1,0.8,0,1.3
		c0.4-0.9,0.7-1.7,1.1-2.6c1-2.3,1.6-4.9,2.9-7.1c0.3-0.5,0.7-1.1,1.1-1.6c0.6-0.6,1.2-0.8,2.1-0.5c0.8,0.3,1.2,0.8,1.4,1.7
		c0.2,1.7-0.4,3.2-1,4.6c-0.8,2.1-1.7,4.2-2.6,6.3c-0.2,0.4-0.4,0.9-0.3,1.5c1-0.8,1.5-1.8,2.2-2.8c0.9-1.2,1.8-2.4,3-3.4
		c0.8-0.7,1.6-0.7,2.4-0.3c0.8,0.4,1.1,1.1,1,2c-0.2,2-1.1,3.6-2.3,5.2c-0.9,1.1-1.8,2.2-2.7,3.2c-0.8,0.8-1.6,1.6-1.3,3
		c0.1,0.3,0,0.7-0.2,1c-1.2,2.3-0.6,4.9-1.3,7.2c-0.1,0.3-0.2,0.7-0.4,0.9c-1,0.9-0.9,1.9-0.3,3c0.3,0.5,0.6,0.8,1.2,1
		c1.2,0.3,1.8,0.8,2,2.3c0.5,4.7,0.4,9.4,0.4,14.1c0,1.5-0.2,3-0.6,4.5c-0.3,1.1-1.3,1.5-2.3,1.5c-0.8,0-1,0.2-0.9,1
		c0.1,2,0.1,3.9,0,5.9c0,0.6-0.1,1.3-0.5,1.7c-0.7,0.7-0.8,1.5-0.8,2.4c-0.2,4.1-2.2,7.2-5.6,9.4c-1,0.7-1.9,1.7-3,2.1
		c-2.8,1-5.5,0.8-8.1-0.7c-2.2-1.2-4.2-2.7-6.4-3.9c-0.9-0.5-1.8-1.1-2.3-1.9c-1-1.7-2.5-2.6-4.2-3.4c-1.4-0.7-2.6-1.7-3.6-2.9
		c-0.7-1-1.7-0.2-2.5-0.3c-0.5,0-0.3,0.8-0.2,1.2c0.1,2.4,0.3,4.9,0.8,7.3c0.2,1.2,0.1,2.2-0.6,3.2c-0.6,0.9-0.8,1.9,0.1,2.8
		c0.4,0.4,0.4,0.9,0.3,1.5c-0.5,4.3-0.8,8.7-0.8,13c0,1.3-0.1,2.5-1.2,3.3c-0.6,0.5-0.1,0.7,0.2,1c1.1,1.1,2.3,2.1,2.8,3.6
		c-0.2,0.2-0.3,0.3-0.5,0.5c-0.7-0.1-0.8-0.7-1.1-1.2c-1.8-2.8-3.7-3.8-6.3-3.1c-1.1,0.3-2.1,0.7-3.2,1.1c-0.8,0.3-0.9,0.7-0.4,1.3
		c1.4,1.6,2.4,3.6,3.5,5.4c0.6,1.1,0.8,1.1,1.8,0.3c1-0.8,1.9-1.8,3-2.4c0.4-0.2,1-0.4,1.2,0c0.2,0.5-0.3,0.7-0.8,0.8
		c-0.6,0.1-0.9,0.4-0.8,1c-0.1,0.1-0.2,0.2-0.3,0.3c-1.2,0.3-1.8,1.3-2.3,2.3c-0.1,0.1-0.2,0.2-0.2,0.3c-1.6-0.8-3-0.4-4.6,0.3
		c-1.5,0.7-2.7,2-4.3,2.6c-1.5,0.6-2.4,1.5-3,2.9c-0.6,1.1-1.4,2.1-2.9,1.9c-0.4,0-1.6,1.7-1.4,2.1c0.1,0.3,0.4,0.2,0.6,0.1
		c0.9-0.2,1.5-0.8,2.1-1.4c1.5-1.4,3.1-2.7,5-3.4c0.2,0.2,0.3,0.3,0.5,0.5c-0.1,0.1-0.1,0.3-0.3,0.4c-1.8,1-3.5,2.2-5,3.7
		c-0.6,0.6-1.3,1.2-2.1,1.1c-1.8-0.1-2,1.1-2.3,2.3c-0.3,1-0.5,2-0.7,3c-0.3,1.7-0.8,3.4-0.6,5.1c0.6-1.5,0.7-3.1,2-4.3
		c-0.5,2.1-0.9,4.3-1.2,6.5c-0.5,3.3,0.3,6.1,2.8,8.4c0.8-7,2-10.7,4.2-12.4c-6.1,10.7-2.5,17.5,1.7,22.9c-0.1-1.4-0.7-2.7-0.8-4.1
		c-0.2-2.2,1-3.9,2.5-5.5c1.5-1.6,3.5-2.7,5.3-3.8c2.9-1.8,6-3.4,9.3-4.3c1.3-0.4,2.6-0.9,4-0.3c0.2,0.2,0.5,0.5,0.7,0.7
		c-0.2,0.3-0.6,0.2-0.9,0.2c-1.6,0.1-3.2,0.4-4.7,0.9c-3.2,1-6,2.7-8.9,4.4c-2.1,1.3-4.2,2.6-5.7,4.7c-0.6,0.9-1,1.9-0.5,3.1
		c0.9-1.8,2.2-3.1,3.6-4.4c-0.5,0.8-1.2,1.4-1.7,2.2c-1.2,1.8-2.6,3.6-1.1,6c0.1,0.2,0.1,0.4,0.2,0.6c0.4,1.6,0.4,1.6,2.1,1.2
		c2.6-0.6,5.2-1.2,7.9-1.3c-2.8,1-5.7,2-8.4,3.1c0.1,0.5,0.8,0.5,0.8,1.1c-0.5,0.1-1-0.1-1.5-0.3c-0.5-0.2-0.6,0-0.8,0.4
		c-0.5,1.4-0.2,2.5,0.9,3.6c1.1,1,2.3,2,4.2,2.3c-1.3,0.5-2,0.1-2.8-0.1c-0.6-0.2-1-0.2-1,0.7c-0.1,2.9,0.3,5.7,1.1,8.5
		c0.3,1.2,1,1.5,1.9,1.8c3.9,1.2,7.9,1,11.9,0.8c2.2-0.1,4.4-0.6,6.6-0.8c-0.1,0.2-0.3,0.3-0.5,0.3c-0.3,0.1-0.5,0.2-0.8,0.3
		c-6.2,1.5-12.3,1.6-18.4-0.3c-0.3-0.1-0.6-0.3-0.8,0.1c-0.6,1-0.2,4,0.6,4.9c-0.3,1,0.1,1.5,1,2c2.8,1.3,5.6,2.2,8.7,2.1
		c0.7,0,1.5,0.1,2.2,0.2c-3.8,0.4-7.6,0.4-11.1-1.5c-0.7-0.4-0.7-0.1-0.7,0.5c0,1,0.1,2,0.2,3c0.3,2.1,0.3,2,2.3,2.6
		c1.2,0.3,2.5,0.3,3.6,1c-1.9,0-3.7-0.3-5.5-1c0.2,1.6,0.5,3.2,0.4,4.7c-0.1,1.6,0.7,2.3,2,3c1.5,0.8,3.2,0.8,4.8,1.4l0,0
		c-0.3,0.3-0.7,0.2-1.1,0.2c-2-0.2-3.8-0.9-5.5-2c-0.2,2.6-0.6,5-1,7.4c-0.2,0.8,0.3,1.1,0.9,1.3c2.4,0.8,4.8,0.8,7.2,0.7
		c2.4-0.1,4.8-0.3,7.2-1c-4.9,2.1-10,2.4-15.1,0.7c-0.3,1.1,0.2,1.6,0.9,2c3,1.6,6.1,2.8,9.4,3.2c2.5,0.3,5,0.5,7.4-0.5
		c0,0.4-0.1,0.5-0.2,0.5c-3.9,1.4-7.8,2.2-12,1.6c-1.3-0.2-2.6-0.2-3.6-1.1c0-0.1,0-0.1,0-0.2c3,0.7,6,0.8,9.3,0.6
		c-0.5-0.5-0.8-0.3-1.1-0.4c-3.3-0.3-6.3-1.3-9.2-2.9c-0.8-0.5-1.2-0.7-1.6,0.3C152.4,246.3,152.2,246.1,152,245.9z M137.2,141.8
		L137.2,141.8c0-0.4,0.4-0.5,0.6-0.6c2.7-1.4,5.3-2.9,8.1-4.2c1.4-0.7,2.3-1.5,2.7-3c0.2-0.9-0.1-1.2-0.9-1c-0.8,0.2-1.5,0.6-2.1,1
		c-0.6,0.4-1.1,1.1-2.1,1.3c0.8-1.7,2.8-2.6,2.9-4.3c0.2-1.7-0.1-3.5-1-5.1c-0.3,0.1-0.2,0.3-0.2,0.4c0.6,4.2-2.1,6.7-5.1,7.5
		c-3.2,0.9-8.1-0.7-8.4-5.1c-0.1-0.8-0.4-0.9-1.1-0.9c-2.5,0.1-4.8,1.3-7.2,1.6c-0.8,0.1-1.7,0.3-2.5,0.5c1.9,0.3,3.8-0.2,5.9,0.6
		c-1.7,0.1-3.1,0.2-4.6,0.3c-1,0-1.5,0.3-1.4,1.4c0.2,2.7,0.7,5.4,0.9,8.1c0.2,1.9,0.3,1.9,2.1,1.6c2.3-0.3,4.5-0.7,6.8-1.1
		c-0.1,0.3-0.3,0.4-0.5,0.5c-2.2,1-4.4,1.8-6.5,2.9c-0.8,0.4-1.2,0.9-1,1.9c0.3,1.5,0.3,3,0.4,4.5c0,0.8,0.2,1.7,0.5,2.4
		c0.2,0.6,0.5,0.6,1.1,0.6c2.6,0.1,4.9-0.4,6.5-2.6c0.1-0.2,0.3-0.2,0.5-0.4c3.1-2.6,6.9-4.2,9.4-7.5c0.6-0.8,1.4-1.4,2.2-2
		c0.2-0.2,0.5-0.2,0.4-0.6c-0.4-0.1-0.7,0.2-1,0.3c-1.4,0.5-2.6,1.5-4.2,1.7c-0.1-0.2-0.3-0.3-0.4-0.5c1.4-1,3.1-1.7,4.6-2.4
		c2.1-1,4.4-1.8,6.6-2.6c0.2-0.1,0.6-0.1,0.4-0.5c-0.1-0.3-0.3-0.6-0.7-0.4c-0.2,0.1-0.4,0.1-0.6,0.2c-2.1,1-4.2,2.1-6.3,3.1
		C140.3,140.3,138.9,141.3,137.2,141.8z M89.9,149.5c0.9-1,1.7-2.1,2.6-3.1c0.3-0.4,0.4-0.7-0.3-0.8c-1.3-0.1-2.5-0.5-3.7-1
		c-0.5-0.2-0.6,0-0.7,0.3c-1.1,2.8-2.3,5.4-4,7.8c-0.6,0.8,0,1,0.6,1.1c0.4,0.1,0.8-0.2,1.2-0.4C87.4,152.4,88.6,150.9,89.9,149.5
		L89.9,149.5z M45.2,158c0.7-0.5,1-1.3,1.6-1.9c0.2-0.2,0.4-0.4,0.6-0.2c0.3,0.1,0.2,0.4,0.1,0.6c0,0.2-0.2,0.4,0,0.7
		c0.5,0,0.9-0.7,1.5-0.4c-0.1,0.7-1,0.6-1.2,1.3c0.6,0.2,1.1,0.3,1.6,0.5c1.5,0.5,2.2,0,1.6-1.4c-0.5-1.2-0.2-2.1,0-3.2
		c0.3-1.3,0.2-2.5-1.2-3.4c-1.2-0.7-2.1-0.3-3.2,0.3c0.3-0.7,0.8-1.1,1.3-1.2c0.8-0.2,0.9-0.5,0.4-1.1c-0.2-0.2-0.2-0.5-0.3-0.8
		c-0.3-0.9-1.1-0.4-1.5-0.3c-0.7,0.1-0.1,0.6,0,0.8c0.1,0.6,0.2,1.3,0,1.9C45.7,152.8,45.8,155.5,45.2,158c-2.5,2.7-5.6,2.2-8.9,1.2
		c0.5,1,0.9,1.7,1.3,2.5c0.8,1.4,2.1,1.8,3.6,1.2C43.4,161.9,44.8,160.4,45.2,158z M202.9,55.4c-0.5-0.4-1-1.2-1.4-1.1
		c-0.5,0.1-0.9,0.8-1.3,1.3c-0.1,0.1-0.1,0.1-0.2,0.2c-0.2,0.2-0.4,0.5-0.8,0.4c-0.4-0.2-0.4-0.5-0.5-0.9c0-0.9,0.1-1.7,0.5-2.4
		c0.3-0.6,0.4-1-0.5-1.1c-0.6-0.1-1-0.5-1.4-1c2.5,0.6,2.5,0.6,3.5-1.7c0-0.1,0.1-0.1,0.1-0.2c0.4-0.8,0.7-1.4-0.6-1.6
		c-0.5-0.1-0.8-0.5-1.2-1c0.7,0.2,1.3,0.3,1.9,0.4c0.4,0.1,0.8,0.2,0.9-0.3c0.6-1.6,1.4-3.1,1.4-4.9c0-0.9-0.7-1.1-1.4-1.2
		c-0.3-0.1-0.5,0.1-0.5,0.4c-0.1,0.2,0.1,0.2,0.3,0.3c1.5,1,1.4,3.4-0.3,4.7c0.3-1,0.7-1.9,0.9-2.8c0.2-0.7,0.1-1.3-0.7-1.6
		c-0.9-0.3-1,0.4-1.3,1c-0.7,1.8-1.4,3.7-2.1,5.6c-0.8,1.8-1.1,3.8-2.7,5.1c-0.2,0.1-0.1,0.4-0.1,0.5c0,1.3,0.3,2.2,1.7,2.6
		c0.6,0.2,1.1,0.6,1.6,1c1,0.6,1.9,1.2,3.1,2c-0.5-1.2-1.6-1.5-1.6-2.6c1.8,0.7,1.9,0.6,2.8-0.8C202.9,55.5,202.9,55.4,202.9,55.4
		c0.3,0,0.5-0.4,0.8-0.2c-0.2,1-1.3,1.5-1.5,2.6c1.7-1.3,3.1-2.9,4.2-4.9c-0.7-0.1-1.2-0.2-1.7-0.4c-0.6-0.3-0.5-1-0.9-1.5
		c-0.2,0.3-0.4,0.6-0.6,0.8c-0.9,1.1-1.9,2.2-0.3,3.5C202.9,55.3,202.9,55.4,202.9,55.4z M145.5,33.8c1,1,0.8,2.4,1.4,3.6
		c0.1-1.1-0.2-2.2-0.5-3.2c-0.3-1.2-0.7-1.8-2.1-1.6c-1,0.1-2.1-0.2-3.1-0.4c-1.1-0.2-1.9-0.9-2.4-1.8c-1.1-1.9-2.6-3.4-4.2-4.9
		c-0.4-0.3-0.9-0.8-1.2,0c-0.2,0.6-1.5,1.1-0.3,1.9c1.2,0.8,2.5,1.6,3.3,2.9c1.6,2.5,2.6,5.3,3,8.2c0.8,5.8,0.4,11.5-0.3,17.3
		c1.1-0.7,1.8-1.7,1.6-3.1c-0.2-1.5-0.1-3,0-4.5c0.5-4-0.4-7.9-1-11.9c-0.3-1.6-1-3.1-1.3-4.7c2.5,4.7,2.8,9.8,3.2,15.1
		c1.1-1.3,2.4-1.5,3.7-1.6c0.5-0.1,1-0.1,0.9-0.8c-0.1-2.6,0.2-5.3-0.2-7.9C145.9,35.5,145.4,34.7,145.5,33.8L145.5,33.8z
		 M164.7,83.7L164.7,83.7c-0.1-0.5,0.3-0.6,0.6-0.9c1.7-1.2,3.6-2,5.7-2.2c0.5-0.1,1-0.1,1.5-0.2c-2-0.5-3.9,0.1-5.9,0.3
		c1.5-0.8,3.2-1.1,4.9-1.5c-1.8-3.2-4.4-2.2-7-1.6c1.9-1.4,4.2-1.4,6.5-1.7c-0.2-0.7-0.7-0.8-1.2-0.8c-2.2-0.2-4.4,0.2-6.4,1
		c-0.5,0.2-0.8,0.6-0.9,1.1c-0.4,2.1-1,4.2-1.1,6.4c-0.1,2.3-0.9,4.3-2.9,5.7c-0.2,0.2-0.4,0.3-0.4,0.7c0.3,3.3-0.9,6.8,1.3,9.8
		c-0.5,0.1-0.6-0.5-1.1-0.5c0,0.3-0.1,0.6,0,0.8c0.3,1.1,3,2.7,4.1,2.4c0.8-0.2,1.5-0.5,1.4-1.7c-0.1-1.2-0.1-2.4,0-3.6
		c0-0.6-0.1-0.7-0.6-0.6c-0.7,0.2-1.3,0.2-2,0c-0.2-0.1-0.5-0.2-0.4-0.5c0-0.3,0.3-0.3,0.6-0.3c2.1,0.3,2.9-1,3.6-2.6
		c0.3-0.7,0.3-1.3-0.7-1.4c-0.7-0.1-1.8-0.3-1.7-1.1c0-0.9,1.1-1,1.9-1.1c0.2,0,0.3-0.1,0.5,0c1.5,0.4,2-0.7,2.5-1.7
		c0.2-0.3,0.3-0.7,0.4-1.1c1.6,1.2,1.9-0.9,3.2-0.8c-0.7-0.9-1.5-1.3-1.7-2.3c1.1-0.2,1.9,0.5,2.7,1.1c1,0.6,1.4,0.4,1.6-0.7
		c0.1-0.7,0.1-1.4,0-2.1c-0.1-0.5-0.3-0.7-0.8-0.6c-2.5,0-4.9,0.5-7,2.1C165.4,83.6,165.2,83.9,164.7,83.7z M73.3,78.4
		c-0.1-0.6,0.2-1.3-0.2-2.1c-1.3,1.3-2.3,2.6-2.6,4.4c0.5-0.3,0.7-0.7,1.1-1.1C72.1,79.2,72.5,78.4,73.3,78.4
		c-0.3,1.2-1.3,1.9-2.1,2.8c-1.9,2.1-3.6,4.3-4.1,7.1c-0.1,0.6-0.5,1-1.1,1.4c-1.6,1-2.3,2.9-1.4,4.5c1,1.8,2,3.6,3.4,5
		c3.1,3.1,7,5.1,10.9,7c0.7,0.4,1.5,0.8,2.4,0.7c0.3,0,0.7,0.1,0.7-0.2c0-0.8-0.1-1.6-0.2-2.4c-0.1-0.6-0.7-0.4-1.1-0.6
		c-0.8-0.2-1.6-0.4-2.3-0.8c-5.4-2.5-9.3-6.6-13.2-10.9c2.8,2.2,5.2,4.9,8.2,6.8c-1.8-2.4-3.9-4.6-4.7-7.6c1.3,2.4,3,4.6,4.9,6.5
		c1.9,1.9,3.8,4,6.9,4.9c-2-3.7-4.7-6.5-7.4-9.2c3.1,2.1,5.7,4.6,8,7.5c0-1.8-0.2-3.5-0.4-5.2c0-0.5-0.3-0.6-0.7-0.4
		c-1,0.3-1.7-0.1-2.3-1c-0.6-1.1-1.1-2.2-1.4-3.4c-0.1-0.5-0.2-1-0.9-1.1c-2.3-0.3-3.3-3.4-2.2-5.1c0.9-1.4,0.3-2.5,0.3-4.1
		c-0.9,0.9-1.5,1.6-2.2,2.3c0.2-1.1,0.8-1.8,1.6-2.5C73.9,79.8,73.8,79.2,73.3,78.4z M170.5,89.4c-0.2-0.3,0-0.4,0.2-0.6
		c1.8-1.6,3.8-2.4,6.2-2.2c0.7,0,1.5,0.3,2.2-0.2c-1.8-0.8-3.7-1.3-5.7-0.4c-1.7,0.8-3.6,1.4-4.8,3c-1.1,1.4-3,2.4-2.8,4.6
		c0,0.1-0.1,0.2-0.1,0.3c-0.9,1.1-0.8,2.4-0.9,3.7c-0.2,4.9,1.4,8.7,6.5,10.7c0-0.7-0.3-1.1-1-1.3c-1.3-0.4-2.1-1.4-2.6-2.6
		c0.7,0.6,1.4,1.3,2.3,1.7c0.7,0.3,1.1,0.4,1-0.6c-0.1-1.4,0-2.8,0.2-4.2c0.3,2,0.2,4.1,0.7,6.2c0.5,2.2,2.1,4.2,3.6,4.7
		c-1.8-5.3-2.3-8-1.8-10c0.1,0.5,0.1,0.8,0.2,1.1c0.6,2.2,0.8,4.6,1.8,6.7c1.5,3.1,4.1,5,6.9,6.8c2,1.3,4.1,1.5,6.3,1
		c0.8-0.2,1.5-0.4,2.1-1c2.5-2.3,3.2-5.4,3.8-8.6c0.1-0.5-0.1-1-0.8-0.7c-1.4,0.6-3,0.6-4.5,0.9c-1.5,0.2-3.7-0.2-4.3-0.6
		c4,0.5,7.9-0.4,11.5-2.3c1.2-0.6,2-1.5,2.2-2.9c0-0.3,0.3-0.5,0-0.8c-0.2-0.2-0.4,0.1-0.7,0.1c-3.2,1-6.4,1.6-9.8,1.5
		c-1.7,0-3.4-0.4-5.1-0.7c-2.6-0.6-5.1-1.4-6.4-4.3c-1,3.2,1.4,4.2,3.2,5.5c-0.8-0.2-1.6-0.6-2.3-0.9c-0.8-0.3-1.3-0.9-2-1.5
		c-0.4,1.6,0.3,2.7,1.6,3.8c-2.3-1-3.1-2.6-2.3-4.5c0.5-1,0.9-2.1,1.2-3.1c0.5-1.6,0.9-3.2,1.3-5.1c-2,1.5-2.7,3.5-3.9,5.2
		c0.3-2,1.5-3.5,2.8-5.2c-3.9,1.7-5.3,5.2-7.2,8.3c-0.1-2.9,0.8-5.4,2.4-7.7c1.6-2.3,3.7-4,6.7-5.1c-1.7-0.3-3.1-0.4-4.5-0.1
		c-1.3,0.3-2.3,1.2-3.5,1.7C170.7,89.6,170.6,89.5,170.5,89.4z M100.4,189.5c-0.3-0.7,0.3-0.6,0.6-0.7c3.6-1.3,7.2-2.5,10.7-3.7
		c1.6-0.6,3.1-1.2,4.8-2.2c-8,0.3-15.7,0.6-23.2-1.9c0.5,0,1,0.1,1.5,0.2c7.6,1,15.3,1.3,22.9,0.3c4.3-0.6,3.5-0.3,4.6-3.8
		c0.3-0.9,0.1-1.4-1-1.3c-1.5,0.1-3,0.1-4.3-0.6c-0.5-0.3-0.8,0-0.9,0.5c-0.2,0.9-0.5,1.8-0.7,2.6c-0.3,1-0.8,2.1-2,2.9
		c0.1-0.4,0.1-0.6,0.2-0.7c0.6-1.4,0.6-1.5-1-1.6c-1.4-0.1-2.9-0.3-4.3-0.7c-3-0.9-6.1-1.7-9.1-2.6c-2-0.6-3.9-1.4-5.6-2.7
		c1.7,0.7,3.3,1.3,5,1.8c1.7,0.5,3.5,0.9,5.3,1.4c1.7,0.5,3.5,1,5.2,1.3c1.7,0.4,3.5,0.7,5.3,0.1c-5.5-1.5-11-3-16.4-4.5
		c0-0.1,0-0.1,0-0.2c3.5,0.7,6.9,1.4,10.4,2.1c-2.3-1.6-4.5-3.2-6.5-5.1c-0.3-0.3-0.5,0-0.7,0.1c-1.5,0.9-3.4,0.8-4.8-0.3
		c-1.3-1.1-2.6-2.2-3.9-3.3c-1.6-1.5-3.2-3-5.1-4.8c0.3,2,0.6,3.8,0.8,5.5c0.1,0.5,0,0.9-0.4,1.4c-1.1,1.2-1,2.3,0.2,3.4
		c0.3,0.3,0.5,0.6,0.2,0.9c-0.2,0.3-0.2,0.7-0.2,1c-0.2,4.2,0.9,8.3,1.3,12.5c0.3,3.2,1.4,6.3,1.8,9.5c0.2,1.5,0.9,2.8,2.4,3.6
		c0-0.6-0.5-1-0.2-1.5c1.3,1.7,2.1,2.3,3.4,2.5c0.8,0.1,1.7,0,2.5,0.1c0.8,0.1,1.2,0,1.2-0.9c0-0.7,0.4-1.3,1.2-1.1
		c0.6,0.1,1.2,0.4,1.1,1.3c-0.2-0.1-0.4-0.1-0.5-0.2c-0.3-0.3-0.6-0.6-1-0.3c-0.3,0.2-0.3,0.7-0.2,1c0.1,0.5,0.6,0.3,0.9,0.4
		c2.8,0.2,5.6,0,8.4-0.4c1.1-0.1,2.2-0.3,2.6-1.6c0.1-0.2,0.2-0.4,0.5-0.3c0.4,0.2-0.4,1.3,0.6,1.1c1.7-0.4,3.5-0.5,4.5-2.3
		c0.5-0.9,1.1-1.8,1.9-2.6c0.1,0.1,0.2,0.1,0.3,0.2c-0.6,1-1.2,2-1.8,3.2c0.5-0.2,0.8-0.3,1-0.4c2.5-0.9,2.6-1.2,2-3.2
		c-0.1-0.3,0-0.6,0-0.8c0-2.1,0-4.2,0-6.6c-2.2,1.9-4.3,3.4-5.9,5.5c1-0.7,2.1-1.3,3.4-2.2c-1.2,1.7-2.6,2.5-4.1,3.1
		c-0.4,0.2-1,0.6-1.4-0.1c-0.3-0.6,0.2-0.9,0.6-1.3c2.2-2.4,4.8-4.2,7.3-6.1c1.2-1,1.3-1.8,0.4-3.1c-0.3-0.4-0.4-0.4-0.8-0.2
		c-6,3.8-12.7,5.9-19.8,6.7c-0.6,0.1-1.3,0.2-2,0C99.9,189.7,100.3,189.7,100.4,189.5c0.3,0,0.7,0.1,1,0c5.2-1.1,10.2-2.4,15-4.7
		c1.1-0.5,2.3-1,3.3-1.8c-0.3-0.2-0.5,0-0.6,0.1c-4,1.9-8.2,3.5-12.5,4.6C104.5,188.2,102.4,188.6,100.4,189.5z M149.5,195.1
		c-0.3-0.6-0.2-1.3-1-1.8c-1.3-0.8-2.1-2.2-2.9-3.5c-1.2-1.9-2-4.1-2.9-6.1c-0.3-0.7-0.7-1-1.5-0.9c-0.9,0.1-1.8-0.2-2.6-0.7
		c-2.8-1.7-5-4-7-6.5c-0.2-0.3-0.3-0.8-0.9-0.5c-1.4,0.7-3,0.7-4.5,1c-0.3,0.1-0.7,0-0.8,0.5c-0.2,1.1-0.5,2.2-0.7,3.3
		c-0.1,1-0.4,1.8-1.4,2.2c-0.5,0.2-0.5,0.4-0.2,0.9c1.1,1.4,1.3,2.8,0.4,4.4c-0.3,0.5-0.7,1.1-0.6,1.8c0.4,2.9,0.1,6,2.8,8.1
		c0.4,0.3,0.6,0.7,1,1.1c6.4,7,13.5,13.2,22.4,17c1,0.4,1.7,0.7,1.8-0.8c0.1-0.8,0.9-1.5,0.5-2.4c-1.4-3.5-1.5-7.1-1.4-10.8
		c0-0.4-0.1-0.7-0.4-1.1c-1-1.1-1.3-2.4-0.7-3.8C149.1,196,149.3,195.6,149.5,195.1z M115.4,59.2c6.4,0.4,12.8-1.5,19.1-4.2
		c1.4-0.6,1.7-1.4,1.8-2.6c0-0.3,0-0.6,0-0.8c0.2-4-0.1-8.1-0.5-12.1c-0.6-6.3-3.2-9.5-9.1-11c-7.2-1.8-14.3-1.3-21.2,1.7
		c-2,0.9-3.9,1.9-5.3,3.6c-2.2,2.9-2.8,6.4-2.4,10c0.5,4.3,1.6,8.5,2.4,12.8c0.1,0.5,0.3,0.7,0.7,0.8c1,0.3,1.9,0.6,2.9,0.9
		C107.6,59,111.2,59.2,115.4,59.2z M101.9,107.5c-1.8-1-3.1-2.4-4.5-3.6c-0.5-0.4-1-1.4-1.5-1.2c-0.7,0.4-0.6,1.5-0.7,2.3
		c0,0.1,0,0.3,0,0.5c0.1,1.6,0.4,3.3,0.5,4.9c0.5,4.4,1.4,8.8,1.5,13.3c0,1.2,0.8,1.9,1.8,1.8c1.4-0.2,2.9-0.1,4.3-0.3
		c3.6-0.5,7.1-0.9,10.7-1.3c0.9-0.1,1.5-0.6,1.8-1.4c0.3-0.7,0.4-1.5,0.4-2.2c0-1.7,0.7-3,2.2-3.9c2.8-1.6,5.7-0.6,6.9,2.4
		c0.2,0.4,0.3,0.8,0.4,1.2c0.6,1.9,1.7,2.8,3.7,2.9c1.4,0.1,2.7,0.1,4.1,0c5-0.3,4.8,0.5,5-5.2c0.1-2.6,0.4-5.3-1.4-7.6
		c-0.7-0.9-0.5-2.2-0.8-3.4c-0.1-0.3,0.2-0.8-0.4-0.8c-0.5,0-0.6,0.4-0.7,0.8c0,0.9-0.1,1.8-0.1,2.8c0,0.7,0,1.4-0.5,2.3
		c-0.1-1.9-0.2-3.4-0.3-5c0-0.6-0.2-0.8-0.9-0.8c-4.1,0.2-8.3,0.4-12.4,0.6c-0.5,0-0.7,0.2-0.6,0.7c0.3,1.5,0.3,3.1,0.3,4.7
		c0,0.3,0,0.6,0.4,0.6c0.4,0,0.3-0.4,0.3-0.6c0-1,0-2.1,0-3.3c0.5,1,0.5,2,0.6,2.8c0.1,0.8,0.3,1,1.1,1c3.4-0.2,6.9-0.2,10.3-0.1
		c1.6,0.1,2.9,0.8,3.5,2c-0.8-0.3-1.5-0.4-2.1-0.8c-0.9-0.5-1.9-0.5-2.9-0.5c-6.9,0.1-13.8,0.7-20.7,1.3c-3.3,0.3-6.6,0.3-9.2,2.9
		c-0.7,0.7-1.4,1.5-2.3,2.1c-0.3,0.2-0.4,0.5-1,0.4c1.4-1.6,3-2.9,4.5-4.2c0.3-0.3,0.6-0.4,0.3-0.8c-0.6-1.1-0.5-2.4-0.7-3.6
		c-0.1-0.9,0.2-2.3-0.5-2.5c-0.8-0.3-1.8,0.7-2.6,1.3c-1.1,0.8-2.1,1.6-3.2,2.4c0.8-1,1.7-1.9,2.6-2.7
		C100,108.7,100.8,108.1,101.9,107.5z M124.3,84.8c-0.5,0.5-1.1,0.9-1.7,1.2c-1,0.4-1.8,0.5-1.8,2.2c0,2.1,0.6,4.1,0.8,6.1
		c0.1,0.8,0.5,1.3,1.5,1.2c0.8-0.1,1.6,0,2.4,0c2.7-0.1,3.3,0.5,3.6,3.2c0,0.4,0,0.9,0.6,0.7c2.4-0.5,4.8-0.2,7.2-0.7
		c1.8-0.3,3.6-0.7,5.3-0.3c0.9,0.2,1.1-0.1,1.2-0.8c0.3-2.1,0.5-4.1,0.4-6.2c-0.2-4.3-1-8.6-1.1-12.9c0-0.6-0.2-1-0.6-1.5
		c-0.3-0.3-0.8-0.6-0.7-1.2c0.2-1.3-0.2-2.6-0.4-3.9c-0.1-0.4-0.1-1-0.6-1.1c-0.4-0.1-0.5,0.5-0.8,0.8c-1.2,1.5-2.5,2.9-4.1,3.9
		c3.8-4.5,3.9-4.6,3.8-5.8c-1.8,2.3-4,4.3-6.3,6.1c-4.2,3.3-8,7.1-13.1,9.2c-0.2,0.1-0.3,0.2-0.3,0.4c0,0.3,0.3,0.3,0.5,0.3
		c0.5,0,1,0,1.4-0.2C122.3,85.2,123.3,85,124.3,84.8z M55.2,126.6c1.1-0.7,2.2-1.5,3-2.6c0.2-0.2,0.4-0.4,0.1-0.7
		c-0.3-0.2-0.4,0.1-0.6,0.2c-0.8,0.6-1.7,1.2-2.5,1.9c-0.7,0.7-1.3,0.5-2.1,0.2c-2.1-1-3.7-2.5-4.8-4.5c-0.7-1.1-1-2.5,0-3.6
		c1.3-1.4,0.8-2.7,0.3-4.2c-3.5,3.8-5.6,8.3-7.5,13c-0.1,0.2,0,0.6,0.1,0.8c0.7,2.3,1.9,4.3,3.8,5.8c0.7,0.6,1.4,1.2,2.4,2.1
		c-1-0.1-1.5-0.5-1.9-0.9c-2.1-1.8-4.3-3.5-5-6.4c-0.1-0.4-0.3-1-1-0.5c-1.1,0.8-1.6,2.3-1,3.5c-0.3,0.4-0.8-0.1-1,0.4
		c-0.4,0.9-0.6,0.2-0.7-0.1c-0.2-0.4,0-0.8,0.4-1.1c-0.8,0.1-1.2,0.5-1.4,1c-0.7,1.3-1.2,2.7-1.6,4.1c-0.3,0.9-0.3,1.7,0.1,2.6
		c0.9,2.5,2.6,4.4,4.5,6c1.2,1,2.5,1.6,4,1.8c0.5,0.1,0.8,0.1,1.1-0.4c0.8-1.4,1.8-2.9,2.6-4.3c0.3-0.5,0.3-0.9-0.3-1.2
		c-2.5-1.2-4.3-3.2-6.2-5.2c-1-1.1-1.3-1.9-1.2-3c1.1,1.9,2.4,3.5,4.2,4.8c2.2,1.6,4.3,3.1,7.1,3.3c2.1,0.1,4.1-0.2,5.3-2.1
		c0.6-1.1,1.5-1.6,2.5-2.3c0.6-0.4,1.1-0.8,1.6-1.2c2.7-2.1,4.7-5,7.1-7.4c0.4-0.4,0.7-1,0.8-1.7c-1.2,0.2-2.1,0.5-2.7,1.4
		c-2,2.8-4.8,4.2-8.1,4.5c-2.3,0.2-4.4-0.2-6.4-1.3c1.6,0.2,3.2,0.7,4.8,0.5c1.6-0.1,3.2-0.4,4.7-1.2c-0.9-0.5-2-0.7-2.7-1.8
		c0.6,0.2,0.9,0.3,1.2,0.4c2,0.8,4.3,0.3,5.7-1.2c0.2-0.2,0.4-0.3,0.3-0.6c-0.1-0.3-0.4-0.3-0.7-0.3c-1.1-0.2-2.2-0.4-3.2-0.9
		c-0.6-0.3-0.9-0.3-1.4,0.3C57.9,125.5,56.8,126.5,55.2,126.6z M111.5,99.7c-0.8-0.5-1.6-0.3-2.5-0.3c-4,0.3-8.1,0.6-12.1,0.8
		c-0.8,0.1-1.6-0.4-2.3-0.3c-2.8,0.6-4.7,2.1-4.8,5.5c-0.1,5.6,1.2,11.1,1.8,16.7c0.1,1,0.2,2.1,1,2.7c2.1,1.6,4.3,2.9,7,3.1
		c0.3,0,0.5,0.1,0.7-0.2c0.8-1.2,2.1-1,3.2-1c0.7,0,0.8,0.4,0.5,1c-0.7,1.3,0,1.3,1,1.2c0.6,0,1.3-0.1,1.9-0.1
		c5.5-0.4,10.9-1,16.3-1.6c6.1-0.7,12.2-0.6,18.3-1.6c2.6-0.4,4.9-1.5,7.1-2.8c0.3-0.2,0.5-0.4,0.7-0.6c0.2-0.2,0.4-0.4,0.4-0.7
		c-0.2-2.6,0.2-5.3-0.6-7.9c-0.3-0.8-0.6-1.2-1.5-1.1c-1.4,0.2-2.8,0.3-3.8-1c-0.1-0.1-0.4-0.1-0.6-0.1c-1.1,0-2.2,0.1-3.4,0.1
		c-1,0-1.2,0.5-1.1,1.4c0.4,3,0.8,6-0.3,9c-0.1,0.2-0.3,0.5,0.1,0.6c0.3,0.1,0.6,0,0.7-0.3c0.2-0.6,0.4-1.2,0.5-1.8
		c0.4-2.1,0.1-4.2,0.3-6.4c0.3,2.5,0.6,5,0,7.4c-0.2,0.9,0,1.1,0.9,1.1c2-0.1,3.9,0,5.9,0c-0.4,0.4-0.9,0.4-1.3,0.4
		c-2.2,0.1-4.5,0.3-6.7,0.4c-0.7,0-1.2,0.3-1.7,0.7c-0.7,0.7-1.4,1.4-2.6,1.8c0.6-0.8,1.4-1.2,1.7-2c-1.1-0.2-37.4,2.2-38.2,2.3
		c-0.1,0.5,0.7,0.4,0.6,0.9c-1.5-0.2-2.8-1.4-2.9-2.6c-0.5-4.2-0.9-8.5-1.4-12.7c-0.4-3.2-0.7-6.4-0.5-9.6c0.1-1.4,0.4-1.7,1.7-1.1
		c0.4,0.2,0.8,0.1,1.2,0.1c4.7-0.2,9.3-1,14-1.1C111.2,99.8,111.3,99.7,111.5,99.7z M96.2,145.5c0.8,2.4,2.9,3.9,5.2,5.1
		c-0.7-0.3-1.5-0.6-2.4-0.9c2.1,3.9,5.2,6.6,8.8,8.6c-0.8,0.1-1.4-0.3-2.2-0.6c1.8,2.2,3.9,3.9,5.9,6c-0.1-1.2-0.5-2-0.9-2.8
		c-0.9-2.1-0.9-4.5,2.1-5.2c1-0.3,2.1-0.6,3.1-0.7c0.6-0.1,0.9-0.2,0.8-1c-0.8-4.3-1.5-8.6-2-12.9c-0.3-2.8-0.8-5.6-0.5-8.3
		c0.1-1.2,0-1.7-1.3-1.6c0,0-0.1-0.1-0.1-0.2c0.1-0.4,0.4-0.5,0.7-0.5c0.3-0.1,0.7-0.2,0.6-0.6c-0.1-0.5-0.5-0.3-0.8-0.3
		c-0.6,0-1.3,0.2-1.9,0.1c-1-0.1-1.3,0.3-1.5,1.3c-1,4.8-4.6,7.8-9.5,8c-1,0-2.2-0.7-2.9-0.1c-0.7,0.6-0.8,1.9-1.2,2.8
		c-0.7,1.5-0.7,1.6,0.6,2.7c0.3,0.2,0.6,0.5,0.9,0.6c2.2,0.9,4.4,2.1,6.5,3.2c1.2,0.7,2.5,1.2,3.8,2c-2.1,0-3.8-1.1-5.9-1.9
		c0.9,0.9,1.5,1.7,2.2,2.4C101.7,148.7,99.5,146.1,96.2,145.5z M31.7,126.9c-0.7,0-1.4,0-2,0c-3.8,0.1-7.6,0.5-11.1,2.2
		c-3.8,1.8-4.8,4.6-2.7,8.2c2.8,4.6,6.9,7.9,11.2,10.9c0.4,0.3,0.6,0.2,0.8-0.3c0.8-2.4,2.4-4.4,3.5-6.7c0.5-0.9,1.4-1.6,1.9-2.4
		c0.4-0.8-0.6-2-0.4-3.1c0.3-2,1-3.8,1.9-5.6c0.4-0.8,1-1.5,2.1-1.5c0.7,0,0.6-0.8,0.8-1.2c0.1-0.4-0.5-0.3-0.7-0.3
		C35.2,126.8,33.5,126.9,31.7,126.9z M94,78.1c0.7,0.1,1.1,0.1,1.5,0.2c0.3,0.1,0.5,0.3,0.3,0.6c-0.1,0.2-0.2,0.5-0.6,0.3
		c-1.4-0.6-1.7-0.5-1.7,1c0,5.4,0.3,10.7,0.9,16c0.4,3.4,1,3.2,3.6,3c3.7-0.3,7.5-0.6,11.2-0.8c1-0.1,2,0,2.5-1.1
		c0.2-0.5,0.9-0.7,1.4-0.9c0.9-0.2,1.1-0.7,1-1.6c-0.2-2.3-0.4-4.6-0.3-6.9c0-0.5-0.1-1.2,0.7-1.3c0.3-0.1,0.8,0,0.8-0.5
		c0-0.5-0.4-0.7-0.7-0.9c-4.2-2-8.2-4.2-12.2-6.6c-2.4-1.5-4.9-2.8-6.7-5.1c-0.2-0.3-0.3-0.8-0.8-0.7c-0.5,0.1-0.6,0.7-0.7,1.2
		c-0.1,0.8,0.2,1.2,1,1.2c0.3,0,0.7-0.1,0.8,0.3c0.2,0.4-0.2,0.7-0.4,0.9C95.2,76.9,94.6,77.4,94,78.1z M125.8,154.6
		c-0.7,0.1-1.5,0.2-2.3,0.3c-2.4,0.4-4.8,0.7-7.2,1.1c-1.5,0.2-3,0.5-4.4,1.2c-0.7,0.4-0.9,0.9-0.8,1.7c0.1,1.1,0.8,1.9,1,2.9
		c0.9,4,2.5,7.8,4.1,11.6c0.5,1.3,1.3,1.7,2.5,1.8c3.7,0.4,7.3,0.1,10.9-0.8c1.6-0.4,2.3-1.6,1.9-3.1c-0.9-2.9-1.2-5.9-1.7-8.8
		c-0.4-1.9-0.2-3.9-0.4-5.9c-0.1-1.1-0.7-1.7-1.8-1.8C127,154.6,126.5,154.6,125.8,154.6z M78.3,112.9c-2.2,2.2-4.4,4.2-6.8,6
		c-0.3,0.2-0.5,0.4-0.4,0.8c0.2,0.9-0.2,1.6-0.9,2.2c-1,0.9-1.2,2.2-1.8,3.4c-1,1.9-2.6,3.5-3.9,5.2c-0.6,0.7-0.4,1.1,0.3,1.4
		c1.7,0.8,3.3,1.9,5,2.9c5.6,3.4,10.6,7.5,15.2,12.1c0.6,0.6,1,0.7,1.3-0.2c0.4-1.1,0.8-2.2,1.2-3.3c-4.3-0.1-6.5-3-6.9-6.6
		c-0.3-3-0.9-5.9-1.3-8.9c-0.6-4-1.4-8.1-0.8-12.2C78.5,114.7,78.7,113.9,78.3,112.9z M93.3,68.1c1.8-0.1,2.9,0.9,2.8,2.3
		c-0.2,1.7,0.5,2.9,2.1,3.5c2.1,0.8,4.3,1.6,6.6,1.8c6.7,0.5,13.4,0.4,20.1-0.4c1-0.1,1.8-0.2,1.7-1.8c0.2,1.7,1.1,1.2,2.1,1.1
		c3.5-0.7,6.3-2.6,9-4.7c0.7-0.6,1.3-1.4,0.9-2.6c-2.9,2.1-6.1,3.3-9.5,4.3c-0.6,0.2-0.8,0.4-0.6,1c0.1,0.2,0.2,0.6-0.1,0.7
		c-0.4,0.1-0.5-0.3-0.5-0.6c0-0.7-0.4-0.7-0.9-0.6c-0.9,0.2-1.9,0.4-2.8,0.5c-5.4,1-10.7,0.8-16.1,0.4c-2.7-0.2-5.3-0.7-7.8-1.7
		c-1.6-0.6-3.1-1.4-4-3c-0.4-0.7-2.2-1.4-2.9-1.2c-2,0.6-3.3,1.9-4,3.9c-0.9,2.7-1.2,5.5-1.2,8.3c-0.2,6.1,0.7,12.1,1.4,18.1
		c0.2,1.3,0.4,2.6,0.6,4.3c1-1.6,2.3-2.2,3.7-2.9c-0.8-0.6-1.5,0.2-2.3-0.2c0.2-0.3,0.5-0.4,0.8-0.4c1.1,0,1.3-0.5,1.1-1.6
		c-0.7-4.9-1-9.9-1.2-14.9c-0.1-2.7,0.1-5.4,0.6-8c0.2-1,1.2-1.9,0.4-2.9c0.6-0.3,1.1,1.1,1.6,0C95.3,69.9,94.8,68.9,93.3,68.1z
		 M55.1,117.4c-0.9-0.6-1.3-1.1-1.7-1.7c-1.2-1.9-1.5-4-1.6-6.2c0-0.7-0.2-0.8-0.8-0.5c-1,0.4-1.2,1.2-1.4,2.2
		c-0.3,1.5-0.2,2.9,0.2,4.4c0.1,0.5-0.1,0.8-0.3,1.2c-1.3,2.2-1.2,3.2,0.6,5.1c0.5,0.5,0.9,1,1.5,1.4c2.2,1.8,2.7,1.8,4.8-0.1
		c0.7-0.6,0.6-0.9-0.1-1.4c-1.4-1.2-2.8-2.5-3.9-4.1c-1.2-1.8-1.9-3.4-1.7-4.9c1.1,3.4,3.1,5.8,5.7,7.8c2.7,2,5.5,3.5,9,3.2
		c1.4-0.1,2.5-0.9,3.2-2.1c-4.5,0.8-8.6,0-10.1-2.3c1.8,1.2,3.6,1.7,5.5,1.8c1.7,0.1,3.4,0,5-0.7c0.4-0.2,0.6-0.4,0.5-0.8
		c-0.1-0.4-0.4-0.4-0.6-0.4c-3.4,0-6-1.7-8.3-4c-1-1-1.8-2.1-2.7-3.1c0.7,2.5,2.6,4.3,3.7,6.5c-2.9-2.3-4.3-5.5-5-9
		c1,1.5,2.2,2.7,3.4,4c1.7,1.8,3.6,3.3,6,4.1c2.1,0.7,4.3,0.8,6.2-0.9c0.3-0.3,0.6-0.6,0.4-1.1c-0.2-0.5-0.6-0.5-1.1-0.5
		c-0.6,0.1-1.3,0.2-1.7-0.4c-0.4-0.7-1.1-0.9-1.8-1.1c-2-0.6-3.9-1.3-5.1-3.3c-0.2-0.3-0.4-0.5-0.7-0.6c-0.4-0.1-2.8-3.1-2.9-3.5
		c0-0.1-0.1-0.2,0-0.4c0.2-0.8-0.5-1.3-0.8-1.9c-0.2-0.3-0.4-0.4-0.7,0c-1,1.2-1.1,2.3-0.3,3.6c0.3,0.5,0.6,1,0.9,1.5
		c-1-0.4-1.3-1.3-1.7-2.2c-0.1-0.3-0.2-0.6-0.7-0.6c-1.9,0.1-3.5,1.8-3.3,3.6c0.1,1.3,0.3,2.5,0.7,3.7C53.6,115,54.3,116,55.1,117.4
		z M160.3,114.5c-0.1,0-0.2,0-0.3,0c0-0.4-0.1-0.9-0.1-1.3c-0.1-2.5,0.2-5,0.1-7.6c0-1.4-0.6-2.4-1.7-3.3c0,0.4-0.1,0.7-0.1,1
		c-0.1,3.4-0.6,6.8-1.4,10.2c-0.8,3.3-1.9,6.4-3.4,9.4c-0.3,0.6-0.3,0.9,0.5,1c1.1,0.3,2.1,0.6,3.2,1c0.3,0.1,0.7,0.4,0.3,0.7
		c-0.7,0.4-1.3,1.3-2.4,1c0.1-0.7,1-0.4,1.2-1c-0.9-0.3-1.8-0.6-2.6-0.8c-1-0.3-1.7,0.3-1.6,1.3c0,0.4,0.1,0.8,0.2,1.2
		c0.3,1.3-0.2,3,1.7,3.6c0.1,0,0.2,0.3,0.2,0.5c0.3,1.8,1.2,3.3,1.8,4.9c0.4,0.9,0.9,1.5,2.1,1c0.4-0.2,0.8-0.1,1.2,0.1
		c1,0.6,1.5-0.1,2-0.8c0.4-0.7,0.3-1.4,0.3-2.1c0-4,0.2-8,0.9-11.9c0.2-1.1,0.3-2.1-0.9-2.8c-0.5,0.6-0.5,1.6-1.4,2.2
		c0.2-1.9,1-3.4,1.9-4.9c0.6-1,1-2,0.7-3.3c-0.3-1.2-0.3-2.5-0.3-3.7c-0.1-1.5-0.1-3-0.2-4.6c0-0.6-0.4-0.8-0.8-0.9
		c-0.6-0.1-0.4,0.5-0.4,0.8c-0.1,1-0.2,2.1-0.2,3.1C160.6,110.5,160.4,112.5,160.3,114.5z M82.4,108.3c-4.3-0.3-7.5-3.1-10.8-5.3
		c-3.4-2.3-6.3-5.2-8.4-9.1c-0.9,2.6,0.7,4.5,1.5,6.7c-1.4-1.5-1.9-3.2-2.5-4.9c-1.1,1-1.7,2.2-2.4,3.4c-0.6,1-0.8,2.1-1.1,3.2
		c-0.1,0.5,0.1,1,0.5,1.1c0.5,0.2,0.4-0.4,0.7-0.7c0.4-0.5,0.6-1.2,1.3-1.4c0,0.1,0.1,0.2,0.1,0.3c-0.4,0.7-0.8,1.5-1.1,2.2
		c-0.7,1.3-0.3,2.7,0.9,3.1c0.7,0.3,1.2,0.5,0.7,1.3c-0.1,0.2-0.1,0.5,0.2,0.6c0.3,0.1,0.4-0.1,0.6-0.3c0.3-0.4,0.5-0.8,1-0.9
		c-0.6,2.2-0.5,2.3,1.1,3.6c0.5,0.4,0.8,0.5,1.4,0c0.8-0.8,1.8-1.3,2.7-2c0.2-0.1,0.4-0.3,0.6-0.1c0.4,0.4-0.1,1.8-0.8,2.1
		c-0.1-0.4,0.2-0.8,0-1.2c-0.8,0.2-1.3,0.8-2,1.3c-0.5,0.3-0.5,0.7,0.1,0.9c1.6,0.5,3.3,1.4,4.7-0.4c0.1-0.1,0.2-0.2,0.3-0.2
		c0.4-0.1,0.6-0.8,1-0.4c0.3,0.4-0.3,0.7-0.5,1.1c-0.3,0.4-0.7,0.6-1.1,0.9c-0.2,0.2-0.5,0.4-0.4,0.8c1.2,0,1.2,0,2.5,0.7
		c0.3,0.2,0.7,0.2,1,0.1c1.7-0.7,2.9-2,3.9-3.3c-4.5-1.9-8.9-3.9-12-7.7c2.8,2.4,5.9,4.4,9.5,5.3C80,110.1,80.1,110.5,82.4,108.3z
		 M160.2,70.3c-0.4-0.6-0.8-0.9-1.2-1c-3-1.2-6.2-1.1-9.3-0.7c-1.4,0.2-2.3,1.2-2.1,2.3c0.6,4.6,1.3,9.2,1.9,13.9
		c0.1,0.7,0.2,0.8,0.9,0.8c2.3-0.2,4.5-0.2,6.8,0.2c1.9,0.4,1.9,0.3,1.1,2.1c1.6-0.5,1.5-2,1.8-3.1c0.3-1.7,0.3-3.4,0.7-5.1
		c0.5-2.1,1.1-4.2,0.8-6.4c-0.1-0.8-0.3-1.3-1.1-1.8c-2.5-1.5-5.2-1.4-7.9-1.4c-0.4,0-0.9,0.1-1.3-0.3
		C154.2,68.9,157.1,69.6,160.2,70.3z M102.6,63.7c-2.1,0.3-3.7-1-3.5-3c0-0.2,0.1-0.5-0.2-0.6c-1.7-0.9-1.8-2.7-2.1-4.2
		c-0.7-4-1.6-8-1.8-12.1c-0.3-4.2,0.7-8.1,3-11.6c0.5-0.8,1.5-1.4,1.6-2.2c0.1-0.8-1.1-1.4-1.5-2.2c0-0.1-0.1-0.2-0.2-0.3
		c-0.3-0.3-0.5-0.4-0.9,0c-1.1,1.2-2.3,2.4-2.8,4.1c-0.9,2.8-2.6,4.8-5.7,5c-0.8,0-0.9,0.4-1,1.1c-0.6,3.5-0.6,7.1,0.1,10.6
		c0.1,0.4,0,0.9,0.6,0.8c0.6-0.1,0.3-0.6,0.2-0.9c-0.6-3.2-0.4-6.4,0-9.6c0-0.4,0-1,0.6-1.1c1.4-0.3,2.9-0.4,4.3-1
		c-0.5,0.8-1.3,1-2.1,1.3c-0.7,0.3-1.8-0.3-2.2,0.5c-0.3,0.6-0.1,1.6-0.1,2.4c0,0.8,0,1.5-0.1,2.3c-0.1,1.8,0.1,3.7,0.5,5.5
		c0.1,0.4,0.1,0.7,0.6,0.8c1.3,0.3,2.5,1,3.7,1.7c0.5-6-1-12.1,2.5-17.7c0,0.4,0,0.6,0,0.7c-2.3,5.8-1.4,11.9-1.2,17.9
		c0.1,2.3,0.4,4.6-1,6.6c-0.3,0.5-0.2,0.9,0.2,1.3c1,1.2,2.2,2.1,3.5,2.8c4.6,2.5,9.6,3.1,14.7,3.6c2,0.2,2,0.1,2.3-1.8
		c0.1-0.4,0.1-0.7,0.2-1.1c0.3-0.6,0-0.7-0.6-0.8c-4.5,0-9-0.6-13.4-1.8c-0.3-0.1-0.6-0.4-0.9,0c-0.2,0.3-0.1,0.7,0.1,1
		c0.3,0.4,0.8,0.7,1.2,0.9C101.6,62.9,102.2,63.1,102.6,63.7z M190.9,65.3c-0.5-0.4-0.9-0.6-1.2-0.9c-1.4-1-2.7-2.1-4.3-2.8
		c-0.3-0.1-0.7-0.5-1-0.3c-0.4,0.2-0.1,0.7,0,1c0.1,0.8,0.2,1.5-0.1,2.3c-0.3,0.8,0.1,1.2,0.6,1.5c1.5,0.9,3,1.6,4.7,2
		c2.5,0.7,5,1.5,7.6,1.1c1.7-0.2,2.8-1.4,2.6-3c-1.4,2.2-2.7,2.7-5.8,2.1c0.8-0.1,1.4-0.1,1.9-0.2c1.4-0.2,2.6-0.8,3.1-2.2
		c0.3-0.7,0.3-1.2-0.5-1.5c-0.5-0.1-0.9-0.4-1.3-0.6c-0.4-0.2-0.7-0.4-1.1-0.7c0-0.1,0.1-0.1,0.1-0.2c0.9,0.2,1.8,0.5,2.7,0.7
		c-2.2-2.3-5.2-3.1-8.1-4.2c1.2-0.2,2.3,0.3,3.5,0.6c-0.4-0.7-1.2-1.2-1.3-2.2c1.2,1.3,2.2,2.4,3.6,3.2c1.3,0.7,2.5,1.7,3.7,2.6
		c1.3-1.9,1.2-3.6-0.4-5.1c-1.2-1.2-2.7-1.5-4.1-2.1c-1.8-0.7-3.6-1.4-5.5-2.1c0.3,0.7,0.9,1,0.7,1.6c-0.8-0.4-1.4-1-1.9-1.7
		c-1-1.4-2.5-0.7-3.7-0.9c-0.3-0.1-0.4,0.3-0.4,0.5c-0.3,1.4-0.8,2.8-0.9,4.3c0,0.9,0.2,1.2,1.1,0.9c0.6-0.2,1.3-0.4,2-0.1
		c-0.5,0.5-1.2,0.4-1.8,0.8c1.6,0.2,3.1,0.4,4.4,1.1c-1.2,0.2-2.4-0.4-3.6-0.2c2.3,2.2,5.4,2.6,8.2,3.6c-1.6,0.6-2.9-0.4-4.4-0.6
		C190.2,64.2,190.8,64.5,190.9,65.3z M81.3,115.9c0.6-0.8,1.1-1.4,1.8-1.8c0.2-0.1,0.5-0.1,0.5-0.4c-0.1-1.1-0.1-2.3-0.8-3.2
		c-0.3-0.5-1.1,0.4-1.7,0.5c-0.3,0.1-0.6,0.1-0.8,0.3c-0.4,0.5-1.4,0.7-1.1,1.6c0.3,0.9,0.3,1.8,0.2,2.7c-0.3,2.2,0.1,4.4,0.2,6.6
		c0.2,4.2,1.5,8.2,1.9,12.3c0.2,2.5,0.5,5,2.7,6.7c0.9,0.7,3.2,1.3,3.6,0.5c0.6-1,1.1-2.3,0.9-3.4c-0.1-1.3-0.4-2.6-1-3.8
		c-0.3-0.5-0.4-0.7-0.9-0.4c-0.7,0.3-1.4,0.5-2.2,0.1c0.7-0.6,1.4-0.5,2-0.7c0.4-0.1,0.9-0.2,0.7-0.7c-0.2-0.5,0.3-1.3-0.8-1.5
		c-2-0.3-3.2-2.1-5.3-2.5c0.7-0.4,1.2-0.4,1.7-0.4c1,0,2,0.1,3,0.1c1.1,0.1,1.4-0.2,1-1.3c-0.3-0.8-0.2-1.7-0.1-2.5
		c0.1-0.4,0.1-0.7,0-1c-0.5-1.2-1-2.5-1.5-3.8c-0.6,0.5-1.2,0.9-1.8,1.4c0.4,0.5,1.3,0.4,1.4,1.3c-1-0.1-2.1-0.4-2.3-1.2
		c-0.2-0.7,0.9-0.8,1.4-1.2c0.1-0.1,0.3-0.2,0.4-0.3c0.6-0.3,0.7-0.8,0.5-1.5c-0.3-1.1-0.8-2.1-0.9-3.2c-0.1-0.7-0.4-0.7-1-0.3
		C82.6,115.1,82.3,115.8,81.3,115.9z M182.9,93.8c0.1,0.4,0.3,0.6,0.3,0.9c0,0.9,0.4,1.3,1.3,1.4c3.4,0.5,6.7,0.8,10.1,0.1
		c0.6-0.1,0.8-0.4,0.9-0.9c0-2.3,0-4.6,0-6.8c0-0.5-0.1-0.6-0.6-0.5c-4.6,0.7-9.1,0.5-13.4-1.4c-0.7-0.3-0.9,0-1,0.6
		c-0.3,1.5-0.7,3-1,4.4c-0.4,1.6,0,2.6,1.5,3.4c1.4,0.8,1.4,0.8,1.7-0.8C182.7,94,182.7,94,182.9,93.8z M140.6,68
		c0,0.7,0.2,1.4,0.5,2c1.1,2.5,2,4.9,2.5,7.6c0.4,2.1,0.5,4.2,0.7,6.3c0.4,5.1,1.6,10.1-0.2,15.1c-0.2,0.5,0.2,1,0.4,1.3
		c0.3,0.3,0.7-0.2,1-0.4c0.7-0.7,1.2-1.5,1.5-2.4c1.7-4.3,1.5-8.8,1.1-13.2c-0.3-3-0.9-5.9-1.2-8.9c-0.2-2.9-0.6-5.8-2-8.4
		c-0.8-1.5-2.1-2.3-3.8-2.5c-0.7-0.1-1,0.3-1.1,1c-0.2,0.6,0,0.7,0.6,0.5c0.2-0.1,0.3,0.2,0.2,0.4c-0.4,0.6,0,0.6,0.5,0.6
		c0.3,0,0.6,0.1,0.6,0.5c0,0.4-0.3,0.7-0.5,0.9C140.9,68.5,140.8,68.3,140.6,68z M101.6,76.5c1.1,1.3,10.6,6.9,13.4,7.8
		c0.3-2.5,0.4-2.7,1.7-2.8c0.8,0,1.7-0.2,2.2,0.2c0.8,0.6,0.2,1.9,0.7,2.8c2.4-0.8,9.9-6.4,13-9.7C122.4,77.9,112,77.7,101.6,76.5z
		 M148.6,125.9c0.7,0.8,1.2,0.6,1.9-0.4c3.8-6.1,5.7-12.9,6.2-20c0.3-4,0.2-8,0.2-12c0-1.6,0.4-3.1,0.1-4.7c-0.2-1-0.5-1.3-1.5-0.9
		c-0.7,0.3-0.8,0.6-0.8,1.3c-0.1,5-0.2,10.1-0.5,15.1c-0.2,3.7-0.9,7.2-2.9,10.4c-0.2,0.3-0.3,0.6-0.3,1c0.1,1.2,0,2.5,0.2,3.7
		c0.5,2.6-0.9,4-2.9,5.1c-0.3,0.1-0.6,0.3-0.9,0.4c-0.6,0.2-0.7,0.5-0.5,1.2c0.3,1.1,0.8,2.2,0.8,3.4c0,1.2,0.9,2.3,1.7,2.2
		c1.6-0.2,1.9-0.7,1.6-2.4c-0.1-0.5-0.3-1.1-0.4-1.6c-0.1-1-0.6-1-1.3-0.5c-0.3,0.2-0.7,0.6-1.1,0.4c-0.4-0.3,0-0.7,0-1.1
		C148.4,126.3,148.5,126.1,148.6,125.9z M138.4,177.2c-0.9-3.5-0.6-6.9,0-10.3c0.6-3.5,1.6-6.9,3.5-10c0.2-0.4,0.3-0.7-0.2-0.9
		c-1.6-0.7-2.9-1.7-3.8-3.4c-1.9,3-3.5,6-4.1,9.5c-0.7,3.7-0.5,7.3,0.1,11c0.2,1.2,0.9,1.8,1.8,2.4c0.2-0.5-0.5-0.7-0.1-1.3
		C136.5,175.1,136.7,176.7,138.4,177.2z M115.6,174.7c-0.1-0.1-0.1-0.3-0.2-0.5c-0.8-1.9-1.6-3.7-2.3-5.7c-0.1-0.4-0.4-0.6-0.7-0.8
		c-2.3-1.4-4.5-2.8-6.5-4.6c-1.3-1.1-1.3-1.1-2.3,0.3c-0.4,0.5-0.8,1-1.2,1.5c-0.6,0.9-2.1,1.4-1.9,2.4c0.3,0.9,1.4,1.6,2.3,2.4
		c3.4,3.1,7.4,5.3,11.6,7.2c0.2,0.1,0.5,0.2,0.6-0.1C115.2,176.2,115.4,175.5,115.6,174.7z M109.9,20.5c-0.2,0.1-0.4,0.1-0.6,0.2
		c-3.3,0.6-6.2,2.2-9,4c-0.9,0.6-1.2,1.1-0.2,1.9c0.4,0.4,0.7,0.9,1,1.3c0.3,0.6,0.7,0.5,1.2,0.2c3.3-2,7-2.7,10.8-3.3
		c2.7-0.5,5.5-0.4,8.2-0.4c2.8,0,5.6,0.3,8.2,1.3c0.5,0.2,0.8,0.2,1-0.4c0.2-0.4,0.4-0.9,0.7-1.3c0.4-0.6,0.3-0.9-0.3-1.2
		c-2.9-1.5-5.8-2.6-9.1-2.8c-0.6,0-1.1,0.2-1.3,0.7c-0.3,1-1,1.1-1.8,1.2c-2.2,0.1-4.4,0.2-6.6,0.4c-0.6,0-0.7-0.3-1-0.7
		C110.9,21.1,110.5,20.6,109.9,20.5z M90,127.5c-0.1,0.2-0.1,0.3-0.1,0.3c-0.1,0.1-0.2,0.2-0.3,0.2c-1.5,0.1-1.6,1-1.3,2.1
		c0.1,0.3,0,0.6,0,1c0.2,1.6,0.7,3.1,1.4,4.8c0.8-1.1,1.3-2.3,2.2-3.2c0.1-0.1,0.1-0.3,0.1-0.4c-0.2-1.4,0.1-2.7,0.4-4
		c0.1-0.3,0.2-0.6-0.3-0.9c-1.3-0.8-2-2.1-2.4-3.6c-0.5-2.3-1-4.6-1.6-6.9c-2.2-7.5-4.1-15.1-4.2-23c0-1.1-0.8-1-1.4-1
		c-0.5,0-1.1,0.1-1,1.1c0.3,3.8,0.8,7.5,1.5,11.2c0.9,5.1,2.1,10.1,3.6,15c0.5,1.6,1.2,3.2,1.2,4.9C88,126.9,88.1,127.3,90,127.5z
		 M138.8,46.6c-0.1-5.8-0.3-10.1-2.1-14.1c-0.4-0.9-0.8-1.8-1.5-2.4c-1.8-1.5-3.9-2.6-6.2-3.3c-4.3-1.4-8.7-1.6-13-1.2
		c-4,0.4-8.1,0.6-11.8,2.7c-1.9,1.1-3.9,2.1-5.2,4c-2.4,3.6-3.5,7.6-2.9,11.9c0.4,3.4,1,6.8,1.6,10.2c0.2,1.1,0.4,2.2,1,3.2
		c0.1,0.2,0.1,0.5,0.5,0.4c0.2-0.1,0.4-0.3,0.4-0.6c0-0.3-0.1-0.6-0.1-0.8c-0.8-4-1.5-8.1-2.3-12.1c-1.3-7.2,2-12.6,8.3-15.4
		c3.3-1.5,6.9-2.3,10.6-2.4c4.7-0.2,9.3-0.3,13.7,1.6c4,1.7,6.5,4.6,7.3,8.9c0.5,2.7,0.4,5.4,0.5,8.1c0.1,3,0.4,6.1,0.1,9.1
		c0,0.3-0.1,0.8,0.2,0.8c0.5,0.1,0.4-0.5,0.5-0.8C138.4,51.3,138.8,48.2,138.8,46.6z M43.5,153.7c0.1-2.8,0-3.3-0.6-4.6
		c-0.2,0.4-0.3,0.8-0.5,1.1c-1,2.3-2.9,3.6-5.1,3.3c-1.9-0.3-3.4-1.3-4.9-2.4c-1.4-1.1-2.8-2.3-3.1-4.2c-0.3,0.7-0.6,1.4-0.7,2.2
		c-0.4,1.9-0.2,3.9,1.2,5.1c3.2,2.9,6.9,4.8,11.4,4.7c2.4-0.1,3.5-1.1,3.5-3.5c0-1.7,0.3-3.3,0.8-4.9c0.5-1.7,0.3-2.1-1.3-3.2
		c-0.2-0.2-0.4-0.8-0.8-0.3c-0.3,0.3-0.3,0.8,0,1.2C44.9,149.9,44.1,151.8,43.5,153.7z M119.9,110.2c0-0.8-0.1-1.9-0.2-3
		c0-0.3,0-0.6-0.5-0.6c-1.1,0.1-2.1,0.1-3.2,0.2c-3.6,0.2-7.2,0.8-10.8,1.1c-1.9,0.2-1.9,0.2-1.6,2c0.2,1.2,0.1,2.5,0.6,3.7
		c0.4,0.9,0.8,1.1,1.6,0.6c0.7-0.4,1.4-0.5,2.2-0.6c3.5-0.5,7.1-0.7,10.6-0.9c1,0,1.4-0.4,1.3-1.4
		C119.8,111.1,119.9,110.8,119.9,110.2z M120.4,62.4c0.3,0.9,0.7,1.8,0.8,2.7c0.1,1,0.5,1,1.3,0.9c3.5-0.3,7-0.9,10.3-2.1
		c2.8-1,5.7-1.8,7.8-3.9c0.7-0.7,1.5-1.4,1.8-2.3c0.2-0.8-0.7-1-0.9-1.7c-0.1-0.3-0.3-0.6-0.5-1c-1.3,1.7-3.3,2.1-4.9,3
		c-0.6,0.4-1.1,0.5-0.4,1.3c0.6,0.7,0.6,1.6,0.1,2.3c-0.6,0.7-1.4,1.2-2.5,0.9c0.3-0.7,0.9-0.7,1.3-1c0.7-0.7,0.7-1.4,0.3-2.2
		c-0.4-0.8-1-0.2-1.5-0.1c-1.1,0.4-2.2,0.8-3.3,1.2C127.1,61.5,123.8,62,120.4,62.4z M108.5,100.5c-3.4,0.2-7.6,0.8-11.7,0.8
		c-0.3,0-0.7,0-0.8,0.4c-0.2,0.4,0.2,0.6,0.5,0.9c2,1.5,4.1,3,6.1,4.4c0.3,0.2,0.6,0.5,1.1,0.5c2.8-0.4,5.7-0.8,8.5-1.2
		c0.6-0.1,0.6-0.3,0.5-0.8c-0.2-0.8-0.4-1.7-0.5-2.6C111.7,100.4,111.7,100.4,108.5,100.5z M197.3,76.1c0.4,0.4,0.3,0.8,0.4,1.2
		c0,0.3-0.2,0.7,0.3,0.7c0.5,0,0.6-0.3,0.7-0.8c0.1-0.9,0.2-1.8,0.3-2.7c0.1-0.7,0.2-1.5,0-2.3c-0.7,0.6-1.3,1.2-2.1,1.4
		c-0.8,0.2-1.1,0.6-1,1.6c0.1,0.8,0.3,1.8-0.8,2.6c0-1,0.1-1.9-0.1-2.7c-0.1-0.4-0.2-0.7-0.7-0.7c-1.8-0.2-3.6,0.2-5.4-0.3
		c-0.1,0-0.2,0-0.2,0c-2,0.3-4-0.1-5.8-0.9c-0.4-0.2-1.2-0.3-1-0.9c0.2-0.6,0.8,0.2,1.3-0.1c-0.5-0.2-0.5-1-1.3-0.8
		c-1.1,0.3-1.9,1.5-1.4,2.5c0.6,1.1,0.5,2.1,0.5,3.2c0,0.5,0.2,0.9,0.7,1.1c0.7,0.2,1.3,0.6,2,0.7c3.8,0.9,7.7,0.7,11.5,0.1
		c1.1-0.2,1.9-0.4,1.6-1.7C196.8,76.7,196.9,76.3,197.3,76.1z M87.6,63.4c-0.8,0.3-0.9,0.6-0.6,1.3c0.4,1.1,1.2,1.5,2.3,1.7
		c0.6,0.1,0.7-0.1,0.7-0.6c0-1.2-0.7-2.2-1.3-3.2c-1-1.9-2.7-3-4.9-2.9c-3.6,0.1-6.1,2.1-7.8,5.1c-2.3,4.2-1.8,8.8-1.5,13.4
		c0,0,0.1,0.1,0.2,0.1c0.1-0.1,0.2-0.1,0.3-0.2c0.3-0.7,0.5-1.6,1.2-0.3c0.1,0.1,0.5,0.1,0.7,0c0.4-0.1,0.1-0.5,0.1-0.7
		c-0.4-3-0.4-5.9,0.4-8.8c0.5-1.8,1.4-3.4,2.6-4.8C81.5,61.8,84.8,61.8,87.6,63.4z M83.7,88.9c0.9-0.6,1.7-0.6,2.5-0.7
		c0.6,0,0.8-0.3,0.8-0.9c-0.1-1.4-0.2-2.9-0.2-4.3c0-0.8-0.3-1-1-0.9c-1.3,0.2-2.5,0.1-3.8,0.5c1.2-0.9,2.6-1.3,4.1-1.5
		c1.3-0.2,0.6-1.3,0.7-1.9c0-0.8-0.6-0.3-1-0.3c-1,0.2-2,0.4-2.9,0.7c-1,0.3-2,0.4-2.9,1.1c-0.4,0.3-0.7,0.6-0.7,1
		c0,0.5,0.5,0.6,0.9,0.6c0.6,0.1,0.8,0.5,0.7,1.1c-0.5,1.5-0.2,2.9,0.2,4.3c0.2,0.9,0.4,1.6-0.4,2.4c-0.4,0.4-0.7,1.2-0.3,1.8
		c0.2,0.4,0.7,0.6,1.2,0.5c1.7-0.5,3.4-1,5.1-1.5c0.8-0.2,0.5-0.7,0.5-1.2c0-0.6-0.3-0.7-0.8-0.7C85.5,88.9,84.8,89.2,83.7,88.9z
		 M186.5,71.8c2.1,0.2,4-0.3,5.6-1.9c-1.3-0.4-2.6-0.9-3.9-1.4c-1.9-0.7-3.8-1.6-5.2-3c-1-1-1.6-1.3-2.8-0.5
		c-0.9,0.6-1.1,0.9-0.4,1.7c0.8,0.9,1.6,1.7,2.5,2.6c0.8,0.8,1.7,1.5,2,2.6c0.2,0.7,0.6,0.9,1.2,0.9c1.2,0.1,2.3,0.6,3.5,0.1
		c0.7-0.3,1.3,0.5,2.1,0.3c0.9-0.3,1.8-0.3,2.7,0c1.3,0.3,2.1-0.6,3.1-1.1c-0.9-0.1-1.8,0.4-2.6-0.3c2-0.1,3.6-0.9,5-2.3
		c-1.2,0.7-2.5,0.9-3.8,0.7c-1.8-0.3-3.2-0.2-3.6,1.9c0,0.1-0.1,0.1-0.1,0.2c-0.1,0-0.2,0.1-0.2,0.1c-0.4-0.3,0.1-0.6-0.2-1
		C189.9,72.8,188.2,72.2,186.5,71.8z M140.1,101c-0.5,0-1.4,0.1-2.3,0.2c-0.7,0-0.8,0.3-0.7,0.9c0.1,1.2,0.1,2.3,0.2,3.5
		c0,1.5,0.4,3,1,4.4c0.1,0.3,0.2,0.8,0.8,0.6c1.2-0.5,2.5-0.4,3.8-0.2c1,0.1,1.2-0.2,1.3-1.1c0.2-1.9,0-3.7-0.3-5.5
		C143.3,100.6,143.9,101,140.1,101z M128,100.8C128,100.8,128,100.8,128,100.8c0-0.7,0-1.4,0-2.2c0-1.3-0.6-2-1.8-2
		c-2.1,0-4.2,0.2-6.2,0.3c-0.3,0-0.7,0-0.5,0.4c0.3,0.7-0.2,0.6-0.5,0.6c-1.1,0-2.2,0.1-3.2,0c-1-0.1-1.6,0.6-1.6,1.4
		c0.1,1.8,0,3.6,0.1,5.4c0.1,1.1,0.5,1.5,1.6,1c0.4-0.2,0.9-0.2,1.3-0.2c3.4,0.1,6.7-0.7,10-0.6c0.7,0,1.1-0.3,1-1.1
		C128,102.8,128,101.8,128,100.8z M20.5,125.4c-2.7,0.2-4.7,1.7-6.8,3.1c-2.7,1.8-3,5.5-1.6,8.2c3.1,6,8.2,10.2,13.6,14
		c0.7,0.5,0.9,0.3,1.2-0.4c0.3-0.8-0.2-1-0.7-1.2c-4.2-2.7-7.8-6-10.8-9.9c-3.4-4.4-2.2-9.4,1.9-12
		C18.4,126.4,19.4,125.8,20.5,125.4z M202.3,93.8c-0.1,0.2-0.1,0.3-0.2,0.4c-0.5,0.3-1,0.5-1.6,0.6c-0.2,0-0.4,0.1-0.3,0.4
		c0,0.2,0.1,0.3,0.3,0.3c0.7,0.2,2.1-0.7,2.2-1.3c0.2-3,0.3-6,0.2-9c-0.4-0.1-0.4,0.5-0.9,0.4c0.3-0.7,0.9-1.3,0.9-2.2
		c0-2.2,0.1-4.4-0.1-6.6c-0.1-1.2-1-2-2.1-2c-0.3,0-0.3,0.1-0.4,0.3c-0.1,0.8-0.5,1.5-0.5,2.3c-0.1,2.4,0.8,4.8,0.3,7.3
		c-0.2,0.9-0.5,1.8-0.4,2.7c0.2,1.7,0.1,3.4,0.2,5c0.1,1.7,0,1.7,1.6,1.5C201.7,93.8,202,93.8,202.3,93.8z M182.5,80.9
		c0.9-0.2,1.6,0,2.2,0.2c2.6,0.7,5.1,0.6,7.7,0.4c0.3,0,0.6,0,0.6-0.4c0-0.3-0.3-0.3-0.5-0.4c-0.9-0.4-1.8-0.4-2.7-0.4
		c-2.8,0-5.5-0.1-8.1-1.2c-0.7-0.3-0.7,0.2-0.8,0.6c-0.1,1-0.1,2-0.2,3c-0.1,1.7,0.1,2,1.8,2.4c3.2,0.8,6.5,0.8,9.8,0.9
		c0.1,0,0.4-0.1,0.4-0.2c0.3-0.6,0.3-1.2,0.2-1.8c-0.1-0.6-0.6-0.5-1-0.6C188.8,83.1,185.7,82.2,182.5,80.9z M98.6,65.8
		c-2,1.2-2.1,2.4-0.3,3.4c1.9,1.1,4,1.8,6.2,2.2c6.2,0.9,12.4,1.2,18.6,0.2c4.9-0.7,9.5-2.2,13.8-4.8c0.7-0.4,1.2-1,1.6-1.7
		c0.1-0.3,0.2-0.6,0-0.8c-0.4-0.3-0.5,0.2-0.6,0.3c-0.5,0.6-1.2,1.1-1.9,1.5c-4.2,2.5-8.9,3.7-13.7,4.3c-4.7,0.5-9.5,0.5-14.2,0.2
		c-3-0.2-5.9-0.9-8.6-2.4C98.5,67.8,97.6,67.3,98.6,65.8z M96.7,214.9c-1.6,1.8-2.6,3.9-2.7,6.3c-0.1,3,1.2,5.7,1.7,8.6
		c0.1,0.4,0.4,0.6,0.8,0.7c0.5,0.1,0.6-0.3,0.8-0.6c0.7-1.1,1.3-2.2,1.8-3.4c0.3-0.8,1.4-1.6-0.3-2.1c-0.1,0-0.2-0.2-0.2-0.3
		c-0.1-2-1.1-3.9-0.9-5.9c0-0.4-0.1-0.9-0.2-1.3c-0.1-0.2,0-0.6-0.4-0.7c-0.3,0-0.4,0.3-0.5,0.6c-0.6,0.9-0.7,2.1-1.5,3
		C95,218,96.3,216.6,96.7,214.9z M94.9,162.4c0.3,0,0.6-0.1,0.9-0.6c1-1.5,2.1-2.9,3.8-3.7c0.3-0.2,0.4-0.3,0.1-0.6
		c-1.1-1.4-2-3-2.9-4.5c-0.3-0.6-0.5-0.4-0.9-0.1c-1.4,1.3-2.5,2.8-3.4,4.5c-1.2,2.2-1.2,2.3,0.6,3.9
		C93.5,161.8,93.9,162.4,94.9,162.4z M87.7,154.1c-2.2,1.5-2.7,3-1.6,4.9c0.6,1,1.5,1.8,2.3,2.6c2.6,2.6,5.4,5.1,8.1,7.7
		c1.3,1.2,2.7,1.2,4.2,0.7c0.2-0.1,0.5-0.1,0.4-0.4c-0.1-0.7-1.7-1.8-2.5-1.7c-0.6,0.1-1.4,0.3-1.8-0.2c-1.2-1.3-3-2.3-3.1-4.4
		c0-0.3-0.3-0.5-0.5-0.6c-1.3-0.9-2.4-2.1-3.5-3.3c-1.3-1.4-2.3-2.8-1.9-4.8C87.8,154.4,87.7,154.3,87.7,154.1z M117.2,150.4
		c1.1-1,1.6-2.6,2.7-3c1.6-0.6,1.1-1.6,0.9-2.6c-0.1-0.9-0.3-1.7-0.4-2.6c-0.5-3.3-0.5-3.3-3.8-3.7c-0.8-0.1-1.1,0.1-1.1,0.9
		c0.1,2.2,0.5,4.4,0.8,6.5C116.6,147.4,116.9,148.8,117.2,150.4z M142.4,60c1.2,0.3,2.1,0.5,3,0.9c0.8,0.5,1,0.1,1-0.7
		c0.1-4.4-0.6-8.5-2.8-12.4c-0.5-0.9-0.8-0.8-1.3-0.1c-0.4,0.5-0.7,1.1-0.6,1.8c0.1,1.9-0.1,3.9,1,5.6
		C143.8,56.8,144.1,58.3,142.4,60z M77.7,72.6c1.1-1.4,2.6-2.1,4.2-2.6c0.3-0.1,0.7-0.1,0.8-0.5c0.5-1.6,1.6-2.4,3.1-2.8
		c0.6-0.2,0.7-0.5,0.4-1c-0.2-0.4-0.4-0.9-0.6-1.3c-0.5-1-3.5-1.6-4.3-0.8C78.9,66,77.8,69.1,77.7,72.6z M101.7,235.7
		c0.7,0,1.3,0.1,2,0.2c0.8,0,0.9-0.3,0.6-0.9c-1.2-2.5-2.5-5-3.1-7.7c-0.1-0.4-0.3-1-0.7-1c-0.4-0.1-0.7,0.5-0.9,0.8
		c-0.9,1.2-1,2.8-2.1,4c-0.2,0.2,0,0.4,0.1,0.5c1.1,1.6,2.2,3.1,3.3,4.7c0.9,1.1,2.7,1.4,4,0.5C103.7,236.5,102.6,236.5,101.7,235.7
		z M150.6,149.4c-0.1-0.2-0.1-0.4-0.1-0.5c-0.9-2.1-2.5-3.7-4-5.3c-0.2-0.3-0.5-0.4-0.9-0.1c-1.1,0.8-2.2,1.6-2.9,2.9
		c-0.3,0.4-0.2,0.8,0.1,1.2c1.1,1.1,2.1,2.2,3.3,3.3c1.1,0.9,3.7,0.4,4.4-0.9C150.6,149.8,150.6,149.6,150.6,149.4z M135.3,155.1
		c0.7-1.1,1.9-2.2,2-3.4c0.3-3.1,2.6-4.4,4.6-5.9c0.4-0.3,0.9-0.5,1.2-0.9c1.9-2.4,4.5-3.9,7.3-5c0.5-0.2,0.8-0.4,0.6-0.9
		c-0.1-0.5-0.6-0.3-0.9-0.2c-1.4,0.3-2.7,0.7-3.9,1.4c-4.6,2.6-7.7,6.5-10.3,11C135.2,152.3,134.8,153.6,135.3,155.1z M196.1,37.8
		c-1.3-0.6-1.7,0.2-2,0.9c-1.1,2.7-1.7,5.5-2.3,8.3c-0.3,1.1-0.1,1.7,1.2,1.8c1.8,0.3,1.8,0.3,2.2-1.5c0.1-0.3,0.1-0.6,0.2-0.8
		c0.3-0.9,0.1-1.3-0.9-1.4c-0.6,0-1.2-0.1-1.8-0.8c1.1,0.3,1.9-0.1,2.7,0c0.2,0,0.5,0.1,0.6-0.2c0.4-1.6,1.1-3.1,1-4.8
		c0-0.6-0.4-0.7-0.8-0.9c-0.4-0.2-0.7,0.1-1,0.4c-0.4,0.5-0.6,1.2-1.1,2.1C194.3,39.6,194.6,38.5,196.1,37.8z M143.9,46.8
		c0.4,0.5,0.8,1,1,1.5c1.8,3.6,2.8,7.4,2.7,11.5c0,0.5-0.1,1,0.1,1.5c0.3,1,1.2,0.4,1.8,0.6c0.6,0.1,0.6-0.4,0.5-0.8
		c0-3.2-0.4-6.4-1.2-9.6c-0.5-1.9-1.4-3.4-2.5-5c0.5,1.8,1.2,3.5,1.3,5.4c-0.5-0.1-0.6-0.5-0.7-0.8c-0.5-1.2-1-2.3-1.6-3.5
		C145.1,47.2,144.9,46.4,143.9,46.8z M79.7,84.3c0.1-0.4-0.1-0.8-0.7-1.2c-1-0.7-2.1-1.2-2.8-2.3c-0.5-0.7-1.3-0.4-1.6,0.3
		c-0.1,0.4-0.1,0.9,0.1,1.3c0.4,0.7,0.2,1.2-0.2,1.8c-1.4,2-0.6,4.1,1.7,4.7c0.5,0.1,0.6,0.4,0.7,0.8c0.3,1.1,0.8,2.1,1.2,3.1
		c0.1,0.3,0.2,0.7,0.7,0.4c0.3-0.2,0.6-0.3,0.4-0.7c-0.6-1.1,0-1.9,0.5-2.8c0.2-0.3,0.3-0.6,0.2-1C79.7,87.3,79.6,85.9,79.7,84.3z
		 M107.2,163.2c-0.1-1.5-0.2-2.7-1.2-3.5c-4.7-3.9-7.7-9-10.9-14.1c-0.2-0.3-0.1-1.1-0.7-0.7c-0.5,0.4-1.3,1-0.7,1.8
		c2,2.5,3.4,5.3,5.2,7.9c0.5,0.8,1,1.9,1.7,2.1c1.2,0.4,1.9,1.3,2.9,2c0.5,0.3,1.1,0.9,1.1,1.5C104.7,161.8,106.1,162.2,107.2,163.2
		z M55.1,100.5c0.1,1.2,0.9,1.9,1.2,2.7c0.1,0.3,0.5,0.2,0.6,0c0.3-0.4,0.6-0.8,0.6-1.4c0-0.8,0.2-1.6,0.6-2.3
		c1.1-2.4,2.7-4.3,4.4-6.2c0.5-0.5,0.6-1.9,0-2.4c-0.7-0.6-1.3-0.1-1.8,0.5c-1.9,2.2-3.2,4.8-4.9,7.2C55.4,99.2,55.3,100,55.1,100.5
		z M187.3,39.7c0.3-0.5,0.9-0.1,1-0.7c0-0.2-0.1-0.5-0.3-0.6c-0.5-0.2-0.9,0.1-1.2,0.3c-0.2,0.1-0.3,0.3-0.4,0.4
		c-0.7,0.8-1.1,1.7-1.4,2.7c-0.9,3.2-1.1,6.4-1.2,9.7c0,1.1-0.2,2.2-0.6,3.3c-0.6,1.4-0.5,3-0.5,4.5c0,0.4,0.2,0.8,0.6,0.8
		c0.4,0,0.3-0.5,0.3-0.8c0-1.5,0.2-2.9,0.6-4.4c0.5-1.4,0.9-2.7,0.7-4.3c-0.3-2,0.1-4.1,0.5-6.1c0.1-0.5,0.1-0.7,0.8-0.5
		c1.4,0.4,1.9,0,2.1-1.4c0.1-0.6,0.1-1.1,0.3-1.7C188.7,40.2,188.4,39.7,187.3,39.7z M133,101.2c1-0.2,1.6-0.3,2.3-0.4
		c0.3-0.1,0.7,0,0.6-0.5c-0.1-0.4-0.4-0.5-0.7-0.4c-0.8,0.1-1.7,0.1-2.5,0.2c-1.1,0.2-2.7-0.4-3.2,0.5c-0.5,0.9,0,2.3,0,3.5
		c0,0.5,0.2,0.7,0.7,0.7c1.8,0.1,3.5,0.2,5.3,0.3c0.3,0,0.6,0.1,0.7-0.3c0.1-1.1,0.3-2.3-0.1-3.3c-0.3-0.6-1.3-0.1-2-0.2
		C133.7,101.2,133.5,101.2,133,101.2z M89.7,117.9c0.1,0,0.1,0,0.2,0c0-0.3-0.1-0.6-0.1-0.9c-0.6-4.1-1.1-8.1-2.1-12.1
		c-0.9-3.6-1.5-7.3-2.3-10.9c-0.1-0.3,0-0.7-0.4-0.7c-0.6,0-0.4,0.5-0.4,0.8c0.1,1.3,0.2,2.6,0.4,3.9c0.7,4.8,1.6,9.5,2.9,14.2
		C88.4,114,89.1,115.9,89.7,117.9z M46.6,142.9c-0.6,0.8-1.2,1.5-1.8,2.3c-0.2,0.3-0.5,0.6-0.4,1c0.2,0.4,0.7,0.5,1.1,0.6
		c2.6,0.2,6.2-2.9,6.4-5.5c0.1-0.6,0-1.1-0.8-1c-0.7,0.1-1.4-0.1-2.1-0.4c-1-0.4-1.4-0.3-1.5,0.9c0,1.1-0.1,2.3-1,3.2
		C46.4,143.6,46.8,143.3,46.6,142.9z M97,132.8c-2.3-0.7-3.5-0.5-4.8,1.3c-2,2.7-2.7,6-3.7,9.1c-0.1,0.4,0.1,0.7,0.5,0.8
		c0.9,0.2,1.4-0.1,1.6-1.1c0.6-2.5,1.4-5,2.8-7.2c0.5-0.9,1-1.8,2.3-1.9C96.1,133.8,96.7,133.4,97,132.8z M118.2,122.7
		c-0.3-1.2-0.2-3.1,0-3.7c0.4-1.2,2-1.8,3.2-1.3c1.3,0.6,1.8,1.7,2.2,3c0.3,1.2,1.1,1.9,2.5,2.1c-0.9-1.3-1.3-2.6-1.8-3.9
		c-0.7-1.9-2.1-2.6-4.5-2.3c-1.4,0.2-2.6,1.8-2.7,3.5c0,0.8,0.1,1.7-0.2,2.5c-0.4,0.8,0,0.8,0.6,0.7c1.8-0.1,3.6-0.2,5.4-0.3
		c0.2,0,0.6,0.1,0.6-0.2c0.1-0.5-0.3-0.9-0.5-1.3c-0.2-0.3-0.4,0-0.6,0.1c-0.9,0.8-2,0.7-2.9,0.3
		C118.6,121.5,118.5,121.9,118.2,122.7z M136.5,147.9c-2.4,1.5-4.6,3.2-6.7,5c-0.6,0.5-1,0.9-0.3,1.7c0.5,0.5,0.6,1.3,0.7,2
		c0.3,1.3,0.1,2.7,0.6,4.3C131.4,155.8,133.3,151.6,136.5,147.9z M152.4,139.3c1-0.5,2-0.9,3.1-1.4c-0.7-0.4-0.9-1-1.1-1.6
		c-0.4-1.1-0.9-2.2-1.3-3.3c-0.2-0.5-0.2-1.1-1-0.9c-0.7,0.2-1.7,0-2.1,1c-0.3,0.9,0.4,1.5,0.4,2.1c0,1.1,0.5,1.6,1.1,2.3
		C152,138,152.2,138.6,152.4,139.3z M95.1,136.9c0.5,0,1.1-0.1,1.6-0.4c3.3-1.9,5.2-4.8,6.5-8.3c0.1-0.2,0.2-0.4-0.1-0.6
		c-0.6-0.3-1.8,0.1-2.1,0.8c-1.2,2.9-2.5,5.6-5.8,6.7c-0.3,0.1-0.5,0.4-0.7,0.7c-0.2,0.3-0.5,0.6-0.3,0.9
		C94.3,137,94.7,136.9,95.1,136.9z M93.2,147.2c-1.1,1.3-2.1,2.8-3.4,3.9c-1.7,1.5-1.3,3.3-1.3,5.1c0,0.3,0.1,0.6,0.4,0.6
		c0.4,0.1,0.4-0.3,0.5-0.5c0.9-2,2.2-3.8,3.7-5.4c1.6-1.7,1.6-1.7,0.3-3.7C93.4,147.2,93.3,147.2,93.2,147.2z M114.7,61.4
		c3-0.1,6.1,0,9.2-0.7c0.3-0.1,0.7,0,0.7-0.5c0-0.5-0.4-0.5-0.8-0.5c-0.3,0-0.6,0-0.8,0.1c-2.2,0.4-4.4,0.6-6.7,0.6
		c-4.2,0.1-8.4-0.2-12.5-1c-0.3-0.1-0.6-0.3-0.7,0.2c-0.1,0.3,0,0.7,0.3,0.8c0.2,0.1,0.5,0.1,0.7,0.1
		C107.6,61.3,111,61.3,114.7,61.4z M171.6,77.5c2.9,3.1,3,3.5,3,6c0,1.4,0.9,0.8,1.6,0.9c0.9,0.1,0.8-0.4,0.8-1
		c0-1.2-0.9-2.1-1.4-3.4c0.8,0.6,1.1,1.1,1.5,1.6c0.5,0.8,0.8,1.6,0.9,2.6c0.1,0.7,0.8,0.8,1.2,0.7c0.6-0.1,0.1-0.6,0-0.9
		c-0.3-0.7-0.6-1.4-1-2.1C176.7,79.5,175,77.4,171.6,77.5z M188.7,53.5c1.5,0.6,2.9,0.7,4.2,1c1.4,0.3,1.4,0.3,1.4-1.1
		c0-0.4-0.1-0.7,0-1.1c0.3-1.5,0.4-2.9-1.7-3c-0.1,0-0.2-0.1-0.3-0.2c-0.6-0.5-0.8-0.3-1,0.4C190.9,51,190.4,52.5,188.7,53.5z
		 M198.7,90.8C198.7,90.8,198.7,90.8,198.7,90.8c-0.1-1-0.1-1.9-0.1-2.9c0-1.5,0-1.5-1.3-0.8c-0.4,0.3-1.3,0.1-1.2,1
		c0.1,2.3,0.2,4.5,0.3,6.8c0,0.2-0.1,0.5,0.3,0.6c0.8,0.3,2-0.6,2-1.4C198.7,93,198.7,91.9,198.7,90.8z M103.5,160.8
		c0-0.5-0.5-1-1-1.5c-0.4-0.4-0.8-1-1.5-1c-0.1,0-0.3,0.4-0.4,0.6c-0.1,0.8,0.8,0.9,1.1,1.4c0,0.1,0.1,0.1,0.2,0.1
		c1.1,0.2,0.7,0.9,0.3,1.4c-0.8,1.2-1.8,2.2-3,3.1c-1.1,0.9-1.3,0.9-2.3-0.1c-0.4-0.4-0.8-0.9-1.3-1.2c-0.3-0.2-0.8-0.2-1,0
		c-0.3,0.3,0,0.6,0.2,0.8c0.6,0.7,1.3,1.3,1.9,1.9c0.8,0.8,1.5,0.7,2.3,0.1c1.8-1.2,3.1-2.9,4.2-4.7
		C103.5,161.5,103.5,161.2,103.5,160.8z M177.6,61.1c-0.1-0.6,1.3-0.4,0.6-1.1c-0.8-0.9-2-1.8-3.2-1.7c-1.4,0.1-1-0.6-0.9-1.2
		c0-0.2,0.3-0.4,0-0.6c-1,0.3-1,1.1-1,1.9c0,0.4,0,0.9,0.6,1c2.5,0.3,3.5,2.2,4.6,4.1c0.7,1.2,1.7,1.4,2.7,0.5
		c0.2-0.2,0.3-0.4,0.1-0.6c-0.6-0.9-1.1-1.8-2-2.5C178.6,60.2,178.3,61.3,177.6,61.1C177.7,61.1,177.6,61.1,177.6,61.1z M87,76.2
		c0-0.3,0-0.6,0-1c0-0.4-0.1-0.6-0.6-0.5c-1.3,0.3-2.6,0.3-3.9,0.3c-0.5,0-0.8,0.2-0.8,0.8c0,0.6-0.1,1.3-0.2,1.9
		c-0.1,0.8,0.2,1,0.9,0.9c1-0.2,1.9-0.5,2.9-0.6C87,77.8,87,77.9,87,76.2z M132.6,173.2c-0.7,1-0.7,1.8,0.3,2.7
		c1.4,1.2,2.6,2.5,4,3.8c1.2,1.1,2.6,1.9,4.4,2c-0.2-1.5-1.2-2.3-2.4-2.8C136.1,177.6,134.4,175.4,132.6,173.2z M152,103.3
		c-0.9,0.7-1.6,1.1-2.5,1.3c-0.4,0.1-0.7,0.4-0.1,0.9c1.6,1.2,1.5,3-0.2,3.9c-1.1,0.6-2.3,0.7-3.5,0.7c-0.2,0-0.5-0.1-0.6,0.2
		c-0.2,0.3,0.1,0.5,0.2,0.8c0.2,0.4,0.6,0.3,0.9,0.4c1.2,0.2,2.4-0.6,3.6,0.1c0.2,0.1,0.4-0.2,0.5-0.4
		C151.4,108.8,151.9,106.2,152,103.3z M156,147.1c-0.1-0.2-0.2-0.3-0.2-0.4c-1.1-1.9-2.4-3.6-3.8-5.2c-0.5-0.6-2.6-0.5-2.9,0.2
		c-0.3,0.8,0.8,0.7,1.1,1.2c0.1,0.2,0.3,0.3,0.4,0.4c1.3,1.2,2.3,2.6,3.3,4.1c0.4,0.6,0.8,0.5,1.3,0.2
		C155.5,147.4,155.9,147.5,156,147.1z M87.8,71.1c-1.2,0.1-2.4,0.2-3.7,0.3c-1,0.1-2,0.3-2.9,0.6c-0.4,0.2-0.7,0.4-0.7,0.9
		c0,0.5,0.2,0.9,0.6,1.1c0.6,0.3,1.2,0.4,1.9,0.3c0.7-0.1,1.5-0.3,2.2-0.4C86.8,73.7,88,73.1,87.8,71.1z M164.2,74.3
		c1.3-0.5,2.4-0.4,3.5-0.4c-1.5-2-5.2-4.6-7.3-5.1c1.1,0.8,1.8,1.8,2.2,3c0.4,1.2,0.1,2.5,0.3,3.9c0.9-0.6,1.9-0.7,3-1.2
		C165.3,74.4,164.9,74.4,164.2,74.3z M31.3,164.6c-0.2-1.8-0.4-3.4-0.1-5.1c0.4-2.7-0.3-3.3-2.5-4.6c0,1.4,0.3,2.7,1,3.9
		c0.3,0.6,1,1.4,0.5,1.8c-0.7,0.5-0.9-0.7-1.4-1C28.4,161.6,29.6,164,31.3,164.6z M165.8,70.5c-0.1-0.3-0.2-0.4-0.2-0.5
		c-1.7-2.5-4.3-3.6-7-4.4c-1-0.3-2.1-0.6-3.3-0.5c-0.8,0.1-1.2,0.6-1.2,1.2c0,0.7,0.7,0.4,1.2,0.4c1.4,0.1,2.8,0.3,4.1,0.7
		C161.6,68,163.7,69,165.8,70.5z M90.8,158.9c0.5,0,0.5-0.4,0.6-0.7c0.2-1.2,0.9-2.2,1.6-3.2c0.5-0.7,1-1.3,1.6-1.9
		c0.6-0.6,0-1-0.3-1.5c-0.2-0.3-0.4-0.4-0.7-0.1c-1.6,1.7-3.1,3.5-3.8,5.8C89.6,158.1,90.4,158.4,90.8,158.9z M145.1,151.5
		c0-0.1-0.1-0.1-0.1-0.2c-0.9-0.9-1.7-1.9-2.6-2.8c-0.2-0.2-0.4-0.2-0.6,0c-0.6,0.6-1.2,1.3-1.6,2c-0.2,0.3-0.2,0.6,0.1,0.9
		c0.8,0.7,1.7,1.4,2.8,1.7C143.6,153.2,145.2,151.9,145.1,151.5z M152.8,67c-1.2-1.7-2.8-1.7-4.4-1.6c-0.8,0.1-2.1-0.5-2.5,0.3
		c-0.4,0.8,0.7,1.7,0.9,2.6c0.1,0.3,0.3,0.4,0.6,0.2C149,67.4,150.9,67.3,152.8,67z M147.7,62.9c-1,0.1-2,0.1-2.8,0.5
		c-0.3,0.1-0.5,0.4-0.6,0.7c0,0.4,0.4,0.5,0.6,0.7c0.4,0.3,0.8-0.2,1.3-0.2c2.2-0.1,4.4-0.8,6.4,0.8c0.4,0.3,0.7,0,0.8-0.4
		c0.2-0.8-0.5-1.5-1.6-1.7C150.5,63.1,149.1,63,147.7,62.9z M101.1,161.7c-0.1-1-0.6-1.5-1-2c-0.3-0.4-0.7-0.4-1,0
		c-0.9,0.9-1.8,1.8-2.6,2.8c-0.2,0.2-0.5,0.5-0.1,0.8c0.7,0.4,1.2,1.2,2.1,0.9C99.4,163.8,101.1,162,101.1,161.7z M132.1,169
		c0-5.2,0.8-10.1,1.2-15C131.9,158.8,130.1,163.6,132.1,169z M37,162.5c0.2,1,0.3,1.7,0.4,2.4c0.2,0.8,0.8,1.1,1.5,1.2
		c1.8,0.2,4.3-1.4,5-3.2C41.7,163.6,39.4,164.8,37,162.5z M152.6,146.8c-0.2-0.2-0.4-0.5-0.6-0.8c-0.9-1.3-2-2.5-3.2-3.5
		c-0.7-0.6-1.2-0.1-1.7,0.3c-0.6,0.5,0.2,0.7,0.4,0.9c1.1,1.1,2.3,2.1,3.1,3.5c0.5,0.7,1,0.2,1.5,0.1
		C152.3,147.2,152.6,147.3,152.6,146.8z M141.5,147c-1.1,0.4-1.6,1.3-2.2,2.1c-1.4,2-1.6,2.1,0.2,3.9c0.3,0.3,0.6,0.7,0.9,0.9
		c1.8,1.4,3.7,2.2,5.3-0.5c0.2-0.3,0.8-0.7,0.3-1.1c-0.5-0.3-0.7,0.4-0.9,0.7c-1.3,1.6-2.3,1.7-3.9,0.4c-0.6-0.5-1-1.1-1.6-1.5
		c-0.7-0.5-0.7-1-0.3-1.7c0.4-0.7,0.9-1.4,1.4-2C141.1,147.8,141.6,147.6,141.5,147z M97.1,137.5c-1.1,0-1.6,0.4-1.9,1.4
		c-0.5,2-1.2,3.7-3.6,4.1c-0.6,0.1-0.7,0.9-0.6,1.4c0,0.5,0.6,0.3,0.9,0.4c1.2,0.2,2.1-0.3,2.6-1.4
		C95.3,141.4,96.2,139.5,97.1,137.5z M149.8,89.3c-0.2,1.9-0.4,3.6-0.6,5.2c-0.3,1.8-0.9,3.5-1.8,5c-0.2,0.3-0.6,0.6-0.4,0.9
		c0.2,0.4,0.8,0.4,1.2,0.4c0.5,0,0.9-0.3,1.1-0.8c0.4-0.8,0.6-1.7,0.7-2.6C150.1,94.7,149.9,92.1,149.8,89.3z M111.2,20.4
		c0.4,0.5,0.6,1.2,1.2,1.2c2.3-0.2,4.5-0.3,6.8-0.3c0.6,0,0.6-0.6,0.7-0.9c0.1-0.5-0.4-0.5-0.6-0.5C116.7,19.8,114,19.8,111.2,20.4z
		 M88.8,104.9c0.1-0.2,0.2-0.3,0.2-0.4c0.5-1.2-0.3-2.3-0.5-3.5c-0.3-2.7-0.6-5.5-0.9-8.2c0-0.4,0-0.9-0.5-1
		c-0.5-0.1-0.5,0.5-0.8,0.7c-0.2,0.3-0.1,0.6-0.1,0.9c0.1,1.3,0.5,2.5,0.8,3.7C87.5,99.8,88.2,102.3,88.8,104.9z M194,114.4
		c2.5-2.2,3.8-4.9,3.6-8.3c-0.6,0.5-1.4,0.5-1.7,1.4C195.3,109.8,195,112.2,194,114.4z M77.9,75.9c0.1,1.2,0.5,2.2,0.8,3.3
		c0.2,0.6,0.4,0.6,0.9,0.3c0.5-0.3,1.3-4,1-4.5c0,0-0.1,0-0.1-0.1c-0.4-0.3-0.7-0.9-1.3-0.5C78.6,74.9,78,75.2,77.9,75.9z
		 M117.5,64.8c0.3,0,0.6,0,1,0c1.7,0,1.7,0,1.4-1.7c-0.1-0.6-0.4-0.8-0.9-0.7c-0.9,0.1-1.8,0.1-2.8,0.1c-0.9,0-1.2,0.3-1.2,1.2
		c0,0.9,0.4,1.1,1.2,1C116.6,64.7,117.1,64.8,117.5,64.8z M170.4,98.6c0.1-0.2,0.3-0.3,0.3-0.5c1-2.5,2.8-4.4,5-5.9
		c0.8-0.5,1.6-1.1,2.3-1.7c0.2-0.2,0.4-0.4,0.2-0.7c-0.2-0.3-0.4-0.1-0.6,0c-0.8,0.4-1.7,0.8-2.5,1.4
		C172.5,92.9,171.1,95.5,170.4,98.6z M31.9,160.2c0.1,0.7,0.1,1.5,0.2,2.2c0.3,1.6,1.8,2.4,3.3,1.9c0.5-0.2,0.7-0.5,0.6-1
		c-0.1-0.4,0.2-1-0.4-1.1C34.2,162.1,33.1,161.2,31.9,160.2z M175.9,56.3c-0.7-0.1-1,0.2-1.1,0.9c-0.1,0.7,0.2,0.9,0.8,1
		c1,0.1,1.9,0.7,2.8,1.2c0.2,0.1,0.4,0.4,0.7,0.2c0.7-0.4,0.7-2,0-2.4C178.1,56.6,177,56.6,175.9,56.3z M207.1,50.8
		c-0.4-0.9-0.1-1.9-1.2-2c-0.9-0.1-1.1,0.8-1.4,1.3c-0.4,0.8,0,1.6,0.8,2c0.7,0.3,1.5,0.4,1.9-0.5c0.3-0.6,0.6-1.2,0.7-1.9
		c0.2-1.2-0.3-1.6-1.9-1.4C207.2,48.8,207.4,49.6,207.1,50.8z M44.7,163c-1.4,2.5-3.5,3.7-6.3,3.7c0.8,1.4,1.1,1.6,2.6,1
		c0.8-0.3,1.7-0.8,2.4-1.3C44.6,165.6,45.1,164.3,44.7,163z M32.1,157.3c-0.2,0.9,0.5,1.5,0.6,2.2c0.3,1.4,1.7,2.2,3,2
		c0.4-0.1,0.5-0.1,0.4-0.6C35.4,158.9,34,157.9,32.1,157.3z M185.1,49.8c-0.1,0.7,0.2,1.4,0.3,2.1c0,0.6,0.3,0.9,1,0.8
		c0.7,0,0.8-0.4,0.9-1c0-0.8,0.1-1.5,0.2-2.3c0-0.2,0.1-0.6-0.1-0.7c-0.6-0.2-1.3-0.4-1.9-0.3C184.9,48.6,185.2,49.3,185.1,49.8z
		 M187.8,46c0-0.8-1.4-1.7-2.1-1.4c-0.3,0.2-0.6,3.1-0.4,3.3c0.1,0.1,0.3,0.1,0.5,0.1C187.4,48.2,187.6,48.2,187.8,46z M87.9,67.5
		c-1.7,0.2-3.4,0.4-4.1,2.2c-0.1,0.3-0.5,0.6,0,0.8c0.3,0.1,0.7,0.1,1-0.4c1-1.6,1.7-1.8,3.5-0.9c0.7,0.4,0.8-0.2,1.1-0.5
		c0.4-0.5,0-0.8-0.3-0.9C88.7,67.6,88.2,67.6,87.9,67.5z M112.4,166.3c-0.8-2.1-2.7-3.1-4.1-4.8c0.3,0.9-0.5,1.9,0.3,2.6
		C109.6,165.1,110.9,165.9,112.4,166.3z M32.9,164.6c0,0.8,0.4,1.3,0.7,1.8c0.6,1,1.7,1.2,2.8,0.7c0.9-0.5,0.2-1,0.2-1.5
		c0-0.5-0.3-0.7-0.9-0.5C34.8,165.3,33.8,165.1,32.9,164.6z M118.7,97.3c0-0.1,0-0.3,0-0.4c-1,0-2.1,0-3.1,0c-2.4,0-3.1,0.7-2.8,3
		c0.2,1.4,0.2,2.9,0.7,4.2c-0.2-1.5-0.2-2.9-0.2-4.4c0-1.7,0.6-2.4,2.4-2.4C116.7,97.3,117.7,97.3,118.7,97.3z M44.2,167.1
		c0.8,0.3,1.2,0.1,1.7-0.1c1.2-0.6,2-1.6,2.8-2.5c0.2-0.2,0.6-0.5,0.1-0.7c-0.5-0.2-1.2-0.9-1.4-0.2C46.7,165,45.5,166,44.2,167.1z
		 M131.3,58.7c0,0,0.1,0,0.1,0c1.8-0.7,3.7-1.5,5.4-2.6c0.2-0.1,0.3-0.2,0.1-0.4c-0.2-0.2-0.3-0.4-0.6-0.2c-1.7,0.7-3.5,1.4-5.2,2.2
		c-0.2,0.1-0.4,0.2-0.3,0.5C130.9,58.4,130.9,58.8,131.3,58.7z M92.9,130.8c0.2,0.4-0.3,1,0.3,1.1c0.5,0,1.1-0.3,1.2-1
		c0.1-0.8,0.2-1.6,0.5-2.4c0.3-0.9-0.5-1.2-1-1.3c-0.7-0.3-0.4,0.6-0.5,0.9C93.1,128.9,93,129.8,92.9,130.8z M187.1,97.6
		c-2.8-0.8-6-0.8-8.3-3.4C179.2,96.8,184.2,98.5,187.1,97.6z M146.3,101.8c-0.5,0.2-1.4-0.1-1.3,1c0.1,0.9,0.4,1.4,1.4,1
		c0.3-0.1,0.6-0.1,0.9-0.1c0.4-0.1,1,0.1,1-0.5c0-0.5-0.4-0.9-0.8-1.1C147.1,101.9,146.7,101.9,146.3,101.8z M153.3,101.4
		c-1,1.9-0.4,4.1-0.8,6.1c-0.5,2-1.2,3.9-1.8,5.8C152.8,109.7,153.2,105.6,153.3,101.4z M180.3,58.2c-0.3,0.6-0.4,1-0.6,1.4
		c-0.1,0.2-0.5,0.3-0.2,0.6c0.9,0.8,1.6,1.7,2.4,2.8c0.3-0.7,0.7-1.2,0.4-1.7C181.7,60.3,181.1,59.4,180.3,58.2z M130.2,58.8
		c0-0.6-0.4-0.6-0.8-0.5c-1.2,0.3-2.4,0.7-3.7,1c-0.2,0.1-0.7,0-0.6,0.5c0.1,0.4,0.4,0.7,0.9,0.5c1.2-0.3,2.4-0.6,3.6-1
		C129.8,59.3,130.2,59.2,130.2,58.8z M30.7,145.9c0.9-0.5,1.2-1.3,1.5-2c0.5-1.1,1-2.1,1.6-3.1c0.2-0.3,0.7-0.6,0.2-0.9
		c-0.4-0.3-0.6,0.2-0.9,0.4c-0.9,1-1.4,2.3-1.9,3.6C31,144.5,30.5,145.1,30.7,145.9z M91.8,141.9c1.8-0.6,1.8-2.1,2.5-3.3
		c0.1-0.3,0.5-0.6-0.2-0.8c-0.4-0.1-0.7-0.1-0.9,0.4C92.7,139.3,92.1,140.4,91.8,141.9z M117.2,91.5c0-0.4,0-0.8,0.1-1.2
		c0-0.3,0.3-0.8-0.3-0.8c-0.6,0-0.6,0.4-0.6,0.8c0.2,1.5,0.3,3.1,0.5,4.6c0,0.3,0.1,0.6,0.5,0.5c0.4-0.1,0.2-0.4,0.2-0.7
		C117.4,93.7,117.1,92.6,117.2,91.5z M100.9,28.8c0-0.1-0.1-0.2-0.1-0.3c-0.6-0.8-1.1-1.6-1.7-2.3c-0.3-0.4-0.6,0-0.9,0.1
		c-0.3,0.1-0.4,0.4-0.2,0.7c0.6,0.7,1.2,1.4,1.9,2.1C100.3,29.5,100.7,29.4,100.9,28.8z M142.3,100c-0.1-0.4-0.4-0.5-0.6-0.5
		c-1.6-0.4-3.2,0.2-4.9,0.3c-0.2,0-0.2,0.2-0.2,0.3c0.1,0.3,0.3,0.5,0.6,0.4C138.9,100.4,140.6,100.2,142.3,100z M122,180.6
		c0.7-0.4,1.3-0.3,1.5-1c0.2-0.8,0.5-1.7,0.7-2.5c0.1-0.2,0.4-0.6-0.1-0.7c-0.4-0.1-0.8,0-0.9,0.5C123,178,122.6,179.2,122,180.6z
		 M119,154.8c0.7-0.4,1.6-0.4,2.5-0.6c0.3-0.1,0.9,0.2,0.7-0.4c-0.1-0.4-0.4-0.8-1-0.7c-0.9,0.2-1.7,0.7-2.5,1.1
		c-0.1,0.1-0.3,0.2-0.2,0.4C118.6,154.9,118.8,154.9,119,154.8z M126.2,142.2c0,0,0-0.1,0-0.1c-1.2,0.2-2.4,0.3-3.5,0.5
		c-0.8,0.1-0.6,0.6-0.6,1c0.1,0.6,0.5,0.4,0.8,0.2C124,143.3,125.1,142.8,126.2,142.2z M115.2,87.4c-0.1,0-0.3,0-0.4,0
		c0.1,2.6,0.3,5.3,0.8,7.9C115.5,92.7,115.3,90.1,115.2,87.4z M133.1,24.6c0-0.4-0.3-0.6-0.6-0.7c-0.5-0.1-1.3,1.2-1.4,1.9
		c0,0.5,0.5,0.8,0.7,0.7C132.6,26.1,132.8,25.2,133.1,24.6z M84,129.4c1,0.5,1.8,1,2.7,1.4c0.1,0,0.2,0,0.2,0
		C87.1,128.9,86.7,128.8,84,129.4z M27.8,155.8c0.9-1.4,0.4-2.6-0.4-3.8C26.7,153.4,27.2,154.6,27.8,155.8z M119.9,66.1
		c-1.3-0.2-2.7-0.3-4-0.5c-0.2,0-0.4-0.1-0.5,0.2c-0.1,0.3,0.1,0.5,0.3,0.5C117.1,66.4,118.5,66.4,119.9,66.1z M98.7,136.7
		c1,0.1,1.8,0.1,2.6-0.2c0.2-0.1,0.4-0.1,0.4-0.4c0-0.1-0.2-0.3-0.3-0.3C100.5,135.9,99.4,135.4,98.7,136.7z M140.3,62
		c1,0.6,2.2,0.4,3.2,1.1c0.2,0.1,0.4,0,0.5-0.1c0.1-0.3,0-0.4-0.3-0.5C142.6,62,141.5,61.8,140.3,62z M117.9,87.4
		c-0.3,0-0.5,0-0.8,0c-0.4,0-0.8-0.2-0.9,0.4c0,0.4-0.1,0.9,0.3,1.1c0.5,0.3,0.6-0.3,0.9-0.6C117.5,88.1,117.9,87.9,117.9,87.4z
		 M147,106.9c0-0.5-0.2-0.8-0.7-0.7c-0.4,0-0.9,0-0.9,0.6c0,0.5,0.1,0.8,0.6,0.8C146.5,107.6,147,107.6,147,106.9z M183.2,62
		c-0.5,0.3-0.5,0.9-0.7,1.3c-0.2,0.4,0.3,0.8,0.6,1c0.2,0.1,0.4-0.1,0.4-0.3C183.4,63.4,183.7,62.7,183.2,62z M116.1,84
		c0.6-0.7,1.1-1.3,1.9-0.9c0.2,0.1,0.3,0,0.3-0.2c0-0.1,0-0.2,0-0.2c-0.7-0.2-1.5-0.3-2.1-0.1C115.5,82.8,116.1,83.4,116.1,84z
		 M101.3,58.7c-0.3-0.4-0.7-0.7-1.2-0.7c-0.4,0-0.8,0.3-0.7,0.6c0.2,0.6,0.9,0.7,1.4,0.8C101.3,59.6,101.1,59,101.3,58.7z M93,64.7
		c1.3-0.2,2.5-0.4,3.8-0.6C95.4,63.7,94.2,63.9,93,64.7z M77.8,74.4c1.9-1.4,1.9-1.4,1.9-2.1C78.1,73.3,77.8,73.6,77.8,74.4z
		 M162.4,103.5c0.6,0.5,1.3,0.8,2,0.5c0.2-0.1,0.1-0.6-0.1-0.8C163.6,102.5,163.1,103.8,162.4,103.5z M133.6,157.9
		c0.4-0.7,1.6-1.4,0.3-2.5C133.8,156.3,133.7,157.1,133.6,157.9z M74.3,79.7c1-0.3,1.8-0.6,3-1C76,78.7,75,78.3,74.3,79.7z
		 M147.9,106c0.2,0.4-0.2,1.1,0.6,1.2c0.2,0,0.5,0,0.5-0.2C149,106.3,148.3,106.2,147.9,106z M45.8,164.3c0.4-0.4,0.5-0.7,0.5-1.1
		c0-0.2,0-0.5-0.3-0.6c-0.1-0.1-0.3-0.1-0.4,0c-0.3,0.2,0,0.4,0,0.6C45.7,163.5,45.8,163.8,45.8,164.3z M153.6,89.9c0,0,0.1,0,0.1,0
		c0-0.7,0-1.3,0-2c0-0.3-0.2-0.5-0.4-0.4c-0.4,0.1-0.2,0.3-0.2,0.5C153.3,88.7,153.4,89.3,153.6,89.9z M191.8,98
		c-0.1-0.4-0.4-0.4-0.6-0.4c-0.3,0-0.8,0-0.8,0.5c0,0.4,0.3,0.4,0.6,0.4C191.4,98.5,191.8,98.4,191.8,98z"/>
	<path d="M169.6,174.2c-0.2-0.2-0.5-0.5-0.7-0.7c1.8-0.7,3.5-0.1,4.7,1c1.8,1.5,3.8,3,4.6,5.3c-1-5.6-5.2-7-10-7.9
		c0.7,0,1.4-0.1,2-0.1c0.3-0.6-0.4-1-0.2-1.7c0.7,0.7,1.2,1.5,1.9,2c0.7,0.5,1.7,0.7,2.7,1.1c-0.4-0.7-0.8-1.2-1-1.7
		c-0.5-1.2-1.4-1.8-2.6-2c-1.8-0.4-3.6-0.6-5.5-0.4c-0.5,0.1-1,0.2-1.5-0.2l0,0c0.1-0.6,0.6-0.4,1-0.5c2.2-0.3,4.4-0.4,6.5,0.2
		c0-0.6-0.4-0.9-0.7-1.2c-1.3-1.4-1.6-3.6-3.2-4.9c-0.7-0.6-1-1.4-0.9-2.3c0.1-1-0.1-1.9-0.8-2.7c-1.3-1.5-2.4-3.1-3.8-4.5
		c-1.1-1.1-2-1.5-3.4-0.9c0,0-0.1,0-0.1,0c-1.5,0.2-3.1,0.5-4.6,0.7c0.3-0.3,0.7-0.7,1-1c1.4-1,3.1-0.7,4.7-1
		c-0.5-0.9-1.4-1.2-1.8-1.9c0.1-0.1,0.2-0.2,0.2-0.3c0.5-0.3,0.9,0.1,1.3,0.4c1.1,0.8,2.1,1.8,3.1,2.8c0.5,0.5,0.7,0.3,0.9-0.3
		c0.2-0.9-0.2-1.6-0.7-2.2c-0.7-1-1.5-2-2.2-3.1c0.1-0.1,0.2-0.2,0.3-0.3c1.1,0,1.5,1.1,2.4,1.7c0.8-1.6,1.4-3.1,0.7-4.8
		c0.2-0.2,0.3-0.3,0.5-0.5c1.3,1.5,1,3.1,0.3,4.7c-0.4,0.9-1,1.8-0.4,2.8c0.2,0.3,0.2,0.9,0,1.3c-0.9,2.1,0.6,3.3,1.7,4.5
		c1.4,1.4,2.4,2.9,2.1,4.9c-0.1,0.8,0.1,1.4,0.9,1.8c0.4,0.3,0.9,0.8,1.1,1.3c0.6,2.1,2.2,3.5,3.4,5.2c1.4,2,2.8,3.9,4,5.9
		c1.4,2.4,2.3,4.9,1.6,7.7c0,0.1-0.1,0.3,0,0.4c1,1.9,0.5,4.1,1.2,6.1c0.4,0.9,1.3,1.7,0.7,3c-0.1,0.3,0.3,0.3,0.5,0.4
		c1.3,0.5,2.5,1.3,3.6,2.1c1.6,1.3,2.3,3,2.6,4.9c0.2,1.2-0.2,2.5,0.8,3.6c0.6,0.7-0.1,1.5-0.7,2.1c-0.4,0.4-0.5,0.8-0.5,1.3
		c0.1,1.7,0,3.4-0.3,5.1c-0.4,2.2-1.7,3.9-3.7,5.3c0.7,0.2,1.1-0.1,1.6-0.3c0.4-0.2,0.9-0.3,1.4-0.4c5.9-2.4,11-5.8,14.2-11.6
		c1.9-3.3,2.3-6.9,1.4-10.6c-0.8-3.1-2.1-5.9-2.5-9.1c-0.7-5.9,1.6-10.4,6.3-13.7c3.6-2.5,7.8-3.9,12-4.9c4.1-1,8.3-1.5,12.4-1.8
		c0.4,0,0.9-0.2,1.3,0.1c-0.2,0.2-0.3,0.4-0.5,0.5c-0.4,0.4-0.9,0.5-1.4,0.5c-5.9,0.4-11.7,1.4-17.3,3.4c-4,1.4-7.6,3.4-10,7.1
		c-1.8,2.8-2.4,5.8-1.6,9c0.8,3.4,1.9,6.7,2.6,10.1c0.7,3,0.1,5.9-1.1,8.7c-0.3,0.7-0.7,1.3-1.1,2c-0.2,0.5-0.4,0.8,0.3,1.1
		c0.6,0.3,0.9,0.3,1.2-0.3c2-3.6,3-7.3,2.4-11.4c-0.3-2.3-1-4.7-1.8-6.9c-1.8-4.7-0.5-10.3,3.1-13.8c3.1-3,6.9-4.5,10.9-5.6
		c3.3-0.9,6.6-1.4,10-1.7c0.4,0,1-0.2,1.3,0.2c-0.2,0.2-0.4,0.3-0.5,0.5c-1.6,0.7-3.4,0.6-5.1,0.9c-5.3,0.9-10.6,2-14.9,5.7
		c-3.6,3.1-5.2,6.9-4.2,11.7c0.4,2.1,1.1,4.1,1.7,6.2c1.4,4.5,0.8,8.8-1.2,13c-3.2,6.6-8.4,10.8-15.1,13.6c-3.2,1.3-6.5,2.3-10,2.9
		c-0.9,0.1-1.3,0.7-1.3,1.6c0.1,2.4-0.2,4.9-0.5,7.3c-0.1,0.6,0.2,1,0.4,1.5c0.6,1.6,0.5,3.1-0.8,4.2c-1.9,1.6-2.7,3.4-2.4,5.8
		c0,0.3,0,0.7-0.2,0.8c-1.1,0.7-0.9,1.6-0.6,2.6c0.2,0.6,0,1.3-0.1,1.9c-0.1,0.9-0.2,1.7,0.5,2.4c0.3,0.3,0.3,0.6,0,1
		c-0.5,0.5-0.9,1.2-1.5,1.5c-1.2,0.6-1,1.4-0.6,2.3c1.7,3.9,3.5,7.7,6.5,10.8c2.5,2.6,3.1,5.6,2.8,8.9c-0.1,0.7-0.1,1.4,0.5,2
		c0.7,0.7,0.7,1.7,0.5,2.6c-0.7,3.3-2.5,5.6-5.7,6.8c-4.2,1.6-8.5,1.7-12.8,0.4c-4.1-1.3-6.9-3.9-7.8-8.3c-0.5-2.3-0.3-4.6-1.2-6.8
		c-0.8-2-1.6-4-2.8-5.6c-1-1.4-1.2-2.9-0.8-4.3c0.5-1.7,0.2-3.4,0.6-5.1c0.5-1.9,0.7-3.6-0.3-5.5c-0.6-1.1-0.4-2.6-0.2-3.9
		c0.1-0.4,0.1-0.7,0.5-0.9c0.2,0.2,0.3,0.3,0.5,0.5c0,1.1,0.7,1.6,1.6,1.9c0.4,0.1,0.7,0.3,1.1,0.5c0,0.1,0,0.1,0,0.2
		c-0.9,0.3-1.5-0.8-2.4-0.7c0,2.9,0.8,4.3,3.6,4.8c3.1,0.6,6.2,0.4,9.3,0.4c2.6,0,4.9-0.8,7-2.4c0.2-0.2,0.6-0.3,0.3-0.7
		c-0.5-0.9-0.6-1.8-0.4-2.8c0.1-0.5,0-0.8-0.7-0.8c-0.7,0-1.7,0.2-1.9-0.6c-0.2-0.8,0.9-1,1.4-1.5c0.7-0.6,1.8-1,1.9-2
		c0.1-1.3,0.3-2.5,0.5-3.8c-5.5,2.8-11.1,2.5-16.7,1c1.4,0.2,2.8,0.3,4.1,0.3c4.2,0.1,8.3-0.4,12.2-2.1c3-1.4,4-3.4,3-6.4
		c-0.2-0.7-0.5-0.8-1.1-0.5c-0.8,0.4-1.6,0.5-2.5,0.5c0.8-0.4,1.6-0.7,2.3-1c0.4-0.2,1-0.3,1.1-0.8c0.3-1.8,0.7-3.6,0.6-5.6
		c-3.2,2.8-6.6,4.9-10.5,6c1.1-1.1,2.6-1.5,3.9-2.3c2.7-1.8,5.5-3.5,7.1-6.5c0.5-1,0.8-2.1,0.8-3.2c0-0.6-0.3-0.9-0.9-0.6
		c-0.8,0.3-1.6,0.6-2.4,0.8c-5.4,1.6-10.9,1.5-16.4,1.3c-1,0-2.1,0-3-0.7c2.7,0.5,5.4,0.3,8.1,0.3c4.6-0.1,9.2-0.4,13.5-2.3
		c0.5-0.2,0.9-0.4,0.9-1c0.5-2.8,1.3-5.5,1.5-8.4c0.1-1.4,0-2.8,0-4.3c-1.8,1.3-3.6,2.2-5.6,2.4c0.6-0.3,1.3-0.7,1.9-0.9
		c0.6-0.3,1.2-0.6,1.8-1c0.5-0.4,1.1-0.9,1.6-1.7c-5.1,2.4-8.6,3.3-10.8,2.8c2.5-0.3,4.9-1,7.2-2c1.7-0.8,3.3-1.8,4.5-3.3
		c0.5-0.7,0-1.1-0.3-1.4c-0.4-0.5-0.6,0.1-0.8,0.3c-0.5,0.3-1,0.7-1.5,1c-3.1,1.8-6.5,2.4-10,2.8c-1.9,0.2-3.8,0.4-5.8,0.1
		c0.4-0.3,0.8-0.3,1.2-0.3c3.6-0.4,7.1-0.8,10.6-2c2-0.7,3.9-1.5,5.4-3.2c-8.8,2.5-17.5,4.1-26.4,1.4c4.5,0.9,9,1.2,13.5,0.6
		c4.5-0.6,8.9-1.6,12.9-3.8c-4.7,1.7-9.5,2.5-14.5,2.1c1.1-0.1,2.1-0.3,3.1-0.4c2.7-0.2,5.3-0.7,7.8-1.6c0.8-0.3,1.1-0.7,1.2-1.4
		c0.4-2.1,0.1-4.2-0.7-6.2c-0.9-2.1-1.8-2.6-4.1-2.6c-0.3,0-0.6,0.2-1-0.1c0.3,0,0.5-0.1,0.7-0.1c2.7-0.6,3.7-0.1,4.9,2.4
		c0.9,2,1.2,4.2,1.1,6.4c0,0.3-0.2,0.8,0.3,0.6c0.6-0.3,1.7-0.2,1.4-1.5c-0.1-0.3,0.2-0.5,0.4-0.6c0.5-0.4,0.5-0.7,0.1-1.2
		c-0.4-0.6-0.9-1.1-0.9-1.9c0.1-2-0.7-3.9-1.2-5.8c-0.5-2.1-1.2-3.7-3.5-4.3c-0.2-0.2-0.3-0.3-0.5-0.5c0.7-0.5,1.4,0.2,2.2,0.1
		c-1-1.3-1.9-2.4-3.3-3.2C171.7,174.9,170.5,174.8,169.6,174.2z M154.6,257c0.1-0.7,0.2-1.3,0.3-2c0-0.4,0.3-1-0.4-1.1
		c-0.7-0.1-0.9,0.3-1,0.9c-0.5,2.8-0.7,5.6-0.9,8.4c0,0.6,0.1,1.2,0.5,1.8c2.4,3.3,3.9,7,4.1,11.1c0.2,4.1,2.3,7.1,5.9,8.7
		c2.7,1.2,5.6,1.5,8.6,1.2c3-0.3,5.7-1,7.9-3.3c1.2-1.3,2.2-2.7,1.9-4.6c-0.7,1.2-1.4,2.3-2.4,3.2c-3.1,2.6-6.7,2.9-10.5,2.7
		c-5.7-0.2-10.1-3.6-10.5-9.9c-0.1-2-0.6-4-1.4-5.9c-0.5-1.1-1-2.1-1.5-3.2c0.6,0.5,1.1,1.2,1.4,1.9c1.5,2.6,1.7,5.5,2.3,8.4
		c0.9,4.6,2.6,6.4,6.8,7.4c2.4,0.5,4.8,0.4,7.3,0.1c2.4-0.3,4.4-1.4,6.2-2.9c0.4-0.3,1-0.7,0.8-1.6c-1.6,1.5-3.3,2.5-5.3,2.9
		c0.3-0.2,0.6-0.4,0.9-0.5c3.6-1.6,5.3-3.3,5.1-7.8c-0.1-2.4-0.9-4.3-2.5-6.1c-2.7-3.1-4.7-6.7-6.3-10.5c-0.3-0.8-0.1-1.9-0.7-2.3
		c-0.6-0.5-1.5,0.4-2.3,0.5c-3.2,0.6-6.4,0.6-9.7,0.3c-1-0.1-2.1-0.5-3-0.2C155.1,254.7,155.3,256.2,154.6,257z M184.1,214.2
		c-0.2,0.2-0.4,0.4-0.6,0.6c-1,0.6-2,1.1-3.2,1.2c-0.5,0-1.1,0.1-0.9,0.8c0.2,0.6,0.8,0.2,1.1,0.1c0.7-0.1,1.3-0.4,1.9-0.7
		c2-0.9,3.3-2.5,3.7-4.6c0.3-1.9,0.4-3.8,0.5-5.7c0-0.5,0-0.8-0.6-1c-1.4-0.3-2.6-1.1-3.8-1.7c-1-0.5-1.3-0.3-1.3,0.8
		c0.1,3.6-0.1,7.2-1.1,10.7c-0.3,0.9,0.2,0.9,0.9,0.8C181.9,215.1,182.9,214.5,184.1,214.2z M187.2,204c0.2,0.1,0.4,0.1,0.5-0.1
		c0.2-0.2,0-0.5-0.2-0.6c-0.8-0.6-0.8-1.3-0.7-2.2c0.4-4.1-2.6-6.2-5.5-7.6c-0.3-0.1-0.6-0.3-0.7,0.1c-0.1,1-0.5,2.2,0,3
		c0.9,1.4,1,2.9,0.7,4.5c-0.1,0.4-0.1,0.8,0.4,1C183.6,202.9,185.3,203.9,187.2,204z"/>
	<path d="M130.2,266.8c0.3-0.4,0.6-0.8,1-1.2c0.5-0.4,1.1-0.7,1.8-1c3.1-1.4,5.8-3.2,7.7-6.2c0.6-1,0-2,0.6-2.8
		c0.2-0.2,0.4-0.4,0.5-0.5c1,1.9,3.1,2.7,4.1,4.7c0.7,1.5,1.6,2.9,1.9,4.6c0.1,0.2,0.1,0.5,0.3,0.6c0.9,0.8,1,1.9,1.1,3.1
		c0.2,3.6-0.1,7.2,0.3,10.8c0.2,1.5,0.5,3,0.9,4.4c1,3.6-0.3,6.6-2.5,9.3c-3,3.5-7.5,4.8-11.8,3.3c-1.9-0.6-3.3-1.8-3.8-3.9
		c-0.4-1.5-1.5-2.6-2.1-4c-0.6-1.4-0.9-2.7-0.6-4.4c0.8-3.6,1.3-7.2,0.9-10.9c-0.2-1.5-0.5-2.9-1.3-4.2c-0.1-0.2-0.2-0.4,0-0.6
		c0.1-0.1,0.2-0.2,0.3-0.3c0.6,0,0.7,0.4,0.9,0.8c1.1,1.7,1.3,3.7,1.4,5.6c0.2,3.8-0.6,7.5-1.2,11.2c-0.1,0.5-0.1,0.9,0.1,1.3
		c0.7,1.5,1.5,3,2.4,4.4c1.5,2.4,4.9,3.1,7.2,2.6c0.5-0.1,1-0.4,1.9-0.3c-2.4,1.8-4.8,1.7-7.2,0.7c0.9,0.8,1.9,1.4,3.1,1.5
		c3.4,0.1,6.5-0.7,8.8-3.4c2.3-2.7,3.5-5.6,2.1-9.2c-0.2-0.4-0.2-0.9-0.3-1.4c-0.7-4.3-0.5-8.6-0.3-12.9c0-0.8-0.1-1.5-0.7-2.3
		c-0.4,1.5,0,3-0.7,4.4c-0.3-0.7-0.1-1.2,0-1.7c0.7-4.2-0.9-7.7-3.5-10.9c-0.2-0.2-0.3-0.7-0.8-0.3c-0.4,0.4-0.3,0.6,0.1,1
		c0.4,0.4,0.9,0.9,0.7,1.8c-0.5-0.6-0.9-1.1-1.4-1.7c-0.4,0.6-0.7,1.1-1,1.6c-1.4,2-3.4,3.4-5.5,4.5c-0.4,0.2-1,0.4-0.5,1
		c1.8,2.2,1.4,4.8,1.1,7.3c0,0.1,0,0.3-0.4,0.2c0-1,0-2,0-3.1c0-1.4-0.4-2.7-1.1-3.8c-0.4-0.6-0.7-0.8-1.5-0.5
		C132,266.3,131.2,267.1,130.2,266.8z"/>
	<path d="M141.7,255c-0.2,0.2-0.4,0.4-0.5,0.5c-0.7-0.5-0.5-1.4-0.9-2c-0.4-0.5-0.6-0.7-0.9,0c-0.5,1-1.2,1.9-2,2.7
		c-1.7,1.7-3.7,3-6.1,3.7c0.6-0.5,1.3-0.8,2-1.3c2.8-1.9,5.2-4.3,5.9-7.8c0.2-1.2-0.4-2.5-1.3-2.3c-1,0.2-1.2-0.3-1.5-0.9
		c-3.6,2.4-10.3,3.9-13.4,3c0.5,0,0.8,0,1.1-0.1c3.1-0.3,6.2-0.7,9.1-1.9c1-0.4,1.8-0.9,2.6-1.6c0.2-0.2,0.3-0.4,0.2-0.7
		c-0.2-0.4-0.4-0.1-0.7,0c-1.3,0.7-2.8,0.9-4.3,1c-4.6,0.4-9-0.4-13.2-2.4c2.8,0.8,5.6,1.6,8.5,1.6c2.9,0.1,5.8,0,8.6-0.9
		c-1.1-3.9-2.5-7.7-4.2-11.5c-2.6,4.1-6.2,6.8-10.7,8.6c0.1-0.5,0.4-0.6,0.7-0.7c2.7-1.2,4.9-3.1,7-5.2c2-2.1,3.2-4.3,2.3-7.3
		c-0.5-1.7-0.4-3.5-1.5-5.1c-0.9,1.6-1.8,2.9-2.9,4.1c-1,1.2-2.2,2.3-3.4,3.3c-2,1.7-3.1,2.2-4.1,2.3c5.2-3.9,8.6-9,8.5-12.8
		c-1.8,2.8-4.3,4.7-6.7,6.8c0.9-1.1,1.8-2.2,2.8-3.2c1-1,1.9-2,2.8-3.5c-4.4,2.6-8.9,3.9-13.3,5.4c0.3-0.5,0.7-0.6,1.2-0.7
		c3.6-1.4,7.3-2.7,10.6-4.6c0.7-0.4,1.3-1.2,2.3-1.1c0.5,0.7,1.3,1.1,1.9,1.7c2.5,2.5,3,5.8,3.4,9.1c0.1,1.2,0.6,2.2,0.8,3.4
		c0.6,3,2.6,5.5,3.1,8.5c0.3,1.8,2.1,2.6,2.4,4.3c0,0.1,0.3,0.2,0.5,0.3c1.5,0.5,2,1.5,1.8,2.9c-0.1,0.9,0.1,1.5,0.8,2.1
		C141.7,253.1,142.3,253.9,141.7,255z M127.6,222.8c-0.5,1.5-1.5,2.9-1.9,4.4C126.6,225.9,128.3,224.8,127.6,222.8z"/>
	<path d="M228.1,168.2c0.2-0.2,0.4-0.3,0.5-0.5c0.5-0.4,1-0.4,1.6-0.5c5.9-0.4,11.7-0.3,17.6,0.3c0.6,0.1,1.2,0.1,1.7,0.5
		c0.2,0.2,0.3,0.3,0.5,0.5c-1.4,0.4-2.7-0.1-4.1-0.1c-5.1-0.3-10.2-0.3-15.3,0C229.8,168.4,228.9,168.7,228.1,168.2z"/>
	<path d="M56.3,165.1c0.2-0.2,0.5-0.5,0.7-0.7c0.4-0.3,0.8-0.3,1.3-0.2c1.6,0.2,3.2,0.2,4.8,0c2-0.3,4-0.5,6-0.7
		c0.2,0.2,0.4,0.5,0.7,0.7c-0.7,0.7-1.6,0.6-2.4,0.7c-3.6,0.7-7.2,0.7-10.9,0.4C56.4,165.2,56.3,165.1,56.3,165.1z"/>
	<path d="M231,165.3c0.2-0.2,0.3-0.4,0.5-0.5c0.2-0.1,0.5-0.2,0.7-0.2c4.7-0.1,9.4-0.2,14.1,0.5c0.3,0,0.5,0.1,0.8,0.2
		c0.1,0.2,0.2,0.5,0.2,0.7c-1,0.2-2-0.1-3-0.2c-4-0.3-8-0.2-11.9-0.2C231.9,165.6,231.4,165.8,231,165.3z"/>
	<path d="M138.1,142.7c-1.2,0.9-2.6,1.5-3.9,2.2c-1.7,1-3.5,1.9-5.2,2.9c-0.1-0.4,0.3-0.5,0.5-0.6c2.3-1.3,4.2-3.3,6.3-4.8
		c0.4-0.3,0.8-0.7,1.4-0.6c0,0,0,0,0,0c0.1,0.4-0.5,0.4-0.5,0.9c0.4-0.1,0.7-0.3,1.1-0.4C137.8,142.4,138,142.6,138.1,142.7z"/>
	<path d="M67.1,161.5c-0.1,0.3-0.3,0.4-0.5,0.4c-2.3,0.3-4.5,0.5-6.8,0.3c-0.1,0-0.2-0.2-0.4-0.3c0.2-0.2,0.5-0.5,0.7-0.7
		c2.1-0.2,4.3-0.4,6.5-0.2C66.8,161.1,66.9,161.3,67.1,161.5z"/>
	<path d="M149.6,154.2c1.7-1.2,3.4-2.2,5.5-2.4c-0.3,0.3-0.7,0.7-1,1c-1.3,0.8-2.6,1.5-4.1,1.9C150,154.6,149.8,154.4,149.6,154.2z"
		/>
	<path d="M170.7,89.7c-1.8,1.9-3.1,4.2-4,6.7c-0.2-2.3,2-6.3,3.7-7C170.6,89.5,170.7,89.6,170.7,89.7z"/>
	<path d="M136,260.7c1.5-1.3,3.1-2.6,4.6-3.8c0.1,0.1,0.1,0.1,0.2,0.2c-1.1,1.4-2.4,2.7-3.9,3.8c-0.7,0.5-1.2,1.3-2.1,1.4
		C135,261.6,135.8,261.4,136,260.7z"/>
	<path d="M174.4,179c-2.4-0.1-4.8-0.1-7.2,0.2c-4.8,0.6-9.4,1.7-13.2,4.9c0.4-0.8,1.4-1.9,2.9-2.6c3.4-1.6,7-2.5,10.8-3
		c1-0.1,2-0.2,3-0.4c1.1-0.1,2.2-0.2,3.3,0.3C174,178.6,174.2,178.8,174.4,179z"/>
	<path d="M164.1,168.8c-0.5,0.8-1.4,0.6-2.1,0.8c-4.1,1-8.1,2.2-11.7,4.5c-1.2,0.8-2.2,1.8-3.3,2.8c-0.1-0.1-0.1-0.2-0.2-0.3
		c1.3-0.9,2.2-2.1,3.5-3c3.4-2.2,7.1-3.4,11-4.3C162.2,169,163.2,168.2,164.1,168.8C164.2,168.9,164.1,168.8,164.1,168.8z"/>
	<path d="M121.2,214.4c-6.2,3.3-12.6,6-19.8,5c0.7,0,1.4,0,2.1,0c0.7,0,1.4-0.1,2.1-0.2c4.3-0.7,8.3-2.3,12.3-3.8
		C119,214.9,120,214.4,121.2,214.4z"/>
	<path d="M123.1,207.7c-7.1,3.7-14.8,4.2-22.6,3.3C108.2,211.2,115.8,210.4,123.1,207.7z"/>
	<path d="M160.8,189.1c0.9-1.1,1.9-1,2.9-1.3C162.9,188.3,162.1,188.7,160.8,189.1z"/>
	<path d="M119.4,186.8c-4.5,2.7-9.4,4.3-14.6,4.9C110,191,114.5,188.3,119.4,186.8z"/>
	<path d="M160.7,236.1c1.7-0.1,3.3,0.1,4.9,0.4C164,236.4,162.3,237.1,160.7,236.1C160.7,236.1,160.7,236.1,160.7,236.1z"/>
	<path d="M146.8,187.9c-0.4-2.6,0.7-4.7,2.1-6.7c-0.2-0.4-0.6-0.3-0.9-0.5c-0.3-0.2-0.5-0.3-0.7-0.9c2.7,1.2,3.8-1.2,5.5-2.2
		c0.2-0.1,0.2-0.4,0.1-0.6c-0.1-0.3,0.1-0.6,0.4-0.4c0.9,0.5,1.4-0.3,2-0.6c0.7-0.2,0.9-0.8,0.9-1.5c-0.1-0.7,0-1.2,1-0.7
		c0.9,0.5,1.9,0.4,2.9,0c1.8-0.8,3.7-1.4,5.7-1.7c0.5-0.1,1.1-0.2,1.9,0.2c-1.6,0.4-2.9,0.7-4.2,1.1c-5.2,1.5-10.1,3.8-13.8,8
		c-1.4,1.6-2.3,3.5-2.6,5.7C147.1,187.4,147.1,187.7,146.8,187.9z"/>
	<path d="M146.8,176.5c0.1,0.1,0.1,0.2,0.2,0.3c-0.5,0.9-1,1.7-1.5,2.7c-0.2-3.1,4.1-8.9,7.5-10.2c-1.2,1-2.5,1.9-3.5,3.2
		C148.4,173.7,147.5,175,146.8,176.5z"/>
	<path d="M157.4,162c0.8-0.7,1.8-0.5,2.7-0.7c1.7-0.4,3.5-0.4,5.2-0.1c0.4,0.1,0.8,0.2,1.2,0.6c-0.4,0.3-0.9,0.1-1.3,0.1
		c-2.2-0.2-4.4-0.2-6.5,0.3c-0.4,0.1-0.8,0.2-1.2,0C157.5,162.1,157.4,162.1,157.4,162z"/>
	<path d="M157.4,162c0,0,0.1,0.1,0.2,0.1c-1.2,0.8-2.6,0.8-3.9,1.1c-0.4,0.1-0.5-0.3-0.3-0.5c0.9-0.8,1.7-1.8,3.1-1.8l0,0
		c0,0.7-0.8,0.6-1.1,1.1C156,162.4,156.7,161.6,157.4,162z"/>
	<path d="M156.4,161c-0.1-0.3,0.1-0.4,0.4-0.5c2.1-0.8,4.3-1.3,6.6-1.5C161,159.5,158.7,160.4,156.4,161
		C156.4,161,156.4,161,156.4,161z"/>
	<path d="M133.3,52.3c0-2.6,0-5.1,0-7.7c-0.5,2.3-0.7,4.5-1.4,6.7c-0.5,1.6-1.4,2.9-2.6,4c-1.1,1-2.6,1.1-3.9,1.4
		c-6.1,1.3-12.4,1.4-18.6,0.6c-1.5-0.2-3.1-0.5-4.6-1c-0.5-0.2-0.9-0.4-1-0.9c-1-4.4-2.4-8.6-2.6-13.1c-0.1-1.1-0.1-2.2,0.6-3.5
		c0.1,1,0.1,1.7,0.2,2.4c0.6,0.2,0.6-0.6,1.1-0.5c0,1.1-0.6,2.1-0.4,3.3c0.8-0.2,0.9-1.1,1.6-1.3c-0.2,1.3-0.4,2.6-0.7,4.2
		c0.9-1.2,1.5-2.1,2.3-3.2c-0.2,2.3-0.2,4.3,0.2,6.3c0.5-0.9,0.9-1.8,1.4-2.8c0.3-0.5,0.5-0.9,1-0.1c0.5,0.8,1,0.6,1.2-0.2
		c0.4-2.1,1.6-2.7,3.7-2.6c1.9,0.1,3.8-0.3,5.6-1c1-0.4,1.7-0.5,2.5,0.3c0.4,0.4,0.9,0.7,1.4,1.1c0.3-0.3,0.2-0.7,0.2-0.9
		c-0.1-1.5-0.1-1.5,1.3-1.1c0-0.1,0.1-0.2,0.1-0.2c-0.8-1-0.2-1.6,0.7-2.2c2.3-1.7,3.9-3.9,4.7-6.6c0.3-1,1.2-0.8,1.7-1.3
		c-2.9-2.3-13.1-3.1-20.4-1.8c1.6-0.6,3.2-1,4.9-1.2c3.3-0.4,6.7-0.5,10-0.1c3,0.3,5.7,1.3,8.2,3.1c1.8,1.3,2.4,3.2,2.7,5.2
		c0.7,4.8,0.8,9.7,0.9,14.6c0,0.6,0,1.2-0.9,1.2C134.1,53,133.7,52.7,133.3,52.3z M127.5,42.9c1.8-0.1,3.8-2.9,3.3-4.6
		c-0.3-0.9-0.9-1.2-1.8-0.8c-1.5,0.8-2.4,2.1-2.8,3.7C125.9,42.2,126.5,42.9,127.5,42.9z"/>
	<path d="M133.3,52.3c0.4,0.4,0.8,0.7,1.2,1.1c-0.3,0.5-1,0.8-1.3,0.5C132.8,53.5,133,52.8,133.3,52.3z"/>
	<path d="M137.8,289.1c-0.7-0.7-1-1.4-1.1-2.3c-0.1-0.7-0.3-1-1-1.2c-1.3-0.3-2.6-0.9-3.2-2.3c0.8,0.7,1.7,1.3,2.8,1.4
		c0.8,0.1,1.2,0,1-1c-0.1-0.4-0.2-0.9,0.1-1.3c0.4,0.2,0.3,0.6,0.3,0.9c0.1,1.4,0.3,1.5,1.6,0.8c2.5-1.4,3.3-3.8,3.7-6.4
		c0.1-1,0.2-2,0.4-3c0.4,1.4,0.3,2.8,0.1,4.2c-0.5,3-1.8,5.4-4.8,6.5c-0.5,0.2-0.5,0.5-0.4,0.9C137.4,287.3,137.6,288.2,137.8,289.1
		z"/>
	<path d="M145.4,290.6c1.8-1.9,1.8-4.4,2.4-6.8C149,285.5,147.7,289.2,145.4,290.6z"/>
	<path d="M135.7,277.3c-0.4-1-0.3-2.1,0-3.1C136.1,275.2,136,276.3,135.7,277.3z"/>
	<path d="M138,116.5c-1.2,0.2-2.2-0.4-3.2-0.7c-3.8-0.9-7.6-0.6-11.5-0.7c-3.8-0.1-7.7,0.1-11.5,0.7c-4.6,0.8-9,2.2-12.6,5.7
		c0.4-1.1,1-1.7,2.6-2.8c4.4-3,9.4-4.2,14.6-4.6c5.4-0.4,10.9-0.4,16.3,0.2C134.7,114.6,136.4,115.4,138,116.5z"/>
	<path d="M176.4,108.8c1.2,1.4,2.3,2.8,3.7,4.1c1.2,1.1,2.5,1.9,4,2.6c0.3,0.1,1,0.2,0.8,0.7c-0.2,0.5-0.8,0.1-1.2,0
		c-2.1-0.8-3.8-2.2-5.2-3.9C177.6,111.2,176.7,110.2,176.4,108.8z"/>
	<path d="M182.4,113.9c0.7,0.3,1.5,0.5,2.3,0.5c0.3,0,0.7,0,0.7,0.4c-0.1,0.4-0.5,0.3-0.8,0.2C183.7,115.1,183,114.6,182.4,113.9z"
		/>
	<path d="M133.3,87.5c2.2-0.4,4.5-0.2,6.8-0.4c0.4,0,0.6,0.2,0.7,0.5c0.2,0.5,0.4,0.9,0.6,1.4c0.5,2,0.2,2.4-1.9,2.5
		c-3.4,0.1-6.8,0.5-10.3,0.2c0.1-0.1,0.1-0.3,0.2-0.4c2.1-0.1,4-1.1,6.1-1.6c-0.7,0-1.2,0-1.7,0c-0.8-0.1-1.7,0.4-2.5-0.3
		c0.1-0.1,0.2-0.1,0.2-0.2c0.7-0.6,1.5-0.3,2.3-0.3c1.1,0,2-0.5,3-1c-0.7-0.1-1.4,0-2,0c-0.6,0-1.2,0.5-1.8-0.1
		C133.2,87.7,133.2,87.6,133.3,87.5z"/>
	<path d="M129.5,91.4c-0.1,0.1-0.1,0.3-0.2,0.4c-0.3,0.1-0.4-0.1-0.4-0.4c0-1.1,0.1-2.2-0.2-3.3c-0.1-0.3,0.1-0.5,0.4-0.5
		c1.5,0,2.9-0.5,4.3-0.1c-0.1,0.1-0.2,0.2-0.2,0.3c-0.9,0.5-2,0.4-3,0.5c-0.2,0-0.6-0.1-0.6,0.3c0,0.4,0.3,0.4,0.6,0.4
		c0.5,0.1,1.1-0.3,1.5,0.3c-0.1,0.1-0.2,0.1-0.2,0.2C130.4,89.7,129.2,89.8,129.5,91.4z"/>
	<path d="M136.5,84.1c0,0.4-0.1,0.5-0.3,0.7c-0.7,0.5-1.5,0.2-2.2,0.5c-0.2,0.1-0.3-0.3-0.2-0.5c0.3-0.4,0.5-0.8,0.8-1.2
		c0.3-0.3,0.5-1,0.9-0.7C135.9,83.1,136.2,83.7,136.5,84.1z"/>
	<path d="M126.8,84.6c-0.1,0.6-0.2,1-0.3,1.5c-0.4-0.6-0.2-1-0.1-1.5c0.1-0.4,0.4-0.7,0.8-0.4c0.4,0.2,0.7,0.5,0.7,1
		c0,0.2-0.3,0.3-0.5,0.1C127.3,85.2,127.1,85,126.8,84.6z"/>
	<path d="M58.3,132.8c-0.5,0.9-1,1.1-1.6,1.3c-2.1,0.4-4.1,0.1-5.9-0.9c-3-1.6-5.2-3.9-6.8-6.9C47.6,130.7,51.4,134.9,58.3,132.8z"
		/>
	<path d="M50.3,134.8c0.4,1.3,0.9,1.2,1.6,0.7c0.9-0.6,1.4-0.4,1.5,0.7c0,0.3,0.1,0.6-0.2,0.7c-0.3,0.1-0.4-0.2-0.4-0.4
		c-0.3-0.9-0.6-0.1-0.9,0c-0.4,0.1-0.7,0.6-1.2,0.3C50.2,136.5,50.1,136,50.3,134.8z"/>
	<path d="M40.9,143c0.7-0.1,1.4-0.1,1.2-1.1c-0.1-0.4,0.5-0.5,0.8-0.5c0.4-0.1,0.8-0.3,1.1,0c0.3,0.3,0,0.6-0.3,0.6
		c-0.7,0-0.9,0.3-0.7,1c0.3,1-0.2,1.2-1,0.7C41.7,143.4,41.3,143.5,40.9,143z"/>
	<path d="M44,139.8c0.4,0,0.9-0.1,0.9,0.5c0,0.4-0.4,0.5-0.7,0.4c-0.4-0.1-1-0.1-1-0.6C43.2,139.7,43.7,140,44,139.8z"/>
	<path d="M130.4,132.2c-0.8,0-1.4,0.4-2.2-0.1c0.9-0.2,1.8-0.4,2.7-0.6c0,0,0.1,0,0.1,0c0.2,0,0.4,0.2,0.3,0.3c-1,0.6,0.9,1.1,0,1.6
		c0,0-0.1,0-0.1,0c-0.5,0.2-1,1-1.6,0.5c-0.6-0.5,0.4-0.9,0.5-1.4C130.2,132.6,130.3,132.5,130.4,132.2z"/>
	<path d="M132.7,139.3c-2.3,0.3-4.6,1-6.9,1.2C128,139.6,130.2,138.9,132.7,139.3z"/>
	<path d="M133.3,137.1c0.3-0.8,0.8-1.2,1.4-1.2c0.4,0,0.6,0.5,0.7,0.8c0,0.1-0.1,0.3-0.1,0.4c0,0-0.3,0-0.3-0.1
		C134.5,136.1,133.9,137.1,133.3,137.1z"/>
	<path d="M132.9,134.1c-0.2,0.8-0.6,1.5-1.3,2.3C131.5,135.1,132.3,134.6,132.9,134.1z"/>
	<path d="M92.3,106.3c-0.6,0-0.8-0.3-0.8-0.8c0-0.6,0.3-1,0.9-1.1c0.6,0,0.7,0.5,0.7,0.9C93.1,105.8,92.9,106.3,92.3,106.3z"/>
	<path d="M93.4,114c0,0.5-0.1,1-0.7,0.9c-0.6-0.1-0.6-0.5-0.6-1c0-0.5,0.1-0.9,0.7-0.9C93.4,113.1,93.3,113.6,93.4,114z"/>
	<path d="M93.5,121.4c0-0.4,0-0.8,0.5-0.8c0.6,0.1,0.7,0.6,0.7,1.1c0.1,0.5-0.3,0.6-0.7,0.6C93.4,122.3,93.6,121.8,93.5,121.4z"/>
	<path d="M103.8,141.6c0.4-0.3,0.4-1,1-1.4c0.3,0.9-0.2,1.7-0.3,2.6c0,0.3-0.3,0.3-0.5,0.1c-0.2-0.2-0.5-0.4-0.7-0.7
		c-0.6-1-1-1.2-1.5,0.1c-0.1,0.3-0.3,0.5-0.6,0.2c-0.2-0.2-0.3-0.4,0.1-0.6c0.5-0.3,0.3-1.3,1.1-1.5
		C103.1,140.4,103.1,141.5,103.8,141.6z"/>
	<path d="M105.3,140c0.4-0.1,0.5,0.1,0.7,0.3c0.5,0.4,0.7,0.3,0.7-0.3c0.1-1.2,0.4-1.4,1.8-0.6c-1.3-0.1-1.4,0.5-1.2,1.4
		c0.1,0.3,0.1,0.6-0.2,0.7c-0.3,0.2-0.5-0.1-0.7-0.3C105.9,140.9,105.5,140.6,105.3,140z"/>
	<path d="M97.3,140.7c0.7,0.8,1.3,1.5,2,2.3C98.1,142.7,97.4,142,97.3,140.7z"/>
	<path d="M110.2,137.8c-0.1,0.3-0.3,0.5-0.6,0.3c-0.5-0.3-1.2-0.3-1.4-1c-0.1-0.3,0.3-0.3,0.5-0.2
		C109.4,137.1,109.9,137.2,110.2,137.8z"/>
	<path d="M100.6,83.5c3.1,0,5.6,3.1,5.1,5.9c-0.3,2.1-1.5,3.5-3.2,4.8c-0.9,0.7-1.4,0.7-2.4,0.6c-2.5-0.3-4.5-1.6-5.1-4
		c-0.6-2.5,0.4-5.2,2.6-6.4C98.6,83.9,99.6,83.5,100.6,83.5z M104.5,88.9c0-2.3-1.7-4.3-3.7-4.4c-2.4,0-5,2.4-5,4.6
		c-0.1,2.3,1.9,4.4,4.2,4.4C102.3,93.5,104.4,91.3,104.5,88.9z"/>
	<path d="M100.2,81.2c-0.7-0.7-0.3-1.4-0.3-2.1c-0.5,0.2-0.9,0.4-1.3,0.5c-0.1-0.1-0.1-0.1-0.1-0.1c0.5-0.7,1.6-1.6,1.9-1.2
		C101.1,79,100.5,80.1,100.2,81.2z"/>
	<path d="M102.1,79.7c0.2,0.6,0.4,1.2-0.3,1.9C101.6,80.8,101.8,80.2,102.1,79.7z"/>
	<path d="M127.4,159.1c-0.2-0.2-0.3-0.3-0.5-0.4c-0.3-0.4-0.1-1.2-0.8-1.2c-1.1,0-2.1,0.3-3.2,0.4c-0.3,0-0.3,0.3-0.3,0.6
		c0,0.2,0.1,0.5,0.1,0.7c0.1,0.8,0.6,1.9,0,2.3c-1,0.6-2.3,0.8-3.5,0.4c-1-0.3-0.8-1.3-1.1-2c-0.2-0.4,0.3-1.3-0.5-1.2
		c-0.8,0-1.7,0-2.2,0.9c-0.5,0.8-0.5,1.7-1.3,2.6c-0.2-0.7-0.1-1.2,0.1-1.7c0.3-0.7,0.2-1-0.7-0.5c0.4-1.1,1.3-1.4,2-1.7
		c1.1-0.5,2.3-0.8,3.5-0.9c2.1-0.2,4.3-0.4,6.4-0.5C127,156.7,127.6,157.4,127.4,159.1z M120.2,160.9c0.4,0,0.6,0,0.8,0
		c0.4,0,0.8,0,1-0.5c0.1-0.4,0.1-0.9-0.2-1.1c-0.4-0.3-0.7,0.1-1.1,0.2c-0.2,0-0.4,0.1-0.6,0.2c-0.4,0.2-1.1,0.2-0.9,0.9
		C119.5,161.2,120,160.9,120.2,160.9z"/>
	<path d="M127.9,164.3c0.4,2.6,1,5.1,2,7.5c0.1,0.3,0.4,0.7,0.1,1c-0.3,0.4-0.6,0.1-1,0c-0.6-0.2-1.1,0.2-1.6,0.3
		c-3,0.9-6,0.9-8.9-0.2c-0.7-0.3-1.3-0.7-1.7-1.4c3.5,1.7,7,1.5,10.7,0.9c-0.3-0.7-1-0.7-1.3-1.2c0.6-0.1,1,0.3,1.5,0.4
		c0.3,0.1,0.6,0.5,0.9,0.2c0.3-0.3,0-0.6-0.1-0.9C128,168.6,127.8,166.4,127.9,164.3z"/>
	<path d="M123.3,171.4c-2.9-0.3-6.9-4.7-7-7.6c1,1.6,1.8,3.2,3,4.4C120.5,169.5,121.9,170.5,123.3,171.4z"/>
	<path d="M114.7,165.4c-0.7-0.9-0.7-1.6-0.3-2.6C114.8,163.7,115,164.4,114.7,165.4z"/>
	<path d="M158.7,127.5c0,0.7-0.3,0.7-0.5,0.9c-1.1,0.9-1.1,0.9,0.1,1.7c0.5,0.3,0.6,0.7,0.4,1.2c-0.3,0.7-0.7,1.3-1.6,1.6
		c0-0.9,1.1-1.2,1-2.1c-0.6-0.4-1.7-0.4-1.7-1.3C156.6,128.5,157.7,128.2,158.7,127.5z"/>
	<path d="M164.7,83.7c-0.1,1.1-1.2,1.3-1.8,2C163.3,84.9,163.6,83.9,164.7,83.7C164.8,83.7,164.7,83.7,164.7,83.7z"/>
	<path d="M62.2,104.3c1.1,1,2.3,2.1,3.4,3.2c-0.1,0.1-0.2,0.1-0.2,0.2C63.9,107,63,105.7,62.2,104.3z"/>
	<path d="M156,79.5c-2.7,0-3-0.6-1.9-3.1c0-0.1,0.1-0.1,0.1-0.2c0.3-0.5,0.5-1.3,1.1-1.3c0.5,0,0.5,0.8,0.8,1.2
		c0.3,0.6,0.5,1.2,0.8,1.8C157.6,79.3,157.5,79.5,156,79.5z"/>
	<path d="M150.5,82.1c-0.4-2.2-0.6-4.5-1-6.7C150.2,77.6,151.1,79.7,150.5,82.1z"/>
	<path d="M148.2,70c0.8-0.2,1.6-0.9,2.7-0.2C149.9,70.2,149,70.2,148.2,70z"/>
	<path d="M91.1,39.1c1.1,0,1.8,0.8,1.8,1.9c-0.1,1-1.1,2-2.1,1.9c-0.8,0-1.6-0.9-1.5-1.8C89.3,39.9,90.1,39.1,91.1,39.1z M91.1,39.8
		c-0.8,0.1-1.2,0.5-1.2,1.2c0,0.6,0.2,1.1,0.9,1c0.7-0.1,1.3-0.4,1.3-1.3C92.1,40.2,91.6,39.9,91.1,39.8z"/>
	<path d="M92.3,45.5C92.2,46.3,91.9,47,91,47c-0.8,0-1.2-0.6-1.2-1.3c0-0.7,0.2-1.5,1.1-1.5C91.7,44.2,92.2,44.6,92.3,45.5z"/>
	<path d="M103.9,63.8c0.8,0.1,1.6,0.2,2.5,0.3c0.2,0,0.4,0.1,0.4,0.3c0,0.2-0.2,0.3-0.4,0.3C105.4,64.5,104.6,64.6,103.9,63.8z"/>
	<path d="M141.8,68.7c0.4,0.1,0.6,0.5,0.7,0.9c0,0.4-0.2,0.5-0.6,0.4c-0.4-0.1-0.6-0.4-0.6-0.8C141.3,68.9,141.4,68.7,141.8,68.7z"
		/>
	<path d="M127.5,23.9c-5.5-0.6-11-0.7-16.5,0.1C113.3,22.6,124.5,22.2,127.5,23.9z"/>
	<path d="M35.3,154.5c0.5,0.4,0.4,0.9,0.6,1.2c0.1,0.2,0.4,0.6-0.1,0.8c-0.4,0.1-0.5-0.3-0.6-0.6C35.1,155.4,35,155,35.3,154.5z"/>
	<path d="M141.4,37c0-1.1,0.8-2,1.6-2c1.1,0,1.9,0.8,1.9,1.9c0,1.1-0.9,1.9-1.9,1.9C142.1,38.9,141.4,38.1,141.4,37z M142.9,38.1
		c0.7-0.2,1.2-0.5,1.2-1.4c0-0.7-0.5-1-1-0.9c-0.7,0-1.1,0.5-1.1,1.3C142,37.7,142.3,38.1,142.9,38.1z"/>
	<path d="M143.4,39.9c0.7,0.1,1.4,0.4,1.4,1.3c0,0.8-0.3,1.5-1.3,1.5c-0.9,0-1.3-0.7-1.3-1.4C142.2,40.6,142.5,40,143.4,39.9z"/>
	<path d="M145.6,33.8c-1.8,0-3.6,0-5.3-0.8c1.5,0.1,2.9,0.2,4.4,0.2C145,33.2,145.6,33,145.6,33.8C145.5,33.8,145.6,33.8,145.6,33.8
		z"/>
	<path d="M106.9,112c0,0.4,0.1,0.9-0.5,1c-0.5,0.1-0.7-0.2-0.9-0.6c-0.5-0.9-0.1-1.9-0.5-2.9c-0.1-0.3,0.4-0.4,0.7-0.4
		c0.4,0,0.6,0.1,0.7,0.5C106.7,110.4,106.9,111.2,106.9,112z"/>
	<path d="M132.1,63.1c-0.8,0.4-1.5,1-2.5,0.5c0.8-0.3,1.6-0.5,2.4-0.8C132.1,62.9,132.1,63,132.1,63.1z"/>
	<path d="M182.4,77.9c-0.6-0.9,0-1.6-0.4-2.3c-0.1-0.1,0-0.3,0.2-0.3c0.1,0,0.3,0.1,0.4,0.2c0.2,0.4,0.4,0.6,0.7,0.9
		c0.4,0.4,0.6,0.5,1-0.1c0.3-0.5,0.4-1.4,1.1-1.1c0.6,0.2,1,0.9,1.2,1.6c-0.2,0.2-0.4,0.2-0.4,0.1c-0.7-0.9-1.1-0.7-1.6,0.3
		c-0.2,0.5-0.7,0.7-1.2,0.2C183,76.8,182.6,76.7,182.4,77.9z"/>
	<path d="M191.4,76.9c-0.1,0.3-0.3,0.8-0.4,0.5c-0.6-1.1-0.9,0-1.3,0.1c-0.3,0.1-0.6,0.4-0.8,0c-0.2-0.3,0.2-0.4,0.4-0.6
		c0.3-0.2,0.5-0.4,0.7-0.6c0.3-0.3,0.4-0.9,0.8-0.7C191.3,75.8,191.2,76.5,191.4,76.9z"/>
	<path d="M126.7,100.8c0,2.4-0.1,2.6-2.6,2.6c-2.2,0-4.4,0.6-6.7,0.4c-1.1-0.1-1.7-0.5-1.7-1.6c0-0.5-0.1-1-0.1-1.6
		c0-0.4-0.2-0.9,0.6-0.7c0.6,0.2,1-0.5,1.4-1c0.4-0.6,0.9-0.7,1.5-0.7c1.3,0,2.6,0,3.9-0.3C125.5,97.6,126.7,98.5,126.7,100.8z"/>
	<path d="M76.6,88.2c-1,0-1.7-0.7-1.7-1.7c0-0.9,0.6-1.7,0.5-2.6c0-0.3,0.5-0.4,0.9-0.4c1.3-0.2,2.3,0.8,2.4,2.2
		C78.7,86.9,77.8,88.1,76.6,88.2z"/>
	<path d="M89.9,149.4c-0.6,0.1-1.3,1-1.8-0.2c-0.3-0.6,0.3-1.6,1.1-1.8c0.3-0.1,0.7-0.3,1,0.1c0.3,0.3,0.2,0.7,0,1
		C90.1,148.8,90,149.1,89.9,149.4C89.9,149.5,89.9,149.4,89.9,149.4z M89,149.1c0.2-0.2,0.6-0.4,0.6-0.9c0-0.2,0-0.4-0.3-0.4
		c-0.4,0.1-0.8,0.3-0.8,0.9C88.5,149,88.7,149.1,89,149.1z"/>
	<path d="M170.5,265.8c1.3,1.2,2,2.8,2.5,4.4c0.4,1.2,0.7,1.3,1.8,0.5c0.2-0.2,0.4-0.4,0.6-0.5c0.2-0.2,0.3-0.6,0.6-0.2
		c0.3,0.3,0.1,0.5-0.1,0.7c-0.6,0.7-1.4,1.2-2.3,1.5c-3.2,1-6.2,0.5-9-1.3c-1.5-1-2-2.6-2.3-4.3c-0.2-1.5-0.4-2.9-0.8-4.4
		c-0.4-1.6-1.4-2.9-2.5-4.1c1.7,1,2.8,2.5,3.2,4.4c0.3,1.4,0.5,2.8,0.8,4.2c0.3,1.9,1.2,3.4,3.1,4.1c1.6,0.7,3.3,1.1,5.1,1
		c1.2-0.1,1.3-0.3,1-1.5C171.9,268.7,171.3,267.2,170.5,265.8z"/>
	<path d="M170.7,273.6C170.8,273.6,170.8,273.6,170.7,273.6c1,0,2-0.4,2.9-0.3c-0.5,1.3,0.3,2.7-0.3,4.1c-0.4-0.6-0.4-1.2-0.5-1.7
		C172.7,274.5,172.5,273.3,170.7,273.6z"/>
	<path d="M169.3,263.1c-0.3,0.6-0.8,0.2-1.3,0.3c-1.3,0.3-2.6,0.4-3.8,0.9c0.6-0.7,1.4-1,2.4-1.1c0.9-0.1,1.7-0.2,1.4-1.4
		c0.1,0.1,0.3,0.1,0.4,0.2C168.5,262.5,168.8,262.9,169.3,263.1L169.3,263.1z"/>
	<path d="M168.3,262c-0.1-0.1-0.3-0.1-0.4-0.2c-1.1-1.5-1.4-3.2-1.9-4.9c0.1,0,0.2-0.1,0.3-0.1C167,258.5,167.6,260.3,168.3,262z"/>
	<path d="M169.3,263.2c1.4-0.4,3.6-0.2,4.7,0.5C172.4,263.6,170.8,263.6,169.3,263.2C169.3,263.1,169.3,263.2,169.3,263.2z"/>
	<path d="M179.2,270.5c0,0.3-0.1,0.6-0.5,0.5c-0.4-0.1-0.5-0.5-0.5-0.8c0-0.2,0-0.5,0.3-0.5C179.1,269.7,179.1,270.2,179.2,270.5z"
		/>
	<path d="M103.4,88.6c0,2.1-1.5,3.6-3.5,3.5c-1.9,0-3.3-1.6-3.2-3.7c0-1.5,1.8-2.9,3.7-2.8C102.2,85.6,103.4,86.8,103.4,88.6z
		 M99.9,86.6c0,0-0.3,0-0.5,0c-1.4,0.3-2.4,1.6-1.9,2.6c0.1,0.2,0.2,0.5,0.5,0.4c0.3-0.1,0.5-0.2,0.5-0.6c0.3-2.1,0.7-2.3,2.3-1.2
		c0.5,0.3,0.9,0.2,1.2-0.1c0.4-0.4-0.2-0.6-0.4-0.8C101.3,86.6,100.7,86.6,99.9,86.6z"/>
</g>
</svg>
