<?xml version="1.0" encoding="utf-8"?>
<!-- Generator: Adobe Illustrator 22.0.1, SVG Export Plug-In . SVG Version: 6.00 Build 0)  -->
<svg version="1.1" id="Layer_1" xmlns="http://www.w3.org/2000/svg" xmlns:xlink="http://www.w3.org/1999/xlink" x="0px" y="0px"
	 viewBox="0 0 183.1 245.4" style="enable-background:new 0 0 183.1 245.4;" xml:space="preserve">
<g>
	<path d="M108.1,42.1c-1.8-1.9-2.8-4.1-2.5-6.8c0.1-0.4-0.1-0.9-0.5-0.9c-1.7-0.3-3-1.3-4.4-2.2c-0.5-0.3-1-0.3-1.5-0.1
		c-2,0.7-3.8,0.1-5.4-1c-0.9-0.6-1.6-1.2-1.2-2.4c0.4-1.2,1.3-1.6,2.4-1.6c0.9,0,1.8,0,2.7-0.2c1.8-0.3,2.2-1.6,1-3
		c-1-1.2-2.1-2.1-3.9-1.4c-1.1,0.5-2.3-0.1-3.5-0.3c-0.5-0.1-1-0.5-0.9-1.1c0.2-1.2,0.4-2.3,1.7-3c2.1-1,4.2-0.6,6.4-0.5
		c3.8,0.2,6.7,2.3,9.9,3.8c3.1,1.5,5.5,4.1,9.5,4.3c2.6,0.1,4.7,2.6,7,4.1c0.3,0.2,0.6,0.7,0.9,0.7c3,0.5,3.7,3,5.1,5.1
		c2.8,4.2,2.6,8.3,1.4,12.8c-0.6,2.1-1.7,3.5-3.8,4.1c-2.6,0.7-5,2-6.9,3.6c-1.8,1.5-3.7,3.1-5.1,4.8c-1.8,2.4-2.7,5.6-3.9,8.5
		c-0.2,0.6,0.1,1,0.7,1.2c0.9,0.2,1.3,1,1.4,1.7c0.2,2.1,1.5,3.9,1.8,6c0.2,1.1,0.7,1.6,1.9,1.8c7.5,1.2,11.1,8.1,7.8,14.9
		c-0.5,1.1-0.5,1.6,0.5,2.3c1.4,0.9,1.9,2.5,3.2,3.6c3,2.5,6.6,2.9,10.1,3.9c5.1,1.6,9.6,4,11.5,9.6c1.8,5.2,0.8,9.9-1.8,14.4
		c-0.5,0.8-0.6,1.3,0.1,2c2.2,2.2,3.3,4.7,1.8,7.8c-0.3,0.7,0,1.4,0.3,2.1c2,4.4,3.1,9,4.2,13.7c0.8,3.8,0.8,7.5-1.3,11.1
		c-2.6,4.4-3.8,9.3-5.1,14.3c-0.6,2.4-1,4.9-3.2,6.6c-0.8,0.6-0.5,1.7-0.3,2.6c0.8,3.4,2.4,6.4,4.2,9.3c0.6,1,1.2,2,1.8,3
		c1.7,2.8,1.2,5.4-0.6,7.9c-1.6,2.1-3.8,2.5-6.4,2.4c-3.5-0.1-5.2-2.7-7.5-4.6c-1.7-1.4-8.1-8.5-9.2-10.9c-0.3-0.7-0.8-1.1-1.3-1.6
		c-1.3-1.3-1.5-2.6-0.3-4c1.7-1.9,2.9-3.9,1.4-6.5c-0.4-0.7,0-1.5,0.2-2.3c1.9-5.9,2.9-11.9,1.7-18.1c-0.2-1.1,0.1-2.1,0.5-3
		c1.6-3,1.3-6-0.2-8.9c-0.4-0.9-1.2-1.3-2.2-1.4c-3.5-0.3-5.4-2.2-5.8-5.7c-0.1-1.1-0.4-1.9-1.5-2.2c-0.4-0.1-0.9-0.3-1-0.5
		c-1-2.4-3.4-2.7-5.4-3.6c-0.9-0.4-1.5-1-1.7-2c-0.5-1.9-1.5-3.4-3.2-4.5c-0.7-0.5-1.3-1.3-1.8-2c-0.3-0.4-0.6-0.7-1.2-0.5
		c-0.5,0.2-0.7,0.4-0.8,1c-0.2,4.8-0.1,9.3,1.4,14.1c1,3.2,1.7,7.2,0.1,10.9c-0.3,0.7-0.5,1.5-0.6,2.3c-0.3,1.8-0.7,3.5-2.3,4.6
		c-0.3,0.3-0.8,0.7-0.8,1.1c0.2,4.1-3,7.5-2.5,11.4c0.8,6.3-3.3,11.1-4.6,16.7c-0.5,2.2-1.3,4.4-1.8,6.6c-0.4,1.8-1.3,3.2-3,3.9
		c-1.8,0.8-2.1,2.3-1.7,3.9c1.1,4.5,1.5,9,2.6,13.5c1,4.4-1.5,9.7-8.1,9.4c-3.4-0.1-5.8-1.3-7.7-3.5c-1.8-2.1-3.1-4.7-3.3-7.8
		c-0.2-2.6-1-5.1-1.5-7.6c-0.5-2.7-1.7-5.5,0.5-8.1c0.2-0.2,0.3-0.5,0.2-0.7c-0.9-2.1,0.7-4.4-0.4-6.5c-0.3-0.6,0.1-1.3,0.4-1.9
		c1.8-3.8,2.5-7.7,2.2-11.9c-0.2-3.5-0.2-7,2.7-9.7c0.7-0.6,1-1.7,0.5-2.6c-0.9-1.7-0.6-3.3,0-4.9c0.4-1.2,0.4-2.1-1.5-1.8
		c-2.6,0.3-5.2,0.2-7.3-1.8c-1.7-1.6-2.5-3.6-2.4-5.8c0.2-4.6,1.7-8.8,4.1-12.7c0.4-0.7,0.8-1.4,0.7-2.4c-0.1-0.7,0-1.5,0.3-2.1
		c1.1-2.5,0.5-4.6-1.2-6.5c-1.4-1.6-1.7-3.1-0.5-5.2c0.8-1.5,0.7-3.5,0.6-5.3c-0.2-1.6-0.5-3.1-0.2-4.7c0.2-1.1-0.2-1.5-1.2-1.8
		c-2.7-0.9-4.7-5.1-3.7-7.7c0.7-1.8,0.7-3-1.5-3.6c-0.7-0.2-1.1-0.7-1.4-1.3c-0.3-0.7-0.6-1.5-0.8-2.2c-1-4.3-1.5-4.6-5.7-4.1
		c-0.7,0.1-0.9,0.5-1,1c-0.5,2-1.9,3.3-3.5,4.4c-1.2,0.9-2.2,1.9-2.5,3.4c-0.7,3.9-3.6,5.8-6.9,6.5c-6.7,1.5-12.4-1.3-13.2-2.6
		c-1.9-3.1-3.1-6.1-2.7-9.8c0.3-3.1,1.1-6.2,2.4-8.9c1.6-3.3,2.8-7.2,6.7-9.1c1.6-0.8,2.4-2.4,2.7-4.1c0.5-2.4,1.2-4.6,3.8-5.8
		c1.2-0.5,2.1-2,2.5-3.4c0.4-1.1,1.1-1.7,2.2-1.6c1.7,0.1,2.8-1,3.2-2.4c0.5-1.5,0.2-2.9-1.3-3.9c-3.5-2.2-5.8-5.5-8-8.8
		c-0.4-0.5-0.8-1.1-0.9-1.7c-0.4-4.7-2.1-9.2-0.9-14c0.9-3.9,2.7-7.3,5.6-10c6.1-5.8,13.1-9.3,21.7-9.2c7.7,0,13.2,3.6,17,10
		c2.7,4.7,5.6,9.4,5.1,15.2c-0.1,1.2,0.8,1.4,1.7,1.3c1.1,0,1.9,0.2,2.3,1.6c0.4,1.2,1.5,1.7,2.9,1.3c3.3-1.1,6.7-1.2,10.1-0.9
		C106.7,42.8,107.4,42.7,108.1,42.1z M48.5,23.7c2.8-2.8,6.2-4.8,9.8-6.4c3.8-1.7,7.8-2,11.9-1.9c-1.6-0.2-3.2-0.2-4.7-0.2
		c-7.6,0.3-13.9,3.4-19.2,8.7c-4.4,3.8-6.7,10-5.2,14.4c1.1-2.2,2.3-4.3,2.7-6.7c0.2-1.4,1-2.7,1.7-3.9C46,26.6,48.1,24.1,48.5,23.7
		z M62.1,55.4c0.1,0,0.2,0,0.4-0.1c1.1,0,1.9-0.8,2.9-1.1c3-0.9,5.7-2.5,8.7-3.4c1.8-0.6,3.4-2,5.7-2.3c4.1-0.5,7.9-2.4,12-2.8
		c0.4,0,0.8-0.1,1.2-0.2c0.4-0.1,1-0.2,1-0.7c0-0.7-0.7-0.5-1.1-0.5c-1.2,0-2.4,0-3.5,0.1C79.1,45.6,69.9,49.5,61,54.4
		c-0.5,0.3-1.1,0.4-1.2,1.1C60.6,55.8,61.3,56.1,62.1,55.4z M99.6,163.6c0.5-0.2,0.7-0.4,1-0.4c3.3-0.7,5.2-2.7,5.7-6.1
		c0.1-0.9,0.5-1.8,0.8-2.6c1.1-2.6,0.7-3.9-1.7-5.7c-0.2-0.2-0.3-0.4-0.3-0.7c0.3-3.3-0.1-4-3.2-4.9c-0.4-0.1-0.9,0-1-0.5
		c4.1-1,4.8,2.1,5.9,5.1c0.9-1.9,0.3-3.3-0.4-4.5c-0.8-1.6-1.4-3.3-1.4-5.1c0.1-2.4-1-4.1-2.8-5.5c-0.5-0.4-1-1.6-1.8-0.1
		c-0.4,0.7-0.8-0.1-1.1-0.5c-0.5-0.7-0.2-1.8-1.1-2.4c-0.1,1.3,0.8,2.4,0.5,3.8c-1.7-1.2-2.4-2.9-3.1-4.4c-1.1-2.4-3.5-2-5.3-2.6
		c-1.5-0.5-2,1.2-2.7,2.1c-2.5,3.7-4.9,7.4-7.5,11.1c-1,1.4-1.5,2.6-0.5,4.2c0.6,1,0.9,2.4,0.7,3.6c-0.2,1.1-0.1,1.1,1,1
		c1.5-0.2,2.5,0.8,3.4,2c0.8,1,0.2,1.6-0.2,2.5c1-0.8,2.4-1.1,2.4,0.4c0,1.8,1.1,1.8,2.1,2.2c1.2,0.5,2.5,0,3.7-0.2
		c0.5-0.1,1.3-0.5,1.4,0.5c0,0.6-0.4,1.1-1.1,1.2c-0.7,0.1-1.6-0.2-2.1,0.7c0.5,0.6,1.1,0.5,1.6,0.7c1.1,0.5,2.8,0.9,3,1.6
		c0.4,2.2,1.4,0.7,2.1,0.6c0.6-0.1,1.1-0.7,1.9-0.5c-0.5,0.5-0.8,0.8-1.3,1.4c1.9-0.2,3.3-1.9,5.2-0.3c-2,0.4-3.9,1-4.9,3.2
		c1.9-0.1,3.6-0.1,4.6,2.1C104,162.3,101,164.5,99.6,163.6z M141.5,123.6c-0.6-2.2-1.3-4.4-1.7-6.6c-0.5-3-2.2-5.3-4.3-7.3
		c-0.8-0.8-1.8-1.3-2.8-1.2c-1.3,0.1-2.4-0.2-3.6-0.3c-0.7-0.1-1.2-0.2-1.4,0.6c-0.1,0.7,0.4,1.2,1,1.2c1.5,0,2.7,0.6,3.9,1.2
		c0.9,0.4,2.6,0.5,2.1,2.1c-0.5,1.5-1.7,0.3-2.6,0.2c-1.8-0.2-3.7-0.7-5.4-0.1c-1.4,0.5-1,2.3-1.6,3.4c-0.2,0.4-0.4,0.7-0.5,1
		c-0.5,0.9-0.4,1.5,0.8,1.6c1.2,0.1,2.1,0.8,2.8,1.7c-0.7-0.1-1.3-0.3-1.9-0.4c-0.6-0.2-1.3-0.3-1.9-0.3c-1.3-0.1-3.4,2.6-2.6,3.5
		c1.3,1.6,2.7,3.3,4.8,4.1c0.7,0.3,1.7,0.1,1.7,1.2c0,1.1-1.1,1.1-1.8,1.3c-1.7,0.3-3.4,0.4-5.3,0.6c6.2,2.3,12.9,2.8,18.5,6.9
		c-1.4,0.7-2.2,0.3-3,0.1c-1-0.1-1.9-0.5-2.9-0.6c-0.5-0.1-1.2-0.2-1.4,0.3c-0.3,0.6,0.2,1,0.7,1.2c0.6,0.3,0.5,0.6,0.3,1.1
		c-0.3,1.3,0.3,1.8,1.6,1.5c0.7-0.1,1.6-0.5,2,0.3c0.9,2.4,3.1,4.6,1,7.4c0,0.1,0,0.2,0.1,0.3c0.5,0,0.9-0.8,1.6-0.2
		c-0.3,0.4-0.6,0.7-1.1,1.3c2-0.5,1.9,0.7,2,1.9c0.7-2.3,2.4-3.1,4.4-3.6c1.4-0.4,2.8-0.7,4.1-1.2c3.8-1.4,3.9-2,2.4-5.6
		c-0.5-1.3-1-2-2.5-0.8c0.2-0.6,0.4-0.9,0.7-1.2c2.5-3.7,2.5-5-0.3-8.4c-1.1-1.3-1.9-2.8-2.4-4.5c-0.6-1.8-1.3-3.6-2.2-5.2
		c-0.8-1.4-2.1-2.5-3.4-3.5C141.6,120.1,142.1,121.8,141.5,123.6z M142,164c-2.6,0.6-4.7,0.8-6.7,0c-0.8-0.3-1.8-0.5-1.6,0.8
		c0.6,2.8,0.2,5.8,2.1,8.3c0.5,0.7,1.1,1.5,0.5,2.3c-0.5,0.8-0.1,1.5-0.2,2.1c-0.2,2.2,0.8,3.9,1.7,5.7c0.2,0.4,0.6,0.9-0.3,1
		c-0.5,0-1.1-0.4-1.1,0.5c0,0.7,0.6,1,1.1,1.2c1.5,0.5,3.1,0.6,4.7,0.4c4.4-0.4,5.4-1.2,6.4-5.5c1.4-5.9,3-11.7,6.1-17
		c0.2-0.4,0.6-0.9,0.3-1.3c-0.4-0.5-1,0-1.4,0.2c-1.9,0.8-3.7,2-5.8,2.3c-1.7,0.2-3.7,0.5-4.7-1.1c-1.2-2-2.9-1.4-4.5-1.7
		c-0.4-0.1-0.8,0.1-0.8,0.6c0,0.4,0.3,0.5,0.7,0.6C139.4,163.7,140.4,163.4,142,164z M99.7,181.5c-3.7,1.3-11.1,1.1-14.6-0.4
		c-0.4-0.2-1-0.6-0.9,0.3c0,1.2-0.8,1-1.5,1c-0.8-0.1-1.7-0.4-2.5-0.5c-1-0.1-1.5,0-1.3,1.3c0.6,3.3,0.5,6.6-0.5,9.9
		c-0.4,1.3-0.1,2.7,0.9,3.8c0.4,0.4,1.1,0.9,1,1.4c-0.8,2.4,1.1,2,2.2,2.3c1.1,0.3,2.3,0.4,3.5,0.8c1,0.3,2.1,1.1,2.7-0.7
		c0.2-0.5,0.9-0.5,1.4-0.4c3.3,0.2,3.4,0.1,4.2-3.1c1.2-4.7,2.6-9.2,4.6-13.6C99.3,182.8,99.9,182.3,99.7,181.5z M69.6,72.2
		c1.6-2.3,4.3-1.6,5.9-3.2c-1.3,1.7-2.3,3.4-3.1,5.4c-0.2,0.4-0.5,0.8,0.2,1.1c0.6,0.2,1,0.2,1.2-0.5c0.3-1.5,1.3-2.7,1.8-4.1
		c0.8-2.1,2.1-3.2,4.6-2.9c-1.1-1.5-2.3,0.3-3.5-0.5c1.3-0.9,1.7-2.4,3.4-2.8c1.8-0.4,2.2-3,1.2-4.5c-0.7-1.1-1.5-1.1-2.5-0.7
		c-0.9,0.3-1.8,0.5-2.7,0.6c-0.9,0-2.6,0.3-2.7-0.3c-0.2-1.2,1.2-1.4,2.2-1.8c0.5-0.2,1.3-0.3,1-1.1c-0.2-0.6-0.5-1.6-1.4-1.4
		c-1.8,0.4-1.8-0.9-1.9-1.9c-0.1-0.6,0.2-1.1-0.7-0.9c-1.9,0.5-3.9,0.9-5.5,2c-0.4,0.3-1,0.6-0.8,1.2c0.6,1.5-0.6,1.5-1.4,1.7
		c-1.9,0.4-3.9,0.7-5.8,1.1c-1,0.2-1.9,0.6-2.1,1.9c0.9,0.3,1.4-1,2.3-0.3c1.4,1.1,2.9,0.7,4.4-0.4c-0.3,2.7-3.2,2.5-4.1,4.3
		c0.7,0.5,1.5-0.6,1.6-0.2c0.2,1,0.7,0.5,1.2,0.7c1.7,0.4,2.8-1,4.4-1.2c0,1.3-1.1,1.7-1.7,2.4c-0.7,0.8-2.9,1.2-1,2.9
		c0.1,0.1,0.1,0.5,0.4,0.5c0.8-0.6,1.3-1.6,2.8-2.1c-0.7,1-1.2,1.6-1.7,2.3c-0.3,0.4-0.5,0.8-0.2,1.3c0.3,0.5,0.8,0.5,1.2,0.4
		c0.5-0.1,1-0.3,1.5-0.4C69.1,70.5,69.8,70.5,69.6,72.2z M76.7,209.3c0.8,2.1-0.4,3.8-0.4,5.6c-0.2,6,4.9,10.9,11,10.6
		c3.9-0.2,6.1-2.8,4.9-6.5c-1.2-3.8-1.5-7.7-2.3-11.6c-0.1-0.8-0.1-1.7-0.9-2.1c-0.8,0.4,0.3,1.2-0.5,1.6c-0.9-0.8-0.5-1.7,0-3
		c-1.2,0.6-2.5,0.2-2.9,1.4c-0.4,1.2-1.1,1.2-2.1,1.1c-1.5-0.1-2.9,0.1-4.3,0.7c0.3,0.1,0.5,0.1,0.8,0c0.8-0.2,1.5-0.2,1.7,0.7
		c0.2,0.8-0.5,1.2-1.1,1.4C79.3,209.7,78.1,210.4,76.7,209.3z M142.3,187.4c0.2,2.2,0.2,2.2-2.3,2.7c-0.5,0.1-1.3,0.1-1.2,0.8
		c0.3,1.7-0.9,1-1.5,1c-0.7,0-1.4-0.6-2.1,0c-0.9,0.8-1.6,5.9-0.8,6.8c3,3.3,5.6,7,9.3,9.6c2.3,1.6,5.4,1.3,7.7-0.6
		c1.4-1.2,1.4-3.4,0-6c-0.3-0.5-0.6-1-0.9-1.5c-2.2-3.5-4.3-7.1-5.2-11.2c-0.1-0.5-0.3-1.2-0.9-1C143.5,188.4,143,187.4,142.3,187.4
		z M95.5,55.2c0.6-0.1,1-0.1,1.2-0.3c0.8-0.8,2.5-0.9,2.4-2.3c-0.2-1.9-0.8-3.7-2.4-5.1c-1.3-1.1-3-1-4.6-1.1c-3.3-0.2-6,2-9.2,2.3
		c-4.5,0.3-3.6,1.1-1.7,3.8c1.2,1.7,2.6,2.2,4.3,1.5c0.5-0.2,0.9-0.4,1.2,0.1c0.5,0.7-0.2,0.9-0.6,1.2c-0.5,0.3-1,0.6-1.5,0.9
		c-0.3,0.2-0.7,0.5-0.3,0.7c1.3,0.7,1.7,2.2,3.2,2.8c1.6,0.6,2.8,0.6,4.2-0.3c0.7-0.5,1.8-0.9,2.3-0.1c0.6,1-0.5,1.4-1.2,1.8
		c-1.2,0.7-2.5,1.4-3.7,2.2c-0.5,0.3-1.7,0.5-1.2,1.4c0.4,0.9,1.3,0.4,1.9,0.2c3.4-1.1,6.7-2.3,10.1-3.3c1.2-0.4,2.4-1,2.7-2.3
		c0.3-1.2-0.7-2.2-1.6-3c-0.8-0.8-1.8-0.8-2.8-0.7C97.4,55.6,96.6,56,95.5,55.2z M35.4,83.9c1.2-0.2,1.8-1.3,2.5-2.2
		c0.4-0.4,0.6-1.1,1.2-0.7c0.9,0.6,0.9-0.2,1.2-0.6c0.4-0.5,0.6-1.2,1.1-1.6c2.1-1.5,3.5-3.4,4.3-5.9c0.5-1.5,2.2-2.2,3.8-1.7
		c1.7,0.6,1.8,2.1,1.4,3.6c-0.5,1.5-0.6,2.9-0.9,4.4c-0.2,1.2-0.2,2.5,0.8,3.3c1.1,0.9,2.5,1.1,3.9,0.2c1.1-0.7,2.4-1.2,3.7-1.2
		c1,0,2-0.1,2.6,1c0.5,1.1,0.6,2.3-0.2,3.3c-0.7,0.9-1.6,1.6-2.7,1.9c-1.2,0.4-2.4,0.8-3.5,1.2c-1.9,0.7-3.1,1.9-2.9,4.1
		c0,0.4-0.3,1,0.2,1.2c0.5,0.2,0.8-0.2,1.2-0.5c1.3-0.9,2.4-2.5,3.8-2.5c3.6,0,5.2-1.3,5.5-5c0.1-2.3-0.2-4.2-2.2-5.4
		c-0.4-0.2-0.4-0.3-0.2-0.7c0.5-1.4-0.5-2-1.4-2.4c-0.3-0.2-0.7,0-0.9-0.5c-0.6-2-1.6-3.3-4-2.4c-0.5,0.2-1,0-1.3-0.6
		c-0.3-0.6,0-1,0.6-1.2c1.2-0.5,0.8-1.1,0.1-1.7c-2.4-2.1-5-2.3-8-1.5c-3.9,1.1-5,2.6-3.9,6.5c0.2,0.5,0.3,0.9-0.2,1.1
		C38.2,78.9,37.2,81.7,35.4,83.9z M99.9,80.4c-0.2-0.5-0.2-0.7-0.3-0.8c-2.1-4.6-4.2-9.2-6.3-13.8c-0.4-0.8-0.8-0.9-1.6-0.6
		c-2.8,1-5.5,2.1-8.3,3.1c-0.9,0.3-1.2,0.9-0.7,1.8c0.8,1.7,1.6,3.5,2.4,5.2c1.2,2.4,0.8,3.3,4.1,1.8c1.5-0.7,2.5-0.2,3,1.4
		c0.4,1.1,0.9,2.2,1.4,3.2c0.3,0.7,0.6,1.4,1.6,0.9C96.8,81.8,98.7,81.8,99.9,80.4z M43.4,93.6c3.3-1.8,7-2.6,9.8-5.1
		c1.7-1.6,4-1.9,5.8-3.2c0.6-0.4,1.5-0.9,1.1-1.9c-0.3-0.9-1.2-0.8-2-0.8c-1.7-0.1-2.9,1.3-4.5,1.5c-2.2,0.3-3.7-0.7-4.5-2.7
		c-0.5-1.3,0.5-2.7,0-3.3c-0.9-1.3-0.1-1.6,0.5-2.3c0.7-1,0.7-2.1,0.3-3.2c-0.1-0.4-0.5-0.7-0.9-0.6c-1.2,0.3-1.4,1.5-1.8,2.4
		c-0.1,0.3-0.1,0.6-0.2,1c-0.7,2.3,0.1,4.8-1,7c-0.3,0.7-0.3,1.8-1.2,1.9c-1,0.1-1.1-0.9-1.3-1.7c0-0.2,0-0.4-0.6-0.3
		c0,1.8,0.5,3.5,1,5.2C44.4,89.6,45.4,91.7,43.4,93.6z M87.3,33.1c-4.4,6.1-10.6,9.1-17.2,11.5c-6.5,2.3-13.2,4-20.3,3.4
		c0.2,0.7,1.3,0.8,0.9,1.6c-0.4,0.8-1.2,0.4-1.9,0.7c0.7,0.6,1.5,0.9,2,0.5c1.9-1.6,4-0.9,6-0.8c2.4,0.1,4.8-0.2,6.9-1.2
		c7.3-3.5,14.6-6.5,22.7-7.6c1.4-0.2,1.7-0.9,1.7-2.1C88.1,37.2,87.8,35.3,87.3,33.1z M104.2,43.7c3.4,6.6,6.8,13.2,9.1,20.4
		c2.1-3.4,1.7-6.5-0.8-9.4c1.5,1.3,3.6,1.9,4,4.1c0.7-2-0.8-3.7-0.8-5.6c0.8,0.2,0.8,1.6,1.5,1c0.8-0.7-0.4-1.2-0.7-1.7
		c-0.9-1.4-2.8-1.8-3.4-3.4c-0.9-2.4-2.7-3.9-4.7-5.4c1.2,2,1.7,4.2,2.1,6.9c-1.3-1.1-2.1-2-2.1-3.5
		C108.2,44.4,107.4,43.6,104.2,43.7z M114.4,99.5c-0.9-2.9-2.7-2.4-4.3-1.8c-5.7,2.1-11.4,4.3-17.2,6.4c-0.2,0.1-0.5,0.2-0.7,0.3
		c-0.6,0.3-0.9,0.9-0.5,1.5c0.5,0.8,0.9,0,1.2-0.3c4-3.1,7.5-1.8,8.3,3.3c0.1,0.7,0.2,1.2,0.9,1.2c1.9,0.2,1.1,0.9-0.2,1.9
		c1.8-0.6,3-1.1,4.2-1.5c1.2-0.4,1.4-1,0.6-2c-0.7-0.9-1.2-1.9-0.2-3c0.5-0.5,0.1-1.1,0.1-1.7c0.1-2.1,0.9-3.9,2.7-5
		C111,97.8,112.6,97.8,114.4,99.5z M107.4,60.1c0-0.2,0.1-0.4,0.1-0.6c0-0.2-0.1-0.4-0.2-0.6c-2.3-2.7-3-6.1-4.2-9.3
		c0-0.1-0.1-0.3-0.2-0.3c-2-0.7-2-2.8-3.1-4.1c-0.2-0.2-0.3-0.4-0.4-0.7c-0.3-0.4-0.6-0.7-1.1-0.5c-0.7,0.4-0.2,0.8,0,1.1
		c0.6,0.8,0.6,1.7,0.7,2.6c0.3,3,1.4,5.7,3,8.2c0.6,1,1.4,2,1.5,3.2c0.2,2.6,2.6,4.4,2.6,7.1c0,0.2,0.3,0.4,0.5,0.5
		c1.8,1.4,3.5,2.8,2.5,5.4c-0.2,0.4,0.2,0.9,0.6,0.9c1,0.1,1.9-0.2,2.8-0.7c0.3-0.2,0-0.6-0.1-0.9c-0.2-0.5-0.4-0.5-0.8-0.1
		c-0.3,0.3-0.8,0.6-1-0.2c-0.4-3.1-1.9-5.8-2.8-8.7C107.6,61.7,107.1,61,107.4,60.1z M92.6,82.9c-0.7-1.5-1.1-3.1-2.1-4.3
		c-0.7-0.8-1.9,0.2-2.9,0.6c-1.6,0.6-2.4,0.1-3-1.4c-0.9-2.1-1.9-4-2.8-6.1c-1.2-2.6-1.2-2.5-3.9-1.3c-1.3,0.6-1.6,1.3-0.8,2.6
		c1.8,2.9,3.5,5.9,5.3,8.7c0.9,1.4,1,3.5,3.9,3.4c2.3-0.1,4-1.1,6-1.6C92.5,83.5,92.5,83.1,92.6,82.9z M51.6,63.4
		c1.2-0.6,1.7-0.1,2.2,0.5c2,2.2,4.5,4,5.7,6.9c0.9,2,2.6,3.3,4.3,4.8c2,1.6,3.2,4.1,4.8,6.2c0.4,0.6,0.8,1.1,1.6,0.6
		c0.4-0.2,1.2-0.3,1-1c-0.2-0.7-0.6-1.7-1.3-1.5c-1.3,0.3-1.2-0.7-1.3-1.2c-0.5-2.7-2.1-4.8-3.5-7c-2.3-3.6-5.7-6.1-8.9-8.8
		C54.8,61.8,53.2,61.3,51.6,63.4z M126.8,90.2c0-0.4,0-0.8,0-1.2c-0.3-4.1-4.1-7.8-7.9-7.9c-1.1,0-1.8,0-1.3,1.5
		c0.3,0.9,0.4,1.9,1.1,2.7c0.8,1,1.3,2.1,1.4,3.4c0.1,1.1,0.7,2,1.6,2.6c1,0.7,1.9,1.6,2.3,2.8c0.3,0.9,0.8,0.9,1.6,0.2
		C126.8,93.2,126.8,91.7,126.8,90.2z M65.8,18.5c-1-0.2-1.8-0.3-2.6,0.3c-1.2,0.8-2.4,1.5-4,1.6c-0.4,0-0.8,0.4-1.2,0.6
		c-0.2,0.1-0.3,0.4-0.3,0.6c0.1,0.4,0.4,0.4,0.8,0.4c3.9-0.4,7.9-0.2,11.9-0.3c3.6,0,6.7,1.5,9.6,3.5c0.7,0.4,0.8,1.4,1.5,1.8
		c0.4,0.2,0.8,0.5,1.2,0c0.3-0.4,0.1-0.7-0.1-1c-0.6-0.8-1.4-1.6-1.8-2.5c-1.3-2.7-3.8-3.4-6.3-4.4C71.6,17.8,68.7,17.9,65.8,18.5z
		 M107.2,77.4c-0.6-1.6-1.1-3-1.7-4.4c-1.9-5-1.9-5-6.8-2.7c-0.2,0.1-0.5,0.2-0.7,0.3c-0.5,0.3-0.7,0.6-0.4,1.1
		c1.2,2.6,2.3,5.3,3.7,7.8c0.6,1.1,1.6,0.2,2.2-0.2C104.8,78.8,106.4,78.8,107.2,77.4z M124.4,46.8c0.4,0.8,0.6,1.5,0.8,2.1
		c0.3,1.1,0.7,2.8,2.2,2.9c1.7,0.1,3.2-0.7,3.9-2.5c1.1-3.1,1.6-6.2,0.5-9.4c-0.3-1-0.9-2.1-2-1.5c-1.6,0.8-3.9,1.1-3.8,3.7
		c0.6,0.1,1-0.8,2-0.4c-1.1,1.5-1.1,2.6,0.8,3.5c0.9,0.4-0.2,1-0.6,1.1C126.9,46.6,125.7,46.7,124.4,46.8z M89.9,99
		c0.9-0.3,1.8-0.9,2.6-0.7c1.7,0.4,2.9,0.1,3.8-1.4c0.3-0.4,1-0.7,1.6-0.6c2,0.4,3.2-0.5,3.9-2.2c0.1-0.2,0-0.6,0.3-0.5
		c3.1,0.8,5.3-1.8,8.1-2.2c0.5-0.1,0.9-0.3,0.8-0.9c-0.1-0.5-0.4-1-0.9-0.8c-2.3,0.9-5,0.2-7.3,1.4c-2.9,1.5-5.9,2.5-9,3.3
		C90.3,95.3,89.5,96.2,89.9,99z M146.5,122.5c2.8-5-2.3-12.6-9-12.7C139.6,114.6,143.1,118.5,146.5,122.5z M125.1,113.2
		c0-0.9-0.3-1.3-0.7-1.6c-1.2-1.1-3.4-0.6-4.1,1.1c-0.6,1.4-1.2,2.8-2,4.1c-1.5,2.6-1.4,3,0.5,5.4c0.8,1,1.1,0.8,1.6-0.1
		c1.6-2.4,3-4.9,4.2-7.6C124.9,114,125,113.5,125.1,113.2z M114.8,26.4c0.3,0.3,0.7,0.7,1.1,0.9c2.2,1.3,4,2.9,4.3,5.7
		c0,0.4,0.3,0.7,0.6,0.7c2.1-0.1,4,1.8,6.2,0.5c0.5-0.3,0.8-0.1,0.9,0.4c0.2,0.5,0.4,1,0.4,1.5c0.1,0.9,0.6,0.9,1.3,0.8
		c1-0.2,0.4-0.7,0.3-1.1c-0.7-1.9-1.5-3.7-3.8-4c-0.5-0.1-0.9-0.7-1.4-1C121.4,29.1,119.1,25.5,114.8,26.4z M147.1,161.9
		c-1.8,0-2.4-1-2.7-2.2c-0.5-2-0.7-4-1.4-5.9c-0.8-2.1-0.9-1.9,1.3-2.4c2.8-0.7,5.6-1.8,8.4-2.8c0.6-0.2,1.1-0.6,0.8-1.3
		c-0.2-0.5-0.7-0.6-1.2-0.3c-2.7,1.8-5.8,2.3-8.8,3.3c-1.5,0.5-1.9,1.6-1.6,3.1c0.5,2.3,0.9,4.6,1.5,6.9c0.4,2,2.7,3.2,4.6,2.8
		c2.1-0.5,4.2-1.2,6.2-2c0.8-0.3,2.2-0.6,1.7-1.7c-0.5-1.1-1.5,0-2.2,0.2C151.5,160.4,149.3,161.7,147.1,161.9z M107.4,84.9
		c-1.9,0.9-3.9,1.9-5.8,2.7c-1,0.4-1.4,0.9-1,2c0.5,1.3,1.2,0.8,2,0.6c0.9-0.3,1.7-0.6,2.6-0.9c1.6-0.5,3.1-1,4.7-1.5
		c0.8-0.2,1.2-0.6,0.9-1.4c-0.5-1-0.9,0-1.4,0.1c-0.6,0.3-1.1,1-2.1,0.8c0.9-1,1.6-2,2.5-2.8c0.9-0.8,0.6-1.6,0.2-2.5
		c-0.3-0.7-1-1-1.6-0.8c-1,0.4-2.8,1.3-2.6,1.7c1.1,1.9-0.8,1.4-1.3,1.7c-1,0.7-2.2,1-3.8,1.7C103.3,86.4,105,84.6,107.4,84.9z
		 M101.4,118.1c-0.6,0.9-1,1.6-1.4,2.4c-0.2,0.4-1,0.5-0.5,1.1c0.4,0.5,0.9,0.5,1.4,0.2c1.6-0.8,3.3-0.4,5-0.4
		c0.5,0,1.3,0.6,1.3-0.5c0-0.8-0.7-0.8-1.3-0.7c-0.9,0.1-1.8,0.2-2.8,0.2c-0.5,0-1.2,0-1.3-0.6c-0.2-0.7,0.5-0.8,1-1
		c1.2-0.6,2.4-1.1,3.6-1.7c0.5-0.2,0.9-0.6,0.8-1.2c0-0.4-0.4-0.8-0.8-0.8c-1.6,0.3-3.2-0.1-4.8,0.4c-2.4,0.9-4,2.6-5.7,4.7
		C98,120.1,99.3,118.3,101.4,118.1z M124.8,37.4c0.9,0.3,0.5,1.4,1.3,1.7c-0.5-2.6-1.1-3-3.3-2c-0.9,0.4-1.8,0.7-2.7,1.1
		c-1.4,0.7-1.3,2.2-1.8,3.4c-0.3,0.6,0.5,0.5,0.9,0.4c0.6-0.2,1.1-0.9,2.2-0.8c-1.8,1.7-3.7,2.8-6.2,3.1c1.6,1.4,3.4,1,4.5,0.5
		C123,43.6,123.5,40.1,124.8,37.4z M92.2,123.5c0.3,0.7,0.9,0.8,1.3,1c1.8,1.2,4.2,0.7,6,2.2c1.8,1.4,3.8,2.6,5.7,4.1
		c0.1-2.3-1.7-3.1-2.8-4.3c-1.9-2.3-4.7-3.4-6.9-5.3c-0.3-0.3-1-0.5-1.5-0.3c-0.3,0.1-0.6,0.5-0.4,0.8
		C94.9,123.6,93.3,123.4,92.2,123.5z M101.6,168.4c0.2-3-0.1-3.4-2.9-3c-2,0.3-4,0.3-6.1,0c-1.2-0.2-2.3,0.1-3.5,0.3
		c-0.9,0.2-1.6,0.7-1.5,1.6c0.3,3.5-1.7,6.8-0.6,10.5c0.8-3,1.9-5.6,1.4-8.6c-0.3-1.9,0.6-2.6,2.5-2.8c1.4-0.2,2,1.1,3.3,1.1
		c1.7-0.1,3.4-0.2,5.1-0.3C100.2,167,101.1,167.2,101.6,168.4z M110.8,33.8c1.3,0.4,2.2,0.1,3.2-0.1c0.5-0.1,1.1-0.3,1.3,0.4
		c0.2,0.7-0.4,0.9-0.9,1.1c-0.7,0.3-1.5,0.5-2.2,0.7c3.1,0,5.8-1.5,6.1-3.4c0.3-1.8-2.5-5.1-4.5-5.4c-3-0.5-4.5,0.5-5.3,3.8
		c1.1-0.8,2.6,0.3,3.4-1.1c0.7-1.2,2-1.1,3-0.7c1,0.4,1.6,1.4,1.8,2.6c0.1,1.2-0.2,1.6-1.4,1.3C113.7,32.6,112.4,32.7,110.8,33.8z
		 M101,26.7c-1.8,2.6-2.4,2.8-5.9,1.8c-0.6-0.2-1.2-0.4-1.5,0.3c-0.5,0.8,0,1.3,0.6,1.6c1.5,0.7,3.1,2,4.7,0.1
		c0.2-0.2,0.8-0.3,0.9-0.1c1.2,1.3,3.4,0.3,4.6,1.9c0.3,0.4,1.1,1.4,1.7,0.4c0.4-0.7,0.2-1.6-0.6-2.2C104,29.2,102.6,27.9,101,26.7z
		 M39.7,85.9c0.3,1.6,0.3,2.9,0.8,4.1c0.3,0.9,0.5,2.6,1.7,2.2c1-0.3,0.7-1.8,0.5-2.8c-0.2-1.1-1-2.1-0.5-3.2c0.5-1,0.4-2-0.2-3
		c-0.7-1.1-0.3-1.9,0.9-2.2c0.6-0.2,1.3-0.5,1.9-0.4c1.2,0.2,1-0.3,0.7-1.1c-0.6-1.7-1.3-1.8-2.7-0.7C40.4,80.7,41.1,83.9,39.7,85.9
		z M116.5,113.9c0.6-1.2,1.9-1,2.3-2.3c-2,0.9-3.9,1.9-6.1,1c0.4-0.7,1.5-0.6,1.8-1.5c-1.9-0.6-3,1-4.5,1.3c0.8,2,2.1,3,4.3,2.3
		c0.3-0.1,0.7-0.1,0.9,0.2c0.3,0.4-0.1,0.7-0.3,1c-0.8,1.2-1.7,2.1-3.2,2.5c-0.3,0.1-0.6,0.3-0.5,0.7c0.1,0.4,0.5,0.3,0.8,0.2
		c2.1-1.1,4.4-1.8,5.6-4.1C118.2,114.1,118.2,113.6,116.5,113.9z M91,41.7c-15,0.9-27.9,7.5-39.9,16C63.4,49.7,76.2,43.2,91,41.7z
		 M82.9,107.2c-0.4,2.2-1.6,4.1-1.7,6.3c0.5,0,0.3-0.9,1-0.8c0,0.3,0.1,0.5,0.1,0.8c0,0.6-0.7,1.5,0.4,1.8c1,0.3,1.5-0.3,2-1.1
		c1.2-2.3,1.6-4.1,1.3-6.9c0,1.2-0.6,1.5-1.5,1.5C83.3,108.8,83,108.1,82.9,107.2z M87.8,179.1c0,0.8,0.3,1.4,1.3,1.4
		c2.2,0.1,4.5,0.4,6.7,0.4c3.6,0,4.4-0.9,4.4-4.2C97,181.4,92.1,178.8,87.8,179.1z M84.1,97.6c4.1-1.7,8.2-3.4,12.3-5
		c0.6-0.3,1.3-0.6,0.8-1.4c-0.4-0.7-1-0.8-1.6-0.3c-1.5,1.1-3.3,1.6-4.7,2.7c-0.7,0.6-1.6,1.3-2.6,0.5c-0.3-0.2-0.4-0.2-0.6,0.1
		C86.7,95.4,85.1,96.1,84.1,97.6z M82.1,104c1.3,0.1,2.9-1.6,3-2.8c0-1.7-1.5-1.7-2.4-2c-1.2-0.3-3,1.4-2.9,2.7
		C79.8,103.3,81.3,103.4,82.1,104z M44.4,100.2c2.5-0.6,4.2-1.9,5.4-4c0.4-0.6,1.1-1.5,0.4-2.1c-0.6-0.6-1.6-0.2-2.5,0
		c-0.5,0.1-0.6,0.7-0.8,1C45.9,96.6,45.1,98.3,44.4,100.2z M144.5,152.5c3.6,1.6,6.2,0.2,8.9-1c0.7-0.3,1-0.9,0.8-1.6
		c-0.2-0.6-0.7-0.5-1.2-0.4C150.3,150.4,147.6,151.4,144.5,152.5z M105.4,20.8c-2.2-2.2-5.2-2-8-2.3c-0.6-0.1-1.3,0.1-1.3,0.8
		c-0.1,0.8,0.6,0.9,1.2,1C99.9,20.8,102.6,22.3,105.4,20.8z M74,152.6c-0.1,1.4,0,2.7,1.4,3.6c0.4,0.3,0.9,0.8,1.4,0.3
		c0.4-0.3,0.6-1.1,0.4-1.4c-1.5-1.9-1-4.1-0.9-6.2c0-0.4,0-0.8-0.5-0.9c-0.5-0.1-0.7,0.3-0.8,0.7C74.3,149.8,73.9,151.1,74,152.6z
		 M120.5,101.4c-2.4-2.4-5.5-3.9-7.7-6.5c-1.1-1.3-1.9-0.7-2.7,0.1c-0.4,0.4-0.6,1-1,1.6c0.8,0.3,1.4-0.1,2-0.3
		c1.7-0.4,3.1,0.1,3.6,1.6C115.6,100.9,118.3,100.7,120.5,101.4z M113,25.5c-0.3-0.9-0.9-1.4-1.6-1.7c-1.9-0.7-3.8-1.5-5.8-1.8
		c-0.6-0.1-1.2,0-1.8,0c-0.3,0-0.7,0.2-0.7,0.6c0,0.4,0.3,0.5,0.6,0.6c2.8,0.7,5.6,1.3,8.1,2.8C112.3,26.3,113,26.3,113,25.5z
		 M123.7,96.7c-0.1-0.4,0.1-1.2-0.9-1.2c-1.5,0-2.7-0.9-3.8-1.8c-0.4-0.3-0.8-0.7-1.2-0.1c-0.3,0.4-0.4,0.8-0.2,1.3
		c0.4,0.7,1,1.2,1.7,1.6c0.6,0.4,1.6,0.8,1.6,1.3c0.1,1.2,0.8,1.3,1.5,1.1C123.5,98.7,123.8,97.9,123.7,96.7z M115.1,90.9
		c1.6,0,2.4-1.3,2.6-2.4c0.2-1-1-1.8-2.1-1.8c-1.4,0-2.8,1.3-2.8,2.5C112.8,90.9,114.2,90.6,115.1,90.9z M94.5,110.2
		c-0.5,1-0.1,2.1,1.3,2c1.5-0.1,1.8-1.8,2.3-3c0.4-0.9-0.2-1.9-1.2-2.1c-1.2-0.3-2.3,0-2.3,1.5C94.6,109,94.6,109.4,94.5,110.2z
		 M115.9,103.6c-0.1-0.7-0.6-1.1-1.3-1.3c-0.7-0.2-1.4-0.4-1.9-0.9c-0.4-0.4-0.8-0.9-1.5-0.5c-0.6,0.4-0.9,1-0.9,1.6
		c0,0.8,0.6,1.1,1.2,1.3c1,0.3,2,0.5,3,0.7C115.3,104.8,115.8,104.5,115.9,103.6z M77.2,221.2c-0.7,1.6,0,2.6,0.8,3.4
		c2.5,2.7,5.5,3.6,9.1,2.9c0.8-0.2,1.8-0.1,2.8-1.2C84.2,227.7,79.6,227.2,77.2,221.2z M116.4,83.1c-1.4,0-0.5-2.1-2-2
		c-2,0.2-0.6,2.6-2,3.3c0.6,0.6,1,1.5,2,1.6C116.3,86.2,115.7,84.3,116.4,83.1z"/>
	<path d="M46.4,149.1c-8,0-14.4-6.4-14.4-14.4c0-8,6.6-14.6,14.5-14.6c7.8,0,14.4,6.6,14.4,14.5C60.9,142.7,54.5,149.1,46.4,149.1z
		 M60.1,134.9c0-10.2-9.8-16.7-19.1-12.7c-2.1,0.9-3.5,3.4-2.9,5.6c0.8,3.2,1.5,6.5,4.6,8.5c0.2,0.1,0.3,0.4,0.2,0.7
		c-0.4,1.2-0.4,1.1,0.8,1.5c0.4,0.1,0.8,0.4,1.1,0.8c1.1,1.2,2.3,2.1,4.1,1.6c0.3-0.1,0.7,0,0.9,0.2c1.2,1,2.4,0.5,3.5,0
		c0.7-0.3,1.5-0.5,2.2-0.7c1-0.3,2.1,0,3-0.6C60.3,138.6,60.1,136.7,60.1,134.9z"/>
	<path d="M57,175c-0.1,3.2-2.8,5.9-6,5.9c-3.3,0-6.1-2.9-6-6.1c0.1-3.4,2.7-5.9,6.2-5.8C54.5,169.2,57,171.7,57,175z M47.8,173.1
		c-0.2,1.8,1.8,4,4,4.2c1.6,0.2,4.1-1.2,4.3-2.3c0.3-2.5-1.8-5-4.5-5.3c-1.3-0.1-2.4,0.4-3.5,1C46.9,171.4,48.2,172.2,47.8,173.1z"
		/>
	<path d="M19.6,92.9c2,0,3.4,1.3,3.4,3.3c0,1.8-1.4,3.3-3.2,3.3c-1.9,0.1-3.6-1.5-3.6-3.4C16.3,94.3,17.8,92.9,19.6,92.9z
		 M19.2,96.8c0.7,0.6,1.7,0.9,2.6,0.4c0.4-0.2,0.7-0.6,0.6-1.3c-0.2-1.4-1-2.4-2.6-2.5c-1,0-1.9,0.6-1.7,1.7
		C18.2,95.9,18.7,96.4,19.2,96.8z"/>
	<path d="M138.3,65.5c2.4,0,4.1,1.6,4.2,4c0,2.2-1.7,4-3.9,4.1c-2.4,0.1-4.4-1.8-4.4-4.2C134.2,67.3,136,65.5,138.3,65.5z
		 M137.9,70.5c0.7,0.6,1.7,0.9,2.6,0.5c0.7-0.3,1.2-0.7,1.1-1.7c-0.2-1.7-1.3-3-3.1-3c-1.3,0-2.3,0.7-2,2
		C136.6,69.2,137.2,69.9,137.9,70.5z"/>
	<path d="M88.6,79.9c2-0.2,1.9,2,1.9,2.1c-0.6,1.7-2.4,1.8-3.9,2.1c-1.4,0.3-1.8-1.9-1.7-2.2C85.5,80.3,87.4,80.5,88.6,79.9z"/>
</g>
</svg>
