<?xml version="1.0" encoding="utf-8"?>
<!-- Generator: Adobe Illustrator 22.0.1, SVG Export Plug-In . SVG Version: 6.00 Build 0)  -->
<svg version="1.1" id="Layer_1" xmlns="http://www.w3.org/2000/svg" xmlns:xlink="http://www.w3.org/1999/xlink" x="0px" y="0px"
	 viewBox="0 0 313.2 196.5" style="enable-background:new 0 0 313.2 196.5;" xml:space="preserve">
<g>
	<path d="M119.7,86.9c7.6,7.5,16,13.5,22.4,21.5c7.2,9,5.6,18.5-3.9,25.1c-5.3,3.7-10.7,3.6-16.1,0.6c-3.3-1.8-6.2-4.3-10.5-7.3
		c0,13.4,0,25.7,0,38.1c0,1.7,1.1,2.5,2.2,3.5c3.3,3.1,3.5,7.1,3.2,11.3c-0.3,3.7-1.8,5.5-5.8,5.5c-21-0.1-42,0-63,0
		c-2.1,0-4.2-0.2-5.1-2.5c-1.6-4.2-2.2-9.2,1.1-12.1c4.4-3.9,3.5-8.2,3.5-12.8c0-10,0-19.9,0-30.9c-3.7,2.7-6.4,5-9.4,6.9
		c-7.2,4.5-15,3.2-20.9-3.4c-6-6.7-6.4-13.5-1.2-20.5c6.5-8.7,15.5-14.9,23.1-22.6c-13.3-7.5-14.9-22.9-3.6-33.6
		c0.7-0.7,1.3-1.5,1.7-2.4C47,30.9,64.7,25.6,85.1,27.1c16.2,1.2,29.3,8.3,36.4,23.9c0.9,2,2.8,2.8,4.3,4.1
		C135,63.1,131.8,81.6,119.7,86.9z M79.4,135.6c7.7,0,15.5-0.1,23.2,0.1c3.5,0.1,4.4-1.3,4-5.1c-1-9.3-1.7-18.7-1.5-28.1
		c0.1-5.2-0.6-6.3-4.5-4.7c-14,5.7-28.1,6-42.1,0.1c-3.4-1.5-4.3-0.5-4.4,2.7c-0.5,10.2-0.9,20.3-1.6,30.5c-0.3,4,1.4,4.8,4.9,4.6
		C64.8,135.5,72.1,135.6,79.4,135.6z M80.9,100.2c2.6,0.3,6.6-0.7,10.6-1.5c15.7-3.2,26.2-13.9,28.2-28.3c1.8-13.1-6-27.7-18.6-33.7
		c-15.4-7.2-30.9-6.7-45.7,1.7c-11.5,6.6-16.5,17.3-16,30.2C40,81,46.9,89.5,57.5,95C64.4,98.6,71.7,100,80.9,100.2z M79.5,141.7
		c-7.5,0-15.1,0-22.6,0c-1.9,0-3.9-0.6-4.4,2.6c-1.7,11.1-0.1,13.1,10.8,13.1c2.2,0,4.5-0.2,6.7,0c3.9,0.4,6.8-0.3,6.9-5.1
		c0-1.5,0.4-3.5,2.7-3.3c1.7,0.2,2.4,2,2.3,3.2c-0.4,5.9,3.4,5.3,7.2,5.2c2.2-0.1,4.5,0,6.7,0c11.1,0,11,0,11.1-10.9
		c0-3.6-0.8-5.1-4.7-4.9C94.6,141.9,87,141.7,79.5,141.7z M52,105.3c1.8-5.5-4.3-8.3-7.7-12.5c-0.8-0.9-1.5-0.8-2.6-0.3
		c-6.9,3.4-7.6,7.2-2.5,13c1.3,1.5,2.5,3.3,4,4.6c2.2,1.9,3.2,6.5,6.5,5.3C52.7,114.2,51,109.9,52,105.3z M107.9,107.2
		c0,1.4,0,2.8,0,4.2c0,1.7,0.2,3.5,1.9,4.2c2,0.8,2.7-1.4,3.7-2.5c2.2-2.3,4.3-4.9,6.4-7.3c6.1-7,6.1-7.1-1.5-12.6
		c-1.2-0.9-2.2-1.9-3.5-0.3C111.5,97.1,107.6,100,107.9,107.2z M137.7,111.1c-2.3-2.1-4.1-4.3-6.4-5.8c-2-1.3-2.6,1.2-3.6,2.2
		c-3.2,3.6-6.2,7.5-9.5,11.1c-2.1,2.3-3,3.8,0,6.2c2.6,2.1,4.3,3.2,6.9,0c3.2-3.9,6.9-7.4,10.3-11.1
		C136.1,112.9,136.7,112.2,137.7,111.1z M37.8,127.3c1.6-1.5,3.5-2.8,4.9-4.4c1.6-1.8-0.4-2.9-1.4-4c-3.5-4.2-7-8.3-10.5-12.5
		c-1.2-1.4-2.5-2.4-3.8-0.5c-1.5,2.1-6.1,3.4-4.1,6.2c3.7,5.2,8.7,9.6,13.1,14.3C36.4,126.8,37,126.9,37.8,127.3z M102,168.6
		c3.3,0.6,4.2-0.5,4.3-2.8c0.1-2.8-1.6-3.3-5.1-2.7c-4.7,0.8-9.6,1-14.3,0c-3-0.6-4.5,0-4.5,2.3c-0.1,2.3,0.8,3.6,4.3,3
		C91,167.6,97.8,167.8,102,168.6z M29.8,131.2c1.5-0.2,3.7-0.2,4.5-2c0.6-1.4-1.2-2.4-2.1-3.4c-3-3.3-6-6.6-9.2-9.7
		c-0.9-0.9-1.6-2.9-3.2-1.9c-1,0.6-1.6,2.3-1.9,3.6C16.8,122.8,24,131,29.8,131.2z M138.8,113.3c-3.9,4.2-7.8,8.2-11.6,12.4
		c-0.9,1-3.2,1.8-1.9,3.8c0.9,1.4,2.8,1.9,4.4,1.7c4.7-0.7,8-3.7,10.5-7.5C142.3,120.3,142,116.8,138.8,113.3z M73,168.7
		c1.8,0,3.1-0.3,3.2-2.6c0-2.8-1.4-3.4-4.4-3.1c-5,0.5-10,0.6-15,0c-2.7-0.3-4,0.5-3.8,2.9c0.1,1.9,0.9,3,3,2.9
		C58.6,168.7,69.9,168.6,73,168.7z M97.2,175.9c3.9,0,6.6,0.2,9.2-0.1c1.6-0.1,4.5,0.1,4.6-1.1c0.2-2.5-2.4-3.4-4.8-3.5
		c-6.7-0.2-13.5-0.3-20.2-0.4c-1.4,0-3-0.1-3.2,1.9c-0.1,1.9,1.2,2.4,2.8,2.4C89.9,175.5,94.1,175.7,97.2,175.9z M48.2,174.6
		c-0.1,0.4,0.1,0.8,0.5,0.8c8.2,0,16.1,0,23.9,0c1.5,0,3.5,0.1,3.4-2.4c-0.1-2.5-2.1-2-3.6-2c-6.3,0.1-12.6,0.2-18.9,0.3
		C51.2,171.3,49.1,171.9,48.2,174.6z M121,58.1c1.4,8.4,1.1,15.4-1.7,22.9C127.1,75.6,127.9,66.3,121,58.1z M37.8,59
		c-6.6,6.9-5.6,17.5,2.3,21.6C37.1,73.4,36.6,66.5,37.8,59z"/>
	<path d="M265.8,122.6c0,14.8,0.1,28.2-0.1,41.7c0,2.2,0.9,4.3,2.6,5.6c2.8,2.2,3.4,5.5,3.3,8.9c-0.1,3.1-1.5,4.8-5,4.8
		c-20.8-0.6-41.5-0.6-62.3,0c-1.9,0.1-3.9,0.1-4.6-2.1c-1.1-3.5-1.3-7.7,1.4-9.8c5.2-3.9,3.8-8.8,3.7-13.7c-0.1-11.3,0-22.7,0-35.6
		c-4.8,4.3-8.2,7.8-12.4,10.2c-6.7,3.8-12.5,2.8-18-3.3c-5.5-6-6.1-12-1.3-18.2c6.1-8,14-14.2,21.4-20.9c3-2.7,4.1-4-0.9-5.9
		c-9.2-3.6-10.9-21.2-3-28c1.4-1.2,3-2,3.8-3.8c8.3-18.8,24.2-24.3,43-23.9c17.3,0.4,31.4,6.8,38.7,23.8c0.4,1,1.4,2,2.3,2.7
		c7.4,6.1,9,18.1,3.3,25.8c-0.8,1.1-1.9,2.5-3.1,2.8c-7.3,2-4.8,4.6-0.8,7.9c6.7,5.6,13.3,11.4,18.9,18.2c5.9,7.2,5.7,12.5-0.1,19
		c-6.3,7-12.3,7.9-19.9,2.6C273.3,129,270.1,126.1,265.8,122.6z M210.7,96.6c-1.3,12.1-2.1,23.7-2.4,35.3c-0.1,3,1.2,3.8,4,3.8
		c15.3-0.1,30.5-0.1,45.8,0c4.2,0.1,4.7-1.8,4.1-6.4c-1.2-9.4-1.5-18.9-1.4-28.5c0-3.8-0.8-4.4-3.7-3.2
		C241.8,104,226.6,103.7,210.7,96.6z M236.2,100.1c2.9-0.4,6.7-0.7,10.5-1.4c15.4-3,26.4-13.6,28.5-27.3c2-13.1-4.9-27.6-17.1-33.9
		c-16.5-8.4-33.2-7.9-48.8,2.2c-19.5,12.7-18.8,41,0.8,53.4C217.8,98,226.3,99.7,236.2,100.1z M235.4,141.8c-6.3,0-12.6,0-18.9,0
		c-9.6,0.1-7.7-1.1-8.3,7.9c-0.4,6.2,1.6,8.5,7.8,7.7c3.2-0.4,6.5-0.3,9.7,0c3.9,0.3,6.8-0.2,6.8-5.2c0-1.7,0.7-3.4,2.8-3.2
		c1.6,0.2,2.3,1.7,2.2,3.2c-0.2,5,2.9,5.5,6.8,5.2c2.4-0.2,4.9,0,7.3,0c12.2-0.3,9.9,2.4,10.8-10.6c0.3-4.3-1.4-5.1-5.2-5
		C250.1,141.9,242.7,141.8,235.4,141.8z M207.7,103.9c-0.1-3-2.1-5.6-6.7-10.1c-1.9-1.9-3-1.7-4.9-0.1c-6.8,5.5-6.8,5.4-0.9,12.1
		c0.7,0.8,1.3,1.6,2,2.2c2.9,2.3,4.7,8.5,7.9,7.2C209.2,113.5,206.2,107.4,207.7,103.9z M263.1,104.4c0.5,4.2,0.6,6.7,1.2,9
		c0.6,2.2,2,3.9,4.6,0c2.8-4.2,6-8,9.9-11.2c3.4-2.8,1-4.2-0.5-5.1c-2.3-1.5-4-6.3-6.9-4C267.3,96.1,261.9,99.3,263.1,104.4z
		 M199.4,122c-0.7-1.1-1-1.6-1.6-2.2c-4.1-3.9-7.6-8.2-10.8-12.8c-3-4.3-4.4-0.8-5.7,0.6c-1.4,1.4-5,2.4-1.9,5.6
		c3.8,3.9,7.5,7.9,11.3,11.9c1,1.1,1.9,3,3.9,1.4C196.2,125,197.8,123.5,199.4,122z M293.6,110.8c-2.1-1.8-3.9-3.6-6-5.2
		c-2.1-1.6-2.8,0.5-3.8,1.6c-3.1,3.5-6.1,7.1-9.1,10.7c-1.8,2.1-4.2,3.8-0.6,6.9c3.2,2.8,5,2.2,7.4-0.7c2.3-2.7,4.6-5.4,7.2-7.8
		C290.6,114.3,291.1,113.6,293.6,110.8z M297.3,119.1c-0.2-1.5-0.3-3.9-2.2-4.8c-1.7-0.8-2.5,1.5-3.6,2.5c-2.9,2.8-5.7,5.8-8.3,8.8
		c-0.9,1.1-3.2,1.9-2,3.8c0.8,1.4,2.7,1.7,4.4,1.7C290,131.1,297.1,124.1,297.3,119.1z M173.7,118.8c-0.2,5.2,7.2,12.7,12.2,12.2
		c1.3-0.1,3-0.6,3.8-1.6c1.3-1.5-0.7-2.4-1.5-3.3c-3-3.3-6-6.5-9.1-9.7c-0.9-1-1.8-2.8-3.3-2.2C174,114.9,173.9,117,173.7,118.8z
		 M250.4,168.6c0.6,0,5.7,0,8.6,0.1c2,0.1,2.9-0.7,3-2.8c0.1-2.5-1.2-3.2-4.1-2.8c-5.2,0.6-10.4,0.6-15.5,0c-2.8-0.3-3.8,0.6-3.8,3
		c0.1,2.3,1.4,2.6,3.2,2.6C244.7,168.6,247.6,168.6,250.4,168.6z M220.1,168.6c2.8,0,5.7,0,8.5,0c1.9,0,3.2-0.4,3.2-2.7
		c0-1.6-1.4-2.9-3.1-2.9c-5.6,0-11.3,0-16.9,0c-2.1,0-2.8,1-2.7,3c0.1,2.2,1.2,2.7,3.1,2.7C214.9,168.7,220,168.6,220.1,168.6z
		 M204.2,174.4c-0.1,0.4,0.2,0.8,0.6,0.8c8.1,0,15.8,0.1,23.4-0.1c1.4,0,3.6,0.5,3.7-2c0-2.5-2-2.1-3.5-2.1
		c-6.3,0.1-12.6,0.2-19,0.3C207,171.3,205,172,204.2,174.4z M252.9,175.8c4,0,7,0.2,10.1-0.1c1.3-0.1,3.8,0.3,3.7-1.5
		c-0.1-1.8-1.9-2.8-3.5-2.8c-7.3-0.3-14.6-0.4-21.8-0.5c-1.3,0-2.4,0.2-2.5,1.9c0,1.6,1,2.1,2.3,2.2
		C245.4,175.3,249.7,175.6,252.9,175.8z M276.5,58.2c2.7,8.5,0.8,15.2-0.9,22.8C283,74.5,283.6,65.8,276.5,58.2z M195.8,81
		c-2.7-7.2-3.5-14-2.8-20.8C187.5,67.2,188.6,75.7,195.8,81z"/>
	<path d="M79.9,107.2c1.6,0,3.3-0.1,4.9,0c7.3,0.3,9.9,3.2,9.9,10.8c0.1,7.4-2.7,10.6-9.9,11c-2.6,0.2-5.3,0.1-7.9,0
		c-9.5-0.2-12.7-3.2-12.5-11.6c0.2-7.6,3.4-10.3,12.4-10.3C77.9,107.1,78.9,107.1,79.9,107.2C79.9,107.1,79.9,107.1,79.9,107.2z
		 M80,108.8c-11.9,0-14.8,2.3-13.7,11.3c0.8,6.7,5.6,7,10.7,7c12.3,0.1,15.1-1,15.9-6.8C94.2,111.7,91,108.9,80,108.8z"/>
	<path d="M80.9,37c9,0.2,17.4,2.3,24.4,8.3c13.8,11.8,13.5,30.3-0.7,41.7c-13.8,11-36.2,11-50.1,0c-14.5-11.6-14-31.5,1.1-42.2
		C63.1,39.3,71.8,37.3,80.9,37z M50.8,62.9c0.3,2.5,0.5,5.6,3.4,6.5c3.3,1,3.7-2.4,4.7-4.3c2-4,3.9-7.9,6.8-11.4
		c1.2-1.5,2.9-3.2,1-5.3c-2-2.1-4.4-1.9-6.6-0.5C54.6,51.3,51.6,56.4,50.8,62.9z"/>
	<path d="M235.7,107.1c11.1-0.4,14.8,1,14.9,12.2c0,7.4-4.1,9.8-14.9,9.8c-12.3-0.1-15-1.8-15.4-9.9
		C219.8,109.6,223.1,107,235.7,107.1z M235.7,127.2c4.1-0.2,9.8,1.3,12.3-4.2c1.6-3.4,2-8-0.8-11c-5.4-5.7-12.6-2.7-19-2.7
		c-3,0-5.2,2.1-6,5.3c-0.1,0.4-0.1,0.8-0.2,1.2C220.8,124.3,224,127,235.7,127.2z"/>
	<path d="M236.8,37c9.5,0.1,18.1,2.6,25.3,9.1c13.6,12.3,11.8,31.7-3.8,42.3c-13.9,9.5-34.2,8.9-47.7-1.2
		c-14.5-11-14.7-30.8-0.2-41.8C218.2,39.5,227.2,37.3,236.8,37z M205.6,64c-0.3,2.3,0.9,4.4,3.5,5.3c2.7,0.9,3.3-1.7,4.4-3.3
		c2.9-4.2,5.8-8.3,8.6-12.5c0.8-1.2,2.5-2.6,1.1-4.2c-1.1-1.2-2.8-1.3-4.5-1C212.6,49.3,205.6,57.4,205.6,64z"/>
	<path d="M79.1,125.3c-7.5,0-10.9-3.2-9.6-8.9c1-4.5,4.1-5.7,8.2-5.5c4.5,0.2,9.8-1.3,11.9,4.7C91.7,121.6,87.6,125.4,79.1,125.3z
		 M79.7,112.5c-6.6,0-9.5,2.2-8.5,6.5c1,4.1,4.3,4.4,7.7,4.4c3.6-0.1,7.7,0.6,9.1-4.1C89.3,115.2,85.9,112.5,79.7,112.5z"/>
	<path d="M235.4,125.3c-4.2,0.1-8.3-0.1-10-5c-1.5-4.4,1.2-8.8,5.9-9.4c2.4-0.3,4.9-0.2,7.3-0.1c4.7,0.1,7.3,2.9,7.3,7.2
		c0,4-2.3,6.9-6.8,7.1C237.8,125.2,236.6,125.3,235.4,125.3z M235.1,112.5c-3.6,0.3-8.3,0-8.2,5.4c0.1,5.6,4.7,5.6,8.9,5.5
		c4,0,8.3-0.2,8-5.6C243.6,112.4,239.1,112.7,235.1,112.5z"/>
</g>
</svg>
