<?xml version="1.0" encoding="utf-8"?>
<!-- Generator: Adobe Illustrator 22.0.1, SVG Export Plug-In . SVG Version: 6.00 Build 0)  -->
<svg version="1.1" id="Layer_1" xmlns="http://www.w3.org/2000/svg" xmlns:xlink="http://www.w3.org/1999/xlink" x="0px" y="0px"
	 viewBox="0 0 148.8 157.6" style="enable-background:new 0 0 148.8 157.6;" xml:space="preserve">
<g>
	<path d="M71,12.8c3.9-0.5,10.9,0.1,11.2,0.1c7.8,0.7,14.5,3.6,20.2,9c5.4,5,8.7,11.3,11,18.3c0.2,0.5,0.4,0.9,0.9,1.3
		c1.5,1.2,3,2.5,4.5,3.7c0.5,0.4,0.6,0.8,0.6,1.4c0,7.2,0,14.4,0,21.6c0,0.5-0.1,0.9-0.4,1.3c-1.4,1.9-2.8,3.9-4.2,5.8
		c-0.2,0.3-0.4,0.5-0.4,0.9c0,1.9,0,3.9,0,5.8c0,0.2,0,0.5,0.3,0.6c2.4,0.9,3.2,2.8,3.6,5.1c0.3,2.1,0.2,4.1-0.2,6.1
		c-0.1,0.6,0,0.8,0.6,1c1.9,0.5,3.7,1.2,5.4,2.2c4.9,2.8,8.1,6.8,9.4,12.3c0.9,3.9,1.7,7.7,2.6,11.6c1.8,8,3.6,15.9,5.3,23.9
		c0.3,1.1-0.3,1.8-1.4,1.8c-0.2,0-0.3,0-0.5,0c-13.9,0-27.9,0-41.8,0c-0.8,0-0.9-0.2-0.9-0.9c0-8.7,0-17.3,0-26
		c0-0.6-0.1-0.9-0.8-0.9c-12.8,0-25.7,0-38.5,0c-0.9,0-0.9,0-0.9,0.9c0,8.4,0,16.7,0,25.1c0,1.3-0.4,1.7-1.6,1.7
		c-14.1,0-28.1,0-42.2,0c-1.3,0-1.8-0.6-1.5-1.9c2.6-11.2,5.3-22.4,7.8-33.5c0.6-2.7,1.3-5.3,2.8-7.7c2.9-4.5,7.1-7.2,12.2-8.7
		c0.8-0.2,0.9-0.6,0.8-1.3c-0.4-2.4-0.5-4.7,0.2-7.1c0.5-1.8,1.6-3.3,3.5-3.9c0.4-0.1,0.4-0.4,0.4-0.7c0-1.8,0-3.6,0-5.4
		c0-0.5-0.1-0.8-0.4-1.2c-1.4-1.9-2.8-3.8-4.2-5.7c-0.3-0.5-0.5-1-0.5-1.5c0-7.1,0-14.2,0-21.3c0-0.6,0.2-1.1,0.7-1.5
		c1.4-1.2,2.8-2.4,4.3-3.6c0.4-0.3,0.7-0.7,0.8-1.2c1.4-4.4,3.2-8.5,5.8-12.3c5.2-7.7,12.4-12.7,21.6-14.5
		C68.2,13.2,69.6,13,71,12.8z M106.7,63.9c-1.1,0.8-2.1,1.5-3.1,2.2c-5.2,3.3-11,4.9-17.2,5.2c-0.6,0-1,0.2-1.3,0.8
		c-2.2,3.5-6.7,4.7-10.3,2.7c-3.6-2.1-5-6.6-3.1-10.2c1.6-3,4.2-4.5,7.6-4.1c3.2,0.3,5.4,2.2,6.5,5.2c0.2,0.6,0.5,0.8,1.1,0.7
		c1-0.1,1.9-0.2,2.9-0.3c6.4-1,12-3.8,16.4-8.6c0.4-0.4,0.5-0.8,0.5-1.4c0-3.7,0-7.4,0-11.1c0-0.7-0.2-1.2-0.7-1.7
		c-4.1-4-8.9-6.6-14.3-8.1c-9.5-2.7-19.1-2.4-28.6,0.3c-5.1,1.5-9.8,3.9-13.6,7.7c-0.5,0.5-0.8,1-0.8,1.8c0,8.5,0,17,0,25.5
		c0,0.7,0.3,1.3,0.8,1.7c1.4,1,2.9,1.8,4.5,2.5c5.5,2.2,11.3,3.1,17.1,3.5c5.8,0.4,11.6,0.4,17.3,0c3.7-0.3,7.5-0.7,11.1-1.9
		c2-0.6,3.9-1.5,5.5-2.9c1.1-0.9,1.7-2,1.6-3.5c-0.1-1.7,0-3.5,0-5.2C106.8,64.4,106.8,64.2,106.7,63.9z"/>
	<path d="M51.3,50.6c0-1.5,0-3,0-4.6c0-1,0.4-1.8,1.1-2.5c2.4-2.1,5.2-3.5,8.1-4.7c1.3-0.6,2.7-1,4.1-1.5c1.5-0.5,3,0.1,3.5,1.5
		c0.5,1.4-0.3,2.7-1.8,3.3c-3.2,1.1-6.3,2.3-9.1,4.1c-0.6,0.4-0.8,0.8-0.8,1.5c0,2.7,0,5.3,0,8c0,2-1.9,3.2-3.6,2.3
		c-1-0.5-1.5-1.4-1.5-2.5C51.3,53.9,51.3,52.3,51.3,50.6C51.3,50.6,51.3,50.6,51.3,50.6z"/>
</g>
</svg>
