<?xml version="1.0" encoding="UTF-8" ?>
<!DOCTYPE svg PUBLIC "-//W3C//DTD SVG 1.1//EN" "http://www.w3.org/Graphics/SVG/1.1/DTD/svg11.dtd">
<svg viewBox="0 0 200 200" version="1.1" xmlns="http://www.w3.org/2000/svg">
<g id="#000000ff">
<path fill="#000000" opacity="1.00" d=" M 141.44 20.39 C 145.19 20.23 144.45 25.55 145.86 27.95 C 147.40 34.50 154.33 36.42 159.98 37.91 C 162.14 38.16 162.05 41.69 159.96 41.94 C 154.84 43.43 148.46 44.73 146.41 50.42 C 144.62 53.28 145.47 58.08 142.09 59.58 C 141.64 59.38 140.76 58.99 140.31 58.80 C 138.40 53.57 137.63 46.64 131.62 44.41 C 128.74 42.55 123.85 43.44 122.33 40.05 C 122.53 39.60 122.95 38.69 123.16 38.24 C 128.18 36.36 134.80 35.70 137.21 30.09 C 139.18 27.14 138.51 22.50 141.44 20.39 M 132.82 39.84 C 136.81 41.77 139.95 44.93 141.90 48.91 C 144.11 45.09 147.00 41.65 151.21 39.97 C 147.08 38.03 143.70 34.76 141.98 30.49 C 140.26 34.70 136.99 38.03 132.82 39.84 Z" />
<path fill="#000000" opacity="1.00" d=" M 63.06 65.00 C 66.34 56.35 74.75 49.94 83.96 49.06 C 92.91 48.06 102.31 52.06 107.56 59.42 C 113.38 67.31 114.01 78.60 109.00 87.04 C 106.39 91.68 102.24 95.27 97.54 97.68 C 100.64 104.04 99.55 111.19 99.72 117.99 C 99.66 122.98 100.24 128.23 98.12 132.91 C 96.49 136.91 93.34 140.02 89.82 142.41 C 89.74 146.50 89.75 150.60 89.79 154.70 C 91.95 156.37 94.29 158.21 94.95 161.01 C 96.68 166.27 93.00 172.44 87.55 173.38 C 84.12 173.83 80.63 173.74 77.20 173.49 C 72.56 173.02 68.69 168.73 68.75 164.06 C 68.55 156.66 68.81 149.25 68.63 141.84 C 63.00 137.94 59.57 131.38 59.62 124.52 C 54.63 124.64 49.49 122.57 46.76 118.24 C 43.59 113.78 44.57 108.09 44.43 102.97 C 44.53 98.13 43.71 92.78 46.64 88.55 C 49.90 83.23 56.75 81.00 62.65 82.74 C 60.78 77.00 60.79 70.63 63.06 65.00 M 74.39 57.33 C 67.09 62.47 63.87 72.53 66.78 80.96 C 69.08 88.15 75.50 93.86 82.97 95.13 C 88.46 96.24 94.23 94.86 98.86 91.77 C 95.29 90.82 91.70 89.95 88.10 89.13 C 86.26 91.08 83.87 92.95 81.00 92.46 C 75.91 92.15 72.75 85.77 75.58 81.52 C 76.89 78.94 79.93 78.56 82.31 77.52 C 85.61 69.69 88.52 61.69 91.64 53.79 C 85.70 52.67 79.26 53.61 74.39 57.33 M 95.33 57.42 C 94.52 58.38 93.40 60.16 94.96 61.02 C 97.25 62.71 99.48 64.52 101.19 66.83 C 101.90 68.13 103.45 68.58 104.68 67.68 C 106.63 65.50 103.87 63.14 102.53 61.45 C 100.51 59.68 98.27 56.95 95.33 57.42 M 80.14 82.94 C 77.07 85.04 80.67 89.83 83.53 87.47 C 86.32 85.37 82.97 80.89 80.14 82.94 M 54.33 87.48 C 49.41 89.54 48.36 95.29 48.86 100.05 C 49.42 105.92 47.02 113.39 52.23 117.77 C 57.24 122.41 66.41 119.31 67.53 112.55 C 68.01 106.75 67.78 100.88 67.67 95.06 C 67.32 88.83 59.87 84.63 54.33 87.48 M 72.19 95.39 C 72.23 98.43 72.23 101.47 72.16 104.51 C 74.55 103.08 77.17 101.63 80.08 102.03 C 85.21 102.33 89.64 106.90 89.71 112.06 C 89.86 120.44 89.75 128.82 89.73 137.20 C 91.92 134.77 94.13 132.13 94.82 128.84 C 95.65 124.59 95.17 120.24 95.28 115.95 C 95.18 110.34 96.04 104.37 93.26 99.21 C 86.05 100.89 78.31 99.57 72.19 95.39 M 76.27 107.20 C 73.76 108.46 72.92 111.40 73.12 114.02 C 73.25 121.31 72.94 128.62 73.27 135.91 C 73.69 140.25 79.44 142.55 82.81 139.83 C 85.42 138.13 85.41 134.76 85.36 131.99 C 85.22 125.34 85.49 118.67 85.24 112.02 C 85.18 107.75 79.87 104.99 76.27 107.20 M 64.09 123.34 C 63.83 128.09 65.54 132.65 68.64 136.22 C 68.78 130.77 68.63 125.32 68.76 119.88 C 67.22 121.06 65.67 122.22 64.09 123.34 M 73.11 144.08 C 73.15 147.83 73.16 151.57 73.10 155.32 C 76.93 153.52 81.22 153.92 85.32 153.94 C 85.32 150.76 85.32 147.58 85.34 144.40 C 81.29 145.40 77.10 145.24 73.11 144.08 M 77.42 158.55 C 72.43 159.21 71.64 166.89 76.28 168.69 C 79.74 169.57 83.44 169.30 86.97 168.95 C 91.62 167.98 92.28 160.84 87.95 158.96 C 84.58 157.91 80.90 158.35 77.42 158.55 Z" />
</g>
</svg>
