<?xml version="1.0" encoding="utf-8"?>
<!-- Generator: Adobe Illustrator 16.0.0, SVG Export Plug-In . SVG Version: 6.00 Build 0)  -->
<!DOCTYPE svg PUBLIC "-//W3C//DTD SVG 1.1//EN" "http://www.w3.org/Graphics/SVG/1.1/DTD/svg11.dtd">
<svg version="1.1" id="by_FoxSister" xmlns="http://www.w3.org/2000/svg" xmlns:xlink="http://www.w3.org/1999/xlink" x="0px"
	 y="0px" width="725.068px" height="1025.445px" viewBox="0 0 725.068 1025.445" enable-background="new 0 0 725.068 1025.445"
	 xml:space="preserve">
<path id="by_FoxSister_1_" fill="#939598" d="M563.724,215.271c-3.676-14.244-14.703-30.785-29.406-34.92
	s-33.082-5.054-39.515-16.082s-5.054-14.703-3.676-25.271s-8.729-28.947-29.406-45.488s-61.11-27.569-87.3-13.784
	c-26.19,13.784-12.866,19.298-35.38,25.73c-22.515,6.433-28.028-0.46-38.596-7.812s-31.244-14.703-45.488,2.757
	c-14.244,17.46-43.191,28.488-49.164,49.164c-2.69,9.312,2.136,21.86,4.195,26.194c3.107,6.542,5.287,22.933-3.443,32.582
	s-6.725,20.713-28.78,21.172s-31.244,7.811-33.542,26.649s-19.758,42.731-4.595,56.515c15.163,13.785,32.163,8.73,47.785,35.839
	s25.73,36.298,23.433,52.839s5.973,26.65,27.569,39.515c21.595,12.865,59.272,28.028,75.813,15.622s11.027-16.082,27.569-16.541
	c16.541-0.459,24.812-5.973,38.596,7.811s35.379,12.406,47.785,9.649s39.975-12.406,52.84-24.812s37.217-27.569,36.299-49.164
	c-0.92-21.595-5.923-29.866,0.025-42.271c5.947-12.406,10.082-19.298,22.947-23.893c12.866-4.595,29.867-11.947,30.785-33.083
	C571.995,263.056,567.399,229.514,563.724,215.271z M158.237,302.111c-14.014-5.055-8.5-20.677-6.203-31.704
	s5.688-22.337,12.406-24.352c13.784-4.135,18.838,10.568,19.757,28.028S172.251,307.165,158.237,302.111z M234.893,137.313
	c8.577-6.433,19.298-11.64,24.199-17.46s11.333-9.802,18.379-6.433s8.883,19.297-2.451,33.388s-37.064,20.829-47.173,11.946
	C222.739,154.265,226.316,143.746,234.893,137.313z M252.66,178.078c11.64-3.394,30.019-13.312,36.146-26.732
	c0,0,1.225,13.278-17.767,26.732s-42.578,7.94-48.092-2.168C222.947,175.909,241.02,181.471,252.66,178.078z M208.857,284.958
	c-1.226-19.911,10.415-28.254,10.415-28.254s-9.802,17.84,0,39.282s14.397,23.28,19.911,35.839
	c5.514,12.559,19.298,29.407,45.335,22.667c0,0-9.189,7.351-22.974,7.045c-13.785-0.306-25.73-15.011-30.019-26.65
	C227.236,323.248,210.082,304.869,208.857,284.958z M292.174,434.44c-7.811,8.73-19.757-0.919-34.92-5.973
	c-15.163-5.055-22.095-18.485-19.298-23.434c5.973-10.568,20.217-7.352,34.28,0C286.299,412.385,299.985,425.71,292.174,434.44z
	 M299.221,407.792c-8.883-13.784-27.568-15.01-41.353-20.217c-13.784-5.207-27.897,1.838-27.897,1.838
	c14.068-15.316,38.925-8.883,54.546-0.612C300.139,397.071,299.221,407.792,299.221,407.792z M310.094,326.463
	c-9.189,11.487-30.785,12.406-46.866,4.595s-28.487-25.271-32.623-46.867c-4.135-21.595,13.037-30.005,20.217-33.082
	c25.73-11.027,40.893,27.568,51.461,38.136S319.283,314.977,310.094,326.463z M324.032,286.796
	c-1.225-14.397-12.253-20.83-22.321-26.956c-10.068-6.126-17.194-16.541-23.933-23.28s-27.875-6.225-27.875-6.225
	c35.533-14.495,45.431,17.576,62.182,28.227C332.784,271.723,324.032,286.796,324.032,286.796z M337.469,218.487
	c-15.275,8.576-35.492,3.981-42.231-7.046c0,0,15.01,7.659,30.632,3.37c15.622-4.289,19.298-12.865,23.586-19.298
	C349.456,195.513,352.744,209.911,337.469,218.487z M308.103,178.666c6.739-6.433,13.785-11.946,22.361-8.883
	s8.883,17.46,3.063,26.343c-5.82,8.883-21.136,9.496-28.487,3.063C299.332,194.195,301.363,185.099,308.103,178.666z
	 M329.239,157.53c-12.866-1.225-23.28,5.229-23.28,5.229s7.352-13.806,24.505-11.049s19.29,20.217,19.29,20.217
	S342.104,158.755,329.239,157.53z M424.124,230.434c22.594,1.225,27.641,30.631,18.145,64.326
	c-9.495,33.695-34,35.839-48.091,27.569c-14.091-8.271-17.153-22.361-9.802-36.758c7.352-14.396,4.303-27.072,9.802-37.677
	C398.466,239.624,401.529,229.208,424.124,230.434z M406.737,213.279c0,0,5.207-10.721,22.667-8.271s22.36,17.154,22.36,17.154
	S425.116,205.008,406.737,213.279z M451.153,305.174c5.207-21.748,7.656-44.722,2.449-58.506c0,0,12.865,7.965,8.884,38.902
	c-3.981,30.938-7.657,48.091-30.632,47.479C431.854,333.049,445.945,326.922,451.153,305.174z M427.566,173.152
	c-12.253-6.126-23.28-14.091-23.28-14.091s7.658,1.532,27.568,8.883s40.127,0.968,40.127,0.968
	C460.954,181.521,439.819,179.278,427.566,173.152z M393.718,95.348c13.325-6.433,41.813,0.919,57.895,14.243
	c16.082,13.325,16.066,32.194,13.324,37.677c-2.756,5.514-5.973,7.352-18.838,6.433s-34.461-14.244-52.381-24.352
	C375.799,119.24,380.394,101.78,393.718,95.348z M359.564,117.096c2.757,17.46,18.378,28.793,18.378,28.793
	C348.843,140.069,359.564,117.096,359.564,117.096z M363.546,282.187c7.045-17.167,2.145-24.186,10.415-40.727
	s18.379-11.125,18.379-11.125c-11.333,4.498-13.784,16.639-15.315,34.099c-1.532,17.46-7.965,20.523-9.803,39.821
	s17.154,30.632,17.154,30.632C350.068,331.211,356.501,299.354,363.546,282.187z M378.251,415.756
	c-15.316-24.199,18.379-48.705,35.414-57.824c17.035-9.119,27.992,0.237,27.992,0.237c-23.279-2.757-40.434,19.298-51.768,28.487
	C378.557,395.845,378.251,415.756,378.251,415.756z M447.478,425.25c-26.65,13.325-47.066,4.506-48.705-4.595
	c-4.135-22.974,32.163-42.731,51.461-51.92c19.299-9.189,38.596-3.216,39.056,18.379S474.126,411.926,447.478,425.25z
	 M492.198,267.293c-3.564-16.993-1.98-23.382,0.307-35.329c2.316-12.096,2.405-15.291,10.415-28.794c0,0,0.612,20.217-2.45,36.146
	c-3.063,15.929,1.838,43.844,13.784,53.626C514.254,292.942,497.013,290.236,492.198,267.293z M536.614,292.647
	c-17-4.87-17.459-18.104-19.297-38.321s4.594-41.812,15.162-45.948c10.568-4.135,13.784,10.568,14.244,18.379
	c0.459,7.811,4.595,19.757,5.973,40.536C554.075,288.072,542.979,294.47,536.614,292.647z"/>
</svg>
