<?xml version="1.0" encoding="utf-8"?>
<!-- Generator: Adobe Illustrator 22.0.1, SVG Export Plug-In . SVG Version: 6.00 Build 0)  -->
<svg version="1.1" id="Layer_1" xmlns="http://www.w3.org/2000/svg" xmlns:xlink="http://www.w3.org/1999/xlink" x="0px" y="0px"
	 viewBox="15 14.3 187.3 116.1" style="enable-background:new 0 0 187.3 116.1;" xml:space="preserve">
<g>
	<path d="M169.5,76.3c-0.9,0-1.5,0.7-2.3,0.9c-1.2,0.3-2.4,0.1-3.5-0.1c-1-0.2-1.9-0.5-2.9-0.8c-1-0.3-1.7-1-2.3-1.7
		c-1.6-1.9-2.2-4.1-2.1-6.6c0.2-4,1.5-7.8,3.3-11.3c0.9-1.9,1.7-3.9,1.9-6.1c0.1-0.8,0.1-1.5,0.2-2.3c0.1-3.1,0.2-6.2,0-9.2
		c-0.2-2.8-0.6-5.5-1.9-8.1c-0.3-0.6-0.7-1.1-1.2-1.6c-0.4-0.4-0.9-0.5-1.5-0.6c-1.2-0.3-1.8,0.5-2.5,1.3c-1.2,1.4-1.9,3.2-2.5,4.9
		c-0.2,0.7-0.4,1.4-0.6,2c-0.3,0.9-0.7,1.5-1.6,1.9c-0.3,0.1-0.6,0.1-0.8-0.1c-0.7-0.4-1.2-1.3-1.1-2.2c0.1-1.5,0.3-2.9,0.1-4.4
		c-0.3-2.2-1.7-3.4-3.9-3.5c-1.1-0.1-2.1,0-3,0.6c-1.5,0.8-2.2,2.1-2.1,3.8c0.1,1.2,0.6,2.4,1.1,3.5c0.5,1.1,1,2.2,1.2,3.4
		c0.3,1.9,0.3,3.8-0.5,5.6c-0.6,1.4-1.6,2.4-3.2,2.7c-0.4,0.1-0.8,0-1.1-0.2c-1.6-0.7-2.4-2-2.5-3.7c-0.1-2,0.3-4,0.6-6
		c0.2-0.9,0.5-1.8,0.7-2.7c0.6-2.8-1.2-5.5-4.1-5.9c-0.7-0.1-1.4-0.3-2-0.1c-1.4,0.3-3,2-3.1,3.5c-0.1,2.2-0.2,4.4,0.4,6.5
		c0.4,1.4,1,2.8,1.5,4.1c0.9,2.4,1.7,4.9,2.1,7.5c0.2,1.3,0.3,2.6,0.1,3.9c-0.6,2.8-1.8,3.9-4.3,4.2c-3,0.5-5-1.4-5.6-4.1
		c-0.4-1.9-0.1-3.7,0.3-5.6c0.4-1.9,1-3.8,1.6-5.6c0.9-3,0.9-6.1,0.4-9.1c-0.1-0.9-0.3-1.8-0.6-2.6c-0.4-1.1-1.1-1.6-2.3-1.8
		c-1.2-0.2-1.9,0.4-2.6,1.1c-0.2,0.3-0.4,0.5-0.6,0.8c-0.4,0.8-1,1.3-1.8,1.6c-0.1,0.1-0.3,0.1-0.4,0c-1.2-0.2-2.3-0.5-3-1.6
		c-0.4-0.6-1-1-1.8-1.2c-0.2,0-0.4,0-0.6-0.1c-1.6-0.4-2.5,0.5-3.2,1.8c-0.5,1-0.8,2-1.3,3c-0.6,1.5-1.7,2.5-3.4,2.8
		c-2,0.4-3.6-0.2-5-1.6c-1.1-1.2-1.9-2.5-2.8-3.9c-0.4-0.7-0.8-1.4-1.4-1.9c-0.6-0.5-1.2-0.7-2-0.8c-2.2-0.2-4,0.8-5.7,2
		c-1.2,0.8-1.8,2.2-2.2,3.6c-0.7,2.1-1,4.3-1.1,6.6c-0.2,3.3,0,6.6,0.8,9.8c0.4,1.7,1.3,3.2,2,4.8c0.8,1.6,1.6,3.1,1.9,4.9
		c0.8,4.5-1.8,8.9-7,9.8c-1,0.2-1.9,0-2.7-0.5c-2.5-1.8-4.1-4.2-4.4-7.3c-0.2-2.2,0.4-4.3,1.5-6.2c1.5-2.5,2.1-5.3,2.3-8.3
		c0.2-2.7,0.1-5.3,0.1-8c0-1.3-0.3-2.6-0.5-3.9C75,35.8,75,34,74.6,32.2c-0.2-1-0.4-2.1-0.9-3.1c-0.4-0.8-1-1.5-1.9-2
		c-1.2-0.6-2.4-1.3-3.7-1.5c-0.5-0.1-1,0-1.5,0c0-0.2,0.2,0,0.2-0.2c-1.3,0.2-2.5,0.5-3.4,1.5c-0.9,0.9-0.9,2.1-0.7,3.3
		c0.3,1.6,0.4,3.2-0.1,4.8c-0.4,1.1-0.9,2.1-2.1,2.6c-0.5,0.2-0.8,0.1-1.2,0c-2.1-0.8-3.2-2.6-3-5c0.1-1.5,0.4-2.9,0.5-4.4
		c0.1-1.1-0.1-2.2-0.9-3c-1-1.1-2.2-2-3.6-2.5c-0.5-0.2-1-0.2-1.5-0.2c-0.2,0-0.4-0.2-0.6-0.1c-1.2,0.2-2,1-2.6,2
		c-1,1.6-1.5,3.4-1.9,5.2c-0.9,4.2,0,8.1,1.9,11.9c0.9,1.9,1.8,3.8,2,6c0.4,3-0.1,5.7-1.8,8.3C47,57,46,57.7,44.6,57.8
		c-1.5,0.1-3,0.1-4.4-0.6c-1.8-0.8-2.7-2.3-3.1-4.2c-0.5-2.8,0-5.5,0.8-8.1c0.6-1.9,1.4-3.6,2.2-5.4c0.9-2.3,1.6-4.6,1.6-7.1
		c0-1.5-0.1-3-0.9-4.3c-1.1-1.9-3.5-3-5.7-2.6c-0.2,0-0.3,0-0.5,0c0-0.2,0.2,0,0.3-0.2c-0.8,0-1.5,0.2-2.1,0.5
		c-2.3,0.9-3.5,2.6-3.5,5.1c0,1.7,0.2,3.5,0.3,5.2c0.1,1.6,0.3,3.1-0.3,4.6c-0.3,0.9-0.8,1.8-1.4,2.5c-0.3,0.4-0.7,0.6-1.2,0.8
		c-0.3,0.1-0.5-0.1-0.6-0.2c-1.2-0.9-1.7-2.1-1.8-3.5c0-0.6,0-1.2,0.1-1.8c0.1-0.7-0.1-1.3-0.4-1.9c-0.3-0.5-0.8-0.7-1.4-0.8
		c-1.7-0.3-2.8,0.8-3.9,1.8c-1.4,1.4-1.9,3.2-1.7,5.2c0.1,1.5,0.4,2.9,0.6,4.4c0.1,1,0.6,2,1,3c0.3,0.8,0.6,1.6,0.7,2.5
		c0.1,0.9-0.2,1.6-0.8,2.3c-0.8,0.9-1.8,1.4-3,1.6c-0.3,0.1-0.5-0.1-0.8-0.1c0-13.9,0-27.8,0-41.8c0-0.3,0-0.5,0.4-0.5
		c51.4,0,102.7,0,154.1,0c0.4,0,0.4,0.1,0.4,0.4C169.5,20.3,169.5,67.7,169.5,76.3z" />
</g>
</svg>
