<?xml version="1.0" encoding="utf-8"?>
<!-- Generator: Adobe Illustrator 22.0.1, SVG Export Plug-In . SVG Version: 6.00 Build 0)  -->
<svg version="1.1" id="Layer_1" xmlns="http://www.w3.org/2000/svg" xmlns:xlink="http://www.w3.org/1999/xlink"
	 viewBox="0 0 185.5 181.5" style="enable-background:new 0 0 185.5 181.5;" xml:space="preserve">
<g>
	<path d="M98,11.7c1.7,0.6,3.5,0.6,5.1,1.3c2.4,0.9,4.2,2.3,4.4,5c0.1,1.4,0.8,1.9,2.2,2.2c19.6,4.9,34.7,15.9,45.2,33.3
		c0.3,0.5,0.6,0.9,0.8,1.4c0.8,1.8,1.7,3,4.1,2.8c1.8-0.1,3.1,1.4,3.9,2.9c1.9,3.5,3.2,7.1,3,11.2c-0.1,1.5-0.5,2.7-1.8,3.6
		c-1,0.6-1.2,1.4-1,2.6c3,19-0.7,36.5-11.6,52.5c-1.1,1.6-1.5,3-0.4,4.7c1.2,1.8,0.7,3.5-0.4,5.1c-1.5,2.4-3.5,4.4-5.8,6.1
		c-1.5,1.1-3,1.5-4.8,0.7c-2-0.8-3.8-0.7-5.6,0.8c-3.4,2.7-7.1,5-11.1,6.7c-2.9,1.2-4.2,3.3-4.4,6.1c-0.2,2.7-1.7,4.1-3.9,5.3
		c-3,1.5-6.3,1.9-9.4,2.8c-1.5,0-2.9,0-4.4,0c-2-0.5-3.3-1.7-4.5-3.4c-1.7-2.4-3.9-3.6-7.1-3.7c-7.4-0.1-14.6-1.4-21.5-4.1
		c-2.2-0.9-3.8-0.6-5.2,1.1c-1.4,1.7-3,1.9-4.9,1.3c-2.3-0.7-4.4-1.9-6.1-3.6c-1.1-1.1-1.3-2.3-0.9-3.7c0.7-2.4-0.1-4-2.2-5.6
		c-4.6-3.4-9.1-7-12.5-11.8c-1.4-2-2.8-2.9-5.1-2.3c-1.5,0.3-2.6-0.5-3.6-1.5c-1.9-2-3.2-4.3-3.9-6.9c-0.4-1.4-0.2-2.7,0.8-3.9
		c1.4-1.6,1.4-3.3,0.6-5.3C22,105,20.6,94.4,21.7,83.4c0.1-1.2-0.1-1.8-1.3-2.2c-2.3-0.7-3.2-2.5-3.3-4.8c-0.2-4.1,0.8-8,2.9-11.6
		c1.2-2,2.9-3.2,5.3-2.8c1.3,0.2,1.8-0.3,2.3-1.4c9.8-20.9,25.9-34.4,48.2-40.4c0.5-0.1,1.1-0.3,1.6-0.3c2.6-0.2,4.3-1,4.7-4.1
		c0.4-2.7,3.3-3.1,5.6-3.8c0.6-0.2,1.3-0.3,2-0.4C92.4,11.7,95.2,11.7,98,11.7z M24.9,83.1c-0.1,0.7-0.2,1-0.2,1.3
		c-0.4,5.8-0.2,11.5,0.8,17.2c0.6,3.4,0.8,7.1,2.7,9.8c3.5,5.1,7.1,10.1,12.7,13.2c1.9,1.1,3.4,2.5,4.7,4.3c1.7,2.4,3.9,4.3,6.8,5.4
		c1,0.3,1.7,0.6,2.5-0.5c1.2-1.5,3.3-1.5,4.4,0c0.7,1,1.4,1,2.3,0.6c1.6-0.7,3.1-0.5,4.8,0c3.7,1,7.5,1.1,11.2-0.1
		c1.3-0.4,2.6-0.5,4-0.2c1,0.3,1.5,0,1.8-1.1c0.6-2.5,2.3-4.1,4.8-4.7c3.4-0.8,6,0.9,7.8,5c1-0.6,2-1.1,3.1-1.5
		c5.1-2.1,10.1-4.7,15.6-5.6c0.1,0,0.2-0.1,0.3-0.1c1.1-0.4,1.7-1,1.7-2.4c0.1-2.8,3.2-4.7,5.5-3.4c1.5,0.9,2.4,0.4,3.6-0.4
		c1.2-0.9,1.9-2.1,2.2-3.5c0.3-1.9,0.6-3.7,0.8-5.6c0.5-4,1.7-7.5,5-10c1.3-1,2.3-2.2,3.1-3.6c0.6-1.1,0.6-1.8-0.4-2.8
		c-2.3-2.4-1.3-7,2-7.5c2.6-0.4,2.5-1.9,2.7-3.6c0.2-1.4,0-2.7-0.6-3.9c-0.8-1.8-1.3-3.7-1.6-5.6c-0.9-4.7-0.6-9.4,0-14.1
		c0.1-0.8,0.2-1.5-0.9-2c-2.7-1.3-3-4-0.9-6.1c0.4-0.4,0.8-0.7,0.6-1.4c-0.8-2.5-1.8-4.8-3.6-7.1c-0.5,1.5-1.4,2.1-2.7,1.5
		c-0.8-0.3-1.3-1-1.1-1.9c0.3-1.5,1.5-1.5,2.8-1.4c-0.1-1.6,0.3-3.2-0.9-4.6c-3.2-3.8-6.4-7.5-11.3-9.3c-3.9-1.5-7.8-3.1-12.1-4
		c0.6,1.4,1.8,2.2,2.5,3.3c-2.5-1.3-4.4-3.3-5.8-5.7c-0.4-0.7-0.5-1.6-1.8-1.1c-1.3,0.5-1.1,1.2-0.9,2.2c0.1,0.7,0.4,1.4,0.1,2.5
		c-1-2.5-2-4.4-5-3.6c-1.2,0.3-1.6,0.7-1.6,1.8c0,1.8,0,3.5,0,5.3c-0.6-1.3-1-2.6-1.3-3.9c-0.7-3-0.7-2.9-3.8-3.3
		c-1.8-0.2-3.8-1-4.9,1.3c0,0-0.2,0-0.3,0c0-0.2,0-0.4,0.1-0.5c0.5-1.2,0.3-1.9-1-2.4c-1.5-0.6-1.3,0.8-1.6,1.3
		c-1.4,2.5-3.4,4.3-6.1,5.3c0.9-1,2.2-1.7,2.9-3.1C61.4,24.6,34.5,46,30.8,62.1c0.5-0.2,1-0.4,1.5-0.6c-1.1,1.5-2.6,2.3-4.2,3
		c-0.6,0.3-1.9,0-1.7,1.2c0.1,1.1,1.3,0.6,2,0.9c0.4,0.2,0.8,0,1.2,0.5c-0.7,0.2-1.3,0.4-2,0.6c-1.5,0.3-1.1,1.6-1.2,2.5
		c-0.2,1.1,0.7,1.1,1.4,1.3c1.2,0.3,2.4,0.5,3.6,0.8c0,0.2,0,0.3-0.1,0.5c-1.4,0-2.9,0-4.3,0c-0.5,0-1.1-0.2-1.2,0.4
		c-0.3,1.8-2.4,3.4-0.4,5.3c-0.8,0.3-1.7-0.8-2.3,0.2c-0.6,1.1,0.7,1.2,1.1,1.7c1.1,1.3,2.1,2.7,2.4,5C25.9,84.5,25.5,84,24.9,83.1z
		 M139.8,126.7c9.3-0.6,13.3-11.2,8.1-17.5c-0.3,1.2,1,2.7-1.2,3.5c-1.6,0.6-1.1-1.3-2.1-1.2c0.6,3.7-0.6,5.6-3.7,5.4
		c1.2,0.7,1.8,1.3,1.2,2.8c-0.5,1.4-1.7,1.5-2.5,2.4c0.7,0.2,1.7-0.6,1.8,0.4C141.8,124,142.4,125.9,139.8,126.7z M120.7,138.1
		c-1.1,0.4-1,2.3-2.6,1.5c-1.3-0.6-0.1-1.5-0.4-2.2c-1,0.5-0.9,2-2.3,2.1c-1.1,0.1-2.2,0.7-2.9-0.9c0.2,1.1,0,1.7-1,2.2
		c-0.8,0.4-1.6,0.2-2.4,0.1c0.5,1.9-0.7,3-3.1,3.1C112.6,148.8,117.9,146.7,120.7,138.1z M81.6,147.1c-1.9,1.2-3.6,0.6-4.3-1.2
		c-0.6,1.3-1.5,1.2-2.5,0.6c-0.2-0.1-0.3-0.8-0.7,0c-0.8,1.5-1.9,1.8-3.4,0.2c2.1,4.9,3,5.6,6.9,6.2c3.1,0.4,4.5-1.7,6-3.8
		c-0.8-0.5-1.4,1.2-2.2,0C80.8,148.4,81.3,147.9,81.6,147.1z M160.6,79.8c1.4,16-1.4,31.1-9.3,45.2C159.9,111.1,162.9,96,160.6,79.8
		z M151.4,80.5c0.4,0.5,0.8,0.8,0.9,1.1c0.3,0.9,0.5,1.8-0.1,2.8c-0.1,0.2,1.4,1.2,1,2.3c-0.1,0.3-0.3,0.7,0,0.8
		c1.9,0,1.9,1.4,1.8,2.9c4.4-5.6,3.2-10.6-2.9-12.4C153.5,79.8,153.4,80.2,151.4,80.5z M96,134.1c-0.8,3.3-2.3,5.5-5.3,5.9
		c-3.5,0.6-6-1-7.7-4.7c0.5,5,3.5,7.6,7.5,7C94.4,141.8,96.7,138.6,96,134.1z M95.2,158.1c-4.8-0.5-9.8-0.7-14.6-1.5
		c-4.8-0.8-9.4-2.3-14-3.9C75.6,157.4,85.2,158.5,95.2,158.1z M139.7,96.4c3.5,0.3,5.9-1.2,6.3-3.9c0.4-2.7-1-4.8-3.5-5.4
		C145.9,91.1,145.1,93.8,139.7,96.4z M87.4,17.8c5.2,1.8,10.3,1.7,15.4-0.3C97.7,17.9,92.6,18,87.4,17.8z M153.9,59.6
		c-3.3-7.7-8.2-14.1-14.6-19.4c2.7,3,5.5,5.9,7.9,9.2C149.7,52.6,151.8,56.1,153.9,59.6z M39.3,131.7c0,1.1,0.4,1.4,0.7,1.8
		c3.1,4.3,7.3,7.4,11.7,10c2.1,1.3,4.1,2.5,3.8,5.4c0.3-1.9,0.1-3.6-1.6-4.7C48.6,140.8,43.4,137.3,39.3,131.7z M117.6,155
		c0.9-1.5,2.3-2.1,3.8-2.8c4.6-2,8.8-4.6,12.8-7.7c1-0.8,2.1-1.4,3.6-1.6c-1.6-0.4-2.6,0.2-3.6,1c-4.3,3.1-8.8,5.8-13.7,8.1
		C119.2,152.5,118,153.4,117.6,155z M23.9,66c-0.6,4.1-1.7,8-3.3,11.9C23.5,75.6,25.1,69.8,23.9,66z M115.5,162
		c-3.3-1.7-11,0-13.2,2.8C106.5,162.8,110.8,162.1,115.5,162z M124.4,122.4c0.2,1.8,0,3.4-1.5,4.5c-1.4,1.1-3,0.9-4.8,0.4
		c2,1.9,4.2,2,5.8,0.5C125.6,126.4,125.8,124.2,124.4,122.4z M140.2,50.7c3.3,2.2,3.5,4.2,0.7,7.1c2.2-0.6,3.3-2,3.1-4
		C143.8,51.9,142.5,50.8,140.2,50.7z M163.2,71.9c-2.2-3.2-3.2-6.6-3.7-10.4C158.3,64.6,160.2,70.1,163.2,71.9z M142.8,144
		c1.5-2.5,3.3-4.5,5.9-6.1C145.3,138.4,142.9,140.9,142.8,144z M53.9,136.1c0.6,2.1,1.5,3.3,3.3,3.2c1.3-0.1,2.3-0.7,2.7-2.3
		C57.4,138.9,56.1,138.8,53.9,136.1z M27.8,124.1c1,1.6,2,3.1,3.2,5.1C30.7,126.6,29.5,125.2,27.8,124.1z"/>
	<path d="M110.7,102c4.9,0,8.5,4,7.6,8.4c-0.2,1-0.4,1.5-1.5,0.9c-3.2-1.5-8.9,1.1-9.6,5.8c-0.2,1.4-0.8,1.2-1.7,0.9
		c-3.7-1.4-5.6-5.3-4.3-9.1C102.5,104.9,106.6,102,110.7,102z"/>
	<path d="M68.2,43.2C67,44.3,66,44.5,65,44.7c-1,0.3-1.7,0.5-1.5,1.8c0.1,0.3,0,0.8-0.2,1.1c-0.7,1.4,0,1.9,1.3,2
		c0.3,0,0.6,0.2,0.9,0.3c-1.3,1.2-3.1,0.2-4.4,1.9c-1.6,2.1,0.6,2.7,0.9,4.1c0,0-0.2,0.2-0.2,0.2c-3-1.6-3-1.6-5.7,0.6
		c-0.6,0.5-0.7,1-0.6,1.6c0,1.1,0,2.2,0,3.4c-0.9-0.6-0.9-1.3-1-1.9c-0.3-1.6-1-1.9-2.5-1.7c-0.8,0.2-0.9,0.4-1,1.1
		c-0.2,1.4-0.5,2.7-1,4.1c0-2.9-1.2-5.7-1.3-8.5c-0.1-3.7,2.3-6.5,4.9-8.8c2.6-2.3,5.5-3.8,9.2-2.7C64.5,43.8,66.1,43.7,68.2,43.2z
		 M61.7,47.1c0-1-0.8-1.4-2-0.7c-2.2,1.2-4.1,2.9-5.6,4.9c-0.8,1-1.6,2.2-2,3.5c-0.3,0.8-0.2,1.5,0.9,1.4
		C55.3,56,61.7,49.4,61.7,47.1z"/>
	<path d="M77.4,94.6c-3.3-2.8-6.8-3.1-10.2-0.7c-2.9,2-3.9,5-3,8.6c-3.3-1.2-5.2-5.3-4.2-9c1.4-4.8,6.5-7.9,11.3-6.8
		C75.2,87.6,78,91.1,77.4,94.6z"/>
	<path d="M45.5,105.1c0.1,0.8,0.4,1.7,0.3,2.5c-0.1,1.4,0.3,2.2,1.8,2.7c2.2,0.8,2.2,0.9,3.3-1.3c1,1.5-0.6,3.1,0.8,4.8
		c1.7,2,2.9,0,4.3,0.2c-0.1,0.2-0.1,0.3-0.2,0.4c-2.2,2.5-2.2,2.5-0.7,5.5c0.3,0.6,0.8,0.8,1.4,1c1,0.3,1.9,0.6,2.9,1.3
		c-0.6,0-1.2,0-1.8,0.1c-0.8,0.1-1.9-0.5-2.1,1.1c-0.2,1.4,0,2.1,1.5,2.5c1.1,0.3,2.1,0.9,3,1.8c-2.7-1-5.5-0.8-8.3-0.9
		c-0.6,0-1.3-0.4-1.9-0.7c-4.1-2.7-6.4-6.6-7.2-11.4c-0.1-0.9-0.1-1.9,0.4-2.7C44.3,109.7,45,107.5,45.5,105.1z M54.1,122
		c-0.3-2.5-1.6-4.9-4.1-6.4c-1.7-1-3.2-0.1-2.9,1.9c0.3,2.7,1.7,5,4,6.5C52.8,125.1,54,124.4,54.1,122z"/>
	<path d="M40.6,99.7c0,3.1-1.4,5.4-3.4,5.8c-2.2,0.4-4.3-1.3-5.3-4.3c-0.8-2.3-0.8-4.7,0.5-6.9c1.3-2.2,3.7-2.6,5.6-1
		C39.9,95,40.6,97.3,40.6,99.7z"/>
	<path d="M108.1,50.1c0.2-0.7,0.9-0.9,1.4-1.3c0.6-0.5,0.7-0.9,0.4-1.7c-0.4-0.8-0.8-1-1.5-0.8c-0.9,0.2-1.9,0.4-2.9,0.2
		c4-2.3,7.6-5.2,12.9-2.8c5.1,2.3,6.3,6.4,6.8,11.2c-0.5-0.1-0.9-0.7-1.2-1.3c-0.6-1-1.2-1-2.4-0.9c-1.5,0.2-2.1,0.7-1.6,2.2
		c-1.5-0.4-1.2-2.1-2.7-2.6c-1.8-0.6-2.1,0.8-3.4,2c0.6-2.1,0.3-3.2-1.4-4.3C110.8,48.8,109.6,50.6,108.1,50.1z M119.7,51.3
		c1.2,0,2,0,2.4-0.9c0.5-0.9,0.1-1.7-0.6-2.3c-1.6-1.6-3.5-2.4-5.7-2.6c-0.8-0.1-1.6,0.2-2,1.1c-0.3,0.8,0,1.4,0.5,2
		C115.9,50.3,117.8,51.1,119.7,51.3z"/>
	<path d="M97.1,74.3c-2.4-1.4-3.5-4.1-2.7-6.7c0.8-2.8,3.3-4.4,6.3-4.2c2.7,0.1,4.7,2,5.3,5.1c-2.1-0.7-4.2-0.9-6.1,0.4
		C98.1,70.1,97.2,71.9,97.1,74.3z"/>
	<path d="M124.8,80.7c-2.4,0-4-1.5-4.1-3.7c0-2.5,2.1-4.6,4.7-4.6c2.3,0,4.2,1.7,4.3,3.9C129.7,78.6,127.4,80.7,124.8,80.7z"/>
	<path d="M79.7,93c2.3,4.7,0,10.4-4.9,13.1c-5.3,2.9-11.2,1.6-14.3-3.4c4.3,3.6,8.6,3.8,12.9,1.6C77.7,102.2,79.9,98.5,79.7,93z"/>
	<path d="M120,107.7c2.3,4.2,0.1,10-4.7,12.7c-4.9,2.8-11.1,1.9-13.8-2.4c4.3,2.9,8.5,2.9,12.6,0.5
		C118.3,116.2,120.2,112.5,120,107.7z"/>
	<path d="M90,117.3c0,2.2-1.6,3.8-3.8,3.8c-2.2-0.1-3.8-1.6-3.7-3.9c0-2.1,1.7-3.7,3.7-3.7C88.4,113.6,90,115.1,90,117.3z"/>
	<path d="M82.1,57.9c-4.2,0.8-6.9,3.2-8.2,7.4c-1.6-1-2-2.4-1.8-4c0.5-2.9,2.8-5.1,5.6-5.5C79.5,55.6,81.1,55.9,82.1,57.9z"/>
	<path d="M129.9,99.6c0,2-1.5,3.5-3.4,3.5c-1.9,0-3.5-1.6-3.5-3.5c0-1.9,1.6-3.5,3.5-3.5C128.5,96.1,129.9,97.6,129.9,99.6z"/>
	<path d="M107.7,67.7c1.5,2.7,1.2,5.1-0.2,7.4c-1.7,2.8-4.5,3.6-7.6,3.3c-2.2-0.2-4-1.2-4.9-3.6C101,78.5,107.3,76.2,107.7,67.7z"/>
	<path d="M83.1,56.1c2,1.4,2.7,3.4,2.3,5.7c-0.7,3.7-3,6.1-6.7,7c-2.4,0.6-4.6,0.3-6.7-2c4.3,1.9,7.7,1.1,10.4-2.1
		C84.6,62.1,84.7,59.1,83.1,56.1z"/>
	<path d="M68.9,120.4c-1.7-1.1-2.1-2.5-1.6-4c0.4-1.3,1.3-2,2.7-2.2c1.4-0.1,2.5,0.5,3.2,1.7c0.4,0.8,0.7,1.5-0.8,1.4
		C70.4,117.3,69.4,118.6,68.9,120.4z"/>
	<path d="M71.4,29.7c1.4,0,2.6,1.1,2.7,2.5c0,1.4-1.2,2.6-2.6,2.6c-1.4,0-2.6-1.2-2.7-2.5C68.8,30.9,69.9,29.8,71.4,29.7z"/>
	<path d="M95.9,39.4c-5.4,0-6.5,0.5-6.6,3.1c-0.6,0-1.2-0.3-1.7-0.7c-1.3-1-1.3-2.4,0.2-3.2C89.8,37.4,94,37.8,95.9,39.4z"/>
	<path d="M120.9,80.7c5.4,2.7,8.4,1.1,9.9-5.1c1,2.7,0,5.6-2.4,6.9C125.8,83.9,122.9,83.3,120.9,80.7z"/>
	<path d="M81.8,121.3c5.6,3.3,9.5,0.2,9.3-5c1.4,1.9,0.8,5.1-1.3,6.6C87.4,124.7,84,124.1,81.8,121.3z"/>
	<path d="M32.6,105.3c5.2,2.7,8,0.9,9-5.4c1.3,2.2,0.2,5.7-2.1,7.2C37.3,108.5,34.4,107.8,32.6,105.3z"/>
	<path d="M88.4,87.5c-1.4-0.8-1.9-1.9-1.5-3.3c0.3-1.2,1.1-2,2.4-2.1c1.5-0.1,2.6,0.5,3.2,2.1C90,84.1,88.7,85.2,88.4,87.5z"/>
	<path d="M54.4,76.9c-3.2,0.3-4.2,1.4-4.8,5.2c-1.3-1.2-1.2-2.6-0.8-4c0.5-1.4,1.3-2.7,3-2.8C53,75.2,53.8,75.8,54.4,76.9z"/>
	<path d="M123.8,35.9c-1.1,0-2.1-0.5-3-1.2c-0.4-0.3-0.8-0.7-0.6-1.2c0.2-0.6,0.8-0.8,1.3-0.8c1.1,0.1,2.2,0.3,3.1,1
		c0.5,0.4,1,0.8,0.7,1.5C125.1,35.9,124.4,36,123.8,35.9z"/>
	<path d="M29.5,94.6c-1.8,0-2.5-0.7-2.5-1.9c0.1-1.1,0.7-2,2-1.9c1.2,0.1,2,0.7,1.9,1.9C30.9,94.1,30.1,94.6,29.5,94.6z"/>
	<path d="M78.6,73c-0.1,1.2-0.8,1.8-1.8,1.8c-1.2,0-2-0.7-2-1.9c0-1.1,0.7-1.7,1.8-1.7C77.8,71.1,78.4,71.9,78.6,73z"/>
	<path d="M41.4,49.4c1.1,0,1.8,0.7,1.8,1.7c0.1,1.1-0.6,1.9-1.7,1.9c-1.1,0-1.8-0.7-1.8-1.9C39.8,50.1,40.4,49.5,41.4,49.4z"/>
	<path d="M46.3,84.8c-0.1,1.1-0.7,1.6-1.6,1.6c-1,0-1.6-0.6-1.7-1.6c0-1,0.6-1.6,1.6-1.6C45.7,83.3,46.2,83.8,46.3,84.8z"/>
	<path d="M132.3,63.8c0.9,0.1,1.4,0.5,1.5,1.4c0.1,0.9-0.4,1.5-1.4,1.6c-0.9,0-1.4-0.4-1.4-1.3C130.9,64.5,131.5,64,132.3,63.8z"/>
	<path d="M103.6,92.3c-0.1,0.9-0.4,1.6-1.4,1.7c-0.8,0.1-1.5-0.4-1.5-1.3c0-0.9,0.7-1.4,1.5-1.6C103,91,103.5,91.5,103.6,92.3z"/>
	<path d="M109.8,33.9c-0.1,0.8-0.5,1.4-1.3,1.5c-0.7,0.1-1.2-0.3-1.3-1c-0.1-0.9,0.5-1.3,1.3-1.4C109.2,32.8,109.7,33.1,109.8,33.9z
		"/>
	<path d="M94.8,53.3c0.7,0,1.2,0.4,1.3,1.1c0.1,0.7-0.3,1-1,1c-0.6,0-1.3-0.1-1.4-0.9C93.6,53.8,94.1,53.4,94.8,53.3z"/>
	<path d="M34.6,109c0,0.7-0.3,1.2-1.1,1.1c-0.7,0-1.1-0.5-1.1-1.2c0-0.7,0.4-1.1,1.1-1.1C34.3,107.8,34.6,108.3,34.6,109z"/>
	<path d="M142.8,122.6c0.4-3.1,1.6-6,3.9-8.3c0.5-0.5,1.1-1.2,1.9-0.8c0.7,0.4,0.6,1.3,0.6,2c-0.4,3.2-1.7,5.9-4,8.2
		c-0.5,0.5-1.1,1.2-1.9,0.8C142.6,124.2,142.8,123.3,142.8,122.6z"/>
	<path d="M111,145.3c-0.6,0-1.4,0.1-1.7-0.6c-0.4-0.8,0.4-1.3,0.9-1.8c1.9-1.6,4.1-2.4,6.6-2.3c0.5,0,1,0,1.3,0.5
		c0.3,0.6-0.2,1.1-0.5,1.4C115.7,144.3,113.6,145.2,111,145.3z"/>
	<path d="M75.7,148.1c1.6,0,2.9,0.4,4.1,1.1c0.5,0.3,1,0.6,0.9,1.2c-0.1,0.8-0.8,0.9-1.3,1c-1.8,0.4-3.5-0.1-5.1-0.9
		c-0.6-0.3-1.3-0.7-1-1.5c0.2-0.6,0.9-0.8,1.5-0.9C75.1,148.1,75.4,148.1,75.7,148.1z"/>
	<path d="M153.8,82.2c0.1-0.6-0.3-1.7,0.5-1.8c0.8-0.2,1.1,0.9,1.3,1.5c0.6,1.4,0.9,2.9,0.7,4.5c0,0.4-0.1,0.8-0.5,0.9
		c-0.4,0.1-0.6-0.3-0.8-0.6C154.2,85.3,153.9,83.9,153.8,82.2z"/>
</g>
</svg>
