<?xml version="1.0" encoding="UTF-8" ?>
<!DOCTYPE svg PUBLIC "-//W3C//DTD SVG 1.1//EN" "http://www.w3.org/Graphics/SVG/1.1/DTD/svg11.dtd">
<svg viewBox="0 0 980 784" version="1.1" xmlns="http://www.w3.org/2000/svg">
<g id="#ffffffff">
</g>
<g id="#000000ff">
<path fill="#000000" opacity="1.00" d=" M 753.49 1.71 C 767.64 -1.85 785.50 2.40 792.60 16.18 C 797.80 26.53 798.36 39.36 793.06 49.79 C 788.69 58.79 780.05 65.71 770.13 67.44 C 748.97 71.27 726.43 51.73 729.34 29.89 C 730.84 16.85 740.64 4.93 753.49 1.71 M 761.20 22.23 C 757.69 24.04 753.85 26.45 752.67 30.46 C 751.11 36.19 754.97 42.50 760.46 44.40 C 767.07 46.77 774.80 40.83 774.86 33.97 C 774.56 29.16 770.97 25.36 767.18 22.78 C 765.47 21.51 763.10 21.20 761.20 22.23 Z" />
<path fill="#000000" opacity="1.00" d=" M 437.89 62.95 C 462.42 59.97 487.23 60.72 511.84 62.15 C 534.00 63.77 556.35 65.83 577.72 72.23 C 633.23 87.68 685.17 116.31 727.01 156.03 C 741.52 169.44 754.34 184.50 767.24 199.41 C 776.67 198.15 786.03 196.30 795.56 195.89 C 820.18 194.43 844.94 194.46 869.52 196.73 C 886.99 199.06 904.22 203.53 920.51 210.28 C 938.24 217.84 955.03 228.98 966.25 244.93 C 974.87 257.01 979.45 271.71 980.00 286.50 L 980.00 291.68 C 979.33 311.64 972.46 330.84 963.13 348.30 C 940.53 389.82 905.31 422.49 869.31 452.31 C 857.43 462.11 844.51 470.68 833.59 481.59 C 831.91 483.46 829.68 485.24 829.38 487.90 C 828.00 497.46 824.48 506.51 821.45 515.63 C 815.23 532.96 808.41 550.08 800.63 566.77 C 793.95 581.70 785.21 595.60 776.22 609.24 C 760.22 633.35 739.86 654.16 718.56 673.60 C 697.76 692.42 674.77 708.93 649.77 721.72 C 618.43 737.76 584.68 748.96 550.12 755.55 C 525.77 760.30 500.91 763.48 476.06 762.10 C 433.33 760.05 391.10 750.26 351.40 734.46 C 318.52 721.14 286.89 703.56 260.83 679.24 C 256.62 675.38 252.38 671.57 248.18 667.71 C 221.30 666.15 194.35 665.35 167.59 662.24 C 132.72 658.06 97.70 651.14 65.62 636.43 C 43.30 626.09 22.18 611.07 9.35 589.66 C 2.35 578.70 0.39 565.44 0.00 552.69 L 0.00 545.61 C 0.82 534.08 2.58 522.33 7.89 511.93 C 14.79 497.86 24.23 485.19 34.61 473.52 C 51.88 454.29 71.94 437.67 93.53 423.50 C 106.95 414.67 121.24 407.27 135.19 399.34 C 136.52 388.62 137.74 377.89 139.13 367.19 C 144.34 326.55 156.69 286.83 175.50 250.43 C 194.46 213.72 219.97 180.39 250.52 152.57 C 282.19 123.68 319.22 100.71 359.14 85.08 C 384.63 75.34 410.93 67.38 437.89 62.95 M 358.92 109.57 C 334.72 119.77 311.41 132.53 290.98 149.11 C 289.52 150.59 287.02 152.18 287.45 154.54 C 289.47 157.09 292.96 157.50 295.93 158.15 C 309.44 160.88 323.37 160.40 336.85 163.23 C 340.44 164.15 344.39 165.11 346.97 167.97 C 349.40 170.83 347.68 175.02 345.36 177.38 C 340.41 181.87 333.72 184.33 327.03 184.12 C 311.93 184.02 296.84 181.64 282.35 177.40 C 275.85 175.62 270.03 172.13 264.00 169.22 C 253.13 180.96 242.08 192.57 232.12 205.11 C 218.73 221.56 207.04 239.38 197.24 258.19 C 195.75 261.33 194.06 265.05 195.66 268.49 C 198.27 274.29 204.10 277.58 209.47 280.44 C 224.13 287.65 240.12 291.77 256.20 294.33 C 263.93 295.71 271.86 296.76 279.14 299.89 C 282.09 301.24 285.48 303.37 285.77 306.94 C 285.79 310.70 283.65 314.74 279.95 316.01 C 273.26 318.43 265.96 318.09 258.98 317.75 C 242.19 316.43 225.58 312.58 209.90 306.44 C 199.58 302.48 190.44 296.18 180.99 290.58 C 171.42 320.66 163.53 351.45 160.49 382.95 C 160.02 389.65 159.53 396.49 160.94 403.12 C 162.03 408.22 165.19 412.54 168.66 416.31 C 173.38 421.76 179.28 426.06 185.59 429.49 C 198.72 436.64 213.27 440.72 227.86 443.63 C 236.79 445.55 245.90 446.56 254.78 448.72 C 256.28 451.90 258.06 455.31 257.40 458.95 C 256.49 464.86 250.81 469.23 244.98 469.49 C 239.88 469.68 234.85 468.55 229.85 467.70 C 215.71 464.80 201.81 460.78 188.28 455.76 C 178.49 452.21 169.38 447.12 160.00 442.64 C 162.31 461.71 166.61 480.47 171.81 498.94 C 177.12 517.46 182.90 536.00 191.80 553.16 C 193.66 556.82 196.28 560.62 200.54 561.59 C 206.89 563.11 213.45 563.57 219.94 564.10 C 246.27 565.55 272.67 565.16 299.02 564.36 C 320.34 563.44 341.73 562.61 362.85 559.33 C 407.86 552.87 452.36 542.98 496.05 530.38 C 575.26 507.25 652.33 475.63 723.02 432.83 C 754.69 413.59 784.77 391.65 812.03 366.52 C 804.99 325.24 791.93 284.91 772.26 247.89 C 763.81 264.47 756.01 282.10 742.02 294.90 C 737.70 298.69 732.17 302.87 726.07 301.24 C 722.57 300.74 719.07 297.83 719.78 293.97 C 720.90 286.68 725.84 280.77 729.93 274.89 C 739.73 261.82 749.53 247.55 751.50 230.91 C 752.49 224.40 750.39 217.87 746.79 212.48 C 741.02 203.70 734.30 195.53 726.93 188.04 C 713.80 174.79 699.97 162.24 685.64 150.30 C 679.93 145.84 674.54 140.75 667.93 137.63 C 661.81 146.71 658.20 157.20 652.30 166.42 C 642.80 181.43 630.14 194.15 616.69 205.64 C 599.16 220.38 579.96 233.03 560.11 244.40 C 546.98 251.78 533.73 259.03 519.81 264.81 C 515.73 266.26 511.07 268.30 506.81 266.40 C 502.40 263.91 499.54 258.17 501.21 253.22 C 502.55 250.28 505.31 248.36 507.90 246.61 C 514.68 242.28 522.00 238.91 529.11 235.18 C 547.77 225.73 565.75 214.91 582.75 202.72 C 598.22 191.42 613.09 179.09 625.65 164.56 C 634.05 154.58 642.46 143.34 644.02 130.00 C 644.85 126.31 641.52 123.77 639.00 121.76 C 630.82 115.79 621.45 111.74 612.17 107.82 C 592.39 99.78 571.80 93.73 550.86 89.60 C 545.02 88.60 539.03 86.95 533.10 88.15 C 528.42 89.18 525.58 93.41 523.19 97.20 C 512.34 115.37 494.76 128.11 477.13 139.15 C 451.36 154.73 423.26 166.48 394.11 173.99 C 388.15 175.36 382.15 176.90 376.00 176.87 C 372.96 176.80 369.32 176.14 367.71 173.23 C 366.11 170.09 366.53 166.32 367.35 163.01 C 368.53 159.12 372.74 157.56 376.13 156.10 C 386.94 152.06 398.22 149.43 409.06 145.47 C 433.08 136.85 456.48 126.04 477.66 111.71 C 486.15 105.72 494.84 99.32 500.46 90.40 C 501.14 88.95 503.00 86.45 500.88 85.38 C 495.09 83.71 488.93 84.55 482.98 84.33 C 440.43 83.81 398.14 93.37 358.92 109.57 M 789.83 218.92 C 788.03 219.49 785.28 219.64 784.59 221.70 C 784.89 227.25 788.38 231.98 791.75 236.16 C 794.87 239.61 798.38 243.31 803.11 244.33 C 817.38 247.10 831.92 250.13 844.79 257.17 C 858.99 264.83 868.87 279.82 870.48 295.85 C 871.71 307.23 869.42 318.75 865.21 329.31 C 858.72 346.02 846.24 359.34 834.28 372.32 C 807.75 399.78 778.29 424.59 745.86 444.82 C 712.83 465.83 678.15 484.17 642.58 500.49 C 559.21 538.66 470.66 565.73 379.94 579.33 C 331.07 586.65 281.47 590.46 232.07 587.35 C 206.40 585.55 180.62 581.97 156.16 573.68 C 141.42 568.49 126.77 561.57 115.66 550.32 C 103.25 537.91 98.01 518.87 102.31 501.86 C 106.15 485.84 116.61 472.45 128.07 461.04 C 132.19 456.44 137.89 451.80 137.61 445.02 C 137.19 438.19 135.59 431.50 134.60 424.75 C 121.86 432.95 108.98 440.95 96.48 449.52 C 75.26 464.50 55.26 481.80 40.06 503.02 C 32.33 514.10 25.72 526.37 23.36 539.81 C 20.61 555.95 25.01 573.03 34.79 586.12 C 45.18 600.19 60.21 610.05 75.88 617.37 C 97.27 627.23 120.33 632.89 143.49 636.69 C 191.92 644.33 241.23 643.88 290.03 640.83 C 341.24 637.41 391.99 628.84 441.99 617.42 C 484.28 607.85 526.07 596.09 567.14 582.19 C 643.17 556.28 717.11 523.62 785.99 482.17 C 820.33 461.28 853.47 438.19 883.43 411.32 C 905.84 390.92 926.94 368.47 942.00 341.98 C 948.53 329.79 955.21 317.03 956.04 302.96 C 956.56 293.95 956.69 284.86 955.67 275.88 C 954.40 264.98 947.37 255.78 939.51 248.57 C 925.48 236.10 907.57 228.91 889.50 224.61 C 868.31 219.91 846.56 218.19 824.91 217.38 C 813.21 217.17 801.39 216.82 789.83 218.92 M 808.41 269.32 C 809.68 274.47 811.94 279.29 813.79 284.25 C 818.72 296.55 822.84 309.17 826.00 322.05 C 827.66 328.57 828.91 335.30 831.99 341.35 C 835.01 339.53 836.77 336.38 838.49 333.42 C 841.82 327.40 844.50 321.02 846.57 314.46 C 849.79 304.12 848.29 292.11 841.60 283.42 C 837.84 278.24 832.00 275.18 826.08 273.13 C 820.37 271.24 814.51 269.00 808.41 269.32 M 138.05 484.08 C 131.01 490.65 126.27 499.64 124.61 509.11 C 123.26 517.31 124.46 526.56 130.06 533.03 C 135.07 537.72 140.96 541.35 146.76 544.97 C 152.32 548.18 157.87 551.70 164.13 553.39 C 159.17 532.26 149.96 512.36 145.46 491.11 C 144.78 488.25 145.43 484.96 143.77 482.41 C 141.80 480.84 139.60 482.89 138.05 484.08 M 774.56 515.51 C 737.82 536.82 699.31 554.95 660.16 571.36 C 582.85 603.61 502.58 628.86 420.50 645.70 C 373.83 655.62 326.26 660.02 278.94 665.62 C 294.42 676.33 309.63 687.85 327.10 695.16 C 339.94 699.40 353.63 700.00 367.02 701.07 C 393.97 702.59 421.06 702.88 447.96 700.38 C 473.28 697.51 498.31 692.50 523.09 686.59 C 564.49 676.38 605.29 663.24 644.09 645.44 C 651.74 642.06 659.36 638.47 667.46 636.26 C 671.01 635.46 675.12 634.58 678.40 636.70 C 681.52 639.09 682.26 643.36 682.55 647.05 C 682.82 650.73 679.83 653.40 676.99 655.16 C 670.31 659.31 663.01 662.33 655.87 665.57 C 598.94 690.74 538.87 708.88 477.50 719.27 C 453.02 723.45 428.27 725.59 403.60 728.34 C 408.01 729.25 412.41 730.23 416.81 731.19 C 439.12 736.38 462.16 736.88 484.96 737.06 C 510.19 736.75 535.65 735.96 560.41 730.64 C 613.12 717.16 663.45 692.49 704.38 656.39 C 715.78 646.02 726.83 635.06 735.91 622.56 C 729.08 626.13 722.29 631.68 714.08 630.54 C 709.38 629.93 706.70 625.33 705.87 621.07 C 705.29 617.51 707.76 614.48 710.17 612.20 C 717.20 605.72 725.53 600.91 733.14 595.17 C 746.72 584.91 759.55 573.65 771.50 561.52 C 776.99 555.62 782.89 549.89 786.79 542.76 C 790.79 534.46 794.10 525.85 797.11 517.16 C 798.89 511.69 801.04 506.28 801.93 500.58 C 792.41 504.76 783.68 510.54 774.56 515.51 Z" />
<path fill="#000000" opacity="1.00" d=" M 205.50 63.64 C 212.92 61.70 221.41 63.65 226.86 69.16 C 232.46 74.97 235.79 83.61 233.47 91.61 C 230.46 102.15 218.56 108.31 208.09 106.85 C 195.69 104.73 187.41 90.88 190.37 78.87 C 192.02 71.48 198.20 65.47 205.50 63.64 Z" />
<path fill="#000000" opacity="1.00" d=" M 78.50 79.67 C 104.58 74.13 132.43 87.06 147.04 108.92 C 156.60 122.79 160.71 140.32 158.02 156.98 C 155.80 172.66 146.35 186.39 134.84 196.85 C 123.69 207.01 109.27 214.06 93.99 214.28 C 65.98 215.71 38.86 197.54 28.07 171.93 C 21.36 156.60 20.95 138.58 27.39 123.09 C 30.82 115.07 34.92 107.20 40.68 100.59 C 46.59 93.85 54.41 89.22 62.34 85.24 C 67.45 82.69 72.90 80.83 78.50 79.67 M 82.63 102.77 C 70.91 104.78 60.17 111.82 53.76 121.85 C 45.26 134.74 43.74 152.14 50.62 166.07 C 56.11 177.49 66.95 185.83 78.96 189.45 C 89.07 192.52 100.27 191.50 109.73 186.83 C 122.63 180.62 132.43 168.17 134.99 154.03 C 137.31 141.57 133.59 128.21 125.37 118.59 C 121.28 113.74 116.82 108.92 111.01 106.13 C 102.29 101.81 92.12 101.21 82.63 102.77 Z" />
<path fill="#000000" opacity="1.00" d=" M 819.49 97.61 C 827.27 96.30 834.67 100.72 840.00 106.02 C 843.61 109.84 847.03 114.57 846.99 120.06 C 846.83 125.71 843.25 130.49 839.64 134.53 C 834.99 139.64 828.03 142.83 821.07 142.07 C 814.23 141.46 807.97 137.01 805.00 130.85 C 802.02 124.75 801.83 117.45 803.95 111.06 C 806.22 104.19 812.55 99.17 819.49 97.61 Z" />
<path fill="#000000" opacity="1.00" d=" M 415.48 211.79 C 420.95 210.94 427.03 209.01 432.28 211.71 C 435.87 214.17 439.19 218.98 437.32 223.43 C 434.62 228.20 429.24 230.43 424.44 232.50 C 411.41 237.62 397.67 240.53 384.05 243.55 C 364.04 248.17 343.44 249.55 322.95 249.67 C 313.10 249.56 303.18 249.28 293.49 247.39 C 287.86 246.39 282.47 243.54 278.81 239.11 C 276.62 236.45 275.60 232.48 277.49 229.38 C 279.83 225.45 284.69 223.97 289.03 223.80 C 295.14 223.42 300.89 225.96 306.93 226.41 C 321.98 227.82 337.12 226.55 352.10 224.91 C 365.52 223.22 378.89 220.95 391.98 217.53 C 399.79 215.53 407.58 213.41 415.48 211.79 Z" />
<path fill="#000000" opacity="1.00" d=" M 592.43 288.65 C 594.16 287.87 596.18 287.01 597.97 288.20 C 602.36 290.49 606.69 294.07 608.26 298.91 C 607.73 303.51 603.20 306.16 599.93 308.88 C 582.59 320.85 563.07 329.13 543.88 337.61 C 507.84 352.77 470.98 366.20 433.17 376.22 C 421.60 379.00 409.86 382.06 397.88 381.87 C 391.17 382.35 384.86 374.56 388.22 368.26 C 389.27 364.59 393.34 363.76 396.43 362.48 C 415.49 355.62 435.42 351.70 454.80 345.87 C 492.88 334.86 530.16 320.69 565.25 302.15 C 574.19 297.42 583.17 292.74 592.43 288.65 Z" />
<path fill="#000000" opacity="1.00" d=" M 350.06 291.13 C 352.79 290.57 355.80 289.93 358.20 291.81 C 362.48 294.68 367.63 299.40 365.82 305.14 C 364.66 309.93 359.55 312.04 355.25 313.23 C 344.41 316.02 333.21 317.18 322.05 317.76 C 316.20 317.88 309.88 318.38 304.55 315.53 C 300.25 313.04 300.02 307.36 300.79 303.01 C 301.82 299.06 306.45 298.17 309.84 297.29 C 323.13 294.53 336.68 293.31 350.06 291.13 Z" />
<path fill="#000000" opacity="1.00" d=" M 694.49 314.76 C 698.88 312.89 704.34 315.76 705.41 320.38 C 706.99 326.13 703.45 331.67 699.24 335.26 C 687.59 345.60 674.19 353.70 660.96 361.81 C 627.49 381.62 592.72 399.26 556.94 414.49 C 516.36 431.46 473.92 443.57 431.16 453.64 C 395.05 461.63 358.28 468.91 321.11 467.45 C 318.40 467.15 314.52 467.09 313.60 463.89 C 312.68 460.32 312.35 456.39 313.63 452.88 C 314.27 451.03 316.49 450.80 318.10 450.27 C 339.15 445.46 360.73 443.76 381.98 440.05 C 426.12 432.91 469.32 420.86 511.58 406.38 C 550.08 392.53 587.45 375.61 623.60 356.47 C 639.67 347.88 655.47 338.71 670.40 328.24 C 678.10 323.21 685.90 318.15 694.49 314.76 Z" />
<path fill="#000000" opacity="1.00" d=" M 767.51 336.74 C 772.60 334.65 780.71 336.58 781.23 342.99 C 781.47 350.13 776.64 356.11 772.04 361.06 C 759.56 373.67 745.21 384.23 731.04 394.82 C 711.72 408.61 692.06 422.20 670.49 432.27 C 663.04 435.52 655.41 439.42 647.10 439.38 C 640.59 439.50 637.35 431.36 639.43 426.04 C 642.14 421.39 647.44 419.25 651.89 416.62 C 687.75 398.70 721.53 376.22 750.76 348.71 C 755.93 344.22 761.09 339.39 767.51 336.74 Z" />
<path fill="#000000" opacity="1.00" d=" M 50.43 338.63 C 56.23 336.87 62.13 339.87 66.58 343.41 C 71.34 347.36 75.58 352.70 76.27 359.04 C 76.75 372.07 64.19 384.96 50.85 382.59 C 44.06 381.70 37.78 377.50 34.55 371.45 C 31.16 365.33 31.17 357.53 34.54 351.42 C 37.94 345.34 43.73 340.59 50.43 338.63 Z" />
<path fill="#000000" opacity="1.00" d=" M 903.14 491.19 C 910.73 490.30 918.40 491.06 925.96 491.94 C 935.25 493.16 944.43 497.16 950.53 504.47 C 958.21 513.53 963.71 524.92 963.96 536.96 C 964.49 552.00 957.04 566.89 945.04 575.87 C 931.36 586.35 912.16 588.98 896.12 582.79 C 885.51 578.72 876.78 570.25 872.16 559.89 C 867.14 548.69 866.46 535.75 869.41 523.90 C 872.07 513.29 879.26 504.28 888.22 498.21 C 892.69 494.99 897.52 491.84 903.14 491.19 M 909.49 512.63 C 899.57 514.88 891.75 523.76 889.69 533.57 C 887.22 546.45 896.61 559.60 908.97 562.98 C 919.17 566.04 930.93 561.50 936.70 552.62 C 943.53 542.47 942.15 527.33 932.72 519.25 C 926.33 514.08 917.72 510.95 909.49 512.63 Z" />
<path fill="#000000" opacity="1.00" d=" M 253.56 513.79 C 264.32 512.90 275.14 513.06 285.93 512.93 C 301.31 512.96 316.73 513.10 332.05 514.55 C 333.68 514.82 335.60 514.83 336.79 516.16 C 341.09 520.66 339.33 528.97 333.94 531.83 C 330.92 533.40 327.48 533.80 324.19 534.50 C 309.29 537.08 294.13 538.20 279.00 537.89 C 268.76 537.53 258.36 536.76 248.58 533.49 C 244.80 532.05 240.59 530.35 238.52 526.64 C 236.96 523.82 238.33 520.49 240.24 518.24 C 243.30 514.16 249.02 514.49 253.56 513.79 Z" />
<path fill="#000000" opacity="1.00" d=" M 692.50 566.67 C 700.18 562.25 709.46 572.35 706.01 579.91 C 703.00 586.60 696.53 590.70 690.58 594.51 C 673.41 605.00 655.02 613.31 636.60 621.33 C 617.27 629.57 597.66 637.26 577.53 643.36 C 570.18 645.26 562.75 647.98 555.07 647.49 C 546.30 645.15 546.35 630.26 554.91 627.54 C 573.09 619.86 592.23 614.78 610.55 607.49 C 634.84 597.74 659.04 587.26 681.25 573.30 C 684.90 570.94 688.49 568.41 692.50 566.67 Z" />
<path fill="#000000" opacity="1.00" d=" M 843.45 613.68 C 851.81 611.44 861.41 614.34 866.91 621.08 C 875.29 631.32 870.88 648.61 859.08 654.22 C 848.79 659.35 835.57 654.73 829.25 645.53 C 825.79 640.48 825.73 633.72 828.19 628.25 C 831.03 621.64 836.23 615.49 843.45 613.68 Z" />
<path fill="#000000" opacity="1.00" d=" M 203.31 739.49 C 208.18 737.20 213.62 739.81 217.98 742.14 C 225.38 746.11 230.45 753.74 231.44 762.05 C 231.83 767.73 227.98 772.43 224.58 776.55 C 216.16 786.14 199.11 785.77 191.30 775.58 C 184.51 767.13 185.28 753.63 193.15 746.14 C 196.17 743.43 199.61 741.15 203.31 739.49 Z" />
</g>
</svg>
