<?xml version="1.0" encoding="utf-8"?>
<!-- Generator: Adobe Illustrator 22.0.1, SVG Export Plug-In . SVG Version: 6.00 Build 0)  -->
<svg version="1.1" id="Layer_1" xmlns="http://www.w3.org/2000/svg" xmlns:xlink="http://www.w3.org/1999/xlink" x="0px" y="0px"
	 viewBox="0 0 184.3 146.7" style="enable-background:new 0 0 184.3 146.7;" xml:space="preserve">
<g>
	<path d="M143.8,72.3c-0.2,2.6-0.3,5.2-0.5,7.7c-0.8,7-2.7,13.7-6.2,19.8c-1.5,2.6-3.2,5.1-5.1,7.4c-0.6,0.8-1.2,0.9-2.1,0.6
		c-6.3-2.3-12.6-4.8-18.7-7.5c-9.3-4.1-18.3-8.5-27.3-13.2C75.5,82.8,67.2,78,59.2,73c-6.5-4-12.8-8.3-19-12.9
		c-0.5-0.4-0.6-0.8-0.4-1.3c1.6-4.9,3.9-9.5,6.8-13.8c2.3-3.4,5-6.6,8-9.4c4.5-4.3,9.5-7.7,15.1-10.4c8.7-4.1,17.9-5.8,27.5-5.3
		c9.5,0.5,18.3,3.3,26.5,8.3c10.6,6.6,18.2,15.7,22.9,27.2c2.2,5.4,3.5,11.1,3.9,17.1c0.8,10.7-1.3,20.8-6.1,30.4
		c-1.3,2.6-2.8,5-4.6,7.4c-0.3,0.5-0.6,0.7-1.2,0.5c-1.3-0.5-2.6-0.8-3.9-1.2c-0.7-0.2-0.9-0.5-0.4-1.1c3.1-3.8,5.2-8.1,6.9-12.6
		c1.8-4.7,2.8-9.5,3-14.6C144.5,78.3,144.2,75.3,143.8,72.3z M87.9,29.7c-3.3,0-6.4,0.7-9.4,1.8c-3.2,1.2-6.2,2.9-8.4,5.5
		c-1,1.2-1.6,2.4-1.8,3.9c-0.3,2.7,1.4,5,4.6,5.8c8.5,2.3,16.2,0.3,22.9-5.4c1.1-0.9,1.8-2.1,2.3-3.4c0.9-2.6,0.1-5-2.3-6.4
		C93.4,30.2,90.7,29.7,87.9,29.7z M111.4,34.8c0-2-1.6-3.6-3.6-3.6c-2,0-3.6,1.6-3.7,3.6c-0.1,1.9,1.7,3.8,3.7,3.7
		C109.7,38.5,111.4,36.7,111.4,34.8z"/>
	<path d="M38.6,36.3c-4,0.1-8-0.1-11.9,0.1c-2,0.1-4,0.2-5.9,0.9c-0.4,0.1-0.8,0.3-1.2,0.4c-2.8,1.2-3.3,2.8-1.8,5.4
		c2,3.4,4.8,6.3,7.6,9c6.3,5.8,13.1,10.9,20.2,15.8c5.8,4,11.8,7.7,17.9,11.3c8.9,5.2,18,10.2,27.2,15c8.8,4.5,17.8,8.8,27,12.6
		c9.1,3.8,18.3,7.3,27.8,9.9c4.9,1.3,9.8,2.5,14.9,2.7c1.5,0,3,0,4.5-0.4c1.5-0.4,2-1,1.9-2.6c-0.1-2.1-0.9-4.1-1.9-5.9
		c-2.4-4.6-5.6-8.6-8.8-12.6c0.1-0.3,0.3-0.1,0.4-0.1c5.2,3.6,10.2,7.4,13.8,12.7c1.3,1.9,2.3,4,2.5,6.4c0.3,4.2-1.8,6.9-5.3,8.7
		c-2.6,1.3-5.5,1.8-8.4,1.9c-8.7,0.4-17.1-1.1-25.4-3.3c-1.6-0.4-3.3-0.9-4.9-1.4c-0.6-0.2-1.1-0.1-1.6,0.3
		c-7.4,5.4-15.7,8.8-24.7,10.2c-12,1.9-23.4-0.1-34.3-5.5c-9.3-4.6-16.7-11.4-22.3-20.1c-4.9-7.7-7.9-16.2-8.7-25.4
		c-0.2-2-0.2-3.9-0.2-5.9c0-0.6-0.2-1-0.6-1.4c-3.9-3-7.6-6.1-11-9.5C20,60.1,14.7,54.8,11.7,47.9c-1.1-2.5-1.8-5.2-1.3-7.9
		c0.6-3.9,3.2-6.4,7.3-7.3c3.3-0.7,6.5-0.4,9.8,0.3c3.7,0.7,7.4,1.6,10.9,3.2C38.4,36.2,38.5,36.2,38.6,36.3z M53.3,106.4
		C68,129.7,100,135,121.1,120.5c-0.8-0.5-1.7-0.6-2.5-1c-0.6-0.3-1.2-0.2-1.7,0.1c-2.4,1.5-5.1,2.5-7.7,3.3
		c-7.9,2.6-16,3.3-24.3,1.9c-8.6-1.4-16.2-4.9-23-10.3C58.7,112.2,56,109.4,53.3,106.4z"/>
</g>
</svg>
