<?xml version="1.0" encoding="utf-8"?>
<!-- Generator: Adobe Illustrator 22.0.1, SVG Export Plug-In . SVG Version: 6.00 Build 0)  -->
<svg version="1.1" id="Layer_1" xmlns="http://www.w3.org/2000/svg" xmlns:xlink="http://www.w3.org/1999/xlink" x="0px" y="0px"
	 viewBox="0 0 178.6 232.7" style="enable-background:new 0 0 178.6 232.7;" xml:space="preserve">
<g>
	<path d="M59.3,160.8c-1.2,0.7-2,1.4-2.3,2.6c-0.8,4.3-3.3,7.4-6.9,9.6c-1.6,1-2.4,2.3-3,4.1c-1.1,3.4-2.9,6.5-3.6,10.1
		c-0.1,0.7-0.7,1.5-1.4,1.8c-2.2,1.3-2.3,3-1.6,5.2c1.4,4.3,1.5,8.8,1.7,13.2c0.2,3.2-1.2,5.6-4.1,7c-2.3,1.1-4.5,1.2-6.7-0.2
		c-5.4-3.3-8.1-8.1-8.2-14.4c0-1.7-0.1-3.2-1.4-4.7c-1.3-1.5-1.1-3.7-0.6-5.6c0.3-1,0.7-2,0.7-3c-0.4-8.7,4.2-15.3,8.8-21.9
		c1.4-2,3.1-3.8,4.6-5.7c0.7-0.9,1.2-1.6-0.3-2.3c-1.7-0.7-1.9-2.1-1.4-3.7c1.7-6.4,3.1-12.7,3-19.4c0-2.2,0.2-4.2-1-6.2
		c-0.8-1.4-1.8-2.3-3.4-2c-6.7,1.2-9.7-3.7-13.2-7.9c-0.8-1-0.9-2.3-0.9-3.6c0.2-4.2,0.9-8.4,2-12.5c0.4-1.6,1.3-2.9,2.9-3.5
		c1.2-0.5,1.6-1.4,1.7-2.6c0.4-4.4,1-8.9,2.4-13.1c0.4-1.2,0.1-2-0.7-2.9c-4.3-4.9-5.5-10.4-3.3-16.6c1.2-3.5,0.7-7.1,1.1-10.7
		c0.3-2.7-0.6-5.6,0.5-8.2c1.4-3.6,1.8-7.5,3-11.1c1.3-4.1,4.1-7.2,7.7-9.5c1-0.7,1.9-1.3,2.4-2.5c1.4-3.7,4.4-5.3,7.8-6.5
		c1.5-0.5,3.1-0.8,4,0.9c0.9,1.6,0.4,3.2-0.9,4.2c-1.4,1.1-1,1.9-0.3,3.1c0.5,0.8,0.9,0.9,1.7,0.6c1.6-0.7,3.2-1.2,4.4,0.6
		c1.1,1.6,0.2,3.1-0.8,4.5c-0.2,0.2-0.3,0.5-0.5,0.9c2.9,0.4,5.6,0.7,8.3,1.1c0.9,0.1,1.7-0.3,2.4-0.8c1.9-1.3,3.8-1.7,6-0.6
		c1,0.6,1.8,0.3,2.8-0.4c10-7.6,21.7-2.9,27.3,3.8c1,1.2,1.7,2.5,1.8,4c0,1.8,0.9,2.4,2.5,2.7c3.3,0.7,3.6,1.1,3.2,4.5
		c-0.2,1.5-0.5,2.9-0.8,4.4c-0.1,0.7-0.3,1.7-1,1.7c-2.6,0.1-2.4,2-2.5,3.7c-0.2,1.8-1.8,3.8-0.8,5c0.8,0.9,3.2,0.3,4.9,0.7
		c3,0.6,6.1,1,8.1,3.8c0.2,0.2,0.5,0.6,0.7,0.5c2.3-0.6,5.2-0.2,7-1.3c4.5-2.8,9.5-3.5,14.4-4.5c2-0.4,4-0.7,5.9,0.5
		c0.4,0.2,0.7,0.2,1.1,0c4.1-2,8.7-0.6,12.9-1.9c1.2-0.4,2.6,0.2,3.7,1.2c1.1,1.1,1,2.2,0.1,3.3c-0.2,0.3,0,0.6,0.2,0.8
		c1.7,2.2,0.5,4.4-0.3,6.5c-0.4,1.1-1.6,1.2-2.6,1.1c-3.5-0.5-6.8,0.5-10.2,1c-0.8,0.1-1.4,0.5-1.8,1.3c-0.7,1.5-2.1,2.1-3.6,2.4
		c-7.8,1.6-15.5,3.7-22.9,6.8c-2.2,0.9-4.5,1.3-6.9,0.8c-0.9-0.2-1.9-0.3-2.7,0.5c-1.4,1.3-3.1,1.7-4.9,2.1c-2.1,0.4-2.7,1.2-2,3.4
		c0.3,1,0.8,1.9,0.3,2.9c-0.5,1,0.4,1.2,0.9,1.5c5,3,5.2,6.8,0.7,10.8c-1.5,1.4-1.8,4.9-0.6,6.6c6,7.9,5.5,15.6-1.3,22.8
		c-3.5,3.7-7.5,6.7-12.6,7.7c-1.5,0.3-2,1.2-2.2,2.6c-0.7,3.9-0.7,7.9-1.4,11.9c-0.4,2-0.9,3.4-3.1,3.8c-1.7,0.3-2.4,1.5-2.1,3.3
		c0.8,3.7-0.4,7.1-3.1,9.4c-3.1,2.6-2.9,5.8-3.3,9c-0.1,0.9,0,2-0.5,2.7c-1.3,1.8-0.7,3.2,0.4,4.8c0.7,1.1,1.2,2.4,1.5,3.7
		c0.7,2.8,0.5,5.5-1.9,7.5c-2.5,2.1-5.1,1.6-7.8,0.6c-4.2-1.6-6.9-4.4-7.4-9.1c-0.1-1.6-0.7-3.1-1.7-4.3c-1.9-2.3-2.3-5-1.4-7.7
		c1.1-3.1,0.9-6.2,0.9-9.3c0-2-0.4-4.1,1.5-5.6C59.7,162.5,59.6,161.7,59.3,160.8z M117.4,64.4c1.8,0.9,0.5,3,1.7,4.1
		c2-1.8,2.8-1.6,4.1,1.1c0.3,0.6,0.7,1.2,1.1,2.1c0-2-1.1-3.4-0.8-4.9c1.3-0.7,0.3,1.5,1.7,0.9c2.6-1.1,5.4-1.5,8.3-1.3
		c1,0.1,2.2,0,2.9-0.8c2.3-2.6,4.6-1.4,6.9,0c0-1.4-1.2-2.6-0.2-4c1,0.3,0.5,1.8,1.6,1.6c3.1-0.6,6.2-1.3,9.3-2
		c-0.2-1.1-1.6-0.6-1.8-1.8c1.5-0.1,3.1,0.1,3.4,1.4c0.8,2.8,2.5,2.1,4.4,1.9c-0.6-1-2.1,0-2.6-1.3c1-0.7,3-0.4,2.7-2.1
		c-0.3-1.8-2.2-1.6-3.5-1.5c-4.2,0.6-8.6-0.1-12.5,2c-0.4,0.2-0.7,0.3-1-0.2c-1.2-1.8-3-1.4-4.7-1.2c-4.2,0.6-8.2,1.9-12.2,3.1
		c-1.1,0.3-2.2,0.9-2.6,2.1c-0.3,0.7-0.6,0.7-1.2,0.4C120.7,63.1,119,63.6,117.4,64.4c-1.3-0.1-1.8,0.9-2.4,2.3
		c-0.6-2.2-1.1-3.9-3-4.7c-3.2-1.3-6.6-1.9-10-2.2c-0.9-0.1-1.5,0.3-1.9,1.1c-0.5,0.9,0,1.5,0.6,2c1.8,1.7,3.1,3.7,3.2,6.3
		c0.8-0.6,0.7-1.2,0.4-1.8c-0.4-0.9,0.1-1.8,0.8-1.9c2.3-0.3,4.7-1.4,7-0.4c1.7,0.7,2.3,2.2,1.5,3.9c-1,2-0.3,4.4-1.6,6.3
		c-0.2,0.3-0.1,0.6,0.2,0.8c0.5,0.3,0.7-0.1,0.9-0.4c0.2-0.5,0.3-1,0.5-1.6c0.6-2.1,1.2-4.1,2-6.7c1,2.2-1,4.2,1.1,5.6
		C117,70.1,116.7,67.2,117.4,64.4z M81.1,66.7c-5.9-2.4-9.2-8.4-14.9-11.2c2.1,0.3,3.9,1.2,5.3,2.6c3.9,4.1,8.8,6.7,13.9,9
		c2,0.9,4.1,1.2,6.4,1.1c-2.2,0.7-1.6-2.1-3.1-2.3c-7.1-1-12-6.6-18.2-9.5c-2.4-1.1-3.6-3.9-5.2-6c-1.9-2.6-2.4-2.8-5.2-1.1
		c-0.6,0.4-1.3,0.7-1.7,1.3c-1.4,2.2-3.2,3.8-6.5,4.2c2.4,1.2,4.1,2,5.3,3.5c6,7.4,8.5,15.6,5.1,24.9c-1.4,4-6.1,6.3-10.1,5.1
		c-1.4-0.4-4.9-0.8-5.6-1.9c-1.6-2.6-4-2.2-6.3-2.3c-1.6,0-2.2,0.8-2.6,2.2c-0.5,2.3-1.2,4.5-1.2,6.9c0,3-0.2,3,2.9,3
		c3.4,0,4.6,1.4,4.1,4.9c-0.1,0.8-0.1,1.6-0.2,2.3c-0.6,3.4-0.5,7-1.9,10.3c-0.5,1.1,0.2,1.2,0.9,1.3c5.3,1.1,10.2,3.5,15.1,5.8
		c1.9,0.9,4,0.9,6.1,0.5c-4.8-1.9-7.9-6.1-12.2-8.6c2.2,0.2,3.7,2,6.4,2.5c-1.3-1.6-1.7-2.9-0.8-4.4c0.4-0.6-0.3-1.1-0.8-1.5
		c-1.8-1.4-2.5-3.8-4.5-5.2c2,0.5,3.2,2.4,5.6,2.6c-1.3-1.5-2.4-2.9-3.5-4.3c-0.3-0.4-0.9-1.3-0.1-1.2c2,0.3,0.4-1.4,1.2-1.8
		c1.8,1,2.7,2.9,4,4.4c0.6,0.6,0.8,1.3,0,2c-0.5,0.4-0.5,1,0,1.4c0.7,0.6,0.9-0.3,1.3-0.6c2-2,0-4.6,1.1-6.7c0-0.1-0.3-0.3-0.4-0.5
		c-2.7-1.9-3.5-3.4-3.8-7.4c2.5,2.5,3.8,6,7.5,7.1c-2.4-2.3-2-5.7-4.1-8.2c1.2-0.2,2.1,1.1,2.1,0.6c0.2-1.5,2.1-2,1.9-3.3
		c-0.4-2.3,1-3.5,2.4-4.7c0.4-0.4,1-0.5,0.7-1.2c-0.2-0.8-0.6-1.8,0.4-2.3c1-0.4,1.9,0,2.7,0.7c1,0.8,2.9,0.8,3.1,0
		c0.9-2.9,4.9-3.3,5.2-6.9c0.1-1.6,0.1-3.8-1.6-4.4c-1.7-0.7-3-2.7-3-4.5c3.7,0.9,4.5,4.9,7.1,7.4C82.2,70.5,78.5,69.1,81.1,66.7z
		 M36,185.3c-1-2.2,0.3-3.7,0.9-5.3c0.6-1.6,1.2-2.9-1.4-2.8c-0.8,0-0.9-0.8-1-1.4c-0.2-1.7-0.6-3.4-0.3-5.3
		c0.3,0.1,0.5,0.1,0.6,0.2c0.7,1.4,1.5,2.8,2.2,4.1c0.3,0.5,0.7,1.4,1.3,0.7c0.8-0.9,1.8-1.7,2.6-2.6c0.6-0.7-0.5-1.7-0.8-2.5
		c-0.1-0.4-0.4-0.7-0.5-1.1c-0.4-1.6,1.5-4.2,2.8-3.6c2,1,3.9,2.5,5.7-0.3c0.1-0.1,0.3,0,0.5-0.1c2.4-0.8,4,0,4.7,2.5
		c2.9-3.3,2.9-3.3,0.9-4.9c-0.6,0.5-0.2,1.7-1.3,1.7c-1.8,0-3.7-0.5-5-1.3c-1.3-0.8-2-3-1.9-5c0.1-1.8,0.7-3.1,3.2-3.3
		c-2.2-1-4.4-0.7-6.5-2.4c6.5,0.8,12.4,1.5,18.7-0.1c-1.3,1.4-0.4,1.9,0.3,2.6c0.6-1,0.7-2.1,0.9-3.2c0.3-1.3-0.2-1.4-1.4-1.1
		c-2.1,0.6-4.3,1-6.5,0.8c-1.8-0.2-3.7-0.1-5.4-1.1c4.2-0.1,8.5,0.6,12.5-1.4c-3.2-0.2-6.5,0.8-9.8-0.9c1.4-0.9,2.7,0.3,4.1-0.4
		c-1.1-1.8-4.9-2.8-1.5-5.6c-2.1-0.9-4.3-1-6.4-2.8c4.3,0.9,7.8,2.2,11.6,2.3c-1.1-1.3-3.1-0.6-4.5-2.2c2,0.3,3.5,0.5,5.6,0.7
		c-1.4-1-2.1-1.8-3.3-2.1c-0.8-0.2-1.2-0.9-0.4-1.5c0.7-0.5,1.5-1,2.3-1.3c1.6-0.5,2-2.1,0.8-3.7c-1,0.3,0.6,1.8-0.7,1.7
		c-1.2-0.1-1.6,0.8-2.3,1.4c-2.4,2.2-5.3,3.7-8.4,3.6c-3.1,0-6.6,0.5-8.4-3.1c-0.5-1-1.5-1.7-2.3-2.6c0.7,5.2,0,10-1.7,14.7
		c-0.6,1.5-0.9,3.2-1.3,4.8c-0.5,2,0,3.4,2.1,4c1.6,0.5,3.1,1.3,4.4,2.7c-0.7,0.3-1.1,0.1-1.5-0.2c-1.8-1.3-3.1-1-4,1.1
		c-0.1,0.4-0.4,0.7-0.7,1c-6.6,8.7-12,17.9-13,29.1c-0.2,1.8-0.1,3.7,1,5.2c0.9,1.2,1,2.5,1.1,3.9c0.5,6.2,2.7,11.5,8.3,14.9
		c1.6,1,3.2,1,4.9-0.3c-4.6,0.3-4.8,0.2-6.7-4.4c-0.1-0.3-0.4-0.6-0.7-0.9c-1.5-1.3-1.9-3.1-2.8-4.7c2,1.1,2.8,3.2,4.5,4.7
		c0.8-1.2,0.9-2.6,2.1-3.4c1.2-0.8,1.6-2.2,1.8-3.6c0.9-4.6,0.3-5.9-3.2-6.6c1-1.9,3.3-2.8,3.6-5.2c-4.8,1.1-7.1,0-9.3-4.4
		c1.2,0.4,1.8,1.4,2.6,2c1.1,0.9,2.2,1.4,3.7,1.1c0.8-0.1,1.7-0.1,2-1c0.4-1-0.6-1.3-1.1-1.8c-0.9-0.8-1.9-1.5-1.3-3.4
		C33.7,183.5,34.2,184.7,36,185.3z M35,82.5c-0.4-0.5-0.5-0.8-0.6-0.9c-2.4-1.5-2.4-2.6-0.2-4.3c0.9-0.7,1.5-2,3.1-1.7
		c0.2,0,0.8-0.8,0.9-1.3c0.6-4.1,0.8-8.2-1.5-12c-0.4-0.6-0.3-1.2,0.2-1.7c0.5-0.5,1.1-0.4,1.7-0.1c2,1.2,3.5,0.5,3.6-2
		c0.1-3.5,1.4-6.9,0.9-10.5c-5.7,2.7-10.1,1.8-12.4-0.1c3.2,0.5,8.8,0.2,11.1-1.9c-3.1-0.1-5-4.9-5.9-6c-0.7-0.8-1.1-2,0.4-2.7
		c0.9-0.5,2.3-1.1,2-2.2c-0.3-1.1-1.8-0.4-2.8-0.6c-0.1,0-0.1-0.1-0.3-0.4c2.8-0.7,5.3-0.5,7.9,1.8c-0.6-1.7-0.9-2.6-0.1-3.7
		c1.3-1.8,0.6-3.3-1.8-3.7c-1.2-0.2-2.4,0-3.5,0c2.1-1.4,4.2-0.9,6.3-0.3c2.2,0.7,3.4,2.3,3.8,4.6c2.2-1.8,0.6-2.9-0.5-4.1
		c-1.3-1.5-3.6-2.5-1.4-5.1c0.9-1-0.4-1.5-1.4-1.7c-1.1-0.2-2.4,0.3-3.7-0.6c1.3-0.8,2.5-0.5,3.6-0.8c0.4-0.1,1.3,0.1,1.1-0.4
		c-0.6-2.1,1.6-2.7,2.5-4.7c-3.7,1.4-6.7,2.7-8.7,5.6c-0.9,1.4-1.9,2.6-3.4,3.5c-1.3,0.9-2.6,2.1-3.6,3.4c-3.5,4.3-5.9,8.9-2.8,14.6
		c0.2,0.3,0.4,0.8,0.2,1.1c-0.8,1.8,0.5,2.7,1.4,3.8c0.4,0.4,1.1,0.5,1,1.5c-3.8-1.3-4.3-4.6-4.6-8.2c-1.7,1.7-1.8,3.3-1.8,4.8
		c-0.3,6.6-0.3,13.2-2.1,19.7c-1.5,5.4,1,10.4,4.5,14.7C29.9,81.8,32,82.5,35,82.5z M70.2,161.8c-2.4-0.8-4.4-1.9-6.2-3.2
		c-0.7-0.5-1.3-1.7-2.4-0.8c-0.9,0.8-1.4,1.8-0.9,3.1c0.3,0.9,0.7,2.1-0.2,2.9c-1.7,1.6-1.6,3.6-1.7,5.7c0,3.1,0.4,6.2-1.1,9.2
		c-0.7,1.4-0.3,3,0.5,4.3c1.6,2.3,2.3,4.9,2.9,7.6c0.4,1.7,1.1,3.3,2.2,4.6c1.5,2,3.6,3,6.1,3.1c0.9,0,1.5-0.3,0.6-1.2
		c-1.7-1.8-1.5-3.6-0.5-5.6c0.3-0.6,0.9-1.3,0.5-2.2c-0.3,0.1-0.6,0.2-0.9,0.4c-0.8,0.4-1.1-0.4-1.4-0.8c-0.3-0.4-0.5-0.9,0-1.3
		c0.4-0.3,0.7-0.6,1.3-0.5c0.4,0.1,0.7,1.5,1.3,0.2c0.2-0.5,0.7-1.2,0.2-1.8c-0.5-0.5-1.1-0.5-1.7-0.2c-2.3,1-4.3,0-6.3-0.7
		c-1.5-0.5-2.3-2-2.4-4.3c1.5,3.1,4,3.7,6.5,4.3c1,0.2,2.5,0.3,2.6-0.9c0-1.7,1.3-2.3,2.6-3.3c-1.2-0.1-2-0.2-2.7-0.1
		c-2.4,0.2-4.7-2.8-3.4-4.8c1.4-2.1,1.5-4.3,1.8-6.6c0.1-0.9,0-1.5-0.6-2.1c-1.7-1.5-2.4-3.4-2.8-5.9c1.1,0.6,2.3-0.4,2.9,0.7
		C67.7,163.5,68.8,162.8,70.2,161.8z M101.7,112.4c-0.7,1.9-1.4,3.7-4.1,3.1c-0.7-0.2-0.9,0.7-1.2,1.3c-0.4,1.1-0.9,2.2-1.3,3.3
		c-0.5,1-1.1,2.2-2.4,2c-2.9-0.4-2.9,1.5-3,3.5c0,1.8,0.2,3.6,0.7,5.3c0.3,1.1,0.6,2.1,0.3,3.2c-0.6,2,0.4,2,1.8,1.4
		c5.3-2.4,9.5-6,12-11.4C105.9,120.8,104.5,115,101.7,112.4z M95.5,30.4c-6.2-5-16.4-5.5-22.3-1.1c-1.4,1-2.4,1.9-4.2,0.9
		c-1-0.5-2.3-0.1-3.3,0.5c-2.4,1.4-3.3,3.7-3.8,6.2c-0.6,2.7-1.1,5.4-1.5,8.1c-0.1,0.7-0.8,1.6-0.1,2.2c0.7,0.6,1.6,0,2.5-0.2
		c1.3-0.2,1.4-1.2,1.7-2.2c0.9-3.2,1.7-6.3,2.8-9.5c0.9-2.7,1.8-3.1,4.6-2.7c2,0.3,3.9,1,5.7,2c0.8,0.4,1.4,0.6,2.1,0
		C84,31.1,89.2,29.6,95.5,30.4z M67,144.1c2.4,1.6,3.1,3.9,5,5.4c0.6-5.6,4.2-8.4,9-9.8c-1.5-1-2.8,0.1-4.2,0.6
		c-0.5-1,1.5-1.3,0.3-2.1c-2.3-1.5-4.7-2.8-7.1-4.3c-0.3,1.5,2,2.3,0.9,3.5c-0.7,0.7-2.2,0.6-3.7,0.8c1.6,0.9,1,2,0.3,2.6
		c-1.9,1.8-2.3,4.2-2.6,6.6c-0.3,2.7-0.8,5.4-1.8,8c-0.2,0.5-0.3,1.1,0.3,1.4c3.1,1.7,6.4,3.2,9.8,4.2c-3.7-1.5-5.1-4.9-6.9-7.9
		c1-0.4,1.3,0.2,1.9,0.4c1.4,0.5,2.6,0.2,3.4-1.2c0.9-1.5-0.3-1.9-1.2-2.5C68.5,148.7,67.8,146.8,67,144.1z M42.7,121.3
		c4.1,2.5,7.7,5.5,11.3,8.5c0.5,0.4,1,1.4,1.7,0.6c0.6-0.6-0.2-1.1-0.6-1.5c-0.7-0.9-1.5-1.6-1.8-3c1.3,0.4,1.7,1.7,2.6,2.2
		c0.1-0.8-0.9-1.4-0.3-2.5c0.3,0.5,0.4,0.8,0.7,1c0.6,0.5,0.7,1.8,1.9,1.3c0.5-0.2,1-0.7,0.9-1.3c-0.3-1.1-1.3-0.9-2.1-1.1
		c-2-0.6-4-1-5.9-2.3c1-0.6,1.7,0.4,2.7,0c-3.5-1.6-7-2.6-10.5-3.8c-1.7-0.6-3.2-0.4-4.8,0c-1.4,0.3-1.5,1.3-1.6,2.3
		c0,1.1,0.6,2.1,1.6,2.4c1.3,0.4,1.4-0.8,1.8-1.7c0.1-0.2,0.3-0.4,1,0.1c-1.8,5.3-0.7,9.7,5.6,11.7c0.1-1.7-1.1-2.9-0.7-4.6
		c1.5,0.4,1.6,1.7,1.9,2.8c0.3,0.9,0.4,2.1,1.7,1.7c1.3-0.4,2.7-0.8,3.6-2c0.1-0.1-0.1-0.6-0.3-0.8c-2.5-1.9-4.8-4.1-7.2-6.4
		c-0.1,1.1,0.7,1.6,0.2,2.6C44.1,125.9,43.9,123.3,42.7,121.3z M27.2,101.7c-0.4-1.3-0.8-2.7-2.5-2.6c-1.7,0.2-2.7,1.2-3.1,2.8
		c-0.5,2.1-0.7,4.3-1.4,6.4c-1.8,5.2-1,9.6,3.5,13.1c0.1,0.1,0.2,0.2,0.3,0.4c0.4,0.3,0.7,1,1.3,0.8c0.6-0.3,0.4-1,0.4-1.5
		c0-0.5,0-0.9,0.1-1.4c0.7-4.2-0.2-8.9,3.6-12.2c1-0.9,0.4-2-0.9-1.7c-1.3,0.2-2-1.1-3.5-0.6c-0.8,0.3-2.2-2.9-1.8-3.8
		C24.3,99.3,25.5,99.5,27.2,101.7z M30.7,105.4c0.6-6,1-11.5,2.2-16.9c0.3-1.4,1.2-2.8,1-4c-0.4-1.6-2.6-0.9-3.8-1.8
		c-1.6-1.3-1.9-0.2-2.1,1.1c-0.7,4.2-1.1,8.5-2.3,12.6c-0.2,0.5-0.3,1.2,0.2,1.5C28.2,99.7,28.7,102.7,30.7,105.4z M71,33.6
		c-1.5-0.1-2.2,0.1-2.6,0.9c-1,2-1.4,4.1-1.7,6.3c-0.1,0.8,4.1,3.6,5,3.4c0.7-0.2,0.7-0.8,0.8-1.3c0.4-1.6,0.8-3.3,1.3-5
		c1.1-3.6,0.9-3.9-2.9-4.3C70.7,33.5,70.5,33.5,71,33.6z M56.6,68.2c0.8-1.3,0.6-3,2.2-3.4c0.1,0,0.2-0.8,0-1.1
		c-1.5-3-3.4-5.8-6.4-7.5c-1-0.6-1.6-0.4-1.7,0.9c-0.2,2.8-0.1,5.5,2.7,7.2C54.8,65.1,55.7,66.5,56.6,68.2z M69.8,54.4
		c0.4-2.1,0.8-3.7,1-5.3c0.4-3.5-0.1-4.3-3.3-5.9c-1.1-0.6-1.4-0.3-1.8,0.8C63.9,48.4,66.8,51.1,69.8,54.4z M74.3,101.7
		c-0.2,1.1-0.3,1.9-0.5,2.7c-0.2,1-0.1,2,0.9,2.1c1.3,0.2,0.7-1.1,0.8-1.7c0.7-3.8,1-4.1,5-4.2c3.3-0.1,3.3-0.1,4.9-2.2
		c0.5-0.6,0.4-1.2-0.1-1.7c-0.3-0.3-0.8-0.6-0.9,0c-0.7,3.1-3.1,2.1-4.9,2.1c-3.5,0.1-3.6,0-4,3.4c0,0.3,0.2,0.9-0.3,0.9
		C74.5,103.1,74.7,102.4,74.3,101.7z M48.4,53.1c0.8-4.7,0.1-12.3-1.2-13.7C45.7,44,46.8,48.4,48.4,53.1z M99.5,34.1
		c-3.8-3.3-7.9-2.9-12-2.3c-3.8,0.6-8.2,3.5-8.7,5.3C85.1,32.6,91.6,30.3,99.5,34.1z"/>
	<path d="M74.7,71.9c1.4,0.2,2.5,1.1,2.6,2.9c0,0.7-0.3,1.3-0.8,1.9c-1,1.3-3,1.8-4,1.8c-2,0.1-1.1-2.3-1.2-3.6
		C71.1,73.2,72.7,71.8,74.7,71.9z"/>
	<path d="M57.6,53.9c6.1,1.1,10.1,5.9,15.5,8.3C66.7,61.6,63,56.2,57.6,53.9z"/>
</g>
</svg>
