<?xml version="1.0" encoding="utf-8"?>
<!-- Generator: Adobe Illustrator 22.0.1, SVG Export Plug-In . SVG Version: 6.00 Build 0)  -->
<svg version="1.1" id="Layer_1" xmlns="http://www.w3.org/2000/svg" xmlns:xlink="http://www.w3.org/1999/xlink" x="0px" y="0px"
	 viewBox="0 0 203.2 178.9" style="enable-background:new 0 0 203.2 178.9;" xml:space="preserve">
<g>
	<path d="M92.3,117.3c0.2,1.2,0.7,2.4,0.6,3.6c-0.4,4.2,0.8,8.3,1,12.5c0.1,1.6-0.7,2.8-1.8,3.8c-1.7,1.5-3.6,2.5-5.6,3.4
		c-3.2,1.5-6.4,3-9.4,4.9c-0.8,0.5-1.2,1-1.5,1.9c-0.9,2.8-2.1,5.4-3.2,8.1c-0.1,0.3-0.3,0.6-0.5,0.7c-2.3,1.1-4.8,1.1-7.1,0.3
		c-1.8-0.6-2.1-2.3-2.1-4.1c0-1.9,0.3-3.6,0.8-5.4c0.6-2.2,1.2-4.4,1.5-6.8c0.1-1.6,1.3-2.8,2.3-3.9c2-2.3,4.4-4.3,6.9-6
		c1.5-1.1,2-2.4,1.9-4c-0.3-3.5-1.5-6.8-3-9.9c-0.4-0.9-0.9-0.6-1.5-0.3c-1.6,0.8-3,1.9-4.3,3.1c-3.5,3.5-7.8,5.4-12.4,6.8
		c-4,1.2-8,2.2-11.8,4c-3.5,1.7-7.4,1.7-10.8,3.5c-1.8,0.9-4.3,0.7-6.5,0.9c-0.9,0.1-1.6,0.2-2.2,0.9c-1.4,1.7-2.9,3.3-4.3,4.9
		c-3.3,3.9-6.9,2.6-10-0.2c-0.9-0.9-0.9-2.1-0.6-3.3c0.6-2.3,1.8-4.3,3.2-6.1c0.6-0.9,1.6-1.6,1.5-2.8c0-0.2,0.3-0.6,0.5-0.7
		c2.1-0.7,3.3-2.5,4.8-3.9c1.2-1.1,2.6-2,4.1-2.7c3-1.5,6.1-2.8,9.2-4.1c3.3-1.3,6.6-2.8,9.9-4.3c0.6-0.3,4.2-3.3,5.1-4.2
		c3.5-3.7,6.7-7.7,10.5-11.2c1.3-1.2,1-2.2-0.6-2.7c-0.4-0.1-0.8-0.2-1.2-0.3c-2.7-0.9-2.9-1.4-2.3-4.1c0.8-3.7,1.6-3.8-2.7-3
		c-5.4,1-10.7,2.4-16.1,3.5c-1.6,0.4-3.3,0.5-4.8-0.3c-0.9-0.5-1.3,0-1.9,0.5c-1.8,1.8-3.5,3.6-5.3,5.4c-0.3,0.3-0.7,0.5-1.1,0.5
		c-0.6-0.1-0.8-0.5-0.8-1.1c-0.1-0.7-0.2-1.4-0.1-2c0.2-1.3-0.4-2.3-1.4-2.7C17,89.9,15,89,13,89.3c-1.4,0.2-2-0.6-2.5-1.6
		c-0.5-1.1-0.6-2.1,0.5-2.9c1.5-1.1,3.1-1.8,5-2.1c2.7-0.3,5.5-0.4,8.2-0.1c1.9,0.2,3.7-0.1,5.4-1.2c3.5-2.1,7.3-3.7,11.1-5.3
		c5.4-2.2,10.5-4.9,15.6-7.7c1.1-0.6,1-1.6,1.2-2.5c1-4.4,2.4-8.6,4.7-12.4c0.4-0.6,0.7-0.8,1.4-0.7c1.4,0.1,2.9,0.6,3.6-1.3
		c0.2-0.6,1-0.9,1.6-0.8c1.6,0.3,2.1-0.8,2.6-1.9c1.7-3.6,3.4-7.3,5.1-10.9c0.3-0.7,0.4-1.4,0.4-2.1c0-0.7,0.4-1.3,1.3-1.3
		c0.8,0.1,1.3,0.6,1.5,1.4c0.2,0.8-0.2,1.4-1,1.4c-1.5,0.1-1.9,1.1-2.4,2.2c-1.7,3.7-3.4,7.4-5.1,11.2c1.6,0.5,3.3,0.7,3,3
		c-0.1,0.7,0.6,0.5,0.9,0.4c2.1-0.4,4.1-0.4,6.2-0.2c1.5,0.1,1-0.9,1.1-1.6c0.7-6.8,3.6-12.5,9-16.7c3.2-2.5,6.7-4.4,10.9-4.9
		c3.8-0.5,9.8,1.1,12.7,3.7c2.5,2.2,5.3,4.3,5.8,7.9c1.1,8.4-0.5,16.3-5,23.5c-0.3,0.5-1.2,0.9-0.7,1.7c0.5,0.8,1.3,0.3,2,0.1
		c4.4-1,7.9-3.6,11.1-6.7c3.9-3.8,7.9-7.5,13.2-9.3c0.7-0.2,0.9-0.8,1.2-1.3c0.9-1.7,1.8-3.5,2.6-5.2c1.1-2.4,3-4.1,4.9-5.8
		c1-1,2.3-1.1,3.6-0.4c1.6,0.8,1.6,1.5,0.9,3.1c-1.3,2.9-1.8,6-1.5,9.1c0.1,1.3,0.8,2.6,2.7,2.6c1.2,0,2.1,0.8,2,2.2
		c-0.1,1.3-1.2,1.4-2.2,1.4c-2.6,0-4.9,1.4-7.5,1c-0.6-0.1-0.7,0.4-0.9,0.8c-1.1,2.4-2.8,4.3-4.6,6.1c-5.1,4.9-10.1,10-15.4,14.6
		c-2.6,2.3-5.6,4-8.7,5.2c-3.8,1.4-7.9,2.1-11.8,2.9c-1.2,0.3-2,0.8-2.7,1.9c-2.2,3.4-4.6,6.7-6.9,10.1c-1.3,1.9-2.1,3.7-1,6.1
		c0.9,2-1.7,4.8-3.9,4.4c-0.5-0.1-1-0.5-1.3,0.1c-0.2,0.5,0.3,0.9,0.6,1.3c2.7,3.9,6.1,5.3,10.8,4.2c6.3-1.4,11-5.4,15-10.2
		c3.2-3.9,4.9-8.7,7.9-12.7c5.5-7.5,11.6-14.4,21.7-14.9c8.9-0.5,17.5,1.3,25.5,5.5c4.6,2.4,8.6,5.6,10.9,10.5
		c2.4,5,2.6,10.3,1.5,15.5c-0.8,4-4.4,5.1-7.7,6.2c-1.1,0.4-2.3,0.8-3.4,0.6c-1.7-0.3-1.6,0.7-1.9,1.8c-0.8,3.6-1.5,7.2-3.6,10.3
		c-0.6,0.8-0.4,1.2,0.6,1.4c1.9,0.3,3.8,0.9,5.7,1.2c3.2,0.4,4.7,2.3,5.2,5.2c0.2,1.2,0.6,2.3,1.3,3.4c1,1.8,0.7,2.6-1.2,3.4
		c-8.7,3.6-17.4,7.2-26.7,9.5c-7.5,1.8-14.8,4.4-22,7.3c-1.5,0.6-3,0.9-4.5,1.6c-2,0.9-3.5,0.5-4.8-1.1c-1.2-1.6-2.2-3.3-1.3-5.4
		c1-2.1,2-4.2,3.1-6.2c1-1.9,1.9-3.8,3.1-5.6c2.6-3.7,3.5-7.2,1.3-11.6c-1.7-3.3-0.1-6.6,3.2-8.8c1-0.7,1.2-1.3,1-2.4
		c-1.3-6-2.3-12-2.5-18.1c0-1.7-0.1-3.4,0.5-5.1c0.4-1.2,0-2.3,0.1-3.4c0.1-0.7,0-1.5,0.7-1.7c0.8-0.3,1.2,0.4,1.6,1
		c0.6,0.9,1.3,1.4,2.3,1.7c1.8,0.5,3.2,1.8,4.2,3.3c3.7,5.6,8.2,10.8,10.7,17.2c0.3,0.8,0.9,0.9,1.6,0.9c4.9,0.6,5.7,1.4,7,6.1
		c0.4,1.5,0.9,3.1,1.2,4.6c0.2,1.1,0.9,1.4,1.9,1.8c2.5,0.9,3.7-0.5,4.8-2.3c1.8-2.7,3.1-5.7,3.9-8.8c0.2-0.9,0.1-1.4-1-1.6
		c-2.1-0.3-4-1-5.7-2.4c-1.7-1.4-2.8-3.2-2.9-5.5c-0.1-1.6-0.2-3.2-0.3-4.8c0-1.9,0.6-3.5,2.4-4.4c1.9-1,3.6-0.3,5,1
		c2,1.6,3,3.8,3.5,6.3c0.2,0.9,0.3,1.8,0.3,2.7c0.3,4-0.5,3.9,4.1,3.1c1-0.2,2-0.5,3-0.8c4.7-1.7,6.4-5.3,5.2-10.4
		c-1.3-5.7-5.2-9.6-10.1-12.5c-9-5.2-18.7-7.2-29-6.2c-5.3,0.5-9.4,3.8-13.2,7.4c-5,4.8-8,11-11.6,16.8
		c-4.6,7.3-10.8,12.6-19.6,13.9c-2.2,0.3-4.5-0.3-6.3-1.8C93.6,117.9,93.1,117.4,92.3,117.3z M51.3,110.6c-0.3-0.1-0.6-0.2-0.8-0.4
		c-0.9-0.5-1.5-2-2.6-1.7c-0.9,0.3-1.6,1.4-2.4,2.2c-0.2,0.2-0.3,0.4-0.5,0.5c-0.6,0.4-0.5,0.9-0.3,1.4c1.2,2.7,2.1,5.6,2.9,8.4
		c0.2,0.8,0.5,0.9,1.3,0.5c3-1.4,4.4-0.9,6.2,1.9c0.2,0.4,0.3,1.1,1,0.8c1.8-0.7,3.7-1.2,5.5-2.3c-3.5-2.9-6.2-6.4-9.1-9.6
		c-0.5-0.6-2-2.1-2.2-2.9c2.9,2.7,6.2,6.8,9,9.6c2.6,2.6,2.7,2.6,5.5,0.3c0.2-0.2,0.5-0.4,0.7-0.6c1.4-0.9,1.4-2,0.4-3.2
		c-1.1-1.3-2.4-2.5-3.7-3.6c-3.2-2.7-6.8-5-9.6-8.1c-0.2-0.2-0.4-0.6-0.7-0.3c-1.1,1.2-2.4,2.4-3.2,3.8c-0.4,0.7,1.1,1.1,1.5,1.8
		C50.6,109.8,51,110.1,51.3,110.6z M155.9,146.3c0.8-0.2,1.5-0.6,2.3-0.6c2,0,2.6-1.1,2.5-2.9c0-0.4,0-0.7,0-1.1
		c0.5-7.2-1.8-13.8-3.7-20.6c-0.9-3.2-2.8-4.3-6.3-3.8c2.3,6,3.7,12.2,4.9,18.5C156.4,139.3,157.3,142.8,155.9,146.3
		c-1.4,0.1-2.8,0.2-4.1,0.3c-0.5,0.1-1.1,0-1.5,0.5c-0.1,0.1,0.1,0.5,0.2,0.6c0.5,0.6,1,0,1.5-0.1
		C153.3,147.2,154.5,146.4,155.9,146.3z M78.3,57.3c-0.8,0.3-1.3-0.1-1.9-0.2c-5-1.4-5.9-0.6-5,4.6c0,0.1,0,0.1,0,0.2
		c0.1,0.4,0.1,0.8,0.6,0.7c0.4,0,0.8-0.1,1-0.6c0.9-2.2,3.2-2.6,5-0.9c2,1.9,2.4,4.5,3,6.9c0.4,1.4-0.7,2.3-1.2,3.3
		c-2.7,4.9-5.6,9.7-9.1,14.1c-1,1.2-2.1,2-3.8,1.5c-1.9-0.6-3,0.3-3.7,2c-1.4,3.1-1.3,3.8,1.3,6c0.5,0.4,1.1,0.8,1.6,1.2
		c7.9,5.2,16.5,9.2,25.1,12.9c1.2,0.5,2,0.6,2.8-0.4c0.8-1,1.7-2,0.6-3.4c-0.6-0.8-0.5-1.7-0.2-2.5c0.4-1,0-1.3-0.8-1.7
		c-4.2-2.3-8.4-4.6-12.6-7c-3-1.7-3.4-3-2-6.2c1.4-3.1,2.8-6.2,4.2-9.3c2.2-4.7,3.2-5.2,8-3.2c0.9,0.4,1.5,0.4,2.1-0.6
		c0.7-1.2,2,0,2.9-0.6c-0.3,1.2,2,1.3,1.3,2.7c-0.3,0.6-0.4,1.1,0.4,1.4c0.7,0.2,1.3,1,2-0.2c0.6-1.1,2-0.2,2.8-0.9
		c0,1,1.3,1.4,1.1,2.5c-0.5,2.2,1.6,1.6,2.4,2c1,0.5,1-0.9,1.1-1.4c0.4-3.3,2.1-5.6,5.1-7.1c0.5-0.3,1-0.7,1.4-1.1
		c0.7-0.7,1.1-1.6,0.7-2.7c-0.3-0.9-0.7-1.3-1.6-0.5c-4.5,4.1-10,4.4-15.7,3.6c-7.9-1.1-13.9-9-14.8-15.6c-0.1-1.1-0.5-1.9-1.7-1.9
		c-2.5,0-5-0.1-7.7,0.6C75.1,56.3,76.9,56.1,78.3,57.3z M89.1,86.8c0.1-1.1,0.4-2,1.6-2.2c1.1-0.2,2,0.4,2.2,1.5
		c0.2,1.2-0.6,1.9-1.6,2.4c-0.6,0.2-1.3,0-1.7,0.8c-0.9,1.8-1.9,3.5-2.9,5.3c-0.4,0.6-0.3,1,0.4,1.3c2.3,1.3,4.6,2.7,7,4
		c1,0.6,1.8,0.4,2.4-0.7c0.8-1.4,1.8-2.6,2.7-3.9c2.6-3.6,5.1-7.3,7-11.3c0.3-0.7,0.7-1.2-0.4-1.7c-4.6-1.9-9.2-3.9-13.8-5.9
		c-1-0.5-1.5-0.2-2,0.7c-2.6,4.2-5,8.5-7.1,13c-1.5,3.1-1.2,3.6,2,4.7c0.4,0.1,0.9,0.4,1.1-0.2C86.9,92,89.4,89.9,89.1,86.8z
		 M151,121c-0.4,2.1,0,3.6,0.4,5.1c0.7,2.8,1.3,5.6,1.1,8.5c-0.4,5.8-0.6,6-6.5,6.9c-2.8,0.4-3.6,0-4.8-2.5
		c-2.1-4.4-3.9-8.9-6.2-13.3c-0.9-1.7-1.3-3.6-1.3-5.5c0-3,0.4-6.2,3.6-7.4c3.6-1.4,6.8-1.9,9.9,1c0.3,0.3,0.5,0.7,1.2,0.7
		c-2.1-4.5-4.7-8.4-7.6-12.1c-0.7-0.9-1.8-1-2.8-0.8c-2.7,0.5-4.7,2.1-6.9,3.6c-0.3,0.2-0.5,0.6,0.1,0.8c0.3,0.1,0.8,0.1,0.4,0.5
		c-1.1,0.8-0.5,1.8-0.4,2.6c0.9,5.4,1.7,10.8,2.9,16.2c1.5,7.1,2.8,14.3,6.8,20.5c1.4,2.2,1.8,2.6,4.3,1.7c2.9-1.1,5.8-1.7,8.8-1.9
		c1.1-0.1,1.6-0.7,1.6-1.8c0-2.9-0.5-5.8-1.1-8.7C153.6,130.4,152.7,125.9,151,121z M67.4,117.4c1-0.6,1.8-1.2,2.7-1.7
		c2.6-1.6,3-1.5,4.1,1.3c0.5,1.5,1.3,1.6,2.6,1.2c3.7-1,7.3-1.8,11.1-2.5c0.6-0.1,1.7,0.3,1.5-1c-0.1-1-0.1-2-1.7-2
		c-0.9,0.1-1.9-0.3-2.8-0.6c-5.1-1.6-9.9-3.9-14.5-6.4c-4.1-2.2-8.4-4.3-11.7-7.8c-0.7-0.7-0.9-0.2-1.3,0.2
		c-1.2,1.2-2.4,2.5-3.7,3.6c-1.1,1-0.9,1.7,0.1,2.7c2.4,2.1,5,4,7.4,6C63.6,112.3,66.2,114.2,67.4,117.4z M160.7,147.3
		c0.7-0.3,1.1-0.4,1.4-0.5c5.1-2,9.9-5.1,15.3-6.4c0.6-0.2,1.1-0.5,1.3-1.2c0.9-2.3-1.1-6.5-3.5-7c-3.9-0.8-7.7-1.6-11.6-2.4
		c-3.2-0.6-3.2-0.6-2.5,2.5C162.2,137.3,162.2,142.2,160.7,147.3z M130.6,138.9c-0.7,0.1-0.8,0.5-0.9,0.8c-2.4,4.4-4.8,8.8-7.2,13.1
		c-0.5,0.9-0.9,1.7-1.2,2.7c-0.6,1.9,0.8,4.2,2.4,3.8c5.4-1.4,10.3-3.8,15.5-5.8C135.6,148.8,132.1,144.4,130.6,138.9z M87.3,111.9
		c1.3,0.2,1.8-0.9,2.1-1.7c0.4-0.9-0.6-1-1.2-1.3c-6.7-2.9-13.1-6.5-19.5-10.1c-2.2-1.2-4.2-2.7-6-4.4c-1.3-1.3-1.4-1.3-2.4,0.2
		c-0.1,0.1-0.2,0.2-0.3,0.2c-2.2,0.7-0.8,1.9-0.3,2.8c0.3,0.6,1.1,1.1,1.8,1.5c5.5,3.4,10.9,6.9,16.9,9.5
		C81.3,109.8,84.2,111,87.3,111.9z M143,149.2c-0.9-0.5-1.6-0.9-2-1.6c-1.6-2.4-3.2-4.8-4.1-7.5c-1.7-5.2-3.1-10.4-4-15.7
		c-0.2-1.2-0.6-1.3-1.5-0.6c-2.6,1.8-3.6,4.8-2.6,7.7c1,2.7,1.9,5.4,2.9,8.1c1,2.7,2.2,5.4,3.9,7.8
		C138.5,150.9,138.5,150.9,143,149.2z M88.9,116.3c-4.4,0.6-8.6,1.6-12.8,2.6c-0.9,0.2-0.8,0.7-0.6,1.3c0.7,2,1.1,4,1.2,6.1
		c0,0.8,0.2,1,1.1,0.9c4.4-0.6,8.4-2.5,12.7-3.3c0.6-0.1,1-0.3,0.8-1.1c-0.5-1.9-0.9-3.8-1.3-5.7C89.8,116.5,89.5,116.2,88.9,116.3z
		 M62.7,66.8c-1.4,0.6-2.9,1.2-4.4,1.8c-1.2,0.4-1.7,0.9-1.1,2.3c0.7,1.5,0.9,3.1,1.3,4.7c0.5,2.2,1,4.5,1.6,6.8
		c0.2,0.8,0.5,1.3,1.5,0.9c1.8-0.7,3.7-1.2,5.5-1.8c0.5-0.1,0.7-0.4,0.5-0.9c-1.6-4.3-2.6-8.7-4-13.1C63.5,67.2,63.4,66.7,62.7,66.8
		z M138.4,130c1.4,3.1,2.6,6,3.9,8.9c0.6,1.3,1.5,2,2.9,1.7c2.1-0.6,4.7,0,6-2.4c0.1-0.2,0.1-0.4,0.1-0.5c0.3-3.8,0.2-7.6-0.9-11.4
		C146.1,131.5,144.6,132,138.4,130z M41.8,129.1c1-0.3,2.1-0.7,3.1-1c0.4-0.1,0.4-0.4,0.4-0.7c-0.3-1.7,0.4-3,1.5-4.1
		c0.5-0.5,0.2-1,0.1-1.5c-0.7-2.8-2-5.5-2.9-8.3c-0.4-1.2-0.8-1-1.7-0.6c-1.5,0.8-3,1.5-4.6,2.1c-1.1,0.4-1.3,0.9-0.9,2
		c1.5,3.7,3.2,7.4,4.2,11.3C41.1,128.8,41.1,129.2,41.8,129.1z M87.6,41.3c2.1-0.4,3.9-0.2,5.3,1.4c0.6,0.7,0.9,0.1,1.3-0.3
		c1.6-1.6,3.5-2.9,5.4-4.1c1.7-1,3.5-1.3,5.5-0.8c2.1,0.5,2.3,0.3,2-1.8c-0.1-0.7-0.3-1.4-0.6-2.1c-0.6-1.7-1.6-2.3-3.5-2
		c-2.7,0.5-5.3,1.1-7.6,2.5C92.4,36,89.4,37.8,87.6,41.3z M74.3,77.5c-0.7-2.7-1.7-5.7-2.8-8.7c-1.8-4.9-1.8-4.9-6.6-2.8
		c-0.1,0.1-0.2,0.1-0.3,0.1C64,66.3,64,66.6,64.1,67c1.3,4.3,2.5,8.6,3.8,13c0.1,0.4,0.4,1,0.8,0.9c1.6-0.3,3.4-0.5,4.9-1.3
		C74.1,79.3,74.5,78.6,74.3,77.5z M149.7,42.3c-0.8,0-1.6-0.2-2.1,0.7c-1.3,2.4-2.5,4.9-3.8,7.3c-0.3,0.6-0.3,0.8,0.4,1
		c1.8,0.6,2.8,2.1,3.1,3.8c0.4,2,1.6,2.1,3.2,1.9c0.5-0.1,1-0.1,1.4-0.2c1.8-0.4,2.5-1.6,1.4-3c-1.4-1.9-1.3-4-1-6.1
		c0.1-1,0.3-1.9,0.5-2.9c0.4-1.5-0.3-2.2-1.7-2.4C150.7,42.4,150.2,42.4,149.7,42.3z M54,85.1c1.3-0.3,3-0.6,4.8-1
		c0.9-0.2,1.2-0.6,0.8-1.5c-0.8-2.1-1.1-4.2-1.6-6.4c-0.3-1.6-0.7-3.1-1.1-4.6c-0.6-2.1-0.8-2.1-2.6-1.1c-1.2,0.7-2.5,1.3-3.7,2
		c-0.5,0.3-1,0.4-0.7,1.2c1.4,3.4,1.9,6.9,2.7,10.4C52.7,84.8,52.8,85.4,54,85.1z M40.5,128.9c-0.1-0.5-0.2-0.9-0.4-1.4
		c-0.9-2.5-1.8-4.9-2.8-7.4c-0.5-1.4-0.8-3.4-1.8-3.8c-1.2-0.6-2.7,0.9-4.2,1.4c-1.2,0.4-1.4,0.8-0.9,2.1c1.6,3.5,3.2,7,3.5,10.9
		c0.1,0.7,0.4,0.8,1,0.6c1.6-0.5,3.3-1,4.9-1.5C40.2,129.6,40.6,129.5,40.5,128.9z M14.2,85.7c0.2,1.3,0.1,3,2.1,3.1
		c2.7,0.1,4.4,1.5,5.6,3.7c0.6,1.1,1.3,1.1,2.1,0.2c1.1-1.2,2-2.6,3.3-3.6c0.3-0.2-0.7-5.4-1-5.5c-0.2-0.1-0.4-0.1-0.5,0
		c-3.3,0.1-6.7-0.2-10,0.3C14.5,83.9,14,84.5,14.2,85.7z M119.6,69c0.1,2.6,1.5,4.7,1.8,7.1c0.1,1,0.4,1.3,1.4,1
		c1.1-0.3,2.4-0.4,3.4,0.4c1.1,0.9,1.8,0.5,2.6-0.4c0.5-0.5,0.9-1,1.5-1.4c1-0.7,0.8-1.3,0.1-2.1c-1.2-1.5-2.3-3.1-3.5-4.7
		c-2.4-3.1-2.7-3.1-6.1-1.5C119.9,67.8,119.3,68.2,119.6,69z M75,77.5c1.4-2.3,2.4-4.4,3.7-6.2c2.2-2.9,1.1-5.6-0.3-8.3
		c-0.4-0.8-1-1.2-1.9-0.8c-1.8,0.8-3.7,1-5.4,2c-0.4,0.2-0.8,0.2-0.5,0.8C72.3,68.9,73.6,73,75,77.5z M33.4,131
		c-0.1-1-0.1-1.5-0.2-1.9c-0.5-2.1-1.2-4.1-2-6.1c-2-4.8-2-4.8-6.6-2.4c-0.1,0-0.1,0.1-0.2,0.1c-0.9,0.2-0.9,0.8-0.7,1.6
		c1,2.5,1.9,5,3,7.5c1.6,3.4,2,3.4,5.5,2.3C33.1,131.7,33.5,131.3,33.4,131z M129.7,61c2.2,1.1,3.8,2.8,5.1,4.8
		c0.5,0.7,1,1.4,1.4,2.1c0.6,1,1.1,1,1.9,0.2c1.1-1.2,2.2-2.2,3.4-3.3c0.6-0.5,0.8-1,0.4-1.8c-1.4-2.6-3.2-4.8-5.6-6.4
		c-0.6-0.4-1.2-0.5-1.8,0C132.9,58,131.2,59.3,129.7,61z M123.2,160.5c1.3,1,1.5,1,3.4,0.3c8.8-3.2,17.4-6.8,26.6-9
		c9.1-2.1,17.5-5.8,26.1-9.3c2.1-0.8,2-1,0.7-3.1c-0.6,0.9-1.2,1.7-2.3,2c-4.2,1-7.9,3.1-11.8,4.9c-3.2,1.4-6.3,3.1-9.6,4.3
		c-2.1,0.7-4.6,1.8-6.3-1.2c0,2.6-0.1,2.6-2.7,3c-2.3,0.4-4.7,1-6.9,1.7C134.7,156.1,129.2,159,123.2,160.5z M78.8,142.7
		c0.2-0.1,0.4-0.1,0.7-0.2c0.8-0.3,1.7-0.6,2.5-1c1.9-0.9,1.9-1.4,0.4-2.9c-1.8-1.7-4-3-6.1-4.2c-3.9-2.3-3.9-2.2-7,1.1
		c0,0-0.1,0.1-0.1,0.1c-0.7,0.6-0.7,0.9,0.2,1.4c2.5,1.6,5,3.2,7.5,4.8C77.4,142.3,78,142.7,78.8,142.7z M10.1,138.6
		c2.3-0.6,3.5,0.7,4.7,1.8c1.1,0.9,2,0.9,3-0.2c1.4-1.7,2.9-3.4,4.4-5.1c0.4-0.4,0.4-0.7-0.2-0.9c-2.5-0.8-3.7-2.6-4.3-5
		c-0.1-0.4-0.3-0.7-0.7-0.4c-0.7,0.5-1.6,0.8-2,1.5C13.4,132.8,11.9,135.5,10.1,138.6z M51.9,84.5c0-1.2-2-9.1-2.5-10.3
		c-0.3-0.5-0.5-0.8-1.1-0.5c-1.6,0.8-3.2,1.5-4.8,2.2c-0.6,0.3-0.7,0.5-0.4,1.1c1,2,1.3,4.3,1.9,6.5c0.7,2.8,0.9,2.9,3.7,2.4
		c0.8-0.1,1.6-0.2,2.3-0.4C51.6,85.5,52.1,85.3,51.9,84.5z M136.5,69.4c-0.1-0.2-0.1-0.3-0.2-0.4c-1.5-2.2-2.8-4.6-4.9-6.3
		c-1.3-1-2.5-1.3-3.7,0.2c-0.7,0.8-1.6,1.5-2.5,2.1c-0.7,0.5-0.7,0.8,0,1.4c2.4,2,4.4,4.4,6,7.1c0.4,0.7,0.8,0.8,1.4,0.2
		c1.1-1.2,2.3-2.3,3.5-3.5C136.1,69.9,136.3,69.6,136.5,69.4z M65.6,63.5c0.4,0.1,0,1,0.6,0.9c1.5-0.2,3-0.7,4.2-1.5
		c0.7-0.5,0.1-1.8,0-2.8c-0.1-1.3-1.2-0.9-2-1.2c-0.8-0.2-1,0.3-1.2,0.9c-0.3,0.9-0.3,1.9-1.2,2.6c-0.1-0.2-0.1-0.3-0.1-0.4
		c0-1.2,1.4-2.5,0.6-3.3c-0.7-0.7-2.3-0.5-3.5-0.7c-0.2,0-0.5-0.1-0.7-0.1c-1-0.3-1.5,0-1.7,1c-0.1,0.7-0.4,1.4-0.7,2.1
		c-0.6,2.1-1.6,4-1.8,6.6C60.6,66,63.9,66.4,65.6,63.5z M25.2,133.4c0.3,0,1-0.1,1.8-0.2c0.6-0.1,1-0.4,0.5-1
		c-2.1-3-2.7-6.6-4.3-9.9c-0.1-0.3-0.1-0.7-0.6-0.7c-0.7,0-3.7,2.3-4,3C17,128.9,20.3,133.5,25.2,133.4z M114.2,75.4
		c0.2,2.7,0.3,5.3,0.5,8c0,0.6,0,1.4,1,1.1c0.6-0.2,1.4-0.1,1.3-1.3c-0.2-2,0.8-3.6,2.3-4.7c1.2-0.8,1.4-1.7,1.1-2.9
		c-0.6-2.2-1.6-4.2-1.8-6.5c0-0.6-0.4-0.7-0.9-0.6c-1.1,0.2-2.2,0.3-2,1.9c0.1,0.6-0.2,1.3-0.6,1.7C114,73,114,74.2,114.2,75.4z
		 M171.1,111c0.1-2.4-2.3-6.9-4.3-7.9c-1.7-0.9-3.3-0.9-4.4,0.2c-1.2,1.3-1.4,2.8-0.3,4.5c1.7,2.8,4.5,4,7.6,4.5
		C170.9,112.4,171.2,112,171.1,111z M103.9,41.6c-0.3,0-0.8,0.1-1.2,0.2c-4.7,1.3-8.1,4.4-10.5,8.5c-0.4,0.7-0.6,1.6-0.5,2.5
		c0.1,0.5,0.2,1.1,0.8,1.4c0.7,0.2,1.2,0,1.6-0.5c0.2-0.3,0.4-0.6,0.6-0.9c2.5-3.7,5.2-7.1,10-8c1-0.2,1.7-0.9,1.4-2
		C105.9,41.7,104.9,41.7,103.9,41.6z M64.8,83.4c-1.5,0.4-2.6,0.8-3.8,1.1c-1.2,0.3-2.3,0.8-3.5,0.9c-2,0.2-2.7,1.1-3.1,3.1
		c-0.7,3.9-0.8,3.8,3,4.8c1.1,0.3,1.6,0.2,1.9-1.1c0.3-1.4,0.3-2.9,1.3-4.4c0.2,1.7-0.7,3-0.3,4.5C62.2,89.6,63,86.4,64.8,83.4z
		 M37.5,79.4c0.2,1.6,0.4,2.8,0.6,4.1c0.1,0.8,0.3,1.7,0.5,2.5c0.3,1.6,1.1,2.2,2.7,1.6c1-0.4,2.1-0.6,3.2-0.7
		c0.7-0.1,1.1-0.4,0.7-1.2c-0.8-1.7-1-3.6-1.6-5.4c-1.5-4.6-0.9-3.7-4.7-2.2C38.1,78.4,37.2,78.6,37.5,79.4z M87.4,139
		c-3.3-1.5-3.8-2.5-2.9-5.9c0.2-0.7,0.1-1-0.5-1.2c-2.2-0.9-4.4-1.8-6.6-2.7c-0.4-0.1-0.8-0.5-1.1,0c-0.7,1.2-2.1,1.7-2.9,2.8
		c1.6,0.9,3.1,1.8,4.6,2.7c2,1.2,4.2,2.2,5.3,4.3c0.9,1.7,1.8,1.3,2.9,0.6C86.7,139.4,87,139.2,87.4,139z M65.5,143.2
		c-0.1,0.1-0.2,0.3-0.3,0.4c-0.1,0.7,0.4,0.6,0.8,0.7c2.1,0.9,2.2,1.4,0.7,3.1c-0.7,0.7-1.3,4.5-0.9,5.3c0.1,0.2,0.3,0.3,0.5,0.4
		c1.6,0.3,3.1,0.6,4.6,1c0.5,0.1,0.8,0,1-0.5c0.8-2,1.6-4,2.4-5.9c0.2-0.4,0.3-0.8-0.4-0.9c-2.8-0.2-5-1.8-7.4-2.9
		C66.3,143.6,66,143.4,65.5,143.2z M78.5,143.5c-3.2-2-6.3-3.9-9.5-5.8c-0.4-0.2-0.8-0.8-1.3-0.5c-1,0.8-1.8,1.8-2,3.2
		c-0.2,1.1,0.2,1.9,1.2,2.4c1.2,0.6,2.4,1.1,3.6,1.8C73.4,146.3,75.9,145.4,78.5,143.5z M92.9,133.2c-0.1-0.4-0.1-1-0.2-1.6
		c-0.3-1.8-3.7-3.2-4.9-1.9c-1.5,1.5-2.7,3.4-2.6,5.7c0,1.1,0.6,2,1.7,2.3c1.1,0.3,2-0.7,3.3-0.4C91.4,137.5,92.9,134.8,92.9,133.2z
		 M140.5,52.9c-1.4,0.8-2.8,1.5-4.1,2.3c-0.5,0.3,0,0.6,0.3,0.8c2.5,1.6,4.3,3.9,5.7,6.5c0.3,0.5,0.4,0.6,0.9,0.2
		c2.5-1.9,3-4.1,1.4-6.7C143.7,54.6,142.1,53.9,140.5,52.9z M77.5,128.2c2.1,0.8,4.1,1.6,6.2,2.6c1.3,0.6,2.1,0.5,2.8-0.9
		c0.8-1.7,2.2-1.9,3.9-1.5c0.7,0.2,1.3,0.4,2.2,0.6c-0.2-1.1-0.4-2-0.5-2.9c-0.1-1.5-0.7-1.9-2.2-1.5
		C85.7,125.7,81.8,127.3,77.5,128.2z M84.3,48.9c-2.6,7,2.2,18.4,8.3,20.1c-5-4.8-7.4-10.2-4.8-17.1c0.2-0.5,0.1-0.8-0.5-0.9
		C86.1,50.7,85.3,49.8,84.3,48.9z M113.5,73.9c-3.9,1.6-4.7,3.1-4,6.9c0.2,1.2,0.5,2.4,0.7,3.6c0.1,0.8,0.3,1.8,1.4,1.3
		c1-0.4,2.8,0.2,2.7-1.9C113.9,80.5,113.7,77.2,113.5,73.9z M79.5,90.4c0,0.9,0.2,1.6,0.8,1.8c0.7,0.2,0.7-0.7,1-1.1
		c2.3-4.7,4.6-9.5,7.4-14.1c0.3-0.5,1.2-1,0.4-1.6c-0.7-0.5-1.6-0.6-2.4,0c-0.9,0.8-1.5,1.8-2,2.8c-1.6,3.4-3.1,6.9-4.7,10.3
		C79.7,89.2,79.6,89.9,79.5,90.4z M38.6,88c-1.2-2.8-1.3-5.9-1.9-8.9c-0.6,0.2-1.1,0.4-1.5,0.6c-3.6,1.6-3.6,1.6-2.4,5.3
		C34.1,89.5,34.1,89.5,38.6,88z M131.5,103.6c2.3-1.8,4.8-3.2,7.9-3.3c-1.1-2-2.4-3.5-4.2-4.5c-1.6-0.9-3-0.6-3.7,0.9
		C130.5,99,130.1,101.2,131.5,103.6z M31.4,89.4c1.9,0,2.3-0.2,1.9-1c-0.8-1.9-1.5-3.7-1.9-5.7c-0.1-0.6-0.3-0.8-1-0.7
		c-1.7,0.5-2.8,1.7-2.6,3C28.2,88.2,29.2,89.4,31.4,89.4z M54.5,124.4c-0.1-1-1.8-2.5-3-2.5c-1.8-0.1-4.8,2.2-5.1,4.1
		c-0.2,1.1,0.1,1.7,1.4,1.3c2-0.7,4-1.4,6.1-2C54.1,125.1,54.5,125,54.5,124.4z M90.1,44.5c0.2-1.3-0.6-1.8-1.6-2
		c-1.2-0.3-2.7,1.2-3.4,3.3c-0.5,1.5,0.1,3.1,1.2,3.6c0.6,0.3,1.1,0.1,1.5-0.3C89.2,47.9,90,46.4,90.1,44.5z M124.1,77.9
		c-2.9,0-5.3,1.6-6,3.9c-0.2,0.5-0.4,1.1,0.1,1.5c0.4,0.4,0.9,0,1.4-0.2c2.2-0.9,4.2-2,6-3.4c0.4-0.3,1-0.4,0.8-1.1
		c-0.2-0.5-0.7-0.6-1.2-0.7C124.7,77.9,124.2,77.9,124.1,77.9z M118.1,40.4c-0.1-3.1-5.3-7.6-8.4-7.7c1.2,3,3.1,5.4,6.5,6.3
		C116.9,39.2,117.4,39.9,118.1,40.4z M72.4,81.1c-2.9,1.2-6.4,0.7-7.4,4.5C69,86.3,70.2,85.6,72.4,81.1z M117.3,42.8
		c0.4-1.5-0.6-2.3-1.6-2.9c-2-1.2-4.3-1.7-6.5-2.1c-0.4-0.1-0.9-0.1-1,0.4c-0.2,0.7,0.4,0.8,0.8,1C111.7,40.4,114.5,41.6,117.3,42.8
		z M147.3,115.5c0.7,1.6,1.3,3.2,1.8,4.8c1,3-0.4,5.4-2.2,7.5c-1.8,2-5,2-7.4,0.7c-1.3-0.8-2-2.1-3.3-3.3c1.6,4.6,7.1,6.4,10.5,3.7
		C150.6,125.9,151,118.9,147.3,115.5z M71.6,54.6c-0.5-0.1-1.1-0.2-1.7-0.3c-1.8-0.2-3.6-0.3-5.4-0.5c-0.8-0.1-1.5,0.1-1.6,1.1
		c-0.1,1,0.8,0.7,1.3,0.8c1.1,0.2,2.3,0.3,3.4,0.6C69.5,56.8,71,56.8,71.6,54.6z M136.3,120.6c0,0.3,0,0.7,0.1,0.9
		c0.1,0.7,0.2,1.6,1.2,1.5c1-0.2,0.8-1,0.6-1.7c-0.4-1.8,0.1-3.2,1.6-4.3c0.7-0.5,1.5-1.2,0.7-2.1c-0.7-0.8-1.4,0-2.1,0.4
		C136.4,116.5,136.7,118.7,136.3,120.6z M139,151.8c1,1,2,1,3.1,0.8c1.8-0.4,3.7-0.9,5.5-1.2c0.7-0.1,1.3-0.2,1.1-1.2
		c-0.2-0.9-0.8-1-1.5-0.8C144.5,149.9,141.8,150.6,139,151.8z M159.9,146.4c-2.9,0.5-5.5,1.5-8,2.3c-0.3,0.1-0.6,0.3-0.5,0.6
		c0.1,0.4,0.3,0.6,0.7,0.8C154.2,151,158.5,149.1,159.9,146.4z M96.9,41.7c0.9-0.1,1.4-0.7,2-1c2.5-1.2,5.1-2.4,7.8-0.7
		c1.3,0.8,2.8,1.4,4.1,2.3c1.1,0.7,2.5,1,4.3,0.8c-2.6-1.3-5-1.9-7.1-3.3c-0.3-0.2-0.7-0.2-1-0.4C103,37.3,100.1,38.6,96.9,41.7z
		 M106.3,71.1c-1.9-1.1-3.6-1.7-5.2-1.8c-1.2-0.1-1.9,1.4-3.5,2C100.6,71.9,103.2,71.8,106.3,71.1z M157,79.2
		c-1.4-0.4-1,0.8-1.3,1.4c-0.3,0.8,0.1,1,0.9,1.1c0.8,0.1,1.6,0.1,2.3,0.4c1.4,0.5,1.4-0.5,1.7-1.3c0.4-1.3-0.8-1-1.3-1.2
		C158.6,79.3,157.8,79.3,157,79.2z M108.6,80.5c-0.9,2.2-1.8,4.1-2.7,6.2c1.2,0.2,2.1-0.3,3.1-0.5c0.4-0.1,0.8-0.2,0.6-0.7
		C109.3,83.9,109.4,82.2,108.6,80.5z M64.6,155.6c0.8-2.5,0.6-4.7,1-6.8c0.1-0.4,0-0.7-0.5-0.8c-0.4,0-0.9-0.1-1,0.5
		C63.7,150.7,63.1,153,64.6,155.6z M65.8,154.6c0,0.5-0.2,1.1,0.4,1.2c1.6,0.2,3.1,0.4,4.6-0.2c0.2-0.1,0.4-0.3,0.4-0.5
		c0.1-0.4-0.3-0.5-0.6-0.5c-1.2-0.3-2.4-0.5-3.5-0.9C66.1,153.3,65.7,153.7,65.8,154.6z M165.7,81.7c-1-1-2.4-1.1-3.6-1.4
		c-1.2-0.3-1.2,0.9-1.1,1.5c0.2,1.7,2,1.1,3,1.6C165.2,83.8,165,82.4,165.7,81.7z M149.6,41c1,0.3,2,0.4,2.9,0.8
		c1.2,0.6,1.5-0.2,1.9-0.9c0.6-0.9-0.2-1.3-0.9-1.6C152.2,38.6,150.8,39.2,149.6,41z M106.7,31.9c0.7,1.5,1.2,2.7,1.3,4
		c0.1,0.9,0.9,0.9,1.5,1c0.4,0.1,0.9,0.2,1.2-0.1c0.4-0.6,0-1.2-0.3-1.7C109.6,33.8,108.6,32.6,106.7,31.9z M146.5,57.9
		c0.6-2-0.3-3.5-1.5-4.9c-0.9-1-2-0.9-3.6-0.4C143.8,54.1,145.6,55.5,146.5,57.9z M168.8,85c1-0.2,1.4-1.3,1.2-1.6
		c-0.7-1.1-2.1-1.4-3.2-1.7c-1-0.2-1.4,1.2-1.2,1.6C166.2,84.6,167.8,84.4,168.8,85z M13.1,84.4c-2.5,0.9-3.1,2.6-1.5,4.1
		c0.5,0.5,0.9,0.4,1.5,0.2c0.6-0.2,0.4-0.6,0.4-1C13.4,86.5,13.2,85.5,13.1,84.4z M99.5,118.2c-0.2-0.4,0.2-1.2-0.5-1.3
		c-1-0.1-2-0.8-3-0.3c-0.6,0.3-0.3,1.1,0,1.6c0.6,1.1,1.8,1.2,2.9,1.1C99.7,119.3,99.5,118.7,99.5,118.2z M100,118.1
		c0,0.7,0.1,1.5,1.2,1.2c0.8-0.2,2.2,0.2,2.3-1c0.1-0.6,0-2-1.2-1.7C101.4,116.7,99.8,116.2,100,118.1z M107.6,116.8
		c-0.5-0.6-0.4-1.8-1.4-1.4c-0.9,0.3-2.3,0.1-2.4,1.4c0,0.5,0,1.8,1.2,1.6C105.9,118.1,107.1,117.9,107.6,116.8z M9.6,138.1
		c1.5-2.7,3-5.3,4.6-8c-0.2-0.1-0.4-0.2-0.5-0.3C11.7,132.3,9.7,134.7,9.6,138.1z M172.8,86.9c0.8-0.2,1.4-1,1.2-1.4
		c-0.5-1-1.8-1.5-2.8-1.8c-0.8-0.2-1.2,1-1.1,1.3C170.5,86.4,172,86.2,172.8,86.9z M176,112.6c-0.8,0.4-2.4-0.4-2.2,1.6
		c0.1,0.8,0.2,1.5,1.3,1.2c0.8-0.2,2.2,0.2,2-1.4C177,113.4,177.3,112.4,176,112.6z M149.5,78.5c-0.3,0.4-1.6-0.6-1.5,0.9
		c0.1,1,0.2,1.9,1.6,1.8c1.1-0.1,1.6-0.2,1.7-1.5C151.4,78.3,150.4,78.6,149.5,78.5z M153.9,81.4c1.1,0.4,1.2-0.6,1.3-1.5
		c0.2-1.6-1.2-1-1.9-1.2c-1-0.3-1.3,0.3-1.4,1.2C151.7,81.5,152.8,81.2,153.9,81.4z M111.2,114.7c-0.3-0.6-0.3-1.3-1-1.4
		c-0.5-0.1-2.8,1.5-2.6,1.8c0.2,0.6,0.3,1.7,1,1.5C109.6,116.3,110.6,115.7,111.2,114.7z M70.2,58.5c0-0.7-0.3-0.7-0.6-0.8
		c-2.4-1.1-5.2-0.1-7.6-1.4c-0.1,0-0.4,0.2-0.5,0.4c-0.2,0.3,0,0.6,0.4,0.7c0.7,0.1,1.4,0.3,2.2,0.3C66.1,57.9,68.1,58.6,70.2,58.5z
		 M145.8,81.3c0.5-0.2,1.8,0.5,1.7-1.1c-0.1-0.8-0.2-1.8-1.4-1.5c-0.6,0.1-1.9-0.4-1.7,0.9C144.4,80.3,144.2,81.5,145.8,81.3z
		 M68.7,52.9c1.2,0.2,2.3,0.4,3.5,0.6c0.5,0.1,1.3,0.6,1.5-0.3c0.2-0.8-0.5-1.1-1.1-1.4C71.1,51,70,52.1,68.7,52.9z M129.5,90.4
		c0.5,0,3-2.5,3-2.9c-0.1-0.5-0.4-0.7-0.9-0.8c-0.6-0.1-3,2.3-2.8,2.8C128.9,89.9,129.3,90.1,129.5,90.4z M167.5,113.3
		c0-1.5-1.3-1.4-2.1-1.6c-0.7-0.2-1.2,0.8-1.1,1.1c0.2,1.3,1.5,1.5,2.4,1.8C167.6,114.8,167.2,113.8,167.5,113.3z M141.4,81.8
		c-0.5-0.6-0.4-1.7-1.3-1.6c-0.8,0.1-1.8,0.4-2.1,1.3c-0.1,0.2,0.3,1.7,1.3,1.5C140,82.9,141,82.7,141.4,81.8z M95.1,69
		c-3-1.9-4.5-5.1-6.5-7.8C89.9,64.6,91.6,67.5,95.1,69z M170.9,114.2c0.3-1.3-0.6-1.2-1.3-1.4c-1-0.2-1.4,0.1-1.5,1.1
		c-0.2,1.4,0.6,1.3,1.5,1.5C170.6,115.7,170.8,115,170.9,114.2z M177.6,113.1c0.3,0.5-0.3,1.6,0.8,1.4c0.8-0.1,2-0.3,2-1.4
		c0-0.5,0-1.7-1.1-1.5C178.6,111.8,177.5,111.8,177.6,113.1z M15.2,141.6c-2.1-2.4-3.4-2.9-5.1-1.9
		C11.6,140.8,13.1,141.9,15.2,141.6z M111.9,114.2c0.6,0,2.8-2.2,2.7-2.6c0-0.3-0.3-0.5-0.6-0.6c-0.7-0.3-3.1,1.1-3,1.8
		C111.1,113.3,111.4,113.9,111.9,114.2z M91.4,59.1c0.9-0.1,1.5-0.7,1.6-1.7c0-0.7-0.3-1.2-1.1-1.2c-1,0-1.6,0.6-1.7,1.5
		C90.1,58.6,90.6,59,91.4,59.1z M138.1,83.3c-0.1-0.8-0.4-1.4-1.1-1.3c-0.9,0.1-1.8,0.6-2,1.5c-0.1,0.4,0.4,1.4,0.9,1.3
		C136.8,84.7,137.8,84.3,138.1,83.3z M135.1,85.3c-0.1-0.6-0.4-1.3-0.9-1.2c-1,0.1-1.7,0.9-2.1,1.7c-0.1,0.3,0.7,1.2,1.2,1.1
		C134.1,86.7,134.8,86.2,135.1,85.3z M143.8,80.3c-0.1-0.3,0.2-1.4-1-1.1c-0.5,0.1-1.6,0-1.5,0.9c0.1,0.7,0.1,1.8,1.4,1.7
		C143.4,81.7,144.1,81.6,143.8,80.3z M155.6,56.7c0.5-0.3,1.6,0,1.6-1.1c0-0.9-0.7-1.4-1.6-1.4c-1.5-0.1-0.8,1.2-1.1,1.8
		C154.3,56.7,155,56.6,155.6,56.7z M97.2,76.2c-0.7-0.8-1.7-1.2-2.7-1.4c-0.6-0.1-0.9,0.6-0.8,0.9c0.5,1,1.7,1.1,2.7,1.4
		C96.9,77.3,97,76.8,97.2,76.2z M174.8,85.8c-0.3,0.5-1,1.1-0.9,1.4c0.2,0.8,1.2,1.2,1.9,1.4c0.5,0.1,1.1-0.7,1-1.2
		C176.6,86.7,175.7,86.3,174.8,85.8z M89.7,42.1c1.5,1.4,1,2.9,0.8,4.5C93.1,43.8,93,43.1,89.7,42.1z M165.2,100
		c-0.3,1.3,0,2.1,1.1,2.1c0.9,0,1.1-0.9,1-1.4c0-0.9-1-1.1-1.7-1.3C164.8,99.2,165.2,100,165.2,100z M181.4,113
		c0.7-0.5,1.6-1,1.8-1.9c0.1-0.5-0.3-1.1-0.8-1c-0.8,0.1-1.7,0.4-1.7,1.4C180.7,112,180.7,112.7,181.4,113z M95.1,118.2
		c0.2-1.3,0.3-2.4-1.1-3c-0.5-0.2-0.8,0-1.1,0.2c-0.3,0.3-0.3,0.8,0,0.9C93.6,116.8,94,117.8,95.1,118.2z M164.4,100.5
		c-0.2-0.4,0.4-1.3-0.6-1.3c-0.7,0-1.6,0.4-1.6,1.1c0,0.5,0.5,1.3,1.4,1.4C164.5,101.9,164.5,101.2,164.4,100.5z M178.5,90.8
		c0.6-0.1,1-0.5,0.9-0.8c-0.2-0.9-0.9-1.6-1.8-1.8c-0.4-0.1-0.9,0.4-0.8,0.8C176.9,90,177.9,90.3,178.5,90.8z M169.9,103.7
		c-0.3-0.5-0.6-1.2-1-1.8c-0.2-0.3-0.4-0.8-0.7-0.6c-0.3,0.1-0.5,0.5-0.6,0.8c-0.2,0.4,1.5,2.5,2,2.4
		C169.9,104.4,169.9,104.1,169.9,103.7z M117.1,109.1c-0.2-0.5-0.5-0.8-1-0.7c-0.9,0.3-1.6,0.9-1.9,1.8c-0.1,0.4,0.7,0.9,1.1,0.8
		C116.2,110.7,116.7,109.8,117.1,109.1z M101.5,78c-0.6,0-1.1,0.3-1,0.7c0.3,1,1.3,1.1,2.1,1.3c0.5,0.1,1-0.3,0.8-0.7
		C103.1,78.4,102.2,78.2,101.5,78z M163.4,112.4c0.5-0.2,1-0.8,0.8-1.1c-0.3-0.8-1.1-1.3-1.9-1.7c-0.2-0.1-0.5,0.3-0.4,0.7
		C162.2,111.1,162.6,111.9,163.4,112.4z M117.5,108.6c0.8-0.8,1.4-1.3,1.5-2.1c0.1-0.4-0.3-0.8-0.6-0.7c-0.9,0.2-1.4,0.9-1.6,1.7
		C116.7,107.8,117.2,108.2,117.5,108.6z M103.9,67.6c1.3,0.7,2.6,1.3,4.3,2.2C107.2,67.6,105.5,67.7,103.9,67.6z M88.8,52.6
		c-1.3,2.2-1.2,4.5-0.8,6.9C88,57.1,88.4,54.9,88.8,52.6z M127.9,92.5c0.6-0.3,1-0.8,1-1.5c0-0.4-0.3-0.8-0.6-0.7
		c-0.8,0.2-1.2,0.8-1.4,1.5C126.8,92.1,127.4,92.3,127.9,92.5z M91.4,116.4c-0.2,0-0.3,0-0.5,0.1c0.5,2.1,0.9,4.1,1.4,6.2
		C92.4,120.5,92,118.4,91.4,116.4z M120.9,103.6c0.1-0.5-0.1-0.7-0.5-0.7c-1,0.2-1.3,1.1-1.6,1.8c-0.3,0.5,0.5,0.9,0.7,0.8
		C120.4,105.2,120.6,104.3,120.9,103.6z M127.1,93.4c0-0.4-0.1-0.8-0.5-0.8c-0.9,0-1.1,0.8-1.4,1.5c-0.2,0.4,0.2,1,0.6,0.9
		C126.5,94.8,126.8,94.1,127.1,93.4z M119.4,40.6c-0.3,1.7-1.4,3,0.7,3.7C120.2,43.1,120,42.1,119.4,40.6z M91.4,112.7
		c-0.5,0-0.6,0.3-0.6,0.6c0.1,0.7,0.4,1.4,1.2,1.7c0.3,0.1,0.9-0.3,0.8-0.6C92.5,113.7,91.9,113.2,91.4,112.7z M139.9,125.8
		c-0.1-0.7-0.4-1.3-1.2-1.3c-0.4,0-0.7,0.3-0.6,0.7c0.2,0.6,0.5,1.3,1.2,1.4C139.9,126.8,139.9,126.2,139.9,125.8z M144.7,148.4
		c0,0.1,0,0.1,0,0.2c1.1-0.1,2.1-0.2,3.2-0.3c0.4,0,0.6-0.2,0.5-0.6c-0.1-0.4-0.4-0.4-0.7-0.3C146.7,147.7,145.7,148.1,144.7,148.4z
		 M91.8,86.5c-0.1-0.5-0.3-0.8-0.8-0.8c-0.7,0-0.9,0.5-0.9,1.1c0,0.5,0.2,0.9,0.7,0.8C91.4,87.5,91.7,87.1,91.8,86.5z M173.2,114.5
		c-0.1-0.5,0.2-1.2-0.5-1.3c-0.9-0.1-0.6,0.7-0.6,1.2c0,0.5-0.3,1.2,0.6,1.3C173.3,115.6,173.1,114.9,173.2,114.5z M122.7,99.8
		c0.7-0.4,1-1.1,1.3-1.8c0.1-0.2,0-0.5-0.3-0.5c-1,0-1.1,0.9-1.4,1.6C122.1,99.4,122.4,99.6,122.7,99.8z M166.2,129.3
		c0.8,0.1,1-0.5,1.2-1c0.2-0.6-0.3-0.8-0.7-0.8c-0.7,0-0.9,0.7-1.1,1.2C165.3,129.2,165.8,129.2,166.2,129.3z M168.9,125.6
		c0-0.4,0-0.8-0.4-0.7c-1,0-1.1,1-1.4,1.6c-0.2,0.4,0.3,0.7,0.6,0.6C168.6,127,168.5,126.1,168.9,125.6z"/>
	<path d="M52.4,50.4c-2.9-1.7-4.7,1.6-7.3,2.2c-0.7,0.2-0.3,1.1-0.4,1.6c-0.1,0.6,0,1.4-0.9,1.6c-0.7,0.2-1.4-0.1-1.8-0.7
		c-1.1-2.3-3.2-3.2-5.3-4.2c-1-0.5-1.7-0.6-2.7-0.2c-1.2,0.4-2.4,0.8-3.7,0.7c-1.1-0.1-1.4-0.6-0.8-1.6c0.6-0.9,1.3-1.6,2.2-2.2
		c0.8-0.6,1.1-1.2,0.6-2.1c-0.3-0.6-0.6-1.2-0.6-1.9c-0.2-2.2-1.1-4-2.7-5.6c-1.1-1.2-2-2.8-0.7-4.3c1.2-1.5,3-1.3,4.6-0.8
		c2.3,0.7,4.5-0.8,4.5-3.2c0-0.6-0.3-1.5,0.5-1.7c0.8-0.2,1.4,0.6,1.6,1.2c0.5,1.2,1.4,1.4,2.6,1.4c2.8-0.1,5.2,1.1,7.3,2.8
		c0.8,0.7,1.3,1,2.3,0.5c0.8-0.4,1.9-0.9,2.7,0.1c0.8,1,0.3,2.2-0.4,2.8c-2,1.8-1.3,4.1-1.6,6.2c-0.1,0.6,0.2,0.9,0.6,1.2
		c0.6,0.5,1.2,1,1.8,1.6c0.9,1,1.7,2.1,1.1,3.4C55.3,50.7,53.9,50.3,52.4,50.4z M42.6,44.7c-1-4.1-1.7-8.1-3-12
		c-0.2-0.6-0.5-0.7-1.1-0.5c-3.1,1.2-5.3,3.4-6.3,6.6c-0.2,0.6-0.2,1.2,0.4,1.6c2.6,1.7,5.3,3.5,8,5.2
		C41.7,46.3,42.4,45.7,42.6,44.7z M43.6,44.5c2.4-1.7,4.6-3.3,6.6-5.1c0.8-0.7,0.8-1.3,0.5-2.2c-1.2-3.7-6.3-5.8-9.3-5.6
		c-0.6,0-0.9,0.1-0.7,0.8C41.8,36.4,42.7,40.4,43.6,44.5z M51.6,39.8c-2.7,2-5,3.6-7.2,5.3c-1,0.7-0.8,1.9,0.4,2.4
		c1.1,0.4,2.2,0.7,3.3,1.1c0.8,0.3,1.2,0,1.6-0.7C51.2,45.6,51.3,43,51.6,39.8z M40.3,46.5c-2.9-1.4-5.4-3.2-8.1-5.1
		c0.4,2.8,1.4,5.1,3,7c0.4,0.5,0.8,0.7,1.4,0.3C37.8,48.1,39,47.6,40.3,46.5z M36.8,49.8c1.3,1,2.5,1.5,3.8,1.7
		c0.9,0.1,2.1,0.8,2.7,0c0.6-0.8,0.1-2-0.2-3c-0.3-1.1-1.3-1.5-2.3-1C39.6,48.1,38.3,48.9,36.8,49.8z M31.3,38.9
		c0.4-1.4,0.9-2.6,1.7-3.7c0.3-0.4,0.5-0.7-0.1-1c-1-0.6-3.2-0.6-3.8,0.2c-0.9,1.1-0.1,2.1,0.5,3C30,37.9,30.3,38.5,31.3,38.9z
		 M52.8,49.3c0.9-0.2,2,0.5,2.3-0.9c0.2-0.8-2-3.5-2.6-3.2c-1.3,0.6-1.5,2.2-1.7,3.3C50.5,49.8,52.1,48.9,52.8,49.3z M44.3,48.4
		c0.1,1.2-0.2,2.7,0.7,2.9c1,0.3,2.2-0.5,3.1-1.6C46.8,49.3,45.7,48.9,44.3,48.4z M34.7,49.5c-0.5-0.6-0.9-1.8-1.6-1.5
		c-1,0.4-2,1.2-2.6,2.6C32.1,50.5,33.5,50.4,34.7,49.5z M52.1,37.4c0.7-0.8,1.4-1.6,1.6-2.7c-1-0.4-1.9,0-2.3,0.7
		C50.9,36,51.6,36.7,52.1,37.4z M42.6,52.7c-0.2,0-0.8-0.1-0.7,0.4c0.2,0.7,0.5,1.5,1.3,1.6c0.5,0.1,0.5-0.6,0.6-1
		C43.9,52.9,43.4,52.7,42.6,52.7z"/>
	<path d="M158.6,18.1c0.1,0,0.2,0,0.4,0.1c3.5,1.4,6,0,8-3c0-0.1,0.1-0.1,0.1-0.1c0.8-0.7,1.4-1.8,2.6-1.4c1.1,0.3,0.9,1.6,1.2,2.5
		c0,0.1,0.1,0.2,0.1,0.4c-0.2,3.3,1.1,5.3,4.6,5.5c0.6,0,1.3,0.3,1.3,1c0.1,0.7-0.5,1.1-0.9,1.5c-0.2,0.2-0.4,0.4-0.6,0.4
		c-2.8,0.4-2.8,2.5-2.8,4.6c0,1.1,0.2,2.5-1.2,3c-1.2,0.4-2.4-0.5-2.9-1.4c-1.9-3.2-4.3-3.3-7.3-1.6c-0.6,0.3-1.3,0.4-1.9,0.6
		c-0.6,0.2-1.2,0.5-1.7-0.1c-0.4-0.6-0.1-1.2,0.2-1.7c0.7-1.3,1.4-2.6,2.2-3.8c0.6-0.9,0.6-1.5-0.3-2.1c-0.8-0.6-1.6-1.3-2.1-2.3
		C156.9,18.9,157.3,18.1,158.6,18.1z M175.4,23.2c-0.6-0.7-1.6-0.7-2.3-0.8c-1.9-0.2-2.6-1.2-2.7-3c-0.1-1.2-0.5-2.4-0.7-3.6
		c-0.2-1-0.6-1.1-1.3-0.4c-1.1,1.1-2.3,2.2-3.3,3.4c-0.7,0.9-1.5,1.1-2.5,0.9c-1.3-0.2-2.7-0.4-4.4-0.6c0.8,1.5,1.8,2.3,2.8,3
		c0.8,0.6,1,1.1,0.3,2.1c-1.1,1.5-2.1,3.1-2.7,5c1.4,0,2.4-0.6,3.4-1c3.9-1.6,4-1.6,6.5,1.7c0.6,0.8,1.3,2.2,2.5,1.8
		c1.1-0.4,0.5-1.8,0.5-2.8c-0.1-2,0.2-3.6,2.5-4.3C174.5,24.3,175.1,23.9,175.4,23.2z"/>
	<path d="M151.1,160.6c-0.1,2.7-0.9,5.3-1.4,8c-0.2,1-1,1.2-1.8,0.7c-2.7-1.7-4.5-4.1-4.7-7.4c-0.1-2.2,1.2-3.8,3.4-4.3
		c0.9-0.2,0.5,0,1.8-0.4c0.5-0.1,1.8,0.1,2,0.5C151.1,158.7,151,159.5,151.1,160.6z M147.7,167.4c0.2,0,0.3,0,0.5-0.1
		c0.1-1,0.1-2,0.2-3c0-1.5,0.2-3.1-0.6-4.5c-0.2-0.4-0.4-0.8-0.9-0.8c-0.6,0-0.6,0.6-0.7,0.9C145.2,162.8,146.2,165.1,147.7,167.4z
		 M148.9,167.1c0.9-2.2,1-4.5,1.2-6.9c0.1-1.5-0.6-2.1-2.2-1.7C149.6,161.2,148.9,164.1,148.9,167.1z M146,166c-1-2.2-1-4.4-0.3-6.9
		C143.7,160.9,143.8,163.3,146,166z"/>
	<path d="M164,158.7c0,2.1-0.1,3.7-0.6,5.2c-0.5,1.5-1.2,1.8-2.4,0.8c-2.3-2-3.7-4.5-3.9-7.6c-0.1-1.9,0.6-2.5,3.4-2.9
		c2.2-0.3,3.1,0.4,3.3,2.3C163.9,157.4,164,158.3,164,158.7z M161.8,164c-1.7-2.1-2.4-4.5-2.2-7.1c0-0.5,0.3-1.2-0.6-1.3
		c-0.9-0.1-1.1,0.6-1.1,1.3C158.1,159.9,159.6,162.2,161.8,164z M160.5,155.9c-0.6,2.7-0.3,5.2,2.1,7.5
		C162.5,160.5,162,158.1,160.5,155.9z M162.8,158.8c0.3-1.1,0.4-2.1,0.1-3.1c-0.2-0.5-0.7-0.8-1.2-0.6c-0.6,0.2-0.1,0.7,0,1.1
		C162,157.1,162.4,158,162.8,158.8z"/>
	<path d="M134,15.6c0,0.3,0,0.5-0.1,0.7c-1.1,1.7-1.5,3.2-0.3,5.3c0.7,1.2-0.8,1.7-1.7,1.3c-2-0.9-3.5-0.3-5,1.1
		c-0.5,0.5-1.1,0.8-1.8,0.7c-1-0.1-1.8-0.4-1.4-1.7c0.1-0.4,0.1-0.9,0.2-1.3c0.5-1.2,0.1-1.9-1.1-2.4c-0.6-0.2-1.4-0.5-1.4-1.3
		c0-0.7,0.8-1.1,1.4-1.3c1.6-0.6,2.6-1.4,2.9-3.3c0.2-1.5,1.5-1.3,2.1-0.5c1.1,1.5,2.4,1.2,3.9,1.1C132.7,14.1,133.9,14,134,15.6z
		 M131.7,22.3c0.5,0.1,0.9,0.2,1.1-0.2c0.2-0.4,0.1-0.9-0.2-1.2c-1.2-1.2-1.7-2.3,0-3.6c0.5-0.4,0.8-1.3,0.5-2
		c-0.4-0.8-1.3-0.6-2-0.4c-1.5,0.3-2.8,0.3-3.8-1.2c-0.5-0.8-1.3-0.5-1.3,0.4c0,2-1.3,2.7-2.8,3.3c-0.4,0.1-0.9,0.3-1,0.7
		c0,0.6,0.6,0.7,1,0.9c1.4,0.4,1.7,1.3,1.3,2.6c-0.2,0.7-0.9,1.8,0,2.3c0.9,0.5,1.7-0.4,2.5-0.8c0.2-0.1,0.3-0.2,0.4-0.3
		c1-1.3,2.2-1.5,3.7-0.7C131.4,22.3,131.6,22.3,131.7,22.3z"/>
	<path d="M179,54.2c-0.5,1,0.3,1.4,0.9,2c0.5,0.6,1.3,1.1,1,2c-0.3,1-1.3,1.3-2.2,1.3c-1-0.1-1.4,0.3-1.6,1.2
		c-0.1,0.7-0.5,1.3-1.3,1.3c-0.8,0-1.2-0.7-1.4-1.3c-0.3-1.2-0.9-1.9-2.2-1.9c-0.5,0-0.9-0.3-1.4-0.5c-0.6-0.2-1-0.7-1.1-1.3
		c-0.1-0.8,0.6-1,1.1-1.2c1.2-0.5,1.9-1,1.4-2.5c-0.4-1.3,0.6-1.5,1.5-1c1.3,0.7,2.4,0.9,3.9,0.3C179.1,51.8,179,53.2,179,54.2z
		 M178.2,58.8c0.6,0,1.5,0,1.9-0.8c0.3-0.7-0.5-1.2-1-1.6c-0.8-0.6-1.2-1.3-0.8-2.3c0.2-0.7,0-1.4-0.9-0.9c-1.3,0.8-2.4,0.4-3.5-0.3
		c-0.4-0.2-1.2-0.4-0.9,0.4c0.8,2-0.6,2.4-1.8,3c-0.9,0.4-0.8,0.9-0.1,1.3c0.5,0.3,1.1,0.5,1.7,0.6c1.2,0.1,1.9,0.6,2.1,1.8
		c0.1,0.5,0.3,1.2,0.9,1.1c0.5,0,0.6-0.7,0.7-1.2C176.7,59.1,176.9,58.4,178.2,58.8z"/>
	<path d="M70.1,89.2c0.5,0.1,0.6,0.5,0.8,0.8c1.9,3.6,5.1,5.7,8.6,7.4c3.8,1.9,7.8,3.1,11.8,4.3c0.4,0.1,0.8,0.2,1.2,0.4
		c0.3,0.1,0.6,0.3,0.4,0.7c-0.1,0.4-0.5,0.3-0.8,0.2c-0.1,0-0.1,0-0.2-0.1c-5.7-1.8-11.4-3.4-16.5-6.7c-2.3-1.5-4.1-3.4-5.5-5.8
		c-0.2-0.3-0.2-0.7-0.2-1C69.7,89.4,70,89.3,70.1,89.2z"/>
	<path d="M79.4,75.4c0-0.9,0.2-1.6,1.3-1.5c0.7,0,1.6,0.3,1.6,1.2c0,0.9-0.5,1.8-1.6,1.8C79.7,76.9,79.4,76.2,79.4,75.4z"/>
	<path d="M78.3,77.6c0.8,0,1.4,0.2,1.4,1.1c0,0.7-0.2,1.6-1.1,1.6c-0.9,0-1.7-0.5-1.7-1.5C76.8,77.9,77.6,77.8,78.3,77.6z"/>
	<path d="M75.8,81.6c0.8,0,1.4,0.2,1.4,1.1c0,0.7-0.2,1.6-1.1,1.6c-0.9,0-1.7-0.5-1.7-1.5C74.3,81.9,75.1,81.8,75.8,81.6z"/>
	<path d="M93.3,89.4c0.1-0.9,0.3-2.3,1.7-2.1c1.1,0.1,2.8-0.1,2.9,1.7c0.1,1.2-1.5,2.8-2.7,2.8C94.2,91.8,93.4,90.8,93.3,89.4z
		 M95.6,88.5c-0.9-0.3-1.2,0.1-1.3,0.8c-0.1,0.7,0.2,1.2,0.9,1.3c0.9,0.1,1.5-0.4,1.6-1.1C97.1,88.3,96.1,88.7,95.6,88.5z"/>
</g>
</svg>
