<?xml version="1.0" encoding="utf-8"?>
<!-- Generator: Adobe Illustrator 21.0.0, SVG Export Plug-In . SVG Version: 6.00 Build 0)  -->
<svg version="1.1" id="Layer_1" xmlns="http://www.w3.org/2000/svg" xmlns:xlink="http://www.w3.org/1999/xlink" x="0px" y="0px"
	 viewBox="0 0 432 432" style="enable-background:new 0 0 432 432;" xml:space="preserve">
<style type="text/css">
	.st0{fill:none;}
	.st1{stroke:#000000;stroke-width:0.6214;stroke-linecap:square;}
</style>
<g>
	<path d="M351.6,244.2c-50.7-13.2-90.2-52.6-103.3-103.3c-1.9-5.6-9.4-5.6-11.3,0c-13.2,50.7-52.6,90.2-103.3,103.3
		c-5.6,1.9-5.6,9.4,0,11.3c48.9,13.2,88.3,52.6,103.3,103.3c1.9,5.6,9.4,5.6,11.3,0c13.2-48.9,52.6-88.3,103.3-103.3
		C357.3,253.6,357.3,246.1,351.6,244.2z"/>
	<path d="M409.9,95.7c-24.4-7.5-45.1-26.3-50.7-50.7c0-3.8-5.6-3.8-5.6,0c-7.5,24.4-26.3,45.1-50.7,50.7c-3.8,0-3.8,5.6,0,5.6
		c24.4,7.5,45.1,26.3,50.7,50.7c0,3.8,5.6,3.8,5.6,0c7.5-24.4,26.3-45.1,50.7-50.7C411.8,101.4,411.8,97.6,409.9,95.7z"/>
	<path d="M56.6,150.2l3.8,3.8l39.5-28.2l7.5,47c0,1.9,5.6,1.9,5.6,0l7.5-47L160,154c1.9,1.9,5.6-1.9,3.8-3.8l-26.3-39.5l47-7.5
		c1.9,0,1.9-5.6,0-5.6l-47-9.4l28.2-39.5c1.9-1.9-1.9-5.6-3.8-3.8l-39.5,28.2l-7.5-47c0-1.9-5.6-1.9-5.6,0l-9.4,47L60.4,45l-3.8,3.8
		l28.2,39.5l-47,7.5c-1.9,1.9-1.9,5.6,0,7.5l47,7.5L56.6,150.2z"/>
	<path d="M129.9,336.2l22.5-30.1c0-1.9-1.9-3.8-3.8-3.8L118.6,325l-5.6-35.7c0-1.9-3.8-1.9-3.8,0l-5.6,35.7l-30.1-22.5
		c-1.9,0-3.8,1.9-3.8,3.8l22.5,30.1l-35.7,5.6c-1.9,0-1.9,3.8,0,3.8l35.7,5.6l-22.5,30.1c0,1.9,1.9,3.8,3.8,3.8l30.1-22.5l5.6,35.7
		c0,1.9,3.8,1.9,3.8,0l5.6-35.7l30.1,22.5c1.9,0,3.8-1.9,3.8-3.8l-22.5-30.1l35.7-5.6c1.9,0,1.9-3.8,0-3.8L129.9,336.2z"/>
</g>
</svg>
