<?xml version="1.0" encoding="utf-8"?>
<!-- Generator: Adobe Illustrator 21.0.0, SVG Export Plug-In . SVG Version: 6.00 Build 0)  -->
<svg version="1.1" id="Layer_1" xmlns="http://www.w3.org/2000/svg" xmlns:xlink="http://www.w3.org/1999/xlink" x="0px" y="0px"
	 viewBox="0 0 432 432" style="enable-background:new 0 0 432 432;" xml:space="preserve">
<style type="text/css">
	.st0{fill:none;}
	.st1{stroke:#000000;stroke-width:0.6214;stroke-linecap:square;}
</style>
<polygon points="273.5,42.7 280.5,92.7 303,100 280.5,107.4 273.5,156.1 266.5,107.4 244.1,100 266.5,92.7 "/>
<polygon points="212.6,227.6 218,266.9 235.8,272.7 218,278.5 212.6,317 207.1,278.5 189.3,272.7 207.1,266.9 "/>
<polygon points="54.5,109 62.7,168 89.3,176.7 62.7,185.4 54.5,243.1 46.3,185.4 19.6,176.7 46.3,168 "/>
<polygon points="148.7,93.8 162.7,194.5 208.3,209.4 162.7,224.2 148.7,322.7 134.6,224.2 89.2,209.4 134.6,194.5 "/>
<polygon points="241.3,277.8 249.6,336.6 276.1,345.2 249.6,353.9 241.3,411.2 233.2,353.9 206.7,345.2 233.2,336.6 "/>
</svg>
