<?xml version="1.0" encoding="utf-8"?>
<!-- Generator: Adobe Illustrator 21.0.0, SVG Export Plug-In . SVG Version: 6.00 Build 0)  -->
<svg version="1.1" id="Layer_1" xmlns="http://www.w3.org/2000/svg" xmlns:xlink="http://www.w3.org/1999/xlink" x="0px" y="0px"
	 viewBox="0 0 432 432" style="enable-background:new 0 0 432 432;" xml:space="preserve">
<style type="text/css">
	.st0{fill:none;}
	.st1{stroke:#000000;stroke-width:0.6214;stroke-linecap:square;}
</style>
<path d="M198.6,127.8c-1.1-3.8-4.5-6.4-8.4-6.4c-3.9,0-7.4,2.6-8.4,6.4c-14,48.6-23.4,58-72,72c-3.8,1.1-6.4,4.5-6.4,8.4
	s2.6,7.4,6.4,8.4c48.6,14,58,23.4,72,72c1.1,3.8,4.5,6.4,8.4,6.4c3.9,0,7.4-2.6,8.4-6.4c14-48.6,23.4-58,72-72
	c3.8-1.1,6.4-4.5,6.4-8.4s-2.6-7.4-6.4-8.4C222,185.8,212.6,176.4,198.6,127.8z M190.2,258.4c-10.6-26.6-23.6-39.6-50.2-50.2
	c26.6-10.6,39.6-23.6,50.2-50.2c10.6,26.6,23.6,39.6,50.2,50.2C213.8,218.8,200.8,231.8,190.2,258.4z"/>
<path d="M16.2,335.8c27,7.7,31.8,12.5,39.5,39.5c1.1,3.8,4.5,6.4,8.4,6.4c3.9,0,7.4-2.6,8.4-6.4c7.8-27,12.6-31.8,39.5-39.5
	c3.8-1.1,6.4-4.5,6.4-8.4c0-3.9-2.6-7.4-6.4-8.4c-27-7.7-31.8-12.5-39.5-39.5c-1.1-3.8-4.5-6.4-8.4-6.4c-3.9,0-7.4,2.6-8.4,6.4
	c-7.7,27-12.5,31.8-39.5,39.5c-3.8,1.1-6.4,4.5-6.4,8.4C9.8,331.3,12.4,334.7,16.2,335.8z M64.1,307c4.9,9.4,11,15.5,20.4,20.4
	c-9.4,4.9-15.5,11-20.4,20.4c-4.9-9.4-11-15.5-20.4-20.4C53.1,322.5,59.2,316.4,64.1,307z"/>
<path d="M296.4,123.5c1.1,3.8,4.5,6.4,8.4,6.4c3.9,0,7.4-2.6,8.4-6.4c6.9-23.9,10.8-27.8,34.7-34.7c3.8-1.1,6.4-4.5,6.4-8.4
	c0-3.9-2.6-7.4-6.4-8.4c-23.9-6.9-27.8-10.8-34.7-34.7c-1.1-3.8-4.5-6.4-8.4-6.4c-3.9,0-7.4,2.6-8.4,6.4
	c-6.9,23.9-10.8,27.8-34.7,34.7c-3.8,1.1-6.4,4.5-6.4,8.4c0,3.9,2.6,7.4,6.4,8.4C285.6,95.7,289.5,99.6,296.4,123.5z M304.8,64.2
	c4,7.2,9,12.2,16.3,16.3c-7.2,4-12.2,9-16.3,16.3c-4-7.2-9-12.2-16.3-16.3C295.8,76.4,300.8,71.4,304.8,64.2z"/>
<path d="M355.7,340.5c-32-9.2-37.7-14.9-46.9-46.9c-1.1-3.8-4.5-6.4-8.4-6.4c-3.9,0-7.4,2.6-8.4,6.4c-9.2,32-14.9,37.7-46.9,46.9
	c-3.8,1.1-6.4,4.5-6.4,8.4c0,3.9,2.6,7.4,6.4,8.4c32,9.2,37.7,14.9,46.9,46.9c1.1,3.8,4.5,6.4,8.4,6.4c3.9,0,7.4-2.6,8.4-6.4
	c9.2-32,14.9-37.7,46.9-46.9c3.8-1.1,6.4-4.5,6.4-8.4C362.1,345.1,359.5,341.6,355.7,340.5z M300.3,376c-6.2-13-14.1-20.8-27-27
	c13-6.2,20.8-14.1,27-27c6.2,13,14.1,20.8,27,27C314.4,355.2,306.6,363,300.3,376z"/>
<path d="M134.7,77.2c0-3.9-2.6-7.4-6.4-8.4c-32-9.2-37.7-14.9-46.9-46.9c-1.1-3.8-4.5-6.4-8.4-6.4c-3.9,0-7.4,2.6-8.4,6.4
	c-9.2,32-14.9,37.7-47,46.9c-3.8,1.1-6.4,4.5-6.4,8.4c0,3.9,2.6,7.4,6.4,8.4c32,9.2,37.7,14.9,47,46.9c1.1,3.8,4.5,6.4,8.4,6.4
	c3.9,0,7.4-2.6,8.4-6.4c9.2-32,14.9-37.7,46.9-46.9C132.1,84.6,134.7,81.2,134.7,77.2z M73,104.3c-6.2-13-14.1-20.8-27-27
	c13-6.2,20.8-14.1,27-27c6.2,13,14.1,20.8,27,27C87,83.5,79.2,91.3,73,104.3z"/>
</svg>
