<?xml version="1.0" encoding="utf-8"?>
<!-- Generator: Adobe Illustrator 21.0.0, SVG Export Plug-In . SVG Version: 6.00 Build 0)  -->
<svg version="1.1" id="Layer_1" xmlns="http://www.w3.org/2000/svg" xmlns:xlink="http://www.w3.org/1999/xlink" x="0px" y="0px"
	 viewBox="0 0 432 432" style="enable-background:new 0 0 432 432;" xml:space="preserve">
<style type="text/css">
	.st0{fill:none;}
	.st1{stroke:#000000;stroke-width:0.6214;stroke-linecap:square;}
</style>
<g transform="translate(-91.214475,-152.15558)">
	<path class="st1" d="M304.2,186c-3.5,28.4-2.4,36.7-26.7,39.9c23.8,3.9,24.2,12.6,26.7,39.9c3.3-27.4,2.7-35.6,26.7-39.9
		C306.6,222.8,307.5,214.4,304.2,186z M233.6,211.9c-12,102.8-9,133.5-97,144.8c87.3,15.4,84.9,45.2,97,144.8
		c9.1-99,10.4-130.7,97-144.8C242.5,345.2,246.2,314.9,233.6,211.9z M425.5,214.5c-6.5,55.5-4.9,72-52.3,78.1
		c47.1,8.3,45.8,24.4,52.3,78.1c4.9-53.4,5.6-70.5,52.3-78.1C430.3,286.5,432.3,270.1,425.5,214.5L425.5,214.5z M180.6,217.7
		c-2.5,20.2-1.7,26.2-19,28.4c17,2.8,17.2,9,19,28.4c2.4-19.5,1.9-25.4,19-28.4C182.3,243.9,182.9,237.9,180.6,217.7z M343.3,284.3
		c-2.3,20.9-1.6,27.1-17.9,29.4c16,2.9,16.2,9.3,17.9,29.4c2.2-20.2,1.8-26.3,17.9-29.4C345,311.5,345.5,305.2,343.3,284.3z
		 M467.4,361.6c-1.3,12.1-1,15.7-10.4,17.1c9.3,1.7,9.4,5.4,10.4,17.1c1.3-11.7,1-15.3,10.4-17.1
		C468.4,377.4,468.7,373.8,467.4,361.6z M377.8,370.5c-4.5,38.9-3.4,50.5-36.7,54.8c33,5.8,32.1,17.1,36.7,54.8
		c3.5-37.5,3.9-49.5,36.7-54.8C381.2,420.9,382.6,409.5,377.8,370.5L377.8,370.5z M191.9,399c-1.3,12.1-0.9,15.7-10.4,17.1
		c9.3,1.7,9.4,5.4,10.4,17.1c1.3-11.7,1-15.3,10.4-17.1C192.9,414.7,193.2,411.1,191.9,399z M307.5,414.3
		c-1.3,12.1-1,15.7-10.4,17.1c9.3,1.7,9.4,5.4,10.4,17.1c1.3-11.7,1-15.3,10.4-17.1C308.4,430,308.8,426.4,307.5,414.3z
		 M155.6,437.6c-2.5,20.2-1.7,26.2-19,28.4c17,2.8,17.2,9,19,28.4c2.4-19.5,1.9-25.4,19-28.4C157.4,463.8,158,457.8,155.6,437.6z
		 M456.9,458.4c-2.7,24.5-1.9,31.7-20.9,34.4c18.6,3.3,18.9,10.9,20.9,34.4c2.6-23.7,2.1-30.7,20.9-34.4
		C458.9,490.2,459.5,482.9,456.9,458.4z M280.9,466c-1.9,15.6-1.4,20.3-14.7,22c13.2,2.1,13.3,7,14.7,22c1.8-15.1,1.5-19.7,14.7-22
		C282.3,486.2,282.7,481.6,280.9,466z"/>
</g>
</svg>
