<?xml version="1.0" encoding="utf-8"?>
<!-- Generator: Adobe Illustrator 16.0.0, SVG Export Plug-In . SVG Version: 6.00 Build 0)  -->
<!DOCTYPE svg PUBLIC "-//W3C//DTD SVG 1.1//EN" "http://www.w3.org/Graphics/SVG/1.1/DTD/svg11.dtd">
<svg version="1.1" id="by_FoxSister" xmlns="http://www.w3.org/2000/svg" xmlns:xlink="http://www.w3.org/1999/xlink" x="0px"
	 y="0px" width="725.068px" height="1025.445px" viewBox="0 0 725.068 1025.445" enable-background="new 0 0 725.068 1025.445"
	 xml:space="preserve">
<path id="by_FoxSister_1_" fill="#939598" d="M581.128,224.67l-4.682,3.899l2.079-79.376l9.699,4.296l-3.441-14.251l9.788-10.914
	l-14.616-1.131l-7.354-12.682l-5.594,13.552l-14.333,3.076l6.199,5.281L410.06,183.187l1.873-11.216l-14.857,7.895l-14.926-7.764
	l2.695,15.313h-75.907l4.88-10.235l-12.415,2.633l-9.206-8.734l-1.062,10.053l-44.221-33.176l6.769-5.003l-11.261-3.242
	l-3.713-11.114l-6.563,9.708l-11.718,0.097l6.17,7.915l-68.571,34.645l-0.172-9.705l-10.912,8.673l-13.33-4.072l4.876,13.058
	l-7.992,11.42l13.926-0.604l8.391,11.129l3.729-13.43l13.178-4.541l-8.286-5.489l63.824-32.247l-1.157,3.664l11.016-3.997
	l9.537,6.81l-0.217-6.424l41.527,31.154l-6.252,3.396l11.591,5.167l2.314,12.477l8.496-9.427l12.582,1.655l-2.842-4.928h67.082
	l-5.866,5.769l16.66,2.346l7.512,15.055l4.305-8.819l25.953,55.583l-6.692-2.164l4.251,11.97l-7.451,10.288l12.697-0.344
	l7.481,10.265l3.597-12.182l12.074-3.943l-6.283-4.311l112.386-26.609l-2.751,4.127l12.674-0.839l7.878,9.966l3.119-12.313
	l11.911-4.411l-10.747-6.772L581.128,224.67z M569.064,232.152l-9.927-2.787l3.962,9.913l-120.122,28.441l-0.014-9.083l-7.524,5.784
	l-28.927-61.953l14.748-2.208l-10.116-9.775l152.492-47.922l-1.306,12.668l8.893-5.466L569.064,232.152z"/>
</svg>
