<?xml version="1.0" encoding="utf-8"?>
<!-- Generator: Adobe Illustrator 23.0.2, SVG Export Plug-In . SVG Version: 6.00 Build 0)  -->
<svg version="1.1" id="shooting_star_5" xmlns="http://www.w3.org/2000/svg" xmlns:xlink="http://www.w3.org/1999/xlink" x="0px"
	 y="0px" viewBox="0 0 864 864" style="enable-background:new 0 0 864 864;" xml:space="preserve">
<path d="M626.13,325.43l-37.87-33.97c-5.76-5.17-13.48-7.57-21.16-6.6l-50.47,6.42c-20.58,2.62-36.13-18.25-27.73-37.22l20.6-46.52
	c3.13-7.07,3.04-15.16-0.26-22.16l-21.7-46.01c-8.85-18.77,6.19-40,26.83-37.87l50.61,5.22c7.7,0.79,15.36-1.8,20.99-7.1
	l37.05-34.86c15.11-14.22,39.96-6.47,44.31,13.82l10.67,49.74c1.62,7.56,6.45,14.05,13.24,17.77l44.6,24.47
	c18.19,9.98,18.5,36,0.55,46.41L692.4,242.5c-6.69,3.88-11.37,10.48-12.81,18.08l-9.49,49.98
	C666.23,330.95,641.58,339.28,626.13,325.43z M445.61,456.84l-5.23-41.49c-0.8-6.31,1.19-12.66,5.44-17.38l27.96-31.1
	c11.4-12.68,4.58-32.96-12.18-36.16l-41.08-7.85c-6.25-1.19-11.67-5.04-14.85-10.55l-20.94-36.2c-8.54-14.77-29.93-14.54-38.16,0.41
	l-20.16,36.64c-3.07,5.57-8.4,9.54-14.62,10.87l-40.9,8.73c-16.68,3.56-23.08,23.98-11.4,36.41l28.62,30.5
	c4.35,4.64,6.47,10.94,5.81,17.26l-4.34,41.6c-1.77,16.97,15.67,29.36,31.11,22.1l37.85-17.8c5.76-2.71,12.4-2.78,18.22-0.2
	l38.22,16.98C430.57,486.52,447.75,473.76,445.61,456.84z M715.31,505.53l-11.51-22.63c-1.75-3.44-1.92-7.47-0.46-11.05l9.59-23.51
	c3.91-9.59-4.15-19.77-14.38-18.16l-25.08,3.95c-3.81,0.6-7.7-0.49-10.65-2.98l-19.39-16.39c-7.91-6.68-20.09-2.16-21.72,8.07
	l-4,25.07c-0.61,3.81-2.84,7.17-6.12,9.21l-21.58,13.38c-8.8,5.46-8.26,18.44,0.96,23.15l22.61,11.55c3.44,1.76,5.94,4.92,6.87,8.67
	l6.06,24.66c2.47,10.06,14.98,13.55,22.31,6.24l17.97-17.94c2.73-2.73,6.52-4.13,10.37-3.85l25.32,1.86
	C712.81,525.57,720,514.76,715.31,505.53z M417.26,114.12l-11.51-22.63c-1.75-3.44-1.92-7.47-0.46-11.05l9.59-23.51
	c3.91-9.59-4.15-19.77-14.38-18.16l-25.08,3.95c-3.81,0.6-7.7-0.49-10.65-2.98l-19.39-16.39c-7.91-6.68-20.09-2.16-21.72,8.07
	l-4,25.07c-0.61,3.81-2.84,7.17-6.12,9.21l-21.58,13.38c-8.8,5.46-8.26,18.44,0.96,23.15l22.61,11.55c3.44,1.76,5.94,4.92,6.87,8.67
	l6.06,24.66c2.47,10.06,14.98,13.55,22.31,6.24l17.97-17.94c2.73-2.73,6.52-4.13,10.37-3.85l25.32,1.86
	C414.76,134.17,421.96,123.35,417.26,114.12z M210.5,155.76c-31.76,26.96-59.7,59.67-74.78,98.5c-2.63,6.78-4.79,14.7-1.22,21.04
	c3.56,6.33,15.3,7,16.87-0.1c-7.34,17.26-11.02,36.07-10.73,54.83c0.19,12.61,5.42,28.42,18,29.13
	c10.26,0.58,17.53-9.65,21.91-18.95c20.69-43.92,24.77-94.77,49.08-136.8c13.01-22.49,31.62-40.72,51.51-57.13
	c12.92-10.66,24.73-25.63,0.01-26.8C258.08,118.39,227.27,141.53,210.5,155.76z M122.33,522.17c-8.97,11.29-17.7,25.34-13.83,39.23
	c2.93,2.76,8.36,2.01,10.43-1.44c-20.33,47.96-25.8,102.09-15.48,153.14c1.84,9.08,5.99,19.81,15.17,21.08
	c8.73,1.21,15.58-7.13,20.01-14.76c32.9-56.59,40.16-124.54,67.68-183.93c12.32-26.58,28.55-51.01,44.39-75.57
	c3.94-6.1,22.91-28.17,20.83-35.42c-3.9-13.61-20.26-4.04-27.87-0.31C196.71,447.23,154.85,481.25,122.33,522.17z M505.87,390.75
	c-30.05,88.5-49.77,183.13-34.64,275.36c0.95,5.82,2.24,12,6.43,16.14c4.19,4.15,12.26,4.81,15.4-0.18
	c0.88,12.62,3.66,25.12,8.21,36.93c1.48,3.83,3.36,7.85,6.94,9.86c4.89,2.75,11.38,0.6,15.21-3.51c3.83-4.1,5.58-9.68,7.05-15.1
	c23.23-85.7,3.29-179.25,30.4-263.8c0.89,2.79,5.03,3.22,7.36,1.44c2.33-1.78,3.24-4.81,3.97-7.65
	c7.07-27.55,8.76-56.16,10.42-84.56c1.62-27.75-2.71-76.6-35.99-41.86C526.27,335.09,515.18,363.32,505.87,390.75z M699.17,752.75
	c7.22,22.01,15.63,43.63,25.19,64.72c3.7,8.15,10.31,22.56,19.37,25.81c13.27,4.76,6.44-24.64,4.68-31.23
	c-3.65-13.63-6.35-27.53-9.15-41.43c2.96,14.7,20.8,11.03,25.22-0.77c4.76-12.71-6.55-33.09-10.95-44.49
	c-8.06-20.87-16.13-41.75-24.19-62.62c0.19,0.5,6.43,1.92,7.14,1.8c15.74-2.88-2.32-43.23-6.01-50.47
	c-8.45-16.6-27.03-56.11-45.41-63.42c-32.65-12.99-11.87,90.34-10.24,100.8C680.18,685.8,688.33,719.72,699.17,752.75z"/>
</svg>
