<?xml version="1.0" encoding="utf-8"?>
<!-- Generator: Adobe Illustrator 23.0.2, SVG Export Plug-In . SVG Version: 6.00 Build 0)  -->
<svg version="1.1" id="shooting_star_2" xmlns="http://www.w3.org/2000/svg" xmlns:xlink="http://www.w3.org/1999/xlink" x="0px"
	 y="0px" viewBox="0 0 864 864" style="enable-background:new 0 0 864 864;" xml:space="preserve">
<path d="M634.38,349.11l-44.46-49.92c-6.72-7.54-16.72-11.3-26.74-10.04l-66.33,8.33c-25.24,3.17-43.16-23.98-30.32-45.94
	l33.74-57.72c5.1-8.72,5.58-19.39,1.28-28.53l-28.42-60.51c-10.81-23.03,9.47-48.45,34.32-43.03l65.32,14.25
	c9.87,2.15,20.17-0.69,27.54-7.6l48.77-45.73c18.56-17.4,49.01-5.97,51.53,19.35l6.63,66.52c1,10.05,6.88,18.97,15.73,23.84
	l58.56,32.25c22.28,12.27,20.82,44.77-2.48,54.99l-61.22,26.86c-9.25,4.06-15.91,12.41-17.81,22.33l-12.58,65.66
	C682.66,359.45,651.3,368.1,634.38,349.11z M529.39,321.07c-18.08,11.98-30.2,31.09-39.4,50.73s-16.04,40.39-26.53,59.37
	c-24.44,44.21-66.79,75.57-110.25,101.33c-13.72,8.13-29.27,18.15-31.06,34c-1.18,10.45,4.48,20.84,12.65,27.47
	s18.51,9.98,28.83,11.98c56.89,11.01,119.29-19.68,145.28-71.47c-1.92,8.1,5.39,16.21,13.58,17.7c8.19,1.49,16.5-1.98,23.48-6.52
	c19-12.36,31.73-32.72,38.74-54.27c7.01-21.55,8.81-44.42,9.81-67.06C596.18,386.98,592.49,279.26,529.39,321.07z M457.68,328.85
	c-6.27,7.51-10.62,16.41-16.09,24.52c-15.6,23.14-40.77,39.61-68.22,44.63c-12.7,2.32-25.85,2.31-38.25,5.92
	s-24.57,11.99-27.7,24.52c-4.05,16.19,9.21,32.75,25.07,37.95c15.86,5.19,33.17,1.83,49.26-2.6c20.22-5.57,40.54-13.1,56.16-27.1
	c19.2-17.2,29.18-42.09,40.03-65.47c5.06-10.9,10.55-21.67,17.43-31.55c7.13-10.24,15.75-16.7,24.79-24.86
	c8.33-7.52-5.66-9.98-11.36-9.73c-6.57,0.28-13.55,1.58-19.74,3.84C477.84,312.98,465.47,319.52,457.68,328.85z M607.92,398.27
	c9.58,50.54,2.36,104.11-20.26,150.31c-8.47,17.3-19.15,33.92-23.06,52.79c-0.87,4.21-1.36,8.78,0.49,12.67
	c3.31,6.97,12.46,8.75,20.14,8.09c26.14-2.27,49.1-24.66,52.03-50.73c2.14,5.06,9.9,5.26,14.02,1.62s5.48-9.41,6.47-14.82
	c10.77-58.6,4.57-120.21-17.65-175.5c-3.31-8.24-19.92-45.73-32.59-42.59C593.73,343.52,606.23,389.32,607.92,398.27z
	 M214.98,513.73c-53.39,20.05-103.41,53.04-135.02,100.51c-6.26,9.41-11.89,19.66-13.15,30.89c-1.26,11.23,2.71,23.64,12.19,29.79
	c17.45,11.31,39.74-3.41,54.74-17.82c9.86-9.47,19.52-19.16,28.97-29.04c4.77-4.99,9.5-10.03,14.16-15.12
	c2.33-2.54,4.65-5.1,6.96-7.67c1.72-1.92,3.6-5.44,6.38-5.62c2.42-0.15,4.11,5,5.72,6.6c2.26,2.23,5.12,3.8,8.11,4.81
	c6.28,2.12,13.62,1.95,19.61-1.01c12.35-6.08,19.68-18.81,28.08-29.72c3.86-5.01,8.05-9.75,12.52-14.22
	c12.55-12.54,27.14-22.83,42.34-31.89c15.58-9.29,31.84-17.37,47.98-25.62c8.12-4.15,16.22-8.35,24.2-12.76
	c3.97-2.2,7.92-4.45,11.82-6.77c1.94-1.16,3.88-2.34,5.8-3.53c2.11-1.31,3.49-2.65,2.11-5.35c-1.65-3.21-7.08-0.92-9.73-0.45
	c-3.8,0.66-7.62,1.22-11.44,1.71c-17.06,2.18-34.37,2.46-51.36,5.05C288.28,492.24,250.76,500.29,214.98,513.73z M498.47,572.26
	c-0.59,1.13-1.36,2.23-1.98,3.28c-1.87,3.15-3.87,6.23-5.98,9.23c-7.7,10.92-16.93,20.74-27.27,29.19
	c-10.29,8.41-21.7,15.47-33.83,20.9c-11.57,5.17-25.47,10.63-28.51,22.93c-1.22,4.95-0.34,10.23-1.41,15.22
	c-2.27,10.59-12.38,17.27-21.28,23.44c-46.94,32.55-81.69,82.29-96.1,137.56c-1,3.84-1.8,8.29,0.57,11.46
	c1.86,2.5,5.16,3.42,8.25,3.82c25.81,3.42,48.02-16.98,66.02-35.79c19.84-20.74,39.69-41.48,59.53-62.21
	c1.89-1.97,6.17-8.65,9.22-7.27c1.62,0.74,0.08,5.25,0.2,6.89c0.15,2.07,0.74,4.4,2.67,5.5c3.82,2.18,10.67,1.06,14.64-0.03
	c5.04-1.38,9.68-3.99,13.84-7.12c9.15-6.89,16.39-16.3,22.15-26.12c6.2-10.57,11.82-21.5,16.71-32.73
	c5.9-13.55,10.76-27.57,14.23-41.95c3.41-14.16,5.45-28.67,5.66-43.24c0.11-7.22-0.24-14.45-1.08-21.62
	c-0.42-3.59-0.97-7.17-1.64-10.73c-0.59-3.12-0.78-7.27-3.17-9.61c-0.35-0.35-0.72-0.7-1.17-0.9c-0.57-0.26-1.23-0.25-1.86-0.24
	c-2.35,0.05-4.21,1.52-5.45,3.48c-1.1,1.75-1.71,3.4-2.38,5.3C498.9,571.37,498.7,571.82,498.47,572.26z M424.01,272.56
	c-0.41-2.53-0.62-5.23-2.14-7.29c-1.97-2.65-5.62-3.45-8.91-3.28c-14.65,0.77-24.42,20.24-16.28,32.45
	c-12.6,2.47-23.94,10.71-30.19,21.92c-2.82,5.05-4.65,10.86-3.94,16.6c1.72,13.97,18.14,22.16,32.08,20.19
	c11.69-1.65,22.22-6.85,31.43-14.1c5.6-4.4,10.7-9.39,15.77-14.37c2.55-2.51,5.1-5.03,7.7-7.49c2.52-2.38,5.45-4.52,7.68-7.17
	c0.83-0.98,1.58-2.07,1.94-3.3s0.31-2.64-0.4-3.71c-1.01-1.54-4.03-1.71-5.66-2.22C439.67,296.56,426.45,287.35,424.01,272.56z"/>
</svg>
