<?xml version="1.0" encoding="utf-8"?>
<!-- Generator: Adobe Illustrator 21.0.0, SVG Export Plug-In . SVG Version: 6.00 Build 0)  -->
<svg version="1.1" id="Layer_1" xmlns="http://www.w3.org/2000/svg" xmlns:xlink="http://www.w3.org/1999/xlink" x="0px" y="0px"
	 viewBox="0 0 432 432" style="enable-background:new 0 0 432 432;" xml:space="preserve">
<style type="text/css">
	.st0{fill:none;}
	.st1{stroke:#000000;stroke-width:0.6214;stroke-linecap:square;}
</style>
<g>
	<path d="M227.9,290.2l42.2-56.9c1.8-1.8-3.7-7.3-5.5-5.5L207.7,270l-14.7-71.6c0-1.8-7.3-1.8-9.2,0l-11,69.7L116,227.8
		c-1.8-1.8-7.3,3.7-5.5,5.5l42.2,56.9l-69.7,11c-1.8,0-1.8,7.3,0,9.2l69.7,11l-42.2,58.7c-1.8,1.8,3.7,7.3,5.5,5.5l56.9-42.2
		l11,69.7c0,1.8,7.3,1.8,9.2,0l11-69.7l56.9,42.2c1.8,1.8,7.3-3.7,5.5-5.5l-42.2-56.9l69.7-11c1.8,0,1.8-7.3,0-9.2L227.9,290.2z"/>
	<path d="M112.3,194.8c0,1.8,5.5,1.8,5.5,0l7.3-45.9l38.5,27.5c1.8,1.8,5.5-1.8,3.7-3.7l-25.7-38.5l45.9-7.3c1.8,0,1.8-5.5,0-5.5
		l-45.9-9.2l27.5-38.5c1.8-1.8-1.8-5.5-3.7-3.7L127,97.5l-7.3-45.9c0-1.8-5.5-1.8-5.5,0L105,97.5L66.4,70l-3.7,3.7l27.5,38.5
		l-45.9,7.3c-1.8,1.8-1.8,5.5,0,7.3l45.9,7.3l-27.5,38.5l3.7,3.7l38.5-27.5L112.3,194.8z"/>
	<path d="M407.8,156.2l-45.9-7.3l27.5-38.5c1.8-1.8-1.8-5.5-3.7-3.7l-38.5,27.5l-7.3-45.9c0-1.8-5.5-1.8-5.5,0l-7.3,45.9l-38.5-27.5
		c-1.8-1.8-5.5,1.8-3.7,3.7l27.5,38.5l-45.9,7.3c-1.8,0-1.8,5.5,0,5.5l45.9,7.3l-27.5,38.5c-1.8,1.8,1.8,5.5,3.7,3.7l38.5-27.5
		l7.3,45.9c0,1.8,5.5,1.8,5.5,0l7.3-45.9l38.5,27.5c1.8,1.8,5.5-1.8,3.7-3.7l-27.5-38.5l45.9-7.3
		C409.6,161.8,409.6,158.1,407.8,156.2z"/>
</g>
</svg>
