<?xml version="1.0" encoding="utf-8"?>
<!-- Generator: Adobe Illustrator 21.0.0, SVG Export Plug-In . SVG Version: 6.00 Build 0)  -->
<svg version="1.1" id="Layer_1" xmlns="http://www.w3.org/2000/svg" xmlns:xlink="http://www.w3.org/1999/xlink" 
	 viewBox="0 0 432 432" style="enable-background:new 0 0 432 432;" xml:space="preserve">
<style type="text/css">
	.st0{fill:none;}
	.st1{stroke:#000000;stroke-width:0.6214;stroke-linecap:square;}
</style>
<defs>
	<linearGradient id="GradientBot">
          <stop offset="0%" stop-color="#fff" stop-opacity="1" />
          <stop offset="65%" stop-color="#fff" stop-opacity=".5" />
		  <stop offset="100%" stop-color="#fff" stop-opacity="0" />
    </linearGradient>
	<linearGradient id="GradientTop">
          <stop offset="0%" stop-color="#fff" stop-opacity="0" />
          <stop offset="40%" stop-color="#fff" stop-opacity=".5" />
		  <stop offset="100%" stop-color="#fff" stop-opacity="1" />
    </linearGradient>
</defs>
<g className="star-1">
	<path d="M299.2,206.8c19.1,24.5,26.4,25.4,50.9,6.3c-24.5,19.1-25.4,26.4-6.3,50.9c-19.1-24.5-26.4-25.4-50.9-6.3
		C317.4,238.6,318.3,231.3,299.2,206.8z"/>
</g>
<g className="star-2">
	<path d="M131,167.1c-20.5,36.4-18.6,39.6,23.2,39.2c-41.8,0.5-43.6,3.7-22.3,39.7c-21.3-36-25-36-45.5,0.5
		c20.5-36.5,18.6-39.6-23.2-39.2c41.8-0.5,43.6-3.7,22.3-39.7C106.8,203.6,110.5,203.6,131,167.1z"/>
</g>
<g className="star-3">
	<path d="M261.7,211.5c-37.8,36.2-36.7,40.7,13.6,55.3c-50.3-14.6-53.6-11.5-41.2,39.4c-12.4-50.9-16.9-52.1-54.7-15.9
		c37.8-36.2,36.7-40.7-13.6-55.3c50.3,14.6,53.6,11.4,41.2-39.4C219.4,246.4,223.8,247.7,261.7,211.5z"/>
</g>
<g className="star-4">
	<path d="M239,124.9c46.2,6.7,55,0.1,61.7-46.1c-6.7,46.2-0.1,55,46.1,61.7c-46.2-6.7-55-0.1-61.7,46.1
		C291.8,140.4,285.2,131.6,239,124.9z"/>
</g>
<g className="star-5">
	<path d="M75.5,289.7c43.5,16.8,53.6,12.3,70.3-31.3c-16.7,43.6-12.3,53.6,31.3,70.3c-43.6-16.8-53.6-12.3-70.4,31.3
		C123.6,316.5,119.1,306.5,75.5,289.7z"/>
</g>
<g className="star-6">
	<path d="M209.1,156.5c9.8,3.1,11.9,2,15-7.8c-3.1,9.8-2,11.9,7.8,15c-9.8-3.1-11.9-2-15,7.8C220,161.7,218.9,159.6,209.1,156.5z"/>
</g>
<g className="star-7">
	<path d="M310.1,324.7c9.8,3.1,11.9,2,15-7.8c-3.1,9.8-2,11.9,7.8,15c-9.8-3.1-11.9-2-15,7.8C320.9,329.9,319.8,327.7,310.1,324.7z"
		/>
</g>
<g className="star-8">
	<path d="M165.8,365.4c9.8,3.1,11.9,2,15-7.8c-3.1,9.8-2,11.9,7.8,15c-9.8-3.1-11.9-2-15,7.8C176.7,370.6,175.5,368.5,165.8,365.4z"
		/>
</g>
<g className="star-9">
	<path d="M85.9,117.7c9.8,3.1,11.9,2,15-7.8c-3.1,9.8-2,11.9,7.8,15c-9.8-3.1-11.9-2-15,7.8C96.8,122.9,95.7,120.8,85.9,117.7z"/>
</g>
<g className="star-10">
	<path d="M151.5,73.9c18.2,18.5,24.3,18.5,42.8,0.3c-18.5,18.2-18.5,24.3-0.3,42.8c-18.2-18.5-24.3-18.5-42.8-0.3
		C169.7,98.6,169.7,92.4,151.5,73.9z"/>
</g>
<g className="star-11">
	<path d="M227,325.8c18.2,18.5,24.3,18.5,42.8,0.3c-18.5,18.2-18.5,24.4-0.3,42.8c-18.2-18.5-24.3-18.5-42.8-0.3
		C245.1,350.4,245.2,344.3,227,325.8z"/>
</g>
</svg>
