<?xml version="1.0" encoding="utf-8"?>
<!-- Generator: Adobe Illustrator 21.0.0, SVG Export Plug-In . SVG Version: 6.00 Build 0)  -->
<svg version="1.1" id="Layer_1" xmlns="http://www.w3.org/2000/svg" xmlns:xlink="http://www.w3.org/1999/xlink"
	 viewBox="0 0 432 432" style="enable-background:new 0 0 432 432;" xml:space="preserve">
<style type="text/css">
	.st0{fill:none;}
	.st1{stroke:#000000;stroke-width:0.6214;stroke-linecap:square;}
</style>
<g>
	<path d="M235.3,185.1C128.9,206.3,38,310.8,109.5,407.5c-94.8-119.9,23.2-216.6,118-243.7C250.7,167.6,252.7,171.5,235.3,185.1z"/>
	<path d="M266.2,24.5c23.2,137.3,5.8,131.5,90.9,21.3c-71.6,119.9-81.2,104.5,54.2,75.4c-131.5,44.5-127.7,27.1-5.8,92.8
		c-129.6-50.3-116.1-61.9-63.8,65.8c-67.7-119.9-50.3-119.9-92.8,11.6c25.1-137.3,40.6-125.7-77.4-52.2c108.3-87,112.2-69.6-25.1-89
		c137.3,1.9,129.6,17.4,36.8-85.1C287.5,156,272,161.8,266.2,24.5z"/>
</g>
</svg>
