<?xml version="1.0" encoding="utf-8"?>
<!-- Generator: Adobe Illustrator 16.0.0, SVG Export Plug-In . SVG Version: 6.00 Build 0)  -->
<!DOCTYPE svg PUBLIC "-//W3C//DTD SVG 1.1//EN" "http://www.w3.org/Graphics/SVG/1.1/DTD/svg11.dtd">
<svg version="1.1" id="by_FoxSister" xmlns="http://www.w3.org/2000/svg" xmlns:xlink="http://www.w3.org/1999/xlink" x="0px"
	 y="0px" width="725.068px" height="1025.445px" viewBox="0 0 725.068 1025.445" enable-background="new 0 0 725.068 1025.445"
	 xml:space="preserve">
<path id="by_FoxSister_1_" fill="#939598" d="M296.241,306.411l27.743,1.306l-15.191,18.521l1.041,23.097l-24.554-13.109
	l-27.697,12.887l6.056-23.499l-14.358-17.48l25.803-1.32l10.197-21.569L296.241,306.411z M583.456,147.321l-16.683,6.69
	c-0.373,0.15-37.947,15.291-84.4,40.081c-39.171,20.904-92.195,52.794-130.996,89.768c5.344,0.433,31.445,2.489,31.445,2.489
	l-45.71,46.748l5.017,70.241l-57.473-37.32L212.658,399.4l21.169-68.315l-47.596-45.364l69.521-2.594l33.001-63.502l13.672,32.812
	c8.78-15.786,26.487-40.018,49.095-70.484c20.256-27.298,41.338-51.202,62.659-71.047c26.865-25.007,54.229-43.64,81.33-55.38
	l19.153-8.298c0,0-22.795,42.329-32.763,77.68c18.658,0.479,58.888,2.946,85.205,14.954L583.456,147.321z M348.817,299.101
	c-3.818-0.309-39.984-3.513-40.486-3.585c-4.537-0.65-6.229-3.419-6.86-5.332l-14.254-34.209l-21.934,42.207l-42.015,1.567
	l28.094,26.776l-13.735,44.327l48.276-22.385l38.663,25.106l-3.306-46.288L348.817,299.101z M542.452,147.673
	c-31.156-7.908-80.207-7.328-80.207-7.328s10.122-40.289,20.323-61.231c-49.544,27.687-91.161,74.96-118.518,111.793
	c-28.921,38.938-49.325,70.342-54.183,79.649l3.825,8.922c12.327-20.084,68.579-108.672,124.115-146.555l-9.572,32.045
	c0,0,19.144-2.913,42.866-2.913c0,0-102.252,67.56-146.019,119.616c1.932,0.167,3.985,0.343,6.127,0.524
	c17.903-18.607,40.964-37.6,68.59-56.47c22.357-15.271,47.756-30.515,75.487-45.307
	C502.506,165.901,526.746,154.634,542.452,147.673z"/>
</svg>
