<?xml version="1.0" encoding="utf-8"?>
<!-- Generator: Adobe Illustrator 16.0.0, SVG Export Plug-In . SVG Version: 6.00 Build 0)  -->
<!DOCTYPE svg PUBLIC "-//W3C//DTD SVG 1.1//EN" "http://www.w3.org/Graphics/SVG/1.1/DTD/svg11.dtd">
<svg version="1.1" id="by_FoxSister" xmlns="http://www.w3.org/2000/svg" xmlns:xlink="http://www.w3.org/1999/xlink" x="0px"
	 y="0px" width="725.068px" height="1025.445px" viewBox="0 0 725.068 1025.445" enable-background="new 0 0 725.068 1025.445"
	 xml:space="preserve">
<path id="by_FoxSister_1_" fill="#939598" d="M526.244,116.745l-62.761,19.943l-30.057-44.792l-14.551,57.045l-61.745,1.165
	l31.038,24.76c-8.555,1.591-21.879,4.383-38.058,8.833c-25.922,7.13-64.2,20.036-99.355,41.021l-10.284,6.14l33.304,6.725
	c-6.192,2.939-14.206,6.921-23.285,11.854c-19.149,10.405-46.73,27.149-69.388,47.828l-8.094,7.387l10.938,0.651
	c0.861,0.051,15.89,0.943,26.913,1.423c-11.498,14.088-35.941,46.224-49.113,79.68l-5.049,12.823l11.766-7.177
	c17.453-10.647,45.109-26.946,57.326-32.924c1.061,10.522,3.531,31.359,7.256,40.935l3.089,7.945l4.98-6.918
	c0.513-0.713,46.432-64.446,66.768-88.099c1.901,7.954,4.647,19.188,5.967,23.368l3.415,10.815l5.126-10.116
	c0.347-0.685,31.659-62.212,55.915-89.295c0.129,5.54,0.3,11.695,0.473,14.472l0.874,13.975l7.626-11.743
	c0.158-0.244,11.722-18.029,21.336-31.744l-1.783,29.042l46.75-47.949l54.107,18.795l-13.936-56.902L526.244,116.745z
	 M506.945,132.589l-19.019,34.515c-0.052-0.217-0.097-0.434-0.152-0.65c-2.513-9.8-9.09-18.079-17.593-22.146
	c-0.016-0.008-0.032-0.014-0.048-0.021L506.945,132.589z M409.664,215.63c-5.747,7.278-15.293,21.345-22.112,31.592
	c-0.126-5.472-0.211-10.285-0.213-10.381l-0.17-9.707l-7.434,6.244c-20.544,17.257-48.337,66.912-60.064,88.901
	c-2.265-9.088-4.747-19.739-4.785-19.901l-1.865-8.009l-5.879,5.75c-13.084,12.8-52.974,67.22-67.898,87.771
	c-3.03-14.32-4.792-35.552-4.813-35.816l-0.448-5.484l-5.326,1.38c-7.04,1.826-35.457,18.443-52.474,28.616
	c18.094-37.313,47.514-70.746,47.844-71.118l6.816-7.697h-10.281c-4.286,0-15.826-0.58-24.709-1.063
	c41.257-34.218,94.132-56.304,94.698-56.538l14.035-5.807l-38.429-7.759c31.127-16.894,63.537-27.68,86.254-33.937
	c22.572-6.218,39.843-9.192,45.44-10.078l6.947,5.542c-14.057,4.4-74.687,23.527-93.734,31.993l18.855,10.627
	c0,0-65.196,33.596-92.561,52.45l21.255,4.848c0,0-23.654,24.978-35.652,45.203l27.082-9.256c0,0,0.343,13.027,1.028,24.683
	c0,0,45.252-59.992,67.534-77.133l5.828,16.503c0,0,31.196-57.298,69.934-78.896l1.029,10.627l14.914-14.688L409.664,215.63z
	 M412.436,182.384l-29.469-23.508l30.732-0.58C412.29,163.38,410.357,172.989,412.436,182.384z M417.596,237.467l2.47-40.22
	c2.916,3.553,7.023,7.541,12.47,10.587c3.269,1.828,6.689,3.101,10.209,3.839L417.596,237.467z M425.959,185.441
	c-3.803-7.176-1.071-19.918,1.7-33.094c3.975-18.897,9.618-38.102,9.618-38.102l18.474,27.528c-3.126,0.312-6.253,1.153-9.292,2.538
	c-8.273,3.77-14.243,12.66-15.209,22.647c-0.838,8.664,2.408,16.513,8.685,20.997c3.555,2.54,7.391,3.637,11.057,3.636
	c5.635,0,10.868-2.591,14.056-6.512c4.63-5.696,4.161-13.087-1.139-17.973c-2.367-2.181-6.054-2.031-8.235,0.336
	s-2.031,6.054,0.336,8.235c0.551,0.508,0.948,0.875-0.007,2.05c-1.577,1.94-5.502,3.452-9.292,0.745
	c-4.106-2.934-4.066-8.244-3.858-10.391c0.563-5.83,3.955-11.12,8.44-13.163c4.777-2.177,9.441-2.209,13.86-0.096
	c5.348,2.558,9.689,8.124,11.331,14.526c2.742,10.695-0.493,24.177-17.795,29.945C439.754,205.606,428.602,190.427,425.959,185.441z
	 M494.649,218.286l-27.818-9.663c8.494-3.756,14.87-9.524,18.574-16.881c0.672-1.334,1.246-2.716,1.731-4.134L494.649,218.286z"/>
</svg>
