<?xml version="1.0" encoding="utf-8"?>
<!-- Generator: Adobe Illustrator 23.0.2, SVG Export Plug-In . SVG Version: 6.00 Build 0)  -->
<svg version="1.1" id="shooting_star_6" xmlns="http://www.w3.org/2000/svg" xmlns:xlink="http://www.w3.org/1999/xlink" x="0px"
	 y="0px" viewBox="0 0 864 864" style="enable-background:new 0 0 864 864;" xml:space="preserve">
<path d="M530.21,343.37l-152-0.01l-99.45,114.95L231.8,313.75L91.74,254.69l122.98-89.33l12.89-151.45l122.96,89.36l148.02-34.54
	l-46.98,144.56L530.21,343.37z M288.16,481.63l76.57,368.47l88.94-40.85c-34.42-110.48-120.33-380.48-120.33-380.48L288.16,481.63z
	 M388.39,364.35l-40.9,47.86L482.94,795.8l85.55-39.29l85.55-39.29l-202.7-352.71L388.39,364.35z M542.65,364.74l-69.54-0.18
	c0,0,148.83,241.11,210.2,339.21l88.94-40.85L542.65,364.74z"/>
</svg>
