<?xml version="1.0" encoding="utf-8"?>
<!-- Generator: Adobe Illustrator 23.0.2, SVG Export Plug-In . SVG Version: 6.00 Build 0)  -->
<svg version="1.1" id="shooting_star_12" xmlns="http://www.w3.org/2000/svg" xmlns:xlink="http://www.w3.org/1999/xlink" x="0px"
	 y="0px" viewBox="0 0 864 864" style="enable-background:new 0 0 864 864;" xml:space="preserve">
<path d="M570.51,261.56l-25.06-26.76c-6.15-6.56-14.84-10.13-23.83-9.78l-36.63,1.45c-24.1,0.95-39.99-24.78-28.34-45.9l17.7-32.1
	c4.34-7.87,5.05-17.25,1.93-25.68l-12.7-34.39c-8.35-22.62,11.21-45.69,34.9-41.14l36,6.92c8.83,1.7,17.96-0.53,25.02-6.1
	l28.78-22.71c18.93-14.94,46.92-3.46,49.91,20.47l4.55,36.38c1.12,8.92,6.05,16.92,13.53,21.91l30.49,20.36
	c20.06,13.39,17.79,43.56-4.05,53.8l-33.19,15.57c-8.14,3.82-14.22,10.99-16.66,19.64l-9.94,35.29
	C616.39,272,587,279.16,570.51,261.56z M400.99,203.52l4.1-14.56c1.01-3.57,3.51-6.53,6.87-8.1l13.7-6.42
	c9.01-4.22,9.95-16.67,1.67-22.2l-12.58-8.4c-3.09-2.06-5.12-5.36-5.58-9.04l-1.88-15.01c-1.23-9.87-12.78-14.61-20.59-8.45
	l-11.88,9.37c-2.91,2.3-6.68,3.22-10.33,2.52l-14.86-2.85c-9.77-1.88-17.85,7.64-14.4,16.98l5.24,14.19
	c1.29,3.48,0.99,7.35-0.8,10.6l-7.3,13.25c-4.81,8.71,1.75,19.33,11.7,18.94l15.12-0.6c3.71-0.15,7.3,1.33,9.83,4.03l10.34,11.04
	C386.16,216.05,398.29,213.1,400.99,203.52z M676.77,343.64l3.05-10.81c0.75-2.65,2.61-4.85,5.1-6.02l10.17-4.77
	c6.69-3.14,7.38-12.38,1.24-16.48l-9.34-6.24c-2.29-1.53-3.8-3.98-4.15-6.71l-1.39-11.14c-0.92-7.33-9.49-10.85-15.29-6.27
	l-8.82,6.96c-2.16,1.71-4.96,2.39-7.67,1.87l-11.03-2.12c-7.25-1.39-13.25,5.67-10.69,12.6l3.89,10.54
	c0.95,2.58,0.74,5.46-0.59,7.87l-5.42,9.83c-3.57,6.47,1.3,14.35,8.68,14.06l11.22-0.44c2.75-0.11,5.42,0.98,7.3,2.99l7.68,8.2
	C665.76,352.95,674.77,350.75,676.77,343.64z M637.35,453.03c-2.77,9.45-10.77,17.18-20.31,19.62c-3.37,13.94-3.71,28.13-6.82,42.31
	c-7.96,36.26-18.53,72.45-37.57,104.32c-19.04,31.87-47.37,59.34-82.47,71.43c-42.73,14.72-89.52,5.45-134.68,7.17
	c-20.87,0.8-42.82,4.49-58.86,17.87c-14.29,11.92-22.13,30.47-23.33,49.05c-1.19,18.57,3.77,37.14,11.66,54
	c3.7,7.89,7.51,18.6,0.77,24.13c-3.6,2.95-8.85,2.8-13.32,1.52c-16.28-4.67-26-20.9-33.91-35.87
	c-14.43-27.28-28.39-55.32-34.42-85.59c-8.23-41.31-0.74-85.56,20.63-121.85c21.37-36.3,56.43-64.31,96.54-77.16
	c18.07-5.79,37.19-8.65,54.26-16.94c39.49-19.2,61.04-69.09,47.96-111c-3.6-11.53-9.43-22.3-12.44-33.99
	c-9.62-37.27,11.95-77.12,43.03-99.82c12.77-9.33,27.49-16.58,43.22-18.14c12.84-1.27,31.24,1.73,40.74,11.54
	c9.7,10.02,4.23,20.67,1.57,32.52c-4.94,22,14.01,48.29,30.73,60.95c18.31,13.87,42.43,19.97,65.18,17.58
	c13.66-1.44,29.3-4.98,39.72,3.97c11.4,9.78,8.16,29.55-2.81,39.81s-26.71,13.3-41.62,15.1
	C637.54,432.76,640.11,443.58,637.35,453.03z M537.04,404.3c-13.92-18.6-23.54-45.01-19.31-68.7c2.92-16.36-8.5-34.62-21.28-14.67
	c-10.21,15.93-7.55,40.4-3.72,57.79c4.95,22.52,14.1,44.18,16.23,67.14c2.81,30.29-6.88,60.49-20.39,87.74
	c-7.66,15.46-16.91,30.67-30.56,41.22c-16.76,12.96-38.45,17.61-59.53,19.76c-21.08,2.15-42.53,2.21-63.03,7.56
	c-31.47,8.22-59.39,29.26-75.96,57.24c-2.88,4.87-5.48,10.11-5.82,15.76c-0.33,5.64,2.11,11.77,7.14,14.35
	c8.08,4.13,17.28-2.27,24.57-7.67c32.28-23.94,74.44-34.11,114.08-27.5c-5.15,1.29-6.31,8.85-3.13,13.11
	c3.18,4.25,8.78,5.82,14.02,6.68c32.29,5.3,66.05-6.73,90.78-28.15c24.74-21.42,41.01-51.42,50-82.88
	C566.47,509.49,571.69,450.61,537.04,404.3z M425.21,255.97c-10.7,8.23-19.76,18.53-26.82,30.02
	c-14.27,23.24-20.48,51.73-15.11,78.64c4,20.09,13.69,40.27,8.76,60.15c-4.33,17.45-19.19,30.38-34.94,39.06
	c-44.37,24.49-102.91,22.38-143.79-7.57s-60.5-87.12-44.01-135.04c5.48-15.92,16.01-31.75,32.22-36.27c3.28-0.91,7.16-1.2,9.73,1.02
	c1.88,1.62,2.59,4.2,3,6.66c2.35,14.04-1.04,31.17,9.89,40.3c2.47-5.51,9.86-7.35,15.6-5.48c5.74,1.87,10.13,6.46,14.04,11.07
	c7.68,9.05,14.54,18.87,23.17,27.02c8.63,8.15,19.51,14.67,31.37,15.22c6.03,0.28,12.74-1.43,16.04-6.49
	c1.42-2.18,2.06-4.76,2.5-7.32c1.69-9.83,0.65-20.11-2.99-29.4c-2.37-6.07-5.81-11.68-7.98-17.83c-8.35-23.73,4.61-50.92,24.7-66.07
	c20.09-15.15,45.72-20.64,70.64-24.1c11.64-1.61,25.07-2.31,33.45,5.94C455.38,246.02,432.07,250.69,425.21,255.97z M351.73,431.34
	c-3.09-4.98-10.18-4.83-16.04-5.06c-9.38-0.37-18.64-3.29-26.54-8.37c-6.5-4.18-12.15-9.82-19.31-12.74
	c-7.16-2.92-16.83-2.04-20.73,4.63c-4.91-7.32-12.76-12.59-21.39-14.37c-2.49-0.51-5.22-0.71-7.46,0.5
	c-4.23,2.29-4.6,8.24-3.54,12.93c2.6,11.5,10.39,21.28,19.63,28.61c12.56,9.96,28.23,15.76,44.18,16.97
	c13.78,1.04,36.64-0.91,47.82-9.95C352.21,441.39,354.34,435.55,351.73,431.34z"/>
</svg>
