<?xml version="1.0" encoding="utf-8"?>
<!-- Generator: Adobe Illustrator 23.0.2, SVG Export Plug-In . SVG Version: 6.00 Build 0)  -->
<svg version="1.1" id="shooting_star_7" xmlns="http://www.w3.org/2000/svg" xmlns:xlink="http://www.w3.org/1999/xlink" x="0px"
	 y="0px" viewBox="0 0 864 864" style="enable-background:new 0 0 864 864;" xml:space="preserve">
<path d="M501.46,235.38l-20.08-11.82c-8.58-5.05-18.94-6.13-28.38-2.94l-22.07,7.45c-25.31,8.54-50.24-13.84-44.46-39.92l5.04-22.75
	c2.15-9.72-0.02-19.91-5.97-27.9l-13.91-18.69c-15.95-21.43-2.36-52.06,24.23-54.62l23.19-2.24c9.91-0.96,18.92-6.17,24.69-14.3
	l13.48-19c15.45-21.79,48.78-18.33,59.44,6.16l9.29,21.36c3.97,9.13,11.72,16.09,21.23,19.06l22.24,6.95
	c25.5,7.97,32.51,40.73,12.51,58.43l-17.45,15.44c-7.46,6.6-11.68,16.12-11.57,26.08l0.26,23.3
	C553.47,232.14,524.48,248.93,501.46,235.38z M412.15,269.65c-12.2,20.87-11.31,48.69,2.19,68.74
	c10.91,16.2,28.84,27.05,38.15,44.21c9.12,16.81,8.61,37.36,4.7,55.96c-0.37,1.78-1.22,3.45-2.52,4.72
	c-3.86,3.74-8.09,1.19-12.09-0.16c-16.19-5.48-32.47,9.34-39.33,25c-10.98,25.08-8.93,54-2.69,80.65
	c10.7,45.62,33.27,88.41,64.9,122.99c6.29,6.88,15.77,14.03,24.07,8.77c3.29-2.08,5.26-5.68,5.77-9.54
	c1.05-7.92-2.73-14.8-6.22-21.51c-17.23-33.1-29.7-70.2-25.61-107.29c1.49-13.51,7.03-28.83,20.02-32.82
	c8.29-2.55,17.13,0.38,25.56,2.43c20.67,5.04,44.46,4.14,60.75-9.56c14.17-11.91,19.92-31.04,22.58-49.36
	c3.5-24.19,2.29-50.65-11.98-70.48c-21.93-30.48-69.71-39.01-82.18-74.43c11.07,2.5,22.33-7.29,24.05-18.5
	c3.54-23.11-26.62-46.56-46.91-51.64C451.94,231.98,423.56,250.11,412.15,269.65z M400.51,346.76c-10.61-15.85-8.59-45-36.89-40.58
	c-15.16,2.37-26.55,16.08-30.86,30.81c-4.32,14.73-2.95,30.44-1.54,45.72c-18.69-9.36-42.72,2.31-52.94,20.55
	c-10.21,18.24-9.58,40.6-5.79,61.16c11.87,64.55,50.88,120.52,91.31,172.22c28.67,36.66,59.85,75.36,64.16,121.7
	c1.43,15.35-1.3,30.95-8.11,44.78c-11.62,23.6-31.2,17.45-37.39,23.49c-6.2,6.04,2.38,20.42,12.12,22.64
	c9.75,2.22,19.77-2.45,27.83-8.35c33.28-24.35,45.84-69.72,40.88-110.66c-2.88-23.79-10.83-46.59-20.87-68.24
	c-8.75-18.86-19.29-31.87-31.57-47.77c-32.55-42.18-52.39-125.24-13.95-169.3c7.96-9.12,18.96-16.26,31.05-16.95
	c16.13-0.91,25.75-8.66,17.85-25.38C435.35,380.46,413.91,366.76,400.51,346.76z"/>
</svg>
