<?xml version="1.0" encoding="utf-8"?>
<!-- Generator: Adobe Illustrator 22.0.1, SVG Export Plug-In . SVG Version: 6.00 Build 0)  -->
<svg version="1.1" id="Layer_1" xmlns="http://www.w3.org/2000/svg" xmlns:xlink="http://www.w3.org/1999/xlink" x="0px" y="0px"
	 viewBox="0 0 136.5 120.9" style="enable-background:new 0 0 136.5 120.9;" xml:space="preserve">
<style type="text/css">
	.st0{fill:none;stroke:#000000;stroke-miterlimit:10;}
</style>
<g>
	<path d="M72.4,114.6c-0.8,0-0.7,0-1.5-0.1c-0.8-4.1-1.7-8.1-2.5-12.2c-1.8-9.6-3.5-19.1-5.1-28.7c-0.3-1.8-1-2.6-2.9-2.9
		c-4.1-0.5-8.2-1.4-12.2-2.6c-1.3-0.4-2.7-0.1-3.7,0.7c-4.8,3.8-9.6,7.5-14.6,11.1c-1.4,1-1.6,2.1-1.2,3.6c0.8,3.1,1.5,6.1,2.2,9.2
		c1.4,6.2,2.7,12.5,4.1,18.8c0.1,0.7,0.7,1.9-0.4,2.1c-0.9,0.2-0.9-1-1.2-1.6c-0.1-0.2-0.2-0.5-0.2-0.7
		c-3.5-10.7-7.1-21.5-10.7-32.2c-0.5-1.4-0.2-2.3,0.6-3.4c2.2-2.8,4.5-5.6,6.5-8.5c3.4-4.8,4.2-4.4,0.9-6.3
		c-5.9-3.2-11.2-7-14.9-12.5c-2.3-3.5-2.3-8.1,0.3-11.3c1.5-1.9,3.5-3.4,5.7-4.8c5.6-3.4,11.7-5.4,18-6.9c1.7-0.4,2.9-1.1,3.9-2.6
		c2.5-4.2,6-7.5,9.9-10.4C58,9,63.4,7.1,69.2,6c3.1-0.3,7.7,0.5,8.7,0.8c9.6,2.3,16.8,8.1,22.3,16.1c1,1.5,2.2,2.3,3.9,2.7
		c6.6,1.5,12.9,3.7,18.7,7.3c1.9,1.2,3.5,2.5,4.9,4.1c2.6,3.1,2.8,7.6,0.7,11c-0.4,0.6-0.7,1.2-1.1,1.7c-3.5,5.2-8.7,8.3-14,11.3
		c-2.7,1.6-2.7,1.5-0.9,3.9c2.7,3.7,5.4,7.4,8.2,11c0.8,1,1,2.3,0.6,3.4c-3.6,10.8-7.1,21.6-10.7,32.4c-0.3,0.8-0.2,2.2-1.4,2
		c-1.3-0.3-0.3-1.6-0.3-2.4c0-0.4,0.2-0.8,0.3-1.2c2-8.8,3.9-17.7,5.9-26.5c0.3-1.5,0.2-2.4-1.1-3.4c-5-3.8-10-7.7-15-11.6
		c-1-0.7-1.8-1-3.2-0.4c-3.9,1.7-8.2,2.4-12.5,2.7c-2.1,0.2-2.6,1-2.8,2.5c-1.5,8.8-3,17.5-4.6,26.3C74.5,104.7,74,109.8,72.4,114.6
		z M71.5,51c3.3,0.2,6.7-0.2,10-0.6c5-0.5,9.9-1.5,14.3-3.9c3.3-1.8,4.9-4.5,4.3-8.4c-1.3-9.4-5.9-16.8-13.5-22.4
		c-6.2-4.5-13.2-6.3-20.8-4.2C54,14.6,43.9,27.1,43.1,39.4c-0.1,1.9,0.5,3.7,1.8,5c1.7,1.7,3.7,2.8,5.9,3.6
		C57.6,50.4,64.5,50.8,71.5,51z"/>
	<path d="M72.8,13.5c4.4-0.1,5.3,1.4,3.2,5.2c-1.6,2.8-3.8,5.3-6.1,7.6c-6.2,6.1-12.7,11.8-20.4,15.9c-2.8,1.5-3.1,1.2-3-1.8
		C46.9,27.7,60.6,13.7,72.8,13.5z"/>
</g>
</svg>
