<?xml version="1.0" encoding="utf-8"?>
<!-- Generator: Adobe Illustrator 16.0.0, SVG Export Plug-In . SVG Version: 6.00 Build 0)  -->
<!DOCTYPE svg PUBLIC "-//W3C//DTD SVG 1.1//EN" "http://www.w3.org/Graphics/SVG/1.1/DTD/svg11.dtd">
<svg version="1.1" id="by_FoxSister" xmlns="http://www.w3.org/2000/svg" xmlns:xlink="http://www.w3.org/1999/xlink" x="0px"
	 y="0px" width="725.068px" height="1025.445px" viewBox="0 0 725.068 1025.445" enable-background="new 0 0 725.068 1025.445"
	 xml:space="preserve">
<path id="by_FoxSister_1_" fill="#939598" d="M508.927,182.114c-4.004-9.973-9.699-21.542-17.698-33.143
	c-12.531-18.171-28.124-32.668-46.347-43.091c-22.672-12.966-49.344-19.542-79.275-19.542s-56.604,6.575-79.275,19.542
	c-18.223,10.422-33.816,24.92-46.345,43.091c-8.005,11.608-13.701,23.183-17.706,33.161
	c-73.598,13.341-122.371,36.65-122.371,63.175c0,15.166,9.961,37.342,18.544,53.908c8.948,17.272,20.796,33.193,35.215,47.32
	c17.885,17.522,39.777,32.296,65.067,43.914c4.667,2.144,9.343,4.141,14.008,6.011c-6.725,8.368-14.141,20.614-19.2,37.687
	c-2.222,7.498,2.055,15.379,9.555,17.601c1.342,0.398,2.696,0.587,4.029,0.587c6.109,0,11.748-3.985,13.572-10.142
	c6.404-21.613,17.355-32.18,21.436-35.516c37.458,11.169,71.113,14.613,89.355,15.667v43.547c0,7.819,6.34,14.16,14.162,14.16
	s14.161-6.341,14.161-14.16v-43.55c18.238-1.056,51.83-4.499,89.221-15.637c4.108,3.367,15.018,13.937,21.403,35.489
	c1.825,6.157,7.462,10.143,13.572,10.142c1.332,0,2.688-0.188,4.029-0.587c7.498-2.222,11.776-10.103,9.555-17.601
	c-5.052-17.049-12.454-29.283-19.171-37.65c4.695-1.88,9.402-3.89,14.101-6.048c25.29-11.617,47.183-26.392,65.067-43.914
	c14.42-14.127,26.267-30.048,35.215-47.32c8.546-16.496,17.229-39.992,18.589-53.908
	C631.395,218.768,582.583,195.45,508.927,182.114z M256.776,159.657c24.728-35.455,61.343-53.432,108.831-53.432
	c47.488,0,84.104,17.977,108.832,53.432c13.281,19.043,19.531,38.39,22.076,48.228c-15.099,7.729-59.102,26.457-130.908,26.457
	c-46.753,0-81.467-8.089-102.355-14.876c-13.375-4.346-22.943-8.725-28.549-11.591C237.251,198.026,243.501,178.69,256.776,159.657z
	 M432.657,260.396c35.351-7.231,60.021-18.922,60.021-18.922l-10.425,58.182L432.657,260.396z M435.628,300.501
	c0,7.484-6.068,13.559-13.559,13.559c-7.484,0-13.56-6.075-13.56-13.559c0-7.49,6.075-13.56,13.56-13.56
	C429.56,286.941,435.628,293.011,435.628,300.501z M399.874,263.211l-26.99,50.847L337.6,263.211
	C337.6,263.211,365.651,265.706,399.874,263.211z M311.79,286.941c7.491,0,13.559,6.069,13.559,13.56
	c0,7.484-6.068,13.559-13.559,13.559c-7.484,0-13.559-6.075-13.559-13.559C298.231,293.011,304.305,286.941,311.79,286.941z
	 M250.859,299.656l-12.649-58.182c0,0,24.665,11.69,60.021,18.922L250.859,299.656z M196.28,203.925
	c-5.315,19.122,24.412,33.976,24.412,33.976l-88.784-1.609L196.28,203.925z M203.421,273.383c0,7.484-6.075,13.558-13.559,13.558
	c-7.49,0-13.559-6.074-13.559-13.558c0-7.491,6.069-13.559,13.559-13.559C197.346,259.824,203.421,265.893,203.421,273.383z
	 M228.042,370.186c-55.508-19.713-89.904-81.45-90.215-82.059c16.276,9.238,37.23,17.85,61.74,25.145
	c4.515,8.619,21.016,37.218,55.246,67.609C245.939,377.818,236.957,374.281,228.042,370.186z M311.793,395.274
	c-35.026-21.296-58.391-45.437-71.888-62.066c-3.429-4.225-6.406-8.186-8.967-11.788c20.565,4.623,42.901,8.332,66.533,10.824
	c1.497,5.527,7.069,24.856,16.623,44.063c4.033,8.106,8.297,15.199,12.745,21.231C322.124,396.92,317.088,396.175,311.793,395.274z
	 M366.91,400.497c-14.126-0.274-26.479-21.37-32.713-33.841c-5.983-11.97-10.322-24.292-12.866-32.351
	c14.401,0.976,29.189,1.502,44.277,1.502c15.814,0,31.305-0.573,46.361-1.641C407,356.49,390.034,400.473,366.91,400.497z
	 M429.278,393.457c-6.541,1.284-12.78,2.336-18.617,3.195c4.681-6.816,8.95-14.936,12.741-24.262
	c7.063-17.376,10.582-34.204,11.715-40.293c20.087-2.163,39.238-5.195,57.142-8.928
	C482.734,342.485,463.701,371.836,429.278,393.457z M503.217,370.186c-7.511,3.45-15.075,6.504-22.586,9.214
	c22.778-24.87,34.092-50.179,38.704-62.642c29.822-7.954,55.081-17.846,74.029-28.582
	C579.914,314.433,553.798,346.953,503.217,370.186z M521.386,273.383c0-7.491,6.069-13.559,13.56-13.559
	c7.484,0,13.559,6.068,13.559,13.559c0,7.484-6.074,13.558-13.559,13.558C527.455,286.941,521.386,280.868,521.386,273.383z
	 M509.033,237.901c0,0,29.727-14.854,24.412-33.976l64.371,32.367L509.033,237.901z"/>
</svg>
