<?xml version="1.0" encoding="utf-8"?>
<!-- Generator: Adobe Illustrator 22.0.1, SVG Export Plug-In . SVG Version: 6.00 Build 0)  -->
<svg version="1.1" id="Layer_1" xmlns="http://www.w3.org/2000/svg" xmlns:xlink="http://www.w3.org/1999/xlink" x="0px" y="0px"
	 viewBox="0 0 131.5 139.5" style="enable-background:new 0 0 131.5 139.5;" xml:space="preserve">
<style type="text/css">
	.st0{fill:none;stroke:#000000;stroke-miterlimit:10;}
</style>
<g>
	<path d="M52.4,93.1c0-7.1-0.1-14.2,0-21.3c0-2.4-0.6-4.4-1.8-6.5C47.4,60,44.3,54.5,41,49.1c-0.8-1.4-0.9-2.5-0.1-3.9
		c6.3-11.1,12.6-22.3,18.9-33.5c2.5-4.4,6.2-4.4,8.7-0.1C74.8,22.8,81.1,34,87.4,45.1c0.9,1.5,0.8,2.7-0.1,4.1
		c-3.3,5.4-6.4,10.9-9.6,16.3c-1.2,1.9-1.7,3.9-1.7,6.2c0.1,14.4,0,28.7,0.1,43.1c0,2.2-0.4,3.9-2.5,4.9c-0.3,0.2-0.6,0.5-0.9,0.7
		c-3.6,1.7-4.8,4.6-4.1,8.4c0.1,0.7,0.1,1.5,0,2.3c-0.4,2.4-1.8,3.8-4.2,3.9c-2.4,0-4.5-1.5-4.2-3.8c0.9-6.1-1.5-10-6.7-12.6
		c-1.2-0.6-0.9-1.8-0.9-2.8C52.4,108.3,52.4,100.7,52.4,93.1z M64.6,36.1c-4-0.2-9.6,2.3-12.4,5.6c-1.8,2.1-1.8,4.4-0.1,6.2
		c1.8,1.9,4.2,1.9,6.4,0c4.6-4,6.9-4,11.7,0c2,1.7,4.5,1.7,6.2,0.1c1.9-1.8,1.9-4.3-0.1-6.4C73,38.3,69.2,36.3,64.6,36.1z"/>
	<path d="M18.1,86c5.6-9.9,11.1-19.8,16.9-30c2.9,5,5.6,9.7,8.4,14.3c0.5,0.9,0.4,1.9,0.4,2.8c0,14,0,27.9,0,41.9
		c0,1.9-0.3,2.8-2.5,3.1c-5.7,0.7-11.3,1.7-17,2.6c-4.4,0.7-5,0-7.8-3.5c-6.3-8.1-8.9-17-7.7-27.2c0.5-4.3,0.1-8.6,0.1-12.9
		c0-0.9,0-1.7,0.2-2.6c0.6-2.3,2.2-3.7,4.6-3.4c2.4,0.2,3.8,1.7,3.8,4.2c0,3.5,0,7,0,10.5C17.7,85.9,17.9,86,18.1,86z"/>
	<path d="M111,85.9c0-3.3,0-6.6,0-9.9c0-3,1.5-4.8,4.1-4.9c2.5-0.1,4.5,1.8,4.6,4.8c0.1,9,0,18,0,27c0,0.5,0,1-0.2,1.4
		c-2.6,5.5-6,10.7-9.5,15.6c-1,1.4-2.7,1.2-4.3,1c-6.5-0.9-13-2-19.6-2.9c-1.4-0.2-1.4-1-1.4-2c0-14.6,0-29.3,0-43.9
		c0-0.6,0.1-1.4,0.5-1.9c2.7-4.6,5.4-9.2,8.3-14.1c5.7,10.2,11.3,20.1,16.9,30C110.6,86,110.8,86,111,85.9z"/>
</g>
</svg>
