<?xml version="1.0" encoding="utf-8"?>
<!-- Generator: Adobe Illustrator 16.0.0, SVG Export Plug-In . SVG Version: 6.00 Build 0)  -->
<!DOCTYPE svg PUBLIC "-//W3C//DTD SVG 1.1//EN" "http://www.w3.org/Graphics/SVG/1.1/DTD/svg11.dtd">
<svg version="1.1" id="by_FoxSister" xmlns="http://www.w3.org/2000/svg" xmlns:xlink="http://www.w3.org/1999/xlink" x="0px"
	 y="0px" width="725.068px" height="1025.445px" viewBox="0 0 725.068 1025.445" enable-background="new 0 0 725.068 1025.445"
	 xml:space="preserve">
<path id="by_FoxSister_1_" fill="#939598" d="M559.867,186.679c-10.353-8.365-25.087-16.462-42.611-23.417
	c-11.035-4.379-22.806-8.193-35.093-11.43c-2.793-7.163-6.495-15.089-11.365-23.042c-14.537-23.739-42.477-52.036-93.022-52.036
	s-78.485,28.297-93.022,52.036c-5.307,8.667-9.228,17.301-12.096,24.95c-9.779,2.802-19.196,5.976-28.13,9.522
	c-17.524,6.955-32.259,15.052-42.611,23.417c-11.96,9.664-18.024,19.495-18.024,29.221c0.643,9.448,5.893,53.194,95.625,108.576
	l-19.221,18.409l-2.015,29.542c-10.196,3.578-17.53,13.295-17.53,24.698c0,14.431,11.74,26.171,26.171,26.171
	s26.171-11.74,26.171-26.171c0-10.698-6.456-19.913-15.673-23.966l1.471-21.577l18.078-17.314
	c25.43,12.659,50.54,18.155,74.352,18.723v43.633c-9.708,3.83-16.599,13.298-16.599,24.351c0,14.431,11.74,26.171,26.171,26.171
	s26.171-11.74,26.171-26.171c0-11.053-6.891-20.521-16.599-24.351v-44.223c26.793-2.258,51.467-10.327,72.484-20.653l20.709,19.834
	l1.471,21.577c-9.217,4.053-15.673,13.268-15.673,23.966c0,14.431,11.74,26.171,26.171,26.171s26.171-11.74,26.171-26.171
	c0-11.403-7.334-21.121-17.53-24.698l-2.015-29.542l-21.69-20.774c10.638-6.445,19.955-13.275,27.656-19.842
	c27.845-23.741,58.441-57.671,68.258-78.299c0.915-2.575,1.416-5.262,1.416-8.069C577.892,206.174,571.827,196.343,559.867,186.679z
	 M266.921,405.933c-4.856,0-8.809-3.952-8.809-8.808c0-4.857,3.952-8.809,8.809-8.809c4.857,0,8.809,3.952,8.809,8.809
	C275.729,401.981,271.778,405.933,266.921,405.933z M495.626,388.316c4.856,0,8.809,3.952,8.809,8.809
	c0,4.856-3.952,8.808-8.809,8.808s-8.809-3.952-8.809-8.808C486.817,392.268,490.77,388.316,495.626,388.316z M283.338,168.114
	c2.609-8.729,7.024-20.457,14.19-32.053c18.294-29.605,45.293-44.616,80.247-44.616s61.953,15.011,80.247,44.616
	c6.15,9.955,10.275,20.007,12.971,28.175c1.771,5.37,0.416,15.486-9.826,19.006c-16.471,6.23-44.375,13.715-83.392,13.715
	c-20.374,0-37.649-2.08-51.563-4.814c8.268-39.351,49.337-84.871,49.337-84.871s-30.691,3.829-50.307,24.708
	c-19.082,20.312-26.787,41.677-29.56,51.742C289.035,181.267,280.159,177.223,283.338,168.114z M201.254,215.9
	c0-6.747,13.23-22.034,49.679-36.5c5.079-2.016,10.34-3.892,15.728-5.656c-0.837,3.747-1.501,9.729,7.34,16.562
	c-0.429-0.017-0.858-0.033-1.292-0.033c-17.991,0-32.627,14.636-32.627,32.626c0,8.997,3.66,17.154,9.57,23.062
	C216.412,235.601,201.254,223.138,201.254,215.9z M272.709,243.06c-11.117,0-20.161-9.044-20.161-20.161
	c0-11.117,9.044-20.161,20.161-20.161c11.116,0,20.16,9.044,20.16,20.161C292.869,234.016,283.825,243.06,272.709,243.06z
	 M282.102,254.141c13.425-4.044,23.233-16.516,23.233-31.242c0-9.389-3.991-17.858-10.36-23.816
	c15.108,5.152,36.682,10.387,64.65,12.032c-7.457,5.984-12.243,15.166-12.243,25.448c0,10.842,5.32,20.459,13.482,26.396
	C332.94,261.981,306.114,258.967,282.102,254.141z M380.892,429.783c-4.856,0-8.809-3.952-8.809-8.808
	c0-4.857,3.952-8.809,8.809-8.809s8.809,3.952,8.809,8.809C389.7,425.831,385.748,429.783,380.892,429.783z M380.009,256.725
	c-11.117,0-20.161-9.044-20.161-20.161s9.044-20.161,20.161-20.161s20.16,9.044,20.16,20.161S391.126,256.725,380.009,256.725z
	 M399.061,263.025c8.214-5.931,13.574-15.579,13.574-26.461c0-10.444-4.938-19.75-12.597-25.726
	c24.051-1.754,43.158-6.14,57.253-10.667c-5.72,5.88-9.252,13.898-9.252,22.729c0,16.088,11.709,29.485,27.05,32.139
	C451.729,259.446,425.882,262.174,399.061,263.025z M480.665,243.06c-11.116,0-20.16-9.044-20.16-20.161
	c0-11.117,9.044-20.161,20.16-20.161c11.117,0,20.161,9.044,20.161,20.161C500.826,234.016,491.782,243.06,480.665,243.06z
	 M511.492,246.164c-3.916,1.208-7.964,2.354-12.121,3.443c8.409-5.907,13.921-15.673,13.921-26.707
	c0-17.687-14.15-32.122-31.724-32.604c8.216-5.073,8.03-13.687,6.827-18.681c7.773,2.342,15.281,4.938,22.455,7.785
	c36.448,14.465,49.679,29.753,49.679,36.5C560.529,223.185,545.184,235.763,511.492,246.164z"/>
</svg>
