<?xml version="1.0" encoding="UTF-8"?>
<svg width="43px" height="7px" viewBox="0 0 43 7" version="1.1" xmlns="http://www.w3.org/2000/svg" xmlns:xlink="http://www.w3.org/1999/xlink">
    <!-- Generator: Sketch 53.2 (72643) - https://sketchapp.com -->
    <title>CHRISTA</title>
    <desc>Created with Sketch.</desc>
    <defs>
        <path d="M5.66,0.12 L5.66,1.3 L3.05,1.3 C2.3966634,1.3 1.92166815,1.47166495 1.625,1.815 C1.32833185,2.15833505 1.18,2.7199961 1.18,3.5 C1.18,4.2733372 1.3266652,4.83166495 1.62,5.175 C1.9133348,5.51833505 2.3899967,5.69 3.05,5.69 L5.66,5.69 L5.66,6.87 L3.05,6.87 C2.0633284,6.87 1.30833595,6.59166945 0.785,6.035 C0.26166405,5.47833055 0,4.633339 0,3.5 C0,2.3599943 0.26166405,1.51166945 0.785,0.955 C1.30833595,0.39833055 2.0633284,0.12 3.05,0.12 L5.66,0.12 Z M8.25,0.12 L8.25,2.87 L11.7,2.87 L11.7,0.12 L12.89,0.12 L12.89,6.87 L11.7,6.87 L11.7,4.05 L8.25,4.05 L8.25,6.87 L7.07,6.87 L7.07,0.12 L8.25,0.12 Z M18.16,0.12 C18.5400019,0.12 18.8666653,0.17499945 19.14,0.285 C19.4133347,0.39500055 19.6383325,0.54166575 19.815,0.725 C19.9916675,0.90833425 20.1216662,1.1233321 20.205,1.37 C20.2883337,1.6166679 20.33,1.873332 20.33,2.14 C20.33,2.3533344 20.3033336,2.56499895 20.25,2.775 C20.1966664,2.98500105 20.1133339,3.18166575 20,3.365 C19.8866661,3.54833425 19.7400009,3.7099993 19.56,3.85 C19.3799991,3.9900007 19.1600013,4.0966663 18.9,4.17 L20.47,6.87 L19.16,6.87 L17.62,4.26 L15.86,4.26 C15.7466661,4.26 15.69,4.3166661 15.69,4.43 L15.69,6.87 L14.51,6.87 L14.51,4.2 C14.51,3.8199981 14.5933325,3.5466675 14.76,3.38 C14.9266675,3.2133325 15.1966648,3.13 15.57,3.13 L18.2,3.13 C18.3666675,3.13 18.5099994,3.1033336 18.63,3.05 C18.7500006,2.9966664 18.8466663,2.9266671 18.92,2.84 C18.9933337,2.7533329 19.0483332,2.6533339 19.085,2.54 C19.1216669,2.4266661 19.14,2.3100006 19.14,2.19 C19.14,1.9499988 19.0650008,1.74166755 18.915,1.565 C18.7649992,1.38833245 18.5266683,1.3 18.2,1.3 L14.5,1.3 L14.5,0.12 L18.16,0.12 Z M22.84,0.12 L22.84,6.87 L21.66,6.87 L21.66,0.12 L22.84,0.12 Z M29.68,0.12 L29.68,1.3 L26.22,1.3 C25.9133318,1.3 25.6900007,1.37499925 25.55,1.525 C25.4099993,1.67500075 25.34,1.8666655 25.34,2.1 C25.34,2.2000005 25.3549998,2.29833285 25.385,2.395 C25.4150001,2.49166715 25.4683329,2.57833295 25.545,2.655 C25.621667,2.73166705 25.7233327,2.79166645 25.85,2.835 C25.9766673,2.87833355 26.139999,2.9 26.34,2.9 L27.92,2.9 C28.3800023,2.9 28.7566652,2.95833275 29.05,3.075 C29.3433348,3.19166725 29.5749991,3.3433324 29.745,3.53 C29.9150008,3.7166676 30.0316663,3.9299988 30.095,4.17 C30.1583336,4.4100012 30.19,4.6499988 30.19,4.89 C30.19,5.1766681 30.1500004,5.4399988 30.07,5.68 C29.9899996,5.9200012 29.8633342,6.12833245 29.69,6.305 C29.5166658,6.48166755 29.2950013,6.6199995 29.025,6.72 C28.7549986,6.8200005 28.4266686,6.87 28.04,6.87 L24.28,6.87 L24.28,5.69 L28.08,5.69 C28.4000016,5.69 28.6349992,5.61166745 28.785,5.455 C28.9350007,5.29833255 29.01,5.0966679 29.01,4.85 C29.01,4.7433328 28.9933335,4.63833385 28.96,4.535 C28.9266665,4.43166615 28.8700004,4.34166705 28.79,4.265 C28.7099996,4.18833295 28.6016673,4.1266669 28.465,4.08 C28.3283326,4.0333331 28.1566677,4.01 27.95,4.01 L26.38,4.01 C25.9266644,4.01 25.5566681,3.9533339 25.27,3.84 C24.9833319,3.7266661 24.7583341,3.5766676 24.595,3.39 C24.4316658,3.2033324 24.3183336,2.9933345 24.255,2.76 C24.1916663,2.5266655 24.16,2.2933345 24.16,2.06 C24.16,1.7799986 24.1983329,1.52166785 24.275,1.285 C24.351667,1.04833215 24.4749991,0.8433342 24.645,0.67 C24.8150008,0.4966658 25.033332,0.36166715 25.3,0.265 C25.566668,0.16833285 25.8866648,0.12 26.26,0.12 L29.68,0.12 Z M35.8,0.12 L35.8,1.3 L33.83,1.3 L33.83,6.87 L32.64,6.87 L32.64,1.3 L30.67,1.3 L30.67,0.12 L35.8,0.12 Z M36.88,6.87 L35.58,6.87 L37.95,0.87 C38.0766673,0.5499984 38.2549988,0.32500065 38.485,0.195 C38.7150011,0.06499935 39.0099982,0 39.37,0 C39.7233351,0 40.0149988,0.06499935 40.245,0.195 C40.4750012,0.32500065 40.6499994,0.5499984 40.77,0.87 L43.05,6.87 L41.74,6.87 L39.69,1.44 C39.6299997,1.2866659 39.5200008,1.21 39.36,1.21 C39.1999992,1.21 39.086667,1.2866659 39.02,1.44 L36.88,6.87 Z" id="path-1"></path>
    </defs>
    <g id="Page-1" stroke="none" stroke-width="1" fill="none" fill-rule="evenodd">
        <g id="CHRISTA" fill-rule="nonzero" fill="#fff">
            <use xlink:href="#path-1"></use>
            <use xlink:href="#path-1"></use>
        </g>
    </g>
</svg>