<?xml version="1.0" encoding="UTF-8"?>
<svg width="66px" height="52px" viewBox="0 0 66 52" version="1.1" xmlns="http://www.w3.org/2000/svg" xmlns:xlink="http://www.w3.org/1999/xlink">
    <!-- Generator: Sketch 53.2 (72643) - https://sketchapp.com -->
    <title>Artboard</title>
    <desc>Created with Sketch.</desc>
    <defs>
        <path d="M16.66,23.12 L16.66,24.3 L14.05,24.3 C13.3966634,24.3 12.9216682,24.471665 12.625,24.815 C12.3283318,25.1583351 12.18,25.7199961 12.18,26.5 C12.18,27.2733372 12.3266652,27.831665 12.62,28.175 C12.9133348,28.5183351 13.3899967,28.69 14.05,28.69 L16.66,28.69 L16.66,29.87 L14.05,29.87 C13.0633284,29.87 12.308336,29.5916695 11.785,29.035 C11.2616641,28.4783306 11,27.633339 11,26.5 C11,25.3599943 11.2616641,24.5116694 11.785,23.955 C12.308336,23.3983306 13.0633284,23.12 14.05,23.12 L16.66,23.12 Z M19.25,23.12 L19.25,25.87 L22.7,25.87 L22.7,23.12 L23.89,23.12 L23.89,29.87 L22.7,29.87 L22.7,27.05 L19.25,27.05 L19.25,29.87 L18.07,29.87 L18.07,23.12 L19.25,23.12 Z M29.16,23.12 C29.5400019,23.12 29.8666653,23.1749995 30.14,23.285 C30.4133347,23.3950005 30.6383325,23.5416657 30.815,23.725 C30.9916675,23.9083343 31.1216662,24.1233321 31.205,24.37 C31.2883337,24.6166679 31.33,24.873332 31.33,25.14 C31.33,25.3533344 31.3033336,25.5649989 31.25,25.775 C31.1966664,25.9850011 31.1133339,26.1816658 31,26.365 C30.8866661,26.5483342 30.7400009,26.7099993 30.56,26.85 C30.3799991,26.9900007 30.1600013,27.0966663 29.9,27.17 L31.47,29.87 L30.16,29.87 L28.62,27.26 L26.86,27.26 C26.7466661,27.26 26.69,27.3166661 26.69,27.43 L26.69,29.87 L25.51,29.87 L25.51,27.2 C25.51,26.8199981 25.5933325,26.5466675 25.76,26.38 C25.9266675,26.2133325 26.1966648,26.13 26.57,26.13 L29.2,26.13 C29.3666675,26.13 29.5099994,26.1033336 29.63,26.05 C29.7500006,25.9966664 29.8466663,25.9266671 29.92,25.84 C29.9933337,25.7533329 30.0483332,25.6533339 30.085,25.54 C30.1216669,25.4266661 30.14,25.3100006 30.14,25.19 C30.14,24.9499988 30.0650008,24.7416676 29.915,24.565 C29.7649992,24.3883325 29.5266683,24.3 29.2,24.3 L25.5,24.3 L25.5,23.12 L29.16,23.12 Z M33.84,23.12 L33.84,29.87 L32.66,29.87 L32.66,23.12 L33.84,23.12 Z M40.68,23.12 L40.68,24.3 L37.22,24.3 C36.9133318,24.3 36.6900007,24.3749993 36.55,24.525 C36.4099993,24.6750008 36.34,24.8666655 36.34,25.1 C36.34,25.2000005 36.3549998,25.2983329 36.385,25.395 C36.4150001,25.4916672 36.4683329,25.578333 36.545,25.655 C36.621667,25.7316671 36.7233327,25.7916665 36.85,25.835 C36.9766673,25.8783336 37.139999,25.9 37.34,25.9 L38.92,25.9 C39.3800023,25.9 39.7566652,25.9583328 40.05,26.075 C40.3433348,26.1916673 40.5749991,26.3433324 40.745,26.53 C40.9150008,26.7166676 41.0316663,26.9299988 41.095,27.17 C41.1583336,27.4100012 41.19,27.6499988 41.19,27.89 C41.19,28.1766681 41.1500004,28.4399988 41.07,28.68 C40.9899996,28.9200012 40.8633342,29.1283325 40.69,29.305 C40.5166658,29.4816676 40.2950013,29.6199995 40.025,29.72 C39.7549986,29.8200005 39.4266686,29.87 39.04,29.87 L35.28,29.87 L35.28,28.69 L39.08,28.69 C39.4000016,28.69 39.6349992,28.6116674 39.785,28.455 C39.9350008,28.2983326 40.01,28.0966679 40.01,27.85 C40.01,27.7433328 39.9933335,27.6383339 39.96,27.535 C39.9266665,27.4316662 39.8700004,27.3416671 39.79,27.265 C39.7099996,27.1883329 39.6016673,27.1266669 39.465,27.08 C39.3283326,27.0333331 39.1566677,27.01 38.95,27.01 L37.38,27.01 C36.9266644,27.01 36.5566681,26.9533339 36.27,26.84 C35.9833319,26.7266661 35.7583341,26.5766676 35.595,26.39 C35.4316658,26.2033324 35.3183336,25.9933345 35.255,25.76 C35.1916663,25.5266655 35.16,25.2933345 35.16,25.06 C35.16,24.7799986 35.1983329,24.5216679 35.275,24.285 C35.351667,24.0483322 35.4749991,23.8433342 35.645,23.67 C35.8150008,23.4966658 36.033332,23.3616672 36.3,23.265 C36.566668,23.1683328 36.8866648,23.12 37.26,23.12 L40.68,23.12 Z M46.8,23.12 L46.8,24.3 L44.83,24.3 L44.83,29.87 L43.64,29.87 L43.64,24.3 L41.67,24.3 L41.67,23.12 L46.8,23.12 Z M47.88,29.87 L46.58,29.87 L48.95,23.87 C49.0766673,23.5499984 49.2549988,23.3250006 49.485,23.195 C49.7150011,23.0649994 50.0099982,23 50.37,23 C50.7233351,23 51.0149988,23.0649994 51.245,23.195 C51.4750012,23.3250006 51.6499994,23.5499984 51.77,23.87 L54.05,29.87 L52.74,29.87 L50.69,24.44 C50.6299997,24.2866659 50.5200008,24.21 50.36,24.21 C50.1999992,24.21 50.086667,24.2866659 50.02,24.44 L47.88,29.87 Z" id="path-1"></path>
    </defs>
    <g id="Artboard" stroke="none" stroke-width="1" fill="none" fill-rule="evenodd">
        <g id="CHRISTA" fill-rule="nonzero" fill="#000000">
            <use xlink:href="#path-1"></use>
            <use xlink:href="#path-1"></use>
        </g>
    </g>
</svg>