<?xml version="1.0" encoding="utf-8"?>
<!-- Generator: Adobe Illustrator 22.0.1, SVG Export Plug-In . SVG Version: 6.00 Build 0)  -->
<svg version="1.1" id="Layer_1" xmlns="http://www.w3.org/2000/svg" xmlns:xlink="http://www.w3.org/1999/xlink" x="0px" y="0px"
	 viewBox="0 0 212.9 312.3"  style="enable-background:new 0 0 212.9 312.3;" xml:space="preserve">
	 <!-- viewBox="0 0 212.9 312.3" -->
<g>
	<path d="M58.2,148.2c-1.8-0.6-3.2-0.5-4.6,0.5c-0.6-2.4-1.2-4.7-1.8-6.9c-0.2-0.8-0.5-1.4-1.3-1.8c-2.8-1.5-3.6-5-1.7-7.5
		c0.9-1.2,1-2.2,0.8-3.5c-1.2-8.4-3-16.6-4.6-24.9c-0.4-2.2-0.8-4.3-1.3-6.5c-0.8,0-1,0.6-1.4,0.9c-3,2.8-5.9,5.7-8.9,8.5
		c-1.8,1.7-3.3,1.6-4.9-0.3c-3.5-4-7-8.1-10.4-12.1c-0.7-0.8-1.4-0.9-2.4-0.9c-5.2,0.1-8.6-4.7-6.7-9.5c0.1-0.6,2.7,2.2,4,3.6
		c0.8,0.8,1.2,0.8,2,0c2.4-2.3,2.4-2.3,0.2-4.7c-0.6-0.7-1.2-1.4-1.9-2c-1-0.9-0.5-1.1,0.4-1.4c5-1.4,9.7,3,8.8,8.1
		c-0.2,1.2,0,2,0.8,2.9c2.3,2.6,4.6,5.2,6.9,7.9c0.8,1,1.4,1.1,2.4,0.1c2.7-2.7,5.4-5.3,8.2-7.8c1.4-1.2,1.7-2.4,1.4-4.1
		c-0.6-3.5,0.9-5.4,4.4-6.1c1.5-0.3,3-0.4,4.5-0.5c11.1-0.6,22.2-0.6,33.3,0.3c1,0.1,1.9,0.3,2.8,0.7c2.2,1,3.2,2.7,2.7,5.1
		c-0.4,2.1,0.1,3.5,1.7,4.9c3.8,3.4,7.3,7,11,10.5c1.2,1.1,1.7,2.4,1.7,4c0,5,0.1,9.9,0.2,14.9c0,1,0.3,1.7,1.1,2.3
		c3.9,2.7,4.2,9.2-1.2,12.1c-0.9,0.5-1.1,0.2-1.1-0.7c0.1-1.7,0.1-3.3,0.2-5c0-0.8-0.2-1.2-1.1-1.2c-4.6,0-3.6-0.8-3.8,3.5
		c0,0.7,0,1.4-0.1,2.1c0,0.4,0.2,1-0.3,1.1c-0.4,0.1-0.8-0.3-1.1-0.5c-3.7-2.7-3.9-8.1-0.4-11.1c0.9-0.7,1.2-1.5,1.2-2.6
		c-0.1-4.1-0.2-8.3-0.3-12.4c0-1-0.1-2-0.9-2.7c-2.7-2.7-5.5-5.3-8.5-8.2c-0.6,2.9-1.1,5.6-1.6,8.2c-1.7,8.2-3.4,16.3-4.5,24.6
		c-0.1,0.9,0.1,1.5,0.6,2.2c2.1,2.5,1.5,6.3-1.4,7.9c-0.8,0.5-1.1,1-1.3,1.8c-0.5,1.9-0.9,3.8-1.4,5.6c-0.2,0.8-0.3,1.4-1.4,0.8
		c-1.1-0.6-2.3-0.4-3.6,0.1c0.7-2.5,1.2-4.8,1.8-7.1c0.3-1-0.2-1.6-0.5-2.4c-1-2.7-3.1-2.2-5-2.2c-3.4,0-6.9,0-10.3,0
		c-0.9,0-1.6,0.1-1.8,1.1c0,0.2-0.1,0.3-0.2,0.4c-1.9,1.3-1.1,3.1-0.7,4.7C57.3,144.6,57.7,146.3,58.2,148.2z M65.9,85.3
		c-0.5,0-1,0-1.5,0c-4.6,0.1-9.2,0.2-13.7,0.6c-2.7,0.2-4.4,1.8-3.9,3.9c2.2,9.8,4.5,19.6,6.8,29.4c0.5,2.2,1.7,3,3.9,3
		c5.5,0,11,0,16.5,0c2.8,0,3.8-0.8,4.4-3.5c2.2-9.6,4.4-19.2,6.6-28.8c0.3-1.5-0.1-2.4-1.2-3.2c-0.9-0.6-1.8-0.8-2.9-0.9
		C75.9,85.5,70.9,85.4,65.9,85.3z"/>
	<!-- <path d="M63.7,252.3c-8.4,0-16.8,0-25.2,0c-5.1,0-7.2-2.1-7.2-7.3c0-6.2,0.1-12.5,0-18.7c-0.1-16.5,12.4-30.6,28.9-32.4
		c16.5-1.8,32,9.4,35.3,25.6c0.5,2.3,0.7,4.6,0.6,7c0,6.2,0,12.5,0,18.7c0,4.9-2.1,7.1-6.9,7.1C80.7,252.3,72.2,252.3,63.7,252.3
		C63.7,252.3,63.7,252.3,63.7,252.3z M63.7,238.7c2,0,4-0.1,6-0.4c6.1-1.1,11.7-3.1,16-7.8c2.3-2.6,3.5-5.6,3-9.1
		c-0.6-4.7-3.5-7.9-7.4-10c-11.1-6.3-22.6-6.3-34-0.7c-3.8,1.8-6.7,4.7-8.2,8.8c-1.7,4.8,0.4,10,5.4,13.7
		C50.3,237.2,56.8,238.6,63.7,238.7z"/> -->
	<path d="M65.8,71c-7.1,0-14.1,0-21.2,0c-3.6,0-5.5-1.8-5.5-5.4c0-5.7-0.1-11.4,0-17.1c0.3-12.6,9.4-23.2,22-25.6
		c12.1-2.3,24.6,4.4,29.4,15.8c1.3,3,2,6.2,2,9.6c0.1,5.8,0.2,11.5,0.2,17.3c0,3.7-1.8,5.5-5.4,5.5C80.1,71,73,71,65.8,71z
		 M66.2,59.8c5.7-0.1,11.3-1.4,16.1-5.1c4.5-3.5,5.6-8.8,2.9-13.2c-1.2-2-2.9-3.5-4.9-4.6c-8.4-4.7-17-4.8-25.8-1.5
		c-2,0.7-3.8,1.8-5.4,3.3c-5.5,4.9-5.2,11.7,0.6,16.2C54.5,58.4,60.1,59.7,66.2,59.8z"/>
	<!-- <path d="M158.5,73.5c-7.5,0-15,0-22.5,0c-4.3,0-6.2-1.9-6.2-6.2c0-5.7-0.1-11.4,0-17.2c0.3-11.5,5.5-20.3,15.7-25.5
		c10.4-5.3,20.7-4.4,30.1,2.5c3.5,2.5,5.9,6.1,8.2,9.9c3.4,5.5,3.6,11.4,3.6,17.5c0,4.3,0,8.7,0,13c0,3.9-2.1,6-6,6
		C173.8,73.5,166.1,73.5,158.5,73.5C158.5,73.5,158.5,73.5,158.5,73.5z M158.2,32.8c-1,0.1-2,0.1-2.9,0.2c-6,0.7-11.6,2.3-15.9,6.8
		c-4.1,4.3-4.2,9.9-0.2,14.4c0.9,1,1.9,1.9,3,2.6c6.5,4.3,13.6,5.2,21.1,4.3c5-0.6,9.7-2.3,13.5-5.7c5-4.6,5.5-10.2,1.5-15
		c-2.1-2.5-4.8-4.5-8.1-5.5C166.3,33.6,162.9,32.9,158.2,32.8z"/> -->
	<!-- <path d="M164.4,252.3c-8.6,0-17.2,0-25.8,0c-4.4,0-6.6-2.2-6.6-6.6c0-6.6-0.1-13.1,0-19.7c0.1-9,3.3-16.8,9.8-23
		c4.1-3.8,8.8-6.6,14.4-8c18.4-4.7,35.2,6.4,39.5,22.8c0.7,2.5,1.1,5,1.1,7.5c0,6.9,0,13.8,0,20.7c0,4.1-2.3,6.3-6.5,6.3
		C181.7,252.3,173.1,252.3,164.4,252.3z M195.8,230.2c0-1.6,0-3.1,0-4.7c-0.1-6.3-2-12.1-5.6-17.3c-0.5-0.8-1.1-1.4-2.2-1.2
		c-5.1,0.9-10,2.6-14,6c-6.9,5.9-6.6,14.5,0.8,19.9c5.9,4.3,12.5,5.8,19.7,5.8c1.2,0,1.4-0.4,1.4-1.5
		C195.8,234.9,195.8,232.6,195.8,230.2z M155.5,248.9c1-0.1,1.9-0.2,2.9-0.4c5.8-1.5,10.2-6.6,10.4-12.2c0.3-6.5-3.4-11.9-9.5-13.8
		c-1.2-0.4-1.5-0.8-1.5-2c0.1-2.7,0-5.3,0-8c0-0.9,0.1-1.7,0.9-2.3c2.2-1.9,2-4.4,1-6.8c-0.8-2.1-2.9-1.8-4.6-1.8
		c-2,0.1-3.5,0.9-4.4,2.4c-0.9,1.7-0.9,4,0.6,5.3c1.9,1.6,1.6,3.5,1.7,5.4c0,1.6-0.1,3.1,0,4.7c0.2,1.9-0.4,2.8-2.3,3.4
		c-6.3,2.1-9.9,8.6-8.7,15C143.3,244.2,149,248.9,155.5,248.9z"/> -->
	<!-- <path d="M172.1,156c-2.6-1-2.6-1-1.9-3.7c0.6-2.4,1.2-4.8,1.9-7.2c0.3-1.1,0.1-1.4-1-1.5c-5.2-0.4-10.4-0.4-15.6-0.4
		c-2.9,0-5.9,0.3-8.8,0.3c-1.8,0-1.8,0.7-1.4,2.1c0.8,2.7,1.3,5.4,2.2,8c0.7,2.1-1.1,1.8-1.9,2.2c-1.1,0.5-0.8-0.7-1-1.3
		c-0.9-3.2-1.7-6.4-2.5-9.6c-0.2-0.9-0.6-1.6-1.4-2c-1.4-0.8-2-2.2-2.2-3.7c-1-8.6-1.9-17.2-2.8-25.8c-0.8-7.8-1.7-15.5-2.6-23.3
		c-0.4-3.3,0.8-5.3,4-6.2c2.5-0.7,5-0.6,7.6-0.8c11-0.7,22-0.5,32.9,0.3c1.5,0.1,3,0.3,4.3,1.1c1.9,1.2,2.7,2.7,2.5,5.1
		c-1.4,12.1-2.7,24.1-4,36.2c-0.5,4.5-0.9,8.9-1.4,13.4c-0.2,1.6-0.8,3-2.2,3.7c-1,0.5-1.2,1.3-1.5,2.2c-0.8,3.1-1.6,6.2-2.4,9.2
		C172.6,155,172.5,155.6,172.1,156z M158.7,88.9c-5.1-0.1-10.2,0.1-15.2,0.4c-1.5,0.1-2.9,0.3-4.1,1.1c-1,0.7-1.6,1.6-1.4,2.9
		c1.5,10.5,2.9,20.9,4.4,31.4c0.4,2.7,1.7,3.8,4.5,3.7c1.6-0.1,3.1-0.2,4.7-0.2c6.2-0.2,12.5-0.2,18.7,0.2c2.7,0.2,4.3-0.9,4.6-3.1
		c1.5-10.6,2.9-21.3,4.4-31.9c0.2-1.4-0.3-2.3-1.5-3.1c-1.1-0.6-2.2-1-3.4-1.1C169.1,89.1,163.9,88.8,158.7,88.9z"/> -->
	<!-- <path d="M63.9,263.4c5,0,10,0,15,0c1.5,0,3,0.2,4.3,1c1.6,0.9,2.1,2.4,1.1,3.9c-1.7,2.8-3.5,5.6-5.4,8.3c-1.5,2.1-3.7,3.2-6.4,3.2
		c-5.7,0-11.4,0-17.1,0c-3.3,0-5.7-1.4-7.4-4.2c-1.5-2.3-3-4.6-4.5-6.9c-1.4-2.2-0.7-4,1.7-4.9c1.2-0.4,2.4-0.5,3.6-0.5
		C53.9,263.4,58.9,263.4,63.9,263.4z M75.9,267.2c-1,0-1.9,0-2.9,0c-0.6,0-1,0.3-1,0.9c0,0.5,0,1.1,0.7,1.1c1.9,0,3.9,0,5.8,0
		c0.8,0,0.9-0.6,0.9-1.2c0-0.7-0.4-0.8-1-0.8C77.5,267.2,76.7,267.2,75.9,267.2z"/> -->
	<path d="M73.3,154.9c1.3,0.6,2.4,0.9,3.4,0.5c1.2-0.5,1.3-0.1,1.3,0.9c-0.1,2.6,0,5.3-0.1,7.9c0,0.8,0.1,1.2,0.9,1.6
		c3.1,1.8,4.5,4.6,4.6,8.1c0,0.6-0.3,0.9-0.9,0.9c-4.6,0-9.2,0-13.9,0c-0.4,0-0.9,0-0.9-0.6c0-1.3-0.3-2.7,0.4-3.8
		c1.2-1.8,2-4.1,4.6-4.7c0.8-0.2,0.6-0.8,0.6-1.3C73.4,161.2,73.3,158.2,73.3,154.9z"/>
	<path d="M53.9,154.9c1.2,0.6,2.3,0.9,3.3,0.5c1.4-0.6,1.4,0.2,1.3,1.2c0,2.6,0,5.2,0,7.7c0,0.8,0.3,1.2,1.1,1.5
		c2.7,1,5.1,5.5,4.6,8.3c-0.1,0.7-0.5,0.7-1,0.7c-4.6,0-9.1,0-13.7,0c-0.4,0-0.9,0.1-0.9-0.6c-0.4-3.1,2.1-7.4,4.3-8.3
		c1-0.4,1.2-1,1.2-1.9C53.8,161.1,53.9,158.1,53.9,154.9z"/>
	<!-- <path d="M164.5,262.9c2.1,0,4.3-0.1,6.4,0c3.8,0.2,5.1,2.5,3.5,5.9c-0.3,0.5-0.4,1.1-0.7,1.6c-0.7,0.9-1.5,1.4-2.5,0.4
		c-1-1.1-2-2.2-3.1-3.2c-1.5-1.5-3.5-1.6-4.9-0.2c-1.4,1.3-1.3,3.3,0.2,4.9c1.8,1.9,3.7,3.9,5.6,5.7c0.9,0.9,0.6,1.4-0.2,2
		c-0.5,0.3-1,0.5-1.6,0.5c-2,0-3.9,0.1-5.9-0.1c-2.2-0.1-3.7-1.3-4.5-3.5c-0.9-2.7-1.8-5.3-2.8-7.9c-1.3-3.4,0.1-5.8,3.8-6.1
		C159.9,262.8,162.2,262.9,164.5,262.9C164.5,262.9,164.5,262.9,164.5,262.9z"/> -->
	<!-- <path d="M155.4,168.2c0-3.7,0.5-7.5,0.2-11.2c-0.2-3-0.1-6-0.2-9c-0.1-1.3,0.3-1.8,1.6-1.7c1.5,0.2,3.4-0.6,4.4,0.3
		c1,0.9,0.3,2.8,0.3,4.3c0.1,7.1,0,14.3,0.1,21.4c0,0.9-0.2,1.2-1.1,1.3c-5.2,0.3-5.2,0.3-5.2-4.9
		C155.4,168.6,155.4,168.4,155.4,168.2C155.5,168.2,155.3,168.2,155.4,168.2z"/> -->
	<!-- <path d="M100.1,235.2c0-3.4,0.1-6.8,0-10.1c-0.1-1.7,0.5-2.2,2.1-2c0.6,0.1,1.2,0,1.8,0c2.3,0.2,3.8,1.6,3.8,3.9
		c0.1,5.6,0.1,11.2,0,16.8c0,2.4-1.4,3.8-3.8,3.8c-4.3,0-3.7,0.7-3.8-3.6C100.1,241,100.1,238.1,100.1,235.2z"/> -->
	<path d="M35.8,57c0,3,0,5.9,0,8.9c0,0.9-0.3,1.3-1.2,1.2c-0.6-0.1-1.3,0-1.9,0c-1.9-0.1-3-1.1-3.1-3c0-4.6,0-9.3,0-13.9
		c0-2.2,1.2-3.3,3.5-3.3c3.2,0,2.6-0.4,2.7,2.6C35.8,51.9,35.8,54.5,35.8,57z"/>
	<!-- <path d="M27.4,235.4c0,3.5-0.1,7,0,10.5c0,1.3-0.4,1.7-1.7,1.6c-0.8-0.1-1.7,0-2.5,0c-2-0.2-3.2-1.5-3.3-3.5c0-5.7,0-11.5,0-17.2
		c0-2.3,1.4-3.7,3.8-3.8c3.6-0.2,3.6-0.2,3.6,3.3C27.4,229.4,27.4,232.4,27.4,235.4z"/> -->
	<!-- <path d="M190.9,58.3c0-3.2,0-6.4,0-9.5c0-0.9,0.2-1.4,1.3-1.3c0.7,0.1,1.5-0.1,2.2,0c2,0.2,3.1,1.3,3.1,3.3
		c0.1,5.1,0.1,10.2,0,15.3c0,2.2-1.1,3-3.5,3.1c-3.1,0.1-3.1,0.1-3.1-2.9C190.9,63.6,190.9,61,190.9,58.3
		C190.9,58.3,190.9,58.3,190.9,58.3z"/> -->
	<!-- <path d="M126.1,58.3c0,3.2,0,6.4,0,9.5c0,1-0.3,1.5-1.3,1.4c-0.8-0.1-1.6,0-2.4-0.1c-1.7-0.1-2.8-1.2-2.8-2.9
		c-0.1-5.1-0.1-10.3,0-15.4c0-2,1.3-3.2,3.3-3.3c0.3,0,0.7,0,1,0c2.3,0,2.3,0,2.3,2.2C126.1,52.5,126.1,55.4,126.1,58.3z"/> -->
	<path d="M96.1,60.3c-0.2-3.2,0.3-6.9,0-10.5c-0.2-2.7,1.1-3.5,3.9-2.8c2.2,0.6,2,2.6,2.3,4c0,0.1,0,0.3,0,0.5
		c-0.1,4.2,0.2,8.1,0,12.1c-0.1,2.6-1,3.6-3.6,3.6c-0.3,0-0.7,0-1,0c-1.3,0.2-1.7-0.3-1.6-1.6C96.2,63.9,96.1,62.3,96.1,60.3z"/>
	<!-- <path d="M154.2,160c0,4.1,0,8.2,0,12.3c0,1.4-0.6,1.4-1.5,0.9c-1.7-0.9-3.1-2.2-3.1-4.3c-0.1-6-0.1-11.9,0-17.9
		c0-2.1,1.3-3.5,3.3-4.3c1-0.4,1.3-0.2,1.3,0.9C154.2,151.8,154.2,155.9,154.2,160C154.2,160,154.2,160,154.2,160z"/> -->
	<!-- <path d="M162.9,162.2c0-4.8,0-9.7,0-14.5c0-1,0.3-1.2,1.2-0.9c1.6,0.6,3.5,3.2,3.5,5.1c0,5.5,0,11.1-0.1,16.6
		c0,2.3-1.2,3.9-3.3,4.9c-1,0.4-1.4,0.3-1.4-0.9C162.9,169,162.9,165.6,162.9,162.2C162.9,162.2,162.9,162.2,162.9,162.2z"/> -->
	<!-- <path d="M156.6,293.1c0-4.2,3.3-7.5,7.6-7.5c4.7,0.1,7.4,3.2,7.5,7.3c0.1,4.3-3.2,7.6-7.2,7.7C159.9,300.8,156.6,297.5,156.6,293.1
		z M160.4,293.3c0,1.8,2,3.7,3.9,3.6c2,0.1,3.7-2.3,3.6-3.7c0-1.7-2-3.6-3.8-3.6C162.2,289.5,160.4,291.3,160.4,293.3z"/> -->
	<!-- <path d="M59.4,293.1c0-1.2-0.1-2.5,0-3.7c0.1-2.4,1.7-3.8,4.3-3.9c3.1-0.1,5,1,5.2,3.5c0.3,2.7,0.3,5.5,0,8.2
		c-0.3,2.5-2.2,3.7-5.4,3.5c-2.4-0.2-4-1.7-4.1-4.1C59.4,295.5,59.4,294.3,59.4,293.1z"/> -->
	<!-- <path d="M158.5,80.3c-2.2,0-4.4,0-6.6,0c-0.9,0-1.2-0.3-1.2-1.2c-0.2-3.6-0.2-3.6,3.4-3.6c3.6,0,7.3,0,10.9,0
		c1.1,0,1.4,0.3,1.4,1.4c-0.1,4.2,0.7,3.4-3.4,3.4C161.5,80.3,160,80.2,158.5,80.3C158.5,80.3,158.5,80.3,158.5,80.3z"/> -->
	<!-- <path d="M182.8,271.6c-0.2,2.7-2.2,4.5-4.3,3.6c-1.8-0.7-3.1-0.1-4.5,0.5c-3.8,1.7-3.8,1.7-6.7-1.3c-1-1.1-2.1-2.1-3.1-3.2
		c-0.9-0.9-1-2-0.1-2.9c0.9-0.9,2-0.8,2.9,0.1c1,1.1,2.1,2.1,3.1,3.2c1.7,1.8,4.7,1.1,5.7-1.2c0.8-2,2.2-2.8,4.3-2.5
		c0.7,0.1,1.6,0.3,1.6,1.1c0.1,0.6-0.8,0.6-1.3,0.9c-0.7,0.4-1.8,0.4-1.1,1.7c0.4,0.7,0.7,1.2,1.6,0.7
		C181.4,272.1,182.8,271.3,182.8,271.6z"/> -->
	<path d="M66,77.3c-2,0-4.1,0-6.1,0c-0.8,0-1.3-0.1-1.2-1.1c0.1-4-0.6-3.2,3.2-3.3c3.3-0.1,6.7,0,10,0c1.1,0,1.5,0.3,1.5,1.4
		c0,3,0,3-3,3C68.9,77.3,67.4,77.3,66,77.3z"/>
	<!-- <path d="M63.7,254.5c1.8,0,3.6,0,5.5,0c1.1,0,1.4,0.3,1.5,1.4c0.2,5.1,0.2,5.1-4.9,5.1c-2.5,0-4.9,0-7.4,0c-1,0-1.3-0.3-1.4-1.3
		c-0.2-5.1-0.3-5.1,4.8-5.1C62.4,254.5,63,254.5,63.7,254.5z"/> -->
	<!-- <path d="M164.3,254.5c1.4,0,2.9,0,4.3,0c2.6,0,2.6,0,2.6,2.7c0,3.8,0,3.7-3.8,3.7c-2.8,0-5.6-0.1-8.4,0c-1.1,0-1.4-0.3-1.4-1.4
		c-0.1-5.1-0.2-5.1,5-5C163.2,254.5,163.8,254.5,164.3,254.5z"/> -->
	<!-- <path d="M70.4,290.5c-0.6-4.5-2.5-6.2-6.6-6.2c-3.1,0-5.4,2.1-5.6,5.3c0,0.4,0.3,1-0.3,1.2c-0.5,0.2-0.8-0.3-1.2-0.6
		c-1.3-1-1.6-2.4-1.5-4c0-4,0-4,3.9-4c4,0,8,0.1,12.1,0c1.1,0,1.6,0.2,1.5,1.4c-0.1,1,0,2.1,0,3.1C72.5,288.2,71.2,291.9,70.4,290.5
		z"/> -->
	<!-- <path d="M191.2,40.1c0-1,0-2,0-2.9c0-1.2-0.1-2.2-1.3-3.1c-1.5-1.1-1.4-3.5,0-4.8c1.3-1.3,3.4-1.2,4.7,0.1c1.3,1.4,1.4,3.6-0.2,4.7
		c-1.2,0.8-1.3,1.7-1.3,2.9c0,2.4,0,4.8,0,7.3c0,0.6,0.1,1.3-0.9,1.3c-1.1,0-1.1-0.6-1.1-1.3C191.2,42.8,191.2,41.5,191.2,40.1
		C191.2,40.1,191.2,40.1,191.2,40.1z"/> -->
	<!-- <path d="M100.5,214.7c0-1.2,0-2.3,0-3.5c0-1.3-0.1-2.4-1.4-3.3c-1.7-1.2-1.6-3.9-0.1-5.3c1.4-1.4,4-1.3,5.3,0
		c1.5,1.5,1.5,4.2-0.2,5.4c-1.3,0.9-1.5,1.9-1.4,3.3c0.1,2.7,0,5.5,0,8.2c0,0.7,0.1,1.4-1,1.4c-1.2,0-1.2-0.6-1.2-1.5
		C100.5,217.9,100.5,216.3,100.5,214.7z"/> -->
	<!-- <path d="M24.8,214.7c0-1,0-1.9,0-2.9c0-1.6,0-2.9-1.4-4.2c-1.6-1.4-1.3-4,0.2-5.2c1.7-1.4,3.7-1.1,5.4,1c1.2,1.4,1,3.5-0.7,4.8
		c-1.1,0.8-1.3,1.6-1.3,2.8c0.1,2.9,0,5.7,0,8.6c0,0.7,0.1,1.4-1,1.4c-1,0-1.2-0.5-1.2-1.3C24.8,217.9,24.8,216.3,24.8,214.7z"/> -->
	<!-- <path d="M124,40.1c0-1,0-2,0-2.9c0-1.2,0-2.2-1.3-3.1c-1.5-1-1.4-3.5-0.1-4.8c1.2-1.2,3.5-1.2,4.7,0c1.3,1.3,1.3,3.7-0.2,4.8
		c-1.2,0.8-1.3,1.7-1.2,2.9c0,2.3,0.1,4.5,0,6.8c0,0.7,0.5,1.7-0.9,1.8c-1.5,0.1-1-1-1-1.7C123.9,42.6,124,41.3,124,40.1
		C124,40.1,124,40.1,124,40.1z"/> -->
	<path d="M34.4,29c1.5,0,2.5,0.6,3,1.9c0.5,1.3,0.3,2.6-0.9,3.5c-0.9,0.7-1.1,1.4-1.1,2.4c0,2.3,0,4.5,0,6.8c0,0.7,0.2,1.4-1,1.4
		c-1.1,0-0.8-0.8-0.8-1.3c0-2.4-0.1-4.7,0-7.1c0-0.9-0.2-1.6-1-2.2c-1.3-0.8-1.4-2.1-1-3.4C32.2,29.7,33.2,29,34.4,29z"/>
	<path d="M97.4,29c1.5,0,2.5,0.6,3,1.9c0.5,1.3,0.3,2.6-0.9,3.5c-0.9,0.7-1.1,1.4-1.1,2.4c0,2.3,0,4.5,0,6.8c0,0.7,0.2,1.4-1,1.4
		c-1.1,0-0.8-0.8-0.8-1.3c0-2.4-0.1-4.7,0-7.1c0-0.9-0.2-1.6-1-2.2c-1.3-0.8-1.4-2.1-1-3.4C95.2,29.7,96.2,29,97.4,29z"/>
	<path d="M75.8,148.6c1.7,0,3,1.4,3,3.1c0,1.6-1.4,3-3,2.9c-1.7,0-3.1-1.4-3.1-3.1C72.6,150,74.1,148.6,75.8,148.6z"/>
	<path d="M56.2,148.7c1.7,0,3.1,1.5,3.1,3.1c0,1.6-1.4,3-3,3c-1.7,0-3.1-1.3-3.1-3C53.2,150,54.5,148.7,56.2,148.7z"/>
	<!-- <path d="M43,271c3.8,3.1,3.8,7,3.3,11c-0.2,1.6-1.7,0.6-2.6,0.9c-1,0.4-0.7-0.6-0.7-1.1C43,278.2,43,274.7,43,271z"/> -->
	<!-- <path d="M84.6,271.3c0,3.7,0,7.1,0,10.6c0,0.6,0,1.3-0.9,0.9c-0.8-0.3-2.3,0.8-2.4-1C81.1,278,80.7,274.2,84.6,271.3z"/> -->
	<!-- <path d="M169.4,285.3c0,0.3-0.3,0.5-0.6,0.3c-2.8-1.5-5.4-1.8-8.1-0.6c-1,0.4-1,0-1.1-0.8c-0.1-2.6-0.2-2.6,2.5-2.6
		c1.9,0,3.8,0.1,5.6,0c1.3-0.1,1.8,0.3,1.6,1.6C169.4,283.8,169.4,284.5,169.4,285.3z"/> -->
	<!-- <path d="M147.8,160.1c0,0.9,0,1.7,0,2.6c0,0.9-0.3,1.1-1.1,0.9c-1.4-0.4-2.5-2-2.4-3.6c0.1-1.6,1.3-3.1,2.7-3.4
		c0.8-0.2,0.9,0.2,0.9,0.8C147.8,158.2,147.8,159.1,147.8,160.1C147.8,160.1,147.8,160.1,147.8,160.1z"/> -->
	<!-- <path d="M169.3,159.9c0-0.7,0-1.4,0-2.1c0-1.6,0.4-1.8,1.8-0.9c1.2,0.8,1.9,1.9,1.8,3.3c-0.1,1.4-0.8,2.5-2.1,3.2
		c-0.8,0.4-1.6,0.5-1.5-0.9C169.3,161.7,169.3,160.8,169.3,159.9C169.3,159.9,169.3,159.9,169.3,159.9z"/> -->
	<!-- <path d="M41,288.2c0-2.1,1.5-4,3.5-4.2c1-0.1,1.5,0.1,1.2,1.2c-0.5,1.9-1.1,3.7-1.5,5.6c-0.3,1.2-0.8,1.1-1.6,0.5
		C41.6,290.6,41,289.5,41,288.2z"/> -->
	<!-- <path d="M86.6,288.1c-0.1,0.8-0.1,1.6-0.6,2.2c-0.5,0.7-1.1,1.5-1.9,1.4c-0.8-0.1-0.7-1.1-0.9-1.8c-0.5-1.6-0.9-3.2-1.4-4.9
		c-0.3-0.9,0.1-1.2,0.9-1.1C84.7,284,86.6,286,86.6,288.1z"/> -->
	<path d="M70.8,110.2c0.1,0.5-0.1,0.8-0.4,1.2c-1.3,1.5-2.6,3-3.9,4.5c-0.5,0.6-0.8,0.4-1.1-0.1c-1.3-1.5-2.6-3-3.9-4.5
		c-0.4-0.4-0.4-0.9-0.3-1.4c0.8-5.2,1.7-10.4,2.5-15.6c0.1-0.7,0.4-1,1.2-1c3.1-0.2,3.1-0.2,3.6,2.8C69.2,100.8,70,105.5,70.8,110.2
		z"/>
	<path d="M66,86.2c3.5,0,3.5,0,3,3.4C68.5,92,68.5,92,66.1,92c-0.4,0-0.9-0.1-1.3,0c-1.2,0.2-1.7-0.3-1.7-1.5c0-0.3-0.1-0.5-0.1-0.8
		C62.4,86.2,62.4,86.2,66,86.2z"/>
	<!-- <path d="M53.5,225.7c-1,0-2-0.1-2.9,0c-1.2,0.1-1.5-0.4-1.2-1.5c0.5-1.8,2.2-3.1,4.2-3.2c1.9,0,3.8,1.3,4.3,3.1
		c0.3,1.2,0.1,1.7-1.3,1.6C55.5,225.6,54.5,225.6,53.5,225.7C53.5,225.6,53.5,225.6,53.5,225.7z"/> -->
	<!-- <path d="M73.7,225.6c-0.8,0-1.6,0-2.3,0c-2,0.1-2.2-0.2-1.4-2.1c0.8-1.8,2.3-2.6,4.2-2.5c2,0.1,3.2,1.1,3.9,3
		c0.4,1.1,0.3,1.8-1.1,1.7C75.9,225.6,74.8,225.7,73.7,225.6C73.7,225.7,73.7,225.6,73.7,225.6z"/> -->
	<path d="M74.3,48.9c-0.7,0-1.4,0-2.1,0c-1.6,0-1.9-0.4-1.1-1.9c0.6-1.3,2.2-2.1,3.7-2c1.5,0.2,2.8,1.3,3.1,2.8c0.2,0.7,0,1-0.7,1
		C76.2,48.9,75.3,48.9,74.3,48.9C74.3,48.9,74.3,48.9,74.3,48.9z"/>
	<path d="M57.5,48.9c-0.9,0-1.8,0-2.7,0c-0.8,0-1-0.3-0.8-1.1c0.4-1.7,1.9-2.8,3.7-2.8c1.7,0,3.1,1.2,3.5,2.8c0.2,0.8,0,1.1-0.8,1.1
		C59.3,48.9,58.4,48.9,57.5,48.9z"/>
	<!-- <path d="M149.4,49.7c-0.7,0-1.4,0-2.1,0c-0.5,0-1.3,0.3-1.6-0.2c-0.4-0.6,0.1-1.4,0.4-1.9c0.9-1.4,2.2-2.2,3.9-1.9
		c1.7,0.3,2.8,1.3,3.3,2.9c0.2,0.8,0.1,1.2-0.8,1.2C151.5,49.7,150.4,49.7,149.4,49.7z"/> -->
	<!-- <path d="M167.3,49.7c-0.7,0-1.4,0-2.1,0c-0.5,0-1.3,0.3-1.6-0.2c-0.4-0.6,0.1-1.4,0.4-1.9c0.9-1.4,2.2-2.2,3.9-1.9
		c1.7,0.3,2.8,1.3,3.3,2.9c0.2,0.8,0.1,1.2-0.8,1.2C169.4,49.7,168.4,49.7,167.3,49.7z"/> -->
	<!-- <path d="M183.3,225.6c-0.9,0-1.8,0-2.7,0c-1.8,0-1.6-0.9-1.1-1.8c0.8-1.8,2.4-2.9,4.3-2.8c1.8,0.1,3.6,1.5,4.1,3.1
		c0.3,0.9,0.2,1.5-1,1.5C185.6,225.6,184.4,225.6,183.3,225.6C183.3,225.6,183.3,225.6,183.3,225.6z"/> -->
	<!-- <path d="M155.4,223.1c6.7,0,12.2,5.5,12.1,12.2c0,6.6-5.5,12.2-12.1,12.2c-6.7,0-12.3-5.7-12.3-12.3
		C143.2,228.5,148.7,223.1,155.4,223.1z"/> -->
	<!-- <path d="M154.3,216c0-1,0-1.9,0-2.9c0.1-1.6,0-3-1.6-4.2c-1.6-1.1-1.3-3.5,0.2-5c1.4-1.4,3.4-1.9,5-0.3c1.5,1.5,1.2,4.5-0.6,5.9
		c-0.7,0.6-0.8,1.1-0.8,1.9c0,3,0,6,0,9c0,0.8,0,1.5-1.2,1.5c-1.2,0-1-0.7-1-1.4C154.3,219,154.3,217.5,154.3,216
		C154.3,216,154.3,216,154.3,216z"/> -->
	<!-- <path d="M158.5,97.6c2-0.6,2.4,0.5,2.6,2.1c0.7,4.7,1.5,9.3,2.3,14c0.4,2.3-1.9,6.2-4,7c-0.5,0.2-1,0.2-1.5,0.1
		c-1.8-0.5-4.6-4.3-4.3-6.1c0.8-5.4,1.8-10.7,2.6-16.1C156.4,96.8,157.8,97.9,158.5,97.6z"/> -->
	<!-- <path d="M158.5,90.4c0.2,0,0.4,0,0.5,0c1,0.2,2.6-0.6,3,0.4c0.5,1.3-0.1,2.9-0.8,4.1c-0.8,1.6-4.6,1.5-5.4,0
		c-0.7-1.2-0.7-2.6-0.9-3.9c-0.1-0.6,0.4-0.6,0.8-0.6C156.6,90.4,157.6,90.4,158.5,90.4C158.5,90.4,158.5,90.4,158.5,90.4z"/>
	<path d="M164.4,295.4c-1.6,0-2.4-0.9-2.5-2.2c-0.1-1.2,0.8-2.2,2.1-2.3c1.4-0.1,2.2,0.8,2.3,2.1
		C166.4,294.4,165.6,295.2,164.4,295.4z"/> -->
</g>
</svg>
