<?xml version="1.0" encoding="UTF-8"?>
<svg width="66px" height="52px" viewBox="0 0 66 52" version="1.1" xmlns="http://www.w3.org/2000/svg" xmlns:xlink="http://www.w3.org/1999/xlink">
    <!-- Generator: Sketch 53.2 (72643) - https://sketchapp.com -->
    <title>Artboard Copy</title>
    <desc>Created with Sketch.</desc>
    <defs>
        <path d="M17.52,23.12 L17.52,24.3 L14.06,24.3 C13.7533318,24.3 13.5300007,24.3749993 13.39,24.525 C13.2499993,24.6750008 13.18,24.8666655 13.18,25.1 C13.18,25.2000005 13.1949999,25.2983329 13.225,25.395 C13.2550002,25.4916672 13.308333,25.578333 13.385,25.655 C13.4616671,25.7316671 13.5633327,25.7916665 13.69,25.835 C13.8166673,25.8783336 13.979999,25.9 14.18,25.9 L15.76,25.9 C16.2200023,25.9 16.5966652,25.9583328 16.89,26.075 C17.1833348,26.1916673 17.4149992,26.3433324 17.585,26.53 C17.7550009,26.7166676 17.8716664,26.9299988 17.935,27.17 C17.9983337,27.4100012 18.03,27.6499988 18.03,27.89 C18.03,28.1766681 17.9900004,28.4399988 17.91,28.68 C17.8299996,28.9200012 17.7033342,29.1283325 17.53,29.305 C17.3566658,29.4816676 17.1350014,29.6199995 16.865,29.72 C16.5949987,29.8200005 16.2666686,29.87 15.88,29.87 L12.12,29.87 L12.12,28.69 L15.92,28.69 C16.2400016,28.69 16.4749993,28.6116674 16.625,28.455 C16.7750008,28.2983326 16.85,28.0966679 16.85,27.85 C16.85,27.7433328 16.8333335,27.6383339 16.8,27.535 C16.7666665,27.4316662 16.7100004,27.3416671 16.63,27.265 C16.5499996,27.1883329 16.4416674,27.1266669 16.305,27.08 C16.1683327,27.0333331 15.9966677,27.01 15.79,27.01 L14.22,27.01 C13.7666644,27.01 13.3966681,26.9533339 13.11,26.84 C12.8233319,26.7266661 12.5983342,26.5766676 12.435,26.39 C12.2716659,26.2033324 12.1583337,25.9933345 12.095,25.76 C12.0316664,25.5266655 12,25.2933345 12,25.06 C12,24.7799986 12.038333,24.5216679 12.115,24.285 C12.1916671,24.0483322 12.3149992,23.8433342 12.485,23.67 C12.6550009,23.4966658 12.873332,23.3616672 13.14,23.265 C13.406668,23.1683328 13.7266648,23.12 14.1,23.12 L17.52,23.12 Z M22.78,23.12 C23.1600019,23.12 23.4866653,23.1749995 23.76,23.285 C24.0333347,23.3950005 24.2583325,23.5416657 24.435,23.725 C24.6116676,23.9083343 24.7416663,24.1233321 24.825,24.37 C24.9083338,24.6166679 24.95,24.873332 24.95,25.14 C24.95,25.3933346 24.9116671,25.6466654 24.835,25.9 C24.758333,26.1533346 24.6333342,26.379999 24.46,26.58 C24.2866658,26.780001 24.0616681,26.9433327 23.785,27.07 C23.508332,27.1966673 23.1733353,27.26 22.78,27.26 L20.68,27.26 C20.5666661,27.26 20.51,27.3166661 20.51,27.43 L20.51,29.87 L19.33,29.87 L19.33,27.2 C19.33,26.8199981 19.4133325,26.5466675 19.58,26.38 C19.7466675,26.2133325 20.0166648,26.13 20.39,26.13 L22.82,26.13 C22.9866675,26.13 23.1299994,26.1033336 23.25,26.05 C23.3700006,25.9966664 23.4666663,25.9266671 23.54,25.84 C23.6133337,25.7533329 23.6683332,25.6550006 23.705,25.545 C23.7416669,25.4349994 23.76,25.3200006 23.76,25.2 C23.76,24.9533321 23.6850008,24.7416676 23.535,24.565 C23.3849993,24.3883325 23.1500016,24.3 22.83,24.3 L19.32,24.3 L19.32,23.12 L22.78,23.12 Z M26.06,29.87 L24.76,29.87 L27.13,23.87 C27.2566673,23.5499984 27.4349989,23.3250006 27.665,23.195 C27.8950012,23.0649994 28.1899982,23 28.55,23 C28.9033351,23 29.1949989,23.0649994 29.425,23.195 C29.6550012,23.3250006 29.8299994,23.5499984 29.95,23.87 L32.23,29.87 L30.92,29.87 L28.87,24.44 C28.8099997,24.2866659 28.7000008,24.21 28.54,24.21 C28.3799992,24.21 28.266667,24.2866659 28.2,24.44 L26.06,29.87 Z M36.87,23.12 C37.2500019,23.12 37.5766653,23.1749995 37.85,23.285 C38.1233347,23.3950005 38.3483325,23.5416657 38.525,23.725 C38.7016676,23.9083343 38.8316663,24.1233321 38.915,24.37 C38.9983338,24.6166679 39.04,24.873332 39.04,25.14 C39.04,25.3533344 39.0133336,25.5649989 38.96,25.775 C38.9066664,25.9850011 38.8233339,26.1816658 38.71,26.365 C38.5966661,26.5483342 38.4500009,26.7099993 38.27,26.85 C38.0899991,26.9900007 37.8700013,27.0966663 37.61,27.17 L39.18,29.87 L37.87,29.87 L36.33,27.26 L34.57,27.26 C34.4566661,27.26 34.4,27.3166661 34.4,27.43 L34.4,29.87 L33.22,29.87 L33.22,27.2 C33.22,26.8199981 33.3033325,26.5466675 33.47,26.38 C33.6366675,26.2133325 33.9066648,26.13 34.28,26.13 L36.91,26.13 C37.0766675,26.13 37.2199994,26.1033336 37.34,26.05 C37.4600006,25.9966664 37.5566663,25.9266671 37.63,25.84 C37.7033337,25.7533329 37.7583332,25.6533339 37.795,25.54 C37.8316669,25.4266661 37.85,25.3100006 37.85,25.19 C37.85,24.9499988 37.7750008,24.7416676 37.625,24.565 C37.4749993,24.3883325 37.2366683,24.3 36.91,24.3 L33.21,24.3 L33.21,23.12 L36.87,23.12 Z M41.55,23.12 L41.55,25.98 L42.2,25.98 C42.4866681,25.98 42.7216658,25.9716668 42.905,25.955 C43.0883343,25.9383332 43.2399994,25.9000003 43.36,25.84 C43.4800006,25.7799997 43.5816663,25.6950005 43.665,25.585 C43.7483338,25.4749995 43.8366662,25.3266676 43.93,25.14 L44.96,23.12 L46.23,23.12 L45.17,25.22 C45.0166659,25.5200015 44.8533342,25.769999 44.68,25.97 C44.5066658,26.170001 44.2800014,26.3299994 44,26.45 C44.1600008,26.4900002 44.2999994,26.5449997 44.42,26.615 C44.5400006,26.6850003 44.6516662,26.7716662 44.755,26.875 C44.8583339,26.9783339 44.9566662,27.101666 45.05,27.245 C45.1433338,27.3883341 45.2399995,27.5566657 45.34,27.75 L46.43,29.87 L45.11,29.87 L44.08,27.87 C43.9866662,27.6899991 43.8966671,27.5466672 43.81,27.44 C43.7233329,27.3333328 43.613334,27.2500003 43.48,27.19 C43.346666,27.1299997 43.180001,27.0916668 42.98,27.075 C42.779999,27.0583333 42.5200016,27.05 42.2,27.05 L41.55,27.05 L41.55,29.87 L40.37,29.87 L40.37,23.12 L41.55,23.12 Z M52.66,23.12 L52.66,24.3 L49.2,24.3 C48.8933318,24.3 48.6700007,24.3749993 48.53,24.525 C48.3899993,24.6750008 48.32,24.8666655 48.32,25.1 C48.32,25.2000005 48.3349999,25.2983329 48.365,25.395 C48.3950002,25.4916672 48.448333,25.578333 48.525,25.655 C48.6016671,25.7316671 48.7033327,25.7916665 48.83,25.835 C48.9566673,25.8783336 49.119999,25.9 49.32,25.9 L50.9,25.9 C51.3600023,25.9 51.7366652,25.9583328 52.03,26.075 C52.3233348,26.1916673 52.5549992,26.3433324 52.725,26.53 C52.8950009,26.7166676 53.0116664,26.9299988 53.075,27.17 C53.1383337,27.4100012 53.17,27.6499988 53.17,27.89 C53.17,28.1766681 53.1300004,28.4399988 53.05,28.68 C52.9699996,28.9200012 52.8433342,29.1283325 52.67,29.305 C52.4966658,29.4816676 52.2750014,29.6199995 52.005,29.72 C51.7349987,29.8200005 51.4066686,29.87 51.02,29.87 L47.26,29.87 L47.26,28.69 L51.06,28.69 C51.3800016,28.69 51.6149993,28.6116674 51.765,28.455 C51.9150008,28.2983326 51.99,28.0966679 51.99,27.85 C51.99,27.7433328 51.9733335,27.6383339 51.94,27.535 C51.9066665,27.4316662 51.8500004,27.3416671 51.77,27.265 C51.6899996,27.1883329 51.5816674,27.1266669 51.445,27.08 C51.3083327,27.0333331 51.1366677,27.01 50.93,27.01 L49.36,27.01 C48.9066644,27.01 48.5366681,26.9533339 48.25,26.84 C47.9633319,26.7266661 47.7383342,26.5766676 47.575,26.39 C47.4116659,26.2033324 47.2983337,25.9933345 47.235,25.76 C47.1716664,25.5266655 47.14,25.2933345 47.14,25.06 C47.14,24.7799986 47.178333,24.5216679 47.255,24.285 C47.3316671,24.0483322 47.4549992,23.8433342 47.625,23.67 C47.7950009,23.4966658 48.013332,23.3616672 48.28,23.265 C48.546668,23.1683328 48.8666648,23.12 49.24,23.12 L52.66,23.12 Z" id="path-1"></path>
    </defs>
    <g id="Artboard-Copy" stroke="none" stroke-width="1" fill="none" fill-rule="evenodd">
        <g id="SPARKS" fill-rule="nonzero" fill="#000000">
            <use xlink:href="#path-1"></use>
            <use xlink:href="#path-1"></use>
        </g>
    </g>
</svg>