<?xml version="1.0" encoding="UTF-8"?>
<svg width="42px" height="7px" viewBox="0 0 42 7" version="1.1" xmlns="http://www.w3.org/2000/svg" xmlns:xlink="http://www.w3.org/1999/xlink">
    <!-- Generator: Sketch 53.2 (72643) - https://sketchapp.com -->
    <title>SPARKS</title>
    <desc>Created with Sketch.</desc>
    <defs>
        <path d="M6.03,0.25 L6.03,1.43 L2.57,1.43 C2.2633318,1.43 2.0400007,1.50499925 1.9,1.655 C1.7599993,1.80500075 1.69,1.9966655 1.69,2.23 C1.69,2.3300005 1.70499985,2.42833285 1.735,2.525 C1.76500015,2.62166715 1.81833295,2.70833295 1.895,2.785 C1.97166705,2.86166705 2.0733327,2.92166645 2.2,2.965 C2.3266673,3.00833355 2.489999,3.03 2.69,3.03 L4.27,3.03 C4.7300023,3.03 5.1066652,3.08833275 5.4,3.205 C5.6933348,3.32166725 5.92499915,3.4733324 6.095,3.66 C6.26500085,3.8466676 6.38166635,4.0599988 6.445,4.3 C6.50833365,4.5400012 6.54,4.7799988 6.54,5.02 C6.54,5.3066681 6.5000004,5.5699988 6.42,5.81 C6.3399996,6.0500012 6.2133342,6.25833245 6.04,6.435 C5.8666658,6.61166755 5.64500135,6.7499995 5.375,6.85 C5.10499865,6.9500005 4.7766686,7 4.39,7 L0.63,7 L0.63,5.82 L4.43,5.82 C4.7500016,5.82 4.98499925,5.74166745 5.135,5.585 C5.28500075,5.42833255 5.36,5.2266679 5.36,4.98 C5.36,4.8733328 5.3433335,4.76833385 5.31,4.665 C5.2766665,4.56166615 5.2200004,4.47166705 5.14,4.395 C5.0599996,4.31833295 4.95166735,4.2566669 4.815,4.21 C4.67833265,4.1633331 4.5066677,4.14 4.3,4.14 L2.73,4.14 C2.2766644,4.14 1.9066681,4.0833339 1.62,3.97 C1.3333319,3.8566661 1.10833415,3.7066676 0.945,3.52 C0.78166585,3.3333324 0.66833365,3.1233345 0.605,2.89 C0.54166635,2.6566655 0.51,2.4233345 0.51,2.19 C0.51,1.9099986 0.54833295,1.65166785 0.625,1.415 C0.70166705,1.17833215 0.82499915,0.9733342 0.995,0.8 C1.16500085,0.6266658 1.383332,0.49166715 1.65,0.395 C1.916668,0.29833285 2.2366648,0.25 2.61,0.25 L6.03,0.25 Z M11.29,0.25 C11.6700019,0.25 11.9966653,0.30499945 12.27,0.415 C12.5433347,0.52500055 12.7683324,0.67166575 12.945,0.855 C13.1216675,1.03833425 13.2516662,1.2533321 13.335,1.5 C13.4183337,1.7466679 13.46,2.003332 13.46,2.27 C13.46,2.5233346 13.421667,2.7766654 13.345,3.03 C13.2683329,3.2833346 13.1433342,3.509999 12.97,3.71 C12.7966658,3.910001 12.571668,4.0733327 12.295,4.2 C12.0183319,4.3266673 11.6833353,4.39 11.29,4.39 L9.19,4.39 C9.0766661,4.39 9.02,4.4466661 9.02,4.56 L9.02,7 L7.84,7 L7.84,4.33 C7.84,3.9499981 7.9233325,3.6766675 8.09,3.51 C8.2566675,3.3433325 8.5266648,3.26 8.9,3.26 L11.33,3.26 C11.4966675,3.26 11.6399994,3.2333336 11.76,3.18 C11.8800006,3.1266664 11.9766663,3.0566671 12.05,2.97 C12.1233337,2.8833329 12.1783331,2.78500055 12.215,2.675 C12.2516668,2.56499945 12.27,2.4500006 12.27,2.33 C12.27,2.0833321 12.1950007,1.87166755 12.045,1.695 C11.8949992,1.51833245 11.6600016,1.43 11.34,1.43 L7.83,1.43 L7.83,0.25 L11.29,0.25 Z M14.57,7 L13.27,7 L15.64,1 C15.7666673,0.6799984 15.9449988,0.45500065 16.175,0.325 C16.4050011,0.19499935 16.6999982,0.13 17.06,0.13 C17.4133351,0.13 17.7049988,0.19499935 17.935,0.325 C18.1650011,0.45500065 18.3399994,0.6799984 18.46,1 L20.74,7 L19.43,7 L17.38,1.57 C17.3199997,1.4166659 17.2100008,1.34 17.05,1.34 C16.8899992,1.34 16.776667,1.4166659 16.71,1.57 L14.57,7 Z M25.38,0.25 C25.7600019,0.25 26.0866653,0.30499945 26.36,0.415 C26.6333347,0.52500055 26.8583324,0.67166575 27.035,0.855 C27.2116675,1.03833425 27.3416662,1.2533321 27.425,1.5 C27.5083337,1.7466679 27.55,2.003332 27.55,2.27 C27.55,2.4833344 27.5233336,2.69499895 27.47,2.905 C27.4166664,3.11500105 27.3333339,3.31166575 27.22,3.495 C27.1066661,3.67833425 26.9600009,3.8399993 26.78,3.98 C26.5999991,4.1200007 26.3800013,4.2266663 26.12,4.3 L27.69,7 L26.38,7 L24.84,4.39 L23.08,4.39 C22.9666661,4.39 22.91,4.4466661 22.91,4.56 L22.91,7 L21.73,7 L21.73,4.33 C21.73,3.9499981 21.8133325,3.6766675 21.98,3.51 C22.1466675,3.3433325 22.4166648,3.26 22.79,3.26 L25.42,3.26 C25.5866675,3.26 25.7299994,3.2333336 25.85,3.18 C25.9700006,3.1266664 26.0666663,3.0566671 26.14,2.97 C26.2133337,2.8833329 26.2683331,2.7833339 26.305,2.67 C26.3416668,2.5566661 26.36,2.4400006 26.36,2.32 C26.36,2.0799988 26.2850007,1.87166755 26.135,1.695 C25.9849992,1.51833245 25.7466683,1.43 25.42,1.43 L21.72,1.43 L21.72,0.25 L25.38,0.25 Z M30.06,0.25 L30.06,3.11 L30.71,3.11 C30.9966681,3.11 31.2316657,3.10166675 31.415,3.085 C31.5983342,3.06833325 31.7499994,3.0300003 31.87,2.97 C31.9900006,2.9099997 32.0916662,2.82500055 32.175,2.715 C32.2583337,2.60499945 32.3466662,2.4566676 32.44,2.27 L33.47,0.25 L34.74,0.25 L33.68,2.35 C33.5266659,2.6500015 33.3633342,2.899999 33.19,3.1 C33.0166658,3.300001 32.7900014,3.4599994 32.51,3.58 C32.6700008,3.6200002 32.8099994,3.67499965 32.93,3.745 C33.0500006,3.81500035 33.1616662,3.90166615 33.265,4.005 C33.3683338,4.10833385 33.4666662,4.23166595 33.56,4.375 C33.6533338,4.51833405 33.7499995,4.6866657 33.85,4.88 L34.94,7 L33.62,7 L32.59,5 C32.4966662,4.8199991 32.4066671,4.6766672 32.32,4.57 C32.2333329,4.4633328 32.123334,4.3800003 31.99,4.32 C31.856666,4.2599997 31.690001,4.22166675 31.49,4.205 C31.289999,4.18833325 31.0300016,4.18 30.71,4.18 L30.06,4.18 L30.06,7 L28.88,7 L28.88,0.25 L30.06,0.25 Z M41.17,0.25 L41.17,1.43 L37.71,1.43 C37.4033318,1.43 37.1800007,1.50499925 37.04,1.655 C36.8999993,1.80500075 36.83,1.9966655 36.83,2.23 C36.83,2.3300005 36.8449998,2.42833285 36.875,2.525 C36.9050001,2.62166715 36.9583329,2.70833295 37.035,2.785 C37.111667,2.86166705 37.2133327,2.92166645 37.34,2.965 C37.4666673,3.00833355 37.629999,3.03 37.83,3.03 L39.41,3.03 C39.8700023,3.03 40.2466652,3.08833275 40.54,3.205 C40.8333348,3.32166725 41.0649991,3.4733324 41.235,3.66 C41.4050008,3.8466676 41.5216663,4.0599988 41.585,4.3 C41.6483336,4.5400012 41.68,4.7799988 41.68,5.02 C41.68,5.3066681 41.6400004,5.5699988 41.56,5.81 C41.4799996,6.0500012 41.3533342,6.25833245 41.18,6.435 C41.0066658,6.61166755 40.7850013,6.7499995 40.515,6.85 C40.2449986,6.9500005 39.9166686,7 39.53,7 L35.77,7 L35.77,5.82 L39.57,5.82 C39.8900016,5.82 40.1249992,5.74166745 40.275,5.585 C40.4250007,5.42833255 40.5,5.2266679 40.5,4.98 C40.5,4.8733328 40.4833335,4.76833385 40.45,4.665 C40.4166665,4.56166615 40.3600004,4.47166705 40.28,4.395 C40.1999996,4.31833295 40.0916673,4.2566669 39.955,4.21 C39.8183326,4.1633331 39.6466677,4.14 39.44,4.14 L37.87,4.14 C37.4166644,4.14 37.0466681,4.0833339 36.76,3.97 C36.4733319,3.8566661 36.2483341,3.7066676 36.085,3.52 C35.9216658,3.3333324 35.8083336,3.1233345 35.745,2.89 C35.6816663,2.6566655 35.65,2.4233345 35.65,2.19 C35.65,1.9099986 35.6883329,1.65166785 35.765,1.415 C35.841667,1.17833215 35.9649991,0.9733342 36.135,0.8 C36.3050008,0.6266658 36.523332,0.49166715 36.79,0.395 C37.056668,0.29833285 37.3766648,0.25 37.75,0.25 L41.17,0.25 Z" id="path-2"></path>
    </defs>
    <g id="Page-2" stroke="none" stroke-width="1" fill="none" fill-rule="evenodd">
        <g id="SPARKS" fill-rule="nonzero" fill="#fff">
            <use xlink:href="#path-2"></use>
            <use xlink:href="#path-2"></use>
        </g>
    </g>
</svg>