<?xml version="1.0" encoding="utf-8"?>
<!-- Generator: Adobe Illustrator 22.0.1, SVG Export Plug-In . SVG Version: 6.00 Build 0)  -->
<svg version="1.1" id="Layer_1" xmlns="http://www.w3.org/2000/svg" xmlns:xlink="http://www.w3.org/1999/xlink" x="0px" y="0px"
	 viewBox="0 0 192.8 199.1" style="enable-background:new 0 0 192.8 199.1;" xml:space="preserve">
<g>
	<path d="M167.1,76.1c0,7.4,0.2,14.8-0.1,22.2c-0.4,11.2-7.2,17.9-18.5,18.1c-12.5,0.2-25.1,0-37.6,0.2c-2.5,0-6.6-1.7-6.9,2.6
		c-0.3,4.5,3.9,3.1,6.4,3.2c13.7,0.6,13.7,0.5,13.7,14.3c0,20.9,0,20.9-20.7,20.9c-9.7,0-19.4-0.3-29.1,0.1c-5.4,0.2-7-1.8-6.7-6.9
		c0.3-6.5,0.5-13.1,0-19.7c-0.5-6.5,1.4-9.7,8.4-8.7c2.5,0.4,5.1,0.1,7.7,0c2-0.1,4.2,0,4.2-2.9c0-2.9-2.2-2.9-4.2-2.9
		c-6.6,0-13.1,0-19.7,0c-7.1,0-14.3,0.2-21.4-0.1c-10.3-0.4-17.5-6.8-17.8-17c-0.5-15.7-0.5-31.4,0-47c0.3-10.6,7.4-16.9,18.6-17.1
		c14-0.3,27.9-0.1,41.9-0.1c20.1,0,40.3-0.1,60.4,0c15.2,0.1,21.3,6.2,21.4,21.3C167.2,63,167.2,69.5,167.1,76.1
		C167.2,76.1,167.2,76.1,167.1,76.1z M94.8,107.9c17.1,0,34.2,0.1,51.3,0c9.7-0.1,12.4-2.7,12.5-12.1c0.2-13.4,0.2-26.8,0-40.2
		c-0.1-9.3-2.6-11.8-11.8-11.9c-33.9-0.1-67.9-0.1-101.8,0c-8.9,0-11.6,2.9-11.7,12c-0.1,13.1-0.1,26.2,0,39.4
		c0.1,9.9,2.9,12.7,12.7,12.8C62.2,108,78.5,107.9,94.8,107.9z"/>
	<path d="M62.4,168.6c-4.2-1.6,1.1-8.2-4.9-8.4c-4.9-0.1-3.6,3.8-4.7,7c-0.3,0.8-1.5,0.8-1.8-0.1c-1.5-4.5-3.5-8.5,2.2-11.9
		c3.2-1.9,2.4-4.9,2.5-7.6c0.2-6.2-0.1-12.5,0.4-18.7c0.2-2.9,2-5.9,5.3-5.7c3.9,0.3,2.2,4,2.3,6.1c0.2,11.1,0.1,22.2,0.1,33.2
		C63.7,164.7,64.2,169.1,62.4,168.6z"/>
	<path d="M89.4,167.4c-0.3,1.7-0.3,3.4-0.1,5c0.5,5.3-2.1,7.2-8.6,7.3c-8,0.2-9.5-2.6-9.3-9.8c0.1-6.5,0.9-9.8,8.7-9.5
		C86.5,160.6,90.2,161.8,89.4,167.4z"/>
	<path d="M20.5,75.3c0,2.6,0.1,5.1,0,7.7c-0.1,2.2,0.2,5.3-1.3,6.3c-2.4,1.5-5-0.4-6.9-2C6.3,82.8,4.4,76.9,7.4,70
		c2-4.7,5.9-8.8,11-7.8c3.3,0.6,2.2,6.4,2.1,9.8C20.5,73,20.5,74.2,20.5,75.3z"/>
	<path d="M120.4,170.5c0.9,5.4,0.1,9.4-8.5,9.2c-7-0.2-9.5-1.8-9-9c0.4-6.1-0.2-11,8.6-10.2C120.3,161.4,120.3,160.7,120.4,170.5z"
		/>
	<path d="M141.3,167.7c-0.2,0.7-1.2,0.9-1.5,0.2c-1.6-3.5-0.3-8.2-5.7-7.7c-4.4,0.4-1.8,4.7-4,7.5c-0.5,0.6-1.4,0.2-1.4-0.5
		c0-14.3,0-27.9,0-41.5c0-1.6,0.8-2.8,2.6-2.4c2.1,0.4,3.9,2.1,4.1,3.9c0.6,5,0.5,10.1,0.8,15.2c0.3,5.3-1.7,10.8,5,14.8
		C144.4,159.2,142.1,163.4,141.3,167.7z"/>
	<path d="M171.6,75.2c0-1.7,0-3.4,0.1-5.1c0.2-2.9-0.6-7.4,2-8.1c3.3-0.9,6.4,1.8,8.6,4.5c3.5,4.3,4.5,9.1,2.5,14.3
		c-1.9,4.8-5.6,8.9-10.5,8.5c-3.4-0.3-2.5-6.3-2.6-9.8C171.6,78.1,171.6,76.7,171.6,75.2z"/>
	<path d="M80.1,188.3c-3.1,0-6.2,0-9.3,0c-1.7,0-3.4-0.3-3.3-2.7c0.1-2,1.1-3.3,3.1-3.3c6.2-0.1,12.4-0.1,18.6-0.1
		c2.3,0,3.7,1.3,3.7,3.7c0,3.1-2.6,2.4-4.4,2.5C85.7,188.5,82.9,188.3,80.1,188.3C80.1,188.3,80.1,188.3,80.1,188.3z"/>
	<path d="M111,188.4c-2.6,0-5.1,0.2-7.7-0.1c-1.7-0.1-4.5,1-4.4-2.3c0.1-2.6,1.8-4,4.5-3.9c5.7,0.1,11.4,0,17.1,0
		c2.3,0,3.8,1.1,4,3.5c0.3,3.2-2.2,2.7-4.1,2.7C117.3,188.4,114.1,188.3,111,188.4z"/>
	<path d="M99,19.6c-1.9,1.1-4.3,1-6.3-0.1c-1.8-1.1-2.8-2.8-2.7-5.2c0.2-3.5,2.5-5.8,6.1-5.6c3.6,0.2,5.7,2.5,5.5,6.1
		C101.7,17.2,100.6,18.7,99,19.6z"/>
	<path d="M129.3,94.3c-11.3-0.1-20.6-9.6-20.3-20.9c0.2-11.2,9.9-20.5,21-20.3c11.3,0.2,20.3,9.6,20.1,21
		C149.9,85.7,140.9,94.4,129.3,94.3z M117.5,84.2c3,5.4,7.7,7.4,13.5,5.9c6.2-1.6,10.6-5.4,12-12c1.2-5.9-0.6-10.9-5.3-14.4
		c-5.4-4.1-11.3-4.2-16.4,0.4c-4.8,4.3-5.8,9.8-2.5,15.5c2.9,5,7.7,5.8,12.7,3.7c4.2-1.8,5.8-5.4,4.7-9.9c-0.9-3.5-3.3-5.2-6.9-5.2
		c-2.5,0-4.4,1.1-5.2,3.6c-0.8,2.5-0.1,4.6,2.6,5.4c1.5,0.5,2.7,0,3.1-1.8c0.2-1.1-2.8-3.5,1-3.1c1.9,0.2,2.2,2.4,1.8,4.2
		c-0.4,1.8-1.8,2.9-3.5,3.4c-2.4,0.7-4.5,0-6.1-2c-2.3-2.7-2.5-5.8-0.5-8.7c2.1-3.1,5.1-4.6,8.9-3.6c4.6,1.2,7.4,4.4,7.8,9.1
		c0.4,5.1-2.4,8.6-6.7,10.9C127.1,88.4,122.5,86.2,117.5,84.2z"/>
	<path d="M82.9,73.4c0.2,11.4-8.8,20.7-20.2,20.8c-11.5,0.1-20.7-8.7-20.9-20.1c-0.2-11.4,8.9-20.8,20.2-21
		C73.1,52.9,82.7,62.2,82.9,73.4z M78.3,70.5c-0.2,4.9-1.3,9.6-5,13c-3.9,3.7-8.5,4.5-13.4,2.3c-4.6-2.1-7.1-5.7-6.8-10.8
		c0.2-4.4,2.5-7.4,6.7-9c4.1-1.5,7.4-0.2,9.7,3.1c2.2,3.2,2,6.5-0.8,9.3c-2,2-4.5,2.4-7,0.9c-1.7-1.1-3.1-2.7-2.2-5
		c0.4-0.9,1.4-1.7,2.3-2c0.9-0.3,1.4,0.5,0.9,1.6c-1.1,2.7,0.1,3.8,2.8,3.3c1.6-0.3,2.4-1.6,2.6-3c0.3-2.5-0.7-4.6-3.1-5.5
		c-2.9-1.1-5.7-0.5-7.7,2c-2.5,3-2.6,6.3-0.5,9.5c2.3,3.5,5.7,4.6,9.7,4.1c4.5-0.6,7.1-3.4,8.1-7.7c1.2-5.2-0.2-9.7-4.4-12.9
		c-4.5-3.4-9.6-3.6-14.4-0.7c-5.3,3.2-7.8,8.3-6.8,14.5C50,85.3,58.3,91.5,66,90.5C74.6,89.2,79.6,81.3,78.3,70.5z"/>
	<path d="M104.5,97c-5.9,2-11.7,2.4-17.4-0.4C92.9,95,98.7,94.5,104.5,97z"/>
</g>
</svg>
