<?xml version="1.0" encoding="utf-8"?>
<!-- Generator: Adobe Illustrator 22.0.1, SVG Export Plug-In . SVG Version: 6.00 Build 0)  -->
<svg version="1.1" id="Layer_1" xmlns="http://www.w3.org/2000/svg" xmlns:xlink="http://www.w3.org/1999/xlink" x="0px" y="0px"
	 viewBox="0 0 178 235" style="enable-background:new 0 0 178 235;" xml:space="preserve">
<style type="text/css">
	.st0{fill:none;stroke:#000000;stroke-miterlimit:10;}
</style>
<g>
	<path d="M48.3,80.2c-1-2.2-4.1-2.2-5.2-0.1c-4.1,8.3-6.6,16.4-6.6,25.3c0,11-0.1,22,0,33c0,3.9-0.7,7.2-5.4,7.2
		c-4.7,0-5.4-3.4-5.4-7.2c0.1-11.2,0.1-22.4,0-33.6c-0.1-11.1,3.5-21.2,8.2-31c4.8-10.1,10.6-12,20.8-6.1c0.6-6.9,0-13.5,1.2-20.1
		c2.3-12.4,7.2-23.5,15.3-33.2c9.2-11.1,24.3-11.3,33.6-0.1c10.1,12.1,15.5,26.1,16.2,41.8c0.2,3.6,0,7.3,0,11.6
		c4.5-2.6,8.6-4.9,13.3-2.9c5,2.2,6.8,7,9,11.5c5,10.3,7.2,21.1,7.1,32.4c-0.1,9.8,0,19.7,0,29.5c0,3.7-0.5,7.3-5.3,7.4
		c-5.1,0-5.6-3.6-5.6-7.6c0-10-0.2-20.1,0.1-30.1c0.3-9.7-2.3-18.6-6.5-27.6c-1.1-2.3-4.3-2.4-5.5-0.1c-3.8,7.3-6.1,14.7-6.4,22.6
		c-0.4,10.6-0.3,21.2-0.1,31.8c0.1,5.7,3,9.7,8.4,12c8,3.3,15.9,6.9,23.9,10.2c10.6,4.5,15.8,12.5,15.9,23.9c0.1,4.6-0.1,9.3,0,13.9
		c0.1,5.3-2,8.1-7.5,7.7c-1.5-0.1-3.1,0.1-4.6,0c-3.4-0.3-4.7,0.7-3,4.3c1.6,3.5,2.8,7.2,4.1,10.8c2.5,6.8,0.5,9.4-7.2,9.4
		c-36.1,0-72.2,0-108.2,0c-6.4,0-12.7,0.1-19.1,0c-6.7-0.1-8.5-2.9-6.2-9.3c1.4-3.8,2.7-7.6,4.3-11.3c1.2-2.8,0.5-3.6-2.4-3.8
		c-7.2-0.5-12.9-6.4-12.9-13.7c0-3,0-5.9,0-8.9c0.1-11.9,5.4-19.7,16.3-24.1c7.2-2.9,14.4-5.6,21.5-8.4c8.8-3.5,10.7-6.8,10.5-17.1
		c-0.1-7.7,0-15.5,0.1-23.2C55,97.7,52.5,89.1,48.3,80.2z M110.6,134.9C110.6,134.9,110.6,134.9,110.6,134.9
		c0-16.8,0.1-33.6-0.1-50.3c-0.2-12.9-4.6-24.5-12.6-34.7c-6.2-7.8-13.4-7.7-19.6,0.1c-8.8,11.2-12.7,24.1-12.7,38.2
		c0,30.5,0,60.9,0,91.4c0,12.9,0,12.7,13,12.4c3.5-0.1,4.2-1.4,4.1-4.4c-0.2-6.2,0-12.3-0.1-18.5c0-3.6,1.3-6.1,5.2-6.2
		c3.9-0.1,5.4,2.3,5.5,6c0,3.7,0,7.3,0,11c0,12.3,0,12.1,12.6,12.1c4,0,4.7-1.4,4.7-5C110.5,169.6,110.6,152.3,110.6,134.9z
		 M30.6,216.2c1.8,0,3.5,0,5.2,0c33.8,0,67.5,0,101.3,0c9.3,0,9.2,0,5.8-8.9c-1.1-2.8-2-4.9-5.9-4.9c-13.1,0.3-26.2,0.2-39.3,0.1
		c-2.7,0-4.4,0.4-4.4,3.7c0,3.2-2.1,5-5.2,5.1c-3,0-5.3-1.8-5.3-4.9c0.1-3.8-2-3.8-4.8-3.8c-10.4,0.1-20.8,0-31.2,0
		c-12.6,0-12.6,0-16.3,12.2C30.5,214.9,30.5,215.1,30.6,216.2z M54.9,155.1c-10.5,4.1-20.4,7.8-30.1,11.8c-4.4,1.8-7,5.4-7.1,10.4
		c-0.1,3.9,0,7.7-0.1,11.6c0,2.2,0.8,3.1,3.1,3.1c10.4-0.1,20.8-0.1,31.2,0c2.2,0,3.1-0.7,3.1-3C54.9,177.8,54.9,166.7,54.9,155.1z
		 M121.1,155.2c0,11.7,0.1,22.5-0.1,33.3c0,3,1.4,3.4,3.9,3.4c8.7-0.1,17.3,0,26,0c8.2-0.1,7.5,1.4,7.7-7.7c0.1-6.4-0.2-12.7-7-15.8
		C141.9,163.9,131.9,159.8,121.1,155.2z M67.5,45.7c11.9-15.4,27.1-17.2,40.9-0.7c-2.1-9.2-6.1-16.5-11.4-23.1
		c-5.4-6.7-12.6-6.7-18,0C73.7,28.5,69.9,35.9,67.5,45.7z"/>
	<path d="M85.1,76.9c1.8-0.6,3.7-0.6,5.5,0c3.6,1.3,7.2,2.5,10.7,4c2.6,1.2,3.1,4,2,6.5c-1.1,2.6-3.5,4.1-6.1,2.9
		c-6.4-2.9-12.4-2.7-18.7,0.2c-2.5,1.1-5-0.2-6.1-2.9c-1-2.5-0.8-5.4,1.8-6.6C77.7,79.4,81.4,78.2,85.1,76.9z"/>
</g>
</svg>
