<?xml version="1.0" encoding="utf-8"?>
<!-- Generator: Adobe Illustrator 22.0.1, SVG Export Plug-In . SVG Version: 6.00 Build 0)  -->
<svg version="1.1" id="Layer_1" xmlns="http://www.w3.org/2000/svg" xmlns:xlink="http://www.w3.org/1999/xlink" x="0px" y="0px"
	 viewBox="0 0 219 204" style="enable-background:new 0 0 219 204;" xml:space="preserve">
<g>
	<path d="M63.2,144.2c-3.6,0-3.7,0.1-5.4,2.3c-0.2-1.6-0.2-1.6,1-3.3c-3.8-3-8.7-1.4-10.9,0.8c-1.2,1.2-1.7,2.5-1.1,4.3
		c1.7,5.5,3.3,11.1,4.8,16.7c0.4,1.4,1,2.1,2.5,2.3c18.4,3.4,36.9,6.9,55.3,10.4c2.8,0.5,5.4-0.4,8.1-0.9
		c17.1-3.1,34.1-6.3,51.2-9.5c1.4-0.3,2-0.9,2.3-2.2c1.5-5.5,3.1-11.1,4.8-16.5c0.6-1.9,0.2-3.3-1.1-4.5c-2.6-2.6-5.7-3.4-9.3-2.2
		c-1,0.3-1.9,0.9-2.9,1.4c-0.7-1.9-1.7-3.7-4.3-3.4c-0.6,0.1-1.3,0.1-1.5,0.6c-0.4,0.7,0.5,0.8,0.8,1.2c1,1.3,1.8,2.6,1,4.8
		c-0.8-2.1-1.6-3.7-3.5-4.3c-1.7-0.6-3.4-0.3-5.4,0.5c1.4-2.4,3.3-2.5,5.3-2.4c-0.6-3.9-3.6-5.6-9.7-5.8c0.7-6.7-0.3-12.7-6.2-16.9
		c-2.2-1.6-2.9-3.5-2.8-6.2c0.1-15.6,0.1-31.3,0-46.9c0-2,0.4-2.3,2.4-2.1c11.3,1.4,22.6,3.4,33.7,6.1c3.3,0.8,3.9,1.8,2.9,5.1
		c-0.8,2.4-1.4,4.9-2.4,7.2c-0.7,1.8-0.1,2.2,1.6,2.6c5.9,1.2,11.7,2.7,17.5,4.4c2.9,0.9,3.5,1.9,2.7,4.8
		c-7.1,24.6-14.2,49.2-21.3,73.9c-0.5,1.9-1.4,3.1-3.4,3.4c-19.1,3.5-38.1,7-57.2,10.6c-2.5,0.5-4.7-0.3-7-0.7
		c-17.6-3.2-35.1-6.6-52.6-9.9c-2.2-0.4-3.4-1.4-4-3.6c-7-24.6-14.1-49.1-21.1-73.7c-0.8-2.9-0.3-4,2.6-4.8c6-1.7,12-3.2,18.1-4.5
		c1.5-0.3,1.8-0.8,1.2-2.2c-1-2.6-1.8-5.2-2.6-7.8c-0.8-2.6-0.1-4,2.6-4.7c11.5-2.8,23.2-4.8,34.9-6.3c1.9-0.2,1.4,1.1,1.4,2
		c0,14.5-0.2,29,0.1,43.5c0.1,5.1-0.9,8.7-5.1,12c-4.7,3.8-4.4,9.4-4.1,15c-1.2-0.1-2.8-0.5-4.4,0c-2.7,0.7-4.8,2.2-5.7,4.8
		c-0.5,1.3-0.9,1.3-2,0.7c-1.6-0.9-3.3-0.6-4.5,1c-0.5,0.7-1,1.5,0.5,1.7C62.1,143.1,62.7,143.4,63.2,144.2z M174.3,97.2
		c0.5,1,0,1.8-0.2,2.6c-0.3,1.1-0.5,1.9,1.1,2.3c1.5,0.3,1.8-0.2,2-1.4c0.4-2.2,1-4.4,1.5-6.5c0.3-1.1,0.5-1.9-1-2.3
		c-1.7-0.5-1.9,0.4-2.1,1.6c-0.1,0.5,0,1.3-1.2,1.5c0.2-0.8,0.2-1.6,0.4-2.2c0.5-1.3-0.3-1.5-1.3-1.7c-1-0.2-1.7-0.4-1.9,1
		c-0.4,2.3-1.1,4.6-1.6,6.9c-0.2,1-0.7,1.9,1,2.3c1.5,0.3,1.9-0.1,2.2-1.5C173.4,98.8,173.3,97.8,174.3,97.2z M165.5,90.7
		c0.7,0.5,0.6,0.8,0.5,1.1c-0.5,1.9,1.1,1.6,2,1.7c1.6,0.2,1.2-1.2,1.1-1.9c-0.3-2-1.9-2.4-3.5-2.7c-1.5-0.2-3,0.1-3.5,1.9
		c-0.4,1.7-0.8,3.4-1.1,5.1c-0.4,2.1,0.9,3.6,3,3.6c0.5,0,1.1-0.3,1.4-0.1c2.5,1.7,2.5-0.3,2.8-1.9c0.1-0.6,0.2-1.2,0.4-1.8
		c0.2-0.7-0.1-1-0.7-1.2c-2-0.8-2.6-0.4-2.6,1.7c0,0.4-0.2,0.8-0.3,1.2c-0.1,0.3-0.3,0.5-0.6,0.3c-0.1-0.1-0.3-0.3-0.3-0.5
		C164.5,95.1,164.7,92.9,165.5,90.7z M55.2,92.9C55.2,92.9,55.2,92.9,55.2,92.9c0.1,1.9,0.2,3.8,0.3,5.7c0,0.5-0.4,1.5,0.8,1.2
		c0.8-0.2,2.1,0.3,2.4-1.1c0.1-0.4-0.3-1,0.4-1.2c0.7-0.2,0.7,0.5,0.9,0.9c0.8,1.2,1.8,0.4,2.6,0.2c1.2-0.3,0.4-1.2,0.2-1.7
		c-0.8-2.3-1.7-4.6-2.7-6.9c-0.2-0.5-0.3-1.2-1.2-1.3c-2.5-0.3-3.9,0.9-3.8,3.4C55.2,92.4,55.2,92.7,55.2,92.9z M66.6,88.7
		c1.1,0.6,1.1,1.3,1.1,1.9c0.2,1.7,1.3,0.8,2,0.8c0.9,0,1.4-0.3,1.2-1.4c-0.4-2.3-1.6-3.2-4.2-2.8c-2.4,0.3-3.5,1.5-3.2,3.7
		c0.2,1.4,0.4,2.8,0.7,4.1c0.3,1.5,0.8,2.7,2.5,2.9c1.7,0.2,3.4-0.1,4.5-1.6c0.7-0.9,0.7-2.1,0.2-3c-0.5-0.8-1.5-0.3-2.3-0.1
		c-1.2,0.3-0.6,1.2-0.5,1.9c0,0.4-0.1,0.8-0.5,0.7c-0.2,0-0.5-0.3-0.5-0.5C67.2,93.2,66.5,91.2,66.6,88.7z M41.7,103.4
		c2.2,0,4.1-1.2,4.2-2.7c0.2-1.9-1-3.4-3.2-4c-0.7-0.2-1.3-0.4-2-0.7c-0.4-0.2-0.5-0.7-0.3-1.1c0.4-0.5,0.7-0.1,0.8,0.3
		c0.6,1.3,1.4,0.1,2.2,0.1c0.4,0,0.8-0.3,0.7-0.8c-0.1-0.7-0.4-1.4-1.1-1.7c-1.6-0.7-3.2-0.2-4.6,0.6c-0.9,0.5-1.4,1.3-1.2,2.4
		c0.3,1.7,1.2,2.6,2.8,3c0.9,0.2,1.8,0.3,2.4,1.1c0.3,0.4,0.6,0.9,0.1,1.3c-0.7,0.5-0.8-0.2-0.9-0.6c-0.5-1.7-1.6-0.6-2.4-0.4
		c-1.2,0.4-0.5,1.3-0.2,1.9C39.6,103.2,40.6,103.5,41.7,103.4z M50.4,90.6c-0.8,0.2-1.9,0.5-3.1,0.6c-1.1,0.2-1.4,0.5-1.1,1.7
		c0.7,2.5,1.2,5,1.7,7.5c0.2,0.8,0.4,1.2,1.4,1c1.6-0.2,2.2-0.8,1.6-2.4c-0.5-1.4-0.5-2.3,1.3-2.7c1.6-0.4,1.5-1.8,1.1-3.1
		C53,91.9,52.7,90.5,50.4,90.6z M77,85.7c-1,0.1-1.7,0.3-2.4,0.3c-1.7,0-2,0.9-1.7,2.4c0.3,1.4,0.4,2.9,0.7,4.3
		c0.7,4.2,0.7,4.2,4.8,3.3c0.6-0.1,1.3-0.1,1.1-1.1c-0.1-0.7-0.4-1.2-1.2-1c-0.8,0.2-1.3,0-1.5-1c-0.2-0.8,0.1-1.2,0.9-1.2
		c0.8-0.1,0.8-0.7,0.7-1.2c0-0.6-0.4-0.8-1-0.8c-0.6,0-1.1,0-1.2-0.8c-0.2-0.9,0.5-1,1.1-1.1c0.9-0.2,0.7-0.9,0.6-1.5
		C77.8,85.4,77.2,85.7,77,85.7z M141.9,94.2c-0.3,1.2,0.3,1.6,1.4,1.8c1.6,0.3,1.6-0.7,1.9-1.7c0.2-1-0.4-2.8,1.8-2.3
		c0.5,0.1,0.4-0.6,0.5-1c0.2-0.7-0.1-0.9-0.7-0.9c-0.6-0.1-1.1-0.3-0.9-1.1c0.2-0.8,0.5-1.1,1.3-0.9c0.9,0.2,1-0.3,1.1-1
		c0.1-0.9-0.5-1-1.1-1.1c-0.9-0.1-1.8-0.2-2.7-0.4c-1.1-0.2-1.5,0.2-1.7,1.2C142.5,89.2,142.2,91.7,141.9,94.2z M180.4,102
		c-0.5,1.6,0.8,1.3,1.4,1.6c0.8,0.3,1.4,0.4,1.7-0.7c0.4-1.9,1-3.8,1.5-5.7c0.2-0.7,0.3-1.4,1.3-1c1,0.4,0.9-0.5,1.1-1
		c0.3-0.6-0.1-0.9-0.7-1c-1.7-0.4-3.4-0.9-5-1.3c-0.5-0.1-0.8,0.1-1,0.5c-0.2,0.4-0.5,1.2,0,1.3c2.1,0.5,1,1.9,0.8,2.9
		C181.2,99.1,180.8,100.7,180.4,102z M152.4,97.2c0.6,0.1,1.2,0.2,1.4-0.7c0.1-0.5,0.2-1.1-0.4-1.2c-1.7-0.2-1.1-1.4-1-2.3
		c0.2-1.6,0.5-3.2,0.8-4.7c0.3-1.2-0.3-1.5-1.4-1.7c-1.1-0.2-1.7-0.1-1.8,1.1c-0.2,1.8-0.5,3.6-0.8,5.4
		C148.5,96.9,148.5,96.9,152.4,97.2z M160.1,89c0.3-1.5-1.1-1-1.7-1.3c-0.7-0.3-1.3-0.3-1.5,0.8c-0.5,2.8-1,5.5-1.5,8.2
		c-0.2,1.2,0.7,1.2,1.4,1.3c0.7,0.1,1.6,0.5,1.8-0.8C159.1,94.5,159.6,91.7,160.1,89z M159.1,112.1c1.9,1.5,1.8,3.1,0.5,5.1
		c2.3-1.9,3.5-0.3,4.9,1.1c-1-2.5,0.4-3.5,2.4-4.4c-2.7,0.1-3.1-1.6-3.3-3.6C162.7,112.4,161.3,112.9,159.1,112.1z M56,114
		c2.3,0.6,3.1,2,2.5,4.3c0.9-0.7,1.4-1.6,2.2-2c0.8-0.4,1.6,0.8,2.8,0.5c-1.9-1.7-1.3-3.2,0.3-4.8c-2.3,1.1-3.6,0.3-4.7-1.7
		C59.3,112.6,58.3,113.7,56,114z"/>
	<path d="M135.4,165.3c-1.3-3.3-1.9-6.8-2.5-10.3c-0.1-0.6,0.2-1.7-0.8-1.7c-1.1,0.1-0.6,1.2-0.7,1.9c-0.1,2.9,0,5.7-0.2,8.6
		c-0.4-2.8-0.9-5.7-1.3-8.5c-0.1-0.8,0.1-1.8-1.1-1.9c-1.4-0.1-1.3,0.9-1.5,1.8c-0.4,1.5-0.4,3-1.3,4.8c0-2.1,0-3.7,0-5.3
		c0-0.6,0.2-1.4-0.8-1.4c-0.8,0-0.6,0.8-0.7,1.3c-0.6,4.3-1.3,8.6-2.4,12.8c-0.2,0.6-0.4,1.2-0.7,1.8c0.8-4.8,1.2-9.6,1.5-14.4
		c0.1-1,0.1-1.8-1.1-2.3c-1.1-0.4-0.9-1.4-0.7-2.3c0.5-2,1.5-3.8,1.4-5.9c0-0.5,0.5-1.4-0.5-1.5c-0.6,0-1.5,0.4-1.6,1.1
		c-0.4,3.6-3,4-5.8,3.9c-1.1,0-1.2,0.5-1.4,1.4c-0.2,1.3,0.1,3.3-1.7,3.3c-2,0-1.7-2.1-1.9-3.4c-0.2-1.1-0.4-1.6-1.7-1.5
		c-1,0.1-2.1-0.2-3.1-0.4c-1.1-0.2-1.9-0.9-2-2.1c0-0.4-0.1-0.8-0.3-1.2c-0.3-0.7-1-1.2-1.6-1.1c-1,0.1-0.5,1-0.5,1.5
		c-0.1,1.9,0.8,3.7,1.3,5.5c0.3,1.4,0.6,2.5-1.2,3c-1,0.3-0.7,1.1-0.7,1.7c0,4.3,0.3,8.7,1.2,12.9c0.1,0.3,0,0.5-0.1,0.8
		c-1.6-4.1-2.1-8.4-2.7-12.7c0-0.3-0.1-0.7-0.1-1c-0.1-0.5,0.1-1.1-0.6-1.2c-0.8-0.1-0.8,0.6-0.8,1.2c-0.3,1.9,0,3.8,0.1,6.1
		c-1-2.1-1.2-3.9-1.5-5.7c-0.2-0.8-0.3-1.5-1.4-1.4c-1.2,0-1.1,0.8-1.2,1.6c-0.4,2.8-0.9,5.6-1.6,8.4c0-3,0-5.9,0-8.9
		c0-0.4,0.2-1.1-0.5-1.2c-0.9-0.1-0.7,0.6-0.8,1.1c-0.5,4.1-1.3,8.1-2.8,12c0.6-3.8,1.1-7.7,1.2-11.5c0-1,0.3-2-1.1-2.5
		c-1.1-0.4-0.9-1.5-0.6-2.4c1.6-3.9,1.2-8,1.3-12c0-1.3-0.5-1.7-1.6-1.9c-1.8-0.3-3.6-0.6-5.4-1c-1.6-0.3-2.4-1.3-2.3-3
		c0.3-4.9,1.1-9.6,5.4-12.9c2.1-1.6,3.9-3.6,6-5.2c5.8-4.4,8.8-10.1,9.7-17.4c1-8.5,2.8-17,4.1-25.5c0.6-4.2,2.2-8.2,4.1-12.1
		c0.8-1.6,1.6-3.2,3.8-3.1c2,0.1,2.9,1.6,3.6,3.1c2.6,5.6,4.4,11.4,5,17.7c0.6,6,2,12,3,18c0.4,2.2,0.8,4.4,1.1,6.6
		c0.6,3.9,2.5,6.9,5.3,9.5c3.6,3.3,7.2,6.6,10.9,9.9c3.7,3.4,3.8,7.9,3.8,12.4c0,1.2-1.1,1.7-2.2,1.9c-1.9,0.4-3.8,0.8-5.8,1.1
		c-0.9,0.2-1.3,0.5-1.3,1.5c0.1,4.1-0.4,8.3,1.3,12.2c0.4,0.9,0.6,2.1-0.4,2.4c-1.7,0.5-1.4,1.6-1.4,2.8
		C134.6,158.5,135.1,161.9,135.4,165.3z M104.6,125.2c-1.3,0.3-1.7,1.4-2,2.5c-0.6,1.8-1,3.6-1,5.5c-0.1,4-0.1,4,3.8,4
		c0.7,0,1.4-0.1,2.1,0c1.5,0.2,2.1-0.3,2-1.9c-0.1-2.2,0-4.5,0-6.7C109.5,124.9,108.3,124.1,104.6,125.2L104.6,125.2z M116.4,113.9
		c1.7,0.6,1.8-0.3,1.8-1.7c0-10.3,0-20.6,0-30.9c0-3.8,0.1-7.5-0.9-11.2c-1.4-4.8-1.8-5.2-6.8-4.9c-0.2,0-0.4,0-0.6,0
		c-0.3,0.1-0.6,0-0.6,0.6c0.1,2-0.6,3.6-2.5,4.6c-0.9,0.5-0.9,3.2-0.2,3.1c2.1-0.4,1.4,1.1,1.3,1.9c-0.2,1.5,0.6,1.7,1.8,1.6
		c2.5-0.2,4.9-0.2,7.7,0.7c-1.5,0-2.7,0.1-3.8,0c-1.3-0.2-1.7,0.3-1.7,1.6c0.1,2.5,0.2,4.9,0,7.4c-0.1,2,0.6,2.7,2.5,2.5
		c0.9-0.1,1.8,0.2,2.7,0.7c-1.2,0.2-2.3,0.1-3.4-0.1c-1.3-0.2-1.8,0.1-1.8,1.5c0.1,2.7,0.1,5.3,0,8c-0.1,1.4,0.4,2.1,1.9,2.1
		c1.1,0,2.3-0.1,3.4,0.9c-1.4-0.1-2.5-0.2-3.6-0.3c-1.3-0.2-1.7,0.3-1.7,1.6c0.1,2.3,0.1,4.6,0,6.9c-0.1,2,0.2,3.2,2.6,3
		C115.1,113.4,115.7,113.7,116.4,113.9c-0.7,0.5-1.6,0.3-2.4,0.2c-1.6-0.2-2.3,0.2-2.1,2c0.1,1.5,0,2.9,0,4.4c0.1,1.6-0.4,3.3,0.9,5
		c0.9-1.6,2.4-1.4,3.9-1.3c1.1,0,1.5-0.4,1.5-1.4c-0.1-1.9-0.1-3.8,0-5.7C118.3,115.4,118,114.3,116.4,113.9z M132.1,128.7
		c0.7,1.7,0.7,1.8,2.2,1.7c2.2-0.1,4.3-0.2,6.5-0.2c1.4,0,1.7-0.5,1.2-1.8c-1-2.7-2.9-4.7-5-6.6c-3-2.8-6.1-5.6-9.2-8.3
		c-3.9-3.4-6.1-7.7-6.6-12.9c-0.5-5.3-1.2-10.6-1.9-16.3c-0.1,0.6-0.2,0.8-0.2,1c0,12.7,0,25.5,0,38.2c0,0.5,0,1,0.4,1.3
		c1.4,1.3,1.8,3,2.1,4.7c0.2,1.1,0.7,1.4,1.7,1.3c2.2-0.1,4.5-0.2,6.7-0.2C131.4,130.6,132.3,130.3,132.1,128.7z M100.6,130.7
		c-2.7-0.6-5-0.6-7.3-0.6c-0.6,0-1.5,0.4-1.8-0.5c-0.3-1.1,0.8-1.2,1.4-1.4c3-1.1,5.1-3.2,5.9-6.3c1.2-4.6,1.2-9.4,1.7-14.1
		c-2,4-5.4,6.8-8.6,9.7c-2.4,2.2-4.9,4.2-7.3,6.4c-1.6,1.4-2.9,3.1-3.7,5.1c-0.4,1-0.2,1.4,0.9,1.4c2,0,3.9,0.1,5.9,0.3
		c1.6,0.1,2.9-0.1,3-2.2c0.2,2,0.2,2,1.2,2.1C94.7,130.7,97.4,130.8,100.6,130.7z M113.3,131.8c0,1.3,0.1,2.7,0,4
		c-0.1,1.1,0.3,1.5,1.4,1.4c1.7-0.1,3.5,0,5.2,0c0.5,0,1.2,0.1,1.2-0.7c0.1-3.4,0.1-6.9-1.5-10c-1-1.9-2.9-1.8-4.6-1.6
		c-1.8,0.3-1.7,1.9-1.7,3.1C113.2,129.2,113.3,130.5,113.3,131.8z M96.4,145.9c-4.6,0-4.6,0-4.8,4c0,0.1,0,0.1,0,0.2
		c-0.2,0.9,0.2,1.3,1.1,1.3c2.1,0.1,4.2-0.1,6.2-0.4c0.4-0.1,0.9-0.2,0.8-0.7c-0.3-1.4-0.6-2.9-1.3-4.2
		C98.2,145.7,96.7,146,96.4,145.9z M129.7,151.5c1.1-0.1,2.4-0.3,3.6-0.4c0.6-0.1,1.1-0.2,1-1c-0.2-0.9-0.5-1.9-0.8-2.8
		c0-0.1-1-0.5-1.3-0.8c-1.4-1.1-3.1-0.2-4.6-0.5c-0.3-0.1-0.8,0-0.9,0.4c-0.3,1.5-0.9,3.1-0.3,4.5
		C126.9,152,128.5,151.3,129.7,151.5z M107.8,107.5c0,1.5,0,2.9,0,4.4c0,0.7-0.3,1.7,1,1.5c0.9-0.2,2.2,0.3,2.2-1.4
		c-0.1-2.9-0.1-5.8,0-8.8c0-1.4-0.8-1.3-1.8-1.3c-0.9,0.1-1.8-0.1-1.5,1.4C108,104.7,107.8,106.1,107.8,107.5z M107.8,95.4
		c0,1.4,0,2.8,0,4.2c0,0.7-0.5,1.9,1,1.7c1.2-0.1,2.4,0,2.2-1.9c-0.2-2.5,0-5-0.1-7.6c0-0.9,0.5-2.2-1.4-2.1
		c-1.4,0.1-2.2,0.4-1.9,2.1C108,93,107.8,94.2,107.8,95.4z M107.8,83.2c0,1.4,0,2.8,0,4.2c0,0.8-0.5,1.9,1.1,1.9
		c1.4,0,2.2-0.4,2.1-2c-0.1-2.5-0.1-5,0-7.5c0-1.1,0.1-2.1-1.6-1.9c-1.4,0.1-2.1,0.3-1.7,1.9C108,80.7,107.8,82,107.8,83.2z
		 M130,132.2c-2.1,0.2-4.2,0.4-6.3,0.4c-2.5,0.1-1.4,1.9-1.5,3.1c-0.1,1.8,1.3,1,2.1,0.9c2-0.3,4-0.8,6-1.1c1.4-0.2,2-0.7,1.9-2.3
		C131.9,131.5,130.8,132.3,130,132.2z M107.5,114.2c0.6,2,0.3,4.1,0.3,6.1c0,2.1-0.2,4.2,2.5,4.9c1.4-2.4,0.6-5.1,0.7-7.7
		C111.1,113.9,111,113.9,107.5,114.2z M133.5,134.9c3.2-0.6,5.7-1.1,8.2-1.6c0.6-0.1,0.9-0.6,0.9-1.2c0-0.9-0.6-0.8-1.2-0.7
		c-2.5,0.2-5,0.4-7.5,0.6c-1,0.1-1.2,0.5-0.9,1.4C133.1,134,132.8,135.1,133.5,134.9z M104.7,74.3c-0.5,16.5-0.4,32.9,0,49.3
		C104.7,107.1,104.7,90.7,104.7,74.3z M88.5,131.9c-2.7-0.2-4.8-0.4-7-0.6c-1.1-0.1-1.5,0.3-1.2,1.3c0.2,0.8,3.9,1.6,4,0.9
		C84.9,131.4,86.6,132.2,88.5,131.9z M111.6,126.3c0,5.9,0,11.8,0,17.6c0.3-5.4,1-10.9,0.4-16.3C112,127.2,112.2,126.7,111.6,126.3z
		 M132.9,141.2c-1.4,1.3-3,0.2-4.1-0.1c-1.6-0.4-2.5,2.7-3.7,1.1c0.5,0.6,4,1,7,0.4C133,142.4,133.1,142.1,132.9,141.2z M129,145.2
		c0.9-0.4,2.6,0.5,2.7-0.8c0-1.6-1.6-0.7-2.5-0.7c-0.9,0-2.5-0.8-2.5,0.9C126.7,145.8,128.3,144.8,129,145.2z M129.2,138.7
		c-0.8,0.6-2.5-0.8-2.5,0.9c0,1.7,1.6,0.7,2.4,0.8c0.9,0.1,2.5,0.6,2.4-0.9C131.6,138,130,139.1,129.2,138.7z M94.3,145.2
		c0.9-0.5,2.7,0.7,2.7-0.9c0-1.4-1.7-0.6-2.6-0.7c-0.9-0.1-2.5-0.5-2.4,1.1C92,145.7,93.5,144.8,94.3,145.2z M91.3,142.5
		c4.5,0.7,7,0.2,6.9-1.1C96,142.2,93.2,139.9,91.3,142.5z M110.4,63c2.2-0.9,2.8,2.4,4.9,1.7C114.6,61.8,113.9,61.5,110.4,63z
		 M94.5,139.3c-0.8,0.4-2.3-0.6-2.4,0.7c-0.1,0.8,1.5,0.5,2.3,0.5c0.9,0,2.4,0.4,2.4-0.7C96.8,138.6,95.3,139.7,94.5,139.3z"/>
	<path d="M182.3,71.7c0.1,1.5-0.5,3.1-1.1,4.5c-0.8,1.8-0.1,2.2,1.5,2.6c3.9,0.9,7.7,2,11.6,3.1c6,1.7,8.5,6.2,6.8,12.1
		c-5.9,20.5-11.8,41-17.7,61.6c-1.3,4.5-2.6,9-3.9,13.5c-1.1,4-3.6,6.3-7.7,7.1c-19.7,3.7-39.4,7.4-59.1,11
		c-3.4,0.6-6.6-0.7-9.9-1.3c-16.9-3.1-33.8-6.4-50.8-9.5c-4.6-0.8-7.5-3.2-8.8-7.8c-7.1-24.9-14.3-49.8-21.4-74.7
		c-1.6-5.7,0.9-10.2,6.5-11.8c4-1.1,8-2.3,12-3.1c1.9-0.4,2.1-1.1,1.4-2.7c-1.3-3-1.7-6.1,0-9.1c1.2-2.2,3.1-3.7,5.5-4.3
		c12.4-3.1,24.9-5.3,37.6-6.8c0.7-0.1,1.6-0.4,1.6,0.9c0,1.1,0.3,2.3-1.6,2.5c-8.7,0.9-17.3,2.3-25.9,4.1c-3.5,0.7-7,1.5-10.4,2.4
		c-3.7,1-5.3,3.9-4.1,7.6c0.6,1.9,1.2,3.8,1.9,5.6c0.5,1.3,0.1,1.7-1.2,2c-5.2,1.3-10.3,2.6-15.5,4c-4.4,1.2-5.8,3.8-4.5,8.1
		c7.1,24.8,14.3,49.7,21.4,74.5c0.9,3.1,2.7,4.8,5.9,5.4c19.1,3.5,38.3,7.2,57.4,10.8c3.3,0.6,6.4-0.7,9.5-1.3
		c17.2-3.1,34.3-6.4,51.4-9.5c3-0.6,4.8-2.1,5.7-5.1c7.1-24.8,14.2-49.5,21.3-74.3c1.4-4.9,0.1-7.2-4.8-8.6
		c-4.9-1.3-9.9-2.6-14.9-3.8c-1.3-0.3-1.8-0.7-1.2-2.1c0.8-1.9,1.3-3.8,1.9-5.8c1-3.5-0.6-6.3-4.1-7.2c-11.9-3-24-5.1-36.1-6.6
		c-1.2-0.1-2.1-0.1-2.1-1.8c0.1-1.4,0.4-1.8,1.8-1.6c12.5,1.5,24.9,3.7,37.2,6.7C179.7,63.8,182.3,67.2,182.3,71.7z"/>
	<path d="M132.6,94.8c0,5.4,0,10.9,0,16.5c-1.4-0.3-1-1.3-1-2c0-4.4-0.1-8.8,0-13.2c0.1-2.5-1.6-1.7-2.8-1.9
		c-1.4-0.2-2.2,0.2-2.1,1.9c0.1,2.6,0,5.2,0,8c-1-0.7-1-1.7-1.1-2.5c-0.3-4.4-1.3-8.6-2.3-12.8c-1.8-7.9-1.8-15.8-1.7-23.8
		c0.1-7.4,0-14.9,0-22.3c0-2.8-0.4-5.5-1.4-8.4c1.5,12.1,0.5,23.8,0.8,35.6c0,0.3,0,0.5-0.1,0.9c-0.9-1.6-2-5.6-2-7.5
		c0-7.4,0.1-14.9-0.1-22.3c-0.1-6.7-2.6-12.6-5.9-18.4c3.7,11.2,2.7,22.8,2.9,34.4c-1.8-1-2.4-2.3-2.3-4.2c0.1-8.3,0.2-16.7-1-25
		c0-0.2-0.1-0.4-0.4-0.5c0.2,3.5,0.4,7,0.5,10.6c0.1,5,0,10,0.1,14.9c0,1.3-0.2,2-1.7,2.1c-2.2,0.1-3.2,1.8-4.1,3.5
		c-1.9,3.8-3.2,7.9-4.3,12c-0.1,0.2-0.1,0.5-0.4,0.7c0.5-12.4-1.2-24.8,0.8-36.7c-0.9,1.5-1.6,5-1.6,9.5c0,9.7-0.1,19.4,0.1,29
		c0.2,6.7-1.5,13-2.8,19.5c0-5.8,0-11.5,0-17.3c-1.1,8.7,0,17.4-1,26.1c-0.2,0-0.3,0-0.5,0c0-1.4-0.1-2.8,0-4.2
		c0.3-2.2-0.6-2.7-2.7-2.8C92.1,94,92,95,92,96.7c0.1,4,0,8,0.1,12c0,1.2-0.3,2-1.8,2.7c0-5.5,0-10.9,0-16.3c-0.2,0-0.4,0-0.6,0
		c0,5.2-0.1,10.5,0,15.7c0,1.5-0.6,2.3-1.8,2.9c-0.5-0.7-0.3-1.3-0.3-1.9c0-17.7,0-35.3,0-53c0-2.3,0.3-4.6,1.1-6.8
		c1-2.5,1.8-5.2,2.7-7.7c0.4-1.3,1.1-2.3,2.7-2.2c1.4,0,2.1,0.9,2.5,2.2c0.7,2,1.4,4.1,2.5,6.1c0-1.5,0.1-3.1,0-4.6
		c-0.7-10.1,3.4-18.6,9.6-26.2c1.7-2.1,3.5-2.1,5.2,0c6.2,7.5,10.2,15.9,9.7,25.9c-0.1,1.4,0,2.8,0,4.2c0,0.1,0.1,0.2,0.3,0.8
		c0.7-2.1,1.4-3.9,2-5.7c0.5-1.4,1-2.7,2.8-2.7c1.7,0,2.2,1.2,2.6,2.5c1.1,3.3,2.2,6.5,3.3,9.7c0.2,0.6,0.3,1.2,0.3,1.8
		c0,18.9,0,37.9,0,56.8c0,0.2-0.1,0.4-0.1,0.7c-1.4-0.6-2-1.5-2-3c0.1-5.2,0-10.5,0-15.7C132.9,94.9,132.8,94.8,132.6,94.8z
		 M126.7,93.4c1.3,0,2.7,0,4.1,0c0.6,0,0.8-0.1,0.8-0.8c-0.1-5.7-0.1-11.4-0.1-17c0-0.5,0.1-1.2-0.5-1.2c-1.2-0.1-2.6-0.3-3.7,0
		c-1,0.3-0.5,1.6-0.5,2.4c-0.1,2.8,0,5.6,0,8.4C126.7,87.9,126.7,90.5,126.7,93.4z M91.6,93.4c1.6,0,3-0.1,4.3,0
		c1,0.1,1.1-0.3,1.1-1.2c-0.1-5.4-0.1-10.8,0-16.2c0.1-2.3-1.4-1.8-2.6-1.9c-1.4-0.1-2.3,0-2.3,1.9c0.1,5,0,9.9,0,14.9
		C92.1,91.8,92.2,92.6,91.6,93.4z M128.9,44.3c-1.1,5.1-2.4,10.1-2.2,15.3c0.1,3.8,0,3.8,3.8,3.6c0.1,0,0.1,0,0.2,0
		c0.7,0.1,0.8-0.2,0.9-0.9C132.5,56,129.9,50.3,128.9,44.3z M94,44.1c-1.4,6.4-2.4,12.6-1.9,19.1c1,0,2.1-0.1,3.1,0
		c1.3,0.1,1.6-0.2,1.7-1.6c0.3-4.6-0.5-8.9-1.8-13.2C94.7,47,95.5,45.4,94,44.1z M132.5,73.5c-1.2-0.6-1-1.4-1-2
		c0-1.9-0.1-3.8,0-5.7c0.2-2.1-1.2-1.8-2.4-1.8c-1.2,0-2.5-0.3-2.4,1.8c0.1,2.5,0.3,5.1-0.2,7.7c1.8-0.2,3.6-0.1,5.4,0
		c0.6,0,1.3,0.2,1.2-0.8c0-2.6,0-5.3,0-7.9c-0.2,0-0.4,0-0.6,0C132.5,67.6,132.5,70.4,132.5,73.5z M91.8,73.4c1.2,0,2.5-0.1,3.7,0
		c1.1,0.1,1.5-0.1,1.4-1.3c-0.1-2.1-0.2-4.2,0-6.3c0.2-2.1-1.2-1.9-2.4-1.9c-1.2,0-2.6-0.4-2.5,1.7C92.1,68.2,92.3,70.8,91.8,73.4z
		 M98.1,63.1c0.5-4.3,0.8-8.5-1.6-12.4C98.2,54.7,97.7,59,98.1,63.1z M89.9,93.3c0.1,0,0.2,0,0.3,0c0-6.1,0-12.2,0-18.3
		c-0.1,0-0.2,0-0.3,0C89.9,81,89.9,87.2,89.9,93.3z M132.9,74.9c-0.1,0-0.2,0-0.3,0c0,6.1,0,12.2,0,18.3c0.1,0,0.2,0,0.3,0
		C132.9,87.2,132.9,81.1,132.9,74.9z M124.7,93.1c0.1,0,0.2,0,0.3,0c0-6.1,0-12.2,0-18.3c-0.1,0-0.2,0-0.3,0
		C124.7,80.9,124.7,87,124.7,93.1z M97.9,73.4c0.1,0,0.2,0,0.3,0c0-2.9,0-5.8,0-8.8c-0.1,0-0.2,0-0.3,0
		C97.9,67.6,97.9,70.5,97.9,73.4z M131.4,51.5c1.8,3.7,1,7.7,1.5,11.6C132.9,59.2,133.8,55.1,131.4,51.5z M124.7,63
		c0.6-3.1-0.1-6.3,0.5-9.4C124,56.7,124.8,59.8,124.7,63z M90.2,64.8c-0.1,0-0.2,0-0.2,0c0,2.9,0,5.8,0,8.7c0.1,0,0.2,0,0.2,0
		C90.2,70.5,90.2,67.7,90.2,64.8z M89.8,63.1c0.1,0,0.2,0,0.3,0c0-2.5,0-5,0-7.4c-0.1,0-0.2,0-0.3,0C89.8,58.1,89.8,60.6,89.8,63.1z
		 M124.6,73.3c0.1,0,0.2,0,0.3,0c0-2.8,0-5.7,0-8.5c-0.1,0-0.2,0-0.3,0C124.6,67.6,124.6,70.4,124.6,73.3z"/>
	<path d="M64.6,159c-0.4-1.3,0-2.4,0.8-3.3c0.9-1.1,0.2-1.4-0.7-1.7c-2-0.6-3.4,0.2-5,2.8c-0.6-1.7-0.3-3.1,1.2-4
		c1.5-1,3.3-1.2,4.6,0.1c1.1,1.1,2,0.9,3.3,0.5c2.9-0.9,6.8,1.1,6.9,3.9C72.1,154.2,67.9,153.7,64.6,159z"/>
	<path d="M161.9,159.9c-3.6-4.8-6.7-5.4-10.8-1.9c0-1.4,0.7-2.3,1.6-2.9c1.4-0.9,0.8-1.5-0.2-2.1c-1.4-0.8-2.8-0.8-4.2,0.1
		c-0.5,0.3-0.9,0.8-1.6,1.3c0.2-2.1,1.2-3.3,2.9-3.7c1.8-0.4,3.5,0.1,4.3,1.8c0.6,1.2,1.3,1.4,2.6,1.5
		C159.9,154.2,162.2,156.8,161.9,159.9z"/>
	<path d="M113.6,164c-2.3-2.4-3-2.5-6-1.2c-0.4-0.7,0.1-1.3,0.5-1.6c1.9-1.1,3.7-2.4,5.7-3.1c2.9-0.9,5.3,1.3,5.1,4.4
		c-3.1-3.1-3.8-3.4-6.6-2.2c0.4,0.6,0.9,1.1,1.2,1.7C113.8,162.6,114.1,163.2,113.6,164z"/>
	<path d="M85.6,146.1c-3.9-2-5.1-1.8-8,1.3c0.1-2.1,1.2-3.3,3-3.8C82.6,143.1,84.3,143.9,85.6,146.1z"/>
	<path d="M115.6,71c-1.7-0.4-3.4,0.2-5.1,0.1c-0.7,0-1.2-0.1-1.2-1c0-0.8,0.4-1.1,1.1-1.2C112.6,68.6,114.2,69.5,115.6,71z"/>
	<path d="M113.7,131.4c0.1-1.4-0.2-3.2,0.3-4.9c0.2-0.8,0.6-1.3,1.5-1.1c1,0.2,0.3,0.9,0.3,1.3c0,2.8,0,5.6-0.1,8.4
		c0,0.7,0.3,1.6-1,1.6c-1.2,0-1-1-1-1.7C113.7,133.9,113.7,132.8,113.7,131.4z"/>
	<path d="M104.6,125.2c-0.1,1.4-0.2,2.9-0.3,4.3c-0.2,2.5,1,4.1,3.3,4.9c0.7,0.3,1.5,0.4,1.4,1.5c-0.2,1.3-1.1,0.8-1.8,0.8
		c-5.6,0.1-5.6,0.1-5-5.5C102.5,129,103.2,126.9,104.6,125.2C104.6,125.2,104.6,125.2,104.6,125.2z"/>
</g>
</svg>
