<?xml version="1.0" encoding="utf-8"?>
<!-- Generator: Adobe Illustrator 22.0.1, SVG Export Plug-In . SVG Version: 6.00 Build 0)  -->
<svg version="1.1" id="Layer_1" xmlns="http://www.w3.org/2000/svg" xmlns:xlink="http://www.w3.org/1999/xlink" x="0px" y="0px"
	 viewBox="0 0 152.7 162.1" style="enable-background:new 0 0 152.7 162.1;" xml:space="preserve">
<g>
	<path d="M29.7,117.4c-0.1,0.6,0,1,0,1.4c0.1,0.8-0.1,1.5-0.3,2.2c-0.2,0.7-0.9,1-1.5,0.5c-1-0.8-2-1.8-2.9-2.7
		c-0.6-0.6-0.7-1.4-0.8-2.2c-0.2-2-0.4-4,0.3-5.9c0.3-1,0.3-1.9,0.1-2.9c-0.3-1.6-1-3.1-1.8-4.4c-1-1.8-1.7-3.7-2.4-5.5
		c-1.4-3.4-2.3-7-2.9-10.6c-0.3-1.8-0.3-3.6-0.6-5.3c-0.3-2.1-0.2-4.2-0.1-6.4c0.1-1.6-0.1-3.2,0.1-4.8c0.3-4.5,0.9-8.9,1.9-13.2
		c1-4.6,3.1-8.7,5.9-12.4c1-1.3,2.1-2.5,2.7-4c0.3-0.9,0.4-1.8,0.9-2.7c0.9-1.5,1.5-3.1,2.7-4.3c2.9-3.3,6.4-5.8,10.8-6.5
		c3-0.5,5.6-1.7,8.3-2.7c4-1.5,8.1-2.8,12.4-3.4c1.8-0.2,3.6-0.5,5.4-0.6c0.4,0,0.5-0.2,0.4-0.5c-0.1-0.2-0.1-0.4-0.2-0.6
		c-0.1-0.4-0.2-0.8-0.2-1.2c0.1-1.4,0.8-1.8,2-1.3c0.4,0.2,0.9,0.3,1.3,0.8c0.2-0.6,0.1-1.2,0.1-1.7c-0.1-1.4-0.1-2.9,0-4.3
		c0-0.4,0-0.9,0.4-1c0.5-0.1,1,0.2,1.3,0.7c0.2,0.3,0.3,0.7,0.4,1.2c0.2-0.6,0.2-1.1,0.5-1.6c0.2-0.4,0.5-0.6,0.9-0.6
		c0.3,0,0.6,0.2,0.7,0.5c0,0.1,0.1,0.2,0.1,0.4c0.1,0.2,0.1,0.5,0.2,0.8c0.3-0.3,0.4-0.7,0.5-1.1c0.3-0.7,0.7-0.9,1.3-0.9
		c0.6,0.1,1.1,0.5,1.2,1.2c0.2,0.9,0,1.8-0.1,2.8c0,0.1,0,0.2,0.1,0.3c0.1-0.6,0.3-1.2,0.4-1.8c0.1-0.5,0.4-0.9,1-1
		c0.6-0.2,1.1,0.1,1.1,0.7c0.1,1.7,0.1,3.4-0.2,5.2c-0.2,1-0.3,2-0.4,3c-0.1,0.4,0.2,0.4,0.4,0.5c1,0.2,2,0.3,3.1,0.5
		c1.5,0.2,2.9,0.8,4.3,1.1c3.2,0.7,6.3,1.6,9.4,2.6c3.8,1.3,7.3,3,10.6,5.3c2,1.4,4.2,2.5,6.1,4.1c2.5,2.1,4.8,4.3,7.1,6.5
		c1.4,1.3,2.8,2.7,4.2,4c0.4,0.4,0.5,0.8,0.2,1.3c-1.4,2.7-3.6,4.3-6.7,4.4c-1.3,0.1-2.5-0.1-3.7-0.2c-2.7-0.1-5.2,0.2-7.7,1.4
		c-1.4,0.7-2.4,1.8-3.2,3.1c-0.6,1.1-1.2,2.1-1.9,3.2c-1.6,2.4-3.8,3.8-6.6,4.5c-2.2,0.5-4.3,1.1-6.5,1.7c-1.5,0.4-2.8,1.3-3.4,2.9
		c-0.5,1.4-0.3,2.8,0.3,4.1c1.4,3.3,4.1,5.2,7.5,6.1c2.7,0.6,5.3,0.3,7.9-0.9c0.3-0.1,0.5-0.2,0.8-0.2c1.7-0.3,2.5,0.3,2.6,2
		c0.1,1.8,0.5,3.6,1.1,5.4c0.9,2.5,2.5,4.5,4.2,6.4c1.1,1.3,2.6,2.1,4,2.9c1.6,0.9,3.1,1.9,4.5,3.1c0.7,0.6,1.1,1.5,1.4,2.4
		c0.2,1-0.8,2.1-1.8,2.3c-1.8,0.3-3.3-0.4-4.9-1.2c-1.9-0.9-3.6-2.1-5.6-2.8c-3.4-1.3-7-2-10.7-1.5c-1.3,0.2-2.4,0.9-3.4,1.6
		c-0.2,0.2-0.3,0.4-0.1,0.7c0.2,0.4,0.4,0.8,0.6,1.3c1.8-1.8,4.2-2.1,6.6-2.5c0.6-0.1,1.2-0.1,1.7,0c3.3,0.6,6.4,1.9,9.4,3.6
		c1.2,0.7,2.5,1.4,3.7,2c1.3,0.6,2.7,0.9,4.2,0.9c1,0,1.7-0.6,2.4-1.2c0.3-0.2,0.3-0.6,0.4-0.9c0.6-2.4-0.6-4.2-2.2-5.7
		c-1.7-1.6-3.5-2.9-5.3-4.3c-1.8-1.3-3.4-2.7-4.4-4.6c-0.9-1.6-1.3-3.3-1.9-5c-0.6-1.7-1-3.5-2-5c-1.1-1.9-2.7-2.6-4.8-2.5
		c-1.3,0.1-2.7,0.3-3.9,0.6c-2.5,0.6-4.8,0.3-6.8-1.3c-0.4-0.3-0.8-0.6-1.1-1c-1.3-1.7-1.1-2.9,0.7-4.2c1.9-1.3,3.9-2.2,6.1-2.8
		c2.7-0.7,4.7-2.2,6.3-4.3c1.5-1.9,3-3.8,4.7-5.5c1.3-1.3,2.9-2,4.7-2.2c2.2-0.2,4.3-0.1,6.5-0.3c2.8-0.2,5.3-1.1,7-3.4
		c0.6-0.8,0.9-0.9,1.6,0c1.4,1.8,2.7,3.7,3.5,5.9c0.8,2.2,1.9,4.2,2.5,6.4c0.8,2.4,1.2,4.8,1.4,7.3c0.4,4.3,0.5,8.6,0.4,12.9
		c-0.1,3.1-0.5,6.2-1,9.3c-0.6,3.9-1.7,7.7-3.1,11.4c-1,2.8-2.6,5.3-4.4,7.7c-1.2,1.6-2.4,3.3-3.7,4.9c-1.3,1.5-2.6,2.9-4,4.3
		c-1.9,1.7-3.6,3.7-5.6,5.3c-1.8,1.5-3.6,3.1-5.7,4.1c-2.1,1-4.1,2.1-6.3,3c-1.3,0.6-2.7,1-4.1,1.4c-0.7,0.2-1.1,0.6-1.4,1.3
		c-1.1,2.6-2.9,4.7-5.1,6.5c-1.4,1.1-2.9,1.9-4.8,2.1c-0.3,0-0.4,0.3-0.4,0.5c-0.2,0.7-0.4,1.3-0.6,2c-0.8,2-1.9,3.8-3.9,4.9
		c-1.2,0.7-2.4,1-3.8,0.7c-1.6-0.3-3.1-0.7-4.5-1.7c-1.4-1-1.9-2.3-1.9-3.9c0-2.1,0.9-3.8,2.2-5.3c0.5-0.6,1-1.2,1.5-1.8
		c0.2-0.2,0.3-0.4,0.2-0.7c-0.2-0.6-0.3-1.2-0.3-1.8c0-0.3-0.1-0.4-0.5-0.4c-3.5,0-7.1-0.4-10.6-0.6c-1.4-0.1-2.8-0.5-4.2-0.8
		c-0.9-0.2-0.9-0.2-1.1,0.7c-0.8,2.6-2.3,4.6-4.4,6.3c-0.7,0.6-1.6,0.8-2.6,0.7c-0.5,0-0.8,0.1-0.8,0.7c-0.2,1.6-0.4,3.2-0.6,4.9
		c-0.2,1.4-1,2.2-2.2,2.8c-2.3,1.1-4.6,1.5-7.1,0.7c-2-0.6-3.7-2.9-3.9-5c-0.2-2.1,0.5-4,1.4-5.8c0.3-0.5,0.4-1.1,0.7-1.6
		c0.2-0.6,0.3-1-0.1-1.6c-0.6-0.9-0.3-1.9-0.1-2.9c0.1-0.7,0.3-1.4,0.5-2.1c0.4-1.9,1.6-3.2,2.7-4.7c0.3-0.4,0.4-0.6,0-1
		c-1.2-1-2.5-1.8-3.8-2.7c-2-1.4-3.9-3-5.4-4.9c-0.2-0.2-0.4-0.4-0.6-0.6c-0.4-0.4-0.8-0.7-1.4-0.1
		C30.7,118.4,30.2,117.9,29.7,117.4z M75.2,54.5c0-0.3-0.1-0.6,0-1c0-0.1,0.1-0.3-0.1-0.3c-0.2,0-0.4-0.2-0.6,0
		c-0.2,0.3-0.4,0.7-0.3,1c0,0.3,0.5,0.2,0.7,0.3C75,54.6,75.1,54.5,75.2,54.5c0.5,0.4,1.2,0.3,1.7,0.4c0.2,0,0.2-0.1,0.2-0.2
		c0-0.2,0.1-0.4,0.2-0.6c0.1-0.2,0.2-0.4-0.1-0.5c-0.2-0.1-0.5-0.1-0.5,0.3c0,0.2-0.1,0.5-0.3,0.6c-0.1-0.2-0.1-0.4,0-0.6
		c0.1-0.3-0.1-0.5-0.4-0.5c-0.3,0-0.3,0.2-0.3,0.4C75.5,54.1,75.5,54.4,75.2,54.5z M87.8,112c-0.6,0.1-1.1,0.3-1.7,0.4
		c-1.7,0.4-3.3,1.1-4.9,1.9c-0.4,0.2-0.5,0.4-0.6,0.8c-0.1,0.7,0.1,1.4,0.2,2.1c0.1,1,0.6,1.7,1.4,2.2c1.8,1.1,3.7,1.6,5.7,2.1
		c2.3,0.6,4.5,0.3,6.8,0.1c0.6,0,1-0.5,1.3-1.1c0.1-0.3,0.2-0.6,0.3-0.8c0.8-2.8,0.4-5.6-0.5-8.4c-0.1-0.2-0.3-0.4-0.4-0.5
		c-0.7-0.6-1.4-0.5-2.2-0.3C91.3,110.9,89.5,111.3,87.8,112L87.8,112z M50.7,57.3c-0.4,0-0.5,0.2-0.4,0.6c0.1,0.3,0.2,0.6,0.3,0.9
		c0,0.3,0.3,0.8-0.1,0.8c-0.5,0.1-0.3-0.5-0.4-0.7c-0.2-1.3-0.3-1.4-1.5-0.8c-1.5,0.7-3,1.4-4.6,1.7c-3.3,0.6-6.3,0.1-9.2-1.5
		c-0.1-0.1-0.2-0.2-0.4-0.1c-0.2,0.2,0,0.3,0,0.4c0.3,0.6,0.7,1.2,1,1.8c0.2,0.5,0.5,0.7,0.9,0.8c1.2,0.4,2.4,0.3,3.7,0.3
		c2.8,0.1,5.5,0.1,8.3-0.3c2.8-0.3,5.6-1,8.2-2.1c3-1.2,5.6-3.1,7.6-5.8c0.4-0.5,0.6-1,0.5-1.7c-0.1-2.2-0.5-4.3-0.4-6.5
		c0-0.1,0-0.2-0.1-0.2c-0.2,0.3-0.3,0.6-0.3,1c0,1.4-0.6,2.6-1.3,3.8c-0.9,1.6-2.2,2.8-3.9,3.6c-1.2,0.6-2.5,1.1-3.7,1.7
		C53.7,56,52.1,56.5,50.7,57.3L50.7,57.3z M66.9,63.3c0,0.5,0.1,1.2,0.3,1.8c0.9,2.1,1.5,4.3,2.2,6.5c1.2,3.5,2.5,7,3.7,10.5
		c0.1,0.2,0.2,0.4,0.4,0.5c2.6,1.1,5.5,1.3,8.2,1.9c0.4,0.1,0.2-0.2,0.2-0.3c-0.1-0.6-0.6-1-0.9-1.5c-1.2-2.3-2.4-4.6-3.3-7
		c-0.7-1.8-1.6-3.5-2-5.4c-0.4-1.6-0.4-3.3,0.8-4.7c0.5-0.7,1-1.4,1.2-2.2c0.5-1.6,0.7-3.3,1.1-5c0.3-1.4,0-1.8-1.3-2.2
		c-1.5-0.4-3.1-0.9-4.7-1.3c-1.4-0.3-2.7-0.9-4.1-1c-1.7-0.1-1.8,0-1.8,1.8C66.9,58.2,67.1,60.7,66.9,63.3z M95.5,128.6
		c0.1-0.8-0.1-1.5-1-2.2c-0.7-0.5-1.4-0.7-2.2-0.9c-3.1-0.6-6.2-1.1-9.2-2c-1.5-0.5-1.7-0.4-2.4,1.1c-0.9,1.9-1.9,3.9-2.6,5.9
		c-0.7,1.8-1.2,3.6-1.2,5.5c0,0.9,0.3,1.6,1.2,2c0.6,0.3,1.2,0.7,1.9,1c1.9,1,3.8,2,6,2.1c1.3,0,2.4-0.3,3.5-0.8
		c0.9-0.4,1.4-1.2,2-1.9C94.1,135.7,95.4,132.5,95.5,128.6z M71.6,105c1.1-0.1,1.8-0.4,1.9-1.1c0.1-0.6,0.4-1.1,0.7-1.7
		c1.6-2.9,3.6-5.6,5.4-8.4c1.1-1.7,2.5-3,4.3-3.9c0.2-0.1,0.3-0.2,0.4-0.3c0.3-0.3,0.4-0.6-0.1-0.7c-1.1-0.4-2.1-0.8-3.2-1
		c-2.6-0.5-5.2-0.4-7.8-0.4c-0.2,0-0.4,0.1-0.6,0.3c-1.1,0.8-2.1,1.8-3.3,2.4c-2,1-4.1,1.9-6.2,2.6c-1.5,0.5-3.1,0.8-4.7,0.1
		c-0.3-0.1-0.4,0.1-0.5,0.3c-0.6,1.2-1.3,2.4-2.3,3.3c-0.3,0.3-0.3,0.5,0.2,0.7c0.8,0.4,1.7,0.6,2.6,0.8c1.4,0.3,2.9,0.6,4.2,1.3
		c2.8,1.5,5.6,2.9,8,5.1C70.7,104.9,71.1,105,71.6,105z M37.8,76.5c0,1.2,0,2.1-0.1,3.1c-0.1,0.8-0.2,0.9-1,0.8
		c-1.1-0.1-2.1-0.2-3.2-0.5c-0.3-0.1-0.7-0.2-0.8,0.2c-0.2,0.4,0.1,0.7,0.5,0.9c0.5,0.2,1.1,0.4,1.6,0.6c1.9,0.6,3.7,1.1,5.8,0.9
		c1.7-0.2,2-0.5,2.4-2.1c0.2-0.9,0.4-1.8,0.6-2.7c0-0.2,0.1-0.4,0.3-0.4c0.3,0,0.4,0.2,0.5,0.3c0.1,0.1,0.1,0.2,0.2,0.4
		c1.2,2.8,2.8,5.5,4.2,8.3c1.1,2.1,1.9,4.3,3,6.4c0.3,0.6,0.5,1.3,1.1,1.4c0.7,0,1.2-0.6,1.5-1.3c0.1-0.1,0.1-0.3,0.2-0.4
		c0.3-0.7,0.6-1.4,1-2c0.4-0.7,0.3-1.1-0.1-1.8c-2.7-4.1-5.1-8.4-7.2-12.9c-0.6-1.2-1.1-2.4-1.3-3.7c-0.1-0.5-0.2-0.8-0.6-1
		c-2.6-1.3-5-2.8-7.3-4.6c-1-0.8-2-1.7-3.1-2.4c-0.2-0.1-0.5-0.4-0.7-0.1c-0.4,0.7-1,1.4-1,2.3c0,1.2-0.1,2.4,0.3,3.6
		c0.1,0.2,0,0.4,0,0.6c-0.2,1.5,0.2,2,1.7,2.2c0.3,0,0.6,0.1,0.8,0.1c0.6,0,0.9,0.3,0.9,0.9C37.9,74.7,37.7,75.7,37.8,76.5z
		 M79.5,110.5c0.6,0,1.1,0,1.6-0.2c2.1-0.7,4.3-1.2,6.4-2.1c1.4-0.6,3-0.9,4.3-1.8c0.9-0.7,2-1.2,1.7-2.8c-0.7-3.6-1.8-7-4.4-9.6
		c-1.3-1.3-2.9-1.5-4.4-0.3c-0.4,0.3-0.8,0.6-1.1,1c-2,1.7-3.7,3.8-5.1,5.9c-0.6,0.9-1.1,1.9-1.7,2.8c-0.8,1.2-1.3,2.5-1.2,3.9
		c0,0.4,0.2,0.7,0.4,0.9c0.6,0.5,1.2,1,1.7,1.5C78.3,110.1,78.8,110.7,79.5,110.5z M52.5,108.5c-0.1,1,0.6,2.1,1.9,2.8
		c0.4,0.2,0.8,0.4,1.3,0.6c3.1,1.4,6.5,2.2,9.4,4.1c1,0.6,2,0.2,2.6-0.8c0.2-0.3,0.4-0.6,0.5-1c0.8-1.4,1.1-3,1-4.6
		c-0.1-1.5-0.9-2.8-2.1-3.8c-2.7-2.1-5.7-3.5-8.9-4.4c-0.9-0.3-1.8-0.7-2.8-0.5c-1.1,0.1-2.1,0.8-2.3,1.6
		C52.9,104.4,52.6,106.2,52.5,108.5z M29.4,49.8c0.2-1.3,0.3-2.4,0.5-3.5c0.7-2.9,2-5.4,4.2-7.6c1.8-1.8,4-3,6.2-4.3
		c1.7-1,3.4-1.7,5.3-2c1.5-0.2,3.1-0.1,4.6-0.2c2.1-0.1,4,0.3,5.9,1.2c1.3,0.7,2.6,1.2,3.8,1.8c0.2,0.1,0.5,0.2,0.7,0.1
		c0.3-0.1,0.4-0.2,0.2-0.6c-1-1.5-2-2.9-3.6-3.9c-1.8-1-3.5-1.8-5.6-2c-2.8-0.3-5.6-0.6-8.4-0.5c-4.7,0.2-8.2,2.4-11.2,5.9
		c-1.9,2.2-3,4.8-3.5,7.6C28.1,44.8,28.1,47.3,29.4,49.8z M38.2,99.9c0.1-1.4-0.3-2.4-1.7-2.9c-0.2-0.1-0.3-0.1-0.5-0.2
		c-1.3-0.8-2.9-0.8-4.3-1.4c-0.6-0.3-1.3-0.3-1.9-0.4c-0.4-0.1-0.7,0.1-1,0.4c-0.2,0.3-0.4,0.5-0.6,0.8c-1.5,3-2.6,6.2-2.8,9.6
		c-0.2,2.2,1.1,3.1,2.5,3.5c1.1,0.3,2.1,0.5,3.2,0.6c1.5,0.1,2.9-0.3,3.9-1.5C37.2,106,37.8,102.9,38.2,99.9z M57.2,134
		c0-0.1,0-0.3,0-0.5c-0.1-1.3-0.3-1.4-1.6-1.6c-1.4-0.3-2.9-0.6-4.2-1.3c-1.7-1-3.3-2.2-4.9-3.4c-0.8-0.6-2-0.5-2.5,0.2
		c-0.4,0.6-1,1.1-1.3,1.7c-0.8,1.4-1.4,2.9-1.9,4.4c-0.5,1.6,0.2,3.3,1.8,4c2.9,1.4,6,1.9,9.1,2.1c3.2,0.2,2.7-0.2,4.3-2
		C56.8,136.6,57.2,135.4,57.2,134z M70.3,32.9c-0.1,1.8-0.1,3,0.1,4.3c0.1,0.4,0.2,0.6,0.6,0.7c2.7,0.9,5.4,1.2,8.2,0.9
		c1.2-0.1,2.3-1.1,2.4-2.3c0.1-1.1,0.2-2.1,0-3.2c-0.3-1.5-0.4-3-1.2-4.5c-0.5-1-1.2-1.4-2.3-1.7c-2.4-0.6-4.6-0.6-6.9,0.3
		c-0.5,0.2-0.7,0.5-0.8,1C70.3,30,70.3,31.7,70.3,32.9z M61.1,91.7c1.2,0,2.3-0.6,3.5-1c2.2-0.8,4.3-1.9,6.2-3.3
		c0.5-0.3,0.7-0.8,0.7-1.3c0-0.5-0.1-0.9-0.3-1.4c-1.2-3.8-2.7-7.5-3.9-11.3c-0.7-2.3-1.6-4.5-2.4-6.7c-0.3-0.9-1.1-1.4-2-1.4
		c-1.1,0-2.3,0.1-3.3,0.5c-1.7,0.6-3.4,1.1-5.1,1.8c-1.8,0.7-3.5,1.4-5.1,2.3c-0.5,0.3-0.7,0.7-0.8,1.2c-0.2,1,0.1,1.9,0.5,2.8
		c1.8,4.2,3.6,8.3,6.3,12c1.1,1.5,1.8,3.2,3.1,4.6C59.3,91.4,60.1,91.7,61.1,91.7z M68.7,47.8c0,0.6,0,0.9,0,1.3
		c0,0.4,0.2,0.7,0.5,0.8c0.8,0.3,1.7,0.7,2.5,1c2.3,0.8,4.7,1.2,7.2,1.5c0.8,0.1,1-0.1,1.2-0.9c0.6-2.1,0.6-4.2,0.7-6.3
		c0-0.6-0.3-1.2-0.3-1.9c0-0.1-0.1-0.3-0.2-0.3c-0.9-0.5-1.8-1.2-2.9-1.2c-1.8,0-3.6-0.3-5.4-0.6c-1.4-0.2-1.4-0.2-2.1,1
		C69,44.1,68.8,46,68.7,47.8z M40.9,88.3c0-0.7-0.1-1.3-0.1-2c0-0.3-0.2-0.5-0.5-0.6c-1.1-0.2-2.1-0.5-3.2-0.7
		c-1.5-0.3-2.9-0.5-4.3-1.1c-0.7-0.3-1.1-0.2-1.5,0.5c-0.2,0.3-0.4,0.6-0.4,1c-0.4,1.5-0.6,3.1-1,4.7c-0.3,0.9,0,1.2,0.8,1.6
		c2.6,1.2,5.4,1.6,8.2,1.6c0.7,0,1.2-0.3,1.4-1C40.8,91.1,40.9,89.7,40.9,88.3z M76.1,24.1c0.6,0,1.1,0,1.6,0c0.5,0,0.8-0.1,1-0.6
		c0.3-0.7,0.6-1.5,0.8-2.3c0.3-2.1,0.7-4.2,1-6.2c0.1-0.6,0.1-1.2,0.1-1.8c0-0.2-0.1-0.4-0.3-0.5c-0.2-0.1-0.3,0.2-0.4,0.3
		c-0.1,0.4-0.2,0.8-0.2,1.3c-0.1,1-0.3,1.9-0.8,2.8c-0.1,0.2-0.2,0.5-0.6,0.5c-0.4,0-0.5-0.4-0.5-0.7c-0.2-0.6,0-1.2,0-1.7
		c0.1-1.3,0.1-2.6,0-3.9c0-0.2,0-0.5-0.3-0.5c-0.2,0-0.4,0.1-0.5,0.3c-0.1,0.1-0.2,0.3-0.2,0.5c-0.3,0.9-0.4,1.9-0.4,2.8
		c0,0.9-0.2,1.7-0.4,2.5c-0.1,0.2-0.2,0.4-0.4,0.4c-0.2,0-0.3-0.1-0.3-0.3c-0.2-0.6-0.4-1.3-0.3-2c0.1-1.1,0.1-2.2-0.2-3.3
		c0-0.1,0-0.3-0.2-0.3c-0.2,0-0.2,0.2-0.3,0.3c0,0.1,0,0.2-0.1,0.3c-0.3,1.4-0.2,2.7-0.2,4.1c0,0.5,0,1-0.6,1c-0.5,0-0.6-0.6-0.6-1
		c-0.1-1-0.2-2.1-0.3-3.1c0-0.4-0.1-0.8-0.3-1.1c-0.1-0.1-0.1-0.3-0.3-0.2c-0.1,0-0.1,0.2-0.1,0.3c0,0.5,0,1,0,1.6
		c0,1.6,0.5,3.2,0.7,4.8c0.1,0.7,0.1,1.3-0.1,2c-0.1,0.3-0.2,0.5-0.5,0.5c-0.3,0-0.5-0.2-0.6-0.4c-0.2-0.4-0.4-0.9-0.7-1.3
		c-0.3-0.5-0.5-1-1.1-1.4c-0.5-0.3-0.7-0.1-0.8,0.4c0,0.5,0.1,1,0.4,1.4c0.9,1.1,1.6,2.3,2.2,3.5c0.2,0.4,0.5,0.7,0.9,0.7
		C73.6,23.8,74.9,24.3,76.1,24.1z M59,128.4c0.9,0,1.7-0.3,2.3-1.2c1.3-1.7,2-3.6,2.3-5.7c0.1-1.2-0.1-2.2-1.2-2.9
		c-2.9-1.7-5.9-3.3-9.2-4.3c-1.2-0.4-2.1,0-2.8,0.8c-1.7,1.7-2.7,3.7-2.9,6.1c0,0.5,0,0.9,0.3,1.3c1,1.8,2.5,3.1,4.4,4
		C54.3,127.4,56.5,128.5,59,128.4z M41.1,138.7c-0.5,0.3-0.6,0.8-0.8,1.3c-0.9,1.9-1.4,3.9-1.3,6c0,1.1,0.5,2,1.6,2.4
		c2.1,0.7,4.2,1.2,6.3,0.1c0.8-0.4,1.7-0.8,2.1-1.7c0.6-1.5,0.6-3.1,0.5-4.6c0-0.5-0.3-0.9-0.8-0.9c-0.5,0-0.4,0.5-0.5,0.9
		c-0.2,0.9-0.6,1.2-1.5,1.1c-0.7-0.1-1.3-0.2-2-0.2c-1.2-0.1-2.3-0.2-3.3-1c-0.4-0.3-0.5-0.6-0.6-1C40.7,140.2,41,139.5,41.1,138.7z
		 M79.4,149c0.5,0,1,0,1.4-0.2c2.4-1.1,3.5-3.1,4.1-5.6c0-0.2,0.1-0.4-0.2-0.5c-0.2-0.1-0.3,0.1-0.4,0.3c-0.1,0.2-0.2,0.3-0.3,0.4
		c-0.5,0.8-1.1,1.1-2,0.9c-1-0.2-2-0.5-2.9-0.9c-1.5-0.7-2.2-1.8-2.1-3.5c0-0.2,0-0.4-0.2-0.5c-0.1-0.1-0.3,0.1-0.4,0.1
		c-1.7,1.1-2.5,2.8-3.3,4.4c-0.4,0.8-0.5,1.7,0,2.5c0.5,0.7,1.1,1.2,1.9,1.5C76.5,148.7,78,148.8,79.4,149z M39.1,116.4
		c2.4,0,4.8-0.4,7-1.5c1.4-0.7,2.8-1.4,4.4-1.9c0.6-0.2,1-0.8,1.2-1.5c0.1-0.2,0-0.4-0.2-0.6c-0.2-0.2-0.3,0-0.5,0.1
		c-0.6,0.3-1.2,0.5-1.8,0.8c-2.2,1.2-4.4,2.1-7,2.3c-3,0.1-5.7-0.4-7.3-3.3c-0.1-0.2-0.2-0.2-0.4-0.2c-0.8,0.3-1.6,0.5-1.7,1.6
		c0,0.3-0.1,0.6-0.2,0.9c-0.1,0.3-0.1,0.6,0.1,0.8c0.6,1,1.3,1.8,2.5,2C36.6,116.3,37.8,116.5,39.1,116.4z M26.5,112.2
		c0.2,0.2,0.1,0.4,0.1,0.6c-0.1,0.8-0.2,1.5-0.2,2.3c0,1.6,0.5,3.1,1.3,4.4c0.2,0.3,0.5,0.5,0.9,0.4c0.3-0.1,0.1-0.5,0.1-0.7
		c-0.2-1.4-0.5-2.7-0.5-4.1c0-0.5,0.1-1,0.4-1.5c0.2-0.3,0.5-0.5,0.9-0.4c0.4,0.1,0.4,0.5,0.4,0.8c0,0.7,0.1,1.5,0.1,2.2
		c0,0.3,0.1,0.6,0.5,0.6c0.4,0.1,0.6-0.2,0.6-0.5c0.4-1.5,0.6-3,0.4-4.5c0-0.4-0.3-0.7-0.7-0.7c-1.6-0.2-3.1-0.5-4.6-1.2
		c-0.5-0.2-0.7,0-0.8,0.5c-0.4,1.7-0.4,3.5-0.2,5.2c0.1,0.5,0.1,1,0.4,1.4C25.6,115.4,25.2,113.7,26.5,112.2z M48.3,88.3
		c-0.1,0-0.1,0-0.2,0c-0.2,1.3-0.8,2.5-1.3,3.7c-1.5,3.5-3.8,6.3-7.1,8.3c-0.2,0.1-0.4,0.2-0.4,0.4c-0.1,0.9-0.2,1.8-0.3,2.8
		c0.3,0,0.5-0.2,0.6-0.3c1.6-1.5,3.3-2.9,4.8-4.5c2.2-2.1,3.6-4.7,4.9-7.4c0.1-0.2,0.2-0.5,0-0.7C49.1,89.9,48.7,89.1,48.3,88.3z
		 M42.7,65.2c0.1,0.3,0.3,0.3,0.5,0.4c1.1,0.4,2.3,0.8,3.4,1.2c1,0.3,2,0.3,3-0.2c3.7-1.5,7.3-3.2,11.3-4c1-0.2,1.5-0.8,1.7-1.8
		c0.1-0.4,0-0.4-0.3-0.3c-1.4,0.6-2.9,1-4.3,1.7c-2.7,1.2-5.5,2-8.4,2.3C47.2,64.6,45,64.8,42.7,65.2z M45.1,39.1
		c-1.7-0.2-3,0.5-4.2,1.2c-1.9,1-3.2,2.7-4.5,4.4c-0.7,0.9-1.2,2-1.2,3.1c-0.1,1.2,0.7,2.2,1.8,2.3c0.7,0.1,0.9-0.1,0.8-0.7
		c-0.2-0.9-0.3-1.8,0.1-2.7c1.1-2.5,2.7-4.5,5.1-5.9C43.7,40.4,44.4,39.8,45.1,39.1z M30.9,49.7c-0.1-0.8,0.2-1.4,0.3-2.2
		c0.5-3.2,1.9-6,4.2-8.2c2.3-2.2,5-3.7,7.9-4.8c1.5-0.6,3-0.8,4.5-1c0.9-0.1,1.7-0.2,2.6,0c2.9,0.7,5.7,1.5,8.3,3.1
		c0-0.3-0.2-0.3-0.4-0.4c-1.2-0.7-2.4-1.4-3.7-2.1c-1.5-0.8-3.3-0.9-5-1c-2.4-0.1-4.8,0-7,0.9c-1.6,0.7-3.2,1.6-4.7,2.5
		c-2.4,1.3-4.3,3.2-5.7,5.5c-1.2,2-1.9,4.2-1.8,6.5C30.4,49,30.4,49.4,30.9,49.7z M89.7,91.5c-0.2-1.3-1.3-3-2.2-3.6
		c-2.2-1.5-4.7-2.1-7.3-2.5c-1.9-0.3-3.8-0.3-5.6-0.9c-0.6-0.2-0.7-0.1-0.6,0.5c0,0.1,0,0.2,0,0.3C73.8,85.9,74,86,74.5,86
		c3.2,0.1,6.3,0.6,9.4,1.7c1.5,0.5,2.9,1,4.1,2.1C88.6,90.2,89.1,90.9,89.7,91.5z M51.6,104.9c0.4-1.1,0.8-2,0.7-3.1
		c-0.1-0.8,0-1.5,0.1-2.2c0.4-1.6,1.3-2.8,2.3-4c1-1.2,1.8-2.6,2.5-4c0.2-0.3-0.1-1-0.5-1.2c-0.4-0.1-0.4,0.3-0.5,0.5
		c-1.1,1.9-2.3,3.7-3.5,5.4c-1.3,1.9-2.2,4-1.9,6.4C50.8,103.5,51,104.2,51.6,104.9z M63.1,44.4c0,0.1,0,0.2,0,0.2
		c0,0.6,0.2,1.1,0.1,1.7c-0.5,2-1.8,3.5-3.4,4.7c-1.4,1.1-2.9,1.9-4.4,2.7c-4.1,2.1-8.1,4.2-12.8,4.6c-2.2,0.2-4.3,0.4-6.4-0.7
		c-0.1,0-0.2-0.1-0.3,0c0.9,0.5,1.6,1.2,2.7,1.3c2.7,0.5,5.3,0.4,7.9-0.8c1.7-0.7,3.4-1.2,5.1-2c1.9-0.9,3.8-1.8,5.7-2.8
		c2-1,3.7-2.4,5.1-4.2C63.3,47.7,63.4,46.1,63.1,44.4z M72.3,85.8c0.4-0.6,0.5-1,0.3-1.5c-0.9-2.4-1.5-4.8-2.3-7.2
		c-1-2.8-2.2-5.6-3-8.5C67,67.3,66.6,66,66,64.8c-0.3-0.6-0.8-0.9-1.6-1c0.2,0.3,0.3,0.4,0.4,0.6c0.8,1.5,1.6,3,2,4.7
		c0.2,0.8,0.4,1.7,0.7,2.5c1.2,3.2,2.8,6.4,3.7,9.7C71.5,82.8,72.3,84.1,72.3,85.8z M65.6,53.3c-0.1,0.1-0.1,0.2-0.2,0.3
		c-1.4,2.5-1.5,5.2-2,7.9c-0.1,0.9,0,0.9,0.9,0.9c0.2,0,0.4,0,0.5,0c0.6,0.2,0.7-0.1,0.7-0.6c0.1-2.3,0.1-4.6,0.6-6.9
		C66.3,54.4,66,53.8,65.6,53.3z M116.4,113c1.4,0.1,2.1-1.2,2.2-2.4c0.1-1-0.9-1.9-2-1.9c-1,0-2.4,0.9-2.4,1.6
		C114.1,111.8,115.2,113,116.4,113z M64.7,41.4c-0.1-0.9-0.3-1.9-0.7-2.7c-0.4-0.9-1.1-1.5-1.8-2c-0.7-0.5-1-0.3-1.2,0.5
		c-0.1,0.5,0,1,0.2,1.4c0.5,1,1,2,1.5,3c0.2,0.4,0.5,0.7,0.7,1.1c0.1,0.1,0.2,0.3,0.4,0.1C64.3,42.5,64.7,42.1,64.7,41.4z
		 M120.2,71.6c1.5,0.1,2,1.1,2.6,2c0.1,0.2,0.3,0.4,0.4,0.7c0.2,0.4,0.4,0.5,0.6,0c0.4-0.8,1-1.3,1.8-1.6c0.3-0.1,0.6-0.2,0.9-0.6
		c-1.8-0.5-2.8-1.8-3.4-3.5C122.8,70.2,121.4,70.6,120.2,71.6z M35.7,62.5c1,1,1.9,2.2,3.2,2.7c0.2,0.1,0.4,0.1,0.5,0.3
		c0.5,0.6,1.3,0.6,1.7,1.2c0.1,0.1,0.3,0.1,0.5,0c0.2-0.1,0.3,0,0.4,0.2c0.1,0.6,0.5,0.6,0.9,0.4c0.5-0.2,0.8,0.1,0.7,0.6
		c0,0.3,0.1,0.4,0.3,0.5c0.2,0.1,0.4,0.1,0.5-0.1c0.2-0.2,0.5-0.2,0.5,0.1c-0.1,0.8,0.6,0.8,1.1,1c1,0.4,1,0.4,1.6-0.6
		c0.2-0.3,0.2-0.4-0.2-0.6c-0.9-0.3-1.8-0.6-2.7-0.9c-1.4-0.5-2.6-1.5-4-2c-1.2-0.5-2.3-1.2-3.3-2C36.9,63.1,36.4,62.7,35.7,62.5z
		 M37.2,74.4c0.1-1.1,0-1.1-1.1-1.3c-0.5-0.1-1.1-0.2-1.5-0.5c-0.2-0.1-0.4-0.3-0.6-0.2c-0.2,0.1-0.2,0.4-0.2,0.7
		c0,0.4,0.2,0.7,0.6,0.8c0.5,0.1,1,0.2,1.5,0.2c0.2,0,0.4,0.1,0.4,0.4c-0.1,1-0.1,2-0.2,3c-0.1,0.7-0.5,0.9-1.2,0.8
		c-0.5-0.1-1-0.2-1.5-0.2c-0.2,0-0.4-0.1-0.4,0.2c0,0.2,0,0.4,0.3,0.5c0.9,0.3,1.8,0.6,2.7,0.7c0.6,0.1,0.9-0.1,0.9-0.8
		C36.9,77.3,37.1,75.9,37.2,74.4z M29.3,53c0.2,1.7,1.1,3.2,2.4,4.5c0.3,0.3,0.7,0.3,1.1,0.4c0.5,0,0.6-0.2,0.5-0.7
		c-0.7-1.7-1.6-3.4-3-4.8c-0.2-0.2-0.3-0.7-0.7-0.5c-0.4,0.2-0.2,0.6-0.3,0.9C29.4,52.8,29.4,52.8,29.3,53z M47.2,141.4
		c0.1-0.5-0.2-0.7-0.7-0.7c-1.1-0.2-2.3-0.4-3.4-0.8c-0.6-0.2-0.9,0-1.2,0.9c-0.2,0.7-0.1,0.9,0.6,1.2c1.1,0.3,2.2,0.5,3.3,0.7
		C47,142.8,47.2,142.6,47.2,141.4z M82.2,143.5c0.7,0,0.7-0.5,0.9-0.9c0.2-0.4-0.1-0.5-0.4-0.6c-1.5-0.5-3-1-4.5-1.7
		c-0.1-0.1-0.3-0.3-0.5-0.1c-0.2,0.2-0.1,0.4,0,0.6c0.1,0.2,0.2,0.3,0.3,0.4C79,142.7,80.7,143.1,82.2,143.5z M46.8,54.1
		c0-0.1,0-0.2,0-0.3c-1.7,0-3.4,0-5.2,0c-1,0-1.9-0.2-2.5-1.1c-0.1-0.1-0.2-0.2-0.3-0.2c-0.2,0.1-0.2,0.3-0.2,0.4
		c0,0.6,0.5,1.2,1.1,1.4c1.6,0.6,3.3,0.5,5,0.5C45.5,54.9,46.2,54.6,46.8,54.1z M74.9,109.7c-0.5-0.6-0.9-1.2-1.4-1.8
		c-0.1-0.1-0.1-0.2-0.3-0.2c-0.7,0.2-1.6,0.1-2.2,0.6c-0.4,0.3-0.1,1.1-0.1,1.6c0,0,0,0.1,0,0.1c0,0.3,0.2,0.4,0.5,0.3
		C72.6,110.2,73.7,110,74.9,109.7z M21.4,66.9c0.8,0,1.6-0.8,1.6-1.6c0-0.8-0.8-1.6-1.7-1.6c-0.7,0-1.2,0.8-1.3,1.8
		C20.1,66.1,20.8,66.9,21.4,66.9z M98.8,40.5c0.4-1.1,1-1.9,2.1-2.4c-1.1-0.5-1.9-1.1-2.3-2.2c-0.2,1.1-0.8,1.8-1.6,2.5
		C97.7,38.9,98.3,39.6,98.8,40.5z M35.7,75.9c0.1-0.8,0.1-0.8-0.8-1.2c-1.1-0.5-1.2-0.5-1.5,0.7c0,0.2-0.1,0.3-0.1,0.5
		c-0.4,1.6-0.3,1.6,1.3,1.6c0.7,0,0.9-0.1,1-0.9C35.7,76.4,35.7,76.1,35.7,75.9z M110.7,42.9c-0.4,0.4-0.5,0.9-0.7,1.3
		c-0.3,0.5-1,0.7-0.9,1.2c0.2,0.5,0.8,0.8,1.2,1.2c0,0,0.1,0.1,0.1,0.1c0.1,0.1,0.2,0.2,0.4,0c0.4-0.6,1-1,1.5-1.4
		c0.1-0.1,0.3-0.2,0.1-0.4C111.7,44.4,111.2,43.6,110.7,42.9z M72.4,40.3c-0.1-0.3-0.1-0.6-0.1-0.8c-0.1-0.2-0.3-0.2-0.5-0.1
		c-0.3,0.2-0.2,0.5-0.3,0.8c-0.1,0.1,0.2,0.2,0.3,0.2c1.9,0.4,3.8,0.5,5.7,0.7c0.1,0,0.3,0.1,0.3-0.1c0-0.3,0.1-0.7-0.3-0.8
		c-0.4-0.1-0.6,0-0.6,0.4c0,0.1-0.1,0.2-0.2,0.2c-0.1-0.3,0.2-0.8-0.5-0.8c-0.6,0-0.3,0.7-0.7,0.8c-0.1-0.3,0.2-0.8-0.3-1
		c-0.5-0.1-1-0.2-1.2,0.6c-0.2-0.4-0.1-0.8-0.6-0.9C72.7,39.5,72.8,40,72.4,40.3z M36.7,95.1c0,1,0.7,0.9,1.2,0.9
		c0.6,0,0.4-0.5,0.5-0.9c0.1-0.4-0.2-0.4-0.4-0.4c-1.2-0.1-2.3-0.2-3.4-0.6c-0.5-0.2-0.5,0.3-0.6,0.5c-0.2,0.3-0.1,0.5,0.2,0.6
		c0.5,0.2,1,0.1,1.5,0.3C36.2,95.8,36.7,95.9,36.7,95.1z M34.7,56.8c0.1-0.3-0.1-0.6-0.2-0.9c-0.9-1.8-2-3.5-3.1-5.2
		c-0.1-0.2-0.2-0.5-0.5-0.4c-0.2,0.1-0.2,0.4-0.1,0.6c0,0.1,0,0.3,0.1,0.4c1.2,1.6,2,3.4,3.2,5C34.2,56.5,34.3,56.8,34.7,56.8z
		 M35.8,83.6c-0.1-0.9-0.1-0.9-1-0.6c-0.1,0-0.2,0.1-0.2-0.1c-0.3-0.7-1-0.4-1.5-0.7c-0.1-0.1-0.2,0.1-0.2,0.2
		c-0.1,0.3-0.1,0.6,0.3,0.8c1.4,0.6,2.9,0.9,4.5,1c0.2,0,0.4,0,0.4-0.2c0-0.2,0.2-0.3,0-0.5c-0.1-0.1-0.3-0.1-0.5,0
		c-0.2,0.1-0.3,0.2-0.5,0.2C37,83,36.9,83,35.8,83.6z M116.5,83.2c0-0.6-0.6-1.3-1.1-1.3c-0.5,0-1.1,0.6-1.2,1.2
		c0,0.6,0.7,1.2,1.3,1.2C116.1,84.3,116.4,83.9,116.5,83.2z M110.3,117.6c-0.6-0.6-1.2-0.9-1.6-1.4c-0.1-0.1-0.2-0.2-0.3,0
		c-0.3,0.4-0.7,0.8-1,1.2c-0.1,0.1-0.1,0.3,0,0.4c0.3,0.4,0.6,0.8,1,1.3C108.8,118.2,109.5,117.9,110.3,117.6z M73.1,118.8
		c-0.3,0.8-0.6,1.4-1.2,1.9c-0.2,0.2-0.2,0.3,0,0.5c0.9,0.9,0.9,0.9,1.9,0c0.1-0.1,0.2-0.2,0.3-0.3c0.2-0.2,0.3-0.3,0-0.6
		C73.7,120,73.4,119.5,73.1,118.8z M98.2,57c0-0.6-0.3-1.1-0.9-1.1c-0.5,0-1.4,0.7-1.4,1.1c0,0.5,0.7,1.2,1.2,1.2
		C97.7,58.2,98.2,57.7,98.2,57z M72.9,25.3c-0.1-0.1-0.2-0.2-0.2-0.3c-0.2-0.2-0.4-0.1-0.7-0.1c-0.1,0-0.2,0.2-0.1,0.3
		c0.1,0.2,0.3,0.2,0.5,0.2c0.7,0.1,1.4,0.3,2.2,0.3c1,0.1,2,0.4,3,0.2c0.2,0,0.4,0,0.4-0.2c0-0.2,0-0.4-0.2-0.5
		c-0.4-0.1-0.7-0.1-1.1-0.1c-0.3,0-0.2,0.4-0.4,0.5c-0.1,0-0.1,0-0.2,0.1c-0.1-0.3-0.1-0.6-0.4-0.7c-0.6-0.1-0.4,0.5-0.7,0.7
		c-0.2-0.9-0.3-0.9-1.1-0.5c-0.1,0.1-0.2,0.2-0.3,0C73.2,24.5,73.1,25.2,72.9,25.3z M128.8,64.6c-0.4,0.5-0.8,0.9-1.1,1.4
		c-0.2,0.3,0.3,0.4,0.4,0.6c0.1,0.2,0.4,0.3,0.5,0.5c0.3,0.3,0.4,0.2,0.7-0.1c0.8-0.9,0.8-0.9,0-1.8
		C129.3,65.1,129.1,64.9,128.8,64.6z M26.6,74.4c0,0,0-0.1-0.1-0.1c-0.3-0.4-0.6-0.9-1-1c-0.3-0.1-0.5,0.5-0.8,0.8
		c-0.2,0.2-0.3,0.4-0.5,0.5c-0.1,0.1-0.2,0.2-0.1,0.3c0.4,0.3,0.7,0.6,1.2,0.8c0.3,0.1,0.3-0.4,0.6-0.6c0.2-0.1,0.3-0.3,0.5-0.4
		C26.6,74.6,26.7,74.6,26.6,74.4z M59.5,64c-3.3,1.1-6.5,2.3-9.5,4C53.1,66.6,56.4,65.7,59.5,64z M114,69.4c0-0.5-0.5-1.1-1.1-1.1
		c-0.9,0.1-0.5,0.9-0.6,1.3c-0.1,0.5,0.4,0.7,0.8,0.7C113.5,70.5,114,69.9,114,69.4z M46.3,109.5c-0.4-0.3-0.8-0.9-1.2-0.9
		c-0.5,0-0.6,0.7-1,1.1c-0.1,0.1-0.3,0.2-0.1,0.4c0.3,0.5,0.8,0.6,1.3,0.2c0.2-0.2,0.5-0.4,0.7-0.6
		C46.1,109.7,46.2,109.6,46.3,109.5z M33,93.9c0,0.1,0,0.1,0,0.2c0,0.2-0.4,0.5,0.1,0.6c0.3,0.1,0.5,0.1,0.7-0.3
		c0.2-0.5-0.1-0.4-0.4-0.5c-0.1,0-0.3-0.1-0.4-0.2c-0.8-0.3-1.6-0.5-2.4-0.8c-0.1,0-0.3-0.1-0.4,0.1c-0.1,0.1-0.1,0.3-0.1,0.4
		c0.1,0.2,0.2,0,0.3,0c0.2,0,0.3,0,0.3,0.2c0,0.2,0,0.3,0.2,0.4c0.2,0.1,0.3-0.1,0.3-0.2c0.1-0.1,0.1-0.2,0.3-0.2
		c0.1,0,0.1,0.1,0.1,0.3c0,0.2-0.2,0.4,0.2,0.6c0.3,0.1,0.6,0.1,0.8-0.2C32.7,94,32.8,93.9,33,93.9z M89.8,49.8
		c0,0.7,0.4,1.3,0.8,1.4c0.4,0,0.9-0.4,0.9-0.9c0-0.5-0.6-1.1-1.1-1.1C90,49.2,89.9,49.5,89.8,49.8z M70.9,51.9
		c-0.2-0.2-0.5-0.3-0.8-0.4c-0.6-0.3-0.9,0-1.2,0.5c-0.3,0.6,0.2,0.7,0.5,0.9c0.2,0.2,0.6,0.5,0.8,0.3
		C70.6,52.9,70.7,52.4,70.9,51.9z M71.3,129.9c0,0.7,0.3,1,0.8,1c0.5,0,0.9-0.5,0.9-0.9c0-0.4-0.6-1.1-1-1
		C71.4,129,71.3,129.5,71.3,129.9z M103.6,106.7c-0.5,0-0.8,0.2-0.8,0.6c0,0.4,0.5,1.3,0.8,1.3c0.4,0,1-0.6,1-1
		C104.6,107,104.2,106.7,103.6,106.7z M50.7,108c0-0.4-0.3-0.8-0.7-0.8c-0.4,0-1,0.7-1,1.2c0,0.5,0.3,0.7,0.7,0.7
		C50.2,109.2,50.7,108.6,50.7,108z M100.2,49.8c0.5,0,1-0.4,1-0.9c0-0.5-0.4-0.8-1-0.8c-0.5,0-0.8,0.3-0.8,0.8
		C99.3,49.4,99.7,49.7,100.2,49.8z M59.6,37.8c0.3,2.2,1.6,3.8,3,5.3C61.6,41.3,60.5,39.6,59.6,37.8z M64.9,102.1c0,0.3,0,0.6,0,0.8
		c0,0.2,0.1,0.3,0.3,0.3c0.2,0.1,0.2-0.1,0.3-0.3c0.1-0.4,0.1-0.8-0.3-1.1c-0.3-0.2-0.5-0.4-0.8-0.5c-0.2-0.1-0.4-0.5-0.6-0.1
		c-0.2,0.3-0.6,0.7-0.1,1.1C64.1,102.8,64.3,102.8,64.9,102.1z M106.8,91c0-0.6-0.2-0.9-0.6-0.9c-0.5,0-1,0.4-1,0.9
		c0,0.4,0.4,0.8,0.9,0.8C106.6,91.8,106.7,91.4,106.8,91z M28.9,81.3c0.5,0,0.9-0.4,0.9-0.8c0-0.4-0.5-0.9-1-0.9
		c-0.3,0-0.8,0.6-0.8,0.9C28,81,28.4,81.3,28.9,81.3z M126.8,90.5c-0.6,0-1.1,0.4-1.1,0.8c0,0.5,0.4,0.7,0.8,0.8
		c0.3,0.1,1-0.6,1-0.9C127.5,90.8,127.2,90.5,126.8,90.5z M48.6,63.6c0.5,0,0.9,0,0.8-0.5c-0.1-0.4,0.1-1.1-0.6-1.1
		c-0.3,0-0.8-0.1-0.9,0.3C47.9,63,48.3,63.6,48.6,63.6z M102.1,86.4c0-0.5-0.3-0.8-0.8-0.8c-0.4,0-0.8,0.3-0.8,0.8
		c0,0.5,0.3,0.8,0.7,0.8C101.8,87.3,102.1,86.9,102.1,86.4z M23,59.3c-0.2,0.1-0.3,0.3-0.4,0.5c-0.2,0.4-0.1,1.2,0.2,1.4
		c0.4,0.2,0.5-0.4,0.7-0.5c0,0,0.1-0.1,0.1-0.1c0.1-0.2,0.5-0.3,0.2-0.6C23.7,59.8,23.4,59.5,23,59.3z M129.1,82.1
		c-0.1-0.4-0.2-0.8-0.7-0.8c-0.4,0-0.8,0.4-0.8,0.8c0,0.5,0.3,0.8,0.7,0.8C128.9,83,129,82.6,129.1,82.1z M44.6,62.3
		c-0.2,0.2-0.8-0.1-0.7,0.5c0.1,0.5-0.2,1.2,0.6,1.3c0.3,0,0.7,0,0.6-0.5C45,63.1,45.2,62.5,44.6,62.3z M101.7,92
		c0-0.6-0.3-0.8-0.7-0.8c-0.5,0-0.7,0.3-0.7,0.7c0,0.5,0.3,0.8,0.7,0.8C101.5,92.7,101.7,92.4,101.7,92z M59.6,46.2
		c-0.6,0-1.5,0.7-1.5,1.4c0,0.2,0.1,0.4,0.3,0.3c0.6-0.3,1.1-0.6,1.5-1.2C60.1,46.4,59.9,46.2,59.6,46.2z M90.3,40.4
		c0.1,0.3,0.1,0.7,0.6,0.7c0.4,0,0.9-0.5,0.9-0.9c0-0.4-0.3-0.6-0.7-0.6C90.7,39.5,90.3,39.9,90.3,40.4z M77.2,115.2
		c0-0.5-0.2-0.9-0.4-0.9c-0.4,0-0.8,0.5-0.8,1.1c0,0.4,0.1,0.7,0.6,0.7C77.1,116,77.2,115.6,77.2,115.2z M21.6,82.5
		c0-0.6-0.2-0.9-0.7-0.9c-0.5,0-0.5,0.4-0.5,0.7c0,0.4,0.1,1,0.6,1C21.5,83.4,21.6,82.8,21.6,82.5z M63.4,101
		c-0.1-0.4-0.5-0.6-0.9-0.6c-0.6-0.1-0.5,0.5-0.6,0.8c-0.1,0.5,0.5,0.6,0.9,0.7C63.3,101.9,63.2,101.3,63.4,101z M93.4,81.8
		c-0.3,0.1-0.5,0.3-0.5,0.6c0,0.4,0.5,0.9,0.9,0.8c0.4,0,0.5-0.3,0.5-0.6C94.3,82.4,93.8,81.8,93.4,81.8z M86.4,36.9
		c0-0.5-0.2-0.8-0.7-0.8c-0.4,0-0.6,0.2-0.6,0.5c0,0.4,0.4,0.9,0.8,0.9C86.3,37.5,86.3,37.2,86.4,36.9z M78,41.2
		c0.6,0.2,1.2,0.2,1.8,0.3c0.6,0.1,0.7,0,0.5-0.8c-0.1,0.2,0,0.6-0.5,0.6c0-0.2,0-0.4,0-0.6c0-0.1-0.1-0.2-0.2-0.2
		c-0.1,0-0.3-0.1-0.3,0.1c0,0.1-0.1,0.2-0.1,0.3c0,0.1-0.1,0.3-0.2,0.3c-0.2,0-0.1-0.2-0.1-0.3c0-0.2,0-0.4-0.2-0.4
		c-0.2,0-0.3,0.1-0.4,0.3C78.2,40.9,78.1,41,78,41.2z M80,94.9c-0.2,0-0.6,0.5-0.5,0.6c0,0.1,0.9,0.8,1.1,0.8
		c0.3-0.1,0.5-0.4,0.6-0.7C81.2,95.5,80.3,94.9,80,94.9z M45.8,62.3c-0.4-0.1-0.5,0.1-0.4,0.5c0.1,0.3,0.2,0.6,0.2,0.9
		c0.1,0.3,0.2,0.3,0.5,0.3c0.3,0,0.4-0.1,0.4-0.4c0-0.4-0.1-0.7-0.2-1.1C46.2,62.3,46,62.3,45.8,62.3z M88.9,28.2
		c0.1,0.3,0.1,0.6,0.4,0.8c0.3,0.1,0.5,0,0.7-0.2c0.5-0.5-0.1-0.7-0.3-1c-0.1-0.2-0.2-0.5-0.5-0.4C89,27.6,88.9,27.9,88.9,28.2z
		 M50.3,63.5c0.3,0,0.6,0,0.5-0.4c-0.2-0.4,0-1.1-0.6-1.3c-0.3-0.1-0.6,0.1-0.5,0.5C49.8,62.7,49.5,63.4,50.3,63.5z M24.1,53.1
		c0,0.4,0.1,0.7,0.6,0.7c0.5,0,0.6-0.3,0.6-0.7c0-0.4-0.2-0.8-0.6-0.8C24.3,52.4,24.1,52.7,24.1,53.1z M51.7,63.3
		c0.3,0,0.6-0.1,0.4-0.6c-0.1-0.3-0.1-0.5-0.2-0.8c-0.1-0.3-0.3-0.4-0.6-0.3c-0.3,0.1-0.4,0.3-0.3,0.5c0.1,0.3,0.2,0.6,0.3,0.9
		C51.3,63.3,51.5,63.4,51.7,63.3z M47.8,63.5c-0.1-0.4-0.1-0.7-0.1-0.9c0-0.6-0.4-0.5-0.7-0.4c-0.5,0-0.2,0.4-0.2,0.6
		c0,0.2,0.2,0.5,0.2,0.7c0,0.3,0.1,0.4,0.4,0.3C47.6,63.7,47.9,63.7,47.8,63.5z M60.1,115.1c0,0.4-0.1,0.6-0.1,0.9
		c0,0.4,0.4,0.5,0.7,0.7c0.2,0.1,0.4,0.2,0.5,0c0.1-0.3,0.2-0.6,0.1-0.9C61,115.4,60.5,115.4,60.1,115.1z M72.3,53.9
		c0.6,0,0.5-0.7,0.6-1.1c0.2-0.5-0.4-0.5-0.5-0.5c-0.5,0.1-0.5,0.6-0.7,1C71.6,53.8,71.9,53.9,72.3,53.9z M78.5,96.9
		c-0.3,0.1-0.4,0.3-0.4,0.5c0.1,0.4,0.5,0.8,0.9,0.9c0.3,0.1,0.5-0.4,0.7-0.7C79.8,97.4,78.8,96.8,78.5,96.9z M81.6,63.8
		c-0.1-0.4-0.3-0.6-0.7-0.6c-0.4,0-0.6,0.3-0.6,0.7c0,0.4,0.2,0.6,0.7,0.6C81.3,64.5,81.6,64.3,81.6,63.8z M43.6,63.7
		c0-0.4-0.1-0.6-0.1-0.9c0-0.5-0.3-0.4-0.6-0.4c-0.3,0-0.4,0.2-0.3,0.4c0.1,0.3,0.1,0.5,0.2,0.8c0.1,0.3,0.2,0.4,0.5,0.4
		C43.6,64.1,43.6,63.8,43.6,63.7z M122.4,108c0.1,0.3,0.2,0.7,0.6,0.6c0.4-0.1,0.6-0.4,0.6-0.8c0-0.4-0.2-0.6-0.6-0.6
		C122.6,107.2,122.5,107.6,122.4,108z M41.9,64.1c0.1,0,0.4,0.1,0.4-0.2c0-0.4,0-0.9-0.3-1.2c-0.2-0.2-0.5-0.2-0.7-0.1
		c-0.3,0.1,0,0.3,0,0.5c0,0.2,0.1,0.5,0.2,0.7C41.5,64,41.6,64.2,41.9,64.1z M83.9,92.9c-0.2-0.4-0.7-0.6-1-0.8
		c-0.2-0.1-0.3-0.1-0.4,0.1c-0.1,0.2-0.5,0.3-0.1,0.5c0.4,0.3,0.7,0.9,1.3,0.5C83.8,93.1,83.8,93,83.9,92.9z M85.7,81.3
		c-0.1-0.3-0.2-0.6-0.6-0.7c-0.4,0-0.7,0.2-0.7,0.6c0,0.4,0.2,0.7,0.6,0.7C85.4,81.9,85.6,81.7,85.7,81.3z M74.1,53.3
		c0-0.5-0.4-0.6-0.6-0.6c-0.5,0.1-0.3,0.7-0.5,1.1c-0.2,0.5,0.3,0.3,0.4,0.4C74.2,54.3,73.8,53.5,74.1,53.3z M65.6,127.7
		c0.2-0.1,0.7-0.1,0.7-0.6c0-0.4-0.2-0.6-0.6-0.5c-0.3,0-0.8,0.1-0.8,0.6C64.9,127.5,65.1,127.7,65.6,127.7z M57.7,60.9
		c-0.2-0.3,0.1-0.8-0.5-0.9c-0.2,0-0.7,0.1-0.6,0.4c0.1,0.4,0.1,0.9,0.6,1C57.5,61.5,57.8,61.4,57.7,60.9z M41,63.8
		c-0.1-0.4-0.2-0.7-0.3-1.1c-0.1-0.2-0.3-0.2-0.4-0.2c-0.1,0-0.3,0-0.3,0.1c-0.2,0.3,0.2,1.3,0.6,1.4C40.9,64.3,41,64.1,41,63.8z
		 M78.6,98.7c-0.1-0.5-0.5-0.6-0.8-0.7c-0.4,0-0.5,0.4-0.5,0.7c0,0.4,0.5,0.6,0.8,0.6C78.4,99.4,78.6,99,78.6,98.7z M106.9,62.8
		c-0.6,0-0.8,0.3-0.9,0.7c0,0.3,0.2,0.5,0.5,0.5c0.4,0,0.7-0.3,0.7-0.7C107.3,63,107.1,62.8,106.9,62.8z M60,100.2
		c0,0.5,0.3,0.7,0.6,0.7c0.5,0,0.5-0.6,0.5-0.9c0.1-0.3-0.4-0.4-0.7-0.4C59.9,99.5,60.1,99.9,60,100.2z M85.1,122.3
		c0-0.6-0.5-0.6-0.8-0.6c-0.4,0-0.3,0.4-0.3,0.6c-0.1,0.5,0.4,0.6,0.7,0.6C85.1,123,85,122.5,85.1,122.3z M41.5,120.4
		c0-0.2-0.1-0.5-0.5-0.4c-0.4,0.1-0.7,0.3-0.7,0.8c0,0.3,0.3,0.5,0.7,0.5C41.4,121.2,41.6,121,41.5,120.4z M83.8,91.4
		c-0.2,0-0.5,0-0.6,0.3c-0.1,0.3,0.2,0.3,0.3,0.4c0.2,0.2,0.4,0.3,0.6,0.5c0.2,0.1,0.3,0.1,0.4,0c0.1-0.1,0.4-0.2,0.2-0.4
		C84.5,91.7,84.2,91.4,83.8,91.4z M121.1,46.8c-0.3,0.2-0.7,0.3-0.8,0.8c0,0.4,0.2,0.6,0.6,0.5c0.4,0,0.6-0.3,0.6-0.7
		C121.5,47.1,121.4,46.8,121.1,46.8z M54.6,129.4c0-0.4-0.1-0.5-0.4-0.5c-0.7,0-0.5,0.5-0.6,0.9c-0.1,0.3,0.1,0.4,0.4,0.4
		C54.5,130.2,54.4,129.7,54.6,129.4z M57,98.7c-0.4,0-0.8-0.1-1.1-0.1c-0.3,0-0.4,0.2-0.5,0.5c-0.1,0.3,0.2,0.3,0.4,0.4
		C56.5,99.7,56.7,99.1,57,98.7z M62.4,58.5c-0.1-0.2-0.2-0.5-0.4-0.8c-0.1-0.1-0.1-0.2-0.2-0.1c-0.2,0.2-0.6,0.2-0.5,0.5
		c0.2,0.3,0.2,0.8,0.7,0.9C62.1,59,62.4,59,62.4,58.5z M96.9,102.9c0,0.2,0,0.6,0.4,0.6c0.4,0,0.7-0.2,0.7-0.6
		c0-0.3-0.2-0.6-0.6-0.7C97.1,102.2,96.9,102.5,96.9,102.9z M121.5,83.9c0.1,0.2,0,0.6,0.4,0.6c0.4,0,0.6-0.3,0.6-0.7
		c0-0.3-0.1-0.7-0.5-0.7C121.7,83.2,121.6,83.6,121.5,83.9z M56.5,61.6c-0.1-0.3-0.2-0.6-0.3-1c-0.1-0.3-0.2-0.2-0.4-0.1
		c-0.2,0.1-0.5,0.2-0.3,0.5c0.1,0.3,0.2,0.8,0.6,0.9C56.2,62,56.5,62,56.5,61.6z M111.8,75.7c0.3-0.1,0.5-0.3,0.6-0.7
		c0-0.4-0.2-0.5-0.5-0.5c-0.3,0-0.7,0.1-0.7,0.5C111.1,75.4,111.4,75.5,111.8,75.7z M99.9,82.1c0.3-0.1,0.6-0.3,0.6-0.7
		c0-0.3-0.3-0.5-0.6-0.5c-0.4,0-0.6,0.3-0.6,0.7C99.3,81.9,99.5,82,99.9,82.1z M116.2,40.3c-0.1-0.2-0.2-0.4-0.5-0.4
		c-0.4,0-0.6,0.3-0.7,0.7c0,0.3,0.2,0.5,0.5,0.4C116,41,116.1,40.7,116.2,40.3z M53.6,61.2c-0.2,0.1-0.6,0-0.3,0.5
		c0.1,0.2,0.2,0.5,0.3,0.8c0.1,0.1,0,0.4,0.3,0.3c0.2-0.1,0.5-0.1,0.3-0.4c-0.1-0.3-0.2-0.6-0.3-0.9C53.9,61.3,53.9,61.2,53.6,61.2z
		 M119.2,64.4c-0.4,0-0.6,0.1-0.6,0.5c0,0.3,0.1,0.7,0.4,0.6c0.3,0,0.7-0.2,0.8-0.6C119.8,64.6,119.6,64.3,119.2,64.4z M102.2,45
		c0,0.3,0.1,0.6,0.5,0.5c0.4,0,0.6-0.3,0.6-0.6c0-0.3-0.2-0.5-0.5-0.5C102.4,44.3,102.3,44.6,102.2,45z M61.3,59.3
		c-0.2-0.3-0.2-0.8-0.6-0.9c-0.2,0-0.6,0.2-0.6,0.4c0.1,0.3,0.3,0.7,0.7,0.9C60.9,59.7,61.2,59.5,61.3,59.3z M85.8,51.1
		c-0.1-0.3-0.3-0.5-0.6-0.5c-0.4,0-0.6,0.2-0.6,0.6c0,0.4,0.3,0.5,0.7,0.5C85.6,51.6,85.7,51.4,85.8,51.1z M40.4,84
		c0.2,0.2,0.3,0.2,0.3,0c0-0.1,0-0.3-0.2-0.3c-0.6,0-1.1-0.1-1.7-0.1c-0.3,0-0.5,0.2-0.4,0.5c0,0.3,0.5,0.2,0.5,0.1
		C39.4,83.6,40,84.5,40.4,84z M102.4,70.3c0.3-0.1,0.5-0.3,0.5-0.6c0-0.3-0.2-0.6-0.5-0.6c-0.4,0-0.6,0.2-0.6,0.6
		C101.9,70,102.1,70.2,102.4,70.3z M83.1,93.8c-0.2-0.4-0.6-0.5-0.9-0.7c-0.3-0.1-0.4-0.1-0.6,0.1c0,0-0.1,0.1-0.1,0.1
		c0,0.2,1.1,0.9,1.3,0.8C82.9,94,83,93.9,83.1,93.8z M94.1,88.1c0,0.2,0.2,0.5,0.6,0.5c0.3,0,0.6-0.2,0.6-0.6c0-0.3-0.2-0.6-0.6-0.6
		C94.3,87.4,94.1,87.6,94.1,88.1z M87.3,123c0.1-0.4-0.1-0.6-0.5-0.6c-0.5,0-0.3,0.5-0.4,0.8c-0.1,0.4,0.2,0.5,0.5,0.5
		C87.3,123.7,87.2,123.2,87.3,123z M90,110c-0.3-0.3-0.1-0.9-0.7-0.9c-0.2,0-0.5,0-0.4,0.3c0.1,0.3,0,0.8,0.5,0.9
		C89.6,110.4,90,110.4,90,110z M70.8,53.5c0.4,0.1,0.6,0,0.6-0.2c0.1-0.4,0.4-0.7,0.3-1.1c0-0.1-0.2-0.1-0.3-0.1
		c-0.3,0-0.3,0.2-0.3,0.4c-0.2,0.3-0.3,0.6-0.3,1C70.7,53.5,70.9,53.5,70.8,53.5z M90,56.9c0-0.3-0.2-0.6-0.6-0.6
		c-0.3,0-0.6,0.1-0.6,0.5c0,0.4,0.2,0.5,0.6,0.6C89.7,57.4,89.9,57.3,90,56.9z M90.6,84.8c-0.1-0.3-0.3-0.5-0.6-0.5
		c-0.4,0-0.6,0.2-0.6,0.6c0,0.3,0.2,0.5,0.6,0.5C90.4,85.3,90.6,85.1,90.6,84.8z M90.2,123.2c-0.6,0-0.4,0.5-0.5,0.8
		c-0.1,0.3,0.1,0.5,0.4,0.5c0.6-0.1,0.3-0.6,0.5-1C90.7,123.2,90.4,123.2,90.2,123.2z M65.8,29.8c0.4,0,0.6-0.2,0.6-0.6
		c0-0.3-0.2-0.6-0.6-0.6c-0.3,0-0.5,0.3-0.5,0.6C65.3,29.6,65.5,29.8,65.8,29.8z M55.6,129.7c0.1-0.4,0.1-0.5-0.3-0.5
		c-0.7,0-0.4,0.6-0.6,0.9c-0.2,0.3,0.1,0.3,0.3,0.4C55.6,130.5,55.5,130,55.6,129.7z M93.3,124.2c0,0.3,0,0.5,0.2,0.4
		c0.5-0.2,0.5-0.7,0.6-1.2c0.1-0.3-0.1-0.4-0.3-0.3C93.2,123.3,93.5,123.9,93.3,124.2z M94.9,69.8c0.3-0.1,0.5-0.2,0.5-0.6
		c0-0.3-0.1-0.5-0.5-0.6c-0.4,0-0.6,0.3-0.6,0.6C94.4,69.5,94.6,69.7,94.9,69.8z M78.2,69.8c0-0.4-0.2-0.5-0.5-0.5
		c-0.3,0-0.5,0.2-0.5,0.5c0,0.3,0.2,0.5,0.5,0.5C78,70.4,78.2,70.2,78.2,69.8z M55.3,62c0-0.6-0.2-1-0.5-1c-0.2,0-0.4,0.1-0.3,0.4
		c0.2,0.4-0.1,0.9,0.5,1C55.1,62.4,55.4,62.4,55.3,62z M59.6,60.4c0.2-0.2,0.5-0.1,0.5-0.4c0-0.2-0.5-0.9-0.6-0.9
		c-0.2,0.1-0.6,0.1-0.5,0.4C59.1,59.8,59.3,60.2,59.6,60.4z M106.4,122.9c0-0.4-0.2-0.5-0.5-0.5c-0.3,0-0.5,0.2-0.5,0.5
		c0,0.4,0.2,0.6,0.6,0.5C106.2,123.4,106.4,123.2,106.4,122.9z M81.1,112.7c0.2-0.1,0.7,0,0.8-0.4c0-0.2-0.2-0.6-0.5-0.6
		c-0.3,0-0.7,0.1-0.8,0.5C80.6,112.5,80.7,112.8,81.1,112.7z M125.2,58.2c-0.4-0.1-0.5,0.1-0.5,0.4c0,0.3,0.1,0.6,0.5,0.6
		c0.4,0,0.6-0.3,0.6-0.6C125.8,58.1,125.5,58.2,125.2,58.2z M93.2,60.9c0.4,0,0.5-0.3,0.5-0.6c0-0.3-0.2-0.5-0.5-0.5
		c-0.4,0-0.5,0.2-0.5,0.6C92.6,60.7,92.8,60.8,93.2,60.9z M83.6,75.4c0,0.3,0.1,0.6,0.5,0.6c0.4,0,0.5-0.3,0.5-0.6
		c0-0.3-0.1-0.5-0.5-0.5C83.8,74.9,83.6,75.1,83.6,75.4z M68.8,105c0-0.3-0.2-0.4-0.4-0.6c-0.1-0.1-0.2,0-0.2,0.1
		c-0.1,0.3-0.3,0.6-0.3,0.9c-0.1,0.2,0.1,0.4,0.3,0.5c0.1,0.1,0.2,0.1,0.3,0C68.5,105.6,68.7,105.3,68.8,105z M93.9,43.1
		c0-0.3-0.2-0.5-0.5-0.5c-0.3,0-0.5,0.2-0.5,0.5c0,0.3,0.2,0.6,0.5,0.6C93.7,43.7,93.8,43.4,93.9,43.1z M63.2,57.7
		c0-0.3,0-0.7-0.3-0.9c-0.1,0-0.3,0.1-0.5,0.3c-0.3,0.3,0.1,0.5,0.2,0.7c0.1,0.2,0.2,0.5,0.4,0.4C63.1,58.2,63.2,57.9,63.2,57.7z
		 M24.6,88c0.3,0,0.5-0.3,0.5-0.7c0-0.3-0.2-0.4-0.4-0.4c-0.4,0.1-0.6,0.2-0.6,0.7C24.1,87.9,24.3,88,24.6,88z M43.1,106.6
		c0-0.3-0.1-0.5-0.4-0.5c-0.3,0-0.5,0.3-0.5,0.6c0,0.3,0.1,0.5,0.4,0.5C43,107.3,43.1,107,43.1,106.6z M88.6,123.4
		c0,0.4,0,0.7,0.3,0.7c0.3,0,0.5-0.3,0.5-0.6c0-0.3-0.2-0.5-0.5-0.5C88.5,122.9,88.6,123.2,88.6,123.4z M51.9,129.2
		c0.4,0,0.4-0.4,0.5-0.7c0-0.4-0.3-0.4-0.5-0.4c-0.3,0-0.4,0.3-0.4,0.6C51.4,129.1,51.7,129.2,51.9,129.2z M66.5,24.9
		c0.4,0,0.6-0.2,0.6-0.6c0-0.3-0.2-0.5-0.5-0.5c-0.4,0-0.5,0.3-0.5,0.6C66.1,24.7,66.2,24.9,66.5,24.9z M58.9,60.4
		c-0.2-0.3,0-0.8-0.6-0.8c-0.2,0-0.4,0.1-0.3,0.4c0.1,0.3,0,0.8,0.5,0.9C58.7,60.9,58.9,60.8,58.9,60.4z M58.9,99.4
		c0.1-0.4,0-0.6-0.3-0.5c-0.5,0-0.4,0.5-0.5,0.8c-0.1,0.4,0.2,0.5,0.4,0.4C59,100,58.8,99.6,58.9,99.4z M86.1,122.7
		c0-0.3,0.1-0.6-0.3-0.6c-0.5,0-0.3,0.4-0.4,0.6c-0.1,0.4,0.2,0.6,0.5,0.6C86.3,123.3,86,122.9,86.1,122.7z M53.1,62.7
		c-0.1-0.3-0.2-0.6-0.3-0.9c0-0.1-0.1-0.2-0.3-0.2c-0.2,0-0.3,0.1-0.2,0.3c0.1,0.3,0.1,0.6,0.1,0.9c0,0.2,0,0.4,0.3,0.3
		C53,63,53.1,62.9,53.1,62.7z M119.9,114.8c0.3,0,0.4-0.2,0.5-0.5c0-0.3-0.1-0.5-0.5-0.5c-0.3,0-0.6,0.2-0.6,0.6
		C119.4,114.7,119.6,114.8,119.9,114.8z M58.7,114.8c0-0.5-0.3-0.6-0.6-0.6c-0.3,0-0.3,0.3-0.3,0.5c0,0.5,0.3,0.6,0.7,0.6
		C58.8,115.4,58.6,115,58.7,114.8z M110.3,109.1c-0.3,0-0.6,0-0.6,0.4c0,0.3,0.3,0.5,0.6,0.5c0.3,0,0.6-0.1,0.6-0.4
		C110.9,109.2,110.6,109.1,110.3,109.1z M56.7,113.8c-0.3,0-0.3,0.3-0.3,0.5c0,0.5,0.4,0.4,0.7,0.5c0.3,0,0.3-0.3,0.3-0.5
		C57.4,113.9,57,113.9,56.7,113.8z M60.3,28.1c-0.3,0.1-0.5,0.3-0.5,0.6c0,0.3,0.2,0.5,0.5,0.4c0.3,0,0.5-0.2,0.5-0.5
		C60.8,28.3,60.6,28.2,60.3,28.1z M42,96.3c0.4-0.1,0.6-0.3,0.7-0.7c0-0.2-0.1-0.4-0.3-0.4c-0.4,0-0.7,0.3-0.7,0.7
		C41.5,96.2,41.8,96.3,42,96.3z M57.8,99.2c0.1-0.4-0.1-0.5-0.4-0.5c-0.6,0-0.3,0.5-0.5,0.8c-0.2,0.3,0.3,0.3,0.4,0.3
		C58,99.9,57.6,99.3,57.8,99.2z M117.2,58.7c0.1,0.2,0,0.5,0.4,0.4c0.4,0,0.5-0.4,0.5-0.7c0.1-0.3-0.2-0.5-0.4-0.5
		C117.4,58,117.2,58.3,117.2,58.7z M67.2,103.7c-0.1-0.3,0-0.6-0.5-0.5c-0.2,0-0.4,1-0.3,1.1c0.1,0.1,0.2,0.3,0.4,0.2
		C67.2,104.4,67.2,104,67.2,103.7z M88.8,110.2c-0.1-0.2-0.1-0.7-0.6-0.8c-0.2,0-0.4,0.1-0.3,0.3c0.1,0.3,0,0.8,0.6,0.8
		C88.7,110.6,88.8,110.5,88.8,110.2z M116.3,96c-0.2,0-0.4,0.2-0.4,0.5c0,0.3,0.1,0.6,0.5,0.6c0.3,0,0.4-0.3,0.4-0.6
		C116.9,96.2,116.7,96,116.3,96z M91.1,109.9c-0.1-0.3-0.3-0.6-0.4-0.9c-0.1-0.1-0.2-0.2-0.3-0.2c-0.1,0-0.2,0.1-0.2,0.3
		C90,109.6,90.5,110.1,91.1,109.9z M80.2,96.8c0-0.2-1-0.9-1.2-0.8c-0.1,0.1-0.2,0.2-0.2,0.3c0.3,0.4,0.7,0.6,1,0.7
		C80.1,97.2,80.1,96.9,80.2,96.8z M61.6,116.7c-0.1,0.4,0,0.7,0.4,0.7c0.4,0,0.2-0.4,0.3-0.6c0.1-0.3-0.1-0.6-0.4-0.6
		C61.4,116.1,61.7,116.5,61.6,116.7z M103,115.3c0-0.3-0.2-0.5-0.4-0.5c-0.3,0-0.5,0.3-0.5,0.6c0,0.2,0,0.5,0.3,0.4
		C102.7,115.9,102.9,115.6,103,115.3z M77.6,54.5c0,0.2-0.1,0.6,0.3,0.5c0.4,0,0.3-0.4,0.4-0.7c0-0.2,0.1-0.6-0.3-0.6
		C77.6,53.8,77.7,54.3,77.6,54.5z M93.5,34.5c0.2-0.1,0.4-0.3,0.3-0.6c0-0.2-0.1-0.5-0.4-0.5C93.1,33.4,93,33.7,93,34
		C93,34.3,93.1,34.5,93.5,34.5z M47.5,126.4c0.1-0.4,0.5-0.8,0-1.2c-0.2-0.2-0.3,0-0.4,0.2C46.7,125.8,47.1,126.1,47.5,126.4z
		 M53.3,129.1c0.2-0.3-0.1-0.5-0.3-0.5c-0.4,0-0.3,0.4-0.5,0.7c-0.1,0.2,0,0.5,0.3,0.5C53.3,129.8,53.1,129.3,53.3,129.1z
		 M29.5,70.6c-0.4,0-0.4,0.3-0.5,0.5c0,0.3,0.1,0.5,0.4,0.5c0.3,0,0.5-0.2,0.4-0.5C29.9,70.8,29.8,70.6,29.5,70.6z M55.4,113.9
		c-0.1,0.4,0.1,0.5,0.4,0.5c0.4,0,0.3-0.4,0.4-0.6c0.1-0.3-0.2-0.4-0.4-0.4C55.3,113.3,55.5,113.7,55.4,113.9z M30.1,64.6
		c0-0.1-0.1-0.3-0.3-0.3c-0.4,0-0.4,0.4-0.5,0.7c-0.1,0.2,0.1,0.4,0.3,0.4C29.9,65.3,30.1,65.1,30.1,64.6z M59.6,115.9
		c-0.1-0.4,0.3-0.9-0.3-1.1c-0.3-0.1-0.4,0.2-0.4,0.4C58.8,115.8,59.3,115.9,59.6,115.9z M55,113.5c0.1-0.4-0.2-0.6-0.4-0.6
		c-0.4,0-0.3,0.4-0.3,0.6c-0.1,0.3,0.2,0.4,0.4,0.4C55.1,114,55,113.7,55,113.5z M108.2,93.7c-0.4,0-0.4,0.3-0.4,0.5
		c0,0.3,0.1,0.5,0.4,0.4c0.3,0,0.4-0.3,0.4-0.5C108.6,93.9,108.5,93.7,108.2,93.7z M47.3,49.3c0.5-0.8,0.9-1.5,1.1-2.5
		C47.9,47.6,47.5,48.4,47.3,49.3z M66,103.8c0.3-0.2,0.3-0.5,0.4-0.8c0.1-0.3-0.2-0.5-0.4-0.4c-0.4,0.1-0.3,0.5-0.4,0.8
		C65.5,103.7,65.8,103.7,66,103.8z M84.5,110.5c-0.2,0.1-0.5,0.1-0.4,0.4c0.1,0.3,0.1,0.6,0.5,0.6c0.2,0,0.4,0,0.4-0.2
		C84.9,111,84.8,110.6,84.5,110.5z M129.1,104c0,0.3,0,0.6,0.4,0.6c0.3,0,0.4-0.3,0.4-0.5c0-0.3-0.2-0.5-0.5-0.5
		C129,103.6,129.1,103.9,129.1,104z M67.5,105.2c0.2-0.2,0.3-0.5,0.4-0.7c0.1-0.2,0.1-0.5-0.2-0.6c-0.3-0.1-0.3,0.2-0.3,0.4
		c-0.1,0.2-0.1,0.4-0.2,0.5C67.2,105,67.3,105.1,67.5,105.2z M56.7,129.9c0.1-0.4,0-0.4-0.2-0.4c-0.5,0-0.4,0.5-0.6,0.8
		c-0.1,0.2,0,0.3,0.2,0.3C56.6,130.4,56.6,130,56.7,129.9z M48.3,127c0.2-0.2,0.3-0.4,0.4-0.6c0-0.3-0.2-0.5-0.4-0.5
		c-0.2,0-0.3,0.4-0.3,0.6C47.9,126.8,48.1,126.9,48.3,127z M83.4,110.9c-0.2,0-0.4,0.1-0.3,0.3c0.1,0.2,0,0.6,0.4,0.6
		c0.2,0,0.5-0.1,0.4-0.4C83.9,111.2,83.7,111,83.4,110.9z M82.3,94.5c0-0.1-1.1-1-1.2-0.9c-0.1,0.1-0.2,0.2-0.1,0.3
		c0.3,0.3,0.6,0.6,1.1,0.8C82.1,94.7,82.3,94.7,82.3,94.5z M82.4,112.3c0.2,0,0.4-0.1,0.4-0.4c0-0.2-0.1-0.6-0.3-0.6
		c-0.1,0-0.5,0-0.5,0.3C82.1,111.9,82.1,112.1,82.4,112.3z M54,113.3c0-0.2,0.1-0.5-0.2-0.5c-0.3,0-0.3,0.3-0.4,0.6
		c-0.1,0.3,0.1,0.4,0.3,0.4C54,113.8,53.9,113.5,54,113.3z M131,86.9c-0.3,0-0.4,0.1-0.4,0.4c0,0.3,0.1,0.5,0.4,0.6
		c0.3,0,0.4-0.2,0.4-0.4C131.4,87.1,131.2,86.9,131,86.9z M69.9,125.2c-0.1-0.2-0.2-0.4-0.4-0.4c-0.3,0-0.4,0.3-0.4,0.5
		c0,0.2,0,0.5,0.3,0.4C69.7,125.7,69.8,125.4,69.9,125.2z M59.2,99.8c0,0.3-0.1,0.5,0.3,0.5c0.4,0,0.2-0.4,0.3-0.6
		c0.1-0.2,0-0.5-0.3-0.5C59.1,99.2,59.3,99.7,59.2,99.8z M47.7,102.6c-0.1-0.2-0.2-0.5-0.5-0.5c-0.2,0-0.3,0.2-0.3,0.4
		c0,0.3,0.1,0.5,0.4,0.6C47.6,103,47.7,102.8,47.7,102.6z M86.9,110.6c-0.1-0.3-0.1-0.6-0.5-0.7c-0.2,0-0.3,0.1-0.3,0.3
		c0.1,0.3,0,0.6,0.4,0.7C86.7,110.9,86.9,110.9,86.9,110.6z M114.4,105c0-0.2-0.2-0.3-0.4-0.3c-0.3,0-0.5,0.2-0.5,0.5
		c0,0.2,0.1,0.4,0.3,0.4C114.1,105.5,114.3,105.3,114.4,105z M76.6,101.7c0-0.3-0.2-0.4-0.4-0.4c-0.3,0-0.4,0.3-0.4,0.5
		c-0.1,0.3,0.2,0.4,0.4,0.4C76.4,102.2,76.4,101.9,76.6,101.7z M76.9,101.1c0.1-0.1,0.3-0.3,0.3-0.5c0-0.3-0.3-0.4-0.5-0.5
		c-0.2,0-0.4,0.1-0.3,0.4C76.4,100.8,76.6,101,76.9,101.1z M50.3,127.7c0.1-0.4-0.1-0.6-0.3-0.5c-0.3,0-0.3,0.4-0.3,0.6
		c-0.1,0.3,0.2,0.4,0.4,0.4C50.4,128.2,50.3,127.8,50.3,127.7z M88.2,123.3c0-0.3-0.1-0.6-0.3-0.5c-0.4,0.1-0.2,0.5-0.2,0.7
		c0,0.2,0,0.4,0.3,0.4C88.4,123.9,88.1,123.5,88.2,123.3z M81.7,95c-0.1-0.3-0.4-0.4-0.7-0.6c-0.2-0.1-0.4-0.3-0.6-0.1
		c-0.2,0.3,0.2,0.3,0.3,0.4c0.2,0.2,0.5,0.3,0.7,0.4C81.5,95.2,81.7,95.2,81.7,95z M103.7,32.8c0.2-0.1,0.3-0.3,0.3-0.5
		c0-0.3-0.1-0.5-0.4-0.5c-0.2,0-0.3,0.2-0.2,0.4C103.3,32.5,103.4,32.7,103.7,32.8z M49.4,127.2c0.1-0.3,0-0.6-0.3-0.6
		c-0.4,0-0.3,0.4-0.4,0.6c-0.1,0.3,0.2,0.4,0.3,0.4C49.5,127.6,49.4,127.3,49.4,127.2z M92.5,109.1c-0.2-0.2-0.2-0.7-0.6-0.8
		c-0.1,0-0.3,0.1-0.2,0.2c0.2,0.3,0.1,0.8,0.6,0.9C92.4,109.5,92.5,109.4,92.5,109.1z M27.6,60.2c0.2-0.1,0.4-0.2,0.3-0.5
		c0-0.2-0.1-0.4-0.4-0.4c-0.3,0-0.3,0.3-0.4,0.5C27.2,60,27.3,60.2,27.6,60.2z M93.3,108.7c0-0.3-0.2-0.6-0.5-0.7
		c-0.1,0-0.4,0-0.3,0.2c0.1,0.3,0.1,0.7,0.5,0.7C93.2,109.1,93.3,108.9,93.3,108.7z M92.6,124.6c0.4-0.4,0.4-0.8,0.4-1.2
		c0-0.1,0-0.2-0.1-0.2c-0.1,0-0.2,0-0.2,0.2C92.6,123.8,92.5,124.1,92.6,124.6z M91.4,123.7c0-0.2,0-0.5-0.2-0.5
		c-0.4,0.1-0.2,0.5-0.3,0.8c0,0.1,0,0.4,0.2,0.4C91.4,124.3,91.3,123.9,91.4,123.7z M99.7,126.2c0-0.2-0.2-0.4-0.4-0.3
		c-0.2,0-0.4,0.2-0.4,0.4c0,0.2,0.1,0.4,0.3,0.4C99.4,126.6,99.7,126.5,99.7,126.2z M83.6,121.8c0.1-0.3-0.1-0.4-0.3-0.5
		c-0.3,0-0.3,0.2-0.3,0.4c0,0.3,0.2,0.4,0.4,0.4C83.7,122.2,83.5,121.9,83.6,121.8z M75.3,103.9c-0.1-0.2-0.2-0.4-0.4-0.4
		c-0.3,0-0.3,0.3-0.3,0.5c0,0.2,0.2,0.4,0.4,0.4C75.3,104.3,75.3,104.1,75.3,103.9z M91.7,124c0,0.2-0.1,0.4,0.1,0.5
		c0.3,0,0.3-0.2,0.3-0.4c0-0.3,0.3-0.7-0.1-0.8C91.6,123.3,91.9,123.8,91.7,124z M39.5,63.1c-0.1-0.2,0.1-0.5-0.3-0.5
		c-0.2,0-0.4,0-0.3,0.3c0.1,0.3,0.1,0.6,0.4,0.6C39.6,63.6,39.4,63.3,39.5,63.1z M61.8,100c-0.3,0.3-0.5,0.6-0.6,0.9
		c0,0.1,0,0.2,0.1,0.2c0.1,0,0.2,0,0.2,0C61.7,100.7,61.9,100.4,61.8,100z M50.6,128.2c0,0.2,0,0.5,0.2,0.5c0.3,0,0.2-0.3,0.3-0.5
		c0.1-0.3-0.1-0.4-0.3-0.4C50.6,127.7,50.7,128,50.6,128.2z M69.3,105.5c0.1-0.2,0-0.3-0.1-0.3c-0.1-0.1-0.2,0-0.3,0.1
		c-0.1,0.3-0.3,0.6-0.4,0.9c0,0.1,0,0.2,0,0.2c0,0,0.1,0,0.2,0C69,106,69.2,105.7,69.3,105.5z M46,47.1c-0.5,0.7-0.9,1.4-1.1,2.2
		C45.3,48.6,45.6,47.8,46,47.1z M53.1,112.8c0.1-0.2-0.1-0.2-0.2-0.3c-0.4,0-0.3,0.3-0.3,0.5c-0.1,0.2,0.1,0.4,0.3,0.3
		C53.1,113.3,53,113,53.1,112.8z M63.1,117.8c0-0.4,0.3-0.7-0.1-1c-0.1-0.1-0.2,0.1-0.2,0.2C62.6,117.3,62.6,117.6,63.1,117.8z
		 M66.4,35.2c0-0.2-0.1-0.4-0.3-0.4c-0.3,0-0.3,0.3-0.3,0.4c0,0.2,0.1,0.4,0.3,0.4C66.3,35.6,66.4,35.4,66.4,35.2z M75.5,102.5
		c-0.2,0-0.2,0.2-0.3,0.3c-0.1,0.3,0.1,0.4,0.3,0.4c0.2,0.1,0.3-0.2,0.3-0.3C76,102.6,75.6,102.6,75.5,102.5z M23.6,95.7
		c0-0.2-0.1-0.4-0.3-0.4c-0.2,0-0.3,0.3-0.4,0.5c0,0.2,0.1,0.2,0.3,0.2C23.4,96.1,23.6,96,23.6,95.7z M85.4,110.3
		c-0.1,0-0.3,0-0.2,0.2c0.1,0.3,0.1,0.6,0.4,0.7c0.1,0,0.3,0,0.3-0.2C85.8,110.7,85.7,110.4,85.4,110.3z M63.6,117.3
		c-0.2,0.3-0.3,0.6,0,0.9c0.2,0.1,0.3-0.1,0.3-0.2C64.2,117.6,63.9,117.5,63.6,117.3z M57.1,130.5c0.4-0.1,0.3-0.5,0.4-0.8
		c0-0.1-0.1-0.2-0.1-0.1c-0.3,0.1-0.4,0.5-0.5,0.8C56.9,130.5,57,130.5,57.1,130.5z M87.7,110.4c-0.1-0.2-0.2-0.5-0.5-0.6
		c-0.2,0-0.2,0.1-0.1,0.3c0.1,0.3,0.1,0.6,0.4,0.6C87.7,110.7,87.7,110.5,87.7,110.4z M77.8,99.8c-0.2-0.1-0.5-0.3-0.8-0.4
		c-0.1,0-0.2,0.1-0.1,0.2c0.2,0.3,0.4,0.5,0.7,0.5C77.8,100.1,77.8,100,77.8,99.8z"/>
	<path d="M51.4,75.1c0-1.2,0.4-1.6,1.5-2c1.6-0.5,3.3-0.8,5-1.1c1.2-0.2,2.3-0.6,3.4-1c1.1-0.4,2.3-0.6,3.5-0.5
		c0.6,0,0.9,0.3,1.2,0.9c0.8,1.6,0.8,3.4,1.2,5.1c0.2,0.7-0.2,1.1-0.8,1.5c-0.9,0.5-1.9,0.6-2.8,1c-2.2,1.1-4.5,2-6.8,2.9
		c-0.7,0.2-1.4,0.4-2,0.6c-0.5,0.1-0.8,0-1-0.4c-0.9-1.9-1.7-3.9-2.3-6C51.4,75.7,51.4,75.4,51.4,75.1z M52.8,76.5
		c0,1.4,0.8,2.8,1.7,4.3c0.1,0.2,0.3,0.3,0.5,0.2c1.2-0.4,2.5-0.5,3.7-1.1c1.9-0.9,3.7-1.9,5.6-3c1-0.6,1.6-1.4,1.5-2.6
		c0-0.5-0.3-1.1-0.4-1.6c-0.3-1-0.9-1.4-1.9-1.2c-1.3,0.2-2.5,0.6-3.8,0.8c-1.7,0.4-3.5,0.7-5.1,1.3C53.4,74.1,52.8,75,52.8,76.5z"
		/>
	<path d="M70.2,85.1c0.1,0.5-0.1,0.6-0.3,0.7c-1.9,0.9-3.8,2.1-5.8,2.8c-1.2,0.4-2.4,1-3.5,1.5c-0.7,0.3-1.2,0.2-1.6-0.3
		c-0.6-0.7-1.2-1.5-1.5-2.4c-0.2-0.5,0-0.8,0.4-1.1c1.2-0.8,2.5-1.3,3.8-1.9c2-0.9,3.9-1.8,5.9-2.7c1-0.4,1.6-0.2,1.9,0.8
		C69.8,83.4,70,84.3,70.2,85.1z M61.8,86.4c-1.1,0.2-2,0.7-2.9,1.3c-0.1,0.1-0.2,0.2-0.1,0.3c0.1,0.2,0.2,0.1,0.4,0.1
		c0.9-0.3,1.8-0.6,2.7-0.9c0.2-0.1,0.4-0.1,0.3-0.3C62.1,86.6,62,86.4,61.8,86.4z M59.8,89.2c0.1,0,0.3-0.1,0.4-0.1
		c0.7-0.4,1.4-0.6,2.2-0.8c0.2,0,0.4-0.2,0.3-0.5c-0.1-0.2-0.1-0.4-0.3-0.3c-1,0.4-2,0.6-2.8,1.2c-0.1,0.1-0.2,0.1-0.1,0.3
		C59.6,89.1,59.6,89.2,59.8,89.2z M66,86.6c0.3-0.1,0.6-0.1,0.7-0.5c0-0.2-0.7-1.2-0.8-1.2c-0.3,0.2-0.8,0.2-0.8,0.7
		C65.1,85.9,65.7,86.6,66,86.6z M61.3,85.4c-0.7,0.3-1.3,0.5-2,0.8c-0.4,0.1-0.7,0.3-1,0.6c-0.1,0.1-0.2,0.1-0.1,0.3
		c0.1,0.1,0.2,0.1,0.3,0.1c1-0.4,2-0.8,3-1.3c0.1-0.1,0.2-0.2,0.2-0.3C61.5,85.4,61.4,85.4,61.3,85.4z M65,87.1
		c0-0.5-0.5-1.3-0.7-1.2c-0.3,0.1-0.6,0.2-0.7,0.6c0,0.3,0.6,1,0.8,0.9C64.6,87.3,64.9,87.3,65,87.1z M68.1,85.4
		c0-0.5-0.2-0.8-0.4-1.1c-0.2-0.3-0.4-0.2-0.7,0c-0.3,0.1-0.2,0.3,0,0.5c0.2,0.2,0.3,0.5,0.5,0.8c0.1,0.1,0.2,0.3,0.4,0.2
		C68,85.7,68.1,85.5,68.1,85.4z M63.2,85.2c0.3-0.2,0.8,0,0.9-0.5c0-0.2-0.1-0.5-0.5-0.5c-0.3,0.1-0.7,0.2-0.9,0.5
		C62.7,84.8,62.8,85.2,63.2,85.2z M68.6,83.7c-0.2,0.1-0.4,0.1-0.4,0.3c0,0.4,0.5,1.1,0.8,1.1c0.2-0.1,0.4-0.2,0.3-0.5
		C69.1,84.3,69,83.9,68.6,83.7z M65.6,84.1c-0.2-0.2-0.2-0.5-0.6-0.6c-0.2,0-0.5,0-0.5,0.3c0,0.2,0.1,0.6,0.4,0.7
		C65.1,84.5,65.3,84.3,65.6,84.1z M66.9,83.2c-0.1-0.2-0.2-0.4-0.5-0.3c-0.2,0-0.5,0-0.4,0.3c0,0.2,0.1,0.6,0.4,0.5
		C66.7,83.7,66.9,83.5,66.9,83.2z M67.8,83c0.1-0.1,0.4-0.1,0.4-0.4c0-0.2-0.1-0.3-0.3-0.2c-0.2,0-0.4,0.1-0.4,0.4
		C67.5,82.9,67.6,83,67.8,83z"/>
	<path d="M61.5,66.3c0.5,0,1.2-0.1,1.8-0.1c0.5,0,0.8,0.2,1,0.7c0.2,0.6,0.4,1.1,0.7,1.7c0.2,0.4,0,0.6-0.4,0.7
		c-0.5,0.2-1.1,0.4-1.6,0.5c-2.7,0.5-5.2,1.4-7.8,2.1c-1.1,0.3-2.2,0.6-3.2,0.8c-0.9,0.2-1.5-0.2-1.8-1.2c-0.3-0.7,0.1-1.6,0.8-1.9
		c2.2-1.1,4.5-2,6.9-2.6C59,66.7,60.1,66.3,61.5,66.3z M51.7,71.9c0,0,0.1,0,0.2,0c2.1-0.5,4.3-1,6.4-1.6c1.8-0.5,3.6-0.8,5.3-1.7
		c0.7-0.4,0.7-0.8,0.1-1.3c-0.3-0.2-0.6-0.3-0.9-0.2c-0.8,0.1-1.6,0.3-2.3,0.4c-1.9,0.4-3.6,1.1-5.4,1.6c-1.3,0.3-2.5,0.9-3.7,1.5
		c-0.5,0.2-0.2,0.6-0.2,0.9C51.2,71.8,51.3,71.9,51.7,71.9z"/>
	<path d="M68.1,80c0,0.4-0.1,0.7-0.4,0.7c-2.2,0.5-4,1.8-6,2.7c-1.5,0.7-2.9,1.4-4.5,2c-0.2,0.1-0.4,0.2-0.7,0.1
		c-0.3,0-0.5-0.2-0.5-0.5c0-0.3,0.1-0.5,0.4-0.6c3-1.1,5.6-2.7,8.5-4c0.9-0.4,1.8-0.7,2.7-1.1C68.2,79.4,68,79.9,68.1,80z"/>
	<path d="M55.7,84c-0.5,0-0.7-0.4-0.9-0.7c-0.1-0.2,0.1-0.2,0.2-0.3c1.7-0.7,3.4-1.5,5.2-2.1c2.2-0.8,4.5-1.4,6.5-2.5
		c0.2-0.1,0.5-0.4,0.8,0c0.3,0.4-0.1,0.6-0.4,0.7c-1.5,0.9-3.1,1.3-4.7,1.9c-1.9,0.8-3.8,1.6-5.6,2.6C56.5,83.8,56.2,84,55.7,84z"/>
	<path d="M59.7,55.8c-0.7,0-0.9-0.2-0.9-0.8c0-1.1,0.4-1.5,1.5-1.5c0.5,0,1.1,0.5,1.1,1C61.3,55.3,60.6,55.8,59.7,55.8z M60.1,54.8
		c-0.1-0.2-0.2-0.3-0.4-0.3c-0.2,0-0.3,0.1-0.3,0.3c0,0.3,0.2,0.3,0.5,0.3C60,55.1,60.1,55,60.1,54.8z"/>
	<path d="M57.5,55.1c0.6,0,1.1,0.5,1.1,1.1c0,0.6-0.9,1.2-1.7,1.2c-0.5,0-0.9-0.3-0.9-0.9C56,55.7,56.7,55.1,57.5,55.1z M57.2,56.4
		c-0.1-0.2-0.1-0.4-0.3-0.4c-0.2,0-0.4,0.2-0.4,0.4c0,0.2,0.1,0.4,0.3,0.4C57.1,56.8,57.1,56.6,57.2,56.4z"/>
	<path d="M50.7,57.3c0.4,0.3,0.9,1.3,0.8,1.7c0,0.1,0,0.2-0.1,0.2c-0.1,0-0.2-0.1-0.3-0.2C50.8,58.5,50.7,57.9,50.7,57.3
		C50.7,57.3,50.7,57.3,50.7,57.3z"/>
	<path d="M52.1,58c0,0.1,0,0.1,0,0.2c0,0.2,0.3,0.6,0,0.7c-0.3,0.1-0.4-0.3-0.5-0.5c-0.1-0.2-0.2-0.5-0.2-0.7c0-0.1-0.2-0.3,0.1-0.4
		c0.1,0,0.3,0.1,0.4,0.2C51.9,57.6,51.9,57.9,52.1,58L52.1,58z"/>
	<path d="M49.3,57.8c0.4,0.5,0.5,1,0.5,1.5c0,0.2,0,0.4-0.2,0.4c-0.2,0-0.2-0.2-0.2-0.3C49.4,58.9,49.2,58.5,49.3,57.8z"/>
	<path d="M52.1,58c0.1-0.2,0-0.5,0.2-0.8c0.3,0.3,0.4,0.7,0.4,1.1C52.4,58.4,52.4,58,52.1,58C52.1,58,52.1,58,52.1,58z"/>
	<path d="M48.7,58.7c0.3,0.2,0.4,0.5,0.3,0.8c-0.1,0.1-0.1,0.2-0.2,0.1C48.4,59.2,48.5,59,48.7,58.7z"/>
	<path d="M56.6,127.6c-1-0.1-2.1-0.7-3.2-1.2c-1.5-0.7-2.8-1.8-4.2-2.6c-0.5-0.3-0.3-0.7-0.2-1.1c0.4-1.5,1.1-2.9,1.9-4.3
		c0.5-0.8,0.9-1.5,1.5-2.3c0.3-0.4,0.6-0.5,1.1-0.4c0.8,0.1,1.5,0.5,2.2,0.8c1.7,0.7,3.5,1.3,5.1,2.2c1,0.6,1.1,0.8,0.8,1.9
		c-0.5,1.6-1.1,3.2-2.2,4.5c-0.3,0.4-0.6,0.9-0.8,1.4C58.3,127.3,57.7,127.7,56.6,127.6z M56.9,126.4c0.4,0,0.8-0.1,1-0.4
		c1.2-1.8,2.5-3.5,2.9-5.7c0.1-0.4,0.1-0.6-0.4-0.8c-2.2-1.1-4.5-1.9-6.7-2.9c-0.4-0.2-0.6-0.1-0.8,0.2c-1.5,1.7-2.5,3.6-3.1,5.7
		c-0.1,0.4,0,0.5,0.3,0.7c1.4,1,2.9,1.8,4.3,2.5C55.2,126.2,56.1,126.3,56.9,126.4z"/>
	<path d="M87.8,112c1-0.1,2.1-0.3,3.1-0.6c1.3-0.4,2.6-0.3,4-0.2c0.4,0,0.5,0.2,0.7,0.6c0.9,2.4,0.7,4.8,0.4,7.2
		c-0.1,0.8-0.6,1.2-1.3,1.5c-1.7,0.7-3.4,0.5-5.1,0.2c-0.9-0.2-1.8-0.5-2.7-0.7c-0.5-0.1-0.7-0.4-0.8-0.9c-0.3-1.8-0.2-3.7-0.2-5.5
		c0-0.5,0.3-0.7,0.8-0.9C86.9,112.4,87.4,112.3,87.8,112C87.8,112,87.8,112,87.8,112z M86.3,115.6C86.3,115.6,86.3,115.6,86.3,115.6
		c0,0.6,0,1.2,0,1.7c0,1.1,0.7,1.9,1.8,2.1c1.1,0.2,2.3,0.3,3.4,0.4c1,0.2,2,0,3-0.4c0.4-0.2,0.5-0.4,0.6-0.8c0-0.6,0.2-1.2,0.2-1.8
		c0.1-1.5,0.1-3-0.4-4.5c-0.2-0.5-0.4-0.7-1-0.6c-2.3,0.4-4.6,0.9-7,1.3c-0.4,0.1-0.6,0.2-0.6,0.7C86.3,114.5,86.3,115.1,86.3,115.6
		z"/>
	<path d="M46.4,68.6c0.2,0,0.3,0.2,0.3,0.4c0,0.2-0.2,0.3-0.3,0.3c-0.2,0-0.4-0.1-0.4-0.3C46,68.8,46.2,68.7,46.4,68.6z"/>
</g>
</svg>
