<?xml version="1.0" encoding="utf-8"?>
<!-- Generator: Adobe Illustrator 22.0.1, SVG Export Plug-In . SVG Version: 6.00 Build 0)  -->
<svg version="1.1" id="Layer_1" xmlns="http://www.w3.org/2000/svg" xmlns:xlink="http://www.w3.org/1999/xlink" x="0px" y="0px"
	 viewBox="0 0 185.7 210.1" style="enable-background:new 0 0 185.7 210.1;" xml:space="preserve">
<g>
	<path d="M84.7,9.9c4.8,0,9.6,0,14.4,0c0.5,0.1,1,0.3,1.4,0.4c10.7,1.1,20.9,4,30.2,9.3c27.8,15.8,42.7,39.7,43.8,71.8
		c0.5,14.8-3.2,28.7-10.3,41.6c-0.6,1-0.5,1.6,0.4,2.3c1.9,1.4,2.9,3.5,3.3,5.7c0.7,4.2,0.3,8.3-1.6,12.1
		c-3.9,8.1-10.9,12-19.3,13.9c-12.8,2.8-25.4,6.2-37.7,10.6c-9.1,3.2-18,6.7-25.8,12.4c-1.4,1-2.9,2.1-3.7,3.6
		c-0.9,1.7-2.3,2.8-3.9,3.6c-0.7,0-1.5,0-2.2,0c-6.6-2.8-13.2-5.6-19.8-8.4c-1.3-0.6-1.8-0.3-2.1,1c-0.3,1.6-0.9,3.3-2.4,4
		c-3.4,1.6-7.1,2.4-10.7,2.2c-3.3-0.2-5-3.4-4.1-6.8c0.6-2.3,1.4-4.6,2.1-7.2c-1.1,0.2-1.8,0.4-2.5,0.5c-7.6,1.6-14.8-2.4-16.5-9.9
		c-1.9-8.5-0.3-14.6,9.5-16.3c0.1,0,0.1-0.1,0.2-0.1c1.7,0.1,1.5-0.8,0.9-1.8c-1.7-3.1-2.7-6.4-2.6-10c0-1.2-0.3-2.2-1-3.2
		C12.4,123.8,7.4,104.6,9.6,83.5C13.2,49,38.9,20,72.7,12C76.7,11.1,80.8,10.8,84.7,9.9z M128.5,74.8c-1.6-1.7-4.1-0.8-5.8-1.9
		c1.6,1.4,3.9,1.1,5.6,2.1c0.6,0.9,1.1,1.8,1.7,2.8c0.4,0.8-1.3,0.7-0.4,1.2c2.2,1,3.1,2.5,3,4.9c0,0.7,0.6,1.4,1,2.1
		c0.2,0.5,0.7,1.1,0.6,1.4c-0.8,1.2,0.3,1.3,0.8,1.8c1.8,1.5,3.2,3.3,3.4,5.6c0.2,2.3,2.3,3.9,1.8,6.4c-0.1-3.7-0.7-7.4-2.9-10.5
		c-2-2.9-4.1-5.5-4.1-9.3c0-0.6-0.4-1.1-0.9-1.4c-1-0.7-1.5-1.7-1.9-2.8C129.9,76.2,129.5,75.2,128.5,74.8z M81.4,73.1
		c4.4,4.7,11.6,6.8,16.9,5c-0.2-0.1-0.6,0-0.6-0.2c-0.3-0.5,0.2-0.2,0.3-0.3c0.4-0.2,0.8-0.4,1.3-0.6c-0.5-0.1-1-0.2-1.1-0.4
		C98.1,76,99,76.5,99,75.9c-0.8,0-1.5-0.1-2.3-0.1c1.7-0.4,3.4-0.5,5.2-1.8c-2.6,0.2-4.8,0.8-7.1,0.7c-5.4-0.2-9.7-2.8-13.5-6.2
		c-0.5-0.5-0.4-1.7-1.4-1.2c-0.8,0.4-0.8,1.3-0.7,2.1C79.5,70.9,80.8,71.8,81.4,73.1z M82.5,41.6c-5.3,6.8-5.7,17.9-0.7,24.7
		c1.5,2,4.2,2.4,6.3,3.6c0.1,0.1,0.6,0,0.6-0.1c0.7-1.9,2.1-0.6,3-0.5c3.5,0.6,6.2,0.5,8.2-0.6c-1,0.1-1.8,0.2-2.6,0.2
		c-5.2,0.2-9.9-1.2-13.9-4.6c-2-1.7-3.7-3.5-3.8-6.3c-0.5-9.7,0.6-12.7,8.1-16.1c3.3-1.5,6.8-1.8,10.5-1.3c3.4,0.5,6.5,1.8,9.9,4
		c-5.9-6.8-16.7-6.9-26-0.5c0.4-0.7,0.7-1.3,1-2c0.8,0.3,1.2-0.4,1.7-0.7c2-1.4,4.2-2.3,6.5-2.9c2.2-0.5,4.3-0.3,6.5-0.4
		c1.5-0.1,2.8-0.4,1.5-2.4c1.8,0.1,3.2,1.2,5.2,1.6C97.5,32.2,87.1,34.3,82.5,41.6z M71,64.1c0.4,0.3,0.9,0.6,1.5,0.4
		c-0.1,0.7,0.9,0.7,1.1,1.4c-1.5,0.2-3.3-0.7-4.1,0.9c-0.7,1.4-0.5,3,0.1,4.5c0.4-5.1,0.4-5.2,3.5-4.3c-1.4,0.4-1.7,1.5-1.7,2.6
		c0,0.3,0,1,0.4,0.8c2-0.7,4.4-0.9,5.7-2.3c2.4-2.5,1.5-6.3-1.3-8.4c-1-0.7-1.4-1.6-1.4-2.8c0-1.4,0.1-2.8,0-4.1
		c-0.1-2.2,0.3-4.1,2.7-4.8c0.4-0.1,0.7-0.5,0.9-0.9c0.7-2.1,1.7-4,2.8-6c-1.5,0-2.8,0.4-4.2,0.7c-1.5,0.3-0.3,2.8-2.3,2.6
		c0.3,0.1,0.8-0.2,0.9,0.4c-1.4,0.5-2.9,0.9-4.3,1.4c-0.6,0.2-1.5,0.3-1.3,1.3c-0.9,1.9-0.9,3.9-0.9,6c0,1.6,0.6,2.7,2.2,3.2
		c0.2,0.3,0.5,0.6,0.8,1c-0.9,0.3-2-0.9-2.8,0.2C68.1,59.3,69.2,63.3,71,64.1z M46.5,94c0.9,1.4,2.7,1.7,3.8,2.8
		c-1,0.3-1.7-0.8-2.7-0.4c0.6,2.2,2,3.9,3.8,5.3c1.6,1.2,5,1.2,6.6,0c1.7-1.2,1.3-2.9,0.9-4.6c-0.2-1.1-1.3-1.5-2-2.2
		c1.1-0.7,2.5-0.7,3.1-2c-2.6,0.5-5,1-7.7,0.1c1.2-0.2,2.3-0.3,3.2-0.6c1.5-0.4,2.5-1.3,1.9-3c-0.5-1.5-1.1-2.9-3.2-2.1
		c-0.8,0.3-1.8,0.3-3,0c2.6-0.7,5-1.5,6.8-3.6c-0.9,0-1.8,0.9-2-0.5c-0.2-1.2-1-1.2-2-0.8c-0.6,0.2-1.2,0.4-1.9,0.5
		c-0.5,0.1-1.1,0.6-1.7,0c1.9-1.1,4-1.9,5.4-4c-3.3,0.9-3.3,0.9-5.2,0.5c3-1.3,5.8-2.6,6.5-6.2c0.2-1.2-0.4-2.1-1.5-2.7
		c1.2,1.8,0.5,3.2-0.7,4.5c-1.8,2-4.2,3-6.8,3.6c-1.5,0.3-2.9,0-4.2-0.6c-1.4-0.6-2.4-1.6-2.7-3.3c-1,2.9-0.5,7.7,0.7,10.9
		c1,2.6,3.4,2.9,6,3.9c-0.9,0.1-1.2,0-1.6,0.1c-0.7,0.1-1.5-0.7-2,0.2c-0.5,0.9,0,1.8,0.5,2.7c0.4,0.6,0.9,0.9,1.5,1.2
		C46.4,93.9,46.4,94,46.5,94z M67.1,74.8c-0.7,0.5-1.7,0.8-2.2,1.9c1,0.2,1.8,0.3,2.6,0.5c-0.3,0.9,1.1,0.8,1,1.6
		c-1.5-0.2-2.9-0.5-4.3,0.2c2.2,0.3,4,1.2,5.2,3.1c-0.8-0.2-1.5-0.6-2.2-0.9c-1.3-0.5-2.6-0.8-4-0.3c-1,0.3-1.4,0.8-0.7,1.7
		c1.3,1.9,2.5,3.9,3.5,6.1c0.7-1,0.3-2,0.5-3c0.8,0.8,1.1,1.7,1.1,2.6c-0.1,2,1,2.1,2.5,1.8c2.7-0.6,3.8-2.2,4.3-6
		c1,0.3,0.4,1.7,1.3,2c1.5-0.9,1.8-2.7,2.6-4.1c0.6,4.9-0.8,9.3-2.3,13.8c1.4,0.4,2.1-1,3.5-1.1c-0.7,1.3-1.6,2.2-2.6,3
		c-0.6,0.5-1.2,1-1.1,2c0.7,5.2,2.3,7.7,6.5,9.1c2.1,0.7,2.4-0.5,3-1.8c0.7-1.6-0.9-1.2-1.5-1.7c-0.7-0.5-1.6-0.6-2.3-1.5
		c1.3,0.3,2.4,0.6,3.5,0.9c1.3,0.4,1.8-0.4,1.9-1.4c0.1-0.9,1.6-2.2-0.5-2.7c-1.1-0.3-1.6-1.1-1.6-2.3c0.1-3.9,0.1-7.9,0.4-11.8
		c0.1-1.7,1.3-3.4,3.1-3.3c6.5,0.1,12.9-0.4,19.4,0.6c2.6,0.4,5.1,0.1,7.2-1.9c-3.3,1.1-6.3,0.6-9-1.6c-1.2-1-2.9-1.6-4.5-1.1
		c-8.4,2.2-15.8,0.6-21.9-6l-0.1-0.1c-0.8-0.9-1-3-2.4-2.7C73.3,70.9,69.9,72.1,67.1,74.8z M130.8,150.4c3.2,4.8,6.4,6.1,12,4.7
		c4.1-1,7.4-3.3,10.1-6.4c1.6-1.8,3-3.8,4.9-5.2c0.7-0.6,1.5-1.3,2.5-0.7c0.9,0.6,0.9,1.6,0.8,2.6c-0.2,2-1.2,3.6-2.3,5.1
		c-3.5,4.4-8.3,6.7-13.7,7.9c-29.5,6.4-58.9,12.7-88.4,19.1c-2.2,0.5-4.4,1.2-6.9,1.3c1.2-3.9,2.3-7.5,3.4-11.3
		c2.7,3.4,4.8,3.9,8.5,2.2c0.7-0.3,1.3-0.6,1.9-1.1c8.1-5.8,11.4-14,11.5-23.7c0-2.6-0.9-5.1-3.6-6.3c-2.9-1.3-5.4-0.1-7.7,1.7
		c-1.2,1-2.4,1.9-3.3,2.6c0-0.1,0.1-0.7,0.3-1.5c-1.6,0.3-3,0.7-4.4,0.9c-1.7,0.2-2.6,1-3.1,2.7c-2.8,9.6-5.7,19.1-8.6,28.6
		c-1.7,5.7-3.4,11.3-5.2,17.1c5.7,0.1,6.7-0.6,8.2-5.5c0.2-0.8,0.5-1.5,0.7-2.3c0.3-1.5,1-1.5,2.2-1c7.3,3.1,14.6,6.2,21.9,9.3
		c1.4,0.6,2.3,0.8,3.2-0.8c0.6-1.1,1.7-2,2.7-2.8c4.6-4,10-6.8,15.5-9.3c16.2-7.2,33.2-11.9,50.5-15.8c4-0.9,7.9-2,11.3-4.4
		c5.4-3.9,8.2-9,7.1-15.8c-0.6-3.4-3.6-4.7-6.6-3c-1,0.6-1.8,1.5-2.5,2.4c-2,2.5-4.1,4.9-6.8,6.7c-1.6,1-3.3,1.6-5.1,1.5
		c-2.6-0.2-4-2.1-3.5-4.8c3.3,1.4,6.2,0.5,8.7-1.7c3.4-2.9,5.5-6.6,6.2-11c0.8-5.1-2.6-8.5-7.7-8c-2,0.2-3.8,1.1-5.3,2.3
		c-4.7,3.8-7.6,8.9-8.9,14.6c-1,4.6-3.9,7.5-7,10.4c-1.5,1.4-3.2,2.4-5.3,2.9c-3.9,0.9-6.1-0.8-6-4.8c0.2-4.7,2.2-8.7,4.8-12.4
		c0.5-0.8,1.2-1.4,1.9-2.1c0.6-0.6,1.4-1.3,2.3-0.8c1.1,0.6,0.7,1.7,0.5,2.6c-0.3,1.6-0.9,3.1-1.8,4.4c-0.2,0.4-0.7,0.7-0.2,1.3
		c1.6,1.9,4.9,1.6,6-0.7c1-2.2,1.6-4.5,1.4-7c-0.3-2.9-1.9-4.9-4.7-5.6c-2.9-0.8-5.5,0.2-7.8,1.9c-3.7,2.7-6.2,6.4-7.8,10.6
		c-1.4,3.8-3.7,6.9-6.1,10c-0.5,0.6-0.8,1.4-1.9,1.5c-0.4-1.3,0.2-2.4,0.5-3.6c1.5-5.2,3-10.5,4.7-15.6c0.6-1.8-0.1-1.7-1.4-1.6
		c-3.3,0.4-6.1,1.3-6.2,5.4c0,0.3-0.2,0.5-0.6,0.5c-3.2-4.1-6-4.4-10.1-1.1c-0.8,0.6-1.5,1.4-2.2,2.1c-4.2,5-6.8,10.8-8.3,17.1
		c-0.3,1.5-0.4,3-0.3,4.6c0.3,2.5,0.9,4.8,3.5,5.9c2.5,1.1,4.7,0.1,6.7-1.3c1.6-1.1,2.8-2.7,4.1-4.3c0.8,3.9,3.1,4.8,6.3,2.6
		c2-1.4,3.4-3.3,4.8-5.3c1.3-1.9,2.7-3.9,4.1-6c2,6.4,5.3,8.6,11.2,7.8c2.9-0.4,5.4-1.6,7.7-3.4
		C126.7,155.2,128.7,152.9,130.8,150.4z M158.6,130.1c14.6-23.3,16-65.1-14.5-93.7C114.1,8.3,67.2,9,37.8,38.2
		C8.5,67.4,10.2,110,28,134.8c1.4-1,1-2,0.2-3.3c-10.6-17.8-13.7-37-8.6-57.1C29.7,34.8,68.3,11,108.3,19.9
		c46.2,10.3,71.7,61,50.8,105.1C158.3,126.8,157.9,128.3,158.6,130.1z M66.6,105.7c-1.2,0.6-2,1-2.6,1.4c-2.8,1.7-5.6,1.7-8.6,0.6
		c-3.4-1.3-6.3-3.3-7.8-6.6c-1.8-3.9-5.4-6.9-5.7-11.5c0-0.3-0.4-0.6-0.6-0.9c-2.7-4.3-3.4-8.9-2.4-13.8c0.3-1.5,0-2.3-0.9-3.4
		c-2.4-2.9-5.8-5.3-3.4-10.1c0.8-1.6,2-2.6,2.9-4c1.2-1.7,2.3-2.5,4.3-1.8c0.5,0.2,0.7-0.4,1-0.6c1.7-1.5,3.2-1.4,4.7,0.3
		c1.3,1.5,2.2,3.2,3.2,4.9c0.5,1,0.9,1.5,2.2,0.8c1.5-0.9,3.2,0,3.8,1.8c0.4,1.2,0.5,2.4,0.2,3.7c-0.2,0.7-0.5,1.5,0.2,2.1
		c2,1.7,3,4.1,3.9,6.5c0.4,1.1,0.8,0.6,1.4,0.2c2.9-1.9,5.4-4,4.5-8.1c-0.2-1.1,1-2,0.4-3.3c-0.9-1.9-0.7-4-0.4-6
		c0.1-1,0.1-1.8,0-2.7c-0.8-5.3,0.6-9.8,4.7-13.3c2.4-2,5.5-2.5,8.6-2.9c1.1-0.2,2-0.5,2.9-1.3c6.7-6.3,16.8-7,23.9-1.1
		c3.2,2.7,6.5,4.4,10.5,5.2c0.6,0.1,1.2,0.4,1.9,0.6c5.1,1.5,6.1,4.8,4.4,10.2c-0.6,1.9-0.1,2.2,1.3,2.7c8.2,3.1,11.5,10.7,7.9,18.7
		c-0.9,1.9-0.4,3.2,0.9,4.4c1,0.9,1.9,1.9,1.7,3.1c-0.2,1.4,0.4,2.3,0.9,3.4c1.9,3.7,4.8,6.8,5.8,11.1c0.4,1.7,0.4,3.6,1.1,5.3
		c1.2,2.9,0.8,5.8-0.4,8.7c-2.6,6-7.7,9.1-13.5,11.2c-2,0.7-3.7,1.2-5.2-0.8c-0.4-0.5-1.2-1.1-1.6,0.1c-0.3,0.9-0.3,1.9-0.4,2.8
		c0,0.7,0.4,1.1,1.1,1.1c0.3,0,0.9,0.3,0.9-0.1c-0.2-2,1-0.7,1.5-0.6c1,0.2,1.9,0.1,2.8-0.2c3.2-1,6.3-2.3,9-4.2
		c6.9-4.7,9.3-11.2,7.2-19.4c-0.1-0.5,0-1-0.2-1.5c-1.1-3.7-1.7-7.7-4.4-10.7c-1.6-1.8-2.7-3.8-2.8-6.4c0-1.3-0.7-2.6-1.7-3.4
		c-1.4-1.1-1.4-2.2-0.8-3.8c3.2-7.9,0.4-15.5-7.2-19.3c-1.6-0.8-2.1-1.5-1.7-3.4c1.1-5.7-0.8-8.7-6.3-10.5c-1.9-0.6-3.9-1.2-5.9-1.7
		c-1.5-0.4-2.6-1-3.7-2.1c-6.4-6.4-16.2-8.2-23.8-3.6c-4,2.4-8,4.2-12.5,5.5c-4,1.1-6.5,4.5-8.1,8.2c-0.9,2.1-0.8,4.6-0.7,6.9
		c0.1,4.8-0.1,9.6,0.2,14.4c0.1,2.4-0.8,3.8-3,4.6c-1.3-2.9-3.8-5.2-3.4-9c0.2-2.6-2.2-5.1-4.4-4.7c-2.3,0.4-2.7-0.9-3.5-2.2
		c-0.7-1.1-1.4-2.2-2.3-3.1c-1.2-1.2-2.9-2-4.4-1.2c-2.8,1.4-6,1.2-8.5,4.1c-3.8,4.7-5,9.8-1,13.8c0.7,0.7,1.3,1.6,2,2.3
		c0.5,0.5,0.6,1.1,0.5,1.8c-1.8,7.4,1.8,13.7,4.4,20.1c0.7,1.7,2.1,3.2,3,5c3.4,6.8,8.6,10.9,16.5,10.9c0,0.2,0,0.5-0.1,0.6
		c-1.7,5.6-0.6,9.1,4.1,12.6c0.3,0.3,1,0.4,0.8,0.9c-0.7,2.7,1.7,4.8,1.4,7.3c0,0.4-0.3,1,0.4,1c0.5,0,1.3,0.1,1.3-0.8
		c0-1.1,0.8-2.3-0.4-3.4c-1.1-1.1-1.3-2.7-0.7-4.1c0.4-1.1,0.2-1.5-0.8-1.9c-4.9-2.3-6.5-7.3-3.8-12C64.1,109,65.2,107.6,66.6,105.7
		z M38.1,166.8c0,1.4,0.1,2.9-0.9,4.2c-2.1,2.6-6.1,2.1-7.8-1.1c-1.2-2.3-1-4.6-0.4-7c0.1-0.5,0.6-1.1-0.3-1.4
		c-1.1-0.4-5.4,1.7-5.7,2.8c-1.2,3.9-1,7.7,1.9,10.8c2.8,3,6.5,3,10.1,1.8c8.5-2.7,12.1-9.1,10-17.8c-0.7-3.2-2.2-6-3.7-8.8
		c-1.6-3-2.6-6.2-2.9-9.5c-0.2-2.7,0.6-4.9,3.1-6.2c1.3-0.7,2.8-1,4.1-0.2c1.4,0.8,1.7,2.3,1.6,3.8c-0.1,1.6-0.7,3.1-1.4,4.6
		c-0.2,0.5-0.8,1-0.4,1.6c0.4,0.5,1.1,0.3,1.7,0.2c3.2-0.5,4.8-2.3,5.7-6.5c1.2-5.3-2-9.1-7.4-8.9c-9,0.3-16.2,9.7-14.4,18.5
		c0.6,2.9,2.2,5.4,3.5,8C36.5,159.1,38.1,162.7,38.1,166.8z M115.1,121.3c-1.3,0.1-2.6,0.2-3.8,0.5c-1.3,0.2-1.9-0.1-1.9-1.5
		c0-1.5-0.8-2.1-2.4-1.8c-3.6,0.6-7.2-0.1-10.8-0.8c6.5-0.6,12.8-1.5,18.6-4.6c-2.1,0.2-4.1,0.7-6.2,1c-2,0.3-2.3-1.4-2.8-2.7
		c-0.6-1.5,0.7-1.6,1.6-1.9c1.4-0.5,2.9-0.9,4-2c-0.6,0-1.2,0.1-1.7,0.3c-2.7,0.7-5.1,0.7-6.9-2c-0.6-1-1.7-1.5-2.9-1.8
		c-2.3-0.5-4.5-1.1-6.8-1.6c-2.2-0.6-1.4,1.5-1.9,2.3c-0.7,1.1,0.2,1.3,1,1.5c1.7,0.4,3.4,0.7,5,1c-2,0.6-3.9,0.4-5.8,0
		c-1.4-0.3-1.5,0.7-2,1.5c-0.6,0.9-0.9,1.7,0.6,2.3c-2.2-0.1-2.8,1.2-3.4,2.6c3.9,0.7,7.7,0.2,11.4,1.2c-3.6,0.5-7.2,0.3-10.8-0.3
		c-0.5-0.1-1.1-0.5-1.6,0.1c-1.9,2.3-4.4,3.9-7,5.7c0.8,0.4,1.4,0.7,2,0.9c2,0.7,4,1.4,6,1.9c1.4,0.4,3.1,1.3,3.8-1.1
		c0.1-0.2,0.4-0.4,0.7-0.5c2.2-0.4,4.3,0.1,6.5,0.3c1.2,0.1,1.7,0.9,2,2c0.1,0.6,0.7,0.4,1.1,0.4
		C105.6,124.1,110.4,123.1,115.1,121.3z M95.2,99.8c2.2,0,4.5-0.1,6.7,0c1.9,0.1,2.9-0.7,2.9-2.6c0.1-3,0.2-5.9,0.3-8.9
		c0-1.4-0.7-2.3-2.3-2.4c-4.7-0.1-9.4-0.3-14.1-0.4c-1.5,0-2.5,0.5-2.5,2.3c0,3.3-0.1,6.5-0.2,9.8c-0.1,1.3,0.4,2.1,1.7,2.1
		C90.1,99.6,93.3,99.8,95.2,99.8z M47.4,70.2c4.4,1.3,7.5-1.1,6.4-6.9c-0.8,0.2-0.9,1-1.2,1.6c-0.2,0.5-0.4,1-1.1,0.8
		c-2.2-0.7-4.1,0-5.9,1.3c0.6-1.5,1.7-2.5,3.2-3c0.5-0.2,1.3-0.3,0.8-1.1c-1.1-2-2.2-4.1-3.6-5.9c-0.3-0.4-0.7-0.9-1.3-0.5
		c-0.5,0.3-0.3,0.9-0.1,1.4c0.6,1.3,1.2,2.7,2.3,3.7c0.5,0.5,1.4,0.9,0.6,1.7c-0.8,0.9-1.5,0.1-2-0.5c-1.3-1.4-2.6-3-3.9-4.4
		c-0.4-0.4-0.9-1.1-1.6-0.5c-0.5,0.5-0.1,1.1,0,1.6c0.6,1.9,2.4,2.7,3.8,3.7c0.8,0.6,1.1,1.2,0.4,2c-0.7,0.7-1.3,0.2-1.8-0.3
		c-1.1-1.2-2.2-2.5-3.4-3.7c-0.4-0.4-1-1.1-1.7-0.6c-0.6,0.5-0.4,1.3,0.1,1.9c1.1,1.2,2.2,2.5,3.4,3.7c0.4,0.5,1.7,0.5,1,1.5
		c-0.6,0.9-1.4,0.1-2.1-0.3c-1.2-0.7-2-1.9-3.9-2.6c2.6,4.3,6.2,6.2,10.1,7.6c0.8,0.3,1.8,0.2,2.2-0.4
		C48.9,71.2,47.4,71.1,47.4,70.2z M94.7,129.8c-2.4,0.1-4.2-1.6-6.2-2.1c-4.6-1.1-9.4-1.7-14-3.1c-1.6-0.5-2.5,0.3-2.6,2
		c-0.1,2.4,0.7,4.2,2.5,5.7c0.1,0.1,0.2,0.3,0.3,0.5c-0.7,0.2-1-0.8-1.8-0.5c0.1,0.3,0.1,0.7,0.2,0.8c1.8,1.4,3.9,2.5,5.2,4.5
		c0.2,0.4,0.7,0.2,0.9-0.1c1.1-1.9,3.1-3,4.5-4.8c-3.3-1-6.5-1.7-8.9-4.3c2.8,1.5,5.7,2.4,8.7,3.2c0.6,0.2,1.2,0.6,1.9,0.2
		C88.3,130,91.4,129.5,94.7,129.8z M127.2,92.7c-1.6,1.3-2.8,2.5-3,4.4c-0.1,1-0.1,2.2,0.9,2.4c2.9,0.6,3.4,2.1,2.1,4.7
		c2.2,0,4.2-0.2,6,0.8c1.3,0.8,1.5,0,1.7-0.9c0.3-1.7,0.4-3.3-0.7-4.8c-1-1.4-2.5-1.8-4.5-1.7c1.2-1.3,2.6-1.3,3.8-2
		c-2.6-1.4-4.8-0.5-7.3,1.1c0.9-1.8,2.2-2.5,3.4-3.3c0.5-0.3,1.5-0.5,1.3-1.2c-0.2-0.9-1.2-0.5-1.8-0.7c-0.3-0.1-0.6-0.1-0.9-0.1
		c-1.3,0-2.4-0.2-1.9-1.9c0.1-0.4,0-0.9-0.6-0.9c-1.7-0.1-3.2,0.2-4.6,1.6c3.3,0.3,3.3,0.3,2.1,3.1c-0.2,0.4-0.7,0.8-0.2,1.3
		C124.2,93.6,125.3,92.7,127.2,92.7z M126.2,119c1.6-0.9,3.3-1.4,4.4-2.4c1.3-1.3,1.4-3.6,1.3-5.1c-0.2-4.1-5.4-6.5-9.1-4.5
		c-0.4,0.2-0.9,0.5-1,1c-0.1,0.8,0.9,0.4,1.1,0.9c-0.7,0.8-1.8,1.1-2.3,2.1c-0.2,0.4-0.3,0.9,0.3,1.1c0.3,0.1,0.8,0.1,1-0.1
		c0.4-0.3-1.7-0.2-0.2-0.9c0.5-0.2,1.1-0.6,1.6-0.6c0.5-0.1,0.9-0.9,1.4-0.1c0.4,0.7,0,1.1-0.5,1.6c-0.7,0.7-1.9,1.1-2.3,2.6
		c1.5-0.9,2.8-1.6,4-2.3c0.7,2.2-2.1,2.8-2.2,5c1.5-0.9,2.7-1.7,3.9-2.4C128.4,116.5,126.3,117.2,126.2,119z M95.1,43.2
		c-6-1-11.6,2.9-12.3,8.3c-0.2,1.5,0.3,2.7,1.8,2.9c1.5,0.2,2.3-0.9,2.3-2.3C87,46.9,90.1,44.5,95.1,43.2z M124.3,61.2
		c-1.7,2.6-1.6,5.3-0.8,8.1c0.5,1.7,1.7,2,3.1,2.2c1.6,0.2,1.5-1.2,1.7-2C129.2,65.8,127.9,63.2,124.3,61.2z M139.3,59
		c0.9,0.1,1.3,0,1.8,0.1c1.1,0.2,2.7-0.6,3.2,0.4c0.4,0.9-1.2,1.6-1.7,2.5c0,0.1,0.1,0.2,0.1,0.4c0.5-0.5,1-0.9,1.5-1.3
		c0.4-0.3,0.7-0.9,1.3-0.6c0.6,0.2,0.4,0.9,0.4,1.3c0,1.3,0,2.6,0,3.8c0.5-0.8,0.6-1.7,0.7-2.5c0.2-0.9-0.5-2.2,0.4-2.6
		c0.9-0.4,1.4,1,2.2,1.5c0.1,0,0.2,0,0.4-0.1c-0.4-0.4-0.7-0.8-1-1.2c-0.3-0.4-1.1-0.7-0.7-1.4c0.3-0.5,0.9-0.2,1.4-0.3
		c1,0,2.1,0,3.3,0c-0.6-0.8-1.3-0.6-1.8-0.7c-1-0.3-2.5,0.5-3-0.5c-0.3-0.8,1.1-1.5,1.7-2.3c0.1-0.1,0-0.2,0-0.5
		c-0.6,0.5-1,0.9-1.5,1.3c-0.3,0.3-0.6,0.8-1.1,0.6c-0.6-0.2-0.4-0.9-0.4-1.3c-0.1-1.3,0-2.6-0.6-4.3c-0.1,1.3-0.1,2.1-0.2,2.9
		c-0.1,0.9,0.5,2.2-0.4,2.6c-1,0.5-1.4-1-2.2-1.3c-0.1,0-0.2,0.1-0.4,0.1c0.3,0.3,0.6,0.7,0.9,1c0.3,0.4,0.9,0.7,0.7,1.2
		c-0.3,0.7-1,0.4-1.5,0.5C141.8,58.5,140.7,58.3,139.3,59z M82.7,111.1c-1.9-0.4-3.6-0.8-5.3-1c-1-0.2-1.5,0.6-1.7,1.4
		c-0.3,1.3-0.4,2.7-0.5,4.1c-0.1,0.8,0.3,1.3,1.2,0.8C78.7,115,80.8,113.4,82.7,111.1z M94.5,64.6c7.7,0.9,14-2.9,14-8.3
		C106,62.8,100.1,63.5,94.5,64.6z M90,66.2c6.2,2.5,14,1,18.2-2.7c2.5-2.2,2.6-5,2.7-7.9c-1.2,8.8-6.7,10.1-12.1,11.1
		C96,67.2,93.2,66.7,90,66.2z M114.2,50.8c2.5,2,1.5,4.2,1.3,6.1c-0.2,2,0.4,4.2-1.9,5.6c1.3-0.1,1.9-0.9,2.1-1.8
		c0.7-4.4,2.5-9-2.5-12c0.2,1.4,0.4,3.1,0.6,4.8c0.1,0,0.1,0,0.2,0C114,52.8,114.1,52,114.2,50.8z M59.6,78.8
		c-0.5,3.5,1.6,6,2.8,8.3c1.2,2.4,2,4.8,3,7.5C65.7,88.4,61,84.4,59.6,78.8z M87.5,105.6c-2.6,5.6-6.3,10.1-11.9,12.8
		C81.9,116.3,85.5,111.7,87.5,105.6z M77.5,49.5c-1.9,1-2.2,7.6-0.4,9c0-1.5-0.1-3,0-4.5C77.1,52.6,77.3,51.1,77.5,49.5z M29.2,98.4
		c1-0.3,1.7-0.9,1.6-2c-0.1-1-0.7-1.6-1.8-1.5c-1,0.1-1.6,0.7-1.6,1.7C27.5,97.7,28.2,98.3,29.2,98.4z M131.7,71
		c1.8-4.7-0.4-10.7-4.9-12.6C131,61.9,132.5,66,131.7,71z M159.9,77.4c0.9-0.2,1.5-0.7,1.5-1.6c0-1-0.7-1.6-1.7-1.6
		c-0.9,0-1.5,0.6-1.5,1.5C158.2,76.7,158.9,77.3,159.9,77.4z M159.1,93.7c1-0.1,1.5-0.6,1.5-1.5c0-1-0.6-1.6-1.6-1.6
		c-1,0-1.4,0.7-1.4,1.6C157.7,93.2,158.2,93.6,159.1,93.7z M66.9,100.6c-1.6,1.3-3.2,2.6-4.8,3.9c-1.7,1.4-3.7,1.4-5.7,1.2
		C61.7,107.9,64,103.4,66.9,100.6z M84.4,56.2c-0.8,0.1-1.5,0.3-1.5,1.2c0,1,0.8,1.3,1.7,1.3c0.8,0,1.5-0.3,1.5-1.2
		C86.1,56.5,85.3,56.3,84.4,56.2z M80.7,29.1c-0.1-0.9-0.6-1.5-1.5-1.5c-0.8,0-1.4,0.5-1.4,1.3c0,0.8,0.4,1.4,1.2,1.5
		C80,30.5,80.4,29.9,80.7,29.1z M62.6,58c-0.1-0.8-0.5-1.4-1.4-1.3c-0.9,0-1.4,0.6-1.4,1.5c0,0.8,0.6,1.4,1.4,1.4
		C62.1,59.5,62.6,58.9,62.6,58z M71.3,107.8c-0.1,0.6-0.3,1.6,0.1,2.5c0.5,1.4,0.6,2.4-0.4,3.7c-0.7,0.9-0.9,2.3,0,3.7
		C71.4,114.2,73.5,110.9,71.3,107.8z M45.3,42.7c-0.2-0.7-0.5-1.3-1.3-1.3c-0.8,0-1.4,0.6-1.4,1.4c0,0.8,0.6,1.2,1.5,1.1
		C44.8,43.9,45.2,43.4,45.3,42.7z M58.5,44.9c-0.8,0.1-1.4,0.5-1.3,1.4c0,0.8,0.5,1.2,1.2,1.2c0.8,0,1.4-0.3,1.4-1.3
		C59.9,45.4,59.3,45,58.5,44.9z M64.5,116.3c-0.4-2.8,1.4-4.9,2.6-7.2C65,111,63.5,113.2,64.5,116.3z M101.4,24.3
		c-0.7,0.1-1.2,0.5-1.2,1.2c0,0.9,0.6,1.3,1.4,1.3c0.7,0,1.2-0.6,1.1-1.3C102.6,24.7,102.2,24.3,101.4,24.3z M122,48.2
		c-0.4-2.7-2.9-4.5-5.9-4.5C118.2,45.2,121.1,45.3,122,48.2z M36.7,105.9c0.7,0,1.2-0.4,1.3-1.2c0-0.6-0.4-1.1-1-1.1
		c-0.6,0-1.2,0.2-1.2,0.9C35.6,105.3,35.9,105.8,36.7,105.9z M91.1,125.9c0-4,3.2-1.6,4.7-2.7C91.3,122.4,90.7,122.7,91.1,125.9z
		 M140.9,72.3c0.7-0.1,1.1-0.4,1.1-1.1c0-0.7-0.4-1.1-1.1-1.1c-0.7,0-1.1,0.4-1.1,1.1C139.8,71.8,140.2,72.3,140.9,72.3z
		 M112.7,126.4c-1.5,0.3-3,0.6-4.4,0.9C109.9,128.4,111.3,127.3,112.7,126.4z M41.6,120.1c-0.1-0.6-0.4-1.1-1-1
		c-0.7,0-1.1,0.5-1.1,1.1c0,0.5,0.4,0.9,0.9,1C41,121.2,41.4,120.8,41.6,120.1z M56.3,120.4c0.6,0,1-0.3,1-0.9c0-0.7-0.3-1.1-1-1.1
		c-0.6,0-1,0.3-1,0.9C55.2,119.9,55.6,120.3,56.3,120.4z"/>
	<path d="M81.3,68.5c0.8,1.5,0,3.1,0.1,4.6c-0.7-1.3-1.9-2.2-2.2-3.7c-0.2-0.8-0.1-1.8,0.7-2.1C80.9,66.8,80.9,68,81.3,68.5z"/>
	<path d="M71,64.1c-1.5-1.3-1.6-3.1-1.5-4.9c0-0.6,0.2-1.4,1.1-1.2c0.9,0.2,0.5,0.8,0.4,1.3c-0.4,2,0.5,3.6,1.5,5.2
		C71.8,64.7,71.4,64.4,71,64.1z"/>
	<path d="M79.4,73c-0.1,0.5,0.1,1.3-0.8,0.6c-1.5-1.1-3.1-1.8-5.4-1.3c2.7-2,3.4-2,5.2,0c0.2,0.2,0.6,0.4,0.9,0.5
		C79.3,72.9,79.4,73,79.4,73z"/>
	<path d="M46.4,93.7c-0.1-0.2-0.3-0.5-0.4-0.7c-0.5-0.8-1.4-1.6-0.9-2.5c0.5-0.7,1.6-0.1,2.7-0.3c-1,1.2-1.4,2.2-0.6,3.5
		c0.1,0.2-0.3,0.3-0.6,0.3C46.4,94,46.4,93.9,46.4,93.7z"/>
	<path d="M67.1,74.8c0.3,0,1.1-0.5,0.7,0.2c-0.4,0.8-0.2,1.5-0.2,2.2c-0.8-0.1-1.7-0.3-2.6-0.5C65.4,75.6,66.4,75.3,67.1,74.8z"/>
	<path d="M56.8,159.1c0.8-4.9,2.7-10,6.7-14.1c0.7-0.8,1.7-1.6,2.9-1.1c1.3,0.6,1.3,1.9,1.2,3c-0.5,5.6-2.7,10.5-6.4,14.7
		c-0.8,0.9-1.8,2-3.2,1.4C56.6,162.5,56.8,161,56.8,159.1z"/>
	<path d="M84.3,155.6c0.7-5.2,2.8-10.3,6.8-14.5c0.7-0.8,1.7-1.6,2.9-1c1,0.5,1.1,1.7,1,2.7c-0.4,5.8-2.6,10.8-6.5,15.1
		c-0.8,0.9-1.8,2-3.2,1.3C84,158.5,84.3,157.2,84.3,155.6z"/>
	<path d="M147.7,131.3c-0.6,3.6-2.4,6.6-5.5,8.8c-0.8,0.6-1.9,1.1-2.8,0.4c-1.1-0.8,0-1.7,0.3-2.5c1.3-3.1,2.8-6,5.5-8.2
		c0.5-0.4,1.2-1,2-0.6C147.9,129.6,147.6,130.5,147.7,131.3z"/>
	<path d="M45.5,88.2c-4.6-2.6-3.3-6.9-4.7-10.9c1.9,1.1,3.2,2,4.8,2.1C43.5,82.2,43.5,83.2,45.5,88.2z"/>
	<path d="M90.7,92.9c-1.6,0-3.1-1.6-3-3.3c0.1-1.7,1-2.5,2.6-2.6c1.6-0.1,3.1,1.6,3.1,3.3C93.3,91.8,92.1,92.9,90.7,92.9z
		 M90.4,91.1c0.8-0.1,1.3-0.5,1.3-1.4c0-0.8-0.5-1.4-1.3-1.4c-0.9,0-1.5,0.6-1.5,1.5C88.9,90.6,89.4,91.1,90.4,91.1z"/>
	<path d="M92,98.2c2.5-0.2,5-0.7,7.5-0.7c2.3,0,3.5-0.9,3.6-3.2c0.1-0.7,0.3-1.4,0.9-2.1c-0.1,2-0.2,4-0.4,6c0,0.4-0.6,0.6-1,0.6
		c-3.5,0-7,0-10.5,0C90.8,98.9,90.4,98.5,92,98.2z"/>
	<path d="M98.6,89.4c-0.2,1.1-0.7,1.7-1.8,1.7c-1.1,0-1.8-0.7-1.8-1.7c0-1.2,0.7-1.9,1.9-1.8C98.1,87.6,98.5,88.4,98.6,89.4z"/>
	<path d="M71.2,56.6c-2.2-1.8-2-4.2-1.6-6.6c0.1-0.9,0.2-1.7,0.3-2.6c0.7-0.2,1.1-1.2,2.2-0.8C70.8,49.9,70.7,53.2,71.2,56.6z"/>
	<path d="M126.8,67.5c-0.2,0.6,0.2,1.7-0.6,1.8c-1.2,0.2-0.7-1.1-1-1.7c0-0.1,0-0.1-0.1-0.2c-0.2-1-0.8-1.9-0.1-2.9
		c0.2-0.2,0.5-0.3,0.7,0C126.4,65.3,126.8,66.3,126.8,67.5z"/>
</g>
</svg>
