<?xml version="1.0" encoding="utf-8"?>
<!-- Generator: Adobe Illustrator 22.0.1, SVG Export Plug-In . SVG Version: 6.00 Build 0)  -->
<svg version="1.1" id="Layer_1" xmlns="http://www.w3.org/2000/svg" xmlns:xlink="http://www.w3.org/1999/xlink" x="0px" y="0px"
	 viewBox="0 0 204.9 174.9" style="enable-background:new 0 0 204.9 174.9;" xml:space="preserve">
<g>
	<path d="M49.5,161.2c-4.1-2.1-5-4.3-3.9-8.9c0.5-2.2,1.2-4.3,2.7-6.2c0,1.8-0.5,3.6-0.4,5.4c0.1,4.7,2.4,6.5,7,5.2
		c2.8-0.8,5.4-2.2,7.8-3.8c7.8-5.2,15-11.1,20.7-18.5c1.3-1.6,2.1-0.7,3.2-0.2c13.3,5.9,26.9,6.4,40.7,1.9c1.1-0.4,2.1-0.8,3.5-1.4
		c-5.7-3.6-11-7-16.4-10.4c-1.3-0.9-1.8,0.3-2.4,1c-3.6,4.1-7.6,7.8-12.2,11.3c-0.1-2.1,0.6-3.7,1-5.4c1.1-5.2,0.3-9.9-3.4-14
		c-1-1.1-1.9-1.4-3.3-0.8c-1.1,0.6-2.4,0.9-3.5,1.4c-1.2,0.5-2.2,0.1-2.9-0.8c-0.9-1.2,0.5-1.6,1-2.1c3.6-4.1,7.5-8,11-12.1
		c1.7-2,2.7-2.3,4.9-0.6c11.6,9,23.5,17.5,36,25.2c8.6,5.3,17.3,10.4,27.1,13.3c2,0.6,4.1,1,6.2,0.9c4.3-0.2,6.7-2.7,6.4-7.1
		c-0.2-2.8-1.2-5.3-2.4-7.8c-2.6-5.4-6.1-10.3-9.9-15c-0.7-0.8-1.3-1.7-2-2.6c0.2-0.1,0.5-0.3,0.5-0.2c7.8,8.5,15.2,17.4,20.1,28.1
		c1.2,2.7,2.1,5.4,2.2,8.4c0.1,4.4-2.1,7-6.4,7.8c-4.8,0.9-9.4-0.2-14-1.4c-8.6-2.3-16.6-6-24.4-10c-1.5-0.8-2.5-0.7-3.9,0.2
		c-19.1,12.6-39.3,14.7-60.6,6.6c-1.5-0.6-2.5-0.3-3.7,0.5c-4.6,3.1-9.3,6.1-13.9,9.1c-2.2,1.5-4.7,2.2-7.2,3.2
		C51.6,162.2,51.1,162,49.5,161.2z"/>
	<path d="M54.2,75.8c-0.8,7.2-0.6,13.8,1,20.4c1.9,8.1,5.5,15.4,10.7,21.9c0.7,0.8,1.6,1.5,0.4,2.7c-5.8,6.4-10.9,13.2-14.5,21.1
		c0.8-3.1,1.6-6.3,2.5-9.4c0.5-1.8,0.3-3.2-0.6-4.9c-2.9-4.8-5.8-9.7-8.4-14.7c-7.6-14.6-7.7-29.7-2.5-45c0.9-2.6,0.6-4.2-1.2-6.2
		c-5.8-6.5-11-13.3-15.1-21.1c-1.7-3.2-3.1-6.6-3.5-10.3c-0.5-5.2,2.2-8.3,7.4-8.8c4.5-0.4,8.9,0.4,13.2,1.6
		c10,2.8,19.4,7.3,28.9,12.3c-1.5,0.2-2.3-0.5-3.1-0.9c-6.6-3.1-13.3-5.8-20.5-7.2c-2.4-0.4-4.7-0.5-7.1-0.3
		c-4.6,0.5-6.9,3.8-5.6,8.3c1.6,5.9,5.4,10.5,9.2,15c10.7,12.4,23.1,23,35.7,33.3c4.9,4.1,9.9,8,15,11.9c1.1,0.9,1.6,1.4,0.4,2.7
		c-3.9,4.6-7.7,9.3-11.5,13.9c-0.4,0.5-0.6,1.6-1.6,1c-0.8-0.5-1.8-1.1-1.6-2.3c0.2-1.2,0.3-2.4,0.7-3.5c0.9-2.2,0.1-3.5-1.8-4.6
		c-4.1-2.4-8.3-2.5-12.6-1.1c-1.9,0.6-3.7,1.4-6,2.3c2.1-4.3,4.6-7.8,7.3-11.2c1.1-1.4,1.3-2.1-0.2-3.4
		C64.3,85.2,59.5,80.7,54.2,75.8z"/>
	<path d="M165.6,20.1c-1.8,1.1-3.6,2.2-5.4,3.4c-21.9,14.4-40.6,32.2-57.3,52.4c-0.5,0.6-1.1,1-1,1.9c0.2,6-4.9,8.8-7.5,13.1
		c-0.5,0.8-1.1,0.3-1.6-0.1c-3.1-2.5-6.2-5-9.6-7.7c4.5-3.1,9.2-4.5,14.4-4.6c-5-1.1-9.4,0.4-13.6,2.8c-0.7,0.4-1.5,1.4-2.1,0.5
		c-0.6-1,0.7-1.2,1.4-1.6c4.6-2.7,9.4-4.6,14.8-3.1c1.8,0.5,2.5-0.6,3.3-1.6c8.2-10.1,17-19.7,26.5-28.7c13.7-13,29-23.7,45.9-33.1
		c-2.3,6.3-4.9,11.9-7.5,17.6c-10.6,23-25.6,42.9-42.8,61.4c-1.9,2-2.7,3.7-1.6,6.6c1.3,3.6,0.7,7.3-0.6,11
		c-0.4,1.2-0.7,1.5-1.8,0.6c-5-3.8-10.1-7.5-15.2-11.2c-1.2-0.8-0.7-1.4,0-2.1c1.7-1.8,3.2-3.7,4.5-5.9c0.7-1.1,0.9-2.3-0.1-3.2
		c-1-0.9-2.1-0.4-2.9,0.4c-1.4,1.3-2.8,2.6-4.1,4c-2.5,2.7-2.4,2.7-5.4,0.6c-1.2-0.9-1.7-1.4-0.5-2.9c16.4-19.2,32.6-38.6,51.8-55.1
		C153.5,30.2,159.6,25.3,165.6,20.1z M144.5,52.5c3,0,5.5-2.3,5.5-5.2c0.1-3-2.6-5.6-5.6-5.5c-2.9,0-5.3,2.5-5.3,5.5
		C139.2,50.2,141.5,52.5,144.5,52.5z M108.1,84.9c-3.5-0.1-4.7,2.8-6.5,5C103.8,88.4,105.3,85.9,108.1,84.9z"/>
	<path d="M75.2,118.9c-1.6,1.9-3.3,3.8-4.8,5.8c-3.1,4.1-5.8,8.4-6.9,13.5c-0.2,0.8-0.7,1.7,0.1,2.3c0.7,0.5,1.6,0.1,2.3-0.2
		c3.6-1.4,6.6-3.8,9.5-6.3c3.4-3,6.3-6.4,9.4-9.7c-7.5,11.5-15.2,22.8-29.1,27.6c-2.9,1-3.1,0.8-2.6-2.1c1.3-8,5.6-14.5,10.7-20.6
		C67.2,125.3,70.8,121.7,75.2,118.9z"/>
	<path d="M74.9,39.7c-7,5.8-12.3,12.4-16,20.3c-0.6,1.2-1,1-1.7,0.2c-2-2.1-4.1-4.2-6.2-6.2c-0.8-0.8-0.7-1.4-0.1-2.3
		c4.1-5.8,9-10.7,14.7-14.9c0.9-0.7,1.7-0.8,2.7-0.2C70.4,37.5,72.5,38.5,74.9,39.7z"/>
	<path d="M136.3,33.8c-1.3,0.8-2-0.1-2.7-0.5c-17.6-8-34.9-7.5-51.8,1.9c-2.2,1.2-3.8,1.5-5.8,0c-1.2-0.8-2.5-1.4-3.8-2.2
		C88.9,21.8,118,21.3,136.3,33.8z"/>
	<path d="M143.9,127c7.2-5.9,12.5-12.8,16.3-21c4.3,3.6,4.4,3.9,2.3,8.6c-2.5,5.5-5.6,10.6-9.4,15.3c-1,1.3-1.8,1.4-3.2,0.6
		C148,129.3,146.1,128.3,143.9,127z"/>
	<path d="M165.6,104.5c-2.7-1.7-3.6-3.6-2.6-7.2c3.7-13.7,2.1-27-4.4-39.7c-0.4-0.7-1-1.3-0.7-2.2C166,61.7,170.7,91.5,165.6,104.5z
		"/>
	<path d="M81,120.2c7.3-10.1,15.1-19.8,23.6-28.9c0.8-0.9,1.9-2.6,3-1.8c1.3,1-0.4,2.3-1.1,3.1C98.7,102.4,90.2,111.6,81,120.2z"/>
	<path d="M82.6,123.2c-3.7,6.1-8,11.5-14.9,14.4c-0.6,0.3-1.6,0.6-2,0.3c-0.7-0.5-0.2-1.5,0-2.3c1.8-6.9,6.5-11.8,11.8-16.2
		c-1.4,1.9-2.8,3.9-4.2,5.8c-0.5,0.7-0.8,1.4-1.1,2.2c-0.4,1.2-1.6,2.6-0.6,3.5c1,0.9,2.3-0.4,3.3-1C78,128.2,80.2,125.7,82.6,123.2
		z"/>
	<path d="M114.9,45.8c-5.1-3.3-8.3-1.7-10.9,3.1c2.6-4.6,2.5-8.2-2.8-10.5c2.6-0.2,4.5,2.1,6.3,1.3c1.7-0.8,2.8-2.9,4.5-4.4
		C109.2,39.7,109.3,43.2,114.9,45.8z"/>
	<path d="M140.8,98.8c0.6-1.9,2.1-4.1,1.7-5.8c-0.4-1.7-2.8-2.8-4.4-4.3c-0.7-0.8,0.4-0.2,0.5-0.2c1.9,0.6,4,2.1,5.5,1.7
		c1.6-0.4,2.7-2.7,4-4.3c1.4-1.8,0.3,0.3,0.3,0.4c-2.4,4.1-1.9,7.4,3,10C146.6,93.3,143.4,94.4,140.8,98.8z"/>
	<path d="M72.6,21.5c-4.4-0.5-4.4-0.5-7.3,2.3c2-3.2,1.2-5.6-2.1-7.2c4.4,1,4.4,1,7.7-2C69.2,17.5,69.2,20,72.6,21.5z"/>
	<path d="M166.8,47c2.9,1.6,5,1.3,6.7-1.9c-1.2,2.8-1.6,5.1,1.8,6.6c-2.8-1.2-5.1-1.3-6.7,2C170.6,50.6,169.6,48.7,166.8,47z"/>
</g>
</svg>
